M48
;Layer_Color=9474304
;FILE_FORMAT=4:4
METRIC,LZ
;TYPE=PLATED
T1F00S00C0.3000
T2F00S00C0.4000
T3F00S00C0.6000
T5F00S00C1.3000
;TYPE=NON_PLATED
T6F00S00C0.8500
%
T01
X00017999Y-00015001
Y00018999
X00009499Y00035999
X-00007501
X-00016001Y00052999
Y00018999
X00034999
X00026499Y00035999
X000428Y00037425
X0006Y0001675
X00026499Y00001999
X00094499
X001025Y00039
X0012825Y0003975
X0012725Y000225
X00145499Y00001999
X00158Y-0000225
X00153999Y-00015001
X00170999
X00187999
X00204999
X00221999
X00238999
X00255999
X00272999
X00289999
X003145Y-0001575
X00340999Y-00015001
X00357999
X00374999
X003895Y-0001625
X00408999Y-00015001
X00400499Y00001999
X0037975Y0003725
X003585Y000455
X0033075Y0004625
X00315499Y00035999
X00294Y0003455
X00298499Y00001999
X00182584Y00014167
X00142257Y00047252
X00136999Y-00015001
X00425999
X00417499Y00001999
X00425999Y00018999
X00451499Y00035999
X00468499
X004265Y000595
X0045275Y0011125
X00451499Y00205999
X00468499
X00459999Y00222999
X00442999
X00425999
X00434499Y00205999
X00417499
X0041825Y0018775
X00417499Y00239999
X00425999Y00256999
X00404Y00269
X00400499Y00239999
X00408999Y00222999
X00400499Y00205999
X0037525Y0019925
X0033135Y001981
X00323999Y00222999
X00306999
X00292Y00235
X0026325Y0021775
X00253788Y0020844
X0024675Y0022075
X0024925Y0018725
X00234762Y00186259
X00234758Y00195242
X00204999Y00188999
X00187999
X00196499Y00205999
X0014725Y0018925
X00119999Y00188999
Y00154999
X00102999
X001365Y00162
X00145499Y00137999
X00173243Y00152007
X00179759Y00110755
X0020275Y00118
X00203Y000995
X0021605Y00086953
X00213499Y00069999
X00196499
X00179499
X0014675Y000565
X00122Y0005475
X0012175Y00074
X00133257Y00080754
X0012275Y000915
X00119999Y00120999
X0008625Y001235
X0009575Y00107
X0007875Y00098
X0008475Y00077
X00102Y000645
X0006325Y000625
X0004725Y0006075
X00026499Y00103999
X00034999Y00120999
X00026499Y00137999
X00034999Y00154999
X00026499Y00171999
X00068999Y00188999
X00051999Y00222999
X00034999
X00043499Y00239999
X00060499
X00051999Y00256999
X00068999
X000875Y00252
X0010375Y0026525
X001265Y002655
X0014525Y0025125
X0012275Y0022175
X001835Y0026675
X0032825Y002675
X00357999Y00256999
X00374999
X0036525Y001525
X00359268Y00133506
X0034675Y00137
X00319Y0013975
X003215Y0012225
X00321016Y00107505
X0032725Y0008925
X003245Y0007525
X00350267Y00076504
X00340767Y00062253
X0037675Y00062
X0039125Y0007825
X00402Y0010225
X003775Y00108
X003765Y0013525
X00361268Y00093755
X00288014Y00088504
X002905Y00074
X0029075Y00057
X00259972Y00087528
X00271013Y00105005
X0028525Y00115
X002965Y0015825
X00315499Y00171999
X0026725Y0018675
X00243762Y00140757
X002265Y00132
X00219011Y00145007
X00026499Y00239999
X00034999Y00256999
X00017999Y00222999
X00000999
X-00016001
Y00188999
Y00154999
X00000999
X00017999
X00009499Y00171999
Y00137999
X-00007501
X-00016001Y00120999
X00000999
X00017999
X00009499Y00103999
X-00007501
Y00069999
X00017999Y00086999
T02
X0004875Y001023
Y001103
Y001183
X0005575Y001143
Y001223
Y001303
Y001383
X0004875Y001423
Y001503
X0005575Y001543
X0004875Y001343
X0005575Y000983
T03
X000375Y-000015
X0005
X000625
X00075
X0025475Y0025875
X0026725
X0027975
X0029225
T05
X0Y0
Y0025
T06
X0006225Y000903
Y001623
M30
