M48
;Layer_Color=9474304
;FILE_FORMAT=4:4
METRIC,LZ
;TYPE=PLATED
T1F00S00C0.3000
T2F00S00C0.4000
T3F00S00C0.6000
T5F00S00C1.3000
;TYPE=NON_PLATED
T6F00S00C0.8500
%
T01
X00018001Y-00016999
Y00023001
X-00001999
X00008001Y00043001
X00033782Y00046482
X00038608Y00028194
X00028001Y00003001
X00038001Y-00016999
X00058001
X00078001
X00098001
X00118001
X00138001
X00158001
X00178001
X00198001
X00218001
X00233172Y-00021844
X00258001Y-00016999
X00278001
X00284988Y-00000254
X00284734Y00020828
X00286323Y00034987
X0029464Y000508
X00257556Y00048514
X00236507Y0004049
X00220622Y00052871
X00218001Y00023001
X00208001Y00003001
X00228001
X00245618Y00006604
X00262128Y00000508
X00304546Y00017526
X00338836Y00020574
X00340106Y00049022
X00348001Y00043001
X00368001
X00388001
X00385318Y00030988
X00398001Y00023001
X00408001Y00043001
Y00003001
X00402336Y-00022098
X00378001Y-00016999
X00358001
X00328676Y-00021844
X0030861
X00328001Y00043001
X0018681Y00048776
X00116078Y00041904
X0010287Y00044848
X00090424Y00015748
X00418001Y00023001
X00438001
X00458001
X00468001Y00043001
X00448001
X00428001
Y00003001
X00448001
X00468001
X00458001Y-00016999
X00438001
X00418001
Y00063001
X00428001Y00083001
X00448001
X00468001
X00458001Y00103001
X00438001
X00448001Y00123001
X00468001
X00458001Y00143001
X00438001
X00448001Y00163001
X00468001
Y00203001
X00448001
X00452628Y00188468
X00428001Y00203001
X00438001Y00223001
X00458001
X00468001Y00243001
X00448001
X00428001
X00438001Y00263001
X00458001
X00418001
Y00223001
Y00183001
X00428001Y00163001
Y00123001
X00452628Y00066548
X00398001Y00063001
X00378001
X00358001
X00328001Y00083001
X00308001
X00296926Y0007493
X00288093Y00061755
X0030134Y00057
X00303784Y0010033
X00280416Y00098298
X00272796Y0007747
X00269494Y00122174
X00258572Y0012065
X00287956Y0012221
X00308001Y00123001
X00328001
X00338001Y00143001
X00328001Y00163001
X00348001
X00315722Y00172974
X00323596Y00206502
X00303022Y00236116
X00293116Y0023622
X00291846Y00227076
X00298001Y00263001
X00311658Y00268986
X00328676Y00268478
X0034798Y00248666
X00360934Y00247904
X00372618Y0024892
X00408001Y00243001
X00398001Y00223001
X00408001Y00203001
X00388001
X00377952Y0019685
X00384048Y00186436
X00398001Y00183001
X00403606Y001651
Y00150368
X00404114Y00269494
X00278001Y00263001
X00258001
X00270703Y00249367
X0023622Y00268478
X00226314Y00239522
X00236147Y00205743
X0023114Y00198628
X00249908Y00198901
X00245618Y00185674
X0022982Y00179988
X00229824Y00163831
X00263398Y0016383
X0026416Y00181864
X00277622Y00182626
X00249682Y00145796
X00242359Y00139844
X00209656Y00134468
X00195112Y00134148
X00201396Y00122985
X00195362Y00111644
X00212959
X00207035Y00091844
X0017526Y00120142
X00176934Y00134874
X00168261Y00134187
X00114808Y0013335
X00078098Y00129558
X00086106Y00109474
Y00085448
X00078955Y00072429
X0007493Y00058928
X00127708Y00061501
X00136485Y00063491
X0012954Y0007493
X00133525Y00091212
X0012627Y00096013
X0017999Y00054178
X00158001Y00183001
X0011938Y00201676
X00098001Y00183001
X0009906Y00164846
X00028001Y00163001
X00038001Y00183001
X00028001Y00203001
X00038001Y00223001
X00028001Y00243001
X00108001
X00038001Y00143001
X00018001
X-00001999
X00008001Y00163001
X00018001Y00183001
X-00001999
X00008001Y00203001
X00018001Y00223001
X-00001999
X00018001Y00263001
X00008001Y00123001
X-00001999Y00103001
X00008001Y00083001
T02
X0004875Y001023
Y001103
Y001183
X0005575Y001143
Y001223
Y001303
Y001383
X0004875Y001423
Y001503
X0005575Y001543
X0004875Y001343
X0005575Y000983
T03
X00049Y0000075
X000615
X00074
X000865
X000825Y002545
X0007
X000575
X00045
T05
X0Y0
Y0025
T06
X0006225Y000903
Y001623
M30
