M48
;Layer_Color=9474304
;FILE_FORMAT=4:4
METRIC,LZ
;TYPE=PLATED
T1F00S00C0.3000
T2F00S00C0.4000
T3F00S00C0.6000
T5F00S00C1.3000
;TYPE=NON_PLATED
T6F00S00C0.8500
%
T01
X-00012Y00038
X00013
X0003275Y0002875
X0004225Y000402
X00069Y0004775
X00078548Y00033542
X001045Y0001725
X001255Y00013
X001505
X001755
X002005
X002255
X0024525Y0002125
X00251288Y00041284
X002565Y0004825
X0023575Y000535
X00213Y00038
X00188
Y-00012
X00213
X00238
X00263
X00288
X00313
X0030775Y-0002175
X00338Y-00012
X00363
X00388
X00413
X004005Y00013
X00413Y00038
X0035975Y00031
X0034725Y000205
X00338Y00038
X00313
X003255Y00013
X0029575Y0001505
X00275Y000325
X00138Y00038
Y-00012
X00163
X00113
X00038
X000505Y00013
X000255
X004255
X004505
X004755
X00463Y00038
X00438
Y-00012
X00463
X0041775Y00074
X004505Y00113
X004755
Y00213
X004505
X004255
X00438Y00238
X00463
X004755Y00263
X004505
X004255
X0040525Y0026225
X003755Y00263
X003505
X003255
X003005
X002755
X002505
X0023725Y0026225
X002255Y00263
X00219Y0024275
X0023575Y0023225
X00240475Y00214804
X0024675Y00204
X00229448Y00204052
X0023125Y001955
X00226Y00185
X0022875Y00157
X0023925Y00156
X002575Y0012875
X00269785Y00124993
X00281248Y001173
X0027625Y00097
X002695Y00076
X00269Y00067
X00209226Y0009185
X002065Y0010525
X00197Y00113
X001755Y00113
X001635Y001135
X0016375Y0009955
X00163Y00088
X0013025Y0007225
X001255Y00063
X00112447Y00073447
X000955Y000585
X00076043Y00062695
X000635Y0006875
X000825Y0008175
X000855Y0012225
X00076989Y0012775
X001Y00118
X0012075Y00108
X00129194Y00119866
X00113Y00138
X0011475Y0015575
X001255Y00163
X0014125Y0016575
X001505Y00163
X001455Y0019
X0011725Y0018075
X00111Y002035
X00113Y00238
X0014375Y00254
X001755Y00213
X0018125Y0012325
X002135Y0012375
X0028575Y0016425
X00277Y00182
X003005Y00213
X00308061Y00221811
X00293Y002385
X002675Y00231
X0032375Y0019525
X003255Y00163
Y00113
X0036825Y0008575
X003755Y00063
X003505
X0040125Y001655
X00413Y00188
X004005Y00213
X00413Y00238
X0038575Y0024025
X0036075Y0023125
X000505Y00213
X000255
Y00263
Y00163
X00038Y00138
X000255Y00113
X000005
X00013Y00138
X-00012
X000005Y00163
X-00012Y00188
X000005Y00213
X00013Y00088
X000005Y00063
T02
X0004875Y001023
Y001103
Y001183
X0005575Y001143
Y001223
Y001303
Y001383
X0004875Y001423
Y001503
X0005575Y001543
X0004875Y001343
X0005575Y000983
T03
X00049Y0000075
X000615
X00074
X000865
X000825Y002545
X0007
X000575
X00045
T05
X0Y0
Y0025
T06
X0006225Y000903
Y001623
M30
