M48
;Layer_Color=9474304
;FILE_FORMAT=4:4
METRIC,LZ
;TYPE=PLATED
T1F00S00C0.3000
T2F00S00C0.4000
T3F00S00C0.6000
T5F00S00C1.3000
;TYPE=NON_PLATED
T6F00S00C0.8500
%
T01
X00018001Y-00016999
Y00023001
X-00001999
X00008001Y00043001
X00033782Y00046482
X00038608Y00028194
X00028001Y00003001
X00038001Y-00016999
X00058001
X00078001
X00098001
X00118001
X00138001
X00158001
X00178001
X00198001
X00218001
X00233172Y-00021844
X00258001Y-00016999
X00278001
X0030861Y-00021844
X00328676
X00358001Y-00016999
X00378001
X00402336Y-00022098
X00408001Y00003001
X00398001Y00023001
X00385318Y00030988
X00388001Y00043001
X00408001
X00368001
X00348001
X00328001
X00308001
X00304546Y00017526
X00284734Y00020828
X00285242Y00036068
X00257556Y00048514
X00229616Y00039624
X00223774Y00052578
X00218001Y00023001
X00228001Y00003001
X00208001
X00245618Y00006604
X00179578Y00041402
X0018034Y00050069
X00169926Y00047602
X00138001Y00023001
X0010541Y00017272
X00338836Y00020574
X00418001Y00023001
X00438001
X00458001
X00468001Y00043001
X00448001
X00428001
Y00003001
X00448001
X00468001
X00458001Y-00016999
X00438001
X00418001
Y00063001
X00428001Y00083001
X00448001
X00468001
X00458001Y00103001
X00438001
X00448001Y00123001
X00468001
X00458001Y00143001
X00438001
X00448001Y00163001
X00468001
Y00203001
X00448001
X00452628Y00188468
X00428001Y00203001
X00438001Y00223001
X00458001
X00468001Y00243001
X00448001
X00428001
X00438001Y00263001
X00458001
X00418001
Y00223001
Y00183001
X00428001Y00163001
Y00123001
X00452628Y00066548
X00398001Y00063001
X00378001
X00358001
X00338001
X00318001
X00298001
X00308001Y00083001
X00328001
X00338001Y00103001
X00318001
X00303784Y0010033
X00280416Y00098298
X00272796Y0007747
X00270764Y0012319
X00258572Y0012065
X00288001Y00123001
X00308001
X00328001
X00338001Y00143001
X00348001Y00163001
X00328001
X00338001Y00183001
X00318001
X00323596Y00206502
X00303022Y00235966
X00293116Y0023622
X00291846Y00227076
X00298001Y00263001
X00311658Y00268986
X00328676Y00268478
X0034798Y00248666
X00360934Y00247904
X00372618Y0024892
X00408001Y00243001
X00398001Y00223001
X00408001Y00203001
X00388001
X00398001Y00183001
X0037719Y00183642
X00368554Y00192024
X00403606Y001651
Y00150368
X00404114Y00269494
X00278001Y00263001
X00258001
X0026797Y00246634
X00226314Y00239522
X0023622Y00268478
X00236147Y00205743
X0023114Y00198628
X00249908Y00198901
X00245618Y00185674
X0026416Y00181864
X00277622Y00182626
X00267208Y00164084
X0023114Y00163068
X00229616Y00178568
X00244377Y00148307
X00242359Y00139844
X00211828Y00136152
X00210566Y00127254
X00196596Y00131826
X00181384Y0012037
X0017272Y00121158
X00169672Y0013208
X0011938Y0013081
X00113134Y00103002
X00118355Y00091199
X00126874Y00096264
X00135153Y00093591
X00127508Y00072644
X00136485Y00063491
X00164338Y00055118
X00198001Y00103001
X0021209Y00109474
X00086106
Y00085448
X00078955Y00072429
X0007493Y00058928
X00078098Y00129558
X00038001Y00143001
X00028001Y00163001
X00038001Y00183001
X00028001Y00203001
X00038001Y00223001
X00028001Y00243001
X00108001
X00098001Y00183001
X0009906Y00164846
X00158001Y00183001
X00018001
X-00001999
X00008001Y00203001
X00018001Y00223001
X-00001999
X00018001Y00263001
X00008001Y00163001
X00018001Y00143001
X-00001999
X00008001Y00123001
X-00001999Y00103001
X00008001Y00083001
T02
X0004875Y001023
Y001103
Y001183
X0005575Y001143
Y001223
Y001303
Y001383
X0004875Y001423
Y001503
X0005575Y001543
X0004875Y001343
X0005575Y000983
T03
X00049Y0000075
X000615
X00074
X000865
X000825Y002545
X0007
X000575
X00045
T05
X0Y0
Y0025
T06
X0006225Y000903
Y001623
M30
