G04*
G04 #@! TF.GenerationSoftware,Altium Limited,Altium Designer,21.6.1 (37)*
G04*
G04 Layer_Color=32896*
%FSLAX44Y44*%
%MOMM*%
G71*
G04*
G04 #@! TF.SameCoordinates,11CCFD72-63DB-4119-8E51-9F3FA7F87259*
G04*
G04*
G04 #@! TF.FilePolarity,Positive*
G04*
G01*
G75*
%ADD10C,0.2000*%
%ADD13C,0.6000*%
%ADD14C,0.2500*%
%ADD15C,0.1270*%
%ADD16C,0.1700*%
D10*
X38500Y13000D02*
G03*
X38500Y13000I-1000J0D01*
G01*
X293250Y244250D02*
G03*
X293250Y244250I-1000J0D01*
G01*
X-18750Y116003D02*
Y122667D01*
X-17417Y124000D01*
X-14751D01*
X-13418Y122667D01*
Y116003D01*
X-5421Y117336D02*
X-6754Y116003D01*
X-9420D01*
X-10753Y117336D01*
Y118668D01*
X-9420Y120001D01*
X-6754D01*
X-5421Y121334D01*
Y122667D01*
X-6754Y124000D01*
X-9420D01*
X-10753Y122667D01*
X-2755Y116003D02*
Y124000D01*
X1244D01*
X2576Y122667D01*
Y121334D01*
X1244Y120001D01*
X-2755D01*
X1244D01*
X2576Y118668D01*
Y117336D01*
X1244Y116003D01*
X-2755D01*
X297750Y123753D02*
X303082D01*
X300416D01*
Y131750D01*
X305747D02*
Y126418D01*
X308413Y123753D01*
X311079Y126418D01*
Y131750D01*
Y127751D01*
X305747D01*
X313745Y131750D02*
Y123753D01*
X317744D01*
X319076Y125085D01*
Y127751D01*
X317744Y129084D01*
X313745D01*
X316411D02*
X319076Y131750D01*
X327074Y125085D02*
X325741Y123753D01*
X323075D01*
X321742Y125085D01*
Y130417D01*
X323075Y131750D01*
X325741D01*
X327074Y130417D01*
Y127751D01*
X324408D01*
X335071Y123753D02*
X329740D01*
Y131750D01*
X335071D01*
X329740Y127751D02*
X332406D01*
X337737Y123753D02*
X343069D01*
X340403D01*
Y131750D01*
X359063Y125085D02*
X357731Y123753D01*
X355065D01*
X353732Y125085D01*
Y126418D01*
X355065Y127751D01*
X357731D01*
X359063Y129084D01*
Y130417D01*
X357731Y131750D01*
X355065D01*
X353732Y130417D01*
X361729Y123753D02*
Y131750D01*
X364395Y129084D01*
X367061Y131750D01*
Y123753D01*
X369727D02*
Y131750D01*
X373726D01*
X375058Y130417D01*
Y125085D01*
X373726Y123753D01*
X369727D01*
X377724Y131750D02*
X380390D01*
X379057D01*
Y123753D01*
X377724Y125085D01*
D13*
X-23250Y133500D02*
X8000D01*
X15750Y125750D01*
Y125250D02*
Y125750D01*
X-24250Y107500D02*
X9000D01*
X17500Y116000D01*
X18000D01*
X365250Y108750D02*
X377250D01*
X384500Y116000D01*
X322000D02*
X384500D01*
X288750Y115750D02*
X306500D01*
X324000Y8250D02*
Y30250D01*
X316750Y1000D02*
X324000Y8250D01*
X316750Y1000D02*
Y68250D01*
X269750Y115250D02*
X316750Y68250D01*
X17000Y115250D02*
X269750Y115250D01*
X324500Y247500D02*
Y262750D01*
X316750Y270500D02*
X324500Y262750D01*
X316750Y173250D02*
Y270500D01*
X269500Y126000D02*
X316750Y173250D01*
X15750Y126000D02*
X269500Y126000D01*
D14*
X68415Y100177D02*
X66748Y98511D01*
X63416D01*
X61750Y100177D01*
Y101843D01*
X63416Y103510D01*
X66748D01*
X68415Y105176D01*
Y106842D01*
X66748Y108508D01*
X63416D01*
X61750Y106842D01*
X71747Y98511D02*
X78411D01*
X75079D01*
Y108508D01*
X81743Y103510D02*
X88408D01*
X91740Y98511D02*
Y108508D01*
X98405D01*
X101737Y98511D02*
X105069D01*
X103403D01*
Y108508D01*
X101737D01*
X105069D01*
X110068D02*
Y98511D01*
X116732Y108508D01*
Y98511D01*
X120064D02*
Y108508D01*
Y105176D01*
X126729Y98511D01*
X121731Y103510D01*
X126729Y108508D01*
X140058D02*
Y98511D01*
X145056D01*
X146723Y100177D01*
Y103510D01*
X145056Y105176D01*
X140058D01*
X150055Y108508D02*
Y98511D01*
X155053D01*
X156719Y100177D01*
Y103510D01*
X155053Y105176D01*
X150055D01*
X153387D02*
X156719Y108508D01*
X165050Y98511D02*
X161718D01*
X160052Y100177D01*
Y106842D01*
X161718Y108508D01*
X165050D01*
X166716Y106842D01*
Y100177D01*
X165050Y98511D01*
X176713Y100177D02*
X175047Y98511D01*
X171714D01*
X170048Y100177D01*
Y106842D01*
X171714Y108508D01*
X175047D01*
X176713Y106842D01*
Y103510D01*
X173381D01*
X180045Y108508D02*
Y98511D01*
X185044D01*
X186710Y100177D01*
Y103510D01*
X185044Y105176D01*
X180045D01*
X183377D02*
X186710Y108508D01*
X190042D02*
Y101843D01*
X193374Y98511D01*
X196707Y101843D01*
Y108508D01*
Y103510D01*
X190042D01*
X200039Y108508D02*
Y98511D01*
X203371Y101843D01*
X206703Y98511D01*
Y108508D01*
X210035D02*
Y98511D01*
X213368Y101843D01*
X216700Y98511D01*
Y108508D01*
X226697Y98511D02*
X220032D01*
Y108508D01*
X226697D01*
X220032Y103510D02*
X223365D01*
X230029Y108508D02*
Y98511D01*
X235028D01*
X236694Y100177D01*
Y103510D01*
X235028Y105176D01*
X230029D01*
X233361D02*
X236694Y108508D01*
X68415Y136169D02*
X66748Y134503D01*
X63416D01*
X61750Y136169D01*
Y142834D01*
X63416Y144500D01*
X66748D01*
X68415Y142834D01*
X71747Y144500D02*
Y137836D01*
X75079Y134503D01*
X78411Y137836D01*
Y144500D01*
Y139502D01*
X71747D01*
X81743Y144500D02*
Y134503D01*
X88408Y144500D01*
Y134503D01*
X108402Y136169D02*
X106735Y134503D01*
X103403D01*
X101737Y136169D01*
Y137836D01*
X103403Y139502D01*
X106735D01*
X108402Y141168D01*
Y142834D01*
X106735Y144500D01*
X103403D01*
X101737Y142834D01*
X111734Y144500D02*
Y134503D01*
X118398Y144500D01*
Y134503D01*
X121731D02*
X125063D01*
X123397D01*
Y144500D01*
X121731D01*
X125063D01*
X136726Y134503D02*
X130061D01*
Y139502D01*
X133393D01*
X130061D01*
Y144500D01*
X146723Y134503D02*
X140058D01*
Y139502D01*
X143390D01*
X140058D01*
Y144500D01*
X156719Y134503D02*
X150055D01*
Y144500D01*
X156719D01*
X150055Y139502D02*
X153387D01*
X160052Y144500D02*
Y134503D01*
X165050D01*
X166716Y136169D01*
Y139502D01*
X165050Y141168D01*
X160052D01*
X163384D02*
X166716Y144500D01*
X180045Y134503D02*
Y141168D01*
X183377Y144500D01*
X186710Y141168D01*
Y134503D01*
X196707Y144500D02*
X190042D01*
X196707Y137836D01*
Y136169D01*
X195040Y134503D01*
X191708D01*
X190042Y136169D01*
D15*
X15000Y-17800D02*
Y-3500D01*
X31250D01*
X81250D02*
X97500D01*
Y-17800D02*
Y-3500D01*
X314750Y260750D02*
Y275050D01*
X298500Y260750D02*
X314750D01*
X232250D02*
X248500D01*
X232250D02*
Y275050D01*
D16*
X77213Y-32057D02*
X78379Y-30891D01*
Y-28558D01*
X77213Y-27392D01*
X76047D01*
X74880Y-28558D01*
Y-29724D01*
Y-28558D01*
X73714Y-27392D01*
X72548D01*
X71382Y-28558D01*
Y-30891D01*
X72548Y-32057D01*
X78379Y-25059D02*
X73714D01*
X71382Y-22726D01*
X73714Y-20394D01*
X78379D01*
X77213Y-18061D02*
X78379Y-16895D01*
Y-14562D01*
X77213Y-13396D01*
X76047D01*
X74880Y-14562D01*
Y-15729D01*
Y-14562D01*
X73714Y-13396D01*
X72548D01*
X71382Y-14562D01*
Y-16895D01*
X72548Y-18061D01*
X39781Y-27392D02*
X40948Y-28558D01*
Y-30891D01*
X39781Y-32057D01*
X35116D01*
X33950Y-30891D01*
Y-28558D01*
X35116Y-27392D01*
X37449D01*
Y-29724D01*
X33950Y-25059D02*
X40948D01*
X33950Y-20394D01*
X40948D01*
Y-18061D02*
X33950D01*
Y-14562D01*
X35116Y-13396D01*
X39781D01*
X40948Y-14562D01*
Y-18061D01*
X402193Y60696D02*
X403359Y59530D01*
X405692D01*
X406858Y60696D01*
Y61862D01*
X405692Y63029D01*
X404526D01*
X405692D01*
X406858Y64195D01*
Y65361D01*
X405692Y66528D01*
X403359D01*
X402193Y65361D01*
X409191Y59530D02*
Y64195D01*
X411524Y66528D01*
X413856Y64195D01*
Y59530D01*
X416189Y60696D02*
X417355Y59530D01*
X419688D01*
X420854Y60696D01*
Y61862D01*
X419688Y63029D01*
X418521D01*
X419688D01*
X420854Y64195D01*
Y65361D01*
X419688Y66528D01*
X417355D01*
X416189Y65361D01*
X392863Y85651D02*
X391697Y84484D01*
X389364D01*
X388198Y85651D01*
Y86817D01*
X389364Y87983D01*
X391697D01*
X392863Y89150D01*
Y90316D01*
X391697Y91482D01*
X389364D01*
X388198Y90316D01*
X395196Y84484D02*
Y91482D01*
X397528Y89150D01*
X399861Y91482D01*
Y84484D01*
X406858Y85651D02*
X405692Y84484D01*
X403359D01*
X402193Y85651D01*
Y90316D01*
X403359Y91482D01*
X405692D01*
X406858Y90316D01*
X409191Y84484D02*
Y91482D01*
X413856D01*
X416189Y84484D02*
Y91482D01*
Y89150D01*
X420854Y84484D01*
X417355Y87983D01*
X420854Y91482D01*
X406858Y110605D02*
X405692Y109439D01*
X403359D01*
X402193Y110605D01*
Y115270D01*
X403359Y116437D01*
X405692D01*
X406858Y115270D01*
Y112938D01*
X404526D01*
X409191Y116437D02*
Y109439D01*
X413856Y116437D01*
Y109439D01*
X416189D02*
Y116437D01*
X419688D01*
X420854Y115270D01*
Y110605D01*
X419688Y109439D01*
X416189D01*
X394029Y135560D02*
X392863Y134393D01*
X390530D01*
X389364Y135560D01*
Y136726D01*
X390530Y137892D01*
X392863D01*
X394029Y139059D01*
Y140225D01*
X392863Y141391D01*
X390530D01*
X389364Y140225D01*
X396362Y134393D02*
Y141391D01*
X398694Y139059D01*
X401027Y141391D01*
Y134393D01*
X403359D02*
Y141391D01*
X406858D01*
X408025Y140225D01*
Y135560D01*
X406858Y134393D01*
X403359D01*
X410357D02*
X412690D01*
X411524D01*
Y141391D01*
X410357D01*
X412690D01*
X419688Y134393D02*
X417355D01*
X416189Y135560D01*
Y140225D01*
X417355Y141391D01*
X419688D01*
X420854Y140225D01*
Y135560D01*
X419688Y134393D01*
X395196Y166346D02*
Y159348D01*
X399861Y166346D01*
Y159348D01*
X402193Y166346D02*
Y159348D01*
X405692D01*
X406858Y160514D01*
Y162847D01*
X405692Y164013D01*
X402193D01*
X404526D02*
X406858Y166346D01*
X413856Y160514D02*
X412690Y159348D01*
X410357D01*
X409191Y160514D01*
Y161680D01*
X410357Y162847D01*
X412690D01*
X413856Y164013D01*
Y165179D01*
X412690Y166346D01*
X410357D01*
X409191Y165179D01*
X416189Y159348D02*
X420854D01*
X418521D01*
Y166346D01*
X406858Y185469D02*
X405692Y184302D01*
X403359D01*
X402193Y185469D01*
Y186635D01*
X403359Y187801D01*
X405692D01*
X406858Y188967D01*
Y190134D01*
X405692Y191300D01*
X403359D01*
X402193Y190134D01*
X409191Y184302D02*
Y191300D01*
X411524Y188967D01*
X413856Y191300D01*
Y184302D01*
X419688D02*
X417355D01*
X416189Y185469D01*
Y190134D01*
X417355Y191300D01*
X419688D01*
X420854Y190134D01*
Y185469D01*
X419688Y184302D01*
X253537Y239307D02*
X252371Y238141D01*
Y235808D01*
X253537Y234642D01*
X254703D01*
X255869Y235808D01*
Y236974D01*
Y235808D01*
X257036Y234642D01*
X258202D01*
X259368Y235808D01*
Y238141D01*
X258202Y239307D01*
X252371Y232309D02*
X257036D01*
X259368Y229977D01*
X257036Y227644D01*
X252371D01*
X253537Y225311D02*
X252371Y224145D01*
Y221812D01*
X253537Y220646D01*
X254703D01*
X255869Y221812D01*
Y222979D01*
Y221812D01*
X257036Y220646D01*
X258202D01*
X259368Y221812D01*
Y224145D01*
X258202Y225311D01*
X290969Y234642D02*
X289802Y235808D01*
Y238141D01*
X290969Y239307D01*
X295634D01*
X296800Y238141D01*
Y235808D01*
X295634Y234642D01*
X293301D01*
Y236974D01*
X296800Y232309D02*
X289802D01*
X296800Y227644D01*
X289802D01*
Y225311D02*
X296800D01*
Y221812D01*
X295634Y220646D01*
X290969D01*
X289802Y221812D01*
Y225311D01*
M02*
