G04*
G04 #@! TF.GenerationSoftware,Altium Limited,Altium Designer,21.6.1 (37)*
G04*
G04 Layer_Color=8388736*
%FSLAX44Y44*%
%MOMM*%
G71*
G04*
G04 #@! TF.SameCoordinates,11CCFD72-63DB-4119-8E51-9F3FA7F87259*
G04*
G04*
G04 #@! TF.FilePolarity,Negative*
G04*
G01*
G75*
%ADD39R,2.8500X2.7750*%
%ADD40R,1.2000X2.9000*%
%ADD41R,0.8000X1.9000*%
%ADD42R,1.0000X1.2000*%
%ADD43R,4.0000X2.0000*%
%ADD44R,2.9000X1.2000*%
%ADD45R,0.9000X1.1000*%
%ADD46R,2.5300X1.7600*%
%ADD47R,1.0000X1.0000*%
%ADD48R,2.2000X0.6000*%
%ADD49R,0.7588X1.5208*%
%ADD50R,1.1000X0.9000*%
%ADD51R,1.2000X1.0000*%
%ADD52R,0.7250X0.5000*%
%ADD53R,1.8500X2.6500*%
%ADD54O,0.4845X2.0000*%
%ADD55O,2.0000X0.4845*%
%ADD56R,1.2000X0.4845*%
%ADD57R,0.9000X0.5200*%
%ADD58R,1.2800X0.4600*%
%ADD59R,0.4600X1.2800*%
%ADD60C,3.2000*%
%ADD61O,2.0000X1.1000*%
%ADD62C,0.8000*%
%ADD63O,1.1000X1.7000*%
%ADD64C,1.0500*%
G36*
X67471Y88251D02*
X67386Y87709D01*
X67243Y87178D01*
X67046Y86665D01*
X66797Y86175D01*
X66498Y85714D01*
X66152Y85287D01*
X65763Y84899D01*
X65336Y84553D01*
X64875Y84253D01*
X64386Y84004D01*
X63872Y83807D01*
X63342Y83665D01*
X62799Y83579D01*
X62250Y83550D01*
X61701Y83579D01*
X61159Y83665D01*
X60628Y83807D01*
X60115Y84004D01*
X59625Y84253D01*
X59164Y84553D01*
X58737Y84899D01*
X58349Y85287D01*
X58003Y85714D01*
X57704Y86175D01*
X57454Y86665D01*
X57257Y87178D01*
X57115Y87709D01*
X57029Y88251D01*
X57000Y88800D01*
Y91800D01*
X57029Y92349D01*
X57115Y92892D01*
X57257Y93422D01*
X57454Y93935D01*
X57704Y94425D01*
X58003Y94886D01*
X58349Y95313D01*
X58737Y95702D01*
X59164Y96047D01*
X59625Y96347D01*
X60115Y96596D01*
X60628Y96793D01*
X61159Y96935D01*
X61701Y97021D01*
X62250Y97050D01*
X62799Y97021D01*
X63342Y96935D01*
X63872Y96793D01*
X64386Y96596D01*
X64875Y96347D01*
X65336Y96047D01*
X65763Y95702D01*
X66152Y95313D01*
X66498Y94886D01*
X66797Y94425D01*
X67046Y93935D01*
X67243Y93422D01*
X67386Y92892D01*
X67471Y92349D01*
X67500Y91800D01*
Y88800D01*
X67471Y88251D01*
D02*
G37*
D39*
X196250Y202625D02*
D03*
D40*
X311250Y267000D02*
D03*
X236750D02*
D03*
X389000Y-15750D02*
D03*
X314500D02*
D03*
X329500Y267250D02*
D03*
X404001D02*
D03*
D41*
X280250Y235000D02*
D03*
X292750D02*
D03*
X267750D02*
D03*
X255250D02*
D03*
X370500Y16250D02*
D03*
X358000D02*
D03*
X333000D02*
D03*
X345500D02*
D03*
X348000Y235250D02*
D03*
X360500D02*
D03*
X385500D02*
D03*
X373000D02*
D03*
D42*
X104000Y180000D02*
D03*
X87000D02*
D03*
X266750Y187250D02*
D03*
X249750D02*
D03*
X273500Y73750D02*
D03*
X290500D02*
D03*
X273750Y57000D02*
D03*
X290750D02*
D03*
X136250Y161750D02*
D03*
X153250D02*
D03*
X127750Y251250D02*
D03*
X144750D02*
D03*
X104000Y251750D02*
D03*
X87000D02*
D03*
X263250Y217250D02*
D03*
X246250D02*
D03*
D43*
X450000Y187750D02*
D03*
Y67750D02*
D03*
D44*
X403000Y165250D02*
D03*
Y150250D02*
D03*
Y135250D02*
D03*
Y120250D02*
D03*
Y105250D02*
D03*
Y90250D02*
D03*
D45*
X132500Y189250D02*
D03*
X147500D02*
D03*
X265250Y158000D02*
D03*
X250250D02*
D03*
X265250Y174500D02*
D03*
X250250D02*
D03*
X273750Y112250D02*
D03*
X258750D02*
D03*
X273750Y93500D02*
D03*
X288750D02*
D03*
X274500Y41000D02*
D03*
X289500D02*
D03*
X30250Y196250D02*
D03*
X45250D02*
D03*
X199750Y256500D02*
D03*
X184750D02*
D03*
X250000Y142250D02*
D03*
X265000D02*
D03*
X87500Y64000D02*
D03*
X102500D02*
D03*
X48250Y60750D02*
D03*
X33250D02*
D03*
X87500Y39000D02*
D03*
X102500D02*
D03*
X87750Y14250D02*
D03*
X102750D02*
D03*
D46*
X374150Y198750D02*
D03*
X331350D02*
D03*
D47*
X281500Y157750D02*
D03*
X296500D02*
D03*
X281500Y174750D02*
D03*
X296500D02*
D03*
X12500Y196250D02*
D03*
X-2500D02*
D03*
X295250Y140750D02*
D03*
X280250D02*
D03*
X2250Y60750D02*
D03*
X17250D02*
D03*
D48*
X267500Y27000D02*
D03*
Y15000D02*
D03*
Y3000D02*
D03*
X139750Y233750D02*
D03*
Y221750D02*
D03*
Y209750D02*
D03*
D49*
X86101Y228684D02*
D03*
X104897D02*
D03*
Y205316D02*
D03*
X95499D02*
D03*
X86101D02*
D03*
D50*
X377000Y123250D02*
D03*
Y108250D02*
D03*
X377750Y47000D02*
D03*
Y62000D02*
D03*
X358000Y46500D02*
D03*
Y61500D02*
D03*
Y75000D02*
D03*
Y90000D02*
D03*
X377500Y90250D02*
D03*
Y75250D02*
D03*
X340500Y61500D02*
D03*
Y46500D02*
D03*
X228750Y12750D02*
D03*
Y-2250D02*
D03*
X205417Y12750D02*
D03*
Y-2250D02*
D03*
X158750Y12750D02*
D03*
Y-2250D02*
D03*
D51*
X340000Y74750D02*
D03*
Y91750D02*
D03*
X321750Y122500D02*
D03*
Y105500D02*
D03*
X182584Y13750D02*
D03*
Y-3250D02*
D03*
X127250Y39500D02*
D03*
Y22500D02*
D03*
X123250Y74000D02*
D03*
Y91000D02*
D03*
D52*
X363125Y119250D02*
D03*
Y112750D02*
D03*
Y125750D02*
D03*
Y106250D02*
D03*
X335875Y125750D02*
D03*
Y119250D02*
D03*
Y112750D02*
D03*
Y106250D02*
D03*
D53*
X349500Y116000D02*
D03*
D54*
X217250Y53500D02*
D03*
X212250D02*
D03*
X207250D02*
D03*
X202250D02*
D03*
X197250D02*
D03*
X192250D02*
D03*
X187250D02*
D03*
X182250D02*
D03*
X177250D02*
D03*
X172250D02*
D03*
X167250D02*
D03*
X162250D02*
D03*
Y134500D02*
D03*
X167250D02*
D03*
X172250D02*
D03*
X177250D02*
D03*
X182250D02*
D03*
X187250D02*
D03*
X192250D02*
D03*
X197250D02*
D03*
X202250D02*
D03*
X207250D02*
D03*
X212250D02*
D03*
X217250D02*
D03*
D55*
X149250Y66500D02*
D03*
Y71500D02*
D03*
Y76500D02*
D03*
Y81500D02*
D03*
Y86500D02*
D03*
Y91500D02*
D03*
Y96500D02*
D03*
Y101500D02*
D03*
Y106500D02*
D03*
Y111500D02*
D03*
Y116500D02*
D03*
Y121500D02*
D03*
X230250D02*
D03*
Y116500D02*
D03*
Y111500D02*
D03*
Y106500D02*
D03*
Y101500D02*
D03*
Y96500D02*
D03*
Y91500D02*
D03*
Y86500D02*
D03*
Y81500D02*
D03*
Y76500D02*
D03*
Y71500D02*
D03*
Y66500D02*
D03*
D56*
X69000Y38500D02*
D03*
Y33500D02*
D03*
X69838Y28476D02*
D03*
X52566D02*
D03*
X53000Y33500D02*
D03*
Y38500D02*
D03*
D57*
X68850Y98800D02*
D03*
Y103800D02*
D03*
Y108800D02*
D03*
Y113800D02*
D03*
Y118800D02*
D03*
Y123800D02*
D03*
Y128800D02*
D03*
Y133800D02*
D03*
Y138800D02*
D03*
Y143800D02*
D03*
Y148800D02*
D03*
Y153800D02*
D03*
D58*
X167850Y222750D02*
D03*
Y217750D02*
D03*
Y212750D02*
D03*
Y207750D02*
D03*
Y202750D02*
D03*
Y197750D02*
D03*
Y192750D02*
D03*
Y187750D02*
D03*
Y182750D02*
D03*
X224150D02*
D03*
Y187750D02*
D03*
Y192750D02*
D03*
Y197750D02*
D03*
Y202750D02*
D03*
Y207750D02*
D03*
Y212750D02*
D03*
Y217750D02*
D03*
Y222750D02*
D03*
D59*
X181000Y174600D02*
D03*
X186000D02*
D03*
X191000D02*
D03*
X196000D02*
D03*
X201000D02*
D03*
X206000D02*
D03*
X211000D02*
D03*
X216000D02*
D03*
Y230900D02*
D03*
X211000D02*
D03*
X206000D02*
D03*
X201000D02*
D03*
X196000D02*
D03*
X191000D02*
D03*
X186000D02*
D03*
X181000D02*
D03*
X176000Y174600D02*
D03*
Y230900D02*
D03*
D60*
X0Y250000D02*
D03*
Y0D02*
D03*
D61*
X-9750Y83000D02*
D03*
Y169600D02*
D03*
X47250Y83000D02*
D03*
Y169600D02*
D03*
D62*
X48750Y102300D02*
D03*
Y110300D02*
D03*
Y118300D02*
D03*
Y150300D02*
D03*
Y142300D02*
D03*
Y134300D02*
D03*
X55750Y98300D02*
D03*
Y114300D02*
D03*
Y122300D02*
D03*
Y154300D02*
D03*
Y138300D02*
D03*
Y130300D02*
D03*
D63*
X52250Y166350D02*
D03*
Y86250D02*
D03*
D64*
X62250Y90300D02*
D03*
Y162300D02*
D03*
M02*
