G04*
G04 #@! TF.GenerationSoftware,Altium Limited,Altium Designer,21.6.1 (37)*
G04*
G04 Layer_Physical_Order=2*
G04 Layer_Color=16711680*
%FSLAX44Y44*%
%MOMM*%
G71*
G04*
G04 #@! TF.SameCoordinates,60F4C214-0011-4761-B7B6-9C9FFC6254FC*
G04*
G04*
G04 #@! TF.FilePolarity,Positive*
G04*
G01*
G75*
%ADD10C,0.3000*%
%ADD13C,0.2000*%
%ADD16C,0.6000*%
%ADD17C,0.2500*%
%ADD19C,0.1700*%
%ADD108C,0.5000*%
%ADD111C,3.0000*%
%ADD112O,1.8000X0.9000*%
%ADD113C,0.6000*%
%ADD114O,0.9000X1.5000*%
%ADD115C,0.8500*%
%ADD116C,0.7000*%
%ADD117C,0.7000*%
%ADD118R,0.7000X1.7000*%
G36*
X482451Y258944D02*
Y-13944D01*
X463944Y-32451D01*
X-8944D01*
X-27451Y-13944D01*
Y263944D01*
X-8944Y282451D01*
X458944D01*
X482451Y258944D01*
D02*
G37*
%LPC*%
G36*
X75200Y264700D02*
X64800D01*
Y244300D01*
X75200D01*
Y264700D01*
D02*
G37*
G36*
X62700D02*
X52300D01*
Y244300D01*
X62700D01*
Y264700D01*
D02*
G37*
G36*
X50200D02*
X39800D01*
Y244300D01*
X50200D01*
Y264700D01*
D02*
G37*
G36*
X1645Y266700D02*
X-1645D01*
X-4871Y266058D01*
X-7910Y264799D01*
X-10646Y262972D01*
X-12972Y260646D01*
X-14799Y257910D01*
X-16058Y254871D01*
X-16700Y251645D01*
Y248355D01*
X-16058Y245129D01*
X-14799Y242090D01*
X-12972Y239354D01*
X-10646Y237028D01*
X-7910Y235201D01*
X-4871Y233942D01*
X-1645Y233300D01*
X1645D01*
X4871Y233942D01*
X7910Y235201D01*
X10646Y237028D01*
X12972Y239354D01*
X14799Y242090D01*
X16058Y245129D01*
X16700Y248355D01*
Y251645D01*
X16058Y254871D01*
X14799Y257910D01*
X12972Y260646D01*
X10646Y262972D01*
X7910Y264799D01*
X4871Y266058D01*
X1645Y266700D01*
D02*
G37*
G36*
X373652Y254120D02*
X371584D01*
X369672Y253328D01*
X368210Y251866D01*
X367418Y249954D01*
Y247886D01*
X368210Y245974D01*
X369610Y244574D01*
Y222327D01*
X369839Y221176D01*
X370491Y220201D01*
X374944Y215748D01*
Y201196D01*
X373544Y199796D01*
X372752Y197884D01*
Y195816D01*
X373544Y193904D01*
X375006Y192442D01*
X376918Y191650D01*
X378986D01*
X380898Y192442D01*
X382360Y193904D01*
X383152Y195816D01*
Y197884D01*
X382360Y199796D01*
X380960Y201196D01*
Y216994D01*
X380731Y218144D01*
X380079Y219120D01*
X375626Y223573D01*
Y244574D01*
X377026Y245974D01*
X377818Y247886D01*
Y249954D01*
X377026Y251866D01*
X375564Y253328D01*
X373652Y254120D01*
D02*
G37*
G36*
X255270Y258785D02*
X173736D01*
X172682Y258575D01*
X171789Y257979D01*
X120607Y206796D01*
X120414Y206876D01*
X118346D01*
X116434Y206084D01*
X114972Y204622D01*
X114180Y202710D01*
Y200642D01*
X114972Y198730D01*
X116434Y197268D01*
X118346Y196476D01*
X120414D01*
X122326Y197268D01*
X123788Y198730D01*
X124580Y200642D01*
Y202710D01*
X124500Y202903D01*
X174876Y253279D01*
X201727D01*
X202112Y252009D01*
X202055Y251971D01*
X96918Y146834D01*
X95905Y146157D01*
X92330Y142582D01*
X57693D01*
X56685Y143000D01*
X54815D01*
X54624Y142921D01*
X53247Y143725D01*
X52735Y144962D01*
X52227Y145470D01*
X51428Y146300D01*
X52227Y147129D01*
X52735Y147638D01*
X53450Y149365D01*
Y151235D01*
X52735Y152962D01*
X51413Y154284D01*
X49685Y155000D01*
X47815D01*
X46088Y154284D01*
X44766Y152962D01*
X44050Y151235D01*
Y149365D01*
X44766Y147638D01*
X45274Y147129D01*
X46073Y146300D01*
X45274Y145470D01*
X44766Y144962D01*
X44050Y143235D01*
Y141365D01*
X44766Y139637D01*
X45274Y139129D01*
X46073Y138300D01*
X45274Y137470D01*
X44766Y136962D01*
X44050Y135235D01*
Y133365D01*
X44389Y132547D01*
X43541Y131277D01*
X24731D01*
X24300Y131363D01*
X23052Y131114D01*
X21993Y130407D01*
X19029Y127443D01*
X18322Y126384D01*
X18073Y125136D01*
Y49276D01*
X18322Y48027D01*
X19029Y46969D01*
X34529Y31469D01*
X34200Y31140D01*
X33408Y29228D01*
Y27160D01*
X34200Y25248D01*
X35662Y23786D01*
X37574Y22994D01*
X39642D01*
X41554Y23786D01*
X43016Y25248D01*
X43808Y27160D01*
Y29228D01*
X43016Y31140D01*
X42463Y31693D01*
X42285Y32590D01*
X41577Y33649D01*
X35117Y40109D01*
X35470Y41553D01*
X36728Y42074D01*
X38190Y43536D01*
X38982Y45448D01*
Y47516D01*
X38190Y49428D01*
X36728Y50890D01*
X34816Y51682D01*
X33196D01*
X30949Y53929D01*
Y75833D01*
X32219Y76218D01*
X32343Y76031D01*
X39455Y68919D01*
X40349Y68323D01*
X41402Y68113D01*
X41402Y68113D01*
X58721D01*
X59774Y68323D01*
X60668Y68919D01*
X61424Y69676D01*
X74467D01*
X74547Y69483D01*
X76010Y68020D01*
X77921Y67229D01*
X79990D01*
X81901Y68020D01*
X83364Y69483D01*
X84155Y71394D01*
Y73463D01*
X83364Y75374D01*
X81901Y76837D01*
X79990Y77629D01*
X77921D01*
X76010Y76837D01*
X74547Y75374D01*
X74467Y75181D01*
X60283D01*
X59230Y74972D01*
X58337Y74375D01*
X58337Y74375D01*
X57581Y73619D01*
X42542D01*
X37043Y79118D01*
Y102760D01*
X42960Y108678D01*
X44458Y108380D01*
X44766Y107638D01*
X45274Y107130D01*
X46073Y106300D01*
X45274Y105470D01*
X44766Y104962D01*
X44050Y103235D01*
Y101365D01*
X44766Y99638D01*
X46088Y98315D01*
X47815Y97600D01*
X49685D01*
X51413Y98315D01*
X52735Y99638D01*
X53450Y101365D01*
Y103235D01*
X52735Y104962D01*
X52227Y105470D01*
X51428Y106300D01*
X52227Y107130D01*
X52735Y107638D01*
X53247Y108875D01*
X54624Y109679D01*
X54815Y109600D01*
X56685D01*
X57693Y110018D01*
X72968D01*
X74607Y110344D01*
X75996Y111272D01*
X77616Y112892D01*
X80519D01*
X81367Y111622D01*
X80906Y110508D01*
Y108440D01*
X81698Y106528D01*
X83160Y105066D01*
X83506Y104923D01*
Y89999D01*
X83160Y89856D01*
X81698Y88393D01*
X80906Y86482D01*
Y84413D01*
X81698Y82502D01*
X83160Y81039D01*
X85072Y80248D01*
X87140D01*
X89052Y81039D01*
X90514Y82502D01*
X91306Y84413D01*
Y86482D01*
X90514Y88393D01*
X89052Y89856D01*
X88706Y89999D01*
Y104923D01*
X89052Y105066D01*
X90514Y106528D01*
X91306Y108440D01*
Y110508D01*
X90845Y111622D01*
X91693Y112892D01*
X92790D01*
X94429Y113218D01*
X95818Y114146D01*
X102850Y121178D01*
X103778Y122567D01*
X104104Y124206D01*
Y139024D01*
X208000Y242920D01*
X220718D01*
X221567Y241650D01*
X221114Y240556D01*
Y238488D01*
X221906Y236576D01*
X223368Y235114D01*
X223561Y235034D01*
Y228854D01*
X223771Y227801D01*
X224367Y226907D01*
X240027Y211248D01*
X239988Y211050D01*
X239816Y210877D01*
X238558Y210373D01*
X237181Y210943D01*
X235112D01*
X233201Y210151D01*
X231738Y208689D01*
X231659Y208496D01*
X229487D01*
X228433Y208286D01*
X227540Y207689D01*
X208619Y188769D01*
X208023Y187876D01*
X207813Y186822D01*
Y143652D01*
X208023Y142599D01*
X208467Y141933D01*
X208069Y141338D01*
X207905Y140514D01*
X207414Y140058D01*
X207207Y139953D01*
X205858Y140263D01*
X204396Y141726D01*
X202484Y142517D01*
X200416D01*
X198505Y141726D01*
X197042Y140263D01*
X196250Y138351D01*
Y136283D01*
X196330Y136090D01*
X194643Y134404D01*
X194047Y133511D01*
X193837Y132457D01*
Y129856D01*
X192664Y129370D01*
X185381Y136653D01*
X184487Y137249D01*
X184129Y137321D01*
X183797Y137653D01*
X182904Y138250D01*
X181850Y138459D01*
X180096D01*
X179758Y139273D01*
X178296Y140736D01*
X176385Y141527D01*
X174316D01*
X172405Y140736D01*
X170942Y139273D01*
X170685Y138652D01*
X169636Y138443D01*
X167725Y139235D01*
X165656D01*
X163745Y138443D01*
X162282Y136981D01*
X161491Y135069D01*
Y133001D01*
X162282Y131089D01*
X162570Y130801D01*
X162389Y129187D01*
X162311Y129134D01*
X154009Y120833D01*
X153413Y119940D01*
X153203Y118886D01*
Y57574D01*
X153010Y57494D01*
X151548Y56032D01*
X150756Y54120D01*
Y52052D01*
X151213Y50948D01*
X150365Y49678D01*
X134513D01*
X123289Y60902D01*
Y61902D01*
X131501Y70114D01*
X132486Y70522D01*
X132558Y70595D01*
X133732Y70108D01*
Y67979D01*
X133539Y67899D01*
X132076Y66436D01*
X131285Y64525D01*
Y62456D01*
X132076Y60545D01*
X133539Y59082D01*
X135450Y58291D01*
X137519D01*
X139430Y59082D01*
X140893Y60545D01*
X141685Y62456D01*
Y64525D01*
X140893Y66436D01*
X139430Y67899D01*
X139237Y67979D01*
Y76753D01*
X139237Y76754D01*
X139028Y77807D01*
X138431Y78700D01*
X136303Y80829D01*
Y86734D01*
X136470Y86803D01*
X137933Y88266D01*
X138725Y90177D01*
Y92246D01*
X137933Y94157D01*
X136470Y95620D01*
X134559Y96412D01*
X132491D01*
X131358Y97317D01*
X130678Y98959D01*
X129215Y100421D01*
X127304Y101213D01*
X125235D01*
X123324Y100421D01*
X121861Y98959D01*
X121070Y97047D01*
Y94979D01*
X121861Y93067D01*
X123324Y91604D01*
X125235Y90813D01*
X127304D01*
X128437Y89907D01*
X129116Y88266D01*
X130579Y86803D01*
X130797Y86713D01*
Y82380D01*
X129623Y81894D01*
X119346Y92172D01*
Y130718D01*
X120008Y132316D01*
Y134384D01*
X119216Y136296D01*
X117754Y137758D01*
X115842Y138550D01*
X113774D01*
X111862Y137758D01*
X110400Y136296D01*
X109608Y134384D01*
Y132316D01*
X109762Y131944D01*
Y90187D01*
X109762Y90187D01*
X110127Y88353D01*
X111166Y86798D01*
X122898Y75065D01*
X115109Y67276D01*
X114070Y65721D01*
X113705Y63887D01*
X113705Y63887D01*
Y58917D01*
X113705Y58917D01*
X114070Y57083D01*
X115109Y55528D01*
X115999Y54638D01*
X115473Y53368D01*
X114561D01*
X112650Y52576D01*
X111187Y51113D01*
X110395Y49202D01*
Y47691D01*
X110305Y47601D01*
X107358D01*
X107278Y47794D01*
X105816Y49256D01*
X103904Y50048D01*
X101836D01*
X99924Y49256D01*
X98462Y47794D01*
X97670Y45882D01*
Y43814D01*
X98462Y41902D01*
X99924Y40440D01*
X101836Y39648D01*
X103904D01*
X105816Y40440D01*
X107278Y41902D01*
X107358Y42095D01*
X111445D01*
X112499Y42305D01*
X113392Y42901D01*
X113781Y43291D01*
X114561Y42968D01*
X116629D01*
X118541Y43759D01*
X120003Y45222D01*
X120795Y47133D01*
Y48046D01*
X122065Y48572D01*
X124231Y46406D01*
Y44680D01*
X96797Y17246D01*
X95306Y17551D01*
X94832Y18694D01*
X93370Y20156D01*
X91458Y20948D01*
X89390D01*
X87478Y20156D01*
X86016Y18694D01*
X85936Y18501D01*
X83203D01*
X82231Y19473D01*
X81338Y20069D01*
X80285Y20279D01*
X73276D01*
X73276Y20279D01*
X72222Y20069D01*
X71329Y19473D01*
X71329Y19473D01*
X62807Y10950D01*
X56300D01*
Y-9450D01*
X66700D01*
Y7057D01*
X67627Y7983D01*
X68800Y7497D01*
Y-9450D01*
X79200D01*
Y10950D01*
X72252D01*
X71767Y12123D01*
X74416Y14773D01*
X79144D01*
X80116Y13801D01*
X81009Y13205D01*
X82063Y12995D01*
X82063Y12995D01*
X85714D01*
X86387Y12090D01*
X85880Y10950D01*
X81300D01*
Y-9450D01*
X91700D01*
Y5498D01*
X92748Y5707D01*
X93641Y6303D01*
X128987Y41650D01*
X129139Y41498D01*
X130694Y40459D01*
X132528Y40094D01*
X132528Y40094D01*
X165338D01*
X165338Y40094D01*
X167172Y40459D01*
X167365Y40588D01*
X176625D01*
X180025Y37188D01*
X180025Y37188D01*
X181580Y36149D01*
X183414Y35784D01*
X190207D01*
X190207Y35784D01*
X192041Y36149D01*
X193595Y37188D01*
X205195Y48788D01*
X214539D01*
X215524Y48380D01*
X217592D01*
X219503Y49172D01*
X220966Y50634D01*
X221758Y52546D01*
Y54614D01*
X222658Y55760D01*
X223792D01*
X225704Y56552D01*
X227166Y58014D01*
X227958Y59926D01*
Y61994D01*
X227166Y63906D01*
X225704Y65368D01*
X223792Y66160D01*
X222335D01*
X205404Y83091D01*
X205742Y83909D01*
Y85978D01*
X206125Y86551D01*
X207345D01*
X245043Y48854D01*
X245043Y48853D01*
X245936Y48257D01*
X246989Y48047D01*
X290152D01*
X290232Y47854D01*
X291694Y46392D01*
X293606Y45600D01*
X295674D01*
X297586Y46392D01*
X299048Y47854D01*
X299840Y49766D01*
Y51834D01*
X299048Y53746D01*
X297586Y55208D01*
X295674Y56000D01*
X293606D01*
X291694Y55208D01*
X290232Y53746D01*
X290152Y53553D01*
X248130D01*
X235746Y65937D01*
X236031Y66670D01*
X236369Y67110D01*
X238270D01*
X240182Y67902D01*
X241644Y69365D01*
X242436Y71276D01*
Y73344D01*
X242010Y74373D01*
X243087Y75092D01*
X257387Y60792D01*
X257387Y60791D01*
X258281Y60195D01*
X259334Y59985D01*
X284734D01*
X285788Y60195D01*
X286681Y60791D01*
X295699Y69810D01*
X295892Y69730D01*
X297960D01*
X299872Y70522D01*
X301334Y71984D01*
X302126Y73896D01*
Y75964D01*
X301334Y77876D01*
X299872Y79338D01*
X297960Y80130D01*
X295892D01*
X293980Y79338D01*
X292518Y77876D01*
X291726Y75964D01*
Y73896D01*
X291806Y73703D01*
X288085Y69983D01*
X286727Y70420D01*
X286120Y71884D01*
X284658Y73346D01*
X282746Y74138D01*
X280678D01*
X278766Y73346D01*
X277304Y71884D01*
X276824Y70726D01*
X276458Y70653D01*
X262577D01*
X227157Y106073D01*
X226263Y106670D01*
X225210Y106880D01*
X214036D01*
X213565Y107351D01*
X212672Y107947D01*
X211619Y108157D01*
X203417D01*
X203417Y108157D01*
X202364Y107947D01*
X201751Y107538D01*
X196461D01*
X194407Y109592D01*
Y114799D01*
X195531Y115686D01*
X196259Y115606D01*
X196308Y115573D01*
X196642Y115239D01*
X196642Y115239D01*
X197535Y114642D01*
X198589Y114432D01*
X198589Y114432D01*
X199518D01*
X199804Y114241D01*
X200858Y114032D01*
X200858Y114032D01*
X206716D01*
X207769Y114241D01*
X208662Y114838D01*
X208915Y115091D01*
X231631D01*
X267006Y79715D01*
Y77766D01*
X267798Y75855D01*
X269261Y74392D01*
X271172Y73600D01*
X273241D01*
X275152Y74392D01*
X276615Y75855D01*
X277406Y77766D01*
Y79834D01*
X276615Y81746D01*
X275152Y83208D01*
X273241Y84000D01*
X271172D01*
X270703Y83806D01*
X234718Y119791D01*
X233824Y120387D01*
X232771Y120597D01*
X209095D01*
X208710Y121867D01*
X209149Y122160D01*
X210214Y123225D01*
X211013Y123384D01*
X211856Y123947D01*
X219770Y131862D01*
X220334Y132705D01*
X220532Y133700D01*
Y184343D01*
X229760Y193571D01*
X230106Y193428D01*
X232174D01*
X234086Y194220D01*
X235548Y195682D01*
X236340Y197594D01*
Y199662D01*
X236547Y199972D01*
X237325Y200603D01*
X239092Y201335D01*
X239563Y201805D01*
X240833Y201279D01*
Y196212D01*
X232518Y187897D01*
X231921Y187004D01*
X231744Y186111D01*
X230854Y185188D01*
X228786D01*
X226875Y184396D01*
X225412Y182934D01*
X224620Y181022D01*
Y178954D01*
X225412Y177043D01*
X226875Y175580D01*
X228786Y174788D01*
X230855D01*
X232766Y175580D01*
X234229Y177043D01*
X235020Y178954D01*
Y181022D01*
X234969Y181147D01*
X236411Y182590D01*
X236411Y182590D01*
X237008Y183483D01*
X237217Y184536D01*
Y184810D01*
X245533Y193125D01*
X245933Y193725D01*
X246396Y194070D01*
X247476Y194279D01*
X248874Y193701D01*
X250943D01*
X252854Y194492D01*
X254317Y195955D01*
X255108Y197866D01*
Y199935D01*
X254744Y200813D01*
X278254Y224323D01*
X287358D01*
X287438Y224130D01*
X288900Y222668D01*
X290812Y221876D01*
X292880D01*
X294792Y222668D01*
X296254Y224130D01*
X297046Y226042D01*
Y228110D01*
X296409Y229648D01*
X297017Y230918D01*
X301982D01*
X301988Y230916D01*
X302510D01*
X303022Y230814D01*
X303534Y230916D01*
X304056D01*
X304539Y231116D01*
X305051Y231218D01*
X305485Y231508D01*
X305968Y231708D01*
X306337Y232077D01*
X306771Y232367D01*
X307061Y232801D01*
X307430Y233170D01*
X307630Y233653D01*
X307920Y234087D01*
X308022Y234599D01*
X308222Y235082D01*
Y235604D01*
X308324Y236116D01*
X308222Y236628D01*
Y237015D01*
X308569Y237295D01*
X309394Y237638D01*
X312969Y234064D01*
Y177462D01*
X312776Y177382D01*
X311314Y175920D01*
X310522Y174008D01*
Y171940D01*
X311314Y170028D01*
X312776Y168566D01*
X314688Y167774D01*
X316756D01*
X318668Y168566D01*
X320130Y170028D01*
X320922Y171940D01*
Y174008D01*
X320130Y175920D01*
X318668Y177382D01*
X318475Y177462D01*
Y202473D01*
X319745Y202999D01*
X320650Y202094D01*
X322562Y201302D01*
X324630D01*
X326542Y202094D01*
X327942Y203494D01*
X342924D01*
X364903Y181515D01*
X365879Y180863D01*
X367030Y180634D01*
X373533D01*
X374684Y180863D01*
X375660Y181515D01*
X377573Y183428D01*
X379702D01*
X381102Y182028D01*
X383014Y181236D01*
X385082D01*
X386994Y182028D01*
X388456Y183490D01*
X389248Y185402D01*
Y187470D01*
X388456Y189382D01*
X386994Y190844D01*
X385082Y191636D01*
X383014D01*
X381102Y190844D01*
X379702Y189444D01*
X376327D01*
X375176Y189215D01*
X374200Y188563D01*
X374200Y188563D01*
X372287Y186650D01*
X368276D01*
X346297Y208629D01*
X345321Y209281D01*
X344170Y209510D01*
X332517D01*
X332031Y210683D01*
X363061Y241713D01*
X363713Y242689D01*
X363873Y243493D01*
X363880Y243496D01*
X365342Y244958D01*
X366134Y246870D01*
Y248938D01*
X365342Y250850D01*
X363880Y252312D01*
X361968Y253104D01*
X359900D01*
X357988Y252312D01*
X356526Y250850D01*
X355734Y248938D01*
Y246870D01*
X356526Y244958D01*
X357162Y244322D01*
X326936Y214095D01*
X325762Y214582D01*
Y233757D01*
X325762Y233757D01*
X325534Y234908D01*
X324882Y235884D01*
X324882Y235884D01*
X309272Y251494D01*
X308296Y252146D01*
X307145Y252375D01*
X275049D01*
X273649Y253775D01*
X271737Y254567D01*
X269669D01*
X267757Y253775D01*
X266295Y252313D01*
X265821Y251170D01*
X264330Y250865D01*
X257217Y257979D01*
X256324Y258575D01*
X255270Y258785D01*
D02*
G37*
G36*
X265194Y187064D02*
X263126D01*
X261214Y186272D01*
X259752Y184810D01*
X258960Y182898D01*
Y180830D01*
X259040Y180637D01*
X240413Y162010D01*
X239816Y161117D01*
X239606Y160063D01*
Y144332D01*
X239414Y144252D01*
X237951Y142789D01*
X237159Y140878D01*
Y138810D01*
X237951Y136898D01*
X239414Y135435D01*
X240232Y135097D01*
X253452Y121877D01*
X253372Y121684D01*
Y119616D01*
X254164Y117704D01*
X255626Y116242D01*
X257538Y115450D01*
X259606D01*
X261518Y116242D01*
X262980Y117704D01*
X263661Y119348D01*
X264638Y119515D01*
X264984Y119475D01*
X265086Y119228D01*
X266548Y117766D01*
X268460Y116974D01*
X270528D01*
X272440Y117766D01*
X273902Y119228D01*
X274694Y121140D01*
Y123208D01*
X273902Y125120D01*
X272440Y126582D01*
X270528Y127374D01*
X269540D01*
X268448Y128466D01*
Y128982D01*
X268448Y128982D01*
X268239Y130035D01*
X267642Y130929D01*
X267642Y130929D01*
X254568Y144003D01*
X254882Y144762D01*
Y146830D01*
X254090Y148742D01*
X252628Y150204D01*
X250716Y150996D01*
X248648D01*
X246736Y150204D01*
X246382Y149850D01*
X245112Y150376D01*
Y158923D01*
X262933Y176744D01*
X263126Y176664D01*
X265194D01*
X267106Y177456D01*
X268568Y178918D01*
X269360Y180830D01*
Y182898D01*
X268568Y184810D01*
X267106Y186272D01*
X265194Y187064D01*
D02*
G37*
G36*
X63433Y168250D02*
X61066D01*
X58879Y167344D01*
X57206Y165670D01*
X56300Y163483D01*
Y161116D01*
X57206Y158929D01*
X58879Y157256D01*
X61066Y156350D01*
X63433D01*
X65620Y157256D01*
X67294Y158929D01*
X68200Y161116D01*
Y163483D01*
X67294Y165670D01*
X65620Y167344D01*
X63433Y168250D01*
D02*
G37*
G36*
Y96250D02*
X61066D01*
X58879Y95344D01*
X57206Y93670D01*
X56300Y91483D01*
Y89116D01*
X57206Y86930D01*
X58879Y85256D01*
X61066Y84350D01*
X63433D01*
X65620Y85256D01*
X67294Y86930D01*
X68200Y89116D01*
Y91483D01*
X67294Y93670D01*
X65620Y95344D01*
X63433Y96250D01*
D02*
G37*
G36*
X341140Y54222D02*
X339072D01*
X337160Y53430D01*
X335698Y51968D01*
X334906Y50056D01*
Y47988D01*
X335698Y46076D01*
X337160Y44614D01*
X339072Y43822D01*
X341140D01*
X343052Y44614D01*
X344514Y46076D01*
X345306Y47988D01*
Y50056D01*
X344514Y51968D01*
X343052Y53430D01*
X341140Y54222D01*
D02*
G37*
G36*
X255796Y36950D02*
X253728D01*
X251816Y36158D01*
X250354Y34696D01*
X250274Y34503D01*
X249936D01*
X248883Y34293D01*
X247989Y33697D01*
X235588Y21295D01*
X199560D01*
X199480Y21488D01*
X198018Y22950D01*
X196106Y23742D01*
X194038D01*
X192126Y22950D01*
X190664Y21488D01*
X189872Y19576D01*
Y17508D01*
X190664Y15596D01*
X192126Y14134D01*
X194038Y13342D01*
X196106D01*
X198018Y14134D01*
X199480Y15596D01*
X199560Y15789D01*
X236728D01*
X237782Y15999D01*
X238675Y16595D01*
X238949Y16869D01*
X240025Y16150D01*
X239656Y15258D01*
Y13190D01*
X240448Y11278D01*
X241910Y9816D01*
X242103Y9736D01*
Y-5305D01*
X240702Y-6706D01*
X239910Y-8618D01*
Y-10686D01*
X240702Y-12598D01*
X242164Y-14060D01*
X244076Y-14852D01*
X246144D01*
X248056Y-14060D01*
X249518Y-12598D01*
X250310Y-10686D01*
Y-8618D01*
X249518Y-6706D01*
X248056Y-5244D01*
X247609Y-5059D01*
Y9736D01*
X247802Y9816D01*
X249264Y11278D01*
X250056Y13190D01*
Y15258D01*
X249264Y17170D01*
X247802Y18632D01*
X245890Y19424D01*
X243822D01*
X242930Y19055D01*
X242211Y20131D01*
X250619Y28539D01*
X251816Y27342D01*
X253728Y26550D01*
X255796D01*
X257708Y27342D01*
X259170Y28804D01*
X259962Y30716D01*
Y32784D01*
X259170Y34696D01*
X257708Y36158D01*
X255796Y36950D01*
D02*
G37*
G36*
X264178Y170046D02*
X262110D01*
X260198Y169254D01*
X258736Y167792D01*
X257944Y165880D01*
Y163812D01*
X258736Y161900D01*
X260198Y160438D01*
X262110Y159646D01*
X264178D01*
X264371Y159726D01*
X284819Y139277D01*
X284819Y139277D01*
X285713Y138681D01*
X286766Y138471D01*
X286766Y138471D01*
X300104D01*
X316271Y122304D01*
Y103378D01*
X316481Y102324D01*
X317077Y101431D01*
X343195Y75314D01*
Y60960D01*
X343405Y59907D01*
X344001Y59013D01*
X354216Y48799D01*
Y23591D01*
X348445Y17820D01*
X348252Y17900D01*
X346184D01*
X344272Y17108D01*
X342810Y15646D01*
X342018Y13734D01*
Y11666D01*
X342810Y9754D01*
X344272Y8292D01*
X345735Y7686D01*
Y838D01*
X345542Y759D01*
X344080Y-704D01*
X343288Y-2616D01*
Y-4684D01*
X344080Y-6595D01*
X345542Y-8058D01*
X347454Y-8850D01*
X349522D01*
X351434Y-8058D01*
X352896Y-6595D01*
X353688Y-4684D01*
Y-2616D01*
X352896Y-704D01*
X351434Y759D01*
X351241Y838D01*
Y9369D01*
X351626Y9754D01*
X352418Y11666D01*
Y13734D01*
X352338Y13927D01*
X358915Y20504D01*
X359512Y21397D01*
X359721Y22450D01*
X359721Y22451D01*
Y50038D01*
X359512Y51091D01*
X358915Y51985D01*
X358618Y52183D01*
X348701Y62100D01*
Y76454D01*
X348491Y77508D01*
X347895Y78401D01*
X347895Y78401D01*
X321777Y104518D01*
Y123444D01*
X321567Y124497D01*
X320971Y125391D01*
X320970Y125391D01*
X303191Y143171D01*
X302297Y143767D01*
X301244Y143977D01*
X287906D01*
X268264Y163619D01*
X268344Y163812D01*
Y165880D01*
X267552Y167792D01*
X266090Y169254D01*
X264178Y170046D01*
D02*
G37*
G36*
X287358Y40187D02*
X285289D01*
X283378Y39395D01*
X281915Y37932D01*
X281123Y36021D01*
Y33952D01*
X281915Y32041D01*
X282776Y31180D01*
Y25645D01*
X281788Y25236D01*
X280326Y23774D01*
X279534Y21862D01*
Y19794D01*
X280326Y17882D01*
X281788Y16420D01*
X283700Y15628D01*
X285768D01*
X287680Y16420D01*
X289142Y17882D01*
X289934Y19794D01*
Y21862D01*
X289142Y23774D01*
X288282Y24634D01*
Y30169D01*
X289269Y30578D01*
X290732Y32041D01*
X291523Y33952D01*
Y36021D01*
X290732Y37932D01*
X289269Y39395D01*
X287358Y40187D01*
D02*
G37*
G36*
X263162Y5708D02*
X261094D01*
X259182Y4916D01*
X257720Y3454D01*
X256928Y1542D01*
Y-526D01*
X257720Y-2438D01*
X259182Y-3900D01*
X261094Y-4692D01*
X263162D01*
X265074Y-3900D01*
X266536Y-2438D01*
X266616Y-2245D01*
X280184D01*
X280580Y-3200D01*
X282042Y-4662D01*
X283954Y-5454D01*
X286022D01*
X287934Y-4662D01*
X289396Y-3200D01*
X290188Y-1288D01*
Y780D01*
X289396Y2692D01*
X287934Y4154D01*
X286022Y4946D01*
X283954D01*
X282042Y4154D01*
X281149Y3261D01*
X266616D01*
X266536Y3454D01*
X265074Y4916D01*
X263162Y5708D01*
D02*
G37*
G36*
X1645Y16700D02*
X-1645D01*
X-4871Y16058D01*
X-7910Y14799D01*
X-10646Y12972D01*
X-12972Y10646D01*
X-14799Y7910D01*
X-16058Y4871D01*
X-16700Y1645D01*
Y-1645D01*
X-16058Y-4871D01*
X-14799Y-7910D01*
X-12972Y-10646D01*
X-10646Y-12972D01*
X-7910Y-14799D01*
X-4871Y-16058D01*
X-1645Y-16700D01*
X1645D01*
X4871Y-16058D01*
X7910Y-14799D01*
X10646Y-12972D01*
X12972Y-10646D01*
X14799Y-7910D01*
X16058Y-4871D01*
X16700Y-1645D01*
Y1645D01*
X16058Y4871D01*
X14799Y7910D01*
X12972Y10646D01*
X10646Y12972D01*
X7910Y14799D01*
X4871Y16058D01*
X1645Y16700D01*
D02*
G37*
%LPD*%
G36*
X251712Y232367D02*
X253432Y231218D01*
X255461Y230814D01*
X275119D01*
X275267Y230605D01*
X275167Y229023D01*
X275167Y229023D01*
X250245Y204100D01*
X248874D01*
X247609Y203577D01*
X246339Y204344D01*
Y211582D01*
X246129Y212635D01*
X245533Y213529D01*
X245532Y213529D01*
X229067Y229994D01*
Y235034D01*
X229260Y235114D01*
X230722Y236576D01*
X231514Y238488D01*
Y240556D01*
X231061Y241650D01*
X231910Y242920D01*
X241159D01*
X251712Y232367D01*
D02*
G37*
G36*
X95540Y133302D02*
Y125980D01*
X91016Y121456D01*
X75842D01*
X74204Y121130D01*
X72814Y120202D01*
X71195Y118582D01*
X60338D01*
X59823Y119852D01*
X60450Y121365D01*
Y121618D01*
X65364Y126531D01*
X73771D01*
X75152Y125150D01*
X77064Y124358D01*
X79132D01*
X81044Y125150D01*
X82506Y126613D01*
X83298Y128524D01*
Y130593D01*
X82506Y132504D01*
X82263Y132748D01*
X82789Y134018D01*
X94104D01*
X94558Y134108D01*
X95540Y133302D01*
D02*
G37*
G36*
X216390Y92647D02*
X216390Y92647D01*
X225532D01*
X240018Y78161D01*
X239299Y77084D01*
X238270Y77510D01*
X236202D01*
X234290Y76718D01*
X232828Y75256D01*
X231853Y75062D01*
X215358Y91558D01*
X215983Y92728D01*
X216390Y92647D01*
D02*
G37*
G36*
X163098Y120339D02*
Y119108D01*
X163890Y117196D01*
X165352Y115734D01*
X165545Y115654D01*
Y109039D01*
X165755Y107986D01*
X166351Y107093D01*
X183691Y89753D01*
X184584Y89157D01*
X185637Y88947D01*
X185637Y88947D01*
X195533D01*
X196046Y87677D01*
X195342Y85978D01*
Y83909D01*
X196134Y81998D01*
X197597Y80535D01*
X199508Y79743D01*
X200965D01*
X217897Y62812D01*
X217558Y61994D01*
Y59926D01*
X216658Y58780D01*
X215524D01*
X214539Y58372D01*
X203211D01*
X203210Y58372D01*
X201376Y58007D01*
X199822Y56968D01*
X188222Y45368D01*
X185399D01*
X183402Y47365D01*
Y50236D01*
X184398Y51232D01*
X185190Y53144D01*
Y55212D01*
X184398Y57123D01*
X182936Y58586D01*
X181024Y59378D01*
X178956D01*
X177045Y58586D01*
X175582Y57123D01*
X174853Y55364D01*
X174183Y54361D01*
X173818Y52527D01*
X173818Y52527D01*
Y50172D01*
X165832D01*
X165832Y50172D01*
X163998Y49807D01*
X163805Y49678D01*
X161548D01*
X160699Y50948D01*
X161156Y52052D01*
Y54120D01*
X160364Y56032D01*
X158902Y57494D01*
X158709Y57574D01*
Y117746D01*
X161828Y120865D01*
X163098Y120339D01*
D02*
G37*
D10*
X279654Y96774D02*
X281178Y98298D01*
X281338Y98138D02*
X283530Y100330D01*
X279654Y76708D02*
Y96774D01*
X275046Y72100D02*
X279654Y76708D01*
X269408Y72100D02*
X275046D01*
X267340Y74168D02*
X269408Y72100D01*
X261108Y74168D02*
X267340D01*
X214540Y111250D02*
X224026D01*
X261108Y74168D01*
X214376Y37846D02*
Y38354D01*
X214630Y38100D02*
X214980Y38450D01*
X207264Y30734D02*
X214376Y37846D01*
X170434Y30734D02*
X207264D01*
X163549Y21363D02*
Y23849D01*
X170434Y30734D01*
X163549Y21363D02*
X173736Y11176D01*
X213614D01*
X214980Y38450D02*
X260696D01*
X264602Y34544D02*
X265684D01*
X260696Y38450D02*
X264602Y34544D01*
X245618Y179625D02*
Y185674D01*
X229824Y163831D02*
X245618Y179625D01*
X214408Y111118D02*
X214540Y111250D01*
X136123Y53086D02*
X140716D01*
X127708Y61501D02*
X127708D01*
X136123Y53086D01*
X235966Y268478D02*
X236220Y268732D01*
X235204Y267716D02*
X235966Y268478D01*
X86748Y261500D02*
X93726Y268478D01*
X236220Y268732D02*
X311404D01*
X93726Y268478D02*
X235966D01*
X81534Y256286D02*
Y258534D01*
X52786Y82850D02*
X69804D01*
X73406Y79248D01*
X51816Y83820D02*
X52786Y82850D01*
X87472Y69342D02*
X88977Y70847D01*
Y72975D01*
X82704Y79248D02*
X88977Y72975D01*
X85344Y69342D02*
X87472D01*
X73406Y79248D02*
X82704D01*
X74930Y58928D02*
X85344Y69342D01*
X147320Y172320D02*
X157880Y182880D01*
X147320Y59690D02*
Y172320D01*
X140716Y53086D02*
X147320Y59690D01*
X77862Y129794D02*
X78098Y129558D01*
X64012Y129794D02*
X77862D01*
X27686Y52578D02*
Y118110D01*
Y52578D02*
X33782Y46482D01*
X38608Y28194D02*
X39270Y28856D01*
Y31342D01*
X21336Y49276D02*
X39270Y31342D01*
X21336Y125136D02*
X24300Y128100D01*
X21336Y49276D02*
Y125136D01*
X283530Y100330D02*
X303784D01*
X402844Y150368D02*
X403352Y149860D01*
X319786Y150368D02*
X402844D01*
X287528Y182626D02*
X319786Y150368D01*
X277622Y182626D02*
X287528D01*
X304546Y-16256D02*
Y17526D01*
Y-16256D02*
X307594Y-19304D01*
X233172Y-21844D02*
X308610D01*
X452628Y36068D02*
Y66548D01*
Y11176D02*
Y36068D01*
X452882Y36322D01*
X447548Y30988D02*
X452628Y36068D01*
X385318Y30988D02*
X447548D01*
X328676Y-21844D02*
X419608D01*
X308610D02*
X328676D01*
X452628Y66548D02*
Y89417D01*
X419608Y-21844D02*
X452628Y11176D01*
X99060Y164846D02*
Y232940D01*
X83820Y248180D02*
Y252984D01*
Y248180D02*
X99060Y232940D01*
X56518Y122300D02*
X64012Y129794D01*
X329184Y267716D02*
X347980Y248920D01*
Y248666D02*
Y248920D01*
X402590Y164338D02*
X403606Y163322D01*
Y150368D02*
Y163322D01*
X452087Y187927D02*
X457200Y182813D01*
X429260Y165100D02*
X452628Y188468D01*
X403606Y165100D02*
X429260D01*
X404114Y236982D02*
X452628Y188468D01*
Y89417D02*
X457200Y93989D01*
Y182813D01*
X404114Y268478D02*
X404622Y268986D01*
X403606D02*
X404114Y269494D01*
Y236982D02*
Y268478D01*
X330454Y268986D02*
X403606D01*
X312166Y269494D02*
X312928Y268732D01*
X328422D01*
X311404D02*
X311658Y268986D01*
X81534Y258534D02*
X84500Y261500D01*
X86748D01*
X55750Y122300D02*
X56518D01*
D13*
X284734Y62738D02*
X296926Y74930D01*
X261437Y67900D02*
X276786D01*
X225210Y104127D02*
X261437Y67900D01*
X232771Y117844D02*
X271815Y78800D01*
X280755Y67981D02*
X281712Y68938D01*
X276867Y67981D02*
X280755D01*
X276786Y67900D02*
X276867Y67981D01*
X271815Y78800D02*
X272206D01*
X207775Y117844D02*
X232771D01*
X200858Y116785D02*
X206716D01*
X207775Y117844D01*
X259334Y62738D02*
X284734D01*
X226672Y95400D02*
X259334Y62738D01*
X198589Y117185D02*
X200457D01*
X197930Y117844D02*
X198589Y117185D01*
X200457D02*
X200858Y116785D01*
X196590Y119023D02*
Y132457D01*
X197769Y117844D02*
X197930D01*
X196590Y119023D02*
X197769Y117844D01*
X91694Y8250D02*
X127762Y44318D01*
X82063Y15748D02*
X90424D01*
X89000Y8250D02*
X91694D01*
X127762Y44318D02*
Y48768D01*
X246989Y50800D02*
X294640D01*
X208485Y89304D02*
X246989Y50800D01*
X216390Y95400D02*
X226672D01*
X212896Y104127D02*
X225210D01*
X236769Y72310D02*
X237236D01*
X202554Y91700D02*
X204950Y89304D01*
X208485D01*
X207518Y95504D02*
X233741Y69281D01*
X236769Y72310D01*
X210086Y101704D02*
X216390Y95400D01*
X86500Y750D02*
Y5750D01*
X89000Y8250D01*
X315722Y172974D02*
Y235204D01*
X347218Y12700D02*
X348488Y11430D01*
X347726Y13208D02*
X356968Y22450D01*
X356870Y50038D02*
X356968D01*
Y22450D02*
Y50038D01*
X345948Y60960D02*
X356870Y50038D01*
X345948Y60960D02*
Y76454D01*
X319024Y103378D02*
X345948Y76454D01*
X301244Y141224D02*
X319024Y123444D01*
Y103378D02*
Y123444D01*
X263144Y164846D02*
X286766Y141224D01*
X301244D01*
X114765Y48168D02*
X115595D01*
X111445Y44848D02*
X114765Y48168D01*
X164257Y127188D02*
X165420D01*
X155956Y53086D02*
Y118886D01*
X165420Y127188D02*
X166243Y126365D01*
X155956Y118886D02*
X164257Y127188D01*
X180490Y118854D02*
Y123955D01*
X174380Y130065D02*
X180490Y123955D01*
X166243Y126365D02*
X172847D01*
X175350Y136327D02*
X175971Y135706D01*
X182850Y134706D02*
X183434D01*
X172847Y126365D02*
X174498Y124714D01*
X175971Y135706D02*
X181850D01*
X171913Y130065D02*
X174380D01*
X166691Y134035D02*
X167943D01*
X171913Y130065D01*
X181850Y135706D02*
X182850Y134706D01*
X183434D02*
X192890Y125250D01*
X168298Y109039D02*
X185637Y91700D01*
X178054Y112522D02*
Y113875D01*
X168298Y109039D02*
Y120142D01*
X174498Y117431D02*
X178054Y113875D01*
X174498Y117431D02*
Y124714D01*
X180490Y118854D02*
X184254Y115090D01*
X185637Y91700D02*
X202554D01*
X183538Y99032D02*
Y106703D01*
X184254Y107419D01*
Y115090D01*
X183538Y99032D02*
X187170Y95400D01*
X198646D01*
X191654Y108452D02*
X195321Y104785D01*
X191654Y108452D02*
Y116474D01*
X187954Y106919D02*
X188781Y106092D01*
X195321Y104785D02*
X202799D01*
X188781Y102557D02*
X189738Y101600D01*
X188781Y102557D02*
Y106092D01*
X186690Y122682D02*
X187647Y121725D01*
Y116930D02*
X187954Y116623D01*
X191654Y116474D02*
X192890Y117710D01*
X187954Y106919D02*
Y116623D01*
X187647Y116930D02*
Y121725D01*
X192890Y117710D02*
Y125250D01*
X196590Y132457D02*
X201450Y137317D01*
X202799Y104785D02*
X203417Y105404D01*
X211619D02*
X212896Y104127D01*
X263906Y181610D02*
Y182626D01*
X242359Y139844D02*
Y160063D01*
X263906Y181610D01*
X200542Y84060D02*
Y84943D01*
Y84060D02*
X222758Y61844D01*
Y60960D02*
Y61844D01*
X198646Y95400D02*
X204950Y101704D01*
X210086D01*
X203417Y105404D02*
X211619D01*
X249936Y31750D02*
X254762D01*
X236728Y18542D02*
X249936Y31750D01*
X195072Y18542D02*
X236728D01*
X210613Y135407D02*
Y140284D01*
X209669Y134463D02*
X210613Y135407D01*
X102870Y44848D02*
X111445D01*
X245110Y-9652D02*
Y-8890D01*
X244856Y-8636D02*
X245110Y-8890D01*
X244856Y-8636D02*
Y14224D01*
X348488Y-3650D02*
Y11430D01*
X262128Y508D02*
X282702D01*
X339471Y48387D02*
X340106Y49022D01*
X285529Y34192D02*
X286323Y34987D01*
X284734Y20828D02*
X285529Y21623D01*
Y34192D01*
X211566Y141238D02*
Y142652D01*
X210613Y140284D02*
X211566Y141238D01*
X283464Y-254D02*
X284988D01*
X282702Y508D02*
X283464Y-254D01*
X73276Y17526D02*
X80285D01*
X82063Y15748D01*
X133525Y91212D02*
X133550Y91187D01*
Y79689D02*
Y91187D01*
Y79689D02*
X136485Y76754D01*
Y63491D02*
Y76754D01*
X308506Y242420D02*
X315722Y235204D01*
X288798Y242420D02*
X308506D01*
X268986Y242316D02*
X288694D01*
X288798Y242420D01*
X255270Y256032D02*
X268986Y242316D01*
X173736Y256032D02*
X255270D01*
X119380Y201676D02*
X173736Y256032D01*
X226314Y228854D02*
Y239522D01*
Y228854D02*
X243586Y211582D01*
X265695Y127326D02*
X269494Y123527D01*
Y122174D02*
Y123527D01*
X265695Y127326D02*
Y128982D01*
X249682Y144995D02*
X265695Y128982D01*
X249682Y144995D02*
Y145796D01*
X242062Y139546D02*
X242359Y139844D01*
X242062Y137160D02*
X258572Y120650D01*
X242062Y137160D02*
Y139546D01*
X229916Y179988D02*
X234464Y184536D01*
Y185951D02*
X243586Y195072D01*
X234464Y184536D02*
Y185951D01*
X229820Y179988D02*
X229916D01*
X277114Y227076D02*
X291846D01*
X249908Y199870D02*
X277114Y227076D01*
X264160Y181356D02*
Y181864D01*
X60283Y72429D02*
X78955D01*
X58721Y70866D02*
X60283Y72429D01*
X41402Y70866D02*
X58721D01*
X34290Y103901D02*
X48768Y118379D01*
X34290Y77978D02*
Y103901D01*
Y77978D02*
X41402Y70866D01*
X27686Y118110D02*
X33576Y124000D01*
X51818D01*
X52753Y123065D02*
X54985D01*
X51818Y124000D02*
X52753Y123065D01*
X54985D02*
X55750Y122300D01*
X24130Y128524D02*
X51035D01*
X52046Y129535D01*
X54985D01*
X55750Y130300D01*
X249908Y198901D02*
Y199870D01*
X243586Y195072D02*
Y211582D01*
X229487Y205743D02*
X236147D01*
X210566Y186822D02*
X229487Y205743D01*
X210566Y143652D02*
X211566Y142652D01*
X210566Y143652D02*
Y186822D01*
X61500Y5750D02*
X73276Y17526D01*
X61500Y750D02*
Y5750D01*
D16*
X183414Y40576D02*
X190207D01*
X118497Y58917D02*
X132528Y44886D01*
X178610Y45380D02*
X183414Y40576D01*
X190207D02*
X203210Y53580D01*
X132528Y44886D02*
X165338D01*
X165832Y45380D01*
X178610D01*
X203210Y53580D02*
X216558D01*
X178610Y52527D02*
X179990Y53907D01*
Y54178D01*
X178610Y45380D02*
Y52527D01*
X114617Y132888D02*
X114752Y133023D01*
X114554Y90187D02*
Y132080D01*
X114617Y132143D01*
Y132888D01*
X114554Y90187D02*
X129540Y75201D01*
X118497Y58917D02*
Y63887D01*
X129540Y74930D01*
Y75201D01*
D17*
X323596Y206502D02*
Y206502D01*
X322755Y207343D02*
X323596Y206502D01*
X270703Y249367D02*
X307145D01*
X322755Y233757D01*
Y207343D02*
Y233757D01*
X372618Y222327D02*
X377952Y216994D01*
Y196850D02*
Y216994D01*
X372618Y222327D02*
Y248920D01*
X376327Y186436D02*
X384048D01*
X373533Y183642D02*
X376327Y186436D01*
X367030Y183642D02*
X373533D01*
X344170Y206502D02*
X367030Y183642D01*
X323596Y206502D02*
X360934Y243840D01*
Y247904D01*
X323596Y206502D02*
X344170D01*
D19*
X202790Y122985D02*
X203804Y123999D01*
X207311D01*
X209098Y125786D01*
X210018D02*
X217932Y133700D01*
X209098Y125786D02*
X210018D01*
X217932Y133700D02*
Y185420D01*
X86106Y85448D02*
Y109474D01*
X217932Y185420D02*
X231140Y198628D01*
D108*
X75842Y117174D02*
X92790D01*
X72968Y114300D02*
X75842Y117174D01*
X92790D02*
X99822Y124206D01*
X55750Y114300D02*
X72968D01*
X99822Y124206D02*
Y142240D01*
X94104Y138300D02*
X98933Y143129D01*
X99822Y142240D01*
X55750Y138300D02*
X94104D01*
D111*
X0Y250000D02*
D03*
Y0D02*
D03*
D112*
X-9750Y83000D02*
D03*
Y169600D02*
D03*
X47250Y83000D02*
D03*
Y169600D02*
D03*
D113*
X48750Y102300D02*
D03*
Y110300D02*
D03*
Y118300D02*
D03*
Y150300D02*
D03*
Y142300D02*
D03*
Y134300D02*
D03*
X55750Y98300D02*
D03*
Y114300D02*
D03*
Y122300D02*
D03*
Y154300D02*
D03*
Y138300D02*
D03*
Y130300D02*
D03*
D114*
X52250Y166350D02*
D03*
Y86250D02*
D03*
D115*
X62250Y90300D02*
D03*
Y162300D02*
D03*
D116*
X296926Y74930D02*
D03*
X272206Y78800D02*
D03*
X281712Y68938D02*
D03*
X202790Y122985D02*
D03*
X90424Y15748D02*
D03*
X213614Y11176D02*
D03*
X214630Y38100D02*
D03*
X265684Y34544D02*
D03*
X237236Y72310D02*
D03*
X458001Y263001D02*
D03*
X468001Y243001D02*
D03*
X458001Y223001D02*
D03*
X468001Y203001D02*
D03*
Y163001D02*
D03*
X458001Y143001D02*
D03*
X468001Y123001D02*
D03*
X458001Y103001D02*
D03*
X468001Y83001D02*
D03*
Y43001D02*
D03*
X458001Y23001D02*
D03*
X468001Y3001D02*
D03*
X458001Y-16999D02*
D03*
X438001Y263001D02*
D03*
X448001Y243001D02*
D03*
X438001Y223001D02*
D03*
X448001Y203001D02*
D03*
Y163001D02*
D03*
X438001Y143001D02*
D03*
X448001Y123001D02*
D03*
X438001Y103001D02*
D03*
X448001Y83001D02*
D03*
Y43001D02*
D03*
X438001Y23001D02*
D03*
X448001Y3001D02*
D03*
X438001Y-16999D02*
D03*
X418001Y263001D02*
D03*
X428001Y243001D02*
D03*
X418001Y223001D02*
D03*
X428001Y203001D02*
D03*
X418001Y183001D02*
D03*
X428001Y163001D02*
D03*
Y123001D02*
D03*
Y83001D02*
D03*
X418001Y63001D02*
D03*
X428001Y43001D02*
D03*
X418001Y23001D02*
D03*
X428001Y3001D02*
D03*
X418001Y-16999D02*
D03*
X408001Y243001D02*
D03*
X398001Y223001D02*
D03*
X408001Y203001D02*
D03*
X398001Y183001D02*
D03*
Y63001D02*
D03*
X408001Y43001D02*
D03*
X398001Y23001D02*
D03*
X408001Y3001D02*
D03*
X388001Y203001D02*
D03*
X378001Y63001D02*
D03*
X388001Y43001D02*
D03*
X378001Y-16999D02*
D03*
X368001Y43001D02*
D03*
X358001Y-16999D02*
D03*
X348001Y163001D02*
D03*
X338001Y143001D02*
D03*
X348001Y123001D02*
D03*
X328001Y163001D02*
D03*
Y123001D02*
D03*
Y43001D02*
D03*
X298001Y263001D02*
D03*
X308001Y163001D02*
D03*
X278001Y263001D02*
D03*
X158001Y183001D02*
D03*
X118001Y-16999D02*
D03*
X108001Y243001D02*
D03*
X98001Y183001D02*
D03*
X78001Y-16999D02*
D03*
X58001D02*
D03*
X38001Y223001D02*
D03*
Y183001D02*
D03*
Y143001D02*
D03*
Y-16999D02*
D03*
X18001Y263001D02*
D03*
X28001Y243001D02*
D03*
X18001Y223001D02*
D03*
X28001Y203001D02*
D03*
X18001Y183001D02*
D03*
X28001Y163001D02*
D03*
X18001Y143001D02*
D03*
Y23001D02*
D03*
X28001Y3001D02*
D03*
X18001Y-16999D02*
D03*
X-1999Y223001D02*
D03*
X8001Y203001D02*
D03*
X-1999Y183001D02*
D03*
X8001Y163001D02*
D03*
X-1999Y143001D02*
D03*
X8001Y123001D02*
D03*
X-1999Y103001D02*
D03*
X8001Y83001D02*
D03*
Y43001D02*
D03*
X-1999Y23001D02*
D03*
X315722Y172974D02*
D03*
X263144Y164846D02*
D03*
X115595Y48168D02*
D03*
X155956Y53086D02*
D03*
X168298Y120142D02*
D03*
X175350Y136327D02*
D03*
X189738Y101600D02*
D03*
X178054Y112522D02*
D03*
X186690Y122682D02*
D03*
X166691Y134035D02*
D03*
X222758Y60960D02*
D03*
X207518Y95504D02*
D03*
X200542Y84943D02*
D03*
X214540Y111250D02*
D03*
X254762Y31750D02*
D03*
X195072Y18542D02*
D03*
X216558Y53580D02*
D03*
X209669Y134463D02*
D03*
X201450Y137317D02*
D03*
X245110Y-9652D02*
D03*
X244856Y14224D02*
D03*
X347218Y12700D02*
D03*
X348488Y-3650D02*
D03*
X262128Y508D02*
D03*
X340106Y49022D02*
D03*
X286323Y34987D02*
D03*
X294640Y50800D02*
D03*
X179990Y54178D02*
D03*
X284988Y-254D02*
D03*
X102870Y44848D02*
D03*
X114808Y133350D02*
D03*
X133525Y91212D02*
D03*
X126270Y96013D02*
D03*
X127708Y61501D02*
D03*
X129540Y74930D02*
D03*
X136485Y63491D02*
D03*
X303022Y236116D02*
D03*
X270703Y249367D02*
D03*
X226314Y239522D02*
D03*
X236220Y268478D02*
D03*
X119380Y201676D02*
D03*
X269494Y122174D02*
D03*
X249682Y145796D02*
D03*
X258572Y120650D02*
D03*
X242359Y139844D02*
D03*
X229824Y163831D02*
D03*
X229820Y179988D02*
D03*
X291846Y227076D02*
D03*
X323596Y206502D02*
D03*
X377952Y196850D02*
D03*
X384048Y186436D02*
D03*
X86106Y85448D02*
D03*
X78955Y72429D02*
D03*
X74930Y58928D02*
D03*
X86106Y109474D02*
D03*
X78098Y129558D02*
D03*
X33782Y46482D02*
D03*
X38608Y28194D02*
D03*
X303784Y100330D02*
D03*
X280416Y98298D02*
D03*
X245618Y185674D02*
D03*
X249908Y198901D02*
D03*
X277622Y182626D02*
D03*
X304546Y17526D02*
D03*
X385318Y30988D02*
D03*
X402336Y-22098D02*
D03*
X328676Y-21844D02*
D03*
X308610D02*
D03*
X284734Y20828D02*
D03*
X233172Y-21844D02*
D03*
X236147Y205743D02*
D03*
X231140Y198628D02*
D03*
X264160Y181864D02*
D03*
X99060Y164846D02*
D03*
X293116Y236220D02*
D03*
X347980Y248666D02*
D03*
X403606Y150368D02*
D03*
Y165100D02*
D03*
X452628Y66548D02*
D03*
Y188468D02*
D03*
X404114Y269494D02*
D03*
X328676Y268478D02*
D03*
X311658Y268986D02*
D03*
X372618Y248920D02*
D03*
X360934Y247904D02*
D03*
D117*
X302918Y236220D02*
X303022Y236116D01*
X293116Y236220D02*
X302918D01*
X293012Y236116D02*
X293116Y236220D01*
X243355Y248222D02*
X255461Y236116D01*
X205804Y248222D02*
X243355D01*
X99822Y142240D02*
X205804Y248222D01*
X255461Y236116D02*
X293012D01*
D118*
X57500Y254500D02*
D03*
X86500Y750D02*
D03*
X74000D02*
D03*
X61500D02*
D03*
X49000D02*
D03*
X45000Y254500D02*
D03*
X70000D02*
D03*
X82500D02*
D03*
M02*
