G04*
G04 #@! TF.GenerationSoftware,Altium Limited,Altium Designer,21.6.1 (37)*
G04*
G04 Layer_Physical_Order=2*
G04 Layer_Color=16711680*
%FSLAX44Y44*%
%MOMM*%
G71*
G04*
G04 #@! TF.SameCoordinates,E55892BA-FD2B-41B2-92EE-91F1455EE258*
G04*
G04*
G04 #@! TF.FilePolarity,Positive*
G04*
G01*
G75*
%ADD10C,0.2000*%
%ADD14C,0.6000*%
%ADD15C,0.2500*%
%ADD19C,0.1700*%
%ADD78C,0.3000*%
%ADD79C,0.5000*%
%ADD82C,3.0000*%
%ADD83O,1.8000X0.9000*%
%ADD84C,0.6000*%
%ADD85O,0.9000X1.5000*%
%ADD86C,0.8500*%
%ADD87C,0.7000*%
%ADD88R,4.0000X1.5240*%
G04:AMPARAMS|DCode=89|XSize=1.524mm|YSize=4mm|CornerRadius=0.381mm|HoleSize=0mm|Usage=FLASHONLY|Rotation=90.000|XOffset=0mm|YOffset=0mm|HoleType=Round|Shape=RoundedRectangle|*
%AMROUNDEDRECTD89*
21,1,1.5240,3.2380,0,0,90.0*
21,1,0.7620,4.0000,0,0,90.0*
1,1,0.7620,1.6190,0.3810*
1,1,0.7620,1.6190,-0.3810*
1,1,0.7620,-1.6190,-0.3810*
1,1,0.7620,-1.6190,0.3810*
%
%ADD89ROUNDEDRECTD89*%
%ADD90R,4.0000X1.5240*%
%ADD91R,0.7000X1.7000*%
G36*
X482201Y262444D02*
Y-13194D01*
X463444Y-31951D01*
X-12944D01*
X-31451Y-13444D01*
X-31451Y263694D01*
X-13444Y281701D01*
X462944D01*
X482201Y262444D01*
D02*
G37*
%LPC*%
G36*
X75200Y264700D02*
X64800D01*
Y244300D01*
X75200D01*
Y264700D01*
D02*
G37*
G36*
X62700D02*
X52300D01*
Y244300D01*
X62700D01*
Y264700D01*
D02*
G37*
G36*
X50200D02*
X39800D01*
Y244300D01*
X50200D01*
Y264700D01*
D02*
G37*
G36*
X367252Y247932D02*
X343296D01*
X341657Y247606D01*
X340268Y246678D01*
X336372Y242782D01*
X296072D01*
X295946Y242908D01*
X294034Y243700D01*
X293856D01*
X293778Y243778D01*
X292389Y244706D01*
X290750Y245032D01*
X266361D01*
X264722Y244706D01*
X263333Y243778D01*
X245147Y225593D01*
X244219Y224203D01*
X243893Y222565D01*
Y210455D01*
X243176Y209382D01*
X243034Y208665D01*
X241780D01*
X235665Y214780D01*
X234276Y215709D01*
X232637Y216035D01*
X193762D01*
X192123Y215709D01*
X190734Y214780D01*
X177936Y201982D01*
X123311D01*
X121672Y201656D01*
X120283Y200728D01*
X96972Y177418D01*
X96044Y176028D01*
X95718Y174389D01*
Y121072D01*
X95592Y120946D01*
X94800Y119034D01*
Y116966D01*
X95592Y115054D01*
X97054Y113592D01*
X98966Y112800D01*
X101034D01*
X102224Y113293D01*
X103494Y112481D01*
Y70387D01*
X96727Y63620D01*
X96534Y63700D01*
X94466D01*
X92555Y62908D01*
X91092Y61446D01*
X90300Y59534D01*
Y57466D01*
X91092Y55554D01*
X92555Y54092D01*
X94466Y53300D01*
X96534D01*
X96727Y53380D01*
X107947Y42160D01*
Y22816D01*
X106677Y21977D01*
X105534Y22450D01*
X103466D01*
X101554Y21658D01*
X101083Y21187D01*
X100750Y21253D01*
X74250D01*
X74250Y21253D01*
X73197Y21043D01*
X72303Y20447D01*
X62807Y10950D01*
X56300D01*
Y-9450D01*
X66700D01*
Y7057D01*
X67627Y7983D01*
X68800Y7497D01*
Y-9450D01*
X79200D01*
Y10950D01*
X72253D01*
X71767Y12123D01*
X75390Y15747D01*
X99494D01*
X100092Y14304D01*
X101554Y12842D01*
X101602Y12822D01*
X102171Y11212D01*
X102057Y11003D01*
X89000D01*
X88734Y10950D01*
X81300D01*
Y-9450D01*
X91700D01*
Y5497D01*
X104268D01*
X105322Y5707D01*
X106215Y6303D01*
X112647Y12735D01*
X112647Y12735D01*
X113243Y13628D01*
X113453Y14682D01*
Y43300D01*
X113453Y43300D01*
X113243Y44353D01*
X112647Y45247D01*
X112647Y45247D01*
X100620Y57273D01*
X100700Y57466D01*
Y59534D01*
X100620Y59727D01*
X106334Y65441D01*
X106475Y65300D01*
X107368Y64703D01*
X108422Y64494D01*
X115698D01*
X116752Y64703D01*
X117645Y65300D01*
X121842Y69497D01*
X125762D01*
X125842Y69304D01*
X127304Y67842D01*
X129216Y67050D01*
X131284D01*
X131477Y67130D01*
X179303Y19303D01*
X179303Y19303D01*
X180196Y18707D01*
X181250Y18497D01*
X181250Y18497D01*
X240762D01*
X240842Y18304D01*
X242304Y16842D01*
X244216Y16050D01*
X246284D01*
X248196Y16842D01*
X249658Y18304D01*
X249738Y18497D01*
X342451D01*
X342842Y17554D01*
X344304Y16092D01*
X346216Y15300D01*
X348284D01*
X350196Y16092D01*
X351351Y17247D01*
X382500D01*
X383554Y17457D01*
X384447Y18053D01*
X424090Y57697D01*
X432192D01*
Y56640D01*
X432620Y54490D01*
X433838Y52667D01*
X435660Y51450D01*
X437810Y51022D01*
X470190D01*
X472340Y51450D01*
X474162Y52667D01*
X475380Y54490D01*
X475808Y56640D01*
Y64260D01*
X475380Y66410D01*
X474162Y68232D01*
X472340Y69450D01*
X470190Y69878D01*
X437810D01*
X435660Y69450D01*
X433838Y68232D01*
X432620Y66410D01*
X432192Y64260D01*
Y63203D01*
X422950D01*
X422950Y63203D01*
X421897Y62993D01*
X421003Y62397D01*
X381360Y22753D01*
X351945D01*
X351658Y23446D01*
X350196Y24908D01*
X348284Y25700D01*
X346216D01*
X344304Y24908D01*
X343399Y24003D01*
X249738D01*
X249658Y24196D01*
X248196Y25658D01*
X246284Y26450D01*
X244216D01*
X242304Y25658D01*
X240842Y24196D01*
X240762Y24003D01*
X182390D01*
X135370Y71023D01*
X135450Y71216D01*
Y73284D01*
X134658Y75196D01*
X133196Y76658D01*
X131284Y77450D01*
X129216D01*
X127304Y76658D01*
X125842Y75196D01*
X125762Y75003D01*
X120702D01*
X120702Y75003D01*
X119648Y74793D01*
X119149Y74460D01*
X118340Y75446D01*
X139690Y96797D01*
X159262D01*
X159342Y96604D01*
X160804Y95142D01*
X162716Y94350D01*
X164784D01*
X166696Y95142D01*
X168158Y96604D01*
X168950Y98516D01*
Y100584D01*
X168481Y101717D01*
X169204Y102804D01*
X170501Y102884D01*
X243193Y30193D01*
X244251Y29486D01*
X245500Y29237D01*
X270909D01*
X272054Y28092D01*
X273966Y27300D01*
X276034D01*
X277946Y28092D01*
X279408Y29554D01*
X280200Y31466D01*
Y33534D01*
X279408Y35446D01*
X277946Y36908D01*
X276034Y37700D01*
X273966D01*
X272054Y36908D01*
X270909Y35763D01*
X254780D01*
X254521Y36291D01*
X254391Y37033D01*
X255697Y38338D01*
X256488Y40249D01*
Y42318D01*
X255697Y44229D01*
X254234Y45692D01*
X252323Y46484D01*
X250254D01*
X249857Y46319D01*
X240838Y55338D01*
X240532Y55543D01*
X240158Y56446D01*
X238696Y57908D01*
X236784Y58700D01*
X234716D01*
X232804Y57908D01*
X231342Y56446D01*
X230550Y54534D01*
Y53860D01*
X229280Y53334D01*
X174057Y108557D01*
X172999Y109264D01*
X171750Y109513D01*
X168526D01*
X168003Y110783D01*
X168700Y112466D01*
Y114534D01*
X168693Y114550D01*
X173917Y119774D01*
X174513Y120667D01*
X175195Y121100D01*
X176699Y120649D01*
X176842Y120304D01*
X178304Y118842D01*
X180216Y118050D01*
X181836D01*
X184857Y115028D01*
Y112405D01*
X185106Y111156D01*
X185813Y110098D01*
X192968Y102943D01*
X194026Y102236D01*
X195275Y101987D01*
X198002D01*
X198840Y100717D01*
X198747Y100250D01*
Y90808D01*
X198957Y89754D01*
X199553Y88861D01*
X223361Y65054D01*
X223361Y65053D01*
X224254Y64457D01*
X225308Y64247D01*
X225308Y64247D01*
X264512D01*
X264592Y64054D01*
X266054Y62592D01*
X267966Y61800D01*
X270034D01*
X271946Y62592D01*
X273408Y64054D01*
X274200Y65966D01*
Y68034D01*
X273408Y69946D01*
X272332Y71022D01*
X272446Y71592D01*
X273908Y73054D01*
X274700Y74966D01*
Y77034D01*
X273908Y78946D01*
X272446Y80408D01*
X270534Y81200D01*
X268466D01*
X266554Y80408D01*
X265092Y78946D01*
X265012Y78753D01*
X226640D01*
X214426Y90967D01*
Y92884D01*
X213634Y94796D01*
X212172Y96258D01*
X210260Y97050D01*
X208192D01*
X206280Y96258D01*
X205523Y95501D01*
X204253Y96027D01*
Y99110D01*
X205273Y100130D01*
X205466Y100050D01*
X207534D01*
X209446Y100842D01*
X210908Y102304D01*
X211700Y104216D01*
Y106284D01*
X210908Y108196D01*
X209446Y109658D01*
X207534Y110450D01*
X205466D01*
X203554Y109658D01*
X202409Y108513D01*
X196626D01*
X191383Y113756D01*
Y116380D01*
X191134Y117628D01*
X190427Y118687D01*
X186450Y122664D01*
Y124284D01*
X185658Y126196D01*
X184196Y127658D01*
X183053Y128132D01*
X182748Y129623D01*
X185322Y132197D01*
X258928D01*
X264735Y126390D01*
X264585Y126027D01*
Y123959D01*
X265377Y122048D01*
X266651Y120773D01*
X266465Y119883D01*
X266262Y119503D01*
X248317D01*
X242123Y125697D01*
X241230Y126293D01*
X240177Y126503D01*
X217988D01*
X217908Y126696D01*
X216446Y128158D01*
X214534Y128950D01*
X212466D01*
X210554Y128158D01*
X209092Y126696D01*
X208300Y124784D01*
Y122716D01*
X209092Y120804D01*
X210554Y119342D01*
X212466Y118550D01*
X214534D01*
X216446Y119342D01*
X217908Y120804D01*
X217988Y120997D01*
X239036D01*
X245230Y114803D01*
X246123Y114207D01*
X247176Y113997D01*
X277197D01*
X278302Y112892D01*
X280214Y112100D01*
X282282D01*
X284194Y112892D01*
X285656Y114355D01*
X286448Y116266D01*
Y118335D01*
X285656Y120246D01*
X284194Y121709D01*
X282282Y122500D01*
X280214D01*
X278302Y121709D01*
X276840Y120246D01*
X276532Y119503D01*
X273308D01*
X273105Y119883D01*
X272919Y120773D01*
X274193Y122048D01*
X274985Y123959D01*
Y126027D01*
X274193Y127939D01*
X272731Y129402D01*
X270819Y130193D01*
X268751D01*
X268728Y130184D01*
X262015Y136897D01*
X261122Y137493D01*
X260068Y137703D01*
X184182D01*
X183128Y137493D01*
X182235Y136897D01*
X182235Y136897D01*
X170023Y124685D01*
X169427Y123792D01*
X169247Y122891D01*
X164904Y118547D01*
X164534Y118700D01*
X162466D01*
X160554Y117908D01*
X159092Y116446D01*
X158300Y114534D01*
Y112466D01*
X158997Y110783D01*
X158474Y109513D01*
X144161D01*
X134394Y119280D01*
Y120900D01*
X133602Y122811D01*
X132139Y124274D01*
X131006Y124743D01*
X130706Y126239D01*
X143955Y139487D01*
X396920D01*
X398169Y139736D01*
X399227Y140443D01*
X436914Y178130D01*
X475700D01*
Y196770D01*
X432300D01*
Y182744D01*
X395569Y146013D01*
X142603D01*
X141355Y145764D01*
X140296Y145057D01*
X118443Y123204D01*
X117736Y122146D01*
X117487Y120897D01*
Y112091D01*
X116342Y110946D01*
X115550Y109034D01*
Y106966D01*
X116342Y105055D01*
X117804Y103592D01*
X119716Y102800D01*
X121784D01*
X123696Y103592D01*
X125158Y105055D01*
X125950Y106966D01*
Y109034D01*
X125158Y110946D01*
X124013Y112091D01*
Y115897D01*
X125283Y116423D01*
X126248Y115457D01*
X128160Y114665D01*
X129780D01*
X140502Y103943D01*
X141056Y103573D01*
X140671Y102303D01*
X138550D01*
X137497Y102093D01*
X136603Y101497D01*
X136603Y101496D01*
X113674Y78567D01*
X113481Y78647D01*
X111412D01*
X110270Y78173D01*
X109000Y79013D01*
Y168606D01*
X116023Y175630D01*
X116216Y175550D01*
X118284D01*
X120196Y176342D01*
X121658Y177804D01*
X122450Y179716D01*
Y181784D01*
X121658Y183696D01*
X120196Y185158D01*
X119082Y185620D01*
X118784Y187118D01*
X125084Y193418D01*
X139913D01*
X140761Y192148D01*
X140300Y191034D01*
Y188966D01*
X141092Y187054D01*
X142554Y185592D01*
X144466Y184800D01*
X146534D01*
X146793Y184907D01*
X148397Y183304D01*
X148397Y183303D01*
X149290Y182707D01*
X150343Y182497D01*
X221408D01*
X221592Y182054D01*
X223054Y180592D01*
X224966Y179800D01*
X227034D01*
X228180Y180275D01*
X229450Y179437D01*
Y162200D01*
X227716D01*
X225805Y161408D01*
X224342Y159946D01*
X223550Y158034D01*
Y155966D01*
X224342Y154054D01*
X225805Y152592D01*
X227716Y151800D01*
X229784D01*
X231696Y152592D01*
X233084Y153980D01*
X233625Y154009D01*
X234480Y153927D01*
X234842Y153054D01*
X236304Y151592D01*
X238216Y150800D01*
X240284D01*
X242196Y151592D01*
X243658Y153054D01*
X244450Y154966D01*
Y157034D01*
X243658Y158946D01*
X242196Y160408D01*
X242003Y160488D01*
Y196268D01*
X242003Y196268D01*
X241793Y197322D01*
X241197Y198215D01*
X240581Y198830D01*
X241107Y200100D01*
X243296D01*
X243804Y199592D01*
X245716Y198800D01*
X247784D01*
X249696Y199592D01*
X251158Y201054D01*
X251950Y202966D01*
Y205034D01*
X251479Y206171D01*
X252132Y207147D01*
X252458Y208786D01*
Y220791D01*
X261132Y229466D01*
X262631Y229168D01*
X263092Y228054D01*
X264554Y226592D01*
X266466Y225800D01*
X268446D01*
X301123Y193123D01*
X302099Y192471D01*
X303250Y192242D01*
X319404D01*
X320804Y190842D01*
X322716Y190050D01*
X324784D01*
X326696Y190842D01*
X328158Y192304D01*
X328950Y194216D01*
Y195696D01*
X359424Y226171D01*
X359716Y226050D01*
X361784D01*
X363696Y226842D01*
X365158Y228304D01*
X365950Y230216D01*
Y232284D01*
X365158Y234196D01*
X363696Y235658D01*
X361784Y236450D01*
X359716D01*
X357804Y235658D01*
X356342Y234196D01*
X355550Y232284D01*
Y230804D01*
X325076Y200329D01*
X324784Y200450D01*
X322716D01*
X320804Y199658D01*
X319404Y198258D01*
X304496D01*
X272700Y230054D01*
Y232034D01*
X271908Y233946D01*
X270656Y235198D01*
X270889Y236192D01*
X271045Y236468D01*
X288213D01*
X288592Y235554D01*
X290054Y234092D01*
X291966Y233300D01*
X294034D01*
X295946Y234092D01*
X296072Y234218D01*
X338146D01*
X339784Y234544D01*
X341174Y235472D01*
X345069Y239368D01*
X365478D01*
X367624Y237222D01*
X369013Y236294D01*
X370652Y235968D01*
X382678D01*
X382804Y235842D01*
X384716Y235050D01*
X386784D01*
X388696Y235842D01*
X390158Y237304D01*
X390950Y239216D01*
Y241284D01*
X390158Y243196D01*
X388696Y244658D01*
X386784Y245450D01*
X384716D01*
X382804Y244658D01*
X382678Y244532D01*
X372426D01*
X370280Y246678D01*
X368891Y247606D01*
X367252Y247932D01*
D02*
G37*
G36*
X144784Y259200D02*
X142716D01*
X140804Y258408D01*
X139342Y256946D01*
X138550Y255034D01*
Y252966D01*
X139342Y251054D01*
X140804Y249592D01*
X142716Y248800D01*
X144784D01*
X145769Y249208D01*
X205765D01*
X214184Y240789D01*
X214592Y239804D01*
X216054Y238342D01*
X217966Y237550D01*
X220034D01*
X221946Y238342D01*
X223408Y239804D01*
X224200Y241716D01*
Y243784D01*
X223408Y245696D01*
X221946Y247158D01*
X220961Y247566D01*
X211138Y257388D01*
X209584Y258427D01*
X207750Y258792D01*
X207750Y258792D01*
X145769D01*
X144784Y259200D01*
D02*
G37*
G36*
X1645Y266700D02*
X-1645D01*
X-4871Y266058D01*
X-7910Y264799D01*
X-10646Y262972D01*
X-12972Y260646D01*
X-14799Y257910D01*
X-16058Y254871D01*
X-16700Y251645D01*
Y248355D01*
X-16058Y245129D01*
X-14799Y242090D01*
X-12972Y239354D01*
X-10646Y237028D01*
X-7910Y235201D01*
X-4871Y233942D01*
X-1645Y233300D01*
X1645D01*
X4871Y233942D01*
X7910Y235201D01*
X10646Y237028D01*
X12972Y239354D01*
X14799Y242090D01*
X16058Y245129D01*
X16700Y248355D01*
Y251645D01*
X16058Y254871D01*
X14799Y257910D01*
X12972Y260646D01*
X10646Y262972D01*
X7910Y264799D01*
X4871Y266058D01*
X1645Y266700D01*
D02*
G37*
G36*
X63433Y168250D02*
X61066D01*
X58879Y167344D01*
X57206Y165670D01*
X56300Y163483D01*
Y161116D01*
X57206Y158929D01*
X58879Y157256D01*
X61066Y156350D01*
X63433D01*
X65620Y157256D01*
X67294Y158929D01*
X68200Y161116D01*
Y163483D01*
X67294Y165670D01*
X65620Y167344D01*
X63433Y168250D01*
D02*
G37*
G36*
X475700Y95170D02*
X432300D01*
Y81983D01*
X422980D01*
X422980Y81983D01*
X421926Y81773D01*
X421033Y81177D01*
X421033Y81177D01*
X418977Y79120D01*
X418784Y79200D01*
X416716D01*
X414804Y78408D01*
X413342Y76946D01*
X412550Y75034D01*
Y72966D01*
X413342Y71054D01*
X414804Y69592D01*
X416716Y68800D01*
X418784D01*
X420696Y69592D01*
X422158Y71054D01*
X422950Y72966D01*
Y75034D01*
X422870Y75227D01*
X424120Y76477D01*
X435000D01*
X435266Y76530D01*
X475700D01*
Y95170D01*
D02*
G37*
G36*
Y171370D02*
X432300D01*
Y157344D01*
X365943Y90987D01*
X365422Y90207D01*
X365304Y90158D01*
X363842Y88696D01*
X363050Y86784D01*
Y84716D01*
X363842Y82804D01*
X365304Y81342D01*
X367216Y80550D01*
X369284D01*
X371195Y81342D01*
X372658Y82804D01*
X373450Y84716D01*
Y86784D01*
X372723Y88539D01*
X436914Y152730D01*
X475700D01*
Y171370D01*
D02*
G37*
G36*
X49685Y155000D02*
X47815D01*
X46088Y154284D01*
X44766Y152962D01*
X44050Y151235D01*
Y149365D01*
X44766Y147638D01*
X45274Y147129D01*
X46073Y146300D01*
X45274Y145470D01*
X44766Y144962D01*
X44050Y143235D01*
Y141365D01*
X44766Y139637D01*
X45274Y139129D01*
X46073Y138300D01*
X45274Y137470D01*
X44766Y136962D01*
X44050Y135235D01*
Y133365D01*
X44766Y131638D01*
X46088Y130315D01*
X47261Y129830D01*
X47008Y128560D01*
X46979D01*
X45731Y128311D01*
X44672Y127604D01*
X29343Y112275D01*
X28636Y111216D01*
X28387Y109968D01*
Y70450D01*
X28636Y69201D01*
X29343Y68143D01*
X29487Y67999D01*
Y32841D01*
X28342Y31696D01*
X27550Y29784D01*
Y27716D01*
X28342Y25804D01*
X29804Y24342D01*
X31716Y23550D01*
X33784D01*
X35696Y24342D01*
X37158Y25804D01*
X37950Y27716D01*
Y29784D01*
X37158Y31696D01*
X36013Y32841D01*
Y38351D01*
X37283Y38604D01*
X37842Y37254D01*
X39304Y35792D01*
X41216Y35000D01*
X43284D01*
X45196Y35792D01*
X46658Y37254D01*
X47450Y39166D01*
Y40786D01*
X56872Y50207D01*
X57695D01*
X58944Y50456D01*
X60002Y51163D01*
X72507Y63668D01*
X73214Y64726D01*
X73463Y65975D01*
Y92886D01*
X73214Y94134D01*
X72507Y95193D01*
X68263Y99437D01*
Y113818D01*
X68014Y115067D01*
X67307Y116125D01*
X65568Y117864D01*
X66054Y119037D01*
X71125D01*
X72374Y119286D01*
X73432Y119993D01*
X75990Y122550D01*
X78023D01*
X79030Y122967D01*
X80300Y122118D01*
Y121216D01*
X81092Y119304D01*
X82554Y117842D01*
X82900Y117698D01*
Y86950D01*
X81466D01*
X79554Y86158D01*
X78092Y84696D01*
X77300Y82784D01*
Y80716D01*
X78092Y78804D01*
X79554Y77342D01*
X81466Y76550D01*
X83534D01*
X85445Y77342D01*
X86908Y78804D01*
X87700Y80716D01*
Y82784D01*
X87529Y83197D01*
X87902Y83755D01*
X88100Y84750D01*
Y117698D01*
X88446Y117842D01*
X89908Y119304D01*
X90700Y121216D01*
Y123284D01*
X89908Y125196D01*
X88446Y126658D01*
X86534Y127450D01*
X84466D01*
X83459Y127033D01*
X82189Y127882D01*
Y128784D01*
X81397Y130696D01*
X79935Y132158D01*
X78023Y132950D01*
X75955D01*
X74043Y132158D01*
X72581Y130696D01*
X71789Y128784D01*
Y127578D01*
X69774Y125563D01*
X59455D01*
X58791Y126678D01*
X59226Y127130D01*
X59734Y127638D01*
X60450Y129365D01*
Y131235D01*
X59734Y132962D01*
X59226Y133470D01*
X58427Y134300D01*
X59226Y135129D01*
X59734Y135638D01*
X60450Y137365D01*
Y139235D01*
X59734Y140962D01*
X58412Y142284D01*
X56685Y143000D01*
X54815D01*
X54624Y142921D01*
X53247Y143725D01*
X52735Y144962D01*
X52227Y145470D01*
X51428Y146300D01*
X52227Y147129D01*
X52735Y147638D01*
X53450Y149365D01*
Y151235D01*
X52735Y152962D01*
X51413Y154284D01*
X49685Y155000D01*
D02*
G37*
G36*
X70034Y52950D02*
X67966D01*
X66054Y52158D01*
X64592Y50696D01*
X63800Y48784D01*
Y46716D01*
X64457Y45129D01*
X64416Y44922D01*
X64625Y43868D01*
X65222Y42975D01*
X73428Y34769D01*
X73348Y34577D01*
Y32508D01*
X74139Y30597D01*
X75602Y29134D01*
X77513Y28342D01*
X79582D01*
X81493Y29134D01*
X82956Y30597D01*
X83748Y32508D01*
Y34577D01*
X82956Y36488D01*
X81493Y37951D01*
X79582Y38742D01*
X77513D01*
X77321Y38663D01*
X72294Y43690D01*
X73408Y44804D01*
X74200Y46716D01*
Y48784D01*
X73408Y50696D01*
X71946Y52158D01*
X70034Y52950D01*
D02*
G37*
G36*
X475700Y145970D02*
X432300D01*
Y131944D01*
X395943Y95587D01*
X395236Y94529D01*
X394987Y93280D01*
Y72601D01*
X360693Y38307D01*
X359986Y37249D01*
X359907Y36854D01*
X359254Y36200D01*
X358716D01*
X356804Y35408D01*
X355342Y33946D01*
X354550Y32034D01*
Y29966D01*
X355342Y28054D01*
X356804Y26592D01*
X358716Y25800D01*
X360784D01*
X362696Y26592D01*
X364158Y28054D01*
X364950Y29966D01*
Y32034D01*
X364764Y32483D01*
X365307Y33025D01*
X366014Y34084D01*
X366093Y34479D01*
X400557Y68943D01*
X401264Y70001D01*
X401513Y71250D01*
Y91929D01*
X436914Y127330D01*
X475700D01*
Y145970D01*
D02*
G37*
G36*
X1645Y16700D02*
X-1645D01*
X-4871Y16058D01*
X-7910Y14799D01*
X-10646Y12972D01*
X-12972Y10646D01*
X-14799Y7910D01*
X-16058Y4871D01*
X-16700Y1645D01*
Y-1645D01*
X-16058Y-4871D01*
X-14799Y-7910D01*
X-12972Y-10646D01*
X-10646Y-12972D01*
X-7910Y-14799D01*
X-4871Y-16058D01*
X-1645Y-16700D01*
X1645D01*
X4871Y-16058D01*
X7910Y-14799D01*
X10646Y-12972D01*
X12972Y-10646D01*
X14799Y-7910D01*
X16058Y-4871D01*
X16700Y-1645D01*
Y1645D01*
X16058Y4871D01*
X14799Y7910D01*
X12972Y10646D01*
X10646Y12972D01*
X7910Y14799D01*
X4871Y16058D01*
X1645Y16700D01*
D02*
G37*
%LPD*%
G36*
X224709Y206200D02*
X224248Y205087D01*
Y203018D01*
X225039Y201107D01*
X226502Y199644D01*
X226612Y199598D01*
X226842Y198445D01*
X226050Y196534D01*
Y194466D01*
X226842Y192554D01*
X228161Y191235D01*
X228181Y191100D01*
X227165Y190232D01*
X227034Y190200D01*
X224966D01*
X223054Y189408D01*
X221649Y188003D01*
X151483D01*
X150647Y188839D01*
X150700Y188966D01*
Y191034D01*
X150239Y192148D01*
X151087Y193418D01*
X179710D01*
X181348Y193744D01*
X182738Y194672D01*
X195536Y207470D01*
X223860D01*
X224709Y206200D01*
D02*
G37*
G36*
X61737Y111413D02*
Y98086D01*
X61850Y97520D01*
X61094Y96296D01*
X60918Y96189D01*
X58879Y95344D01*
X57206Y93670D01*
X56300Y91483D01*
Y89116D01*
X57206Y86930D01*
X58879Y85256D01*
X61066Y84350D01*
X63433D01*
X65620Y85256D01*
X65764Y85400D01*
X66937Y84914D01*
Y74326D01*
X65667Y73481D01*
X64534Y73950D01*
X62466D01*
X60554Y73158D01*
X59092Y71696D01*
X58948Y71350D01*
X46577D01*
X38300Y79627D01*
Y104173D01*
X42915Y108788D01*
X44413Y108490D01*
X44766Y107638D01*
X45274Y107130D01*
X46073Y106300D01*
X45274Y105470D01*
X44766Y104962D01*
X44050Y103235D01*
Y101365D01*
X44766Y99638D01*
X46088Y98315D01*
X47815Y97600D01*
X49685D01*
X51413Y98315D01*
X52735Y99638D01*
X53450Y101365D01*
Y103235D01*
X52735Y104962D01*
X52227Y105470D01*
X51428Y106300D01*
X52227Y107130D01*
X52735Y107638D01*
X53247Y108875D01*
X54624Y109679D01*
X54815Y109600D01*
X56685D01*
X58412Y110316D01*
X59734Y111638D01*
X61199Y111855D01*
X61737Y111413D01*
D02*
G37*
G36*
X43662Y66912D02*
X44505Y66348D01*
X45500Y66150D01*
X58948D01*
X59092Y65804D01*
X60554Y64342D01*
X61687Y63872D01*
X61988Y62377D01*
X56344Y56733D01*
X55520D01*
X54271Y56484D01*
X53213Y55777D01*
X42836Y45400D01*
X41216D01*
X39304Y44608D01*
X37842Y43145D01*
X37283Y41796D01*
X36013Y42049D01*
Y69350D01*
X35764Y70599D01*
X35057Y71657D01*
X34913Y71802D01*
Y74001D01*
X36086Y74487D01*
X43662Y66912D01*
D02*
G37*
D10*
X201500Y100250D02*
X206500Y105250D01*
X171970Y122738D02*
X184182Y134950D01*
X163500Y113500D02*
X163750D01*
X171970Y121720D01*
Y122738D01*
X184182Y134950D02*
X260068D01*
X225308Y67000D02*
X269000D01*
X201500Y90808D02*
Y100250D01*
X209650Y91850D02*
X225500Y76000D01*
X201500Y90808D02*
X225308Y67000D01*
X209226Y91850D02*
X209650D01*
X247176Y116750D02*
X280698D01*
X281248Y117300D01*
X225500Y76000D02*
X269500D01*
X213500Y123750D02*
X240177D01*
X247176Y116750D01*
X269785Y124993D02*
Y125233D01*
X260068Y134950D02*
X269785Y125233D01*
X239250Y156000D02*
Y196268D01*
X233153Y201700D02*
X233818D01*
X229448Y204052D02*
X230801D01*
X233153Y201700D01*
X233818D02*
X239250Y196268D01*
X347250Y21000D02*
X348250Y20000D01*
X145547Y190047D02*
X150343Y185250D01*
X225750D01*
X138550Y99550D02*
X163750D01*
X112447Y73447D02*
X138550Y99550D01*
X346000Y21250D02*
X346750Y20500D01*
X347250D01*
X348250Y20000D02*
X382500D01*
X422950Y60450D01*
X454000D01*
X417750Y74000D02*
X422980Y79230D01*
X435000D02*
X439750Y83980D01*
X422980Y79230D02*
X435000D01*
X439750Y83980D02*
Y84000D01*
X69000Y46753D02*
Y47750D01*
X67168Y44922D02*
X78548Y33542D01*
X67168Y44922D02*
X69000Y46753D01*
X245250Y21250D02*
X346000D01*
X181250D02*
X245250D01*
X130250Y72250D02*
X181250Y21250D01*
X106247Y69422D02*
Y169747D01*
X117250Y180750D01*
X106247Y69422D02*
X106668Y69000D01*
X95500Y58500D02*
X106000Y69000D01*
X95500Y58500D02*
X110700Y43300D01*
Y14682D02*
Y43300D01*
X104268Y8250D02*
X110700Y14682D01*
X86500Y750D02*
Y5750D01*
X89000Y8250D01*
X104268D01*
X106000Y69000D02*
X106668D01*
X108422Y67247D01*
X115698D01*
X120702Y72250D02*
X130250D01*
X115698Y67247D02*
X120702Y72250D01*
X103543Y18207D02*
X104500Y17250D01*
X101043Y18207D02*
X103543D01*
X100750Y18500D02*
X101043Y18207D01*
X61500Y5750D02*
X74250Y18500D01*
X100750D01*
X61500Y750D02*
Y5750D01*
D14*
X143750Y254000D02*
X207750D01*
X219000Y242750D01*
D15*
X323750Y195250D02*
X324250D01*
X360250Y231250D02*
X360750D01*
X324250Y195250D02*
X360250Y231250D01*
X303250Y195250D02*
X323750D01*
X267500Y231000D02*
X303250Y195250D01*
D19*
X35700Y78550D02*
Y105250D01*
X48200Y117750D01*
X48250D01*
X45500Y68750D02*
X63500D01*
X35700Y78550D02*
X45500Y68750D01*
X85500Y84750D02*
Y122250D01*
X82750Y82000D02*
X85500Y84750D01*
X239000Y53500D02*
X251216Y41284D01*
X251288D01*
X235750Y53500D02*
X239000D01*
X232050Y160300D02*
Y194700D01*
X228750Y157000D02*
X232050Y160300D01*
X231250Y195500D02*
X232050Y194700D01*
D78*
X31650Y70450D02*
X32750Y69350D01*
X31650Y70450D02*
Y109968D01*
X46979Y125297D01*
X32750Y28750D02*
Y69350D01*
X70200Y65975D02*
Y92886D01*
X55520Y53470D02*
X57695D01*
X42250Y40200D02*
X55520Y53470D01*
X65000Y98086D02*
X70200Y92886D01*
X57695Y53470D02*
X70200Y65975D01*
X56518Y122300D02*
X71125D01*
X76575Y127750D01*
X76989D01*
X77250Y169750D02*
X111000Y203500D01*
X52000Y168000D02*
X53750Y169750D01*
X77250D01*
X306750Y-21750D02*
X307750D01*
X295750Y-10750D02*
X306750Y-21750D01*
X295750Y-10750D02*
Y15050D01*
X285582Y163000D02*
X288082Y165500D01*
X401250D01*
X284750Y163000D02*
X285582D01*
X396920Y142750D02*
X441620Y187450D01*
X368250Y88680D02*
X441620Y162050D01*
X368250Y85750D02*
Y88680D01*
X398250Y93280D02*
X441620Y136650D01*
X142603Y142750D02*
X396920D01*
X398250Y71250D02*
Y93280D01*
X237750Y261668D02*
Y262250D01*
X237250Y261168D02*
X237750Y261668D01*
X235750Y259668D02*
X237250Y261168D01*
X240475Y214804D02*
Y257942D01*
X235750Y232250D02*
Y259668D01*
X205250Y104500D02*
Y104652D01*
X181250Y123250D02*
X188120Y116380D01*
Y112405D02*
Y116380D01*
Y112405D02*
X195275Y105250D01*
X204652D01*
X205250Y104652D01*
X260302Y49294D02*
X260770D01*
X276250Y64775D01*
X255963Y49250D02*
X256197Y49015D01*
X260023D02*
X260302Y49294D01*
X256197Y49015D02*
X260023D01*
X276250Y64775D02*
Y97000D01*
X196380Y113620D02*
Y116105D01*
Y113620D02*
X197000Y113000D01*
X196380Y116105D02*
X210725Y130450D01*
X232721D02*
X234421Y128750D01*
X210725Y130450D02*
X232721D01*
X234421Y128750D02*
X257500D01*
X237250Y261168D02*
X240475Y257942D01*
X115250Y156250D02*
Y160000D01*
X114750Y155750D02*
X115250Y156250D01*
Y160000D02*
X121000Y165750D01*
X141250D01*
X277000Y182000D02*
X285750Y173250D01*
Y164250D02*
Y173250D01*
X405750Y236750D02*
Y261750D01*
X405250Y262250D02*
X405750Y261750D01*
X402550Y233550D02*
X405750Y236750D01*
X364891Y237950D02*
X369291Y233550D01*
X345657Y237950D02*
X364891D01*
X340507Y232800D02*
X345657Y237950D01*
X319050Y232800D02*
X340507D01*
X308061Y221811D02*
X319050Y232800D01*
X369291Y233550D02*
X402550D01*
X245500Y32500D02*
X275000D01*
X171750Y106250D02*
X245500Y32500D01*
X142809Y106250D02*
X171750D01*
X129194Y119866D02*
X142809Y106250D01*
X120750Y120897D02*
X142603Y142750D01*
X120750Y108000D02*
Y120897D01*
X441620Y187450D02*
X454000D01*
X441620Y162050D02*
X454000D01*
X359750Y31000D02*
Y32082D01*
X363000Y35332D01*
Y36000D01*
X398250Y71250D01*
X441620Y136650D02*
X454000D01*
X56518Y122300D02*
X65000Y113818D01*
Y98086D02*
Y113818D01*
X55750Y122300D02*
X56518D01*
X49979Y125297D02*
X54982Y130300D01*
X46979Y125297D02*
X49979D01*
X54982Y130300D02*
X55750D01*
D79*
X100000Y174389D02*
X123311Y197700D01*
X100000Y118000D02*
Y174389D01*
X179710Y197700D02*
X193762Y211752D01*
X232637D02*
X240007Y204383D01*
X193762Y211752D02*
X232637D01*
X240007Y204383D02*
X247133D01*
X123311Y197700D02*
X179710D01*
X247133Y207743D02*
X248175Y208786D01*
Y222565D01*
X266361Y240750D01*
X338146Y238500D02*
X343296Y243650D01*
X370652Y240250D02*
X385750D01*
X367252Y243650D02*
X370652Y240250D01*
X343296Y243650D02*
X367252D01*
X247133Y204383D02*
Y207743D01*
X293000Y238500D02*
X338146D01*
X266361Y240750D02*
X290750D01*
X293000Y238500D01*
D82*
X0Y250000D02*
D03*
Y0D02*
D03*
D83*
X-9750Y83000D02*
D03*
Y169600D02*
D03*
X47250Y83000D02*
D03*
Y169600D02*
D03*
D84*
X48750Y102300D02*
D03*
Y110300D02*
D03*
Y118300D02*
D03*
Y150300D02*
D03*
Y142300D02*
D03*
Y134300D02*
D03*
X55750Y98300D02*
D03*
Y114300D02*
D03*
Y122300D02*
D03*
Y154300D02*
D03*
Y138300D02*
D03*
Y130300D02*
D03*
D85*
X52250Y166350D02*
D03*
Y86250D02*
D03*
D86*
X62250Y90300D02*
D03*
Y162300D02*
D03*
D87*
X82500Y81750D02*
D03*
X63500Y68750D02*
D03*
X76043Y62695D02*
D03*
X85500Y122250D02*
D03*
X76989Y127750D02*
D03*
X100000Y118000D02*
D03*
X475500Y263000D02*
D03*
X463000Y238000D02*
D03*
X475500Y213000D02*
D03*
Y113000D02*
D03*
X463000Y38000D02*
D03*
X475500Y13000D02*
D03*
X463000Y-12000D02*
D03*
X450500Y263000D02*
D03*
X438000Y238000D02*
D03*
X450500Y213000D02*
D03*
Y113000D02*
D03*
X438000Y38000D02*
D03*
X450500Y13000D02*
D03*
X438000Y-12000D02*
D03*
X425500Y263000D02*
D03*
X413000Y238000D02*
D03*
X425500Y213000D02*
D03*
X413000Y188000D02*
D03*
Y38000D02*
D03*
X425500Y13000D02*
D03*
X413000Y-12000D02*
D03*
X400500Y213000D02*
D03*
Y13000D02*
D03*
X388000Y-12000D02*
D03*
X375500Y263000D02*
D03*
Y63000D02*
D03*
X363000Y-12000D02*
D03*
X350500Y263000D02*
D03*
Y63000D02*
D03*
X338000Y38000D02*
D03*
Y-12000D02*
D03*
X325500Y263000D02*
D03*
Y163000D02*
D03*
Y113000D02*
D03*
X313000Y38000D02*
D03*
X325500Y13000D02*
D03*
X313000Y-12000D02*
D03*
X300500Y263000D02*
D03*
Y213000D02*
D03*
X288000Y-12000D02*
D03*
X275500Y263000D02*
D03*
X263000Y-12000D02*
D03*
X250500Y263000D02*
D03*
X238000Y-12000D02*
D03*
X225500Y263000D02*
D03*
X213000Y38000D02*
D03*
X225500Y13000D02*
D03*
X213000Y-12000D02*
D03*
X188000Y38000D02*
D03*
X200500Y13000D02*
D03*
X188000Y-12000D02*
D03*
X175500Y213000D02*
D03*
Y113000D02*
D03*
X163000Y88000D02*
D03*
X175500Y13000D02*
D03*
X163000Y-12000D02*
D03*
X150500Y163000D02*
D03*
X138000Y38000D02*
D03*
X150500Y13000D02*
D03*
X138000Y-12000D02*
D03*
X113000Y238000D02*
D03*
X125500Y163000D02*
D03*
X113000Y138000D02*
D03*
X125500Y63000D02*
D03*
Y13000D02*
D03*
X113000Y-12000D02*
D03*
X50500Y213000D02*
D03*
X38000Y138000D02*
D03*
X50500Y13000D02*
D03*
X38000Y-12000D02*
D03*
X25500Y263000D02*
D03*
Y213000D02*
D03*
Y163000D02*
D03*
X13000Y138000D02*
D03*
X25500Y113000D02*
D03*
X13000Y88000D02*
D03*
Y38000D02*
D03*
X25500Y13000D02*
D03*
X500Y213000D02*
D03*
X-12000Y188000D02*
D03*
X500Y163000D02*
D03*
X-12000Y138000D02*
D03*
X500Y113000D02*
D03*
Y63000D02*
D03*
X-12000Y38000D02*
D03*
X111000Y203500D02*
D03*
X307750Y-21750D02*
D03*
X295750Y15050D02*
D03*
X401250Y165500D02*
D03*
X235750Y232250D02*
D03*
X181250Y123250D02*
D03*
X209226Y91850D02*
D03*
X251288Y41284D02*
D03*
X235750Y53500D02*
D03*
X256500Y48250D02*
D03*
X281248Y117300D02*
D03*
X269000Y67000D02*
D03*
X269500Y76000D02*
D03*
X276250Y97000D02*
D03*
X206500Y105250D02*
D03*
X197000Y113000D02*
D03*
X213500Y123750D02*
D03*
X257500Y128750D02*
D03*
X269785Y124993D02*
D03*
X228750Y157000D02*
D03*
X231250Y195500D02*
D03*
X229448Y204052D02*
D03*
X239250Y156000D02*
D03*
X240475Y214804D02*
D03*
X114750Y155750D02*
D03*
X141250Y165750D02*
D03*
X277000Y182000D02*
D03*
X285750Y164250D02*
D03*
X226000Y185000D02*
D03*
X405250Y262250D02*
D03*
X308061Y221811D02*
D03*
X237250Y262250D02*
D03*
X275000Y32500D02*
D03*
X163750Y99550D02*
D03*
X129194Y119866D02*
D03*
X120750Y108000D02*
D03*
X368250Y85750D02*
D03*
X359750Y31000D02*
D03*
X417750Y74000D02*
D03*
X42250Y40200D02*
D03*
X69000Y47750D02*
D03*
X78548Y33542D02*
D03*
X347250Y20500D02*
D03*
X245250Y21250D02*
D03*
X145500Y190000D02*
D03*
X385750Y240250D02*
D03*
X293000Y238500D02*
D03*
X246750Y204000D02*
D03*
X95500Y58500D02*
D03*
X117250Y180750D02*
D03*
X130250Y72250D02*
D03*
X219000Y242750D02*
D03*
X143750Y254000D02*
D03*
X360750Y231250D02*
D03*
X323750Y195250D02*
D03*
X267500Y231000D02*
D03*
X104500Y17250D02*
D03*
X112447Y73447D02*
D03*
X32750Y28750D02*
D03*
X163500Y113500D02*
D03*
D88*
X454000Y187450D02*
D03*
Y162050D02*
D03*
Y136650D02*
D03*
D89*
Y60450D02*
D03*
D90*
Y111250D02*
D03*
Y85850D02*
D03*
D91*
X57500Y254500D02*
D03*
X86500Y750D02*
D03*
X74000D02*
D03*
X61500D02*
D03*
X49000D02*
D03*
X45000Y254500D02*
D03*
X70000D02*
D03*
X82500D02*
D03*
M02*
