G04*
G04 #@! TF.GenerationSoftware,Altium Limited,Altium Designer,21.6.1 (37)*
G04*
G04 Layer_Color=16711935*
%FSLAX44Y44*%
%MOMM*%
G71*
G04*
G04 #@! TF.SameCoordinates,9A347CC7-EC15-40EA-864E-B30FF356FA04*
G04*
G04*
G04 #@! TF.FilePolarity,Negative*
G04*
G01*
G75*
%ADD63C,3.2000*%
%ADD64O,2.0000X1.1000*%
%ADD65C,0.8000*%
%ADD66O,1.1000X1.7000*%
%ADD67C,1.0500*%
%ADD83R,4.2000X1.7240*%
G04:AMPARAMS|DCode=84|XSize=1.724mm|YSize=4.2mm|CornerRadius=0.481mm|HoleSize=0mm|Usage=FLASHONLY|Rotation=90.000|XOffset=0mm|YOffset=0mm|HoleType=Round|Shape=RoundedRectangle|*
%AMROUNDEDRECTD84*
21,1,1.7240,3.2380,0,0,90.0*
21,1,0.7620,4.2000,0,0,90.0*
1,1,0.9620,1.6190,0.3810*
1,1,0.9620,1.6190,-0.3810*
1,1,0.9620,-1.6190,-0.3810*
1,1,0.9620,-1.6190,0.3810*
%
%ADD84ROUNDEDRECTD84*%
%ADD85R,4.2000X1.7240*%
%ADD86R,0.9000X1.9000*%
G36*
X67471Y88251D02*
X67386Y87709D01*
X67243Y87178D01*
X67046Y86665D01*
X66797Y86175D01*
X66498Y85714D01*
X66152Y85287D01*
X65763Y84899D01*
X65336Y84553D01*
X64875Y84253D01*
X64386Y84004D01*
X63872Y83807D01*
X63342Y83665D01*
X62799Y83579D01*
X62250Y83550D01*
X61701Y83579D01*
X61159Y83665D01*
X60628Y83807D01*
X60115Y84004D01*
X59625Y84253D01*
X59164Y84553D01*
X58737Y84899D01*
X58349Y85287D01*
X58003Y85714D01*
X57704Y86175D01*
X57454Y86665D01*
X57257Y87178D01*
X57115Y87709D01*
X57029Y88251D01*
X57000Y88800D01*
Y91800D01*
X57029Y92349D01*
X57115Y92892D01*
X57257Y93422D01*
X57454Y93935D01*
X57704Y94425D01*
X58003Y94886D01*
X58349Y95313D01*
X58737Y95702D01*
X59164Y96047D01*
X59625Y96347D01*
X60115Y96596D01*
X60628Y96793D01*
X61159Y96935D01*
X61701Y97021D01*
X62250Y97050D01*
X62799Y97021D01*
X63342Y96935D01*
X63872Y96793D01*
X64386Y96596D01*
X64875Y96347D01*
X65336Y96047D01*
X65763Y95702D01*
X66152Y95313D01*
X66498Y94886D01*
X66797Y94425D01*
X67046Y93935D01*
X67243Y93422D01*
X67386Y92892D01*
X67471Y92349D01*
X67500Y91800D01*
Y88800D01*
X67471Y88251D01*
D02*
G37*
D63*
X0Y250000D02*
D03*
Y0D02*
D03*
D64*
X-9750Y83000D02*
D03*
Y169600D02*
D03*
X47250Y83000D02*
D03*
Y169600D02*
D03*
D65*
X48750Y102300D02*
D03*
Y110300D02*
D03*
Y118300D02*
D03*
Y150300D02*
D03*
Y142300D02*
D03*
Y134300D02*
D03*
X55750Y98300D02*
D03*
Y114300D02*
D03*
Y122300D02*
D03*
Y154300D02*
D03*
Y138300D02*
D03*
Y130300D02*
D03*
D66*
X52250Y166350D02*
D03*
Y86250D02*
D03*
D67*
X62250Y90300D02*
D03*
Y162300D02*
D03*
D83*
X454000Y187450D02*
D03*
Y162050D02*
D03*
Y136650D02*
D03*
D84*
Y60450D02*
D03*
D85*
Y111250D02*
D03*
Y85850D02*
D03*
D86*
X267250Y258750D02*
D03*
X75000Y-1500D02*
D03*
X62500D02*
D03*
X50000D02*
D03*
X37500D02*
D03*
X254750Y258750D02*
D03*
X279750D02*
D03*
X292250D02*
D03*
M02*
