G04*
G04 #@! TF.GenerationSoftware,Altium Limited,Altium Designer,21.6.1 (37)*
G04*
G04 Layer_Color=65535*
%FSLAX44Y44*%
%MOMM*%
G71*
G04*
G04 #@! TF.SameCoordinates,E55892BA-FD2B-41B2-92EE-91F1455EE258*
G04*
G04*
G04 #@! TF.FilePolarity,Positive*
G04*
G01*
G75*
%ADD10C,0.2000*%
%ADD11C,0.0000*%
%ADD12C,0.1270*%
%ADD13C,0.1524*%
%ADD14C,0.6000*%
%ADD15C,0.2500*%
%ADD16C,0.1000*%
%ADD17C,0.2540*%
%ADD18C,0.1500*%
%ADD19C,0.1700*%
D10*
X101750Y98750D02*
G03*
X101750Y98750I-1000J0D01*
G01*
X238500Y22250D02*
G03*
X238500Y22250I-1000J0D01*
G01*
X293000Y221000D02*
G03*
X293000Y221000I-1000J0D01*
G01*
X349000Y28750D02*
G03*
X349000Y28750I-1000J0D01*
G01*
X385750Y221250D02*
G03*
X385750Y221250I-1000J0D01*
G01*
X387000Y77750D02*
G03*
X387000Y77750I-1000J0D01*
G01*
X336000Y207750D02*
G03*
X336000Y207750I-1000J0D01*
G01*
X266720Y216720D02*
G03*
X266720Y216720I-1000J0D01*
G01*
X70350Y182500D02*
G03*
X70350Y182500I-1500J0D01*
G01*
X216500Y182000D02*
Y188000D01*
X210500Y182000D02*
X216500D01*
X156500D02*
X162500D01*
X156500D02*
Y188000D01*
X216500Y236000D02*
Y242000D01*
X210500D02*
X216500D01*
X156500D02*
X162500D01*
X156500Y236000D02*
Y242000D01*
X456750Y277250D02*
X475500Y258500D01*
Y-10250D02*
Y258500D01*
X460000Y-25750D02*
X475500Y-10250D01*
X-6750Y-25750D02*
X460000D01*
X-24000Y-8500D02*
X-6750Y-25750D01*
X-24000Y-8500D02*
Y262500D01*
X-9250Y277250D01*
X456750Y277250D01*
X360000Y195500D02*
X369750Y205250D01*
X360000Y195500D02*
X369750Y185750D01*
X-9500Y192500D02*
Y200750D01*
X3250Y196250D02*
X6500Y199500D01*
X3250Y196250D02*
X6625Y192875D01*
X315000Y200750D02*
Y204750D01*
X308000Y200750D02*
Y204750D01*
X160250Y138750D02*
X215250D01*
X160250Y83750D02*
X215250D01*
X160250D02*
Y138750D01*
X215250Y83750D02*
Y138750D01*
X750Y61000D02*
X4125Y57625D01*
X750Y61000D02*
X4000Y64250D01*
X-12000Y57250D02*
Y65500D01*
X61000Y25000D02*
Y42000D01*
Y25000D02*
Y42000D01*
D11*
X122020Y241500D02*
G03*
X122020Y241500I-1270J0D01*
G01*
X275520Y81000D02*
G03*
X275520Y81000I-1270J0D01*
G01*
D12*
X149340Y232580D02*
G03*
X149340Y232580I-1270J0D01*
G01*
X86950Y116100D02*
Y159400D01*
X112550Y116100D02*
Y159400D01*
X110450D02*
X112550D01*
X86950D02*
X89050D01*
X110450Y116100D02*
X112550D01*
X86950D02*
X89050D01*
X242500Y-28500D02*
X298500D01*
X310500Y-8750D02*
Y14000D01*
X302500D02*
X310500D01*
X230500Y-8750D02*
Y14000D01*
X238500D01*
X243500Y278000D02*
X304400D01*
X232750Y237500D02*
X250400D01*
X232750D02*
Y251800D01*
X297600Y237500D02*
X315250D01*
Y251700D01*
X335600Y-28250D02*
X396500D01*
X389600Y12250D02*
X407250D01*
Y-2050D02*
Y12250D01*
X324750D02*
X342400D01*
X324750Y-1950D02*
Y12250D01*
X336250Y278250D02*
X397150D01*
X325500Y237750D02*
X343150D01*
X325500D02*
Y252050D01*
X390350Y237750D02*
X408000D01*
Y251950D01*
X395000Y196750D02*
X416000D01*
X395000Y174251D02*
Y196750D01*
X394500Y59250D02*
X415500D01*
X394500D02*
Y81750D01*
X474501Y58750D02*
X484000D01*
X483500Y197750D02*
X484000Y197250D01*
X474501Y197750D02*
X483500D01*
X484000Y58750D02*
Y197250D01*
X338250Y180750D02*
Y184500D01*
Y180750D02*
X394250D01*
Y184500D01*
Y206500D02*
Y210250D01*
X338250D02*
X394250D01*
X338250Y206500D02*
Y210250D01*
X268500Y217750D02*
X298500D01*
X268500Y187750D02*
X298500D01*
X-33750Y77800D02*
X-21250D01*
X-33750D02*
Y174800D01*
X-21250D01*
X2250D02*
X34750D01*
X2250Y77800D02*
X34750D01*
X59750Y174800D02*
X79250D01*
X59750Y77800D02*
X79250D01*
Y174800D01*
D13*
X61558Y208972D02*
G03*
X61558Y212528I-2276J1778D01*
G01*
Y208972D02*
G03*
X61558Y212528I-2276J1778D01*
G01*
D14*
X208250Y93750D02*
G03*
X208250Y93750I-3000J0D01*
G01*
D15*
X229500Y76750D02*
G03*
X229500Y76750I-1250J0D01*
G01*
X54250Y45500D02*
G03*
X54250Y45500I-1250J0D01*
G01*
X414512Y228998D02*
X413262Y227749D01*
Y225250D01*
X414512Y224000D01*
X419510D01*
X420760Y225250D01*
Y227749D01*
X419510Y228998D01*
X417011D01*
Y226499D01*
X420760Y231498D02*
X413262D01*
X420760Y236496D01*
X413262D01*
Y238995D02*
X420760D01*
Y242744D01*
X419510Y243993D01*
X414512D01*
X413262Y242744D01*
Y238995D01*
X429509Y228998D02*
X428259Y227749D01*
Y225250D01*
X429509Y224000D01*
X434507D01*
X435757Y225250D01*
Y227749D01*
X434507Y228998D01*
X435757Y231498D02*
X430758D01*
X428259Y233997D01*
X430758Y236496D01*
X435757D01*
X432008D01*
Y231498D01*
X435757Y238995D02*
X428259D01*
X435757Y243993D01*
X428259D01*
X437006Y246493D02*
Y251491D01*
X428259Y253990D02*
X435757D01*
Y258989D01*
X445755Y228998D02*
X444506Y227749D01*
Y225250D01*
X445755Y224000D01*
X450754D01*
X452003Y225250D01*
Y227749D01*
X450754Y228998D01*
X452003Y231498D02*
X447005D01*
X444506Y233997D01*
X447005Y236496D01*
X452003D01*
X448255D01*
Y231498D01*
X452003Y238995D02*
X444506D01*
X452003Y243993D01*
X444506D01*
X453253Y246493D02*
Y251491D01*
X444506Y253990D02*
X452003D01*
X448255D01*
Y258989D01*
X444506D01*
X452003D01*
X460752Y224000D02*
X465751D01*
X468250Y226499D01*
X465751Y228998D01*
X460752D01*
X463252Y231498D02*
X467000D01*
X468250Y232747D01*
Y236496D01*
X463252D01*
X468250Y238995D02*
Y242744D01*
X467000Y243993D01*
X465751Y242744D01*
Y240245D01*
X464501Y238995D01*
X463252Y240245D01*
Y243993D01*
X460752Y246493D02*
X468250D01*
Y250242D01*
X467000Y251491D01*
X465751D01*
X464501D01*
X463252Y250242D01*
Y246493D01*
X463489Y16752D02*
X464739Y18001D01*
Y20500D01*
X463489Y21750D01*
X458491D01*
X457241Y20500D01*
Y18001D01*
X458491Y16752D01*
X460990D01*
Y19251D01*
X457241Y14252D02*
X464739D01*
X457241Y9254D01*
X464739D01*
Y6755D02*
X457241D01*
Y3006D01*
X458491Y1756D01*
X463489D01*
X464739Y3006D01*
Y6755D01*
X448492Y16752D02*
X449742Y18001D01*
Y20500D01*
X448492Y21750D01*
X447243D01*
X445993Y20500D01*
Y18001D01*
X444743Y16752D01*
X443494D01*
X442244Y18001D01*
Y20500D01*
X443494Y21750D01*
X449742Y14252D02*
X442244D01*
X444743Y11753D01*
X442244Y9254D01*
X449742D01*
X448492Y1756D02*
X449742Y3006D01*
Y5505D01*
X448492Y6755D01*
X443494D01*
X442244Y5505D01*
Y3006D01*
X443494Y1756D01*
X449742Y-743D02*
X442244D01*
Y-5741D01*
X449742Y-8240D02*
X442244D01*
X444743D01*
X449742Y-13239D01*
X445993Y-9490D01*
X442244Y-13239D01*
X433495Y16752D02*
X434745Y18001D01*
Y20500D01*
X433495Y21750D01*
X432245D01*
X430996Y20500D01*
Y18001D01*
X429746Y16752D01*
X428497D01*
X427247Y18001D01*
Y20500D01*
X428497Y21750D01*
X434745Y14252D02*
X427247D01*
X429746Y11753D01*
X427247Y9254D01*
X434745D01*
Y6755D02*
X427247D01*
Y3006D01*
X428497Y1756D01*
X433495D01*
X434745Y3006D01*
Y6755D01*
Y-743D02*
Y-3242D01*
Y-1992D01*
X427247D01*
Y-743D01*
Y-3242D01*
X434745Y-10740D02*
Y-8240D01*
X433495Y-6991D01*
X428497D01*
X427247Y-8240D01*
Y-10740D01*
X428497Y-11989D01*
X433495D01*
X434745Y-10740D01*
X418498Y21750D02*
X419748Y20500D01*
Y18001D01*
X418498Y16752D01*
X417248D01*
X415999Y18001D01*
Y19251D01*
Y18001D01*
X414749Y16752D01*
X413500D01*
X412250Y18001D01*
Y20500D01*
X413500Y21750D01*
X419748Y14252D02*
X414749D01*
X412250Y11753D01*
X414749Y9254D01*
X419748D01*
X418498Y6755D02*
X419748Y5505D01*
Y3006D01*
X418498Y1756D01*
X417248D01*
X415999Y3006D01*
Y4256D01*
Y3006D01*
X414749Y1756D01*
X413500D01*
X412250Y3006D01*
Y5505D01*
X413500Y6755D01*
X310500Y142244D02*
Y149742D01*
X314249D01*
X315498Y148492D01*
Y145993D01*
X314249Y144743D01*
X310500D01*
X312999D02*
X315498Y142244D01*
X325495Y145993D02*
X330494D01*
X345489Y148492D02*
X344239Y149742D01*
X341740D01*
X340490Y148492D01*
Y147242D01*
X341740Y145993D01*
X344239D01*
X345489Y144743D01*
Y143494D01*
X344239Y142244D01*
X341740D01*
X340490Y143494D01*
X347988Y149742D02*
X352986D01*
X350487D01*
Y142244D01*
X355485Y145993D02*
X360484D01*
X362983Y149742D02*
Y142244D01*
X367981D01*
X370481Y149742D02*
X372980D01*
X371730D01*
Y142244D01*
X370481D01*
X372980D01*
X376729D02*
Y149742D01*
X381727Y142244D01*
Y149742D01*
X384226D02*
Y142244D01*
Y144743D01*
X389225Y149742D01*
X385476Y145993D01*
X389225Y142244D01*
X315498Y133495D02*
X314249Y134745D01*
X311750D01*
X310500Y133495D01*
Y128497D01*
X311750Y127247D01*
X314249D01*
X315498Y128497D01*
Y130996D01*
X312999D01*
X325495D02*
X330494D01*
X340490Y134745D02*
Y127247D01*
X344239D01*
X345489Y128497D01*
Y129746D01*
X344239Y130996D01*
X340490D01*
X344239D01*
X345489Y132245D01*
Y133495D01*
X344239Y134745D01*
X340490D01*
X347988D02*
Y127247D01*
X352986D01*
X355485Y134745D02*
X357985D01*
X356735D01*
Y127247D01*
X355485D01*
X357985D01*
X361734D02*
Y134745D01*
X366732Y127247D01*
Y134745D01*
X369231D02*
Y127247D01*
Y129746D01*
X374230Y134745D01*
X370481Y130996D01*
X374230Y127247D01*
X310500Y119748D02*
Y112250D01*
X314249D01*
X315498Y113500D01*
Y114749D01*
X314249Y115999D01*
X310500D01*
X314249D01*
X315498Y117248D01*
Y118498D01*
X314249Y119748D01*
X310500D01*
X325495Y115999D02*
X330494D01*
X345489Y118498D02*
X344239Y119748D01*
X341740D01*
X340490Y118498D01*
Y113500D01*
X341740Y112250D01*
X344239D01*
X345489Y113500D01*
X347988Y112250D02*
Y117248D01*
X350487Y119748D01*
X352986Y117248D01*
Y112250D01*
Y115999D01*
X347988D01*
X355485Y112250D02*
Y119748D01*
X360484Y112250D01*
Y119748D01*
X143500Y-13502D02*
X148498D01*
X145999D01*
Y-21000D01*
X150998D02*
Y-16002D01*
X153497Y-13502D01*
X155996Y-16002D01*
Y-21000D01*
Y-17251D01*
X150998D01*
X158495Y-21000D02*
Y-13502D01*
X162244D01*
X163494Y-14752D01*
Y-17251D01*
X162244Y-18501D01*
X158495D01*
X160994D02*
X163494Y-21000D01*
X170991Y-14752D02*
X169742Y-13502D01*
X167242D01*
X165993Y-14752D01*
Y-19750D01*
X167242Y-21000D01*
X169742D01*
X170991Y-19750D01*
Y-17251D01*
X168492D01*
X178489Y-13502D02*
X173490D01*
Y-21000D01*
X178489D01*
X173490Y-17251D02*
X175990D01*
X180988Y-13502D02*
X185986D01*
X183487D01*
Y-21000D01*
X200982Y-14752D02*
X199732Y-13502D01*
X197233D01*
X195983Y-14752D01*
Y-16002D01*
X197233Y-17251D01*
X199732D01*
X200982Y-18501D01*
Y-19750D01*
X199732Y-21000D01*
X197233D01*
X195983Y-19750D01*
X203481Y-13502D02*
Y-21000D01*
X205980Y-18501D01*
X208479Y-21000D01*
Y-13502D01*
X210978D02*
Y-21000D01*
X214727D01*
X215977Y-19750D01*
Y-14752D01*
X214727Y-13502D01*
X210978D01*
X-16000Y51998D02*
Y46999D01*
X-13501Y44500D01*
X-11002Y46999D01*
Y51998D01*
X-8502D02*
Y45750D01*
X-7253Y44500D01*
X-4754D01*
X-3504Y45750D01*
Y51998D01*
X3994Y50748D02*
X2744Y51998D01*
X245D01*
X-1005Y50748D01*
Y49498D01*
X245Y48249D01*
X2744D01*
X3994Y46999D01*
Y45750D01*
X2744Y44500D01*
X245D01*
X-1005Y45750D01*
X6493Y51998D02*
Y44500D01*
X10242D01*
X11491Y45750D01*
Y46999D01*
X10242Y48249D01*
X6493D01*
X10242D01*
X11491Y49498D01*
Y50748D01*
X10242Y51998D01*
X6493D01*
X-10500Y211748D02*
X-9250Y212998D01*
X-6751D01*
X-5502Y211748D01*
Y210498D01*
X-6751Y209249D01*
X-8001D01*
X-6751D01*
X-5502Y207999D01*
Y206750D01*
X-6751Y205500D01*
X-9250D01*
X-10500Y206750D01*
X-3002Y212998D02*
Y207999D01*
X-503Y205500D01*
X1996Y207999D01*
Y212998D01*
X4495Y211748D02*
X5745Y212998D01*
X8244D01*
X9494Y211748D01*
Y210498D01*
X8244Y209249D01*
X6994D01*
X8244D01*
X9494Y207999D01*
Y206750D01*
X8244Y205500D01*
X5745D01*
X4495Y206750D01*
D16*
X294750Y135750D02*
Y139750D01*
X309750Y135750D02*
Y139750D01*
D17*
X307584Y124288D02*
Y123122D01*
X306418D01*
Y124288D01*
X307584D01*
D18*
X103252Y68251D02*
Y74249D01*
X106251D01*
X107250Y73249D01*
Y71250D01*
X106251Y70250D01*
X103252D01*
X105251D02*
X107250Y68251D01*
X109250Y73249D02*
X110249Y74249D01*
X112249D01*
X113248Y73249D01*
Y72250D01*
X112249Y71250D01*
X113248Y70250D01*
Y69251D01*
X112249Y68251D01*
X110249D01*
X109250Y69251D01*
Y70250D01*
X110249Y71250D01*
X109250Y72250D01*
Y73249D01*
X110249Y71250D02*
X112249D01*
X103502Y78501D02*
Y84499D01*
X106501D01*
X107500Y83499D01*
Y81500D01*
X106501Y80500D01*
X103502D01*
X105501D02*
X107500Y78501D01*
X112499D02*
Y84499D01*
X109500Y81500D01*
X113498D01*
D19*
X224167Y24999D02*
X221501D01*
X222834D01*
Y18334D01*
X221501Y17001D01*
X220168D01*
X218836Y18334D01*
X232164Y17001D02*
X226833D01*
X232164Y22333D01*
Y23666D01*
X230832Y24999D01*
X228166D01*
X226833Y23666D01*
X293168Y115501D02*
Y123499D01*
X297167D01*
X298500Y122166D01*
Y119500D01*
X297167Y118167D01*
X293168D01*
X295834D02*
X298500Y115501D01*
X301166D02*
X303832D01*
X302499D01*
Y123499D01*
X301166Y122166D01*
X292999Y158085D02*
X285001D01*
Y162084D01*
X286334Y163417D01*
X289000D01*
X290333Y162084D01*
Y158085D01*
Y160751D02*
X292999Y163417D01*
Y171415D02*
Y166083D01*
X287667Y171415D01*
X286334D01*
X285001Y170082D01*
Y167416D01*
X286334Y166083D01*
X279749Y157336D02*
X271751D01*
Y161334D01*
X273084Y162667D01*
X275750D01*
X277083Y161334D01*
Y157336D01*
Y160001D02*
X279749Y162667D01*
X273084Y165333D02*
X271751Y166666D01*
Y169332D01*
X273084Y170665D01*
X274417D01*
X275750Y169332D01*
Y167999D01*
Y169332D01*
X277083Y170665D01*
X278416D01*
X279749Y169332D01*
Y166666D01*
X278416Y165333D01*
X304921Y165249D02*
Y157251D01*
X310253D01*
X318250Y165249D02*
X312918D01*
Y157251D01*
X318250D01*
X312918Y161250D02*
X315584D01*
X320916Y165249D02*
Y157251D01*
X324915D01*
X326247Y158584D01*
Y163916D01*
X324915Y165249D01*
X320916D01*
X328913Y157251D02*
X331579D01*
X330246D01*
Y165249D01*
X328913Y163916D01*
X80918Y113999D02*
Y106001D01*
X84917D01*
X86250Y107334D01*
Y112666D01*
X84917Y113999D01*
X80918D01*
X88916Y106001D02*
X91582D01*
X90249D01*
Y113999D01*
X88916Y112666D01*
X205753Y272666D02*
X204420Y273999D01*
X201754D01*
X200421Y272666D01*
Y267334D01*
X201754Y266001D01*
X204420D01*
X205753Y267334D01*
X208418Y266001D02*
Y271333D01*
X211084Y273999D01*
X213750Y271333D01*
Y266001D01*
Y270000D01*
X208418D01*
X216416Y266001D02*
Y273999D01*
X221747Y266001D01*
Y273999D01*
X224413Y266001D02*
X227079D01*
X225746D01*
Y273999D01*
X224413Y272666D01*
X353750Y220997D02*
Y213000D01*
X357749D01*
X359082Y214333D01*
Y219664D01*
X357749Y220997D01*
X353750D01*
X361747Y219664D02*
X363080Y220997D01*
X365746D01*
X367079Y219664D01*
Y218332D01*
X365746Y216999D01*
X364413D01*
X365746D01*
X367079Y215666D01*
Y214333D01*
X365746Y213000D01*
X363080D01*
X361747Y214333D01*
X102500Y45500D02*
Y53497D01*
X106499D01*
X107832Y52165D01*
Y49499D01*
X106499Y48166D01*
X102500D01*
X105166D02*
X107832Y45500D01*
X115829D02*
X110497D01*
X115829Y50832D01*
Y52165D01*
X114496Y53497D01*
X111830D01*
X110497Y52165D01*
X118495Y46833D02*
X119828Y45500D01*
X122494D01*
X123826Y46833D01*
Y52165D01*
X122494Y53497D01*
X119828D01*
X118495Y52165D01*
Y50832D01*
X119828Y49499D01*
X123826D01*
X241250Y37250D02*
X233253D01*
Y41249D01*
X234585Y42582D01*
X237251D01*
X238584Y41249D01*
Y37250D01*
Y39916D02*
X241250Y42582D01*
Y50579D02*
Y45247D01*
X235918Y50579D01*
X234585D01*
X233253Y49246D01*
Y46580D01*
X234585Y45247D01*
Y53245D02*
X233253Y54578D01*
Y57243D01*
X234585Y58576D01*
X235918D01*
X237251Y57243D01*
Y55911D01*
Y57243D01*
X238584Y58576D01*
X239917D01*
X241250Y57243D01*
Y54578D01*
X239917Y53245D01*
X221250Y64250D02*
Y72247D01*
X225249D01*
X226582Y70915D01*
Y68249D01*
X225249Y66916D01*
X221250D01*
X223916D02*
X226582Y64250D01*
X234579D02*
X229247D01*
X234579Y69582D01*
Y70915D01*
X233246Y72247D01*
X230580D01*
X229247Y70915D01*
X242577Y64250D02*
X237245D01*
X242577Y69582D01*
Y70915D01*
X241244Y72247D01*
X238578D01*
X237245Y70915D01*
X240503Y92250D02*
X241835D01*
X244501Y94916D01*
X241835Y97582D01*
X240503D01*
X244501Y94916D02*
X248500D01*
Y105579D02*
Y100247D01*
X243168Y105579D01*
X241835D01*
X240503Y104246D01*
Y101580D01*
X241835Y100247D01*
X140500Y154997D02*
Y148333D01*
X141833Y147000D01*
X144499D01*
X145832Y148333D01*
Y154997D01*
X152496Y147000D02*
Y154997D01*
X148497Y150999D01*
X153829D01*
X47500Y19997D02*
X52832D01*
X50166D01*
Y12000D01*
X55497Y19997D02*
Y14666D01*
X58163Y12000D01*
X60829Y14666D01*
Y19997D01*
X68826Y18664D02*
X67494Y19997D01*
X64828D01*
X63495Y18664D01*
Y17332D01*
X64828Y15999D01*
X67494D01*
X68826Y14666D01*
Y13333D01*
X67494Y12000D01*
X64828D01*
X63495Y13333D01*
X71492Y12000D02*
X74158D01*
X72825D01*
Y19997D01*
X71492Y18664D01*
X186750Y37750D02*
X178753D01*
Y41749D01*
X180086Y43082D01*
X182751D01*
X184084Y41749D01*
Y37750D01*
Y40416D02*
X186750Y43082D01*
Y51079D02*
Y45747D01*
X181418Y51079D01*
X180086D01*
X178753Y49746D01*
Y47080D01*
X180086Y45747D01*
X186750Y53745D02*
Y56411D01*
Y55078D01*
X178753D01*
X180086Y53745D01*
X287000Y61750D02*
Y69747D01*
X290999D01*
X292332Y68415D01*
Y65749D01*
X290999Y64416D01*
X287000D01*
X289666D02*
X292332Y61750D01*
X294997D02*
X297663D01*
X296330D01*
Y69747D01*
X294997Y68415D01*
X306994Y69747D02*
X304328Y68415D01*
X301662Y65749D01*
Y63083D01*
X302995Y61750D01*
X305661D01*
X306994Y63083D01*
Y64416D01*
X305661Y65749D01*
X301662D01*
X108250Y129250D02*
X116247D01*
Y125251D01*
X114915Y123918D01*
X112249D01*
X110916Y125251D01*
Y129250D01*
Y126584D02*
X108250Y123918D01*
Y121253D02*
Y118587D01*
Y119920D01*
X116247D01*
X114915Y121253D01*
X116247Y114588D02*
Y109256D01*
X114915D01*
X109583Y114588D01*
X108250D01*
X116500Y138250D02*
Y146247D01*
X120499D01*
X121832Y144915D01*
Y142249D01*
X120499Y140916D01*
X116500D01*
X119166D02*
X121832Y138250D01*
X124497D02*
X127163D01*
X125830D01*
Y146247D01*
X124497Y144915D01*
X131162D02*
X132495Y146247D01*
X135161D01*
X136494Y144915D01*
Y143582D01*
X135161Y142249D01*
X136494Y140916D01*
Y139583D01*
X135161Y138250D01*
X132495D01*
X131162Y139583D01*
Y140916D01*
X132495Y142249D01*
X131162Y143582D01*
Y144915D01*
X132495Y142249D02*
X135161D01*
X113750Y94250D02*
Y102247D01*
X117749D01*
X119082Y100914D01*
Y98249D01*
X117749Y96916D01*
X113750D01*
X116416D02*
X119082Y94250D01*
X127079D02*
X121747D01*
X127079Y99582D01*
Y100914D01*
X125746Y102247D01*
X123080D01*
X121747Y100914D01*
X129745D02*
X131078Y102247D01*
X133743D01*
X135076Y100914D01*
Y95583D01*
X133743Y94250D01*
X131078D01*
X129745Y95583D01*
Y100914D01*
X287250Y72000D02*
Y79997D01*
X291249D01*
X292582Y78664D01*
Y75999D01*
X291249Y74666D01*
X287250D01*
X289916D02*
X292582Y72000D01*
X295247D02*
X297913D01*
X296580D01*
Y79997D01*
X295247Y78664D01*
X301912Y73333D02*
X303245Y72000D01*
X305911D01*
X307244Y73333D01*
Y78664D01*
X305911Y79997D01*
X303245D01*
X301912Y78664D01*
Y77332D01*
X303245Y75999D01*
X307244D01*
X102750Y33500D02*
Y41497D01*
X106749D01*
X108082Y40164D01*
Y37499D01*
X106749Y36166D01*
X102750D01*
X105416D02*
X108082Y33500D01*
X116079D02*
X110747D01*
X116079Y38832D01*
Y40164D01*
X114746Y41497D01*
X112080D01*
X110747Y40164D01*
X118745D02*
X120078Y41497D01*
X122744D01*
X124076Y40164D01*
Y38832D01*
X122744Y37499D01*
X124076Y36166D01*
Y34833D01*
X122744Y33500D01*
X120078D01*
X118745Y34833D01*
Y36166D01*
X120078Y37499D01*
X118745Y38832D01*
Y40164D01*
X120078Y37499D02*
X122744D01*
X102250Y21000D02*
Y28997D01*
X106249D01*
X107582Y27664D01*
Y24999D01*
X106249Y23666D01*
X102250D01*
X104916D02*
X107582Y21000D01*
X115579D02*
X110247D01*
X115579Y26332D01*
Y27664D01*
X114246Y28997D01*
X111580D01*
X110247Y27664D01*
X118245Y28997D02*
X123576D01*
Y27664D01*
X118245Y22333D01*
Y21000D01*
X22000Y44500D02*
Y52497D01*
X25999D01*
X27332Y51164D01*
Y48499D01*
X25999Y47166D01*
X22000D01*
X24666D02*
X27332Y44500D01*
X29997Y51164D02*
X31330Y52497D01*
X33996D01*
X35329Y51164D01*
Y49832D01*
X33996Y48499D01*
X32663D01*
X33996D01*
X35329Y47166D01*
Y45833D01*
X33996Y44500D01*
X31330D01*
X29997Y45833D01*
X37995Y51164D02*
X39328Y52497D01*
X41994D01*
X43327Y51164D01*
Y45833D01*
X41994Y44500D01*
X39328D01*
X37995Y45833D01*
Y51164D01*
X238750Y149000D02*
X230753D01*
Y152999D01*
X232085Y154332D01*
X234751D01*
X236084Y152999D01*
Y149000D01*
Y151666D02*
X238750Y154332D01*
Y162329D02*
Y156997D01*
X233418Y162329D01*
X232085D01*
X230753Y160996D01*
Y158330D01*
X232085Y156997D01*
X230753Y170326D02*
X232085Y167661D01*
X234751Y164995D01*
X237417D01*
X238750Y166328D01*
Y168994D01*
X237417Y170326D01*
X236084D01*
X234751Y168994D01*
Y164995D01*
X259500Y155000D02*
X251503D01*
Y158999D01*
X252836Y160332D01*
X255501D01*
X256834Y158999D01*
Y155000D01*
Y157666D02*
X259500Y160332D01*
Y168329D02*
Y162997D01*
X254168Y168329D01*
X252836D01*
X251503Y166996D01*
Y164330D01*
X252836Y162997D01*
X251503Y176326D02*
Y170995D01*
X255501D01*
X254168Y173661D01*
Y174994D01*
X255501Y176326D01*
X258167D01*
X259500Y174994D01*
Y172328D01*
X258167Y170995D01*
X281500Y88500D02*
Y96497D01*
X285499D01*
X286832Y95164D01*
Y92499D01*
X285499Y91166D01*
X281500D01*
X284166D02*
X286832Y88500D01*
X294829D02*
X289497D01*
X294829Y93832D01*
Y95164D01*
X293496Y96497D01*
X290830D01*
X289497Y95164D01*
X301494Y88500D02*
Y96497D01*
X297495Y92499D01*
X302826D01*
X287082Y108914D02*
X285749Y110247D01*
X283083D01*
X281750Y108914D01*
Y103583D01*
X283083Y102250D01*
X285749D01*
X287082Y103583D01*
X289747Y102250D02*
X292413D01*
X291080D01*
Y110247D01*
X289747Y108914D01*
X296412Y102250D02*
X299078D01*
X297745D01*
Y110247D01*
X296412Y108914D01*
X121832Y74665D02*
X120499Y75997D01*
X117833D01*
X116500Y74665D01*
Y69333D01*
X117833Y68000D01*
X120499D01*
X121832Y69333D01*
X124497Y68000D02*
X127163D01*
X125830D01*
Y75997D01*
X124497Y74665D01*
X136494Y75997D02*
X131162D01*
Y71999D01*
X133828Y73332D01*
X135161D01*
X136494Y71999D01*
Y69333D01*
X135161Y68000D01*
X132495D01*
X131162Y69333D01*
X123082Y170165D02*
X121749Y171497D01*
X119083D01*
X117750Y170165D01*
Y164833D01*
X119083Y163500D01*
X121749D01*
X123082Y164833D01*
X125747Y163500D02*
X128413D01*
X127080D01*
Y171497D01*
X125747Y170165D01*
X136411Y163500D02*
Y171497D01*
X132412Y167499D01*
X137744D01*
X202836Y42582D02*
X201503Y41249D01*
Y38583D01*
X202836Y37250D01*
X208167D01*
X209500Y38583D01*
Y41249D01*
X208167Y42582D01*
X209500Y45247D02*
Y47913D01*
Y46580D01*
X201503D01*
X202836Y45247D01*
Y51912D02*
X201503Y53245D01*
Y55911D01*
X202836Y57243D01*
X204168D01*
X205501Y55911D01*
Y54578D01*
Y55911D01*
X206834Y57243D01*
X208167D01*
X209500Y55911D01*
Y53245D01*
X208167Y51912D01*
X269332Y58664D02*
X267999Y59997D01*
X265333D01*
X264000Y58664D01*
Y53333D01*
X265333Y52000D01*
X267999D01*
X269332Y53333D01*
X271997Y52000D02*
X274663D01*
X273330D01*
Y59997D01*
X271997Y58664D01*
X283994Y52000D02*
X278662D01*
X283994Y57332D01*
Y58664D01*
X282661Y59997D01*
X279995D01*
X278662Y58664D01*
X20750Y205500D02*
Y213497D01*
X24749D01*
X26082Y212164D01*
Y209499D01*
X24749Y208166D01*
X20750D01*
X23416D02*
X26082Y205500D01*
X28747D02*
X31413D01*
X30080D01*
Y213497D01*
X28747Y212164D01*
X35412Y205500D02*
X38078D01*
X36745D01*
Y213497D01*
X35412Y212164D01*
X107753Y221500D02*
X109086D01*
X111751Y224166D01*
X109086Y226832D01*
X107753D01*
X111751Y224166D02*
X115750D01*
Y229497D02*
Y232163D01*
Y230830D01*
X107753D01*
X109086Y229497D01*
X68000Y240247D02*
Y233583D01*
X69333Y232250D01*
X71999D01*
X73332Y233583D01*
Y240247D01*
X75997Y238915D02*
X77330Y240247D01*
X79996D01*
X81329Y238915D01*
Y237582D01*
X79996Y236249D01*
X78663D01*
X79996D01*
X81329Y234916D01*
Y233583D01*
X79996Y232250D01*
X77330D01*
X75997Y233583D01*
X249250Y222497D02*
Y215833D01*
X250583Y214500D01*
X253249D01*
X254582Y215833D01*
Y222497D01*
X257247Y214500D02*
X259913D01*
X258580D01*
Y222497D01*
X257247Y221164D01*
X105750Y198000D02*
Y205997D01*
X109749D01*
X111082Y204664D01*
Y201999D01*
X109749Y200666D01*
X105750D01*
X108416D02*
X111082Y198000D01*
X113747Y205997D02*
X119079D01*
Y204664D01*
X113747Y199333D01*
Y198000D01*
X143750Y258750D02*
Y266747D01*
X147749D01*
X149082Y265415D01*
Y262749D01*
X147749Y261416D01*
X143750D01*
X146416D02*
X149082Y258750D01*
X157079Y266747D02*
X154413Y265415D01*
X151747Y262749D01*
Y260083D01*
X153080Y258750D01*
X155746D01*
X157079Y260083D01*
Y261416D01*
X155746Y262749D01*
X151747D01*
X305000Y217750D02*
Y225747D01*
X308999D01*
X310332Y224415D01*
Y221749D01*
X308999Y220416D01*
X305000D01*
X307666D02*
X310332Y217750D01*
X318329Y225747D02*
X312997D01*
Y221749D01*
X315663Y223082D01*
X316996D01*
X318329Y221749D01*
Y219083D01*
X316996Y217750D01*
X314330D01*
X312997Y219083D01*
X16082Y187247D02*
X13416D01*
X14749D01*
Y180583D01*
X13416Y179250D01*
X12083D01*
X10750Y180583D01*
X18747Y179250D02*
X21413D01*
X20080D01*
Y187247D01*
X18747Y185914D01*
X185000Y258747D02*
Y250750D01*
X188999D01*
X190332Y252083D01*
Y257414D01*
X188999Y258747D01*
X185000D01*
X192997D02*
Y250750D01*
X196996D01*
X198329Y252083D01*
Y257414D01*
X196996Y258747D01*
X192997D01*
X200995Y250750D02*
X203661D01*
X202328D01*
Y258747D01*
X200995Y257414D01*
X435832Y208414D02*
X434499Y209747D01*
X431833D01*
X430500Y208414D01*
Y203083D01*
X431833Y201750D01*
X434499D01*
X435832Y203083D01*
X438497Y201750D02*
Y207082D01*
X441163Y209747D01*
X443829Y207082D01*
Y201750D01*
Y205749D01*
X438497D01*
X446495Y201750D02*
Y209747D01*
X451827Y201750D01*
Y209747D01*
X454492Y208414D02*
X455825Y209747D01*
X458491D01*
X459824Y208414D01*
Y207082D01*
X458491Y205749D01*
X457158D01*
X458491D01*
X459824Y204416D01*
Y203083D01*
X458491Y201750D01*
X455825D01*
X454492Y203083D01*
X419582Y272915D02*
X418249Y274247D01*
X415583D01*
X414250Y272915D01*
Y267583D01*
X415583Y266250D01*
X418249D01*
X419582Y267583D01*
X422247Y266250D02*
Y271582D01*
X424913Y274247D01*
X427579Y271582D01*
Y266250D01*
Y270249D01*
X422247D01*
X430245Y266250D02*
Y274247D01*
X435576Y266250D01*
Y274247D01*
X443574Y266250D02*
X438242D01*
X443574Y271582D01*
Y272915D01*
X442241Y274247D01*
X439575D01*
X438242Y272915D01*
X49585Y238832D02*
X48253Y237499D01*
Y234833D01*
X49585Y233500D01*
X54917D01*
X56250Y234833D01*
Y237499D01*
X54917Y238832D01*
X56250Y241497D02*
Y244163D01*
Y242830D01*
X48253D01*
X49585Y241497D01*
Y248162D02*
X48253Y249495D01*
Y252161D01*
X49585Y253493D01*
X54917D01*
X56250Y252161D01*
Y249495D01*
X54917Y248162D01*
X49585D01*
X49335Y184582D02*
X48003Y183249D01*
Y180583D01*
X49335Y179250D01*
X54667D01*
X56000Y180583D01*
Y183249D01*
X54667Y184582D01*
Y187247D02*
X56000Y188580D01*
Y191246D01*
X54667Y192579D01*
X49335D01*
X48003Y191246D01*
Y188580D01*
X49335Y187247D01*
X50668D01*
X52001Y188580D01*
Y192579D01*
X230332Y224914D02*
X228999Y226247D01*
X226333D01*
X225000Y224914D01*
Y219583D01*
X226333Y218250D01*
X228999D01*
X230332Y219583D01*
X238329Y226247D02*
X235663Y224914D01*
X232997Y222249D01*
Y219583D01*
X234330Y218250D01*
X236996D01*
X238329Y219583D01*
Y220916D01*
X236996Y222249D01*
X232997D01*
X110332Y193165D02*
X108999Y194497D01*
X106333D01*
X105000Y193165D01*
Y187833D01*
X106333Y186500D01*
X108999D01*
X110332Y187833D01*
X118329Y194497D02*
X112997D01*
Y190499D01*
X115663Y191832D01*
X116996D01*
X118329Y190499D01*
Y187833D01*
X116996Y186500D01*
X114330D01*
X112997Y187833D01*
X110332Y248664D02*
X108999Y249997D01*
X106333D01*
X105000Y248664D01*
Y243333D01*
X106333Y242000D01*
X108999D01*
X110332Y243333D01*
X116996Y242000D02*
Y249997D01*
X112997Y245999D01*
X118329D01*
X230332Y200165D02*
X228999Y201497D01*
X226333D01*
X225000Y200165D01*
Y194833D01*
X226333Y193500D01*
X228999D01*
X230332Y194833D01*
X232997Y200165D02*
X234330Y201497D01*
X236996D01*
X238329Y200165D01*
Y198832D01*
X236996Y197499D01*
X235663D01*
X236996D01*
X238329Y196166D01*
Y194833D01*
X236996Y193500D01*
X234330D01*
X232997Y194833D01*
X272082Y184165D02*
X270749Y185497D01*
X268083D01*
X266750Y184165D01*
Y178833D01*
X268083Y177500D01*
X270749D01*
X272082Y178833D01*
X280079Y177500D02*
X274747D01*
X280079Y182832D01*
Y184165D01*
X278746Y185497D01*
X276080D01*
X274747Y184165D01*
X244335Y197582D02*
X243003Y196249D01*
Y193583D01*
X244335Y192250D01*
X249667D01*
X251000Y193583D01*
Y196249D01*
X249667Y197582D01*
X251000Y200247D02*
Y202913D01*
Y201580D01*
X243003D01*
X244335Y200247D01*
M02*
