G04*
G04 #@! TF.GenerationSoftware,Altium Limited,Altium Designer,21.6.1 (37)*
G04*
G04 Layer_Color=32896*
%FSLAX44Y44*%
%MOMM*%
G71*
G04*
G04 #@! TF.SameCoordinates,CFE6EF03-643C-400C-BB7F-AF2D4883FA5C*
G04*
G04*
G04 #@! TF.FilePolarity,Positive*
G04*
G01*
G75*
%ADD10C,0.3000*%
%ADD12C,0.1270*%
%ADD13C,0.2000*%
%ADD16C,0.6000*%
%ADD19C,0.1700*%
G36*
X125534Y163318D02*
X119510D01*
X112871Y181064D01*
X118474D01*
X119348Y178150D01*
X125566D01*
X126441Y181064D01*
X132205D01*
X125534Y163318D01*
D02*
G37*
G36*
X276966Y175948D02*
X276869Y175786D01*
X276772Y175624D01*
X276513Y175235D01*
X276383Y175106D01*
X276286Y174976D01*
X276221Y174879D01*
X276189Y174847D01*
X275994Y174588D01*
X275800Y174393D01*
X275671Y174231D01*
X275541Y174102D01*
X275444Y174005D01*
X275379Y173940D01*
X275314Y173908D01*
X275120Y173778D01*
X274893Y173681D01*
X274440Y173454D01*
X274213Y173389D01*
X274051Y173325D01*
X273922Y173260D01*
X273890D01*
X274310Y173130D01*
X274699Y173033D01*
X275023Y172903D01*
X275314Y172806D01*
X275509Y172709D01*
X275671Y172612D01*
X275768Y172580D01*
X275800Y172547D01*
X276189Y172288D01*
X276545Y171997D01*
X276836Y171705D01*
X277096Y171446D01*
X277290Y171187D01*
X277452Y170993D01*
X277517Y170863D01*
X277549Y170831D01*
X277776Y170410D01*
X277938Y169956D01*
X278035Y169536D01*
X278132Y169147D01*
X278164Y168791D01*
X278197Y168532D01*
Y168337D01*
Y168272D01*
X278164Y167657D01*
X278067Y167107D01*
X277938Y166621D01*
X277776Y166200D01*
X277614Y165844D01*
X277484Y165585D01*
X277387Y165455D01*
X277355Y165390D01*
X277031Y164969D01*
X276675Y164645D01*
X276318Y164354D01*
X275962Y164127D01*
X275671Y163965D01*
X275412Y163868D01*
X275250Y163803D01*
X275185Y163771D01*
X274634Y163609D01*
X274019Y163512D01*
X273371Y163415D01*
X272756Y163382D01*
X272173Y163350D01*
X271946Y163318D01*
X262166D01*
Y181065D01*
X267672D01*
Y173875D01*
X268125D01*
X268416Y173908D01*
X268675Y173940D01*
X268902Y174005D01*
X269097Y174069D01*
X269258Y174167D01*
X269388Y174231D01*
X269453Y174264D01*
X269485Y174296D01*
X269647Y174458D01*
X269841Y174652D01*
X270165Y175106D01*
X270295Y175300D01*
X270392Y175494D01*
X270457Y175624D01*
X270489Y175656D01*
X273436Y181065D01*
X279654D01*
X276966Y175948D01*
D02*
G37*
G36*
X104775Y181324D02*
X105552Y181259D01*
X106232Y181129D01*
X106783Y181000D01*
X107236Y180903D01*
X107592Y180773D01*
X107690Y180741D01*
X107787Y180708D01*
X107819Y180676D01*
X107852D01*
X108402Y180384D01*
X108920Y180061D01*
X109341Y179737D01*
X109730Y179413D01*
X110021Y179089D01*
X110248Y178862D01*
X110410Y178700D01*
X110442Y178636D01*
X110831Y178085D01*
X111123Y177535D01*
X111414Y176984D01*
X111608Y176434D01*
X111803Y175980D01*
X111900Y175592D01*
X111932Y175462D01*
X111965Y175365D01*
X111997Y175300D01*
Y175268D01*
X107204Y173778D01*
X107042Y174393D01*
X106848Y174911D01*
X106653Y175365D01*
X106459Y175721D01*
X106297Y176012D01*
X106135Y176207D01*
X106038Y176336D01*
X106006Y176369D01*
X105682Y176660D01*
X105293Y176887D01*
X104904Y177016D01*
X104516Y177146D01*
X104160Y177211D01*
X103868Y177243D01*
X103609D01*
X103026Y177211D01*
X102540Y177081D01*
X102087Y176919D01*
X101731Y176693D01*
X101472Y176498D01*
X101245Y176336D01*
X101116Y176207D01*
X101083Y176174D01*
X100921Y175948D01*
X100792Y175689D01*
X100565Y175073D01*
X100435Y174393D01*
X100306Y173745D01*
X100241Y173130D01*
Y172839D01*
X100209Y172612D01*
Y172418D01*
Y172256D01*
Y172159D01*
Y172126D01*
X100241Y171284D01*
X100338Y170572D01*
X100435Y169989D01*
X100597Y169503D01*
X100727Y169147D01*
X100824Y168855D01*
X100921Y168726D01*
X100954Y168661D01*
X101148Y168402D01*
X101342Y168143D01*
X101796Y167787D01*
X102281Y167495D01*
X102735Y167333D01*
X103156Y167204D01*
X103512Y167171D01*
X103609Y167139D01*
X104095D01*
X104386Y167204D01*
X104646Y167236D01*
X104872Y167301D01*
X105034Y167366D01*
X105196Y167430D01*
X105261Y167463D01*
X105293Y167495D01*
X105746Y167787D01*
X106103Y168111D01*
X106232Y168240D01*
X106362Y168370D01*
X106394Y168434D01*
X106427Y168467D01*
X106524Y168629D01*
X106621Y168791D01*
X106815Y169179D01*
X106880Y169341D01*
X106945Y169503D01*
X106977Y169600D01*
Y169633D01*
X111835Y168564D01*
X111641Y168046D01*
X111446Y167560D01*
X111220Y167139D01*
X110993Y166718D01*
X110766Y166329D01*
X110507Y166005D01*
X110281Y165682D01*
X110054Y165423D01*
X109827Y165163D01*
X109633Y164969D01*
X109438Y164775D01*
X109277Y164645D01*
X109147Y164516D01*
X109050Y164451D01*
X108985Y164386D01*
X108953D01*
X108564Y164160D01*
X108175Y163933D01*
X107333Y163609D01*
X106459Y163350D01*
X105585Y163188D01*
X105196Y163123D01*
X104840Y163091D01*
X104516Y163058D01*
X104225D01*
X103998Y163026D01*
X103674D01*
X102897Y163058D01*
X102152Y163123D01*
X101472Y163253D01*
X100824Y163382D01*
X100241Y163577D01*
X99691Y163771D01*
X99172Y163998D01*
X98751Y164192D01*
X98330Y164419D01*
X98006Y164645D01*
X97715Y164840D01*
X97456Y165034D01*
X97294Y165163D01*
X97132Y165293D01*
X97067Y165358D01*
X97035Y165390D01*
X96614Y165844D01*
X96258Y166362D01*
X95966Y166880D01*
X95675Y167430D01*
X95448Y168013D01*
X95286Y168564D01*
X95124Y169114D01*
X94995Y169665D01*
X94898Y170183D01*
X94833Y170637D01*
X94768Y171058D01*
X94736Y171446D01*
Y171738D01*
X94703Y171964D01*
Y172094D01*
Y172159D01*
X94768Y173325D01*
X94833Y173875D01*
X94898Y174393D01*
X95027Y174879D01*
X95124Y175332D01*
X95254Y175753D01*
X95383Y176110D01*
X95480Y176466D01*
X95610Y176757D01*
X95740Y177016D01*
X95837Y177211D01*
X95901Y177373D01*
X95966Y177502D01*
X96031Y177567D01*
Y177599D01*
X96549Y178344D01*
X97067Y178960D01*
X97618Y179445D01*
X98104Y179866D01*
X98525Y180158D01*
X98881Y180384D01*
X99010Y180449D01*
X99108Y180514D01*
X99140Y180546D01*
X99172D01*
X99917Y180805D01*
X100695Y181000D01*
X101504Y181162D01*
X102249Y181259D01*
X102605Y181291D01*
X102929Y181324D01*
X103188D01*
X103447Y181356D01*
X103933D01*
X104775Y181324D01*
D02*
G37*
G36*
X197817Y163318D02*
X192635D01*
Y173163D01*
X185899Y163318D01*
X180815D01*
Y181065D01*
X185964D01*
Y171284D01*
X192635Y181065D01*
X197817D01*
Y163318D01*
D02*
G37*
G36*
X150988D02*
X145807D01*
Y173163D01*
X139071Y163318D01*
X133986D01*
Y181064D01*
X139136D01*
Y171284D01*
X145807Y181065D01*
X150988D01*
Y163318D01*
D02*
G37*
G36*
X259154Y177049D02*
X249698D01*
Y173551D01*
X258215D01*
Y169924D01*
X249698D01*
Y167107D01*
X258895D01*
Y163318D01*
X244192D01*
Y181065D01*
X259154D01*
Y177049D01*
D02*
G37*
G36*
X233181Y173810D02*
X240079D01*
Y170216D01*
X233181D01*
Y167139D01*
X241245D01*
Y163318D01*
X227676D01*
Y181065D01*
X233181D01*
Y173810D01*
D02*
G37*
G36*
X216633D02*
X223531D01*
Y170216D01*
X216633D01*
Y167139D01*
X224697D01*
Y163318D01*
X211127D01*
Y181065D01*
X216633D01*
Y173810D01*
D02*
G37*
G36*
X207176Y163318D02*
X201671D01*
Y181065D01*
X207176D01*
Y163318D01*
D02*
G37*
G36*
X171067Y181324D02*
X171877Y181259D01*
X172622Y181129D01*
X173237Y181000D01*
X173496Y180935D01*
X173723Y180870D01*
X173949Y180805D01*
X174111Y180741D01*
X174241Y180708D01*
X174338Y180676D01*
X174370Y180644D01*
X174403D01*
X175018Y180320D01*
X175536Y179996D01*
X175990Y179640D01*
X176378Y179283D01*
X176670Y178960D01*
X176896Y178701D01*
X177026Y178538D01*
X177058Y178474D01*
X177382Y177923D01*
X177609Y177373D01*
X177803Y176822D01*
X177900Y176336D01*
X177965Y175915D01*
X178030Y175592D01*
Y175462D01*
Y175365D01*
Y175332D01*
Y175300D01*
X177997Y174782D01*
X177933Y174264D01*
X177803Y173843D01*
X177674Y173454D01*
X177544Y173130D01*
X177415Y172871D01*
X177350Y172742D01*
X177317Y172677D01*
X177026Y172256D01*
X176670Y171867D01*
X176281Y171543D01*
X175925Y171252D01*
X175569Y171025D01*
X175310Y170863D01*
X175115Y170766D01*
X175083Y170734D01*
X175050D01*
X174727Y170572D01*
X174370Y170442D01*
X173593Y170151D01*
X172719Y169859D01*
X171877Y169633D01*
X171488Y169536D01*
X171099Y169438D01*
X170743Y169341D01*
X170452Y169276D01*
X170225Y169212D01*
X170031Y169179D01*
X169901Y169147D01*
X169869D01*
X169383Y169050D01*
X168995Y168920D01*
X168671Y168823D01*
X168444Y168726D01*
X168250Y168629D01*
X168152Y168564D01*
X168088Y168499D01*
X168055D01*
X167926Y168370D01*
X167829Y168240D01*
X167731Y167981D01*
X167667Y167787D01*
Y167754D01*
Y167722D01*
X167699Y167528D01*
X167731Y167333D01*
X167893Y167010D01*
X168055Y166815D01*
X168088Y166783D01*
X168120Y166750D01*
X168314Y166621D01*
X168541Y166491D01*
X169027Y166394D01*
X169254Y166362D01*
X169415Y166329D01*
X169577D01*
X169998Y166362D01*
X170355Y166427D01*
X170679Y166491D01*
X170938Y166588D01*
X171132Y166718D01*
X171261Y166783D01*
X171359Y166847D01*
X171391Y166880D01*
X171618Y167107D01*
X171812Y167398D01*
X171942Y167690D01*
X172071Y167949D01*
X172168Y168208D01*
X172233Y168434D01*
X172265Y168564D01*
Y168629D01*
X177447Y168337D01*
X177350Y167852D01*
X177253Y167366D01*
X177123Y166945D01*
X176961Y166556D01*
X176799Y166200D01*
X176605Y165844D01*
X176443Y165552D01*
X176249Y165293D01*
X175893Y164872D01*
X175601Y164548D01*
X175374Y164386D01*
X175342Y164321D01*
X175310D01*
X174953Y164095D01*
X174565Y163901D01*
X173755Y163577D01*
X172881Y163350D01*
X172039Y163188D01*
X171650Y163123D01*
X171294Y163091D01*
X170970Y163058D01*
X170679D01*
X170452Y163026D01*
X170128D01*
X169156Y163058D01*
X168282Y163123D01*
X167537Y163253D01*
X167181Y163318D01*
X166889Y163382D01*
X166630Y163447D01*
X166404Y163512D01*
X166209Y163577D01*
X166047Y163641D01*
X165918Y163674D01*
X165821Y163706D01*
X165788Y163739D01*
X165756D01*
X165205Y164030D01*
X164720Y164321D01*
X164299Y164645D01*
X163975Y164937D01*
X163716Y165228D01*
X163521Y165455D01*
X163392Y165585D01*
X163360Y165649D01*
X163100Y166103D01*
X162906Y166556D01*
X162777Y167010D01*
X162679Y167398D01*
X162615Y167722D01*
X162582Y168013D01*
Y168175D01*
Y168208D01*
Y168240D01*
X162615Y168629D01*
X162647Y168985D01*
X162809Y169633D01*
X163068Y170216D01*
X163360Y170701D01*
X163619Y171122D01*
X163878Y171414D01*
X164039Y171576D01*
X164104Y171608D01*
Y171640D01*
X164428Y171900D01*
X164784Y172126D01*
X165562Y172547D01*
X166404Y172903D01*
X167278Y173227D01*
X167667Y173357D01*
X168023Y173454D01*
X168379Y173551D01*
X168671Y173648D01*
X168897Y173681D01*
X169092Y173746D01*
X169221Y173778D01*
X169254D01*
X169642Y173875D01*
X169998Y173972D01*
X170322Y174037D01*
X170614Y174134D01*
X171099Y174328D01*
X171488Y174490D01*
X171747Y174620D01*
X171942Y174717D01*
X172039Y174782D01*
X172071Y174814D01*
X172265Y175009D01*
X172427Y175235D01*
X172524Y175430D01*
X172622Y175624D01*
X172654Y175786D01*
X172686Y175915D01*
Y176012D01*
Y176045D01*
X172654Y176304D01*
X172589Y176563D01*
X172492Y176790D01*
X172362Y176984D01*
X172233Y177114D01*
X172136Y177243D01*
X172071Y177308D01*
X172039Y177340D01*
X171780Y177502D01*
X171488Y177632D01*
X171197Y177729D01*
X170905Y177794D01*
X170614Y177826D01*
X170419Y177858D01*
X170225D01*
X169674Y177826D01*
X169189Y177696D01*
X168768Y177535D01*
X168412Y177308D01*
X168152Y177114D01*
X167958Y176952D01*
X167829Y176822D01*
X167796Y176790D01*
X167634Y176531D01*
X167472Y176207D01*
X167278Y175559D01*
X167181Y175300D01*
X167148Y175073D01*
X167116Y174911D01*
Y174847D01*
X161902Y175203D01*
X161967Y175689D01*
X162064Y176174D01*
X162291Y177016D01*
X162615Y177794D01*
X162971Y178441D01*
X163133Y178701D01*
X163295Y178960D01*
X163457Y179154D01*
X163586Y179316D01*
X163683Y179445D01*
X163780Y179543D01*
X163813Y179607D01*
X163845Y179640D01*
X164202Y179931D01*
X164622Y180190D01*
X165076Y180449D01*
X165562Y180644D01*
X166598Y180935D01*
X167634Y181129D01*
X168152Y181227D01*
X168606Y181259D01*
X169027Y181291D01*
X169383Y181324D01*
X169707Y181356D01*
X170128D01*
X171067Y181324D01*
D02*
G37*
G36*
X138067Y56253D02*
X132043D01*
X125404Y74000D01*
X131007D01*
X131881Y71085D01*
X138099D01*
X138974Y74000D01*
X144738D01*
X138067Y56253D01*
D02*
G37*
G36*
X47130D02*
X41106D01*
X34467Y74000D01*
X40070D01*
X40944Y71085D01*
X47162D01*
X48036Y74000D01*
X53801D01*
X47130Y56253D01*
D02*
G37*
G36*
X237132Y68883D02*
X237035Y68721D01*
X236938Y68559D01*
X236679Y68170D01*
X236550Y68041D01*
X236452Y67911D01*
X236388Y67814D01*
X236355Y67782D01*
X236161Y67523D01*
X235967Y67328D01*
X235837Y67167D01*
X235708Y67037D01*
X235610Y66940D01*
X235546Y66875D01*
X235481Y66843D01*
X235287Y66713D01*
X235060Y66616D01*
X234606Y66389D01*
X234380Y66325D01*
X234218Y66260D01*
X234088Y66195D01*
X234056D01*
X234477Y66065D01*
X234865Y65968D01*
X235189Y65839D01*
X235481Y65742D01*
X235675Y65644D01*
X235837Y65547D01*
X235934Y65515D01*
X235967Y65483D01*
X236355Y65223D01*
X236712Y64932D01*
X237003Y64640D01*
X237262Y64381D01*
X237456Y64122D01*
X237618Y63928D01*
X237683Y63798D01*
X237715Y63766D01*
X237942Y63345D01*
X238104Y62892D01*
X238201Y62471D01*
X238298Y62082D01*
X238331Y61726D01*
X238363Y61467D01*
Y61272D01*
Y61208D01*
X238331Y60592D01*
X238234Y60042D01*
X238104Y59556D01*
X237942Y59135D01*
X237780Y58779D01*
X237651Y58520D01*
X237554Y58390D01*
X237521Y58325D01*
X237197Y57904D01*
X236841Y57581D01*
X236485Y57289D01*
X236129Y57062D01*
X235837Y56901D01*
X235578Y56803D01*
X235416Y56739D01*
X235351Y56706D01*
X234801Y56544D01*
X234186Y56447D01*
X233538Y56350D01*
X232922Y56318D01*
X232339Y56285D01*
X232113Y56253D01*
X222332D01*
Y74000D01*
X227838D01*
Y66810D01*
X228291D01*
X228583Y66843D01*
X228842Y66875D01*
X229069Y66940D01*
X229263Y67005D01*
X229425Y67102D01*
X229554Y67167D01*
X229619Y67199D01*
X229652Y67231D01*
X229813Y67393D01*
X230008Y67587D01*
X230332Y68041D01*
X230461Y68235D01*
X230558Y68429D01*
X230623Y68559D01*
X230655Y68591D01*
X233603Y74000D01*
X239820D01*
X237132Y68883D01*
D02*
G37*
G36*
X86898Y62956D02*
X93408Y56253D01*
X86089D01*
X80357Y62989D01*
Y56253D01*
X74884D01*
Y74000D01*
X80357D01*
Y69693D01*
X83174Y66746D01*
X86931Y74000D01*
X93699D01*
X86898Y62956D01*
D02*
G37*
G36*
X186223Y74259D02*
X187001Y74194D01*
X187681Y74064D01*
X188231Y73935D01*
X188685Y73838D01*
X189041Y73708D01*
X189138Y73676D01*
X189235Y73643D01*
X189268Y73611D01*
X189300D01*
X189850Y73320D01*
X190369Y72996D01*
X190790Y72672D01*
X191178Y72348D01*
X191470Y72024D01*
X191696Y71798D01*
X191858Y71636D01*
X191891Y71571D01*
X192279Y71020D01*
X192571Y70470D01*
X192862Y69919D01*
X193057Y69369D01*
X193251Y68915D01*
X193348Y68527D01*
X193380Y68397D01*
X193413Y68300D01*
X193445Y68235D01*
Y68203D01*
X188652Y66713D01*
X188490Y67328D01*
X188296Y67847D01*
X188102Y68300D01*
X187907Y68656D01*
X187745Y68948D01*
X187583Y69142D01*
X187486Y69271D01*
X187454Y69304D01*
X187130Y69595D01*
X186741Y69822D01*
X186353Y69952D01*
X185964Y70081D01*
X185608Y70146D01*
X185317Y70178D01*
X185057D01*
X184475Y70146D01*
X183989Y70016D01*
X183535Y69854D01*
X183179Y69628D01*
X182920Y69433D01*
X182693Y69271D01*
X182564Y69142D01*
X182531Y69110D01*
X182369Y68883D01*
X182240Y68624D01*
X182013Y68008D01*
X181884Y67328D01*
X181754Y66681D01*
X181689Y66065D01*
Y65774D01*
X181657Y65547D01*
Y65353D01*
Y65191D01*
Y65094D01*
Y65061D01*
X181689Y64219D01*
X181786Y63507D01*
X181884Y62924D01*
X182046Y62438D01*
X182175Y62082D01*
X182272Y61791D01*
X182369Y61661D01*
X182402Y61596D01*
X182596Y61337D01*
X182791Y61078D01*
X183244Y60722D01*
X183730Y60430D01*
X184183Y60269D01*
X184604Y60139D01*
X184960Y60107D01*
X185057Y60074D01*
X185543D01*
X185835Y60139D01*
X186094Y60171D01*
X186320Y60236D01*
X186482Y60301D01*
X186644Y60366D01*
X186709Y60398D01*
X186741Y60430D01*
X187195Y60722D01*
X187551Y61046D01*
X187681Y61175D01*
X187810Y61305D01*
X187843Y61370D01*
X187875Y61402D01*
X187972Y61564D01*
X188069Y61726D01*
X188263Y62115D01*
X188328Y62276D01*
X188393Y62438D01*
X188426Y62536D01*
Y62568D01*
X193283Y61499D01*
X193089Y60981D01*
X192895Y60495D01*
X192668Y60074D01*
X192441Y59653D01*
X192215Y59265D01*
X191955Y58941D01*
X191729Y58617D01*
X191502Y58358D01*
X191275Y58099D01*
X191081Y57904D01*
X190887Y57710D01*
X190725Y57581D01*
X190595Y57451D01*
X190498Y57386D01*
X190433Y57322D01*
X190401D01*
X190012Y57095D01*
X189624Y56868D01*
X188782Y56544D01*
X187907Y56285D01*
X187033Y56123D01*
X186644Y56059D01*
X186288Y56026D01*
X185964Y55994D01*
X185673D01*
X185446Y55961D01*
X185122D01*
X184345Y55994D01*
X183600Y56059D01*
X182920Y56188D01*
X182272Y56318D01*
X181689Y56512D01*
X181139Y56706D01*
X180621Y56933D01*
X180200Y57127D01*
X179779Y57354D01*
X179455Y57581D01*
X179163Y57775D01*
X178904Y57969D01*
X178742Y58099D01*
X178580Y58228D01*
X178516Y58293D01*
X178483Y58325D01*
X178062Y58779D01*
X177706Y59297D01*
X177415Y59815D01*
X177123Y60366D01*
X176896Y60949D01*
X176735Y61499D01*
X176572Y62050D01*
X176443Y62600D01*
X176346Y63118D01*
X176281Y63572D01*
X176216Y63993D01*
X176184Y64381D01*
Y64673D01*
X176152Y64900D01*
Y65029D01*
Y65094D01*
X176216Y66260D01*
X176281Y66810D01*
X176346Y67328D01*
X176475Y67814D01*
X176572Y68268D01*
X176702Y68689D01*
X176832Y69045D01*
X176929Y69401D01*
X177058Y69693D01*
X177188Y69952D01*
X177285Y70146D01*
X177350Y70308D01*
X177415Y70437D01*
X177479Y70502D01*
Y70535D01*
X177997Y71279D01*
X178516Y71895D01*
X179066Y72380D01*
X179552Y72801D01*
X179973Y73093D01*
X180329Y73320D01*
X180459Y73384D01*
X180556Y73449D01*
X180588Y73482D01*
X180621D01*
X181366Y73741D01*
X182143Y73935D01*
X182952Y74097D01*
X183697Y74194D01*
X184053Y74226D01*
X184377Y74259D01*
X184636D01*
X184895Y74291D01*
X185381D01*
X186223Y74259D01*
D02*
G37*
G36*
X64974Y74259D02*
X65751Y74194D01*
X66431Y74064D01*
X66982Y73935D01*
X67435Y73838D01*
X67791Y73708D01*
X67888Y73676D01*
X67986Y73643D01*
X68018Y73611D01*
X68050D01*
X68601Y73320D01*
X69119Y72996D01*
X69540Y72672D01*
X69929Y72348D01*
X70220Y72024D01*
X70447Y71797D01*
X70609Y71636D01*
X70641Y71571D01*
X71030Y71020D01*
X71321Y70470D01*
X71613Y69919D01*
X71807Y69369D01*
X72001Y68915D01*
X72098Y68527D01*
X72131Y68397D01*
X72163Y68300D01*
X72196Y68235D01*
Y68203D01*
X67403Y66713D01*
X67241Y67328D01*
X67046Y67847D01*
X66852Y68300D01*
X66658Y68656D01*
X66496Y68948D01*
X66334Y69142D01*
X66237Y69271D01*
X66205Y69304D01*
X65881Y69595D01*
X65492Y69822D01*
X65103Y69952D01*
X64715Y70081D01*
X64359Y70146D01*
X64067Y70178D01*
X63808D01*
X63225Y70146D01*
X62739Y70016D01*
X62286Y69854D01*
X61930Y69628D01*
X61671Y69433D01*
X61444Y69271D01*
X61314Y69142D01*
X61282Y69110D01*
X61120Y68883D01*
X60991Y68624D01*
X60764Y68008D01*
X60634Y67328D01*
X60505Y66681D01*
X60440Y66065D01*
Y65774D01*
X60408Y65547D01*
Y65353D01*
Y65191D01*
Y65094D01*
Y65061D01*
X60440Y64219D01*
X60537Y63507D01*
X60634Y62924D01*
X60796Y62438D01*
X60926Y62082D01*
X61023Y61791D01*
X61120Y61661D01*
X61152Y61596D01*
X61347Y61337D01*
X61541Y61078D01*
X61994Y60722D01*
X62480Y60430D01*
X62934Y60269D01*
X63355Y60139D01*
X63711Y60107D01*
X63808Y60074D01*
X64294D01*
X64585Y60139D01*
X64844Y60171D01*
X65071Y60236D01*
X65233Y60301D01*
X65395Y60366D01*
X65460Y60398D01*
X65492Y60430D01*
X65945Y60722D01*
X66302Y61046D01*
X66431Y61175D01*
X66561Y61305D01*
X66593Y61370D01*
X66625Y61402D01*
X66723Y61564D01*
X66820Y61726D01*
X67014Y62114D01*
X67079Y62276D01*
X67144Y62438D01*
X67176Y62535D01*
Y62568D01*
X72034Y61499D01*
X71839Y60981D01*
X71645Y60495D01*
X71418Y60074D01*
X71192Y59653D01*
X70965Y59264D01*
X70706Y58941D01*
X70479Y58617D01*
X70253Y58358D01*
X70026Y58099D01*
X69832Y57904D01*
X69637Y57710D01*
X69475Y57580D01*
X69346Y57451D01*
X69249Y57386D01*
X69184Y57321D01*
X69152D01*
X68763Y57095D01*
X68374Y56868D01*
X67532Y56544D01*
X66658Y56285D01*
X65784Y56123D01*
X65395Y56058D01*
X65039Y56026D01*
X64715Y55994D01*
X64423D01*
X64197Y55961D01*
X63873D01*
X63095Y55994D01*
X62351Y56058D01*
X61671Y56188D01*
X61023Y56318D01*
X60440Y56512D01*
X59889Y56706D01*
X59371Y56933D01*
X58950Y57127D01*
X58529Y57354D01*
X58205Y57580D01*
X57914Y57775D01*
X57655Y57969D01*
X57493Y58099D01*
X57331Y58228D01*
X57266Y58293D01*
X57234Y58325D01*
X56813Y58779D01*
X56457Y59297D01*
X56165Y59815D01*
X55874Y60366D01*
X55647Y60949D01*
X55485Y61499D01*
X55323Y62050D01*
X55194Y62600D01*
X55096Y63118D01*
X55032Y63572D01*
X54967Y63993D01*
X54935Y64381D01*
Y64673D01*
X54902Y64900D01*
Y65029D01*
Y65094D01*
X54967Y66260D01*
X55032Y66810D01*
X55096Y67328D01*
X55226Y67814D01*
X55323Y68268D01*
X55453Y68689D01*
X55582Y69045D01*
X55679Y69401D01*
X55809Y69693D01*
X55938Y69952D01*
X56036Y70146D01*
X56100Y70308D01*
X56165Y70437D01*
X56230Y70502D01*
Y70535D01*
X56748Y71279D01*
X57266Y71895D01*
X57817Y72380D01*
X58302Y72801D01*
X58724Y73093D01*
X59080Y73320D01*
X59209Y73384D01*
X59307Y73449D01*
X59339Y73482D01*
X59371D01*
X60116Y73741D01*
X60893Y73935D01*
X61703Y74097D01*
X62448Y74194D01*
X62804Y74226D01*
X63128Y74259D01*
X63387D01*
X63646Y74291D01*
X64132D01*
X64974Y74259D01*
D02*
G37*
G36*
X271817Y74259D02*
X272659Y74194D01*
X273436Y74097D01*
X274084Y74000D01*
X274343Y73935D01*
X274602Y73903D01*
X274796Y73838D01*
X274991Y73805D01*
X275120Y73773D01*
X275217Y73741D01*
X275282Y73708D01*
X275314D01*
X276027Y73449D01*
X276772Y73093D01*
X277517Y72704D01*
X278197Y72348D01*
X278780Y71992D01*
X279039Y71830D01*
X279233Y71700D01*
X279427Y71603D01*
X279557Y71506D01*
X279622Y71474D01*
X279654Y71441D01*
Y63863D01*
X271169D01*
Y67555D01*
X274861D01*
Y69239D01*
X274472Y69466D01*
X274084Y69660D01*
X273760Y69822D01*
X273468Y69919D01*
X273242Y70016D01*
X273080Y70081D01*
X272950Y70146D01*
X272918D01*
X272303Y70308D01*
X272011Y70340D01*
X271720Y70373D01*
X271493Y70405D01*
X271169D01*
X270489Y70340D01*
X269874Y70211D01*
X269356Y70016D01*
X268935Y69790D01*
X268578Y69563D01*
X268319Y69369D01*
X268190Y69239D01*
X268125Y69174D01*
X267931Y68915D01*
X267769Y68656D01*
X267510Y68008D01*
X267315Y67328D01*
X267186Y66648D01*
X267121Y66033D01*
X267089Y65774D01*
Y65515D01*
X267056Y65321D01*
Y65191D01*
Y65094D01*
Y65061D01*
Y64576D01*
X267089Y64122D01*
X267153Y63701D01*
X267218Y63313D01*
X267315Y62957D01*
X267380Y62633D01*
X267607Y62082D01*
X267801Y61661D01*
X267963Y61337D01*
X268093Y61175D01*
X268125Y61111D01*
X268546Y60690D01*
X269032Y60366D01*
X269517Y60139D01*
X269971Y60009D01*
X270392Y59912D01*
X270716Y59880D01*
X270845Y59847D01*
X271007D01*
X271461Y59880D01*
X271849Y59945D01*
X272173Y60009D01*
X272465Y60107D01*
X272691Y60236D01*
X272885Y60301D01*
X272983Y60366D01*
X273015Y60398D01*
X273274Y60625D01*
X273533Y60851D01*
X273727Y61111D01*
X273890Y61337D01*
X273987Y61564D01*
X274084Y61758D01*
X274149Y61888D01*
Y61920D01*
X279427Y60981D01*
X279233Y60366D01*
X279006Y59815D01*
X278747Y59329D01*
X278521Y58941D01*
X278294Y58617D01*
X278132Y58358D01*
X278002Y58228D01*
X277970Y58163D01*
X277581Y57775D01*
X277193Y57419D01*
X276772Y57127D01*
X276383Y56901D01*
X276059Y56739D01*
X275800Y56609D01*
X275606Y56544D01*
X275574Y56512D01*
X275541D01*
X275250Y56415D01*
X274926Y56318D01*
X274246Y56188D01*
X273501Y56091D01*
X272788Y56026D01*
X272141Y55994D01*
X271882Y55961D01*
X271137D01*
X270036Y55994D01*
X269550Y56026D01*
X269064Y56091D01*
X268643Y56156D01*
X268255Y56253D01*
X267866Y56318D01*
X267542Y56382D01*
X267250Y56480D01*
X266992Y56544D01*
X266765Y56641D01*
X266570Y56706D01*
X266441Y56739D01*
X266344Y56803D01*
X266279Y56836D01*
X266247D01*
X265437Y57289D01*
X264725Y57807D01*
X264142Y58358D01*
X263623Y58876D01*
X263235Y59362D01*
X262976Y59750D01*
X262879Y59912D01*
X262814Y60009D01*
X262749Y60074D01*
Y60107D01*
X262360Y60949D01*
X262069Y61791D01*
X261842Y62633D01*
X261713Y63410D01*
X261648Y63766D01*
X261616Y64090D01*
X261583Y64381D01*
Y64640D01*
X261551Y64835D01*
Y64997D01*
Y65094D01*
Y65126D01*
X261583Y66130D01*
X261713Y67069D01*
X261875Y67911D01*
X261972Y68300D01*
X262101Y68624D01*
X262199Y68948D01*
X262296Y69239D01*
X262360Y69466D01*
X262458Y69660D01*
X262522Y69822D01*
X262587Y69952D01*
X262619Y70016D01*
Y70049D01*
X263073Y70794D01*
X263559Y71441D01*
X264077Y71992D01*
X264563Y72413D01*
X265016Y72769D01*
X265372Y73028D01*
X265502Y73093D01*
X265599Y73158D01*
X265664Y73222D01*
X265696D01*
X266506Y73579D01*
X267348Y73838D01*
X268222Y74032D01*
X269032Y74162D01*
X269420Y74194D01*
X269777Y74226D01*
X270068Y74259D01*
X270359D01*
X270586Y74291D01*
X270878D01*
X271817Y74259D01*
D02*
G37*
G36*
X156073D02*
X156915Y74194D01*
X157692Y74097D01*
X158340Y74000D01*
X158599Y73935D01*
X158858Y73903D01*
X159052Y73838D01*
X159247Y73805D01*
X159376Y73773D01*
X159473Y73741D01*
X159538Y73708D01*
X159570D01*
X160283Y73449D01*
X161028Y73093D01*
X161773Y72704D01*
X162453Y72348D01*
X163036Y71992D01*
X163295Y71830D01*
X163489Y71700D01*
X163683Y71603D01*
X163813Y71506D01*
X163878Y71474D01*
X163910Y71441D01*
Y63863D01*
X155425D01*
Y67555D01*
X159117D01*
Y69239D01*
X158728Y69466D01*
X158340Y69660D01*
X158016Y69822D01*
X157725Y69919D01*
X157498Y70016D01*
X157336Y70081D01*
X157206Y70146D01*
X157174D01*
X156559Y70308D01*
X156267Y70340D01*
X155976Y70373D01*
X155749Y70405D01*
X155425D01*
X154745Y70340D01*
X154130Y70211D01*
X153612Y70016D01*
X153191Y69790D01*
X152834Y69563D01*
X152575Y69369D01*
X152446Y69239D01*
X152381Y69174D01*
X152187Y68915D01*
X152025Y68656D01*
X151766Y68008D01*
X151571Y67328D01*
X151442Y66648D01*
X151377Y66033D01*
X151345Y65774D01*
Y65515D01*
X151312Y65321D01*
Y65191D01*
Y65094D01*
Y65061D01*
Y64576D01*
X151345Y64122D01*
X151409Y63701D01*
X151474Y63313D01*
X151571Y62957D01*
X151636Y62633D01*
X151863Y62082D01*
X152057Y61661D01*
X152219Y61337D01*
X152349Y61175D01*
X152381Y61111D01*
X152802Y60690D01*
X153288Y60366D01*
X153773Y60139D01*
X154227Y60009D01*
X154648Y59912D01*
X154972Y59880D01*
X155101Y59847D01*
X155263D01*
X155717Y59880D01*
X156105Y59945D01*
X156429Y60009D01*
X156721Y60107D01*
X156947Y60236D01*
X157142Y60301D01*
X157239Y60366D01*
X157271Y60398D01*
X157530Y60625D01*
X157789Y60851D01*
X157984Y61111D01*
X158146Y61337D01*
X158243Y61564D01*
X158340Y61758D01*
X158405Y61888D01*
Y61920D01*
X163683Y60981D01*
X163489Y60366D01*
X163262Y59815D01*
X163003Y59329D01*
X162777Y58941D01*
X162550Y58617D01*
X162388Y58358D01*
X162258Y58228D01*
X162226Y58163D01*
X161837Y57775D01*
X161449Y57419D01*
X161028Y57127D01*
X160639Y56901D01*
X160315Y56739D01*
X160056Y56609D01*
X159862Y56544D01*
X159830Y56512D01*
X159797D01*
X159506Y56415D01*
X159182Y56318D01*
X158502Y56188D01*
X157757Y56091D01*
X157044Y56026D01*
X156397Y55994D01*
X156138Y55961D01*
X155393D01*
X154292Y55994D01*
X153806Y56026D01*
X153320Y56091D01*
X152899Y56156D01*
X152510Y56253D01*
X152122Y56318D01*
X151798Y56382D01*
X151507Y56480D01*
X151248Y56544D01*
X151021Y56641D01*
X150827Y56706D01*
X150697Y56739D01*
X150600Y56803D01*
X150535Y56836D01*
X150503D01*
X149693Y57289D01*
X148981Y57807D01*
X148398Y58358D01*
X147879Y58876D01*
X147491Y59362D01*
X147232Y59750D01*
X147135Y59912D01*
X147070Y60009D01*
X147005Y60074D01*
Y60107D01*
X146616Y60949D01*
X146325Y61791D01*
X146098Y62633D01*
X145969Y63410D01*
X145904Y63766D01*
X145872Y64090D01*
X145839Y64381D01*
Y64640D01*
X145807Y64835D01*
Y64997D01*
Y65094D01*
Y65126D01*
X145839Y66130D01*
X145969Y67069D01*
X146131Y67911D01*
X146228Y68300D01*
X146357Y68624D01*
X146454Y68948D01*
X146552Y69239D01*
X146616Y69466D01*
X146714Y69660D01*
X146778Y69822D01*
X146843Y69952D01*
X146875Y70016D01*
Y70049D01*
X147329Y70794D01*
X147815Y71441D01*
X148333Y71992D01*
X148819Y72413D01*
X149272Y72769D01*
X149628Y73028D01*
X149758Y73093D01*
X149855Y73158D01*
X149920Y73222D01*
X149952D01*
X150762Y73579D01*
X151604Y73838D01*
X152478Y74032D01*
X153288Y74162D01*
X153676Y74194D01*
X154033Y74226D01*
X154324Y74259D01*
X154615D01*
X154842Y74291D01*
X155134D01*
X156073Y74259D01*
D02*
G37*
G36*
X123688Y56253D02*
X116466D01*
X113681Y67069D01*
X110928Y56253D01*
X103706D01*
Y74000D01*
X108208D01*
Y60463D01*
X111641Y74000D01*
X115721D01*
X119186Y60463D01*
Y74000D01*
X123688D01*
Y56253D01*
D02*
G37*
G36*
X209832Y67393D02*
X212811D01*
X213427Y67361D01*
X213977Y67328D01*
X214495Y67264D01*
X214981Y67167D01*
X215434Y67037D01*
X215856Y66907D01*
X216212Y66778D01*
X216536Y66648D01*
X216827Y66519D01*
X217086Y66389D01*
X217281Y66260D01*
X217475Y66130D01*
X217604Y66033D01*
X217701Y65968D01*
X217734Y65904D01*
X217766D01*
X218058Y65612D01*
X218317Y65288D01*
X218511Y64964D01*
X218705Y64608D01*
X218997Y63896D01*
X219191Y63215D01*
X219288Y62633D01*
X219353Y62373D01*
Y62147D01*
X219386Y61953D01*
Y61823D01*
Y61726D01*
Y61694D01*
Y61208D01*
X219321Y60787D01*
X219159Y59977D01*
X218900Y59297D01*
X218641Y58714D01*
X218382Y58261D01*
X218123Y57937D01*
X218025Y57840D01*
X217961Y57743D01*
X217928Y57678D01*
X217896D01*
X217604Y57419D01*
X217281Y57192D01*
X216568Y56868D01*
X215823Y56609D01*
X215111Y56415D01*
X214463Y56318D01*
X214172Y56285D01*
X213912D01*
X213718Y56253D01*
X204326D01*
Y74000D01*
X209832D01*
Y67393D01*
D02*
G37*
G36*
X172881Y56253D02*
X167375D01*
Y74000D01*
X172881D01*
Y56253D01*
D02*
G37*
G36*
X33755Y69628D02*
X25173D01*
Y56253D01*
X19700D01*
Y74000D01*
X33755D01*
Y69628D01*
D02*
G37*
G36*
X10502Y73967D02*
X10891Y73935D01*
X11312Y73870D01*
X11701Y73838D01*
X12024Y73805D01*
X12154D01*
X12251Y73773D01*
X12316D01*
X12802Y73676D01*
X13223Y73611D01*
X13579Y73514D01*
X13870Y73417D01*
X14097Y73320D01*
X14259Y73255D01*
X14356Y73190D01*
X14389D01*
X14777Y72931D01*
X15133Y72640D01*
X15457Y72348D01*
X15716Y72057D01*
X15911Y71830D01*
X16040Y71636D01*
X16137Y71474D01*
X16170Y71441D01*
X16396Y71020D01*
X16558Y70599D01*
X16655Y70178D01*
X16753Y69790D01*
X16785Y69466D01*
X16817Y69207D01*
Y69045D01*
Y68980D01*
X16785Y68365D01*
X16688Y67814D01*
X16526Y67328D01*
X16364Y66940D01*
X16202Y66616D01*
X16040Y66357D01*
X15943Y66227D01*
X15911Y66163D01*
X15522Y65774D01*
X15101Y65450D01*
X14615Y65159D01*
X14162Y64932D01*
X13741Y64770D01*
X13417Y64673D01*
X13287Y64608D01*
X13190D01*
X13125Y64576D01*
X13093D01*
X13547Y64381D01*
X13935Y64187D01*
X14259Y63993D01*
X14518Y63798D01*
X14745Y63636D01*
X14874Y63507D01*
X14971Y63410D01*
X15004Y63377D01*
X15328Y62924D01*
X15587Y62471D01*
X15749Y62017D01*
X15878Y61596D01*
X15943Y61240D01*
X16008Y60949D01*
Y60754D01*
Y60722D01*
Y60690D01*
Y60333D01*
X15943Y60009D01*
X15781Y59394D01*
X15554Y58876D01*
X15328Y58422D01*
X15069Y58034D01*
X14842Y57775D01*
X14680Y57613D01*
X14648Y57548D01*
X14615D01*
X14032Y57127D01*
X13417Y56803D01*
X12769Y56577D01*
X12121Y56415D01*
X11539Y56318D01*
X11312Y56285D01*
X11085D01*
X10923Y56253D01*
X398D01*
Y74000D01*
X10146D01*
X10502Y73967D01*
D02*
G37*
G36*
X251317Y74259D02*
X252289Y74129D01*
X253131Y73935D01*
X253487Y73838D01*
X253843Y73741D01*
X254167Y73643D01*
X254426Y73546D01*
X254653Y73449D01*
X254847Y73352D01*
X255009Y73287D01*
X255106Y73222D01*
X255171Y73190D01*
X255203D01*
X255916Y72737D01*
X256499Y72251D01*
X257017Y71733D01*
X257438Y71247D01*
X257794Y70794D01*
X258021Y70437D01*
X258118Y70308D01*
X258183Y70211D01*
X258215Y70146D01*
Y70114D01*
X258571Y69304D01*
X258830Y68462D01*
X259025Y67620D01*
X259154Y66810D01*
X259187Y66422D01*
X259219Y66098D01*
X259251Y65774D01*
X259284Y65515D01*
Y65288D01*
Y65126D01*
Y65029D01*
Y64997D01*
X259251Y64219D01*
X259187Y63475D01*
X259057Y62794D01*
X258895Y62147D01*
X258733Y61564D01*
X258507Y61013D01*
X258312Y60528D01*
X258086Y60074D01*
X257859Y59686D01*
X257632Y59329D01*
X257405Y59038D01*
X257244Y58779D01*
X257082Y58617D01*
X256952Y58455D01*
X256887Y58390D01*
X256855Y58358D01*
X256369Y57937D01*
X255883Y57581D01*
X255333Y57257D01*
X254782Y56965D01*
X254232Y56739D01*
X253649Y56544D01*
X253098Y56382D01*
X252548Y56253D01*
X252062Y56156D01*
X251576Y56091D01*
X251155Y56026D01*
X250767Y55994D01*
X250475Y55961D01*
X250054D01*
X249277Y55994D01*
X248532Y56059D01*
X247819Y56188D01*
X247172Y56350D01*
X246556Y56512D01*
X246006Y56739D01*
X245488Y56933D01*
X245034Y57160D01*
X244646Y57386D01*
X244290Y57613D01*
X243998Y57840D01*
X243739Y58002D01*
X243545Y58163D01*
X243415Y58293D01*
X243318Y58358D01*
X243286Y58390D01*
X242865Y58876D01*
X242508Y59362D01*
X242185Y59912D01*
X241893Y60463D01*
X241666Y61046D01*
X241472Y61596D01*
X241310Y62147D01*
X241181Y62697D01*
X241084Y63183D01*
X241019Y63669D01*
X240954Y64090D01*
X240921Y64446D01*
Y64738D01*
X240889Y64964D01*
Y65094D01*
Y65159D01*
X240954Y66260D01*
X241084Y67264D01*
X241181Y67749D01*
X241278Y68170D01*
X241375Y68559D01*
X241504Y68915D01*
X241602Y69239D01*
X241699Y69531D01*
X241796Y69757D01*
X241893Y69952D01*
X241990Y70114D01*
X242023Y70243D01*
X242087Y70308D01*
Y70340D01*
X242573Y71053D01*
X243124Y71668D01*
X243642Y72219D01*
X244160Y72607D01*
X244613Y72931D01*
X244970Y73158D01*
X245099Y73255D01*
X245196Y73320D01*
X245261Y73352D01*
X245294D01*
X246071Y73676D01*
X246913Y73903D01*
X247722Y74064D01*
X248500Y74162D01*
X248888Y74226D01*
X249212D01*
X249504Y74259D01*
X249763Y74291D01*
X250248D01*
X251317Y74259D01*
D02*
G37*
%LPC*%
G36*
X124400Y174296D02*
X120514D01*
X122457Y167949D01*
X124400Y174296D01*
D02*
G37*
G36*
X270165Y170507D02*
X267672D01*
Y166912D01*
X270068D01*
X270586Y166945D01*
X271040Y166977D01*
X271396Y167074D01*
X271687Y167139D01*
X271882Y167236D01*
X272043Y167333D01*
X272108Y167366D01*
X272141Y167398D01*
X272335Y167592D01*
X272465Y167787D01*
X272562Y168013D01*
X272626Y168208D01*
X272659Y168402D01*
X272691Y168564D01*
Y168661D01*
Y168694D01*
Y168920D01*
X272626Y169114D01*
X272529Y169438D01*
X272465Y169568D01*
X272400Y169633D01*
X272367Y169697D01*
X272335Y169730D01*
X272206Y169892D01*
X272043Y170021D01*
X271752Y170183D01*
X271623Y170216D01*
X271525Y170248D01*
X271461Y170280D01*
X271428D01*
X271072Y170345D01*
X270748Y170410D01*
X270489Y170442D01*
X270295Y170475D01*
X270165Y170507D01*
D02*
G37*
G36*
X136933Y67231D02*
X133047D01*
X134990Y60884D01*
X136933Y67231D01*
D02*
G37*
G36*
X45996D02*
X42110D01*
X44053Y60884D01*
X45996Y67231D01*
D02*
G37*
G36*
X230332Y63442D02*
X227838D01*
Y59847D01*
X230235D01*
X230753Y59880D01*
X231206Y59912D01*
X231562Y60009D01*
X231854Y60074D01*
X232048Y60171D01*
X232210Y60269D01*
X232275Y60301D01*
X232307Y60333D01*
X232501Y60528D01*
X232631Y60722D01*
X232728Y60949D01*
X232793Y61143D01*
X232825Y61337D01*
X232858Y61499D01*
Y61596D01*
Y61629D01*
Y61855D01*
X232793Y62050D01*
X232696Y62373D01*
X232631Y62503D01*
X232566Y62568D01*
X232534Y62633D01*
X232501Y62665D01*
X232372Y62827D01*
X232210Y62957D01*
X231919Y63118D01*
X231789Y63151D01*
X231692Y63183D01*
X231627Y63215D01*
X231595D01*
X231238Y63280D01*
X230915Y63345D01*
X230655Y63377D01*
X230461Y63410D01*
X230332Y63442D01*
D02*
G37*
G36*
X211419Y63798D02*
X209832D01*
Y59847D01*
X211386D01*
X211905Y59880D01*
X212358Y59945D01*
X212714Y60042D01*
X213006Y60139D01*
X213200Y60236D01*
X213362Y60333D01*
X213427Y60398D01*
X213459Y60430D01*
X213653Y60657D01*
X213783Y60884D01*
X213912Y61143D01*
X213977Y61370D01*
X214010Y61564D01*
X214042Y61726D01*
Y61823D01*
Y61855D01*
X214010Y62179D01*
X213945Y62438D01*
X213848Y62697D01*
X213718Y62892D01*
X213589Y63054D01*
X213491Y63183D01*
X213427Y63248D01*
X213394Y63280D01*
X213103Y63442D01*
X212779Y63572D01*
X212390Y63669D01*
X212034Y63734D01*
X211710Y63766D01*
X211419Y63798D01*
D02*
G37*
G36*
X8948Y70178D02*
X5936D01*
Y66584D01*
X8689D01*
X9207Y66616D01*
X9628Y66648D01*
X9984Y66746D01*
X10243Y66810D01*
X10470Y66907D01*
X10632Y67005D01*
X10697Y67037D01*
X10729Y67069D01*
X10923Y67264D01*
X11053Y67458D01*
X11182Y67685D01*
X11247Y67879D01*
X11279Y68073D01*
X11312Y68203D01*
Y68300D01*
Y68332D01*
X11279Y68624D01*
X11215Y68883D01*
X11118Y69142D01*
X11020Y69336D01*
X10923Y69498D01*
X10826Y69595D01*
X10761Y69660D01*
X10729Y69693D01*
X10470Y69854D01*
X10178Y69984D01*
X9855Y70049D01*
X9498Y70114D01*
X9207Y70146D01*
X8948Y70178D01*
D02*
G37*
G36*
X8527Y63215D02*
X5936D01*
Y59847D01*
X8365D01*
X8786Y59880D01*
X9175Y59912D01*
X9466Y59977D01*
X9693Y60074D01*
X9887Y60171D01*
X10016Y60236D01*
X10081Y60269D01*
X10114Y60301D01*
X10276Y60463D01*
X10405Y60657D01*
X10502Y60851D01*
X10567Y61046D01*
X10599Y61240D01*
X10632Y61370D01*
Y61467D01*
Y61499D01*
X10599Y61791D01*
X10567Y62050D01*
X10470Y62276D01*
X10373Y62471D01*
X10276Y62600D01*
X10211Y62697D01*
X10146Y62762D01*
X10114Y62794D01*
X9887Y62924D01*
X9628Y63021D01*
X9045Y63151D01*
X8753Y63183D01*
X8527Y63215D01*
D02*
G37*
G36*
X250248Y70178D02*
X250086D01*
X249471Y70114D01*
X248921Y69984D01*
X248435Y69822D01*
X248046Y69595D01*
X247755Y69369D01*
X247528Y69207D01*
X247366Y69077D01*
X247334Y69012D01*
X247172Y68786D01*
X247010Y68527D01*
X246783Y67911D01*
X246589Y67264D01*
X246492Y66648D01*
X246427Y66065D01*
X246395Y65806D01*
Y65580D01*
X246362Y65418D01*
Y65288D01*
Y65191D01*
Y65159D01*
Y64673D01*
X246395Y64219D01*
X246459Y63798D01*
X246524Y63410D01*
X246589Y63086D01*
X246686Y62762D01*
X246783Y62471D01*
X246880Y62212D01*
X247042Y61823D01*
X247204Y61532D01*
X247334Y61370D01*
X247366Y61305D01*
X247755Y60916D01*
X248208Y60625D01*
X248662Y60398D01*
X249083Y60269D01*
X249439Y60171D01*
X249763Y60139D01*
X249957Y60107D01*
X250022D01*
X250637Y60171D01*
X251188Y60301D01*
X251673Y60463D01*
X252062Y60690D01*
X252353Y60916D01*
X252580Y61078D01*
X252742Y61208D01*
X252774Y61272D01*
X253131Y61758D01*
X253390Y62341D01*
X253552Y62957D01*
X253681Y63539D01*
X253746Y64090D01*
X253778Y64317D01*
X253811Y64511D01*
Y64705D01*
Y64835D01*
Y64900D01*
Y64932D01*
Y65483D01*
X253778Y65968D01*
X253714Y66422D01*
X253649Y66843D01*
X253584Y67199D01*
X253487Y67555D01*
X253390Y67847D01*
X253325Y68106D01*
X253228Y68332D01*
X253131Y68527D01*
X253034Y68689D01*
X252969Y68818D01*
X252839Y68980D01*
X252807Y69045D01*
X252418Y69433D01*
X251965Y69693D01*
X251511Y69887D01*
X251090Y70049D01*
X250702Y70114D01*
X250378Y70146D01*
X250248Y70178D01*
D02*
G37*
%LPD*%
D10*
X125641Y188679D02*
Y195344D01*
X128973Y198676D01*
X132305Y195344D01*
Y188679D01*
X145634Y198676D02*
X148966D01*
X147300D01*
Y188679D01*
X145634Y190345D01*
X153965Y198676D02*
Y197010D01*
X155631D01*
Y198676D01*
X153965D01*
X167294D02*
Y188679D01*
X162295Y193678D01*
X168960D01*
X172292Y198676D02*
Y197010D01*
X173958D01*
Y198676D01*
X172292D01*
X180623Y190345D02*
X182289Y188679D01*
X185621D01*
X187287Y190345D01*
Y197010D01*
X185621Y198676D01*
X182289D01*
X180623Y197010D01*
Y190345D01*
D12*
X26500Y-15550D02*
Y-1250D01*
X42750D01*
X92750D02*
X109000D01*
Y-15550D02*
Y-1250D01*
X105000Y256500D02*
Y270800D01*
X88750Y256500D02*
X105000D01*
X22500D02*
X38750D01*
X22500D02*
Y270800D01*
D13*
X50000Y15250D02*
G03*
X50000Y15250I-1000J0D01*
G01*
X83500Y240000D02*
G03*
X83500Y240000I-1000J0D01*
G01*
X-18750Y116003D02*
Y122667D01*
X-17417Y124000D01*
X-14751D01*
X-13418Y122667D01*
Y116003D01*
X-5421Y117336D02*
X-6754Y116003D01*
X-9420D01*
X-10753Y117336D01*
Y118668D01*
X-9420Y120001D01*
X-6754D01*
X-5421Y121334D01*
Y122667D01*
X-6754Y124000D01*
X-9420D01*
X-10753Y122667D01*
X-2755Y116003D02*
Y124000D01*
X1244D01*
X2576Y122667D01*
Y121334D01*
X1244Y120001D01*
X-2755D01*
X1244D01*
X2576Y118668D01*
Y117336D01*
X1244Y116003D01*
X-2755D01*
D16*
X322000Y116000D02*
X384500D01*
X365250Y108750D02*
X377250D01*
X384500Y116000D01*
X288750Y115750D02*
X306500D01*
X-23250Y133500D02*
X8000D01*
X15750Y125750D01*
Y125250D02*
Y125750D01*
X-24250Y107500D02*
X9000D01*
X17500Y116000D01*
X18000D01*
X324000Y8250D02*
Y30250D01*
X316750Y1000D02*
X324000Y8250D01*
X316750Y1000D02*
Y87872D01*
X289372Y115250D02*
X316750Y87872D01*
X17000Y115250D02*
X289372Y115250D01*
X324500Y247500D02*
Y262750D01*
X316750Y270500D02*
X324500Y262750D01*
X316750Y191528D02*
Y270500D01*
X251222Y126000D02*
X316750Y191528D01*
X15750Y126000D02*
X251222Y126000D01*
D19*
X89463Y-31807D02*
X90630Y-30640D01*
Y-28308D01*
X89463Y-27142D01*
X88297D01*
X87131Y-28308D01*
Y-29474D01*
Y-28308D01*
X85964Y-27142D01*
X84798D01*
X83632Y-28308D01*
Y-30640D01*
X84798Y-31807D01*
X90630Y-24809D02*
X85964D01*
X83632Y-22476D01*
X85964Y-20144D01*
X90630D01*
X89463Y-17811D02*
X90630Y-16645D01*
Y-14312D01*
X89463Y-13146D01*
X88297D01*
X87131Y-14312D01*
Y-15479D01*
Y-14312D01*
X85964Y-13146D01*
X84798D01*
X83632Y-14312D01*
Y-16645D01*
X84798Y-17811D01*
X52031Y-27142D02*
X53198Y-28308D01*
Y-30640D01*
X52031Y-31807D01*
X47366D01*
X46200Y-30640D01*
Y-28308D01*
X47366Y-27142D01*
X49699D01*
Y-29474D01*
X46200Y-24809D02*
X53198D01*
X46200Y-20144D01*
X53198D01*
Y-17811D02*
X46200D01*
Y-14312D01*
X47366Y-13146D01*
X52031D01*
X53198Y-14312D01*
Y-17811D01*
X42287Y235307D02*
X41121Y234140D01*
Y231808D01*
X42287Y230642D01*
X43453D01*
X44619Y231808D01*
Y232974D01*
Y231808D01*
X45786Y230642D01*
X46952D01*
X48118Y231808D01*
Y234140D01*
X46952Y235307D01*
X41121Y228309D02*
X45786D01*
X48118Y225976D01*
X45786Y223644D01*
X41121D01*
X42287Y221311D02*
X41121Y220145D01*
Y217812D01*
X42287Y216646D01*
X43453D01*
X44619Y217812D01*
Y218979D01*
Y217812D01*
X45786Y216646D01*
X46952D01*
X48118Y217812D01*
Y220145D01*
X46952Y221311D01*
X79719Y230642D02*
X78552Y231808D01*
Y234140D01*
X79719Y235307D01*
X84384D01*
X85550Y234140D01*
Y231808D01*
X84384Y230642D01*
X82051D01*
Y232974D01*
X85550Y228309D02*
X78552D01*
X85550Y223644D01*
X78552D01*
Y221311D02*
X85550D01*
Y217812D01*
X84384Y216646D01*
X79719D01*
X78552Y217812D01*
Y221311D01*
X308078Y-25197D02*
X314076D01*
X311077D01*
Y-16200D01*
X317075D02*
Y-22198D01*
X320074Y-25197D01*
X323073Y-22198D01*
Y-16200D01*
Y-20698D01*
X317075D01*
X326072Y-16200D02*
Y-25197D01*
X330571D01*
X332070Y-23698D01*
Y-20698D01*
X330571Y-19199D01*
X326072D01*
X329071D02*
X332070Y-16200D01*
X341068Y-23698D02*
X339568Y-25197D01*
X336569D01*
X335069Y-23698D01*
Y-17700D01*
X336569Y-16200D01*
X339568D01*
X341068Y-17700D01*
Y-20698D01*
X338069D01*
X350065Y-25197D02*
X344067D01*
Y-16200D01*
X350065D01*
X344067Y-20698D02*
X347066D01*
X353064Y-25197D02*
X359062D01*
X356063D01*
Y-16200D01*
X377056Y-23698D02*
X375556Y-25197D01*
X372557D01*
X371058Y-23698D01*
Y-22198D01*
X372557Y-20698D01*
X375556D01*
X377056Y-19199D01*
Y-17700D01*
X375556Y-16200D01*
X372557D01*
X371058Y-17700D01*
X380055Y-25197D02*
Y-16200D01*
X383054Y-19199D01*
X386053Y-16200D01*
Y-25197D01*
X389052D02*
Y-16200D01*
X393550D01*
X395050Y-17700D01*
Y-23698D01*
X393550Y-25197D01*
X389052D01*
X267088Y272553D02*
X265588Y271053D01*
X262589D01*
X261090Y272553D01*
Y278550D01*
X262589Y280050D01*
X265588D01*
X267088Y278550D01*
X270087Y280050D02*
Y274052D01*
X273086Y271053D01*
X276085Y274052D01*
Y280050D01*
Y275551D01*
X270087D01*
X279084Y280050D02*
Y271053D01*
X285082Y280050D01*
Y271053D01*
X366056Y272553D02*
X364556Y271053D01*
X361557D01*
X360058Y272553D01*
Y278550D01*
X361557Y280050D01*
X364556D01*
X366056Y278550D01*
X369055Y280050D02*
Y274052D01*
X372054Y271053D01*
X375053Y274052D01*
Y280050D01*
Y275551D01*
X369055D01*
X378052Y280050D02*
Y271053D01*
X384050Y280050D01*
Y271053D01*
M02*
