G04*
G04 #@! TF.GenerationSoftware,Altium Limited,Altium Designer,21.6.1 (37)*
G04*
G04 Layer_Color=32896*
%FSLAX44Y44*%
%MOMM*%
G71*
G04*
G04 #@! TF.SameCoordinates,1157272D-073F-4DBA-9ECF-90C8E706E346*
G04*
G04*
G04 #@! TF.FilePolarity,Positive*
G04*
G01*
G75*
%ADD11C,0.1270*%
%ADD12C,0.2000*%
%ADD14C,0.6000*%
%ADD18C,0.1700*%
%ADD77C,0.3000*%
G36*
X110378Y132686D02*
X106934D01*
X103138Y142833D01*
X106341D01*
X106841Y141167D01*
X110396D01*
X110896Y142833D01*
X114192D01*
X110378Y132686D01*
D02*
G37*
G36*
X196961Y139908D02*
X196906Y139815D01*
X196850Y139723D01*
X196702Y139500D01*
X196628Y139426D01*
X196573Y139352D01*
X196536Y139297D01*
X196517Y139278D01*
X196406Y139130D01*
X196295Y139019D01*
X196221Y138926D01*
X196147Y138852D01*
X196091Y138797D01*
X196054Y138760D01*
X196017Y138741D01*
X195906Y138667D01*
X195776Y138612D01*
X195517Y138482D01*
X195388Y138445D01*
X195295Y138408D01*
X195221Y138371D01*
X195202D01*
X195443Y138297D01*
X195665Y138241D01*
X195851Y138167D01*
X196017Y138112D01*
X196128Y138056D01*
X196221Y138001D01*
X196276Y137982D01*
X196295Y137963D01*
X196517Y137815D01*
X196721Y137649D01*
X196887Y137482D01*
X197036Y137334D01*
X197147Y137186D01*
X197239Y137075D01*
X197276Y137001D01*
X197295Y136982D01*
X197424Y136741D01*
X197517Y136482D01*
X197572Y136242D01*
X197628Y136019D01*
X197647Y135816D01*
X197665Y135667D01*
Y135556D01*
Y135519D01*
X197647Y135168D01*
X197591Y134853D01*
X197517Y134575D01*
X197424Y134334D01*
X197332Y134131D01*
X197258Y133982D01*
X197202Y133908D01*
X197184Y133871D01*
X196999Y133631D01*
X196795Y133446D01*
X196591Y133279D01*
X196388Y133149D01*
X196221Y133057D01*
X196073Y133001D01*
X195980Y132964D01*
X195943Y132945D01*
X195628Y132853D01*
X195277Y132797D01*
X194906Y132742D01*
X194554Y132723D01*
X194221Y132705D01*
X194091Y132686D01*
X188499D01*
Y142833D01*
X191647D01*
Y138723D01*
X191906D01*
X192073Y138741D01*
X192221Y138760D01*
X192351Y138797D01*
X192462Y138834D01*
X192554Y138889D01*
X192629Y138926D01*
X192666Y138945D01*
X192684Y138963D01*
X192777Y139056D01*
X192888Y139167D01*
X193073Y139426D01*
X193147Y139537D01*
X193203Y139649D01*
X193240Y139723D01*
X193258Y139741D01*
X194943Y142833D01*
X198498D01*
X196961Y139908D01*
D02*
G37*
G36*
X98509Y142982D02*
X98953Y142944D01*
X99342Y142870D01*
X99657Y142796D01*
X99916Y142741D01*
X100120Y142667D01*
X100175Y142648D01*
X100231Y142630D01*
X100249Y142611D01*
X100268D01*
X100583Y142444D01*
X100879Y142259D01*
X101120Y142074D01*
X101342Y141889D01*
X101508Y141704D01*
X101638Y141574D01*
X101731Y141482D01*
X101749Y141445D01*
X101971Y141130D01*
X102138Y140815D01*
X102305Y140500D01*
X102416Y140185D01*
X102527Y139926D01*
X102582Y139704D01*
X102601Y139630D01*
X102619Y139574D01*
X102638Y139537D01*
Y139519D01*
X99897Y138667D01*
X99805Y139019D01*
X99694Y139315D01*
X99583Y139574D01*
X99472Y139778D01*
X99379Y139945D01*
X99286Y140056D01*
X99231Y140130D01*
X99212Y140148D01*
X99027Y140315D01*
X98805Y140445D01*
X98583Y140519D01*
X98361Y140593D01*
X98157Y140630D01*
X97990Y140648D01*
X97842D01*
X97509Y140630D01*
X97231Y140556D01*
X96972Y140463D01*
X96768Y140334D01*
X96620Y140223D01*
X96490Y140130D01*
X96416Y140056D01*
X96398Y140037D01*
X96305Y139908D01*
X96231Y139760D01*
X96102Y139408D01*
X96027Y139019D01*
X95953Y138649D01*
X95916Y138297D01*
Y138130D01*
X95898Y138001D01*
Y137889D01*
Y137797D01*
Y137741D01*
Y137723D01*
X95916Y137241D01*
X95972Y136834D01*
X96027Y136501D01*
X96120Y136223D01*
X96194Y136019D01*
X96250Y135853D01*
X96305Y135779D01*
X96324Y135742D01*
X96435Y135593D01*
X96546Y135445D01*
X96805Y135242D01*
X97083Y135075D01*
X97342Y134982D01*
X97583Y134908D01*
X97787Y134890D01*
X97842Y134871D01*
X98120D01*
X98287Y134908D01*
X98435Y134927D01*
X98564Y134964D01*
X98657Y135001D01*
X98749Y135038D01*
X98786Y135056D01*
X98805Y135075D01*
X99064Y135242D01*
X99268Y135427D01*
X99342Y135501D01*
X99416Y135575D01*
X99434Y135612D01*
X99453Y135630D01*
X99509Y135723D01*
X99564Y135816D01*
X99675Y136038D01*
X99712Y136130D01*
X99749Y136223D01*
X99768Y136278D01*
Y136297D01*
X102545Y135686D01*
X102434Y135390D01*
X102323Y135112D01*
X102193Y134871D01*
X102064Y134630D01*
X101934Y134408D01*
X101786Y134223D01*
X101657Y134038D01*
X101527Y133890D01*
X101397Y133742D01*
X101286Y133631D01*
X101175Y133519D01*
X101082Y133446D01*
X101009Y133371D01*
X100953Y133334D01*
X100916Y133297D01*
X100897D01*
X100675Y133168D01*
X100453Y133038D01*
X99972Y132853D01*
X99472Y132705D01*
X98972Y132612D01*
X98749Y132575D01*
X98546Y132557D01*
X98361Y132538D01*
X98194D01*
X98064Y132520D01*
X97879D01*
X97435Y132538D01*
X97009Y132575D01*
X96620Y132649D01*
X96250Y132723D01*
X95916Y132834D01*
X95602Y132945D01*
X95305Y133075D01*
X95065Y133186D01*
X94824Y133316D01*
X94639Y133446D01*
X94472Y133557D01*
X94324Y133668D01*
X94231Y133742D01*
X94139Y133816D01*
X94102Y133853D01*
X94083Y133871D01*
X93842Y134131D01*
X93639Y134427D01*
X93472Y134723D01*
X93306Y135038D01*
X93176Y135371D01*
X93083Y135686D01*
X92991Y136001D01*
X92917Y136316D01*
X92861Y136612D01*
X92824Y136871D01*
X92787Y137112D01*
X92769Y137334D01*
Y137501D01*
X92750Y137630D01*
Y137704D01*
Y137741D01*
X92787Y138408D01*
X92824Y138723D01*
X92861Y139019D01*
X92935Y139297D01*
X92991Y139556D01*
X93065Y139797D01*
X93139Y140000D01*
X93195Y140204D01*
X93268Y140371D01*
X93343Y140519D01*
X93398Y140630D01*
X93435Y140723D01*
X93472Y140797D01*
X93509Y140834D01*
Y140852D01*
X93806Y141278D01*
X94102Y141630D01*
X94417Y141908D01*
X94694Y142148D01*
X94935Y142315D01*
X95139Y142444D01*
X95213Y142482D01*
X95268Y142519D01*
X95287Y142537D01*
X95305D01*
X95731Y142685D01*
X96176Y142796D01*
X96638Y142889D01*
X97064Y142944D01*
X97268Y142963D01*
X97453Y142982D01*
X97601D01*
X97750Y143000D01*
X98027D01*
X98509Y142982D01*
D02*
G37*
G36*
X151707Y132686D02*
X148744D01*
Y138315D01*
X144893Y132686D01*
X141986D01*
Y142833D01*
X144930D01*
Y137241D01*
X148744Y142833D01*
X151707D01*
Y132686D01*
D02*
G37*
G36*
X124932D02*
X121969D01*
Y138315D01*
X118118Y132686D01*
X115211D01*
Y142833D01*
X118155D01*
Y137241D01*
X121969Y142833D01*
X124932D01*
Y132686D01*
D02*
G37*
G36*
X186777Y140537D02*
X181371D01*
Y138538D01*
X186240D01*
Y136464D01*
X181371D01*
Y134853D01*
X186629D01*
Y132686D01*
X178223D01*
Y142833D01*
X186777D01*
Y140537D01*
D02*
G37*
G36*
X171927Y138686D02*
X175871D01*
Y136630D01*
X171927D01*
Y134871D01*
X176538D01*
Y132686D01*
X168779D01*
Y142833D01*
X171927D01*
Y138686D01*
D02*
G37*
G36*
X162465D02*
X166409D01*
Y136630D01*
X162465D01*
Y134871D01*
X167076D01*
Y132686D01*
X159317D01*
Y142833D01*
X162465D01*
Y138686D01*
D02*
G37*
G36*
X157058Y132686D02*
X153910D01*
Y142833D01*
X157058D01*
Y132686D01*
D02*
G37*
G36*
X136412Y142982D02*
X136875Y142944D01*
X137301Y142870D01*
X137653Y142796D01*
X137801Y142759D01*
X137931Y142722D01*
X138060Y142685D01*
X138153Y142648D01*
X138227Y142630D01*
X138282Y142611D01*
X138301Y142593D01*
X138319D01*
X138671Y142408D01*
X138968Y142222D01*
X139227Y142019D01*
X139449Y141815D01*
X139616Y141630D01*
X139745Y141482D01*
X139819Y141389D01*
X139838Y141352D01*
X140023Y141037D01*
X140153Y140723D01*
X140264Y140408D01*
X140319Y140130D01*
X140356Y139889D01*
X140393Y139704D01*
Y139630D01*
Y139574D01*
Y139556D01*
Y139537D01*
X140375Y139241D01*
X140338Y138945D01*
X140264Y138704D01*
X140190Y138482D01*
X140115Y138297D01*
X140042Y138149D01*
X140004Y138075D01*
X139986Y138038D01*
X139819Y137797D01*
X139616Y137575D01*
X139393Y137389D01*
X139190Y137223D01*
X138986Y137093D01*
X138838Y137001D01*
X138727Y136945D01*
X138708Y136927D01*
X138690D01*
X138505Y136834D01*
X138301Y136760D01*
X137857Y136593D01*
X137357Y136427D01*
X136875Y136297D01*
X136653Y136242D01*
X136431Y136186D01*
X136227Y136130D01*
X136060Y136093D01*
X135931Y136056D01*
X135820Y136038D01*
X135746Y136019D01*
X135727D01*
X135449Y135964D01*
X135227Y135890D01*
X135042Y135834D01*
X134912Y135779D01*
X134801Y135723D01*
X134746Y135686D01*
X134709Y135649D01*
X134690D01*
X134616Y135575D01*
X134560Y135501D01*
X134505Y135353D01*
X134468Y135242D01*
Y135223D01*
Y135205D01*
X134487Y135093D01*
X134505Y134982D01*
X134598Y134797D01*
X134690Y134686D01*
X134709Y134668D01*
X134727Y134649D01*
X134838Y134575D01*
X134968Y134501D01*
X135246Y134445D01*
X135375Y134427D01*
X135468Y134408D01*
X135560D01*
X135801Y134427D01*
X136005Y134464D01*
X136190Y134501D01*
X136338Y134557D01*
X136449Y134630D01*
X136523Y134668D01*
X136579Y134705D01*
X136597Y134723D01*
X136727Y134853D01*
X136838Y135019D01*
X136912Y135186D01*
X136986Y135334D01*
X137042Y135482D01*
X137079Y135612D01*
X137097Y135686D01*
Y135723D01*
X140060Y135556D01*
X140004Y135279D01*
X139949Y135001D01*
X139875Y134760D01*
X139782Y134538D01*
X139690Y134334D01*
X139579Y134131D01*
X139486Y133964D01*
X139375Y133816D01*
X139171Y133575D01*
X139004Y133390D01*
X138875Y133297D01*
X138856Y133260D01*
X138838D01*
X138634Y133131D01*
X138412Y133020D01*
X137949Y132834D01*
X137449Y132705D01*
X136968Y132612D01*
X136746Y132575D01*
X136542Y132557D01*
X136357Y132538D01*
X136190D01*
X136060Y132520D01*
X135875D01*
X135320Y132538D01*
X134820Y132575D01*
X134394Y132649D01*
X134190Y132686D01*
X134024Y132723D01*
X133875Y132760D01*
X133746Y132797D01*
X133635Y132834D01*
X133542Y132872D01*
X133468Y132890D01*
X133413Y132908D01*
X133394Y132927D01*
X133376D01*
X133061Y133094D01*
X132783Y133260D01*
X132542Y133446D01*
X132357Y133612D01*
X132209Y133779D01*
X132098Y133908D01*
X132024Y133982D01*
X132005Y134019D01*
X131857Y134279D01*
X131746Y134538D01*
X131672Y134797D01*
X131616Y135019D01*
X131579Y135205D01*
X131561Y135371D01*
Y135464D01*
Y135482D01*
Y135501D01*
X131579Y135723D01*
X131598Y135927D01*
X131691Y136297D01*
X131839Y136630D01*
X132005Y136908D01*
X132153Y137149D01*
X132302Y137315D01*
X132394Y137408D01*
X132431Y137427D01*
Y137445D01*
X132616Y137593D01*
X132820Y137723D01*
X133264Y137963D01*
X133746Y138167D01*
X134246Y138352D01*
X134468Y138426D01*
X134672Y138482D01*
X134875Y138538D01*
X135042Y138593D01*
X135172Y138612D01*
X135283Y138649D01*
X135357Y138667D01*
X135375D01*
X135597Y138723D01*
X135801Y138778D01*
X135986Y138815D01*
X136153Y138871D01*
X136431Y138982D01*
X136653Y139074D01*
X136801Y139149D01*
X136912Y139204D01*
X136968Y139241D01*
X136986Y139260D01*
X137097Y139371D01*
X137190Y139500D01*
X137245Y139612D01*
X137301Y139723D01*
X137319Y139815D01*
X137338Y139889D01*
Y139945D01*
Y139963D01*
X137319Y140112D01*
X137282Y140260D01*
X137227Y140389D01*
X137153Y140500D01*
X137079Y140574D01*
X137023Y140648D01*
X136986Y140686D01*
X136968Y140704D01*
X136820Y140797D01*
X136653Y140871D01*
X136486Y140926D01*
X136320Y140963D01*
X136153Y140982D01*
X136042Y141000D01*
X135931D01*
X135616Y140982D01*
X135338Y140908D01*
X135098Y140815D01*
X134894Y140686D01*
X134746Y140574D01*
X134635Y140482D01*
X134560Y140408D01*
X134542Y140389D01*
X134449Y140241D01*
X134357Y140056D01*
X134246Y139686D01*
X134190Y139537D01*
X134172Y139408D01*
X134153Y139315D01*
Y139278D01*
X131172Y139482D01*
X131209Y139760D01*
X131265Y140037D01*
X131394Y140519D01*
X131579Y140963D01*
X131783Y141334D01*
X131876Y141482D01*
X131968Y141630D01*
X132061Y141741D01*
X132135Y141833D01*
X132190Y141908D01*
X132246Y141963D01*
X132264Y142000D01*
X132283Y142019D01*
X132487Y142185D01*
X132727Y142333D01*
X132987Y142482D01*
X133264Y142593D01*
X133857Y142759D01*
X134449Y142870D01*
X134746Y142926D01*
X135005Y142944D01*
X135246Y142963D01*
X135449Y142982D01*
X135634Y143000D01*
X135875D01*
X136412Y142982D01*
D02*
G37*
G36*
X185166Y103138D02*
X182148D01*
Y105971D01*
X185166D01*
Y103138D01*
D02*
G37*
G36*
X219978Y103045D02*
X219922Y102952D01*
X219867Y102860D01*
X219718Y102638D01*
X219644Y102563D01*
X219589Y102490D01*
X219552Y102434D01*
X219533Y102415D01*
X219422Y102267D01*
X219311Y102156D01*
X219237Y102064D01*
X219163Y101989D01*
X219107Y101934D01*
X219070Y101897D01*
X219033Y101878D01*
X218922Y101804D01*
X218793Y101749D01*
X218533Y101619D01*
X218404Y101582D01*
X218311Y101545D01*
X218237Y101508D01*
X218218D01*
X218459Y101434D01*
X218682Y101378D01*
X218867Y101304D01*
X219033Y101249D01*
X219144Y101193D01*
X219237Y101138D01*
X219293Y101119D01*
X219311Y101101D01*
X219533Y100953D01*
X219737Y100786D01*
X219904Y100619D01*
X220052Y100471D01*
X220163Y100323D01*
X220255Y100212D01*
X220292Y100138D01*
X220311Y100119D01*
X220441Y99879D01*
X220533Y99619D01*
X220589Y99379D01*
X220644Y99157D01*
X220663Y98953D01*
X220681Y98805D01*
Y98694D01*
Y98657D01*
X220663Y98305D01*
X220607Y97990D01*
X220533Y97712D01*
X220441Y97472D01*
X220348Y97268D01*
X220274Y97120D01*
X220218Y97046D01*
X220200Y97008D01*
X220015Y96768D01*
X219811Y96583D01*
X219607Y96416D01*
X219404Y96286D01*
X219237Y96194D01*
X219089Y96138D01*
X218996Y96101D01*
X218959Y96083D01*
X218644Y95990D01*
X218293Y95935D01*
X217922Y95879D01*
X217570Y95861D01*
X217237Y95842D01*
X217108Y95823D01*
X211516D01*
Y105971D01*
X214663D01*
Y101860D01*
X214923D01*
X215089Y101878D01*
X215237Y101897D01*
X215367Y101934D01*
X215478Y101971D01*
X215571Y102027D01*
X215645Y102064D01*
X215682Y102082D01*
X215700Y102101D01*
X215793Y102193D01*
X215904Y102304D01*
X216089Y102563D01*
X216163Y102675D01*
X216219Y102786D01*
X216256Y102860D01*
X216274Y102878D01*
X217959Y105971D01*
X221514D01*
X219978Y103045D01*
D02*
G37*
G36*
X152188Y99656D02*
X155910Y95823D01*
X151725D01*
X148448Y99675D01*
Y95823D01*
X145319D01*
Y105971D01*
X148448D01*
Y103508D01*
X150059Y101823D01*
X152207Y105971D01*
X156077D01*
X152188Y99656D01*
D02*
G37*
G36*
X117155Y101175D02*
X113063D01*
Y103360D01*
X117155D01*
Y101175D01*
D02*
G37*
G36*
X143226Y95823D02*
X140264D01*
Y101453D01*
X136412Y95823D01*
X133505D01*
Y105971D01*
X136449D01*
Y100379D01*
X140264Y105971D01*
X143226D01*
Y95823D01*
D02*
G37*
G36*
X239809Y106119D02*
X240290Y106082D01*
X240735Y106026D01*
X241105Y105971D01*
X241253Y105934D01*
X241401Y105915D01*
X241512Y105878D01*
X241623Y105859D01*
X241698Y105841D01*
X241753Y105822D01*
X241790Y105804D01*
X241809D01*
X242216Y105656D01*
X242642Y105452D01*
X243068Y105230D01*
X243457Y105026D01*
X243790Y104823D01*
X243938Y104730D01*
X244049Y104656D01*
X244160Y104600D01*
X244234Y104545D01*
X244271Y104526D01*
X244290Y104508D01*
Y100175D01*
X239439D01*
Y102286D01*
X241549D01*
Y103249D01*
X241327Y103378D01*
X241105Y103489D01*
X240920Y103582D01*
X240753Y103638D01*
X240624Y103693D01*
X240531Y103730D01*
X240457Y103767D01*
X240438D01*
X240087Y103860D01*
X239920Y103878D01*
X239753Y103897D01*
X239624Y103915D01*
X239439D01*
X239050Y103878D01*
X238698Y103804D01*
X238402Y103693D01*
X238161Y103563D01*
X237957Y103434D01*
X237809Y103323D01*
X237735Y103249D01*
X237698Y103212D01*
X237587Y103063D01*
X237494Y102915D01*
X237346Y102545D01*
X237235Y102156D01*
X237161Y101767D01*
X237124Y101416D01*
X237106Y101267D01*
Y101119D01*
X237087Y101008D01*
Y100934D01*
Y100878D01*
Y100860D01*
Y100582D01*
X237106Y100323D01*
X237143Y100082D01*
X237180Y99860D01*
X237235Y99656D01*
X237272Y99471D01*
X237402Y99157D01*
X237513Y98916D01*
X237605Y98731D01*
X237680Y98638D01*
X237698Y98601D01*
X237939Y98360D01*
X238216Y98175D01*
X238494Y98046D01*
X238753Y97971D01*
X238994Y97916D01*
X239179Y97897D01*
X239253Y97879D01*
X239346D01*
X239605Y97897D01*
X239827Y97934D01*
X240013Y97971D01*
X240179Y98027D01*
X240309Y98101D01*
X240420Y98138D01*
X240476Y98175D01*
X240494Y98194D01*
X240642Y98323D01*
X240790Y98453D01*
X240901Y98601D01*
X240994Y98731D01*
X241049Y98860D01*
X241105Y98971D01*
X241142Y99045D01*
Y99064D01*
X244160Y98527D01*
X244049Y98175D01*
X243920Y97860D01*
X243771Y97583D01*
X243642Y97360D01*
X243512Y97175D01*
X243420Y97027D01*
X243346Y96953D01*
X243327Y96916D01*
X243105Y96694D01*
X242883Y96490D01*
X242642Y96323D01*
X242420Y96194D01*
X242235Y96101D01*
X242086Y96027D01*
X241975Y95990D01*
X241957Y95972D01*
X241938D01*
X241772Y95916D01*
X241586Y95861D01*
X241198Y95787D01*
X240772Y95731D01*
X240364Y95694D01*
X239994Y95675D01*
X239846Y95657D01*
X239420D01*
X238790Y95675D01*
X238513Y95694D01*
X238235Y95731D01*
X237994Y95768D01*
X237772Y95823D01*
X237550Y95861D01*
X237365Y95898D01*
X237198Y95953D01*
X237050Y95990D01*
X236920Y96046D01*
X236809Y96083D01*
X236735Y96101D01*
X236680Y96138D01*
X236643Y96157D01*
X236624D01*
X236161Y96416D01*
X235754Y96712D01*
X235420Y97027D01*
X235124Y97323D01*
X234902Y97601D01*
X234754Y97823D01*
X234698Y97916D01*
X234661Y97971D01*
X234624Y98008D01*
Y98027D01*
X234402Y98508D01*
X234235Y98990D01*
X234106Y99471D01*
X234032Y99916D01*
X233995Y100119D01*
X233976Y100304D01*
X233958Y100471D01*
Y100619D01*
X233939Y100730D01*
Y100823D01*
Y100878D01*
Y100897D01*
X233958Y101471D01*
X234032Y102008D01*
X234124Y102490D01*
X234180Y102712D01*
X234254Y102897D01*
X234310Y103082D01*
X234365Y103249D01*
X234402Y103378D01*
X234458Y103489D01*
X234495Y103582D01*
X234532Y103656D01*
X234550Y103693D01*
Y103712D01*
X234809Y104137D01*
X235087Y104508D01*
X235383Y104823D01*
X235661Y105063D01*
X235920Y105267D01*
X236124Y105415D01*
X236198Y105452D01*
X236254Y105489D01*
X236291Y105526D01*
X236309D01*
X236772Y105730D01*
X237254Y105878D01*
X237754Y105989D01*
X238216Y106063D01*
X238439Y106082D01*
X238642Y106100D01*
X238809Y106119D01*
X238976D01*
X239105Y106137D01*
X239272D01*
X239809Y106119D01*
D02*
G37*
G36*
X192999Y95657D02*
X190666D01*
X190481Y96009D01*
X190277Y96323D01*
X190073Y96601D01*
X189870Y96823D01*
X189685Y97027D01*
X189536Y97175D01*
X189444Y97249D01*
X189425Y97286D01*
X189407D01*
X189092Y97527D01*
X188722Y97731D01*
X188351Y97916D01*
X187999Y98083D01*
X187685Y98212D01*
X187537Y98268D01*
X187425Y98323D01*
X187314Y98342D01*
X187240Y98379D01*
X187203Y98397D01*
X187185D01*
Y100693D01*
X187537Y100582D01*
X187851Y100490D01*
X188111Y100379D01*
X188351Y100286D01*
X188536Y100212D01*
X188685Y100156D01*
X188759Y100119D01*
X188796Y100101D01*
X189036Y99971D01*
X189277Y99823D01*
X189518Y99675D01*
X189722Y99545D01*
X189888Y99416D01*
X190036Y99323D01*
X190110Y99249D01*
X190147Y99230D01*
Y105971D01*
X192999D01*
Y95657D01*
D02*
G37*
G36*
X180685Y103674D02*
X176260D01*
X176538Y103434D01*
X176741Y103230D01*
X176815Y103175D01*
X176871Y103119D01*
X176908Y103101D01*
X176926Y103082D01*
X177056Y102971D01*
X177223Y102841D01*
X177426Y102712D01*
X177612Y102582D01*
X177797Y102452D01*
X177945Y102341D01*
X178037Y102267D01*
X178074Y102249D01*
X178334Y102064D01*
X178575Y101878D01*
X178797Y101693D01*
X179000Y101527D01*
X179167Y101360D01*
X179334Y101212D01*
X179611Y100934D01*
X179815Y100712D01*
X179945Y100545D01*
X180037Y100434D01*
X180056Y100397D01*
X180241Y100082D01*
X180371Y99768D01*
X180482Y99453D01*
X180537Y99193D01*
X180574Y98953D01*
X180611Y98768D01*
Y98712D01*
Y98657D01*
Y98638D01*
Y98619D01*
X180593Y98305D01*
X180537Y98008D01*
X180463Y97731D01*
X180371Y97508D01*
X180278Y97305D01*
X180204Y97175D01*
X180148Y97083D01*
X180130Y97046D01*
X179945Y96805D01*
X179722Y96583D01*
X179500Y96416D01*
X179297Y96268D01*
X179111Y96157D01*
X178945Y96064D01*
X178852Y96027D01*
X178834Y96009D01*
X178815D01*
X178482Y95898D01*
X178112Y95805D01*
X177723Y95749D01*
X177352Y95694D01*
X177019Y95675D01*
X176871D01*
X176741Y95657D01*
X176501D01*
X176001Y95675D01*
X175556Y95712D01*
X175167Y95768D01*
X174853Y95842D01*
X174593Y95916D01*
X174408Y95972D01*
X174297Y96009D01*
X174279Y96027D01*
X174260D01*
X173964Y96175D01*
X173723Y96342D01*
X173501Y96509D01*
X173334Y96675D01*
X173186Y96823D01*
X173075Y96934D01*
X173020Y97008D01*
X173001Y97046D01*
X172853Y97323D01*
X172723Y97620D01*
X172631Y97916D01*
X172538Y98212D01*
X172482Y98490D01*
X172446Y98694D01*
X172427Y98786D01*
X172409Y98842D01*
Y98879D01*
Y98897D01*
X175242Y99119D01*
X175297Y98823D01*
X175353Y98582D01*
X175427Y98379D01*
X175501Y98212D01*
X175575Y98083D01*
X175630Y97990D01*
X175667Y97953D01*
X175686Y97934D01*
X175834Y97823D01*
X175982Y97731D01*
X176130Y97675D01*
X176260Y97620D01*
X176390Y97601D01*
X176482Y97583D01*
X176575D01*
X176760Y97601D01*
X176926Y97638D01*
X177075Y97694D01*
X177204Y97749D01*
X177315Y97805D01*
X177389Y97860D01*
X177426Y97897D01*
X177445Y97916D01*
X177556Y98046D01*
X177649Y98175D01*
X177704Y98305D01*
X177760Y98434D01*
X177778Y98545D01*
X177797Y98638D01*
Y98694D01*
Y98712D01*
X177778Y98879D01*
X177741Y99027D01*
X177686Y99193D01*
X177630Y99323D01*
X177556Y99453D01*
X177500Y99545D01*
X177463Y99601D01*
X177445Y99619D01*
X177371Y99712D01*
X177278Y99823D01*
X177056Y100045D01*
X176778Y100267D01*
X176519Y100508D01*
X176260Y100712D01*
X176056Y100878D01*
X175964Y100934D01*
X175908Y100990D01*
X175871Y101008D01*
X175853Y101027D01*
X175482Y101304D01*
X175149Y101564D01*
X174834Y101823D01*
X174556Y102064D01*
X174297Y102304D01*
X174075Y102508D01*
X173871Y102712D01*
X173705Y102897D01*
X173556Y103063D01*
X173408Y103212D01*
X173316Y103341D01*
X173223Y103434D01*
X173149Y103526D01*
X173112Y103582D01*
X173094Y103619D01*
X173075Y103638D01*
X172834Y104045D01*
X172631Y104471D01*
X172482Y104860D01*
X172371Y105211D01*
X172279Y105526D01*
X172260Y105656D01*
X172242Y105767D01*
X172223Y105841D01*
X172205Y105915D01*
Y105952D01*
Y105971D01*
X180685D01*
Y103674D01*
D02*
G37*
G36*
X204368Y102193D02*
X206072D01*
X206423Y102175D01*
X206738Y102156D01*
X207034Y102119D01*
X207312Y102064D01*
X207572Y101989D01*
X207812Y101915D01*
X208016Y101841D01*
X208201Y101767D01*
X208368Y101693D01*
X208516Y101619D01*
X208627Y101545D01*
X208738Y101471D01*
X208812Y101416D01*
X208868Y101378D01*
X208886Y101341D01*
X208905D01*
X209071Y101175D01*
X209219Y100990D01*
X209331Y100804D01*
X209442Y100601D01*
X209608Y100193D01*
X209719Y99805D01*
X209775Y99471D01*
X209812Y99323D01*
Y99193D01*
X209830Y99082D01*
Y99008D01*
Y98953D01*
Y98934D01*
Y98657D01*
X209793Y98416D01*
X209701Y97953D01*
X209553Y97564D01*
X209405Y97231D01*
X209256Y96972D01*
X209108Y96786D01*
X209053Y96731D01*
X209016Y96675D01*
X208997Y96638D01*
X208979D01*
X208812Y96490D01*
X208627Y96361D01*
X208220Y96175D01*
X207794Y96027D01*
X207386Y95916D01*
X207016Y95861D01*
X206849Y95842D01*
X206701D01*
X206590Y95823D01*
X201220D01*
Y105971D01*
X204368D01*
Y102193D01*
D02*
G37*
G36*
X171835Y95823D02*
X168650D01*
X166391Y103138D01*
X164113Y95823D01*
X160836D01*
X164669Y105971D01*
X168057D01*
X171835Y95823D01*
D02*
G37*
G36*
X131246D02*
X128098D01*
Y105971D01*
X131246D01*
Y95823D01*
D02*
G37*
G36*
X126543Y103471D02*
X121636D01*
Y95823D01*
X118507D01*
Y105971D01*
X126543D01*
Y103471D01*
D02*
G37*
G36*
X109156Y98323D02*
X112359D01*
Y95823D01*
X102823D01*
Y98323D01*
X106026D01*
Y105971D01*
X109156D01*
Y98323D01*
D02*
G37*
G36*
X228088Y106119D02*
X228643Y106045D01*
X229125Y105934D01*
X229328Y105878D01*
X229532Y105822D01*
X229717Y105767D01*
X229865Y105711D01*
X229995Y105656D01*
X230106Y105600D01*
X230199Y105563D01*
X230254Y105526D01*
X230291Y105508D01*
X230310D01*
X230717Y105248D01*
X231050Y104971D01*
X231347Y104674D01*
X231588Y104397D01*
X231791Y104137D01*
X231921Y103934D01*
X231976Y103860D01*
X232013Y103804D01*
X232032Y103767D01*
Y103749D01*
X232236Y103286D01*
X232384Y102804D01*
X232495Y102323D01*
X232569Y101860D01*
X232587Y101638D01*
X232606Y101453D01*
X232624Y101267D01*
X232643Y101119D01*
Y100990D01*
Y100897D01*
Y100842D01*
Y100823D01*
X232624Y100379D01*
X232587Y99953D01*
X232513Y99564D01*
X232421Y99193D01*
X232328Y98860D01*
X232199Y98545D01*
X232087Y98268D01*
X231958Y98008D01*
X231828Y97786D01*
X231699Y97583D01*
X231569Y97416D01*
X231476Y97268D01*
X231384Y97175D01*
X231310Y97083D01*
X231273Y97046D01*
X231254Y97027D01*
X230977Y96786D01*
X230699Y96583D01*
X230384Y96397D01*
X230069Y96231D01*
X229754Y96101D01*
X229421Y95990D01*
X229106Y95898D01*
X228792Y95823D01*
X228514Y95768D01*
X228236Y95731D01*
X227995Y95694D01*
X227773Y95675D01*
X227607Y95657D01*
X227366D01*
X226921Y95675D01*
X226495Y95712D01*
X226088Y95786D01*
X225718Y95879D01*
X225366Y95972D01*
X225051Y96101D01*
X224755Y96212D01*
X224496Y96342D01*
X224273Y96472D01*
X224070Y96601D01*
X223903Y96731D01*
X223755Y96823D01*
X223644Y96916D01*
X223570Y96990D01*
X223514Y97027D01*
X223496Y97046D01*
X223255Y97323D01*
X223051Y97601D01*
X222866Y97916D01*
X222700Y98231D01*
X222570Y98564D01*
X222459Y98879D01*
X222366Y99193D01*
X222292Y99508D01*
X222237Y99786D01*
X222200Y100064D01*
X222163Y100304D01*
X222144Y100508D01*
Y100675D01*
X222125Y100804D01*
Y100878D01*
Y100915D01*
X222163Y101545D01*
X222237Y102119D01*
X222292Y102397D01*
X222348Y102638D01*
X222403Y102860D01*
X222477Y103063D01*
X222533Y103249D01*
X222589Y103415D01*
X222644Y103545D01*
X222700Y103656D01*
X222755Y103749D01*
X222774Y103823D01*
X222811Y103860D01*
Y103878D01*
X223088Y104286D01*
X223403Y104637D01*
X223699Y104952D01*
X223996Y105174D01*
X224255Y105359D01*
X224459Y105489D01*
X224533Y105545D01*
X224588Y105582D01*
X224625Y105600D01*
X224644D01*
X225088Y105785D01*
X225570Y105915D01*
X226033Y106008D01*
X226477Y106063D01*
X226699Y106100D01*
X226884D01*
X227051Y106119D01*
X227199Y106137D01*
X227477D01*
X228088Y106119D01*
D02*
G37*
G36*
X97990D02*
X98453Y106082D01*
X98879Y106008D01*
X99231Y105934D01*
X99379Y105897D01*
X99509Y105859D01*
X99638Y105822D01*
X99731Y105785D01*
X99805Y105767D01*
X99860Y105748D01*
X99879Y105730D01*
X99897D01*
X100249Y105545D01*
X100546Y105359D01*
X100805Y105156D01*
X101027Y104952D01*
X101194Y104767D01*
X101323Y104619D01*
X101397Y104526D01*
X101416Y104489D01*
X101601Y104174D01*
X101731Y103860D01*
X101842Y103545D01*
X101897Y103267D01*
X101934Y103026D01*
X101971Y102841D01*
Y102767D01*
Y102712D01*
Y102693D01*
Y102675D01*
X101953Y102378D01*
X101916Y102082D01*
X101842Y101841D01*
X101768Y101619D01*
X101694Y101434D01*
X101620Y101286D01*
X101582Y101212D01*
X101564Y101175D01*
X101397Y100934D01*
X101194Y100712D01*
X100971Y100527D01*
X100768Y100360D01*
X100564Y100230D01*
X100416Y100138D01*
X100305Y100082D01*
X100286Y100064D01*
X100268D01*
X100083Y99971D01*
X99879Y99897D01*
X99434Y99731D01*
X98935Y99564D01*
X98453Y99434D01*
X98231Y99379D01*
X98009Y99323D01*
X97805Y99268D01*
X97638Y99230D01*
X97509Y99193D01*
X97398Y99175D01*
X97324Y99157D01*
X97305D01*
X97027Y99101D01*
X96805Y99027D01*
X96620Y98971D01*
X96490Y98916D01*
X96379Y98860D01*
X96324Y98823D01*
X96287Y98786D01*
X96268D01*
X96194Y98712D01*
X96139Y98638D01*
X96083Y98490D01*
X96046Y98379D01*
Y98360D01*
Y98342D01*
X96065Y98231D01*
X96083Y98119D01*
X96176Y97934D01*
X96268Y97823D01*
X96287Y97805D01*
X96305Y97786D01*
X96416Y97712D01*
X96546Y97638D01*
X96824Y97583D01*
X96953Y97564D01*
X97046Y97545D01*
X97139D01*
X97379Y97564D01*
X97583Y97601D01*
X97768Y97638D01*
X97916Y97694D01*
X98027Y97768D01*
X98101Y97805D01*
X98157Y97842D01*
X98175Y97860D01*
X98305Y97990D01*
X98416Y98157D01*
X98490Y98323D01*
X98564Y98471D01*
X98620Y98619D01*
X98657Y98749D01*
X98675Y98823D01*
Y98860D01*
X101638Y98694D01*
X101582Y98416D01*
X101527Y98138D01*
X101453Y97897D01*
X101360Y97675D01*
X101268Y97472D01*
X101157Y97268D01*
X101064Y97101D01*
X100953Y96953D01*
X100749Y96712D01*
X100583Y96527D01*
X100453Y96434D01*
X100434Y96397D01*
X100416D01*
X100212Y96268D01*
X99990Y96157D01*
X99527Y95972D01*
X99027Y95842D01*
X98546Y95749D01*
X98324Y95712D01*
X98120Y95694D01*
X97935Y95675D01*
X97768D01*
X97638Y95657D01*
X97453D01*
X96898Y95675D01*
X96398Y95712D01*
X95972Y95786D01*
X95768Y95823D01*
X95602Y95861D01*
X95454Y95898D01*
X95324Y95935D01*
X95213Y95972D01*
X95120Y96009D01*
X95046Y96027D01*
X94991Y96046D01*
X94972Y96064D01*
X94953D01*
X94639Y96231D01*
X94361Y96397D01*
X94120Y96583D01*
X93935Y96749D01*
X93787Y96916D01*
X93676Y97046D01*
X93602Y97120D01*
X93583Y97157D01*
X93435Y97416D01*
X93324Y97675D01*
X93250Y97934D01*
X93195Y98157D01*
X93157Y98342D01*
X93139Y98508D01*
Y98601D01*
Y98619D01*
Y98638D01*
X93157Y98860D01*
X93176Y99064D01*
X93268Y99434D01*
X93417Y99768D01*
X93583Y100045D01*
X93731Y100286D01*
X93880Y100453D01*
X93972Y100545D01*
X94009Y100564D01*
Y100582D01*
X94194Y100730D01*
X94398Y100860D01*
X94842Y101101D01*
X95324Y101304D01*
X95824Y101490D01*
X96046Y101564D01*
X96250Y101619D01*
X96453Y101675D01*
X96620Y101730D01*
X96750Y101749D01*
X96861Y101786D01*
X96935Y101804D01*
X96953D01*
X97176Y101860D01*
X97379Y101915D01*
X97564Y101952D01*
X97731Y102008D01*
X98009Y102119D01*
X98231Y102212D01*
X98379Y102286D01*
X98490Y102341D01*
X98546Y102378D01*
X98564Y102397D01*
X98675Y102508D01*
X98768Y102638D01*
X98823Y102749D01*
X98879Y102860D01*
X98898Y102952D01*
X98916Y103026D01*
Y103082D01*
Y103101D01*
X98898Y103249D01*
X98861Y103397D01*
X98805Y103526D01*
X98731Y103638D01*
X98657Y103712D01*
X98601Y103786D01*
X98564Y103823D01*
X98546Y103841D01*
X98398Y103934D01*
X98231Y104008D01*
X98064Y104063D01*
X97898Y104100D01*
X97731Y104119D01*
X97620Y104137D01*
X97509D01*
X97194Y104119D01*
X96916Y104045D01*
X96676Y103952D01*
X96472Y103823D01*
X96324Y103712D01*
X96213Y103619D01*
X96139Y103545D01*
X96120Y103526D01*
X96027Y103378D01*
X95935Y103193D01*
X95824Y102823D01*
X95768Y102675D01*
X95750Y102545D01*
X95731Y102452D01*
Y102415D01*
X92750Y102619D01*
X92787Y102897D01*
X92843Y103175D01*
X92972Y103656D01*
X93157Y104100D01*
X93361Y104471D01*
X93454Y104619D01*
X93546Y104767D01*
X93639Y104878D01*
X93713Y104971D01*
X93769Y105045D01*
X93824Y105100D01*
X93842Y105137D01*
X93861Y105156D01*
X94065Y105323D01*
X94305Y105471D01*
X94565Y105619D01*
X94842Y105730D01*
X95435Y105897D01*
X96027Y106008D01*
X96324Y106063D01*
X96583Y106082D01*
X96824Y106100D01*
X97027Y106119D01*
X97213Y106137D01*
X97453D01*
X97990Y106119D01*
D02*
G37*
%LPC*%
G36*
X109730Y138963D02*
X107508D01*
X108619Y135334D01*
X109730Y138963D01*
D02*
G37*
G36*
X193073Y136797D02*
X191647D01*
Y134742D01*
X193017D01*
X193314Y134760D01*
X193573Y134779D01*
X193777Y134834D01*
X193943Y134871D01*
X194054Y134927D01*
X194147Y134982D01*
X194184Y135001D01*
X194202Y135019D01*
X194314Y135131D01*
X194388Y135242D01*
X194443Y135371D01*
X194480Y135482D01*
X194499Y135593D01*
X194517Y135686D01*
Y135742D01*
Y135760D01*
Y135890D01*
X194480Y136001D01*
X194425Y136186D01*
X194388Y136260D01*
X194351Y136297D01*
X194332Y136334D01*
X194314Y136353D01*
X194240Y136445D01*
X194147Y136519D01*
X193980Y136612D01*
X193906Y136630D01*
X193851Y136649D01*
X193814Y136667D01*
X193795D01*
X193591Y136704D01*
X193406Y136741D01*
X193258Y136760D01*
X193147Y136778D01*
X193073Y136797D01*
D02*
G37*
G36*
X216089Y99934D02*
X214663D01*
Y97879D01*
X216034D01*
X216330Y97897D01*
X216589Y97916D01*
X216793Y97971D01*
X216959Y98008D01*
X217071Y98064D01*
X217163Y98119D01*
X217200Y98138D01*
X217219Y98157D01*
X217330Y98268D01*
X217404Y98379D01*
X217459Y98508D01*
X217496Y98619D01*
X217515Y98731D01*
X217533Y98823D01*
Y98879D01*
Y98897D01*
Y99027D01*
X217496Y99138D01*
X217441Y99323D01*
X217404Y99397D01*
X217367Y99434D01*
X217348Y99471D01*
X217330Y99490D01*
X217256Y99582D01*
X217163Y99656D01*
X216996Y99749D01*
X216922Y99768D01*
X216867Y99786D01*
X216830Y99805D01*
X216811D01*
X216608Y99842D01*
X216422Y99879D01*
X216274Y99897D01*
X216163Y99916D01*
X216089Y99934D01*
D02*
G37*
G36*
X205275Y100138D02*
X204368D01*
Y97879D01*
X205257D01*
X205553Y97897D01*
X205812Y97934D01*
X206016Y97990D01*
X206183Y98046D01*
X206294Y98101D01*
X206386Y98157D01*
X206423Y98194D01*
X206442Y98212D01*
X206553Y98342D01*
X206627Y98471D01*
X206701Y98619D01*
X206738Y98749D01*
X206757Y98860D01*
X206775Y98953D01*
Y99008D01*
Y99027D01*
X206757Y99212D01*
X206720Y99360D01*
X206664Y99508D01*
X206590Y99619D01*
X206516Y99712D01*
X206460Y99786D01*
X206423Y99823D01*
X206405Y99842D01*
X206238Y99934D01*
X206053Y100008D01*
X205831Y100064D01*
X205627Y100101D01*
X205442Y100119D01*
X205275Y100138D01*
D02*
G37*
G36*
X227477Y103786D02*
X227384D01*
X227032Y103749D01*
X226718Y103674D01*
X226440Y103582D01*
X226218Y103452D01*
X226051Y103323D01*
X225921Y103230D01*
X225829Y103156D01*
X225810Y103119D01*
X225718Y102989D01*
X225625Y102841D01*
X225496Y102490D01*
X225385Y102119D01*
X225329Y101767D01*
X225292Y101434D01*
X225273Y101286D01*
Y101156D01*
X225255Y101064D01*
Y100990D01*
Y100934D01*
Y100915D01*
Y100638D01*
X225273Y100379D01*
X225310Y100138D01*
X225347Y99916D01*
X225385Y99731D01*
X225440Y99545D01*
X225496Y99379D01*
X225551Y99230D01*
X225644Y99008D01*
X225736Y98842D01*
X225810Y98749D01*
X225829Y98712D01*
X226051Y98490D01*
X226310Y98323D01*
X226569Y98194D01*
X226810Y98119D01*
X227014Y98064D01*
X227199Y98046D01*
X227310Y98027D01*
X227347D01*
X227699Y98064D01*
X228014Y98138D01*
X228292Y98231D01*
X228514Y98360D01*
X228680Y98490D01*
X228810Y98582D01*
X228903Y98657D01*
X228921Y98694D01*
X229125Y98971D01*
X229273Y99305D01*
X229366Y99656D01*
X229440Y99990D01*
X229477Y100304D01*
X229495Y100434D01*
X229514Y100545D01*
Y100656D01*
Y100730D01*
Y100767D01*
Y100786D01*
Y101101D01*
X229495Y101378D01*
X229458Y101638D01*
X229421Y101878D01*
X229384Y102082D01*
X229328Y102286D01*
X229273Y102452D01*
X229236Y102601D01*
X229180Y102730D01*
X229125Y102841D01*
X229069Y102934D01*
X229032Y103008D01*
X228958Y103101D01*
X228940Y103138D01*
X228717Y103360D01*
X228458Y103508D01*
X228199Y103619D01*
X227958Y103712D01*
X227736Y103749D01*
X227551Y103767D01*
X227477Y103786D01*
D02*
G37*
%LPD*%
D11*
X26500Y-15550D02*
Y-1250D01*
X42750D01*
X92750D02*
X109000D01*
Y-15550D02*
Y-1250D01*
X105000Y256500D02*
Y270800D01*
X88750Y256500D02*
X105000D01*
X22500D02*
X38750D01*
X22500D02*
Y270800D01*
D12*
X50000Y15250D02*
G03*
X50000Y15250I-1000J0D01*
G01*
X83500Y240000D02*
G03*
X83500Y240000I-1000J0D01*
G01*
X-18750Y116003D02*
Y122667D01*
X-17417Y124000D01*
X-14751D01*
X-13418Y122667D01*
Y116003D01*
X-5421Y117336D02*
X-6754Y116003D01*
X-9420D01*
X-10753Y117336D01*
Y118668D01*
X-9420Y120001D01*
X-6754D01*
X-5421Y121334D01*
Y122667D01*
X-6754Y124000D01*
X-9420D01*
X-10753Y122667D01*
X-2755Y116003D02*
Y124000D01*
X1244D01*
X2576Y122667D01*
Y121334D01*
X1244Y120001D01*
X-2755D01*
X1244D01*
X2576Y118668D01*
Y117336D01*
X1244Y116003D01*
X-2755D01*
D14*
X-23250Y133500D02*
X8000D01*
X15750Y125750D01*
Y125250D02*
Y125750D01*
X-24250Y107500D02*
X9000D01*
X17500Y116000D01*
X18000D01*
X365250Y108750D02*
X377250D01*
X384500Y116000D01*
X322000D02*
X384500D01*
X288750Y115750D02*
X306500D01*
X324000Y8250D02*
Y30250D01*
X316750Y1000D02*
X324000Y8250D01*
X316750Y1000D02*
Y68250D01*
X269750Y115250D02*
X316750Y68250D01*
X17000Y115250D02*
X269750Y115250D01*
X324500Y247500D02*
Y262750D01*
X316750Y270500D02*
X324500Y262750D01*
X316750Y173250D02*
Y270500D01*
X269500Y126000D02*
X316750Y173250D01*
X15750Y126000D02*
X269500Y126000D01*
D18*
X402193Y60696D02*
X403359Y59530D01*
X405692D01*
X406858Y60696D01*
Y61862D01*
X405692Y63029D01*
X404526D01*
X405692D01*
X406858Y64195D01*
Y65361D01*
X405692Y66528D01*
X403359D01*
X402193Y65361D01*
X409191Y59530D02*
Y64195D01*
X411524Y66528D01*
X413856Y64195D01*
Y59530D01*
X416189Y60696D02*
X417355Y59530D01*
X419688D01*
X420854Y60696D01*
Y61862D01*
X419688Y63029D01*
X418521D01*
X419688D01*
X420854Y64195D01*
Y65361D01*
X419688Y66528D01*
X417355D01*
X416189Y65361D01*
X392863Y85651D02*
X391697Y84484D01*
X389364D01*
X388198Y85651D01*
Y86817D01*
X389364Y87983D01*
X391697D01*
X392863Y89150D01*
Y90316D01*
X391697Y91482D01*
X389364D01*
X388198Y90316D01*
X395196Y84484D02*
Y91482D01*
X397528Y89150D01*
X399861Y91482D01*
Y84484D01*
X406858Y85651D02*
X405692Y84484D01*
X403359D01*
X402193Y85651D01*
Y90316D01*
X403359Y91482D01*
X405692D01*
X406858Y90316D01*
X409191Y84484D02*
Y91482D01*
X413856D01*
X416189Y84484D02*
Y91482D01*
Y89150D01*
X420854Y84484D01*
X417355Y87983D01*
X420854Y91482D01*
X406858Y110605D02*
X405692Y109439D01*
X403359D01*
X402193Y110605D01*
Y115270D01*
X403359Y116437D01*
X405692D01*
X406858Y115270D01*
Y112938D01*
X404526D01*
X409191Y116437D02*
Y109439D01*
X413856Y116437D01*
Y109439D01*
X416189D02*
Y116437D01*
X419688D01*
X420854Y115270D01*
Y110605D01*
X419688Y109439D01*
X416189D01*
X394029Y135560D02*
X392863Y134393D01*
X390530D01*
X389364Y135560D01*
Y136726D01*
X390530Y137892D01*
X392863D01*
X394029Y139059D01*
Y140225D01*
X392863Y141391D01*
X390530D01*
X389364Y140225D01*
X396362Y134393D02*
Y141391D01*
X398694Y139059D01*
X401027Y141391D01*
Y134393D01*
X403359D02*
Y141391D01*
X406858D01*
X408025Y140225D01*
Y135560D01*
X406858Y134393D01*
X403359D01*
X410357D02*
X412690D01*
X411524D01*
Y141391D01*
X410357D01*
X412690D01*
X419688Y134393D02*
X417355D01*
X416189Y135560D01*
Y140225D01*
X417355Y141391D01*
X419688D01*
X420854Y140225D01*
Y135560D01*
X419688Y134393D01*
X395196Y166346D02*
Y159348D01*
X399861Y166346D01*
Y159348D01*
X402193Y166346D02*
Y159348D01*
X405692D01*
X406858Y160514D01*
Y162847D01*
X405692Y164013D01*
X402193D01*
X404526D02*
X406858Y166346D01*
X413856Y160514D02*
X412690Y159348D01*
X410357D01*
X409191Y160514D01*
Y161680D01*
X410357Y162847D01*
X412690D01*
X413856Y164013D01*
Y165179D01*
X412690Y166346D01*
X410357D01*
X409191Y165179D01*
X416189Y159348D02*
X420854D01*
X418521D01*
Y166346D01*
X406858Y185469D02*
X405692Y184302D01*
X403359D01*
X402193Y185469D01*
Y186635D01*
X403359Y187801D01*
X405692D01*
X406858Y188967D01*
Y190134D01*
X405692Y191300D01*
X403359D01*
X402193Y190134D01*
X409191Y184302D02*
Y191300D01*
X411524Y188967D01*
X413856Y191300D01*
Y184302D01*
X419688D02*
X417355D01*
X416189Y185469D01*
Y190134D01*
X417355Y191300D01*
X419688D01*
X420854Y190134D01*
Y185469D01*
X419688Y184302D01*
X267088Y272553D02*
X265588Y271053D01*
X262589D01*
X261090Y272553D01*
Y278550D01*
X262589Y280050D01*
X265588D01*
X267088Y278550D01*
X270087Y280050D02*
Y274052D01*
X273086Y271053D01*
X276085Y274052D01*
Y280050D01*
Y275551D01*
X270087D01*
X279084Y280050D02*
Y271053D01*
X285082Y280050D01*
Y271053D01*
X366056Y272553D02*
X364556Y271053D01*
X361557D01*
X360058Y272553D01*
Y278550D01*
X361557Y280050D01*
X364556D01*
X366056Y278550D01*
X369055Y280050D02*
Y274052D01*
X372054Y271053D01*
X375053Y274052D01*
Y280050D01*
Y275551D01*
X369055D01*
X378052Y280050D02*
Y271053D01*
X384050Y280050D01*
Y271053D01*
X42287Y235307D02*
X41121Y234140D01*
Y231808D01*
X42287Y230642D01*
X43453D01*
X44619Y231808D01*
Y232974D01*
Y231808D01*
X45786Y230642D01*
X46952D01*
X48118Y231808D01*
Y234140D01*
X46952Y235307D01*
X41121Y228309D02*
X45786D01*
X48118Y225976D01*
X45786Y223644D01*
X41121D01*
X42287Y221311D02*
X41121Y220145D01*
Y217812D01*
X42287Y216646D01*
X43453D01*
X44619Y217812D01*
Y218979D01*
Y217812D01*
X45786Y216646D01*
X46952D01*
X48118Y217812D01*
Y220145D01*
X46952Y221311D01*
X79719Y230642D02*
X78552Y231808D01*
Y234140D01*
X79719Y235307D01*
X84384D01*
X85550Y234140D01*
Y231808D01*
X84384Y230642D01*
X82051D01*
Y232974D01*
X85550Y228309D02*
X78552D01*
X85550Y223644D01*
X78552D01*
Y221311D02*
X85550D01*
Y217812D01*
X84384Y216646D01*
X79719D01*
X78552Y217812D01*
Y221311D01*
X89463Y-31807D02*
X90630Y-30640D01*
Y-28308D01*
X89463Y-27142D01*
X88297D01*
X87131Y-28308D01*
Y-29474D01*
Y-28308D01*
X85964Y-27142D01*
X84798D01*
X83632Y-28308D01*
Y-30640D01*
X84798Y-31807D01*
X90630Y-24809D02*
X85964D01*
X83632Y-22476D01*
X85964Y-20144D01*
X90630D01*
X89463Y-17811D02*
X90630Y-16645D01*
Y-14312D01*
X89463Y-13146D01*
X88297D01*
X87131Y-14312D01*
Y-15479D01*
Y-14312D01*
X85964Y-13146D01*
X84798D01*
X83632Y-14312D01*
Y-16645D01*
X84798Y-17811D01*
X52031Y-27142D02*
X53198Y-28308D01*
Y-30640D01*
X52031Y-31807D01*
X47366D01*
X46200Y-30640D01*
Y-28308D01*
X47366Y-27142D01*
X49699D01*
Y-29474D01*
X46200Y-24809D02*
X53198D01*
X46200Y-20144D01*
X53198D01*
Y-17811D02*
X46200D01*
Y-14312D01*
X47366Y-13146D01*
X52031D01*
X53198Y-14312D01*
Y-17811D01*
X308078Y-25197D02*
X314076D01*
X311077D01*
Y-16200D01*
X317075D02*
Y-22198D01*
X320074Y-25197D01*
X323073Y-22198D01*
Y-16200D01*
Y-20698D01*
X317075D01*
X326072Y-16200D02*
Y-25197D01*
X330571D01*
X332070Y-23698D01*
Y-20698D01*
X330571Y-19199D01*
X326072D01*
X329071D02*
X332070Y-16200D01*
X341068Y-23698D02*
X339568Y-25197D01*
X336569D01*
X335069Y-23698D01*
Y-17700D01*
X336569Y-16200D01*
X339568D01*
X341068Y-17700D01*
Y-20698D01*
X338069D01*
X350065Y-25197D02*
X344067D01*
Y-16200D01*
X350065D01*
X344067Y-20698D02*
X347066D01*
X353064Y-25197D02*
X359062D01*
X356063D01*
Y-16200D01*
X377056Y-23698D02*
X375556Y-25197D01*
X372557D01*
X371058Y-23698D01*
Y-22198D01*
X372557Y-20698D01*
X375556D01*
X377056Y-19199D01*
Y-17700D01*
X375556Y-16200D01*
X372557D01*
X371058Y-17700D01*
X380055Y-25197D02*
Y-16200D01*
X383054Y-19199D01*
X386053Y-16200D01*
Y-25197D01*
X389052D02*
Y-16200D01*
X393550D01*
X395050Y-17700D01*
Y-23698D01*
X393550Y-25197D01*
X389052D01*
X297750Y123753D02*
X303082D01*
X300416D01*
Y131750D01*
X305747D02*
Y126418D01*
X308413Y123753D01*
X311079Y126418D01*
Y131750D01*
Y127751D01*
X305747D01*
X313745Y131750D02*
Y123753D01*
X317744D01*
X319076Y125085D01*
Y127751D01*
X317744Y129084D01*
X313745D01*
X316411D02*
X319076Y131750D01*
X327074Y125085D02*
X325741Y123753D01*
X323075D01*
X321742Y125085D01*
Y130417D01*
X323075Y131750D01*
X325741D01*
X327074Y130417D01*
Y127751D01*
X324408D01*
X335071Y123753D02*
X329740D01*
Y131750D01*
X335071D01*
X329740Y127751D02*
X332406D01*
X337737Y123753D02*
X343069D01*
X340403D01*
Y131750D01*
X359063Y125085D02*
X357731Y123753D01*
X355065D01*
X353732Y125085D01*
Y126418D01*
X355065Y127751D01*
X357731D01*
X359063Y129084D01*
Y130417D01*
X357731Y131750D01*
X355065D01*
X353732Y130417D01*
X361729Y123753D02*
Y131750D01*
X364395Y129084D01*
X367061Y131750D01*
Y123753D01*
X369727D02*
Y131750D01*
X373726D01*
X375058Y130417D01*
Y125085D01*
X373726Y123753D01*
X369727D01*
X377724Y131750D02*
X380390D01*
X379057D01*
Y123753D01*
X377724Y125085D01*
D77*
X117090Y154003D02*
Y160668D01*
X120423Y164000D01*
X123755Y160668D01*
Y154003D01*
X137084Y164000D02*
X140416D01*
X138750D01*
Y154003D01*
X137084Y155669D01*
X145414Y164000D02*
Y162334D01*
X147081D01*
Y164000D01*
X145414D01*
X153745Y155669D02*
X155411Y154003D01*
X158743D01*
X160410Y155669D01*
Y157335D01*
X158743Y159002D01*
X157077D01*
X158743D01*
X160410Y160668D01*
Y162334D01*
X158743Y164000D01*
X155411D01*
X153745Y162334D01*
M02*
