G04*
G04 #@! TF.GenerationSoftware,Altium Limited,Altium Designer,21.6.1 (37)*
G04*
G04 Layer_Color=32896*
%FSLAX44Y44*%
%MOMM*%
G71*
G04*
G04 #@! TF.SameCoordinates,94B42DE2-6481-4BAD-BED8-F4CECB33EB55*
G04*
G04*
G04 #@! TF.FilePolarity,Positive*
G04*
G01*
G75*
%ADD10C,0.1270*%
%ADD11C,0.2000*%
%ADD14C,0.6000*%
%ADD17C,0.1700*%
%ADD97C,0.3000*%
G36*
X65905Y147774D02*
X59017D01*
X51425Y168069D01*
X57832D01*
X58832Y164736D01*
X65942D01*
X66942Y168069D01*
X73534D01*
X65905Y147774D01*
D02*
G37*
G36*
X239072Y162218D02*
X238961Y162032D01*
X238850Y161847D01*
X238554Y161403D01*
X238406Y161255D01*
X238295Y161106D01*
X238221Y160995D01*
X238184Y160958D01*
X237962Y160662D01*
X237739Y160440D01*
X237591Y160255D01*
X237443Y160107D01*
X237332Y159995D01*
X237258Y159921D01*
X237184Y159884D01*
X236962Y159736D01*
X236702Y159625D01*
X236184Y159366D01*
X235925Y159292D01*
X235740Y159218D01*
X235591Y159144D01*
X235554D01*
X236036Y158996D01*
X236480Y158884D01*
X236851Y158736D01*
X237184Y158625D01*
X237406Y158514D01*
X237591Y158403D01*
X237702Y158366D01*
X237739Y158329D01*
X238184Y158033D01*
X238591Y157699D01*
X238924Y157366D01*
X239221Y157070D01*
X239443Y156774D01*
X239628Y156551D01*
X239702Y156403D01*
X239739Y156366D01*
X239998Y155885D01*
X240184Y155366D01*
X240295Y154885D01*
X240406Y154440D01*
X240443Y154033D01*
X240480Y153737D01*
Y153515D01*
Y153441D01*
X240443Y152737D01*
X240332Y152107D01*
X240184Y151552D01*
X239998Y151070D01*
X239813Y150663D01*
X239665Y150367D01*
X239554Y150219D01*
X239517Y150145D01*
X239147Y149663D01*
X238739Y149293D01*
X238332Y148960D01*
X237924Y148700D01*
X237591Y148515D01*
X237295Y148404D01*
X237110Y148330D01*
X237036Y148293D01*
X236406Y148108D01*
X235702Y147997D01*
X234962Y147886D01*
X234258Y147849D01*
X233592Y147812D01*
X233332Y147774D01*
X222148D01*
Y168069D01*
X228444D01*
Y159847D01*
X228962D01*
X229296Y159884D01*
X229592Y159921D01*
X229851Y159995D01*
X230074Y160070D01*
X230259Y160181D01*
X230407Y160255D01*
X230481Y160292D01*
X230518Y160329D01*
X230703Y160514D01*
X230925Y160736D01*
X231296Y161255D01*
X231444Y161477D01*
X231555Y161699D01*
X231629Y161847D01*
X231666Y161884D01*
X235036Y168069D01*
X242146D01*
X239072Y162218D01*
D02*
G37*
G36*
X42167Y168365D02*
X43056Y168291D01*
X43833Y168143D01*
X44463Y167995D01*
X44981Y167883D01*
X45389Y167735D01*
X45500Y167698D01*
X45611Y167661D01*
X45648Y167624D01*
X45685D01*
X46315Y167291D01*
X46907Y166921D01*
X47389Y166550D01*
X47833Y166180D01*
X48166Y165810D01*
X48426Y165550D01*
X48611Y165365D01*
X48648Y165291D01*
X49092Y164662D01*
X49426Y164032D01*
X49759Y163403D01*
X49981Y162773D01*
X50203Y162255D01*
X50314Y161810D01*
X50351Y161662D01*
X50388Y161551D01*
X50425Y161477D01*
Y161440D01*
X44945Y159736D01*
X44759Y160440D01*
X44537Y161032D01*
X44315Y161551D01*
X44093Y161958D01*
X43908Y162292D01*
X43722Y162514D01*
X43611Y162662D01*
X43574Y162699D01*
X43204Y163032D01*
X42760Y163291D01*
X42315Y163440D01*
X41871Y163588D01*
X41463Y163662D01*
X41130Y163699D01*
X40834D01*
X40167Y163662D01*
X39612Y163514D01*
X39093Y163328D01*
X38686Y163069D01*
X38390Y162847D01*
X38130Y162662D01*
X37982Y162514D01*
X37945Y162477D01*
X37760Y162218D01*
X37612Y161921D01*
X37353Y161218D01*
X37205Y160440D01*
X37056Y159699D01*
X36982Y158996D01*
Y158662D01*
X36945Y158403D01*
Y158181D01*
Y157996D01*
Y157885D01*
Y157847D01*
X36982Y156885D01*
X37094Y156070D01*
X37205Y155403D01*
X37390Y154848D01*
X37538Y154440D01*
X37649Y154107D01*
X37760Y153959D01*
X37797Y153885D01*
X38019Y153589D01*
X38242Y153293D01*
X38760Y152885D01*
X39316Y152552D01*
X39834Y152367D01*
X40315Y152219D01*
X40723Y152182D01*
X40834Y152144D01*
X41389D01*
X41723Y152219D01*
X42019Y152255D01*
X42278Y152330D01*
X42463Y152404D01*
X42649Y152478D01*
X42723Y152515D01*
X42760Y152552D01*
X43278Y152885D01*
X43685Y153255D01*
X43833Y153404D01*
X43982Y153552D01*
X44019Y153626D01*
X44056Y153663D01*
X44167Y153848D01*
X44278Y154033D01*
X44500Y154478D01*
X44574Y154663D01*
X44648Y154848D01*
X44685Y154959D01*
Y154996D01*
X50240Y153774D01*
X50018Y153181D01*
X49796Y152626D01*
X49537Y152144D01*
X49277Y151663D01*
X49018Y151219D01*
X48722Y150848D01*
X48463Y150478D01*
X48203Y150182D01*
X47944Y149885D01*
X47722Y149663D01*
X47500Y149441D01*
X47315Y149293D01*
X47167Y149145D01*
X47055Y149071D01*
X46981Y148997D01*
X46944D01*
X46500Y148737D01*
X46055Y148478D01*
X45093Y148108D01*
X44093Y147811D01*
X43093Y147626D01*
X42649Y147552D01*
X42241Y147515D01*
X41871Y147478D01*
X41537D01*
X41278Y147441D01*
X40908D01*
X40019Y147478D01*
X39167Y147552D01*
X38390Y147700D01*
X37649Y147849D01*
X36982Y148071D01*
X36353Y148293D01*
X35760Y148552D01*
X35279Y148774D01*
X34797Y149034D01*
X34427Y149293D01*
X34094Y149515D01*
X33798Y149737D01*
X33612Y149885D01*
X33427Y150034D01*
X33353Y150108D01*
X33316Y150145D01*
X32835Y150663D01*
X32427Y151256D01*
X32094Y151848D01*
X31761Y152478D01*
X31502Y153144D01*
X31316Y153774D01*
X31131Y154403D01*
X30983Y155033D01*
X30872Y155625D01*
X30798Y156144D01*
X30724Y156625D01*
X30687Y157070D01*
Y157403D01*
X30650Y157662D01*
Y157810D01*
Y157885D01*
X30724Y159218D01*
X30798Y159847D01*
X30872Y160440D01*
X31020Y160995D01*
X31131Y161514D01*
X31279Y161995D01*
X31427Y162403D01*
X31539Y162810D01*
X31687Y163143D01*
X31835Y163440D01*
X31946Y163662D01*
X32020Y163847D01*
X32094Y163995D01*
X32168Y164069D01*
Y164106D01*
X32761Y164958D01*
X33353Y165662D01*
X33983Y166217D01*
X34538Y166698D01*
X35020Y167032D01*
X35427Y167291D01*
X35575Y167365D01*
X35686Y167439D01*
X35723Y167476D01*
X35760D01*
X36612Y167772D01*
X37501Y167995D01*
X38427Y168180D01*
X39278Y168291D01*
X39686Y168328D01*
X40056Y168365D01*
X40352D01*
X40649Y168402D01*
X41204D01*
X42167Y168365D01*
D02*
G37*
G36*
X148563Y147774D02*
X142638D01*
Y159033D01*
X134935Y147774D01*
X129121D01*
Y168069D01*
X135009D01*
Y156885D01*
X142638Y168069D01*
X148563D01*
Y147774D01*
D02*
G37*
G36*
X95013Y147774D02*
X89088D01*
Y159033D01*
X81385Y147774D01*
X75571D01*
Y168069D01*
X81459D01*
Y156885D01*
X89088Y168069D01*
X95013D01*
Y147774D01*
D02*
G37*
G36*
X218704Y163477D02*
X207891D01*
Y159477D01*
X217630D01*
Y155329D01*
X207891D01*
Y152107D01*
X218408D01*
Y147774D01*
X201595D01*
Y168069D01*
X218704D01*
Y163477D01*
D02*
G37*
G36*
X189004Y159773D02*
X196892D01*
Y155663D01*
X189004D01*
Y152144D01*
X198225D01*
Y147774D01*
X182708D01*
Y168069D01*
X189004D01*
Y159773D01*
D02*
G37*
G36*
X170080D02*
X177968D01*
Y155663D01*
X170080D01*
Y152144D01*
X179301D01*
Y147774D01*
X163784D01*
Y168069D01*
X170080D01*
Y159773D01*
D02*
G37*
G36*
X159266Y147774D02*
X152970D01*
Y168069D01*
X159266D01*
Y147774D01*
D02*
G37*
G36*
X117974Y168365D02*
X118900Y168291D01*
X119752Y168143D01*
X120455Y167995D01*
X120751Y167921D01*
X121011Y167847D01*
X121270Y167773D01*
X121455Y167698D01*
X121603Y167661D01*
X121714Y167624D01*
X121751Y167587D01*
X121788D01*
X122492Y167217D01*
X123085Y166847D01*
X123603Y166439D01*
X124047Y166032D01*
X124381Y165662D01*
X124640Y165365D01*
X124788Y165180D01*
X124825Y165106D01*
X125196Y164477D01*
X125455Y163847D01*
X125677Y163217D01*
X125788Y162662D01*
X125862Y162180D01*
X125936Y161810D01*
Y161662D01*
Y161551D01*
Y161514D01*
Y161477D01*
X125899Y160884D01*
X125825Y160292D01*
X125677Y159810D01*
X125529Y159366D01*
X125381Y158996D01*
X125232Y158699D01*
X125158Y158551D01*
X125121Y158477D01*
X124788Y157996D01*
X124381Y157551D01*
X123936Y157181D01*
X123529Y156848D01*
X123122Y156588D01*
X122825Y156403D01*
X122603Y156292D01*
X122566Y156255D01*
X122529D01*
X122159Y156070D01*
X121751Y155922D01*
X120863Y155589D01*
X119863Y155255D01*
X118900Y154996D01*
X118455Y154885D01*
X118011Y154774D01*
X117604Y154663D01*
X117270Y154589D01*
X117011Y154515D01*
X116789Y154478D01*
X116641Y154440D01*
X116604D01*
X116048Y154329D01*
X115604Y154181D01*
X115233Y154070D01*
X114974Y153959D01*
X114752Y153848D01*
X114641Y153774D01*
X114567Y153700D01*
X114530D01*
X114382Y153552D01*
X114271Y153404D01*
X114160Y153107D01*
X114086Y152885D01*
Y152848D01*
Y152811D01*
X114122Y152589D01*
X114160Y152367D01*
X114345Y151996D01*
X114530Y151774D01*
X114567Y151737D01*
X114604Y151700D01*
X114826Y151552D01*
X115085Y151404D01*
X115641Y151293D01*
X115900Y151256D01*
X116085Y151219D01*
X116271D01*
X116752Y151256D01*
X117159Y151330D01*
X117530Y151404D01*
X117826Y151515D01*
X118048Y151663D01*
X118196Y151737D01*
X118307Y151811D01*
X118344Y151848D01*
X118603Y152107D01*
X118826Y152441D01*
X118974Y152774D01*
X119122Y153070D01*
X119233Y153366D01*
X119307Y153626D01*
X119344Y153774D01*
Y153848D01*
X125269Y153515D01*
X125158Y152959D01*
X125047Y152404D01*
X124899Y151922D01*
X124714Y151478D01*
X124529Y151070D01*
X124307Y150663D01*
X124122Y150330D01*
X123899Y150034D01*
X123492Y149552D01*
X123159Y149182D01*
X122899Y148997D01*
X122862Y148923D01*
X122825D01*
X122418Y148663D01*
X121974Y148441D01*
X121048Y148071D01*
X120048Y147812D01*
X119085Y147626D01*
X118641Y147552D01*
X118233Y147515D01*
X117863Y147478D01*
X117530D01*
X117270Y147441D01*
X116900D01*
X115789Y147478D01*
X114789Y147552D01*
X113937Y147701D01*
X113530Y147774D01*
X113197Y147849D01*
X112900Y147923D01*
X112641Y147997D01*
X112419Y148071D01*
X112234Y148145D01*
X112086Y148182D01*
X111975Y148219D01*
X111938Y148256D01*
X111901D01*
X111271Y148589D01*
X110716Y148923D01*
X110234Y149293D01*
X109864Y149626D01*
X109567Y149959D01*
X109345Y150219D01*
X109197Y150367D01*
X109160Y150441D01*
X108864Y150959D01*
X108642Y151478D01*
X108493Y151996D01*
X108382Y152441D01*
X108308Y152811D01*
X108271Y153144D01*
Y153329D01*
Y153366D01*
Y153404D01*
X108308Y153848D01*
X108345Y154255D01*
X108531Y154996D01*
X108827Y155663D01*
X109160Y156218D01*
X109456Y156699D01*
X109753Y157033D01*
X109938Y157218D01*
X110012Y157255D01*
Y157292D01*
X110382Y157588D01*
X110789Y157847D01*
X111678Y158329D01*
X112641Y158736D01*
X113641Y159107D01*
X114086Y159255D01*
X114493Y159366D01*
X114900Y159477D01*
X115233Y159588D01*
X115493Y159625D01*
X115715Y159699D01*
X115863Y159736D01*
X115900D01*
X116344Y159847D01*
X116752Y159958D01*
X117122Y160033D01*
X117456Y160144D01*
X118011Y160366D01*
X118455Y160551D01*
X118752Y160699D01*
X118974Y160810D01*
X119085Y160884D01*
X119122Y160921D01*
X119344Y161143D01*
X119529Y161403D01*
X119641Y161625D01*
X119752Y161847D01*
X119789Y162032D01*
X119826Y162180D01*
Y162292D01*
Y162329D01*
X119789Y162625D01*
X119714Y162921D01*
X119603Y163180D01*
X119455Y163403D01*
X119307Y163551D01*
X119196Y163699D01*
X119122Y163773D01*
X119085Y163810D01*
X118789Y163995D01*
X118455Y164143D01*
X118122Y164254D01*
X117789Y164328D01*
X117456Y164365D01*
X117233Y164402D01*
X117011D01*
X116382Y164365D01*
X115826Y164217D01*
X115345Y164032D01*
X114937Y163773D01*
X114641Y163551D01*
X114419Y163365D01*
X114271Y163217D01*
X114234Y163180D01*
X114049Y162884D01*
X113863Y162514D01*
X113641Y161773D01*
X113530Y161477D01*
X113493Y161218D01*
X113456Y161032D01*
Y160958D01*
X107494Y161366D01*
X107568Y161921D01*
X107679Y162477D01*
X107938Y163440D01*
X108308Y164328D01*
X108716Y165069D01*
X108901Y165365D01*
X109086Y165662D01*
X109271Y165884D01*
X109419Y166069D01*
X109530Y166217D01*
X109642Y166328D01*
X109678Y166402D01*
X109716Y166439D01*
X110123Y166772D01*
X110604Y167069D01*
X111123Y167365D01*
X111678Y167587D01*
X112863Y167921D01*
X114049Y168143D01*
X114641Y168254D01*
X115160Y168291D01*
X115641Y168328D01*
X116048Y168365D01*
X116419Y168402D01*
X116900D01*
X117974Y168365D01*
D02*
G37*
G36*
X134157Y74049D02*
X127269D01*
X119677Y94343D01*
X126084D01*
X127084Y91010D01*
X134194D01*
X135194Y94343D01*
X141786D01*
X134157Y74049D01*
D02*
G37*
G36*
X30168Y74049D02*
X23280D01*
X15688Y94343D01*
X22095D01*
X23095Y91010D01*
X30205D01*
X31205Y94343D01*
X37797D01*
X30168Y74049D01*
D02*
G37*
G36*
X247442Y88492D02*
X247331Y88307D01*
X247220Y88121D01*
X246924Y87677D01*
X246775Y87529D01*
X246664Y87381D01*
X246590Y87270D01*
X246553Y87233D01*
X246331Y86936D01*
X246109Y86714D01*
X245961Y86529D01*
X245813Y86381D01*
X245702Y86270D01*
X245627Y86196D01*
X245553Y86159D01*
X245331Y86011D01*
X245072Y85899D01*
X244554Y85640D01*
X244294Y85566D01*
X244109Y85492D01*
X243961Y85418D01*
X243924D01*
X244405Y85270D01*
X244850Y85159D01*
X245220Y85011D01*
X245553Y84900D01*
X245776Y84789D01*
X245961Y84677D01*
X246072Y84640D01*
X246109Y84603D01*
X246553Y84307D01*
X246961Y83974D01*
X247294Y83640D01*
X247590Y83344D01*
X247812Y83048D01*
X247997Y82826D01*
X248072Y82678D01*
X248109Y82640D01*
X248368Y82159D01*
X248553Y81641D01*
X248664Y81159D01*
X248775Y80715D01*
X248812Y80307D01*
X248849Y80011D01*
Y79789D01*
Y79715D01*
X248812Y79011D01*
X248701Y78382D01*
X248553Y77826D01*
X248368Y77345D01*
X248183Y76937D01*
X248035Y76641D01*
X247924Y76493D01*
X247886Y76419D01*
X247516Y75938D01*
X247109Y75567D01*
X246701Y75234D01*
X246294Y74975D01*
X245961Y74790D01*
X245665Y74678D01*
X245479Y74604D01*
X245405Y74567D01*
X244776Y74382D01*
X244072Y74271D01*
X243331Y74160D01*
X242628Y74123D01*
X241961Y74086D01*
X241702Y74049D01*
X230518D01*
Y94343D01*
X236814D01*
Y86122D01*
X237332D01*
X237665Y86159D01*
X237962Y86196D01*
X238221Y86270D01*
X238443Y86344D01*
X238628Y86455D01*
X238776Y86529D01*
X238850Y86566D01*
X238887Y86603D01*
X239072Y86788D01*
X239295Y87010D01*
X239665Y87529D01*
X239813Y87751D01*
X239924Y87973D01*
X239998Y88121D01*
X240035Y88159D01*
X243405Y94343D01*
X250516D01*
X247442Y88492D01*
D02*
G37*
G36*
X75645Y81715D02*
X83089Y74049D01*
X74719D01*
X68164Y81752D01*
Y74049D01*
X61906D01*
Y94343D01*
X68164D01*
Y89418D01*
X71386Y86048D01*
X75682Y94343D01*
X83422D01*
X75645Y81715D01*
D02*
G37*
G36*
X189226Y94639D02*
X190115Y94565D01*
X190892Y94417D01*
X191522Y94269D01*
X192040Y94158D01*
X192448Y94010D01*
X192559Y93973D01*
X192670Y93936D01*
X192707Y93899D01*
X192744D01*
X193374Y93565D01*
X193966Y93195D01*
X194447Y92825D01*
X194892Y92454D01*
X195225Y92084D01*
X195485Y91825D01*
X195670Y91640D01*
X195707Y91566D01*
X196151Y90936D01*
X196484Y90306D01*
X196818Y89677D01*
X197040Y89047D01*
X197262Y88529D01*
X197373Y88084D01*
X197410Y87936D01*
X197447Y87825D01*
X197484Y87751D01*
Y87714D01*
X192003Y86011D01*
X191818Y86714D01*
X191596Y87307D01*
X191374Y87825D01*
X191152Y88232D01*
X190966Y88566D01*
X190781Y88788D01*
X190670Y88936D01*
X190633Y88973D01*
X190263Y89306D01*
X189818Y89566D01*
X189374Y89714D01*
X188930Y89862D01*
X188522Y89936D01*
X188189Y89973D01*
X187893D01*
X187226Y89936D01*
X186671Y89788D01*
X186152Y89603D01*
X185745Y89344D01*
X185448Y89121D01*
X185189Y88936D01*
X185041Y88788D01*
X185004Y88751D01*
X184819Y88492D01*
X184671Y88195D01*
X184412Y87492D01*
X184263Y86714D01*
X184115Y85974D01*
X184041Y85270D01*
Y84937D01*
X184004Y84677D01*
Y84455D01*
Y84270D01*
Y84159D01*
Y84122D01*
X184041Y83159D01*
X184152Y82344D01*
X184263Y81678D01*
X184449Y81122D01*
X184597Y80715D01*
X184708Y80381D01*
X184819Y80233D01*
X184856Y80159D01*
X185078Y79863D01*
X185300Y79567D01*
X185819Y79159D01*
X186374Y78826D01*
X186893Y78641D01*
X187374Y78493D01*
X187782Y78456D01*
X187893Y78419D01*
X188448D01*
X188782Y78493D01*
X189078Y78530D01*
X189337Y78604D01*
X189522Y78678D01*
X189707Y78752D01*
X189781Y78789D01*
X189818Y78826D01*
X190337Y79159D01*
X190744Y79530D01*
X190892Y79678D01*
X191040Y79826D01*
X191077Y79900D01*
X191115Y79937D01*
X191226Y80122D01*
X191337Y80307D01*
X191559Y80752D01*
X191633Y80937D01*
X191707Y81122D01*
X191744Y81233D01*
Y81270D01*
X197299Y80048D01*
X197077Y79456D01*
X196855Y78900D01*
X196595Y78419D01*
X196336Y77937D01*
X196077Y77493D01*
X195781Y77123D01*
X195522Y76752D01*
X195262Y76456D01*
X195003Y76160D01*
X194781Y75938D01*
X194559Y75715D01*
X194373Y75567D01*
X194225Y75419D01*
X194114Y75345D01*
X194040Y75271D01*
X194003D01*
X193559Y75012D01*
X193114Y74752D01*
X192152Y74382D01*
X191152Y74086D01*
X190152Y73901D01*
X189707Y73827D01*
X189300Y73790D01*
X188930Y73753D01*
X188596D01*
X188337Y73716D01*
X187967D01*
X187078Y73753D01*
X186226Y73827D01*
X185448Y73975D01*
X184708Y74123D01*
X184041Y74345D01*
X183412Y74567D01*
X182819Y74826D01*
X182338Y75049D01*
X181856Y75308D01*
X181486Y75567D01*
X181153Y75789D01*
X180856Y76012D01*
X180671Y76160D01*
X180486Y76308D01*
X180412Y76382D01*
X180375Y76419D01*
X179893Y76937D01*
X179486Y77530D01*
X179153Y78123D01*
X178820Y78752D01*
X178560Y79419D01*
X178375Y80048D01*
X178190Y80678D01*
X178042Y81307D01*
X177931Y81900D01*
X177857Y82418D01*
X177783Y82900D01*
X177746Y83344D01*
Y83678D01*
X177708Y83937D01*
Y84085D01*
Y84159D01*
X177783Y85492D01*
X177857Y86122D01*
X177931Y86714D01*
X178079Y87270D01*
X178190Y87788D01*
X178338Y88270D01*
X178486Y88677D01*
X178597Y89084D01*
X178745Y89418D01*
X178894Y89714D01*
X179005Y89936D01*
X179079Y90121D01*
X179153Y90269D01*
X179227Y90343D01*
Y90380D01*
X179819Y91232D01*
X180412Y91936D01*
X181042Y92491D01*
X181597Y92973D01*
X182078Y93306D01*
X182486Y93565D01*
X182634Y93639D01*
X182745Y93714D01*
X182782Y93750D01*
X182819D01*
X183671Y94047D01*
X184560Y94269D01*
X185485Y94454D01*
X186337Y94565D01*
X186745Y94602D01*
X187115Y94639D01*
X187411D01*
X187708Y94676D01*
X188263D01*
X189226Y94639D01*
D02*
G37*
G36*
X50574Y94639D02*
X51462Y94565D01*
X52240Y94417D01*
X52870Y94269D01*
X53388Y94158D01*
X53795Y94010D01*
X53906Y93973D01*
X54018Y93936D01*
X54055Y93899D01*
X54092D01*
X54721Y93565D01*
X55314Y93195D01*
X55795Y92825D01*
X56240Y92454D01*
X56573Y92084D01*
X56832Y91825D01*
X57017Y91640D01*
X57054Y91566D01*
X57499Y90936D01*
X57832Y90306D01*
X58165Y89677D01*
X58388Y89047D01*
X58610Y88529D01*
X58721Y88084D01*
X58758Y87936D01*
X58795Y87825D01*
X58832Y87751D01*
Y87714D01*
X53351Y86011D01*
X53166Y86714D01*
X52944Y87307D01*
X52722Y87825D01*
X52499Y88232D01*
X52314Y88566D01*
X52129Y88788D01*
X52018Y88936D01*
X51981Y88973D01*
X51610Y89306D01*
X51166Y89566D01*
X50722Y89714D01*
X50277Y89862D01*
X49870Y89936D01*
X49537Y89973D01*
X49240D01*
X48574Y89936D01*
X48018Y89788D01*
X47500Y89603D01*
X47092Y89344D01*
X46796Y89121D01*
X46537Y88936D01*
X46389Y88788D01*
X46352Y88751D01*
X46167Y88492D01*
X46019Y88195D01*
X45759Y87492D01*
X45611Y86714D01*
X45463Y85974D01*
X45389Y85270D01*
Y84937D01*
X45352Y84677D01*
Y84455D01*
Y84270D01*
Y84159D01*
Y84122D01*
X45389Y83159D01*
X45500Y82344D01*
X45611Y81678D01*
X45796Y81122D01*
X45944Y80715D01*
X46055Y80381D01*
X46167Y80233D01*
X46204Y80159D01*
X46426Y79863D01*
X46648Y79567D01*
X47167Y79159D01*
X47722Y78826D01*
X48240Y78641D01*
X48722Y78493D01*
X49129Y78456D01*
X49240Y78419D01*
X49796D01*
X50129Y78493D01*
X50425Y78530D01*
X50685Y78604D01*
X50870Y78678D01*
X51055Y78752D01*
X51129Y78789D01*
X51166Y78826D01*
X51685Y79159D01*
X52092Y79530D01*
X52240Y79678D01*
X52388Y79826D01*
X52425Y79900D01*
X52462Y79937D01*
X52573Y80122D01*
X52684Y80307D01*
X52907Y80752D01*
X52981Y80937D01*
X53055Y81122D01*
X53092Y81233D01*
Y81270D01*
X58647Y80048D01*
X58425Y79456D01*
X58202Y78900D01*
X57943Y78419D01*
X57684Y77937D01*
X57425Y77493D01*
X57128Y77123D01*
X56869Y76752D01*
X56610Y76456D01*
X56351Y76160D01*
X56129Y75938D01*
X55906Y75715D01*
X55721Y75567D01*
X55573Y75419D01*
X55462Y75345D01*
X55388Y75271D01*
X55351D01*
X54906Y75012D01*
X54462Y74752D01*
X53499Y74382D01*
X52499Y74086D01*
X51499Y73901D01*
X51055Y73827D01*
X50648Y73790D01*
X50277Y73752D01*
X49944D01*
X49685Y73716D01*
X49314D01*
X48426Y73752D01*
X47574Y73827D01*
X46796Y73975D01*
X46055Y74123D01*
X45389Y74345D01*
X44759Y74567D01*
X44167Y74826D01*
X43685Y75049D01*
X43204Y75308D01*
X42834Y75567D01*
X42500Y75789D01*
X42204Y76012D01*
X42019Y76160D01*
X41834Y76308D01*
X41760Y76382D01*
X41723Y76419D01*
X41241Y76937D01*
X40834Y77530D01*
X40500Y78122D01*
X40167Y78752D01*
X39908Y79419D01*
X39723Y80048D01*
X39538Y80678D01*
X39390Y81307D01*
X39278Y81900D01*
X39204Y82418D01*
X39130Y82900D01*
X39093Y83344D01*
Y83677D01*
X39056Y83937D01*
Y84085D01*
Y84159D01*
X39130Y85492D01*
X39204Y86122D01*
X39278Y86714D01*
X39427Y87270D01*
X39538Y87788D01*
X39686Y88270D01*
X39834Y88677D01*
X39945Y89084D01*
X40093Y89418D01*
X40241Y89714D01*
X40352Y89936D01*
X40427Y90121D01*
X40500Y90269D01*
X40575Y90343D01*
Y90380D01*
X41167Y91232D01*
X41760Y91936D01*
X42389Y92491D01*
X42945Y92973D01*
X43426Y93306D01*
X43833Y93565D01*
X43982Y93639D01*
X44093Y93713D01*
X44130Y93750D01*
X44167D01*
X45019Y94047D01*
X45907Y94269D01*
X46833Y94454D01*
X47685Y94565D01*
X48092Y94602D01*
X48463Y94639D01*
X48759D01*
X49055Y94676D01*
X49611D01*
X50574Y94639D01*
D02*
G37*
G36*
X287105Y94639D02*
X288067Y94565D01*
X288956Y94454D01*
X289697Y94343D01*
X289993Y94269D01*
X290289Y94232D01*
X290512Y94158D01*
X290734Y94121D01*
X290882Y94084D01*
X290993Y94047D01*
X291067Y94010D01*
X291104D01*
X291919Y93714D01*
X292771Y93306D01*
X293622Y92862D01*
X294400Y92454D01*
X295067Y92047D01*
X295363Y91862D01*
X295585Y91714D01*
X295807Y91603D01*
X295956Y91491D01*
X296030Y91454D01*
X296067Y91417D01*
Y82752D01*
X286364D01*
Y86973D01*
X290586D01*
Y88899D01*
X290141Y89158D01*
X289697Y89381D01*
X289327Y89566D01*
X288993Y89677D01*
X288734Y89788D01*
X288549Y89862D01*
X288401Y89936D01*
X288364D01*
X287660Y90121D01*
X287327Y90158D01*
X286994Y90195D01*
X286734Y90232D01*
X286364D01*
X285586Y90158D01*
X284883Y90010D01*
X284290Y89788D01*
X283809Y89529D01*
X283401Y89270D01*
X283105Y89047D01*
X282957Y88899D01*
X282883Y88825D01*
X282661Y88529D01*
X282475Y88232D01*
X282179Y87492D01*
X281957Y86714D01*
X281809Y85936D01*
X281735Y85233D01*
X281698Y84937D01*
Y84640D01*
X281661Y84418D01*
Y84270D01*
Y84159D01*
Y84122D01*
Y83566D01*
X281698Y83048D01*
X281772Y82566D01*
X281846Y82122D01*
X281957Y81715D01*
X282031Y81344D01*
X282290Y80715D01*
X282512Y80233D01*
X282698Y79863D01*
X282846Y79678D01*
X282883Y79604D01*
X283364Y79122D01*
X283920Y78752D01*
X284475Y78493D01*
X284994Y78345D01*
X285475Y78234D01*
X285846Y78197D01*
X285994Y78159D01*
X286179D01*
X286697Y78197D01*
X287142Y78271D01*
X287512Y78345D01*
X287845Y78456D01*
X288104Y78604D01*
X288327Y78678D01*
X288438Y78752D01*
X288475Y78789D01*
X288771Y79048D01*
X289067Y79307D01*
X289290Y79604D01*
X289475Y79863D01*
X289586Y80122D01*
X289697Y80344D01*
X289771Y80493D01*
Y80530D01*
X295807Y79456D01*
X295585Y78752D01*
X295326Y78123D01*
X295030Y77567D01*
X294771Y77123D01*
X294511Y76752D01*
X294326Y76456D01*
X294178Y76308D01*
X294141Y76234D01*
X293696Y75789D01*
X293252Y75382D01*
X292771Y75049D01*
X292326Y74790D01*
X291956Y74604D01*
X291660Y74456D01*
X291437Y74382D01*
X291401Y74345D01*
X291363D01*
X291030Y74234D01*
X290660Y74123D01*
X289882Y73975D01*
X289030Y73864D01*
X288216Y73790D01*
X287475Y73753D01*
X287179Y73716D01*
X286327D01*
X285068Y73753D01*
X284512Y73790D01*
X283957Y73864D01*
X283475Y73938D01*
X283031Y74049D01*
X282587Y74123D01*
X282216Y74197D01*
X281883Y74308D01*
X281587Y74382D01*
X281327Y74493D01*
X281105Y74567D01*
X280957Y74604D01*
X280846Y74678D01*
X280772Y74715D01*
X280735D01*
X279809Y75234D01*
X278994Y75826D01*
X278328Y76456D01*
X277735Y77049D01*
X277291Y77604D01*
X276994Y78048D01*
X276883Y78234D01*
X276809Y78345D01*
X276735Y78419D01*
Y78456D01*
X276291Y79419D01*
X275958Y80381D01*
X275698Y81344D01*
X275550Y82233D01*
X275476Y82640D01*
X275439Y83011D01*
X275402Y83344D01*
Y83640D01*
X275365Y83863D01*
Y84048D01*
Y84159D01*
Y84196D01*
X275402Y85344D01*
X275550Y86418D01*
X275735Y87381D01*
X275847Y87825D01*
X275995Y88195D01*
X276106Y88566D01*
X276217Y88899D01*
X276291Y89158D01*
X276402Y89381D01*
X276476Y89566D01*
X276550Y89714D01*
X276587Y89788D01*
Y89825D01*
X277106Y90677D01*
X277661Y91417D01*
X278254Y92047D01*
X278809Y92528D01*
X279328Y92936D01*
X279735Y93232D01*
X279883Y93306D01*
X279994Y93380D01*
X280068Y93454D01*
X280105D01*
X281031Y93862D01*
X281994Y94158D01*
X282994Y94380D01*
X283920Y94528D01*
X284364Y94565D01*
X284771Y94602D01*
X285105Y94639D01*
X285438D01*
X285697Y94676D01*
X286031D01*
X287105Y94639D01*
D02*
G37*
G36*
X154748D02*
X155711Y94565D01*
X156600Y94454D01*
X157340Y94343D01*
X157636Y94269D01*
X157933Y94232D01*
X158155Y94158D01*
X158377Y94121D01*
X158525Y94084D01*
X158636Y94047D01*
X158710Y94010D01*
X158748D01*
X159562Y93714D01*
X160414Y93306D01*
X161266Y92862D01*
X162043Y92454D01*
X162710Y92047D01*
X163006Y91862D01*
X163229Y91714D01*
X163451Y91603D01*
X163599Y91491D01*
X163673Y91454D01*
X163710Y91417D01*
Y82752D01*
X154007D01*
Y86973D01*
X158229D01*
Y88899D01*
X157785Y89158D01*
X157340Y89381D01*
X156970Y89566D01*
X156637Y89677D01*
X156377Y89788D01*
X156192Y89862D01*
X156044Y89936D01*
X156007D01*
X155303Y90121D01*
X154970Y90158D01*
X154637Y90195D01*
X154378Y90232D01*
X154007D01*
X153230Y90158D01*
X152526Y90010D01*
X151933Y89788D01*
X151452Y89529D01*
X151045Y89270D01*
X150748Y89047D01*
X150600Y88899D01*
X150526Y88825D01*
X150304Y88529D01*
X150119Y88232D01*
X149823Y87492D01*
X149600Y86714D01*
X149452Y85936D01*
X149378Y85233D01*
X149341Y84937D01*
Y84640D01*
X149304Y84418D01*
Y84270D01*
Y84159D01*
Y84122D01*
Y83566D01*
X149341Y83048D01*
X149415Y82566D01*
X149489Y82122D01*
X149600Y81715D01*
X149674Y81344D01*
X149934Y80715D01*
X150156Y80233D01*
X150341Y79863D01*
X150489Y79678D01*
X150526Y79604D01*
X151008Y79122D01*
X151563Y78752D01*
X152119Y78493D01*
X152637Y78345D01*
X153118Y78234D01*
X153489Y78197D01*
X153637Y78159D01*
X153822D01*
X154341Y78197D01*
X154785Y78271D01*
X155155Y78345D01*
X155489Y78456D01*
X155748Y78604D01*
X155970Y78678D01*
X156081Y78752D01*
X156118Y78789D01*
X156414Y79048D01*
X156711Y79307D01*
X156933Y79604D01*
X157118Y79863D01*
X157229Y80122D01*
X157340Y80344D01*
X157414Y80493D01*
Y80530D01*
X163451Y79456D01*
X163229Y78752D01*
X162969Y78123D01*
X162673Y77567D01*
X162414Y77123D01*
X162155Y76752D01*
X161969Y76456D01*
X161821Y76308D01*
X161784Y76234D01*
X161340Y75789D01*
X160896Y75382D01*
X160414Y75049D01*
X159970Y74790D01*
X159599Y74604D01*
X159303Y74456D01*
X159081Y74382D01*
X159044Y74345D01*
X159007D01*
X158673Y74234D01*
X158303Y74123D01*
X157525Y73975D01*
X156674Y73864D01*
X155859Y73790D01*
X155118Y73753D01*
X154822Y73716D01*
X153970D01*
X152711Y73753D01*
X152156Y73790D01*
X151600Y73864D01*
X151119Y73938D01*
X150674Y74049D01*
X150230Y74123D01*
X149860Y74197D01*
X149526Y74308D01*
X149230Y74382D01*
X148971Y74493D01*
X148749Y74567D01*
X148600Y74604D01*
X148489Y74678D01*
X148415Y74715D01*
X148378D01*
X147452Y75234D01*
X146638Y75826D01*
X145971Y76456D01*
X145379Y77049D01*
X144934Y77604D01*
X144638Y78048D01*
X144527Y78234D01*
X144453Y78345D01*
X144379Y78419D01*
Y78456D01*
X143934Y79419D01*
X143601Y80381D01*
X143342Y81344D01*
X143194Y82233D01*
X143119Y82640D01*
X143083Y83011D01*
X143046Y83344D01*
Y83640D01*
X143008Y83863D01*
Y84048D01*
Y84159D01*
Y84196D01*
X143046Y85344D01*
X143194Y86418D01*
X143379Y87381D01*
X143490Y87825D01*
X143638Y88195D01*
X143749Y88566D01*
X143860Y88899D01*
X143934Y89158D01*
X144045Y89381D01*
X144119Y89566D01*
X144193Y89714D01*
X144230Y89788D01*
Y89825D01*
X144749Y90677D01*
X145304Y91417D01*
X145897Y92047D01*
X146453Y92528D01*
X146971Y92936D01*
X147378Y93232D01*
X147527Y93306D01*
X147638Y93380D01*
X147712Y93454D01*
X147749D01*
X148674Y93862D01*
X149637Y94158D01*
X150637Y94380D01*
X151563Y94528D01*
X152008Y94565D01*
X152415Y94602D01*
X152748Y94639D01*
X153082D01*
X153341Y94676D01*
X153674D01*
X154748Y94639D01*
D02*
G37*
G36*
X117715Y74049D02*
X109456Y74049D01*
X106271Y86418D01*
X103124Y74049D01*
X94865D01*
Y94343D01*
X100013D01*
Y78863D01*
X103938Y94343D01*
X108605D01*
X112567Y78863D01*
Y94343D01*
X117715D01*
Y74049D01*
D02*
G37*
G36*
X216223Y86788D02*
X219630D01*
X220334Y86751D01*
X220963Y86714D01*
X221556Y86640D01*
X222111Y86529D01*
X222630Y86381D01*
X223111Y86233D01*
X223519Y86085D01*
X223889Y85936D01*
X224222Y85788D01*
X224519Y85640D01*
X224741Y85492D01*
X224963Y85344D01*
X225111Y85233D01*
X225222Y85159D01*
X225259Y85085D01*
X225296D01*
X225630Y84751D01*
X225926Y84381D01*
X226148Y84011D01*
X226370Y83603D01*
X226703Y82789D01*
X226926Y82011D01*
X227037Y81344D01*
X227111Y81048D01*
Y80789D01*
X227148Y80567D01*
Y80419D01*
Y80307D01*
Y80270D01*
Y79715D01*
X227074Y79233D01*
X226889Y78308D01*
X226592Y77530D01*
X226296Y76863D01*
X226000Y76345D01*
X225704Y75974D01*
X225592Y75863D01*
X225518Y75752D01*
X225481Y75678D01*
X225444D01*
X225111Y75382D01*
X224741Y75123D01*
X223926Y74752D01*
X223074Y74456D01*
X222260Y74234D01*
X221519Y74123D01*
X221185Y74086D01*
X220889D01*
X220667Y74049D01*
X209927D01*
Y94343D01*
X216223D01*
Y86788D01*
D02*
G37*
G36*
X173968Y74049D02*
X167673D01*
Y94343D01*
X173968D01*
Y74049D01*
D02*
G37*
G36*
X14874Y89344D02*
X5060D01*
Y74049D01*
X-1199D01*
Y94343D01*
X14874D01*
Y89344D01*
D02*
G37*
G36*
X-11716Y94306D02*
X-11272Y94269D01*
X-10790Y94195D01*
X-10346Y94158D01*
X-9976Y94121D01*
X-9828D01*
X-9717Y94084D01*
X-9642D01*
X-9087Y93973D01*
X-8605Y93899D01*
X-8198Y93787D01*
X-7865Y93676D01*
X-7606Y93565D01*
X-7420Y93491D01*
X-7309Y93417D01*
X-7272D01*
X-6828Y93121D01*
X-6421Y92788D01*
X-6050Y92454D01*
X-5754Y92121D01*
X-5532Y91862D01*
X-5384Y91640D01*
X-5272Y91454D01*
X-5235Y91417D01*
X-4976Y90936D01*
X-4791Y90455D01*
X-4680Y89973D01*
X-4569Y89529D01*
X-4532Y89158D01*
X-4495Y88862D01*
Y88677D01*
Y88603D01*
X-4532Y87899D01*
X-4643Y87270D01*
X-4828Y86714D01*
X-5013Y86270D01*
X-5198Y85899D01*
X-5384Y85603D01*
X-5495Y85455D01*
X-5532Y85381D01*
X-5976Y84937D01*
X-6458Y84566D01*
X-7013Y84233D01*
X-7531Y83974D01*
X-8013Y83788D01*
X-8383Y83677D01*
X-8531Y83603D01*
X-8643D01*
X-8717Y83566D01*
X-8754D01*
X-8235Y83344D01*
X-7791Y83122D01*
X-7420Y82900D01*
X-7124Y82677D01*
X-6865Y82492D01*
X-6717Y82344D01*
X-6606Y82233D01*
X-6569Y82196D01*
X-6198Y81678D01*
X-5902Y81159D01*
X-5717Y80641D01*
X-5569Y80159D01*
X-5495Y79752D01*
X-5421Y79419D01*
Y79196D01*
Y79159D01*
Y79122D01*
Y78715D01*
X-5495Y78345D01*
X-5680Y77641D01*
X-5939Y77049D01*
X-6198Y76530D01*
X-6495Y76086D01*
X-6754Y75789D01*
X-6939Y75604D01*
X-6976Y75530D01*
X-7013D01*
X-7680Y75049D01*
X-8383Y74678D01*
X-9124Y74419D01*
X-9865Y74234D01*
X-10531Y74123D01*
X-10790Y74086D01*
X-11050D01*
X-11235Y74049D01*
X-23271D01*
Y94343D01*
X-12124D01*
X-11716Y94306D01*
D02*
G37*
G36*
X263663Y94639D02*
X264774Y94491D01*
X265737Y94269D01*
X266144Y94158D01*
X266551Y94047D01*
X266922Y93936D01*
X267218Y93825D01*
X267477Y93714D01*
X267699Y93602D01*
X267884Y93528D01*
X267995Y93454D01*
X268069Y93417D01*
X268107D01*
X268921Y92899D01*
X269588Y92343D01*
X270180Y91751D01*
X270662Y91195D01*
X271069Y90677D01*
X271329Y90269D01*
X271440Y90121D01*
X271514Y90010D01*
X271551Y89936D01*
Y89899D01*
X271958Y88973D01*
X272254Y88010D01*
X272477Y87048D01*
X272625Y86122D01*
X272662Y85677D01*
X272699Y85307D01*
X272736Y84937D01*
X272773Y84640D01*
Y84381D01*
Y84196D01*
Y84085D01*
Y84048D01*
X272736Y83159D01*
X272662Y82307D01*
X272514Y81530D01*
X272328Y80789D01*
X272143Y80122D01*
X271884Y79493D01*
X271662Y78937D01*
X271402Y78419D01*
X271143Y77974D01*
X270884Y77567D01*
X270625Y77234D01*
X270440Y76937D01*
X270254Y76752D01*
X270106Y76567D01*
X270032Y76493D01*
X269995Y76456D01*
X269440Y75974D01*
X268884Y75567D01*
X268255Y75197D01*
X267625Y74864D01*
X266996Y74604D01*
X266329Y74382D01*
X265699Y74197D01*
X265070Y74049D01*
X264514Y73938D01*
X263959Y73864D01*
X263477Y73790D01*
X263033Y73753D01*
X262700Y73716D01*
X262218D01*
X261329Y73753D01*
X260478Y73827D01*
X259663Y73975D01*
X258922Y74160D01*
X258219Y74345D01*
X257589Y74604D01*
X256997Y74826D01*
X256478Y75086D01*
X256034Y75345D01*
X255626Y75604D01*
X255293Y75863D01*
X254997Y76049D01*
X254775Y76234D01*
X254627Y76382D01*
X254515Y76456D01*
X254478Y76493D01*
X253997Y77049D01*
X253590Y77604D01*
X253219Y78234D01*
X252886Y78863D01*
X252627Y79530D01*
X252404Y80159D01*
X252219Y80789D01*
X252071Y81418D01*
X251960Y81974D01*
X251886Y82529D01*
X251812Y83011D01*
X251775Y83418D01*
Y83751D01*
X251738Y84011D01*
Y84159D01*
Y84233D01*
X251812Y85492D01*
X251960Y86640D01*
X252071Y87196D01*
X252182Y87677D01*
X252293Y88121D01*
X252442Y88529D01*
X252553Y88899D01*
X252664Y89232D01*
X252775Y89492D01*
X252886Y89714D01*
X252997Y89899D01*
X253034Y90047D01*
X253108Y90121D01*
Y90158D01*
X253664Y90973D01*
X254293Y91677D01*
X254886Y92306D01*
X255478Y92751D01*
X255997Y93121D01*
X256404Y93380D01*
X256552Y93491D01*
X256663Y93565D01*
X256737Y93602D01*
X256774D01*
X257663Y93973D01*
X258626Y94232D01*
X259552Y94417D01*
X260441Y94528D01*
X260885Y94602D01*
X261255D01*
X261589Y94639D01*
X261885Y94676D01*
X262440D01*
X263663Y94639D01*
D02*
G37*
%LPC*%
G36*
X64609Y160329D02*
X60165D01*
X62387Y153070D01*
X64609Y160329D01*
D02*
G37*
G36*
X231296Y155996D02*
X228444D01*
Y151885D01*
X231185D01*
X231777Y151922D01*
X232295Y151959D01*
X232703Y152070D01*
X233036Y152144D01*
X233258Y152256D01*
X233444Y152367D01*
X233518Y152404D01*
X233555Y152441D01*
X233777Y152663D01*
X233925Y152885D01*
X234036Y153144D01*
X234110Y153366D01*
X234147Y153589D01*
X234184Y153774D01*
Y153885D01*
Y153922D01*
Y154181D01*
X234110Y154403D01*
X233999Y154774D01*
X233925Y154922D01*
X233851Y154996D01*
X233814Y155070D01*
X233777Y155107D01*
X233629Y155292D01*
X233444Y155440D01*
X233110Y155626D01*
X232962Y155663D01*
X232851Y155700D01*
X232777Y155737D01*
X232740D01*
X232332Y155811D01*
X231962Y155885D01*
X231666Y155922D01*
X231444Y155959D01*
X231296Y155996D01*
D02*
G37*
G36*
X132861Y86603D02*
X128417D01*
X130639Y79345D01*
X132861Y86603D01*
D02*
G37*
G36*
X28872Y86603D02*
X24428D01*
X26650Y79345D01*
X28872Y86603D01*
D02*
G37*
G36*
X239665Y82270D02*
X236814D01*
Y78159D01*
X239554D01*
X240147Y78197D01*
X240665Y78234D01*
X241072Y78345D01*
X241406Y78419D01*
X241628Y78530D01*
X241813Y78641D01*
X241887Y78678D01*
X241924Y78715D01*
X242146Y78937D01*
X242294Y79159D01*
X242405Y79419D01*
X242480Y79641D01*
X242517Y79863D01*
X242554Y80048D01*
Y80159D01*
Y80196D01*
Y80456D01*
X242480Y80678D01*
X242369Y81048D01*
X242294Y81196D01*
X242220Y81270D01*
X242183Y81344D01*
X242146Y81381D01*
X241998Y81567D01*
X241813Y81715D01*
X241480Y81900D01*
X241332Y81937D01*
X241220Y81974D01*
X241146Y82011D01*
X241109D01*
X240702Y82085D01*
X240332Y82159D01*
X240035Y82196D01*
X239813Y82233D01*
X239665Y82270D01*
D02*
G37*
G36*
X218038Y82678D02*
X216223D01*
Y78159D01*
X218001D01*
X218593Y78197D01*
X219112Y78271D01*
X219519Y78382D01*
X219852Y78493D01*
X220075Y78604D01*
X220260Y78715D01*
X220334Y78789D01*
X220371Y78826D01*
X220593Y79085D01*
X220741Y79345D01*
X220889Y79641D01*
X220963Y79900D01*
X221000Y80122D01*
X221037Y80307D01*
Y80419D01*
Y80456D01*
X221000Y80826D01*
X220926Y81122D01*
X220815Y81418D01*
X220667Y81641D01*
X220519Y81826D01*
X220408Y81974D01*
X220334Y82048D01*
X220297Y82085D01*
X219963Y82270D01*
X219593Y82418D01*
X219149Y82529D01*
X218741Y82604D01*
X218371Y82640D01*
X218038Y82678D01*
D02*
G37*
G36*
X-13494Y89973D02*
X-16938D01*
Y85862D01*
X-13790D01*
X-13198Y85899D01*
X-12716Y85936D01*
X-12309Y86048D01*
X-12012Y86122D01*
X-11753Y86233D01*
X-11568Y86344D01*
X-11494Y86381D01*
X-11457Y86418D01*
X-11235Y86640D01*
X-11087Y86862D01*
X-10939Y87121D01*
X-10864Y87344D01*
X-10827Y87566D01*
X-10790Y87714D01*
Y87825D01*
Y87862D01*
X-10827Y88195D01*
X-10902Y88492D01*
X-11013Y88788D01*
X-11124Y89010D01*
X-11235Y89195D01*
X-11346Y89306D01*
X-11420Y89381D01*
X-11457Y89418D01*
X-11753Y89603D01*
X-12087Y89751D01*
X-12457Y89825D01*
X-12864Y89899D01*
X-13198Y89936D01*
X-13494Y89973D01*
D02*
G37*
G36*
X-13975Y82011D02*
X-16938D01*
Y78159D01*
X-14160D01*
X-13679Y78197D01*
X-13235Y78233D01*
X-12901Y78308D01*
X-12642Y78419D01*
X-12420Y78530D01*
X-12272Y78604D01*
X-12198Y78641D01*
X-12161Y78678D01*
X-11976Y78863D01*
X-11827Y79085D01*
X-11716Y79307D01*
X-11642Y79530D01*
X-11605Y79752D01*
X-11568Y79900D01*
Y80011D01*
Y80048D01*
X-11605Y80381D01*
X-11642Y80678D01*
X-11753Y80937D01*
X-11864Y81159D01*
X-11976Y81307D01*
X-12050Y81418D01*
X-12124Y81493D01*
X-12161Y81530D01*
X-12420Y81678D01*
X-12716Y81789D01*
X-13383Y81937D01*
X-13716Y81974D01*
X-13975Y82011D01*
D02*
G37*
G36*
X262440Y89973D02*
X262255D01*
X261552Y89899D01*
X260922Y89751D01*
X260367Y89566D01*
X259922Y89306D01*
X259589Y89047D01*
X259330Y88862D01*
X259144Y88714D01*
X259107Y88640D01*
X258922Y88381D01*
X258737Y88084D01*
X258478Y87381D01*
X258256Y86640D01*
X258145Y85936D01*
X258071Y85270D01*
X258034Y84974D01*
Y84714D01*
X257997Y84529D01*
Y84381D01*
Y84270D01*
Y84233D01*
Y83678D01*
X258034Y83159D01*
X258108Y82678D01*
X258182Y82233D01*
X258256Y81863D01*
X258367Y81493D01*
X258478Y81159D01*
X258589Y80863D01*
X258774Y80419D01*
X258959Y80085D01*
X259107Y79900D01*
X259144Y79826D01*
X259589Y79382D01*
X260107Y79048D01*
X260626Y78789D01*
X261107Y78641D01*
X261515Y78530D01*
X261885Y78493D01*
X262107Y78456D01*
X262181D01*
X262885Y78530D01*
X263514Y78678D01*
X264070Y78863D01*
X264514Y79122D01*
X264848Y79382D01*
X265107Y79567D01*
X265292Y79715D01*
X265329Y79789D01*
X265737Y80344D01*
X266033Y81011D01*
X266218Y81715D01*
X266366Y82381D01*
X266440Y83011D01*
X266477Y83270D01*
X266514Y83492D01*
Y83715D01*
Y83863D01*
Y83937D01*
Y83974D01*
Y84603D01*
X266477Y85159D01*
X266403Y85677D01*
X266329Y86159D01*
X266255Y86566D01*
X266144Y86973D01*
X266033Y87307D01*
X265959Y87603D01*
X265848Y87862D01*
X265737Y88084D01*
X265625Y88270D01*
X265551Y88418D01*
X265403Y88603D01*
X265366Y88677D01*
X264922Y89121D01*
X264403Y89418D01*
X263885Y89640D01*
X263403Y89825D01*
X262959Y89899D01*
X262589Y89936D01*
X262440Y89973D01*
D02*
G37*
%LPD*%
D10*
X26500Y-15550D02*
Y-1250D01*
X42750D01*
X92750D02*
X109000D01*
Y-15550D02*
Y-1250D01*
X105000Y256500D02*
Y270800D01*
X88750Y256500D02*
X105000D01*
X22500D02*
X38750D01*
X22500D02*
Y270800D01*
D11*
X50000Y15250D02*
G03*
X50000Y15250I-1000J0D01*
G01*
X83500Y240000D02*
G03*
X83500Y240000I-1000J0D01*
G01*
X-18750Y116003D02*
Y122667D01*
X-17417Y124000D01*
X-14751D01*
X-13418Y122667D01*
Y116003D01*
X-5421Y117336D02*
X-6754Y116003D01*
X-9420D01*
X-10753Y117336D01*
Y118668D01*
X-9420Y120001D01*
X-6754D01*
X-5421Y121334D01*
Y122667D01*
X-6754Y124000D01*
X-9420D01*
X-10753Y122667D01*
X-2755Y116003D02*
Y124000D01*
X1244D01*
X2576Y122667D01*
Y121334D01*
X1244Y120001D01*
X-2755D01*
X1244D01*
X2576Y118668D01*
Y117336D01*
X1244Y116003D01*
X-2755D01*
D14*
X322000Y116000D02*
X384500D01*
X365250Y108750D02*
X377250D01*
X384500Y116000D01*
X288750Y115750D02*
X306500D01*
X-23250Y133500D02*
X8000D01*
X15750Y125750D01*
Y125250D02*
Y125750D01*
X-24250Y107500D02*
X9000D01*
X17500Y116000D01*
X18000D01*
X324000Y8250D02*
Y30250D01*
X316750Y1000D02*
X324000Y8250D01*
X316750Y1000D02*
Y87872D01*
X289372Y115250D02*
X316750Y87872D01*
X17000Y115250D02*
X289372Y115250D01*
X324500Y247500D02*
Y262750D01*
X316750Y270500D02*
X324500Y262750D01*
X316750Y191528D02*
Y270500D01*
X251222Y126000D02*
X316750Y191528D01*
X15750Y126000D02*
X251222Y126000D01*
D17*
X89463Y-31807D02*
X90630Y-30640D01*
Y-28308D01*
X89463Y-27142D01*
X88297D01*
X87131Y-28308D01*
Y-29474D01*
Y-28308D01*
X85964Y-27142D01*
X84798D01*
X83632Y-28308D01*
Y-30640D01*
X84798Y-31807D01*
X90630Y-24809D02*
X85964D01*
X83632Y-22476D01*
X85964Y-20144D01*
X90630D01*
X89463Y-17811D02*
X90630Y-16645D01*
Y-14312D01*
X89463Y-13146D01*
X88297D01*
X87131Y-14312D01*
Y-15479D01*
Y-14312D01*
X85964Y-13146D01*
X84798D01*
X83632Y-14312D01*
Y-16645D01*
X84798Y-17811D01*
X52031Y-27142D02*
X53198Y-28308D01*
Y-30640D01*
X52031Y-31807D01*
X47366D01*
X46200Y-30640D01*
Y-28308D01*
X47366Y-27142D01*
X49699D01*
Y-29474D01*
X46200Y-24809D02*
X53198D01*
X46200Y-20144D01*
X53198D01*
Y-17811D02*
X46200D01*
Y-14312D01*
X47366Y-13146D01*
X52031D01*
X53198Y-14312D01*
Y-17811D01*
X42287Y235307D02*
X41121Y234140D01*
Y231808D01*
X42287Y230642D01*
X43453D01*
X44619Y231808D01*
Y232974D01*
Y231808D01*
X45786Y230642D01*
X46952D01*
X48118Y231808D01*
Y234140D01*
X46952Y235307D01*
X41121Y228309D02*
X45786D01*
X48118Y225976D01*
X45786Y223644D01*
X41121D01*
X42287Y221311D02*
X41121Y220145D01*
Y217812D01*
X42287Y216646D01*
X43453D01*
X44619Y217812D01*
Y218979D01*
Y217812D01*
X45786Y216646D01*
X46952D01*
X48118Y217812D01*
Y220145D01*
X46952Y221311D01*
X79719Y230642D02*
X78552Y231808D01*
Y234140D01*
X79719Y235307D01*
X84384D01*
X85550Y234140D01*
Y231808D01*
X84384Y230642D01*
X82051D01*
Y232974D01*
X85550Y228309D02*
X78552D01*
X85550Y223644D01*
X78552D01*
Y221311D02*
X85550D01*
Y217812D01*
X84384Y216646D01*
X79719D01*
X78552Y217812D01*
Y221311D01*
X308078Y-25197D02*
X314076D01*
X311077D01*
Y-16200D01*
X317075D02*
Y-22198D01*
X320074Y-25197D01*
X323073Y-22198D01*
Y-16200D01*
Y-20698D01*
X317075D01*
X326072Y-16200D02*
Y-25197D01*
X330571D01*
X332070Y-23698D01*
Y-20698D01*
X330571Y-19199D01*
X326072D01*
X329071D02*
X332070Y-16200D01*
X341068Y-23698D02*
X339568Y-25197D01*
X336569D01*
X335069Y-23698D01*
Y-17700D01*
X336569Y-16200D01*
X339568D01*
X341068Y-17700D01*
Y-20698D01*
X338069D01*
X350065Y-25197D02*
X344067D01*
Y-16200D01*
X350065D01*
X344067Y-20698D02*
X347066D01*
X353064Y-25197D02*
X359062D01*
X356063D01*
Y-16200D01*
X377056Y-23698D02*
X375556Y-25197D01*
X372557D01*
X371058Y-23698D01*
Y-22198D01*
X372557Y-20698D01*
X375556D01*
X377056Y-19199D01*
Y-17700D01*
X375556Y-16200D01*
X372557D01*
X371058Y-17700D01*
X380055Y-25197D02*
Y-16200D01*
X383054Y-19199D01*
X386053Y-16200D01*
Y-25197D01*
X389052D02*
Y-16200D01*
X393550D01*
X395050Y-17700D01*
Y-23698D01*
X393550Y-25197D01*
X389052D01*
X267088Y272553D02*
X265588Y271053D01*
X262589D01*
X261090Y272553D01*
Y278550D01*
X262589Y280050D01*
X265588D01*
X267088Y278550D01*
X270087Y280050D02*
Y274052D01*
X273086Y271053D01*
X276085Y274052D01*
Y280050D01*
Y275551D01*
X270087D01*
X279084Y280050D02*
Y271053D01*
X285082Y280050D01*
Y271053D01*
X366056Y272553D02*
X364556Y271053D01*
X361557D01*
X360058Y272553D01*
Y278550D01*
X361557Y280050D01*
X364556D01*
X366056Y278550D01*
X369055Y280050D02*
Y274052D01*
X372054Y271053D01*
X375053Y274052D01*
Y280050D01*
Y275551D01*
X369055D01*
X378052Y280050D02*
Y271053D01*
X384050Y280050D01*
Y271053D01*
D97*
X111163Y178011D02*
Y184676D01*
X114495Y188008D01*
X117827Y184676D01*
Y178011D01*
X131156Y188008D02*
X134488D01*
X132822D01*
Y178011D01*
X131156Y179677D01*
X139487Y188008D02*
Y186342D01*
X141153D01*
Y188008D01*
X139487D01*
X152816D02*
Y178011D01*
X147817Y183010D01*
X154482D01*
X157814Y188008D02*
Y186342D01*
X159480D01*
Y188008D01*
X157814D01*
X166145Y179677D02*
X167811Y178011D01*
X171143D01*
X172809Y179677D01*
Y186342D01*
X171143Y188008D01*
X167811D01*
X166145Y186342D01*
Y179677D01*
M02*
