G04*
G04 #@! TF.GenerationSoftware,Altium Limited,Altium Designer,21.6.1 (37)*
G04*
G04 Layer_Color=32896*
%FSLAX44Y44*%
%MOMM*%
G71*
G04*
G04 #@! TF.SameCoordinates,60F4C214-0011-4761-B7B6-9C9FFC6254FC*
G04*
G04*
G04 #@! TF.FilePolarity,Positive*
G04*
G01*
G75*
%ADD10C,0.3000*%
%ADD12C,0.1270*%
%ADD13C,0.2000*%
%ADD16C,0.6000*%
%ADD19C,0.1700*%
G36*
X263278Y195835D02*
X263740D01*
Y195605D01*
X264202D01*
Y195374D01*
X264432D01*
Y195143D01*
X264894D01*
Y194912D01*
X265355D01*
Y194681D01*
X265817D01*
Y194451D01*
X266278D01*
Y194220D01*
X266740D01*
Y193989D01*
X266971D01*
Y193758D01*
X267432D01*
Y193528D01*
X267894D01*
Y193297D01*
X268356D01*
Y193066D01*
X268817D01*
Y192835D01*
X269048D01*
Y192604D01*
X269510D01*
Y192374D01*
X269971D01*
Y192143D01*
X270433D01*
Y191912D01*
X270663D01*
Y191451D01*
X270433D01*
Y190758D01*
X270202D01*
Y190297D01*
X269971D01*
Y189835D01*
X269740D01*
Y189373D01*
X269048D01*
Y189604D01*
X268586D01*
Y189835D01*
X268125D01*
Y190066D01*
X267663D01*
Y190297D01*
X267202D01*
Y190527D01*
X266740D01*
Y190758D01*
X266509D01*
Y190989D01*
X266048D01*
Y191220D01*
X265586D01*
Y191451D01*
X265125D01*
Y191681D01*
X264663D01*
Y191912D01*
X264202D01*
Y192143D01*
X263740D01*
Y192374D01*
X263278D01*
Y180373D01*
X259586D01*
Y194451D01*
X259355D01*
Y194681D01*
X258894D01*
Y194912D01*
X258432D01*
Y195143D01*
X257970D01*
Y195374D01*
X257509D01*
Y195605D01*
X257047D01*
Y195835D01*
X256816D01*
Y196066D01*
X256355D01*
Y196297D01*
X255893D01*
Y196528D01*
X255432D01*
Y196758D01*
X254970D01*
Y196989D01*
X254509D01*
Y197220D01*
X254278D01*
Y197451D01*
X253816D01*
Y197682D01*
X253355D01*
Y197913D01*
X252893D01*
Y198143D01*
X252432D01*
Y198374D01*
X252201D01*
Y198605D01*
X252432D01*
Y199066D01*
X252662D01*
Y199297D01*
X252893D01*
Y199759D01*
X253124D01*
Y200220D01*
X253355D01*
Y200682D01*
X253585D01*
Y200913D01*
X254047D01*
Y200682D01*
X254509D01*
Y200451D01*
X254739D01*
Y200220D01*
X255201D01*
Y199989D01*
X255662D01*
Y199759D01*
X256124D01*
Y199528D01*
X256586D01*
Y199297D01*
X257047D01*
Y199066D01*
X257509D01*
Y198836D01*
X257740D01*
Y198605D01*
X258201D01*
Y198374D01*
X258663D01*
Y198143D01*
X259124D01*
Y197913D01*
X259586D01*
Y210836D01*
X263278D01*
Y195835D01*
D02*
G37*
G36*
X84191D02*
X84422D01*
Y195605D01*
X84883D01*
Y195374D01*
X85345D01*
Y195143D01*
X85806D01*
Y194912D01*
X86037D01*
Y194681D01*
X86499D01*
Y194451D01*
X86960D01*
Y194220D01*
X87422D01*
Y193989D01*
X87883D01*
Y193758D01*
X88345D01*
Y193528D01*
X88806D01*
Y193297D01*
X89037D01*
Y193066D01*
X89499D01*
Y192835D01*
X89960D01*
Y192604D01*
X90422D01*
Y192374D01*
X90884D01*
Y192143D01*
X91345D01*
Y191912D01*
X91576D01*
Y191451D01*
X91345D01*
Y190989D01*
X91114D01*
Y190527D01*
X90884D01*
Y190066D01*
X90653D01*
Y189604D01*
X90422D01*
Y189143D01*
X90191D01*
Y189373D01*
X89730D01*
Y189604D01*
X89268D01*
Y189835D01*
X89037D01*
Y190066D01*
X88576D01*
Y190297D01*
X88114D01*
Y190527D01*
X87653D01*
Y190758D01*
X87191D01*
Y190989D01*
X86729D01*
Y191220D01*
X86268D01*
Y191451D01*
X85806D01*
Y191681D01*
X85576D01*
Y191912D01*
X85114D01*
Y192143D01*
X84652D01*
Y192374D01*
X84191D01*
Y180373D01*
X80498D01*
Y193758D01*
X80268D01*
Y193989D01*
X80498D01*
Y194451D01*
X80037D01*
Y194681D01*
X79575D01*
Y194912D01*
X79344D01*
Y195143D01*
X78883D01*
Y195374D01*
X78421D01*
Y195605D01*
X77960D01*
Y195835D01*
X77498D01*
Y196066D01*
X77037D01*
Y196297D01*
X76575D01*
Y196528D01*
X76344D01*
Y196758D01*
X75883D01*
Y196989D01*
X75421D01*
Y197220D01*
X74960D01*
Y197451D01*
X74498D01*
Y197682D01*
X74036D01*
Y197913D01*
X73575D01*
Y198143D01*
X73113D01*
Y198836D01*
X73344D01*
Y199066D01*
X73575D01*
Y199528D01*
X73806D01*
Y199989D01*
X74036D01*
Y200451D01*
X74267D01*
Y200682D01*
X74498D01*
Y200913D01*
X74729D01*
Y200682D01*
X75190D01*
Y200451D01*
X75652D01*
Y200220D01*
X76114D01*
Y199989D01*
X76575D01*
Y199759D01*
X76806D01*
Y199528D01*
X77267D01*
Y199297D01*
X77729D01*
Y199066D01*
X78190D01*
Y198836D01*
X78652D01*
Y198605D01*
X79114D01*
Y198374D01*
X79575D01*
Y198143D01*
X79806D01*
Y197913D01*
X80268D01*
Y198143D01*
X80498D01*
Y199989D01*
X80268D01*
Y200220D01*
X80498D01*
Y210375D01*
X80268D01*
Y210606D01*
X80498D01*
Y210836D01*
X84191D01*
Y195835D01*
D02*
G37*
G36*
X154349Y188220D02*
X150426D01*
Y188450D01*
X150195D01*
Y188681D01*
X149964D01*
Y188912D01*
X149502D01*
Y189143D01*
X149272D01*
Y189373D01*
X148810D01*
Y189604D01*
X148579D01*
Y189835D01*
X148349D01*
Y190066D01*
X148118D01*
Y190297D01*
X147656D01*
Y190527D01*
X147425D01*
Y190758D01*
X147195D01*
Y190989D01*
X146733D01*
Y191220D01*
X146502D01*
Y191451D01*
X146271D01*
Y191681D01*
X145810D01*
Y191912D01*
X145579D01*
Y192143D01*
X145348D01*
Y192374D01*
X144887D01*
Y192604D01*
X144656D01*
Y192835D01*
X144425D01*
Y193066D01*
X144194D01*
Y193297D01*
X143733D01*
Y193528D01*
X143502D01*
Y193758D01*
X143041D01*
Y193989D01*
X142810D01*
Y194220D01*
X142579D01*
Y194451D01*
X142348D01*
Y194681D01*
X141887D01*
Y194912D01*
X141656D01*
Y195143D01*
X141425D01*
Y195374D01*
X140963D01*
Y195605D01*
X140733D01*
Y195835D01*
X140502D01*
Y196066D01*
X140040D01*
Y196297D01*
X139810D01*
Y196528D01*
X139579D01*
Y196758D01*
X139117D01*
Y196989D01*
X138886D01*
Y197220D01*
X138656D01*
Y180604D01*
X138425D01*
Y180373D01*
X135194D01*
Y180604D01*
X134732D01*
Y201605D01*
X138886D01*
Y201374D01*
X139117D01*
Y201143D01*
X139579D01*
Y200913D01*
X139810D01*
Y200682D01*
X140040D01*
Y200451D01*
X140502D01*
Y200220D01*
X140733D01*
Y199989D01*
X140963D01*
Y199759D01*
X141425D01*
Y199528D01*
X141656D01*
Y199297D01*
X141887D01*
Y199066D01*
X142348D01*
Y198836D01*
X142579D01*
Y198605D01*
X142810D01*
Y198374D01*
X143271D01*
Y198143D01*
X143502D01*
Y197913D01*
X143733D01*
Y197682D01*
X144194D01*
Y197451D01*
X144425D01*
Y197220D01*
X144656D01*
Y196989D01*
X145118D01*
Y196758D01*
X145348D01*
Y196528D01*
X145579D01*
Y196297D01*
X146041D01*
Y196066D01*
X146271D01*
Y195835D01*
X146502D01*
Y195605D01*
X146964D01*
Y195374D01*
X147195D01*
Y195143D01*
X147425D01*
Y194912D01*
X147887D01*
Y194681D01*
X148118D01*
Y194451D01*
X148349D01*
Y194220D01*
X148810D01*
Y193989D01*
X149041D01*
Y193758D01*
X149502D01*
Y193528D01*
X149733D01*
Y193297D01*
X149964D01*
Y193066D01*
X150195D01*
Y192835D01*
X150426D01*
Y210836D01*
X154349D01*
Y188220D01*
D02*
G37*
G36*
X302742Y199297D02*
X303435D01*
Y199066D01*
X303896D01*
Y198836D01*
X304127D01*
Y198605D01*
X304358D01*
Y198374D01*
X304589D01*
Y198143D01*
X304819D01*
Y197913D01*
X305050D01*
Y197451D01*
X305281D01*
Y196758D01*
X305512D01*
Y193989D01*
X305281D01*
Y193066D01*
X305050D01*
Y192604D01*
X304819D01*
Y192374D01*
X304589D01*
Y192143D01*
X304358D01*
Y191912D01*
X304127D01*
Y191681D01*
X303665D01*
Y191451D01*
X303204D01*
Y191220D01*
X300434D01*
Y191451D01*
X299742D01*
Y191681D01*
X299511D01*
Y191912D01*
X299050D01*
Y192143D01*
X298819D01*
Y192604D01*
X298588D01*
Y192835D01*
X298357D01*
Y193297D01*
X298127D01*
Y194451D01*
X297896D01*
Y196066D01*
X298127D01*
Y197220D01*
X298357D01*
Y197682D01*
X298588D01*
Y198143D01*
X298819D01*
Y198374D01*
X299050D01*
Y198605D01*
X299280D01*
Y198836D01*
X299511D01*
Y199066D01*
X299973D01*
Y199297D01*
X300665D01*
Y199528D01*
X302742D01*
Y199297D01*
D02*
G37*
G36*
X123885D02*
X124578D01*
Y199066D01*
X125039D01*
Y198836D01*
X125270D01*
Y198605D01*
X125501D01*
Y198374D01*
X125732D01*
Y198143D01*
X125963D01*
Y197913D01*
X126193D01*
Y197451D01*
X126424D01*
Y196528D01*
X126655D01*
Y193989D01*
X126424D01*
Y193297D01*
X126193D01*
Y192604D01*
X125963D01*
Y192374D01*
X125732D01*
Y192143D01*
X125501D01*
Y191912D01*
X125270D01*
Y191681D01*
X124809D01*
Y191451D01*
X124347D01*
Y191220D01*
X121578D01*
Y191451D01*
X120885D01*
Y191681D01*
X120655D01*
Y191912D01*
X120193D01*
Y192143D01*
X119962D01*
Y192374D01*
X119731D01*
Y192835D01*
X119501D01*
Y193297D01*
X119270D01*
Y194220D01*
X119039D01*
Y196297D01*
X119270D01*
Y197220D01*
X119501D01*
Y197682D01*
X119731D01*
Y198143D01*
X119962D01*
Y198374D01*
X120193D01*
Y198605D01*
X120424D01*
Y198836D01*
X120655D01*
Y199066D01*
X121116D01*
Y199297D01*
X121809D01*
Y199528D01*
X123885D01*
Y199297D01*
D02*
G37*
G36*
X292357Y210375D02*
X292126D01*
Y209682D01*
X291895D01*
Y209221D01*
X291665D01*
Y208528D01*
X291434D01*
Y208067D01*
X291203D01*
Y207374D01*
X290972D01*
Y206682D01*
X290742D01*
Y206221D01*
X290511D01*
Y205528D01*
X290280D01*
Y204836D01*
X290049D01*
Y204374D01*
X289818D01*
Y203682D01*
X289588D01*
Y203220D01*
X289357D01*
Y202528D01*
X289126D01*
Y201836D01*
X288895D01*
Y201374D01*
X288664D01*
Y200682D01*
X288434D01*
Y199989D01*
X288203D01*
Y199528D01*
X287972D01*
Y198836D01*
X287741D01*
Y198374D01*
X287511D01*
Y197682D01*
X287280D01*
Y196989D01*
X287049D01*
Y196297D01*
X286818D01*
Y196066D01*
X287049D01*
Y195605D01*
X287280D01*
Y195143D01*
X287511D01*
Y194912D01*
X287741D01*
Y194451D01*
X287972D01*
Y193989D01*
X288203D01*
Y193758D01*
X288434D01*
Y193297D01*
X288664D01*
Y192835D01*
X288895D01*
Y192374D01*
X289126D01*
Y192143D01*
X289357D01*
Y191681D01*
X289588D01*
Y191220D01*
X289818D01*
Y190758D01*
X290049D01*
Y190527D01*
X290280D01*
Y185912D01*
X290049D01*
Y185681D01*
X289588D01*
Y185450D01*
X289126D01*
Y185219D01*
X288664D01*
Y184989D01*
X288203D01*
Y184758D01*
X287972D01*
Y184527D01*
X287511D01*
Y184296D01*
X287049D01*
Y184065D01*
X286587D01*
Y183835D01*
X286357D01*
Y183604D01*
X285895D01*
Y183373D01*
X285434D01*
Y183142D01*
X284972D01*
Y182912D01*
X284741D01*
Y182681D01*
X284280D01*
Y182450D01*
X283818D01*
Y182219D01*
X283356D01*
Y181988D01*
X282895D01*
Y181758D01*
X282664D01*
Y181527D01*
X282202D01*
Y181296D01*
X281741D01*
Y181065D01*
X281279D01*
Y180835D01*
X281049D01*
Y180604D01*
X280356D01*
Y180373D01*
X277587D01*
Y180604D01*
X276664D01*
Y210836D01*
X280587D01*
Y184989D01*
X281049D01*
Y185219D01*
X281510D01*
Y185450D01*
X281741D01*
Y185681D01*
X282202D01*
Y185912D01*
X282664D01*
Y186143D01*
X283126D01*
Y186373D01*
X283587D01*
Y186604D01*
X283818D01*
Y186835D01*
X284280D01*
Y187066D01*
X284741D01*
Y187296D01*
X285203D01*
Y187527D01*
X285664D01*
Y187758D01*
X285895D01*
Y187989D01*
X286357D01*
Y188220D01*
X286818D01*
Y188450D01*
X287049D01*
Y188912D01*
X286818D01*
Y189143D01*
X286587D01*
Y189604D01*
X286357D01*
Y190066D01*
X286126D01*
Y190297D01*
X285895D01*
Y190758D01*
X285664D01*
Y191220D01*
X285434D01*
Y191681D01*
X285203D01*
Y192143D01*
X284972D01*
Y192374D01*
X284741D01*
Y192835D01*
X284510D01*
Y193297D01*
X284280D01*
Y193528D01*
X284049D01*
Y193989D01*
X283818D01*
Y194451D01*
X283587D01*
Y194912D01*
X283356D01*
Y195143D01*
X283126D01*
Y195605D01*
X282895D01*
Y196528D01*
X283126D01*
Y196989D01*
X283356D01*
Y197682D01*
X283587D01*
Y198374D01*
X283818D01*
Y199066D01*
X284049D01*
Y199528D01*
X284280D01*
Y200220D01*
X284510D01*
Y200913D01*
X284741D01*
Y201374D01*
X284972D01*
Y202066D01*
X285203D01*
Y202759D01*
X285434D01*
Y203451D01*
X285664D01*
Y203913D01*
X285895D01*
Y204605D01*
X286126D01*
Y205298D01*
X286357D01*
Y205759D01*
X286587D01*
Y206451D01*
X286818D01*
Y207144D01*
X287049D01*
Y207605D01*
X287280D01*
Y208298D01*
X287511D01*
Y208990D01*
X287741D01*
Y209452D01*
X287972D01*
Y210144D01*
X288203D01*
Y210836D01*
X292357D01*
Y210375D01*
D02*
G37*
G36*
X229353Y206682D02*
Y206451D01*
Y200220D01*
X231892D01*
Y199989D01*
X233738D01*
Y199759D01*
X234892D01*
Y199528D01*
X235815D01*
Y199297D01*
X236738D01*
Y199066D01*
X237431D01*
Y198836D01*
X237892D01*
Y198605D01*
X238585D01*
Y198374D01*
X239046D01*
Y198143D01*
X239508D01*
Y197913D01*
X239969D01*
Y197682D01*
X240431D01*
Y197451D01*
X240892D01*
Y197220D01*
X241123D01*
Y196989D01*
X241585D01*
Y196758D01*
X241815D01*
Y196528D01*
X242277D01*
Y196297D01*
X242508D01*
Y196066D01*
X242969D01*
Y195835D01*
X243200D01*
Y195605D01*
X243431D01*
Y195374D01*
X243662D01*
Y195143D01*
X243893D01*
Y194912D01*
X244123D01*
Y194681D01*
X244354D01*
Y194451D01*
X244585D01*
Y194220D01*
X244816D01*
Y193989D01*
X245047D01*
Y193758D01*
X245277D01*
Y193528D01*
X245508D01*
Y193297D01*
X245739D01*
Y193066D01*
X245970D01*
Y192604D01*
X246200D01*
Y192374D01*
X246431D01*
Y192143D01*
X246662D01*
Y191681D01*
X246893D01*
Y191451D01*
X247124D01*
Y190989D01*
X247354D01*
Y190527D01*
X247585D01*
Y190066D01*
X247816D01*
Y189604D01*
X248047D01*
Y189143D01*
X248277D01*
Y188681D01*
X248508D01*
Y187989D01*
X248739D01*
Y187296D01*
X248970D01*
Y186373D01*
X249201D01*
Y185450D01*
X249431D01*
Y184065D01*
X249662D01*
Y180604D01*
X249431D01*
Y180373D01*
X249201D01*
Y180604D01*
X248970D01*
Y180373D01*
X248739D01*
Y180604D01*
X248508D01*
Y180373D01*
X245739D01*
Y182912D01*
X245508D01*
Y184527D01*
X245277D01*
Y185450D01*
X245047D01*
Y186143D01*
X244816D01*
Y186835D01*
X244585D01*
Y187527D01*
X244354D01*
Y187989D01*
X244123D01*
Y188450D01*
X243893D01*
Y188912D01*
X243662D01*
Y189373D01*
X243431D01*
Y189604D01*
X243200D01*
Y190066D01*
X242969D01*
Y190297D01*
X242739D01*
Y190758D01*
X242508D01*
Y190989D01*
X242277D01*
Y191220D01*
X242046D01*
Y191451D01*
X241815D01*
Y191681D01*
X241585D01*
Y192143D01*
X241354D01*
Y192374D01*
X241123D01*
Y192604D01*
X240662D01*
Y192835D01*
X240431D01*
Y193066D01*
X240200D01*
Y193297D01*
X239969D01*
Y193528D01*
X239739D01*
Y193758D01*
X239277D01*
Y193989D01*
X239046D01*
Y194220D01*
X238585D01*
Y194451D01*
X238123D01*
Y194681D01*
X237892D01*
Y194912D01*
X237431D01*
Y195143D01*
X236969D01*
Y195374D01*
X236277D01*
Y195605D01*
X235815D01*
Y195835D01*
X235123D01*
Y196066D01*
X234431D01*
Y196297D01*
X233507D01*
Y196528D01*
X232353D01*
Y196758D01*
X229353D01*
Y192143D01*
X230738D01*
Y191912D01*
X232123D01*
Y191681D01*
X232815D01*
Y191451D01*
X233507D01*
Y191220D01*
X233969D01*
Y190989D01*
X234431D01*
Y190758D01*
X234661D01*
Y190527D01*
X235123D01*
Y190297D01*
X235584D01*
Y190066D01*
X235815D01*
Y189835D01*
X236046D01*
Y189604D01*
X236277D01*
Y189373D01*
X236738D01*
Y189143D01*
X236969D01*
Y188912D01*
X237200D01*
Y188681D01*
X237431D01*
Y188450D01*
X237661D01*
Y187989D01*
X237892D01*
Y187758D01*
X238123D01*
Y187527D01*
X238354D01*
Y187066D01*
X238585D01*
Y186835D01*
X238815D01*
Y186373D01*
X239046D01*
Y185912D01*
X239277D01*
Y185450D01*
X239508D01*
Y184989D01*
X239739D01*
Y184296D01*
X239969D01*
Y183373D01*
X240200D01*
Y181988D01*
X240431D01*
Y180604D01*
X240200D01*
Y180373D01*
X236507D01*
Y180604D01*
X236277D01*
Y182450D01*
X236046D01*
Y183604D01*
X235815D01*
Y184296D01*
X235584D01*
Y184758D01*
X235354D01*
Y185219D01*
X235123D01*
Y185681D01*
X234892D01*
Y185912D01*
X234661D01*
Y186143D01*
X234431D01*
Y186373D01*
X234200D01*
Y186835D01*
X233969D01*
Y187066D01*
X233738D01*
Y187296D01*
X233277D01*
Y187527D01*
X233046D01*
Y187758D01*
X232584D01*
Y187989D01*
X232353D01*
Y188220D01*
X231661D01*
Y188450D01*
X230969D01*
Y188681D01*
X229353D01*
Y180604D01*
X228892D01*
Y180373D01*
X225661D01*
Y210836D01*
X229353D01*
Y206682D01*
D02*
G37*
G36*
X200275Y200220D02*
X203044D01*
Y199989D01*
X204660D01*
Y199759D01*
X205813D01*
Y199528D01*
X206967D01*
Y199297D01*
X207660D01*
Y199066D01*
X208352D01*
Y198836D01*
X209044D01*
Y198605D01*
X209506D01*
Y198374D01*
X209967D01*
Y198143D01*
X210429D01*
Y197913D01*
X210891D01*
Y197682D01*
X211352D01*
Y197451D01*
X211814D01*
Y197220D01*
X212275D01*
Y196989D01*
X212506D01*
Y196758D01*
X212968D01*
Y196528D01*
X213199D01*
Y196297D01*
X213660D01*
Y196066D01*
X213891D01*
Y195835D01*
X214122D01*
Y195605D01*
X214352D01*
Y195374D01*
X214814D01*
Y195143D01*
X215045D01*
Y194912D01*
X215275D01*
Y194681D01*
X215506D01*
Y194451D01*
X215737D01*
Y194220D01*
X215968D01*
Y193989D01*
X216199D01*
Y193528D01*
X216429D01*
Y193297D01*
X216660D01*
Y193066D01*
X216891D01*
Y192835D01*
X217122D01*
Y192374D01*
X217353D01*
Y192143D01*
X217583D01*
Y191912D01*
X217814D01*
Y191451D01*
X218045D01*
Y190989D01*
X218276D01*
Y190758D01*
X218507D01*
Y190297D01*
X218737D01*
Y189604D01*
X218968D01*
Y189143D01*
X219199D01*
Y188681D01*
X219430D01*
Y188220D01*
X219660D01*
Y187527D01*
X219891D01*
Y186604D01*
X220122D01*
Y185681D01*
X220353D01*
Y184527D01*
X220583D01*
Y181758D01*
X220814D01*
Y180604D01*
X220583D01*
Y180373D01*
X217122D01*
Y180604D01*
X216660D01*
Y183373D01*
X216429D01*
Y184758D01*
X216199D01*
Y185681D01*
X215968D01*
Y186373D01*
X215737D01*
Y187066D01*
X215506D01*
Y187527D01*
X215275D01*
Y187989D01*
X215045D01*
Y188450D01*
X214814D01*
Y189143D01*
X214583D01*
Y189373D01*
X214352D01*
Y189835D01*
X214122D01*
Y190066D01*
X213891D01*
Y190527D01*
X213660D01*
Y190758D01*
X213429D01*
Y190989D01*
X213199D01*
Y191451D01*
X212968D01*
Y191681D01*
X212737D01*
Y191912D01*
X212506D01*
Y192143D01*
X212275D01*
Y192374D01*
X212045D01*
Y192604D01*
X211814D01*
Y192835D01*
X211352D01*
Y193066D01*
X211121D01*
Y193297D01*
X210891D01*
Y193528D01*
X210660D01*
Y193758D01*
X210198D01*
Y193989D01*
X209967D01*
Y194220D01*
X209737D01*
Y194451D01*
X209275D01*
Y194681D01*
X208814D01*
Y194912D01*
X208352D01*
Y195143D01*
X207890D01*
Y195374D01*
X207429D01*
Y195605D01*
X206737D01*
Y195835D01*
X206044D01*
Y196066D01*
X205352D01*
Y196297D01*
X204429D01*
Y196528D01*
X203275D01*
Y196758D01*
X200275D01*
Y192143D01*
X201890D01*
Y191912D01*
X203044D01*
Y191681D01*
X203736D01*
Y191451D01*
X204429D01*
Y191220D01*
X204890D01*
Y190989D01*
X205352D01*
Y190758D01*
X205813D01*
Y190527D01*
X206044D01*
Y190297D01*
X206506D01*
Y190066D01*
X206737D01*
Y189835D01*
X206967D01*
Y189604D01*
X207429D01*
Y189373D01*
X207660D01*
Y189143D01*
X207890D01*
Y188912D01*
X208121D01*
Y188681D01*
X208352D01*
Y188450D01*
X208583D01*
Y188220D01*
X208814D01*
Y187758D01*
X209044D01*
Y187527D01*
X209275D01*
Y187296D01*
X209506D01*
Y186835D01*
X209737D01*
Y186373D01*
X209967D01*
Y186143D01*
X210198D01*
Y185681D01*
X210429D01*
Y184989D01*
X210660D01*
Y184527D01*
X210891D01*
Y183604D01*
X211121D01*
Y182450D01*
X211352D01*
Y180604D01*
X211121D01*
Y180373D01*
X210429D01*
Y180604D01*
X210198D01*
Y180373D01*
X207429D01*
Y180604D01*
X207198D01*
Y182912D01*
X206967D01*
Y183604D01*
X206737D01*
Y184296D01*
X206506D01*
Y184989D01*
X206275D01*
Y185219D01*
X206044D01*
Y185681D01*
X205813D01*
Y185912D01*
X205583D01*
Y186373D01*
X205352D01*
Y186604D01*
X205121D01*
Y186835D01*
X204890D01*
Y187066D01*
X204660D01*
Y187296D01*
X204429D01*
Y187527D01*
X203967D01*
Y187758D01*
X203506D01*
Y187989D01*
X203275D01*
Y188220D01*
X202582D01*
Y188450D01*
X201890D01*
Y188681D01*
X200275D01*
Y180373D01*
X196813D01*
Y180604D01*
X196582D01*
Y210836D01*
X200275D01*
Y200220D01*
D02*
G37*
G36*
X188274Y193528D02*
Y193297D01*
Y180604D01*
X188043D01*
Y180373D01*
X185735D01*
Y180604D01*
X184351D01*
Y210836D01*
X188274D01*
Y193528D01*
D02*
G37*
G36*
X171196Y198374D02*
X171658D01*
Y198605D01*
X172119D01*
Y198836D01*
X172581D01*
Y199066D01*
X172812D01*
Y199297D01*
X173273D01*
Y199528D01*
X173735D01*
Y199759D01*
X173965D01*
Y199989D01*
X174427D01*
Y200220D01*
X174888D01*
Y200451D01*
X175350D01*
Y200682D01*
X175581D01*
Y200913D01*
X176042D01*
Y201143D01*
X176504D01*
Y201374D01*
X177196D01*
Y200913D01*
X177427D01*
Y200451D01*
X177658D01*
Y199989D01*
X177889D01*
Y199759D01*
X178120D01*
Y199297D01*
X178350D01*
Y198836D01*
X177889D01*
Y198605D01*
X177658D01*
Y198374D01*
X177196D01*
Y198143D01*
X176735D01*
Y197913D01*
X176504D01*
Y197682D01*
X176042D01*
Y197451D01*
X175581D01*
Y197220D01*
X175119D01*
Y196989D01*
X174888D01*
Y196758D01*
X174427D01*
Y196528D01*
X173965D01*
Y196297D01*
X173735D01*
Y196066D01*
X173273D01*
Y195835D01*
X172812D01*
Y195605D01*
X172581D01*
Y195374D01*
X172119D01*
Y195143D01*
X171658D01*
Y194912D01*
X171196D01*
Y180604D01*
X170965D01*
Y180373D01*
X169119D01*
Y180604D01*
X168888D01*
Y180373D01*
X167965D01*
Y180604D01*
X167734D01*
Y180373D01*
X167504D01*
Y192374D01*
X167042D01*
Y192143D01*
X166580D01*
Y191912D01*
X166350D01*
Y191681D01*
X165888D01*
Y191451D01*
X165426D01*
Y191220D01*
X164965D01*
Y190989D01*
X164734D01*
Y190758D01*
X164272D01*
Y190527D01*
X163811D01*
Y190297D01*
X163580D01*
Y190066D01*
X163119D01*
Y189835D01*
X162657D01*
Y189604D01*
X162426D01*
Y189373D01*
X161965D01*
Y189143D01*
X161734D01*
Y189373D01*
X161503D01*
Y189835D01*
X161272D01*
Y190297D01*
X161042D01*
Y190758D01*
X160811D01*
Y190989D01*
X160580D01*
Y191451D01*
X160349D01*
Y191912D01*
X160580D01*
Y192143D01*
X161042D01*
Y192374D01*
X161272D01*
Y192604D01*
X161734D01*
Y192835D01*
X162195D01*
Y193066D01*
X162657D01*
Y193297D01*
X162888D01*
Y193528D01*
X163349D01*
Y193758D01*
X163811D01*
Y193989D01*
X164042D01*
Y194220D01*
X164503D01*
Y194451D01*
X164965D01*
Y194681D01*
X165426D01*
Y194912D01*
X165657D01*
Y195143D01*
X166119D01*
Y195374D01*
X166580D01*
Y195605D01*
X166811D01*
Y195835D01*
X167273D01*
Y196066D01*
X167504D01*
Y210836D01*
X171196D01*
Y198374D01*
D02*
G37*
G36*
X106115D02*
X106577D01*
Y198605D01*
X106808D01*
Y198836D01*
X107269D01*
Y199066D01*
X107731D01*
Y199297D01*
X108192D01*
Y199528D01*
X108654D01*
Y199759D01*
X108885D01*
Y199989D01*
X109346D01*
Y200220D01*
X109808D01*
Y200451D01*
X110039D01*
Y200682D01*
X110500D01*
Y200913D01*
X110962D01*
Y201143D01*
X111423D01*
Y201374D01*
X111885D01*
Y201143D01*
X112116D01*
Y200682D01*
X112346D01*
Y200451D01*
X112577D01*
Y199989D01*
X112808D01*
Y199528D01*
X113039D01*
Y199066D01*
X113270D01*
Y198836D01*
X112808D01*
Y198605D01*
X112577D01*
Y198374D01*
X112116D01*
Y198143D01*
X111654D01*
Y197913D01*
X111193D01*
Y197682D01*
X110962D01*
Y197451D01*
X110500D01*
Y197220D01*
X110039D01*
Y196989D01*
X109808D01*
Y196758D01*
X109346D01*
Y196528D01*
X108885D01*
Y196297D01*
X108423D01*
Y196066D01*
X108192D01*
Y195835D01*
X107731D01*
Y195605D01*
X107269D01*
Y195374D01*
X107038D01*
Y195143D01*
X106577D01*
Y194912D01*
X106115D01*
Y180373D01*
X104731D01*
Y180604D01*
X104500D01*
Y180373D01*
X102423D01*
Y180604D01*
X102192D01*
Y191451D01*
X102423D01*
Y191681D01*
X102192D01*
Y191912D01*
X102423D01*
Y192143D01*
X102192D01*
Y192374D01*
X101961D01*
Y192143D01*
X101500D01*
Y191912D01*
X101038D01*
Y191681D01*
X100807D01*
Y191451D01*
X100346D01*
Y191220D01*
X99884D01*
Y190989D01*
X99423D01*
Y190758D01*
X99192D01*
Y190527D01*
X98730D01*
Y190297D01*
X98269D01*
Y190066D01*
X98038D01*
Y189835D01*
X97576D01*
Y189604D01*
X97115D01*
Y189373D01*
X96884D01*
Y189143D01*
X96653D01*
Y189373D01*
X96422D01*
Y189835D01*
X96192D01*
Y190297D01*
X95961D01*
Y190527D01*
X95730D01*
Y190989D01*
X95499D01*
Y191451D01*
X95268D01*
Y191912D01*
X95499D01*
Y192143D01*
X95961D01*
Y192374D01*
X96192D01*
Y192604D01*
X96653D01*
Y192835D01*
X97115D01*
Y193066D01*
X97346D01*
Y193297D01*
X97807D01*
Y193528D01*
X98269D01*
Y193758D01*
X98499D01*
Y193989D01*
X98961D01*
Y194220D01*
X99423D01*
Y194451D01*
X99884D01*
Y194681D01*
X100115D01*
Y194912D01*
X100576D01*
Y195143D01*
X101038D01*
Y195374D01*
X101269D01*
Y195605D01*
X101730D01*
Y195835D01*
X102192D01*
Y201605D01*
Y201836D01*
Y210836D01*
X106115D01*
Y198374D01*
D02*
G37*
G36*
X54881Y199066D02*
X56497D01*
Y198836D01*
X57882D01*
Y198605D01*
X58574D01*
Y198374D01*
X59266D01*
Y198143D01*
X59959D01*
Y197913D01*
X60651D01*
Y197682D01*
X61113D01*
Y197451D01*
X61574D01*
Y197220D01*
X61805D01*
Y196989D01*
X62267D01*
Y196758D01*
X62497D01*
Y196528D01*
X62959D01*
Y196297D01*
X63190D01*
Y196066D01*
X63651D01*
Y195835D01*
X63882D01*
Y195605D01*
X64113D01*
Y195374D01*
X64344D01*
Y195143D01*
X64805D01*
Y194912D01*
X65036D01*
Y194681D01*
X65267D01*
Y194451D01*
X65497D01*
Y194220D01*
X65728D01*
Y193989D01*
X65959D01*
Y193528D01*
X66190D01*
Y193297D01*
X66421D01*
Y193066D01*
X66651D01*
Y192835D01*
X66882D01*
Y192374D01*
X67113D01*
Y192143D01*
X67344D01*
Y191681D01*
X67575D01*
Y191451D01*
X67805D01*
Y190989D01*
X68036D01*
Y190527D01*
X68267D01*
Y190066D01*
X68498D01*
Y189835D01*
X68728D01*
Y189143D01*
X68959D01*
Y188681D01*
X69190D01*
Y188220D01*
X69421D01*
Y187527D01*
X69651D01*
Y186835D01*
X69882D01*
Y185912D01*
X70113D01*
Y184989D01*
X70344D01*
Y183142D01*
X70575D01*
Y180604D01*
X70344D01*
Y180373D01*
X66651D01*
Y182912D01*
X66421D01*
Y184527D01*
X66190D01*
Y185681D01*
X65959D01*
Y186604D01*
X65728D01*
Y187296D01*
X65497D01*
Y187758D01*
X65267D01*
Y188450D01*
X65036D01*
Y188912D01*
X64805D01*
Y189373D01*
X64574D01*
Y189604D01*
X64344D01*
Y190066D01*
X64113D01*
Y190527D01*
X63882D01*
Y190989D01*
X63651D01*
Y191220D01*
X63420D01*
Y191451D01*
X63190D01*
Y191681D01*
X62959D01*
Y192143D01*
X62728D01*
Y192374D01*
X62497D01*
Y192604D01*
X62267D01*
Y192835D01*
X62036D01*
Y193066D01*
X61805D01*
Y193297D01*
X61343D01*
Y193528D01*
X61113D01*
Y193758D01*
X60882D01*
Y193989D01*
X60420D01*
Y194220D01*
X60189D01*
Y194451D01*
X59728D01*
Y194681D01*
X59266D01*
Y194912D01*
X58805D01*
Y195143D01*
X58112D01*
Y195374D01*
X57189D01*
Y195605D01*
X55805D01*
Y195835D01*
X55112D01*
Y195605D01*
X54881D01*
Y180604D01*
X54651D01*
Y180373D01*
X51189D01*
Y210836D01*
X54881D01*
Y199066D01*
D02*
G37*
G36*
X270480Y45424D02*
X270942D01*
Y45193D01*
X271173D01*
Y44962D01*
X271634D01*
Y44731D01*
X272096D01*
Y44501D01*
X272558D01*
Y44270D01*
X273019D01*
Y44039D01*
X273250D01*
Y43808D01*
X273711D01*
Y43577D01*
X274173D01*
Y43347D01*
X274634D01*
Y43116D01*
X275096D01*
Y42885D01*
X275558D01*
Y42654D01*
X275788D01*
Y42424D01*
X276481D01*
Y42193D01*
X276712D01*
Y41962D01*
X277173D01*
Y41731D01*
X277635D01*
Y41500D01*
X277866D01*
Y41270D01*
X277635D01*
Y40808D01*
X277404D01*
Y40346D01*
X277173D01*
Y39885D01*
X276942D01*
Y39423D01*
X276712D01*
Y38962D01*
X276250D01*
Y39193D01*
X275788D01*
Y39423D01*
X275327D01*
Y39654D01*
X274865D01*
Y39885D01*
X274404D01*
Y40116D01*
X273942D01*
Y40346D01*
X273481D01*
Y40577D01*
X273250D01*
Y40808D01*
X272788D01*
Y41039D01*
X272327D01*
Y41270D01*
X271865D01*
Y41500D01*
X271404D01*
Y41731D01*
X270942D01*
Y41962D01*
X270480D01*
Y30192D01*
X266557D01*
Y40808D01*
Y41039D01*
Y44270D01*
X266096D01*
Y44501D01*
X265634D01*
Y44731D01*
X265172D01*
Y44962D01*
X264711D01*
Y45193D01*
X264249D01*
Y45424D01*
X264018D01*
Y45655D01*
X263557D01*
Y45885D01*
X263095D01*
Y46116D01*
X262634D01*
Y46347D01*
X262172D01*
Y46578D01*
X261711D01*
Y46808D01*
X261249D01*
Y47039D01*
X260788D01*
Y47270D01*
X260326D01*
Y47501D01*
X260095D01*
Y47732D01*
X259634D01*
Y47962D01*
X259172D01*
Y48193D01*
X259403D01*
Y48424D01*
X259634D01*
Y48885D01*
X259864D01*
Y49347D01*
X260095D01*
Y49578D01*
X260326D01*
Y50039D01*
X260557D01*
Y50501D01*
X261018D01*
Y50270D01*
X261480D01*
Y50039D01*
X261942D01*
Y49809D01*
X262403D01*
Y49578D01*
X262865D01*
Y49347D01*
X263326D01*
Y49116D01*
X263788D01*
Y48885D01*
X264018D01*
Y48655D01*
X264480D01*
Y48424D01*
X264942D01*
Y48193D01*
X265403D01*
Y47962D01*
X265865D01*
Y47732D01*
X266326D01*
Y47501D01*
X266557D01*
Y60425D01*
X270480D01*
Y45424D01*
D02*
G37*
G36*
X191784Y45655D02*
X192014D01*
Y45424D01*
X192245D01*
Y45193D01*
X192707D01*
Y44962D01*
X193168D01*
Y44731D01*
X193630D01*
Y44501D01*
X193860D01*
Y44270D01*
X194322D01*
Y44039D01*
X194784D01*
Y43808D01*
X195245D01*
Y43577D01*
X195707D01*
Y43347D01*
X196168D01*
Y43116D01*
X196399D01*
Y42885D01*
X196861D01*
Y42654D01*
X197322D01*
Y42424D01*
X197784D01*
Y42193D01*
X198245D01*
Y41962D01*
X198707D01*
Y41731D01*
X198938D01*
Y41500D01*
X199168D01*
Y41039D01*
X198938D01*
Y40577D01*
X198707D01*
Y40116D01*
X198476D01*
Y39654D01*
X198245D01*
Y39193D01*
X198015D01*
Y38962D01*
X197553D01*
Y39193D01*
X197092D01*
Y39423D01*
X196630D01*
Y39654D01*
X196399D01*
Y39885D01*
X195938D01*
Y40116D01*
X195476D01*
Y40346D01*
X195014D01*
Y40577D01*
X194553D01*
Y40808D01*
X194091D01*
Y41039D01*
X193630D01*
Y41270D01*
X193399D01*
Y41500D01*
X192937D01*
Y41731D01*
X192476D01*
Y41962D01*
X191784D01*
Y32269D01*
Y32038D01*
Y30192D01*
X188091D01*
Y44039D01*
X187860D01*
Y44270D01*
X187399D01*
Y44501D01*
X187168D01*
Y44731D01*
X186706D01*
Y44962D01*
X186245D01*
Y45193D01*
X185783D01*
Y45424D01*
X185322D01*
Y45655D01*
X184860D01*
Y45885D01*
X184398D01*
Y46116D01*
X184168D01*
Y46347D01*
X183706D01*
Y46578D01*
X183244D01*
Y46808D01*
X182783D01*
Y47039D01*
X182321D01*
Y47270D01*
X181860D01*
Y47501D01*
X181398D01*
Y47732D01*
X180937D01*
Y47962D01*
X180706D01*
Y48193D01*
X180937D01*
Y48655D01*
X181168D01*
Y49116D01*
X181398D01*
Y49347D01*
X181629D01*
Y49809D01*
X181860D01*
Y50270D01*
X182091D01*
Y50501D01*
X182552D01*
Y50270D01*
X183014D01*
Y50039D01*
X183475D01*
Y49809D01*
X183937D01*
Y49578D01*
X184168D01*
Y49347D01*
X184629D01*
Y49116D01*
X185091D01*
Y48885D01*
X185552D01*
Y48655D01*
X186014D01*
Y48424D01*
X186476D01*
Y48193D01*
X186937D01*
Y47962D01*
X187399D01*
Y47732D01*
X187860D01*
Y47501D01*
X188091D01*
Y60425D01*
X191784D01*
Y45655D01*
D02*
G37*
G36*
X62084Y48885D02*
X62545D01*
Y48655D01*
X63007D01*
Y48424D01*
X63468D01*
Y48193D01*
X63699D01*
Y47732D01*
X63930D01*
Y47501D01*
X64161D01*
Y47039D01*
X64391D01*
Y46347D01*
X64622D01*
Y43577D01*
X64391D01*
Y42885D01*
X64161D01*
Y42424D01*
X63930D01*
Y41962D01*
X63699D01*
Y41731D01*
X63468D01*
Y41500D01*
X63007D01*
Y41270D01*
X62545D01*
Y41039D01*
X61853D01*
Y40808D01*
X59776D01*
Y41039D01*
X59083D01*
Y41270D01*
X58622D01*
Y41500D01*
X58391D01*
Y41731D01*
X58160D01*
Y41962D01*
X57929D01*
Y42193D01*
X57699D01*
Y42424D01*
X57468D01*
Y43116D01*
X57237D01*
Y44039D01*
X57006D01*
Y45885D01*
X57237D01*
Y46808D01*
X57468D01*
Y47270D01*
X57699D01*
Y47732D01*
X57929D01*
Y47962D01*
X58160D01*
Y48193D01*
X58391D01*
Y48424D01*
X58622D01*
Y48655D01*
X59083D01*
Y48885D01*
X59545D01*
Y49116D01*
X62084D01*
Y48885D01*
D02*
G37*
G36*
X299328Y59732D02*
X299097D01*
Y59271D01*
X298867D01*
Y58578D01*
X298636D01*
Y57886D01*
X298405D01*
Y57424D01*
X298174D01*
Y57194D01*
Y56732D01*
X297944D01*
Y56040D01*
X297713D01*
Y55578D01*
X297482D01*
Y54886D01*
X297251D01*
Y54424D01*
X297020D01*
Y53732D01*
X296790D01*
Y53040D01*
X296559D01*
Y52578D01*
X296328D01*
Y51886D01*
X296097D01*
Y51424D01*
X295867D01*
Y50732D01*
X295636D01*
Y50039D01*
X295405D01*
Y49578D01*
X295174D01*
Y48885D01*
X294943D01*
Y48193D01*
X294713D01*
Y47732D01*
X294482D01*
Y47039D01*
X294251D01*
Y46578D01*
X294020D01*
Y45424D01*
X294251D01*
Y44962D01*
X294482D01*
Y44731D01*
X294713D01*
Y44270D01*
X294943D01*
Y43808D01*
X295174D01*
Y43347D01*
X295405D01*
Y43116D01*
X295636D01*
Y42654D01*
X295867D01*
Y42193D01*
X296097D01*
Y41962D01*
X296328D01*
Y41500D01*
X296559D01*
Y41039D01*
X296790D01*
Y40577D01*
X297020D01*
Y40346D01*
X297251D01*
Y39885D01*
X297482D01*
Y35731D01*
X297251D01*
Y35500D01*
X296790D01*
Y35269D01*
X296559D01*
Y35038D01*
X296097D01*
Y34808D01*
X295636D01*
Y34577D01*
X295174D01*
Y34346D01*
X294943D01*
Y34115D01*
X294482D01*
Y33885D01*
X294020D01*
Y33654D01*
X293559D01*
Y33423D01*
X293328D01*
Y33192D01*
X292866D01*
Y32961D01*
X292405D01*
Y32731D01*
X291943D01*
Y32500D01*
X291482D01*
Y32269D01*
X291251D01*
Y32038D01*
X290789D01*
Y31808D01*
X290328D01*
Y31577D01*
X289866D01*
Y31346D01*
X289635D01*
Y31115D01*
X289174D01*
Y30884D01*
X288712D01*
Y30654D01*
X288251D01*
Y30423D01*
X288020D01*
Y30192D01*
X283866D01*
Y60425D01*
X287558D01*
Y34577D01*
X288020D01*
Y34808D01*
X288482D01*
Y35038D01*
X288712D01*
Y35269D01*
X289174D01*
Y35500D01*
X289635D01*
Y35731D01*
X290097D01*
Y35962D01*
X290558D01*
Y36192D01*
X290789D01*
Y36423D01*
X291251D01*
Y36654D01*
X291712D01*
Y36885D01*
X292174D01*
Y37115D01*
X292405D01*
Y37346D01*
X292866D01*
Y37577D01*
X293328D01*
Y37808D01*
X293790D01*
Y38039D01*
X294020D01*
Y38731D01*
X293790D01*
Y38962D01*
X293559D01*
Y39423D01*
X293328D01*
Y39885D01*
X293097D01*
Y40346D01*
X292866D01*
Y40577D01*
X292636D01*
Y41039D01*
X292405D01*
Y41500D01*
X292174D01*
Y41731D01*
X291943D01*
Y42193D01*
X291712D01*
Y42654D01*
X291482D01*
Y43116D01*
X291251D01*
Y43347D01*
X291020D01*
Y43808D01*
X290789D01*
Y44270D01*
X290558D01*
Y44731D01*
X290328D01*
Y44962D01*
X290097D01*
Y45424D01*
X289866D01*
Y45885D01*
X290097D01*
Y46578D01*
X290328D01*
Y47039D01*
X290558D01*
Y47732D01*
X290789D01*
Y48424D01*
X291020D01*
Y48885D01*
X291251D01*
Y49578D01*
X291482D01*
Y50270D01*
X291712D01*
Y50963D01*
X291943D01*
Y51424D01*
X292174D01*
Y52116D01*
X292405D01*
Y52809D01*
X292636D01*
Y53270D01*
X292866D01*
Y53963D01*
X293097D01*
Y54655D01*
X293328D01*
Y55117D01*
X293559D01*
Y55809D01*
X293790D01*
Y56501D01*
X294020D01*
Y56963D01*
X294251D01*
Y57655D01*
X294482D01*
Y58348D01*
X294713D01*
Y58809D01*
X294943D01*
Y59502D01*
X295174D01*
Y60194D01*
X295405D01*
Y60425D01*
X299328D01*
Y59732D01*
D02*
G37*
G36*
X177244D02*
X177013D01*
Y59271D01*
X176783D01*
Y58578D01*
X176552D01*
Y57886D01*
X176321D01*
Y57424D01*
X176090D01*
Y56732D01*
X175860D01*
Y56040D01*
X175629D01*
Y55578D01*
X175398D01*
Y54886D01*
X175167D01*
Y54424D01*
X174936D01*
Y53732D01*
X174706D01*
Y53040D01*
X174475D01*
Y52578D01*
X174244D01*
Y51886D01*
X174013D01*
Y51193D01*
X173782D01*
Y50732D01*
X173552D01*
Y50039D01*
X173321D01*
Y49578D01*
X173090D01*
Y48885D01*
X172859D01*
Y48193D01*
X172628D01*
Y47732D01*
X172398D01*
Y47039D01*
X172167D01*
Y46347D01*
X171936D01*
Y45424D01*
X172167D01*
Y44962D01*
X172398D01*
Y44731D01*
X172628D01*
Y44270D01*
X172859D01*
Y43808D01*
X173090D01*
Y43347D01*
X173321D01*
Y43116D01*
X173552D01*
Y42654D01*
X173782D01*
Y42193D01*
X174013D01*
Y41962D01*
X174244D01*
Y41500D01*
X174475D01*
Y41039D01*
X174706D01*
Y40577D01*
X174936D01*
Y40346D01*
X175167D01*
Y39885D01*
X175398D01*
Y35731D01*
X175167D01*
Y35500D01*
X174936D01*
Y35269D01*
X174475D01*
Y35038D01*
X174013D01*
Y34808D01*
X173552D01*
Y34577D01*
X173090D01*
Y34346D01*
X172859D01*
Y34115D01*
X172398D01*
Y33885D01*
X171936D01*
Y33654D01*
X171475D01*
Y33423D01*
X171244D01*
Y33192D01*
X170782D01*
Y32961D01*
X170321D01*
Y32731D01*
X169859D01*
Y32500D01*
X169628D01*
Y32269D01*
X169167D01*
Y32038D01*
X168705D01*
Y31808D01*
X168244D01*
Y31577D01*
X168013D01*
Y31346D01*
X167551D01*
Y31115D01*
X167090D01*
Y30884D01*
X166628D01*
Y30654D01*
X166167D01*
Y30423D01*
X165936D01*
Y30192D01*
X161782D01*
Y56270D01*
Y56501D01*
Y60425D01*
X165474D01*
Y34577D01*
X165936D01*
Y34808D01*
X166397D01*
Y35038D01*
X166628D01*
Y35269D01*
X167090D01*
Y35500D01*
X167551D01*
Y35731D01*
X168013D01*
Y35962D01*
X168244D01*
Y36192D01*
X168705D01*
Y36423D01*
X169167D01*
Y36654D01*
X169628D01*
Y36885D01*
X170090D01*
Y37115D01*
X170551D01*
Y37346D01*
X170782D01*
Y37577D01*
X171244D01*
Y37808D01*
X171705D01*
Y38039D01*
X171936D01*
Y38500D01*
X171705D01*
Y38962D01*
X171475D01*
Y39423D01*
X171244D01*
Y39885D01*
X171013D01*
Y40346D01*
X170782D01*
Y40577D01*
X170551D01*
Y41039D01*
X170321D01*
Y41500D01*
X170090D01*
Y41731D01*
X169859D01*
Y42193D01*
X169628D01*
Y42654D01*
X169398D01*
Y43116D01*
X169167D01*
Y43577D01*
X168936D01*
Y43808D01*
X168705D01*
Y44270D01*
X168474D01*
Y44731D01*
X168244D01*
Y44962D01*
X168013D01*
Y45424D01*
X167782D01*
Y45885D01*
X168013D01*
Y46578D01*
X168244D01*
Y47039D01*
X168474D01*
Y47732D01*
X168705D01*
Y48424D01*
X168936D01*
Y48885D01*
X169167D01*
Y49578D01*
X169398D01*
Y50270D01*
X169628D01*
Y50732D01*
X169859D01*
Y51424D01*
X170090D01*
Y52116D01*
X170321D01*
Y52809D01*
X170551D01*
Y53270D01*
X170782D01*
Y53963D01*
X171013D01*
Y54655D01*
X171244D01*
Y55117D01*
X171475D01*
Y55809D01*
X171705D01*
Y56501D01*
X171936D01*
Y57194D01*
X172167D01*
Y57655D01*
X172398D01*
Y58348D01*
X172628D01*
Y59040D01*
X172859D01*
Y59502D01*
X173090D01*
Y60194D01*
X173321D01*
Y60425D01*
X177244D01*
Y59732D01*
D02*
G37*
G36*
X110086Y59963D02*
X109856D01*
Y59271D01*
X109625D01*
Y58578D01*
X109394D01*
Y57886D01*
X109163D01*
Y57424D01*
X108932D01*
Y56732D01*
X108702D01*
Y56270D01*
X108471D01*
Y55578D01*
X108240D01*
Y55117D01*
X108009D01*
Y54424D01*
X107779D01*
Y53732D01*
X107548D01*
Y53270D01*
X107317D01*
Y52578D01*
X107086D01*
Y51886D01*
X106855D01*
Y51424D01*
X106625D01*
Y50732D01*
X106394D01*
Y50039D01*
X106163D01*
Y49578D01*
X105932D01*
Y48885D01*
X105702D01*
Y48424D01*
X105471D01*
Y47732D01*
X105240D01*
Y47039D01*
X105009D01*
Y46578D01*
X104778D01*
Y45424D01*
X105009D01*
Y44962D01*
X105240D01*
Y44501D01*
X105471D01*
Y44270D01*
X105702D01*
Y43808D01*
X105932D01*
Y43347D01*
X106163D01*
Y43116D01*
X106394D01*
Y42654D01*
X106625D01*
Y42193D01*
X106855D01*
Y41731D01*
X107086D01*
Y41500D01*
X107317D01*
Y41039D01*
X107548D01*
Y40577D01*
X107779D01*
Y40346D01*
X108009D01*
Y39654D01*
X108240D01*
Y35731D01*
X108009D01*
Y35500D01*
X107548D01*
Y35269D01*
X107317D01*
Y35038D01*
X106855D01*
Y34808D01*
X106394D01*
Y34577D01*
X105932D01*
Y34346D01*
X105702D01*
Y34115D01*
X105240D01*
Y33885D01*
X104778D01*
Y33654D01*
X104317D01*
Y33423D01*
X104086D01*
Y33192D01*
X103624D01*
Y32961D01*
X103163D01*
Y32731D01*
X102701D01*
Y32500D01*
X102240D01*
Y32269D01*
X102009D01*
Y32038D01*
X101547D01*
Y31808D01*
X101086D01*
Y31577D01*
X100624D01*
Y31346D01*
X100393D01*
Y31115D01*
X99932D01*
Y30884D01*
X99470D01*
Y30654D01*
X99009D01*
Y30423D01*
X98778D01*
Y30192D01*
X94624D01*
Y60425D01*
X98316D01*
Y47270D01*
Y47039D01*
Y34577D01*
X98778D01*
Y34808D01*
X99240D01*
Y35038D01*
X99470D01*
Y35269D01*
X99932D01*
Y35500D01*
X100393D01*
Y35731D01*
X100855D01*
Y35962D01*
X101086D01*
Y36192D01*
X101547D01*
Y36423D01*
X102009D01*
Y36654D01*
X102471D01*
Y36885D01*
X102932D01*
Y37115D01*
X103163D01*
Y37346D01*
X103624D01*
Y37577D01*
X104086D01*
Y37808D01*
X104548D01*
Y38039D01*
X104778D01*
Y38500D01*
X104548D01*
Y38962D01*
X104317D01*
Y39423D01*
X104086D01*
Y39885D01*
X103855D01*
Y40116D01*
X103624D01*
Y40577D01*
X103394D01*
Y41039D01*
X103163D01*
Y41500D01*
X102932D01*
Y41731D01*
X102701D01*
Y42193D01*
X102471D01*
Y42654D01*
X102240D01*
Y43116D01*
X102009D01*
Y43347D01*
X101778D01*
Y43808D01*
X101547D01*
Y44270D01*
X101317D01*
Y44501D01*
X101086D01*
Y44962D01*
X100855D01*
Y45424D01*
X100624D01*
Y45885D01*
X100855D01*
Y46578D01*
X101086D01*
Y47270D01*
X101317D01*
Y47732D01*
X101547D01*
Y48424D01*
X101778D01*
Y49116D01*
X102009D01*
Y49578D01*
X102240D01*
Y50270D01*
X102471D01*
Y50963D01*
X102701D01*
Y51424D01*
X102932D01*
Y52116D01*
X103163D01*
Y52809D01*
X103394D01*
Y53501D01*
X103624D01*
Y53963D01*
X103855D01*
Y54655D01*
X104086D01*
Y55347D01*
X104317D01*
Y55809D01*
X104548D01*
Y56501D01*
X104778D01*
Y57194D01*
X105009D01*
Y57886D01*
X105240D01*
Y58348D01*
X105471D01*
Y59040D01*
X105702D01*
Y59502D01*
X105932D01*
Y60194D01*
X106163D01*
Y60425D01*
X110086D01*
Y59963D01*
D02*
G37*
G36*
X245325Y41731D02*
X246479D01*
Y41500D01*
X247633D01*
Y41270D01*
X248325D01*
Y41039D01*
X249018D01*
Y40808D01*
X249479D01*
Y40577D01*
X250172D01*
Y40346D01*
X250633D01*
Y40116D01*
X250864D01*
Y39885D01*
X251325D01*
Y39654D01*
X251787D01*
Y39423D01*
X252018D01*
Y39193D01*
X252249D01*
Y38962D01*
X252479D01*
Y38731D01*
X252710D01*
Y38500D01*
X252941D01*
Y38270D01*
X253172D01*
Y38039D01*
X253403D01*
Y37808D01*
X253633D01*
Y37577D01*
X253864D01*
Y37346D01*
X254095D01*
Y37115D01*
X254326D01*
Y36654D01*
X254556D01*
Y36423D01*
X254787D01*
Y35962D01*
X255018D01*
Y35500D01*
X255249D01*
Y35038D01*
X255480D01*
Y34577D01*
X255710D01*
Y33885D01*
X255941D01*
Y33423D01*
X256172D01*
Y32500D01*
X256403D01*
Y31577D01*
X256633D01*
Y30654D01*
X256864D01*
Y30192D01*
X252710D01*
Y30884D01*
X252479D01*
Y31808D01*
X252249D01*
Y32500D01*
X252018D01*
Y33192D01*
X251787D01*
Y33654D01*
X251556D01*
Y34115D01*
X251325D01*
Y34577D01*
X251095D01*
Y35038D01*
X250864D01*
Y35269D01*
X250633D01*
Y35731D01*
X250402D01*
Y35962D01*
X250172D01*
Y36192D01*
X249941D01*
Y36423D01*
X249710D01*
Y36654D01*
X249479D01*
Y36885D01*
X249248D01*
Y37115D01*
X249018D01*
Y37346D01*
X248556D01*
Y37577D01*
X248095D01*
Y37808D01*
X247402D01*
Y38039D01*
X246710D01*
Y38270D01*
X245325D01*
Y30192D01*
X241402D01*
Y38270D01*
X240017D01*
Y38039D01*
X239325D01*
Y37808D01*
X238632D01*
Y37577D01*
X238171D01*
Y37346D01*
X237940D01*
Y37115D01*
X237479D01*
Y36885D01*
X237248D01*
Y36654D01*
X237017D01*
Y36423D01*
X236786D01*
Y36192D01*
X236555D01*
Y35962D01*
X236325D01*
Y35731D01*
X236094D01*
Y35269D01*
X235863D01*
Y34808D01*
X235632D01*
Y34577D01*
X235401D01*
Y34115D01*
X235171D01*
Y33654D01*
X234940D01*
Y32961D01*
X234709D01*
Y32269D01*
X234478D01*
Y31577D01*
X234247D01*
Y30654D01*
X234017D01*
Y30192D01*
X230093D01*
Y31577D01*
X230324D01*
Y32500D01*
X230555D01*
Y33192D01*
X230786D01*
Y33885D01*
X231017D01*
Y34346D01*
X231247D01*
Y35038D01*
X231478D01*
Y35500D01*
X231709D01*
Y35962D01*
X231940D01*
Y36192D01*
X232171D01*
Y36654D01*
X232401D01*
Y36885D01*
X232632D01*
Y37346D01*
X232863D01*
Y37577D01*
X233094D01*
Y37808D01*
X233324D01*
Y38039D01*
X233555D01*
Y38270D01*
X233786D01*
Y38500D01*
X234017D01*
Y38731D01*
X234247D01*
Y38962D01*
X234478D01*
Y39193D01*
X234709D01*
Y39423D01*
X235171D01*
Y39654D01*
X235401D01*
Y39885D01*
X235863D01*
Y40116D01*
X236325D01*
Y40346D01*
X236786D01*
Y40577D01*
X237248D01*
Y40808D01*
X237709D01*
Y41039D01*
X238402D01*
Y41270D01*
X239325D01*
Y41500D01*
X240479D01*
Y41731D01*
X241402D01*
Y60425D01*
X245325D01*
Y41731D01*
D02*
G37*
G36*
X217170D02*
X218093D01*
Y41500D01*
X219477D01*
Y41270D01*
X220170D01*
Y41039D01*
X220862D01*
Y40808D01*
X221324D01*
Y40577D01*
X222016D01*
Y40346D01*
X222247D01*
Y40116D01*
X222708D01*
Y39885D01*
X223170D01*
Y39654D01*
X223401D01*
Y39423D01*
X223862D01*
Y39193D01*
X224093D01*
Y38962D01*
X224324D01*
Y38731D01*
X224555D01*
Y38500D01*
X224785D01*
Y38270D01*
X225016D01*
Y38039D01*
X225247D01*
Y37808D01*
X225478D01*
Y37577D01*
X225709D01*
Y37115D01*
X225939D01*
Y36885D01*
X226170D01*
Y36654D01*
X226401D01*
Y36192D01*
X226632D01*
Y35731D01*
X226863D01*
Y35500D01*
X227093D01*
Y34808D01*
X227324D01*
Y34346D01*
X227555D01*
Y33885D01*
X227786D01*
Y33192D01*
X228016D01*
Y32269D01*
X228247D01*
Y31346D01*
X228478D01*
Y30192D01*
X224555D01*
Y30654D01*
X224324D01*
Y31577D01*
X224093D01*
Y32269D01*
X223862D01*
Y32961D01*
X223631D01*
Y33423D01*
X223401D01*
Y33885D01*
X223170D01*
Y34577D01*
X222939D01*
Y34808D01*
X222708D01*
Y35269D01*
X222478D01*
Y35500D01*
X222247D01*
Y35962D01*
X222016D01*
Y36192D01*
X221785D01*
Y36423D01*
X221555D01*
Y36654D01*
X221324D01*
Y36885D01*
X221093D01*
Y37115D01*
X220631D01*
Y37346D01*
X220170D01*
Y37577D01*
X219708D01*
Y37808D01*
X219247D01*
Y38039D01*
X218554D01*
Y38270D01*
X217170D01*
Y30192D01*
X213015D01*
Y38270D01*
X211862D01*
Y38039D01*
X211169D01*
Y37808D01*
X210477D01*
Y37577D01*
X210015D01*
Y37346D01*
X209554D01*
Y37115D01*
X209323D01*
Y36885D01*
X209092D01*
Y36654D01*
X208861D01*
Y36423D01*
X208631D01*
Y36192D01*
X208400D01*
Y35962D01*
X208169D01*
Y35731D01*
X207938D01*
Y35269D01*
X207708D01*
Y35038D01*
X207477D01*
Y34577D01*
X207246D01*
Y34115D01*
X207015D01*
Y33654D01*
X206784D01*
Y33192D01*
X206554D01*
Y32500D01*
X206323D01*
Y31808D01*
X206092D01*
Y30884D01*
X205861D01*
Y30192D01*
X201707D01*
Y30654D01*
X201938D01*
Y31577D01*
X202169D01*
Y32731D01*
X202400D01*
Y33423D01*
X202630D01*
Y34115D01*
X202861D01*
Y34577D01*
X203092D01*
Y35038D01*
X203323D01*
Y35500D01*
X203553D01*
Y35962D01*
X203784D01*
Y36423D01*
X204015D01*
Y36654D01*
X204246D01*
Y37115D01*
X204477D01*
Y37346D01*
X204707D01*
Y37577D01*
X204938D01*
Y37808D01*
X205169D01*
Y38039D01*
X205400D01*
Y38270D01*
X205630D01*
Y38500D01*
X205861D01*
Y38731D01*
X206092D01*
Y38962D01*
X206323D01*
Y39193D01*
X206554D01*
Y39423D01*
X206784D01*
Y39654D01*
X207246D01*
Y39885D01*
X207708D01*
Y40116D01*
X207938D01*
Y40346D01*
X208400D01*
Y40577D01*
X209092D01*
Y40808D01*
X209554D01*
Y41039D01*
X210246D01*
Y41270D01*
X210938D01*
Y41500D01*
X212092D01*
Y41731D01*
X213015D01*
Y42654D01*
Y42885D01*
Y60425D01*
X217170D01*
Y41731D01*
D02*
G37*
G36*
X141242Y48655D02*
X143088D01*
Y48424D01*
X144473D01*
Y48193D01*
X145165D01*
Y47962D01*
X145858D01*
Y47732D01*
X146550D01*
Y47501D01*
X147012D01*
Y47270D01*
X147473D01*
Y47039D01*
X147935D01*
Y46808D01*
X148396D01*
Y46578D01*
X148627D01*
Y46347D01*
X149089D01*
Y46116D01*
X149319D01*
Y45885D01*
X149550D01*
Y45655D01*
X150012D01*
Y45424D01*
X150243D01*
Y45193D01*
X150473D01*
Y44962D01*
X150935D01*
Y44731D01*
X151166D01*
Y44501D01*
X151397D01*
Y44270D01*
X151627D01*
Y44039D01*
X151858D01*
Y43808D01*
X152089D01*
Y43577D01*
X152320D01*
Y43116D01*
X152550D01*
Y42885D01*
X152781D01*
Y42654D01*
X153012D01*
Y42424D01*
X153243D01*
Y41962D01*
X153474D01*
Y41731D01*
X153704D01*
Y41270D01*
X153935D01*
Y41039D01*
X154166D01*
Y40577D01*
X154397D01*
Y40116D01*
X154628D01*
Y39654D01*
X154858D01*
Y39193D01*
X155089D01*
Y38731D01*
X155320D01*
Y38270D01*
X155551D01*
Y37808D01*
X155781D01*
Y36885D01*
X156012D01*
Y36192D01*
X156243D01*
Y35269D01*
X156474D01*
Y34115D01*
X156705D01*
Y32269D01*
X156935D01*
Y30192D01*
X153012D01*
Y31577D01*
X152781D01*
Y33885D01*
X152550D01*
Y35038D01*
X152320D01*
Y35962D01*
X152089D01*
Y36654D01*
X151858D01*
Y37346D01*
X151627D01*
Y37808D01*
X151397D01*
Y38500D01*
X151166D01*
Y38731D01*
Y38962D01*
X150935D01*
Y39193D01*
X150704D01*
Y39654D01*
X150473D01*
Y40116D01*
X150243D01*
Y40346D01*
X150012D01*
Y40808D01*
X149781D01*
Y41039D01*
X149550D01*
Y41270D01*
X149319D01*
Y41500D01*
X149089D01*
Y41962D01*
X148858D01*
Y42193D01*
X148627D01*
Y42424D01*
X148396D01*
Y42654D01*
X148166D01*
Y42885D01*
X147935D01*
Y43116D01*
X147473D01*
Y43347D01*
X147242D01*
Y43577D01*
X146781D01*
Y43808D01*
X146550D01*
Y44039D01*
X146088D01*
Y44270D01*
X145627D01*
Y44501D01*
X145165D01*
Y44731D01*
X144473D01*
Y44962D01*
X143781D01*
Y45193D01*
X142396D01*
Y45424D01*
X141242D01*
Y30192D01*
X137549D01*
Y60425D01*
X141242D01*
Y48655D01*
D02*
G37*
G36*
X124395Y50963D02*
X124857D01*
Y51193D01*
X125087D01*
Y51424D01*
X125549D01*
Y51655D01*
X126010D01*
Y51886D01*
X126241D01*
Y52116D01*
X126703D01*
Y52347D01*
X127164D01*
Y52578D01*
X127626D01*
Y52809D01*
X127857D01*
Y53040D01*
X128318D01*
Y53270D01*
X128780D01*
Y53501D01*
X129011D01*
Y53732D01*
X129472D01*
Y53963D01*
X129934D01*
Y54194D01*
X130164D01*
Y53732D01*
X130395D01*
Y53270D01*
X130626D01*
Y52809D01*
X130857D01*
Y52578D01*
X131088D01*
Y52116D01*
X131318D01*
Y51424D01*
X131088D01*
Y51193D01*
X130626D01*
Y50963D01*
X130164D01*
Y50732D01*
X129703D01*
Y50501D01*
X129472D01*
Y50270D01*
X129011D01*
Y50039D01*
X128549D01*
Y49809D01*
X128318D01*
Y49578D01*
X127857D01*
Y49347D01*
X127395D01*
Y49116D01*
X127164D01*
Y48885D01*
X126703D01*
Y48655D01*
X126241D01*
Y48424D01*
X126010D01*
Y48193D01*
X125549D01*
Y47962D01*
X125087D01*
Y47732D01*
X124626D01*
Y47501D01*
X124395D01*
Y44039D01*
X124626D01*
Y44270D01*
X125087D01*
Y44501D01*
X125318D01*
Y44731D01*
X125780D01*
Y44962D01*
X126241D01*
Y45193D01*
X126703D01*
Y45424D01*
X126933D01*
Y45655D01*
X127395D01*
Y45885D01*
X127626D01*
Y46116D01*
X128087D01*
Y46347D01*
X128549D01*
Y46578D01*
X129011D01*
Y46808D01*
X129472D01*
Y47039D01*
X129703D01*
Y47270D01*
X130164D01*
Y46808D01*
X130395D01*
Y46578D01*
X130626D01*
Y46116D01*
X130857D01*
Y45655D01*
X131088D01*
Y45193D01*
X131318D01*
Y44962D01*
X131549D01*
Y44731D01*
X131318D01*
Y44501D01*
X130857D01*
Y44270D01*
X130395D01*
Y44039D01*
X130164D01*
Y43808D01*
X129703D01*
Y43577D01*
X129241D01*
Y43347D01*
X129011D01*
Y43116D01*
X128549D01*
Y42885D01*
X128087D01*
Y42654D01*
X127626D01*
Y42424D01*
X127395D01*
Y42193D01*
X126933D01*
Y41962D01*
X126703D01*
Y41731D01*
X126241D01*
Y41500D01*
X125780D01*
Y41270D01*
X125318D01*
Y41039D01*
X125087D01*
Y40808D01*
X124626D01*
Y40577D01*
X124395D01*
Y30192D01*
X120702D01*
Y38270D01*
X120472D01*
Y38039D01*
X120010D01*
Y37808D01*
X119549D01*
Y37577D01*
X119087D01*
Y37346D01*
X118856D01*
Y37115D01*
X118395D01*
Y36885D01*
X117933D01*
Y36654D01*
X117702D01*
Y36423D01*
X117241D01*
Y36192D01*
X116779D01*
Y35962D01*
X116318D01*
Y35731D01*
X116087D01*
Y35500D01*
X115625D01*
Y35269D01*
X115394D01*
Y35038D01*
X114933D01*
Y35269D01*
X114702D01*
Y35731D01*
X114471D01*
Y36192D01*
X114241D01*
Y36654D01*
X114010D01*
Y36885D01*
X113779D01*
Y37346D01*
X113548D01*
Y37808D01*
X114010D01*
Y38039D01*
X114241D01*
Y38270D01*
X114702D01*
Y38500D01*
X115164D01*
Y38731D01*
X115394D01*
Y38962D01*
X115856D01*
Y39193D01*
X116318D01*
Y39423D01*
X116779D01*
Y39654D01*
X117010D01*
Y39885D01*
X117471D01*
Y40116D01*
X117933D01*
Y40346D01*
X118395D01*
Y40577D01*
X118625D01*
Y40808D01*
X119087D01*
Y41039D01*
X119549D01*
Y41270D01*
X119779D01*
Y41500D01*
X120241D01*
Y41731D01*
X120702D01*
Y45193D01*
X120472D01*
Y44962D01*
X120010D01*
Y44731D01*
X119779D01*
Y44501D01*
X119318D01*
Y44270D01*
X118856D01*
Y44039D01*
X118625D01*
Y43808D01*
X118164D01*
Y43577D01*
X117702D01*
Y43347D01*
X117471D01*
Y43116D01*
X117010D01*
Y42885D01*
X116548D01*
Y42654D01*
X116318D01*
Y42424D01*
X115856D01*
Y42193D01*
X115394D01*
Y41962D01*
X114933D01*
Y42193D01*
X114702D01*
Y42654D01*
X114471D01*
Y42885D01*
X114241D01*
Y43347D01*
X114010D01*
Y43808D01*
X113779D01*
Y44270D01*
X113548D01*
Y44731D01*
X114010D01*
Y44962D01*
X114471D01*
Y45193D01*
X114933D01*
Y45424D01*
X115164D01*
Y45655D01*
X115625D01*
Y45885D01*
X116087D01*
Y46116D01*
X116318D01*
Y46347D01*
X116779D01*
Y46578D01*
X117241D01*
Y46808D01*
X117702D01*
Y47039D01*
X117933D01*
Y47270D01*
X118395D01*
Y47501D01*
X118856D01*
Y47732D01*
X119087D01*
Y47962D01*
X119549D01*
Y48193D01*
X120010D01*
Y48424D01*
X120472D01*
Y48655D01*
X120702D01*
Y60425D01*
X124395D01*
Y50963D01*
D02*
G37*
G36*
X76854Y60194D02*
X77315D01*
Y59963D01*
X77546D01*
Y59732D01*
X78008D01*
Y59502D01*
X78469D01*
Y59271D01*
X78700D01*
Y59040D01*
X79162D01*
Y58809D01*
X79392D01*
Y58578D01*
X79854D01*
Y58348D01*
X80315D01*
Y58117D01*
X80546D01*
Y57886D01*
X81008D01*
Y57655D01*
X81238D01*
Y57424D01*
X81700D01*
Y57194D01*
X81931D01*
Y56963D01*
X82392D01*
Y56732D01*
X82623D01*
Y56501D01*
X83085D01*
Y56270D01*
X83546D01*
Y56040D01*
X83777D01*
Y55809D01*
X84239D01*
Y55578D01*
X84469D01*
Y55347D01*
X84931D01*
Y55117D01*
X85393D01*
Y54886D01*
X85623D01*
Y54655D01*
X86085D01*
Y54424D01*
X86316D01*
Y54194D01*
X86777D01*
Y53963D01*
X87008D01*
Y53732D01*
X87470D01*
Y53501D01*
X87931D01*
Y53270D01*
X88162D01*
Y53040D01*
X88393D01*
Y49347D01*
X88162D01*
Y49116D01*
X87700D01*
Y48885D01*
X87239D01*
Y48655D01*
X86777D01*
Y48424D01*
X86546D01*
Y48193D01*
X86085D01*
Y47962D01*
X85623D01*
Y47732D01*
X85393D01*
Y47501D01*
X84931D01*
Y47270D01*
X84700D01*
Y47039D01*
X84239D01*
Y46808D01*
X83777D01*
Y46578D01*
X83316D01*
Y46347D01*
X83085D01*
Y46116D01*
X82623D01*
Y45885D01*
X82162D01*
Y45655D01*
X81931D01*
Y45424D01*
X81469D01*
Y45193D01*
X81238D01*
Y44962D01*
X81700D01*
Y44731D01*
X82162D01*
Y44501D01*
X82392D01*
Y44270D01*
X82854D01*
Y44039D01*
X83085D01*
Y43808D01*
X83546D01*
Y43577D01*
X84008D01*
Y43347D01*
X84239D01*
Y43116D01*
X84700D01*
Y42885D01*
X84931D01*
Y42654D01*
X85393D01*
Y42424D01*
X85854D01*
Y42193D01*
X86085D01*
Y41962D01*
X86546D01*
Y41731D01*
X86777D01*
Y41500D01*
X87239D01*
Y41270D01*
X87700D01*
Y41039D01*
X87931D01*
Y40808D01*
X88393D01*
Y37115D01*
X88162D01*
Y36885D01*
X87931D01*
Y36654D01*
X87470D01*
Y36423D01*
X87008D01*
Y36192D01*
X86777D01*
Y35962D01*
X86316D01*
Y35731D01*
X85854D01*
Y35500D01*
X85393D01*
Y35269D01*
X85162D01*
Y35038D01*
X84700D01*
Y34808D01*
X84239D01*
Y34577D01*
X84008D01*
Y34346D01*
X83546D01*
Y34115D01*
X83085D01*
Y33885D01*
X82854D01*
Y33654D01*
X82392D01*
Y33423D01*
X81931D01*
Y33192D01*
X81700D01*
Y32961D01*
X81238D01*
Y32731D01*
X80777D01*
Y32500D01*
X80315D01*
Y32269D01*
X80085D01*
Y32038D01*
X79623D01*
Y31808D01*
X79162D01*
Y31577D01*
X78931D01*
Y31346D01*
X78469D01*
Y31115D01*
X78008D01*
Y30884D01*
X77777D01*
Y30654D01*
X77315D01*
Y30423D01*
X76854D01*
Y30192D01*
X72930D01*
Y60425D01*
X76854D01*
Y60194D01*
D02*
G37*
G36*
X145912Y133923D02*
X141608D01*
X136864Y146604D01*
X140867D01*
X141492Y144521D01*
X145935D01*
X146559Y146604D01*
X150678D01*
X145912Y133923D01*
D02*
G37*
G36*
X254111Y142948D02*
X254042Y142832D01*
X253973Y142716D01*
X253787Y142439D01*
X253695Y142346D01*
X253626Y142254D01*
X253579Y142184D01*
X253556Y142161D01*
X253417Y141976D01*
X253278Y141837D01*
X253186Y141721D01*
X253093Y141629D01*
X253024Y141559D01*
X252978Y141513D01*
X252931Y141490D01*
X252792Y141397D01*
X252631Y141328D01*
X252307Y141166D01*
X252145Y141120D01*
X252029Y141073D01*
X251936Y141027D01*
X251913D01*
X252214Y140935D01*
X252492Y140865D01*
X252723Y140773D01*
X252931Y140703D01*
X253070Y140634D01*
X253186Y140564D01*
X253255Y140541D01*
X253278Y140518D01*
X253556Y140333D01*
X253811Y140125D01*
X254019Y139916D01*
X254204Y139731D01*
X254343Y139546D01*
X254459Y139407D01*
X254505Y139315D01*
X254528Y139292D01*
X254690Y138991D01*
X254806Y138667D01*
X254875Y138366D01*
X254944Y138088D01*
X254968Y137834D01*
X254991Y137649D01*
Y137510D01*
Y137464D01*
X254968Y137024D01*
X254898Y136631D01*
X254806Y136284D01*
X254690Y135983D01*
X254574Y135728D01*
X254482Y135543D01*
X254412Y135451D01*
X254389Y135404D01*
X254158Y135104D01*
X253903Y134872D01*
X253649Y134664D01*
X253394Y134502D01*
X253186Y134386D01*
X253001Y134317D01*
X252885Y134270D01*
X252839Y134247D01*
X252445Y134132D01*
X252006Y134062D01*
X251543Y133993D01*
X251103Y133970D01*
X250687Y133947D01*
X250525Y133923D01*
X243537D01*
Y146604D01*
X247470D01*
Y141467D01*
X247794D01*
X248003Y141490D01*
X248188Y141513D01*
X248350Y141559D01*
X248489Y141606D01*
X248604Y141675D01*
X248697Y141721D01*
X248743Y141744D01*
X248766Y141768D01*
X248882Y141883D01*
X249021Y142022D01*
X249252Y142346D01*
X249345Y142485D01*
X249414Y142624D01*
X249460Y142716D01*
X249484Y142739D01*
X251589Y146604D01*
X256032D01*
X254111Y142948D01*
D02*
G37*
G36*
X131079Y146789D02*
X131635Y146743D01*
X132121Y146650D01*
X132514Y146558D01*
X132838Y146488D01*
X133092Y146396D01*
X133162Y146372D01*
X133231Y146349D01*
X133254Y146326D01*
X133278D01*
X133671Y146118D01*
X134041Y145886D01*
X134342Y145655D01*
X134620Y145424D01*
X134828Y145192D01*
X134990Y145030D01*
X135105Y144915D01*
X135129Y144868D01*
X135406Y144475D01*
X135615Y144082D01*
X135823Y143688D01*
X135962Y143295D01*
X136101Y142971D01*
X136170Y142693D01*
X136193Y142601D01*
X136216Y142531D01*
X136239Y142485D01*
Y142462D01*
X132815Y141397D01*
X132699Y141837D01*
X132560Y142207D01*
X132421Y142531D01*
X132282Y142786D01*
X132167Y142994D01*
X132051Y143133D01*
X131982Y143225D01*
X131959Y143249D01*
X131727Y143457D01*
X131449Y143619D01*
X131172Y143711D01*
X130894Y143804D01*
X130640Y143850D01*
X130431Y143873D01*
X130246D01*
X129830Y143850D01*
X129483Y143758D01*
X129159Y143642D01*
X128904Y143480D01*
X128719Y143341D01*
X128557Y143225D01*
X128464Y143133D01*
X128441Y143110D01*
X128326Y142948D01*
X128233Y142763D01*
X128071Y142323D01*
X127979Y141837D01*
X127886Y141374D01*
X127840Y140935D01*
Y140726D01*
X127817Y140564D01*
Y140426D01*
Y140310D01*
Y140240D01*
Y140217D01*
X127840Y139616D01*
X127909Y139107D01*
X127979Y138690D01*
X128094Y138343D01*
X128187Y138088D01*
X128256Y137880D01*
X128326Y137788D01*
X128349Y137741D01*
X128488Y137556D01*
X128626Y137371D01*
X128950Y137117D01*
X129298Y136908D01*
X129621Y136793D01*
X129922Y136700D01*
X130177Y136677D01*
X130246Y136654D01*
X130593D01*
X130802Y136700D01*
X130987Y136723D01*
X131149Y136770D01*
X131264Y136816D01*
X131380Y136862D01*
X131426Y136885D01*
X131449Y136908D01*
X131773Y137117D01*
X132028Y137348D01*
X132121Y137441D01*
X132213Y137533D01*
X132236Y137579D01*
X132259Y137603D01*
X132329Y137718D01*
X132398Y137834D01*
X132537Y138112D01*
X132583Y138227D01*
X132630Y138343D01*
X132653Y138412D01*
Y138435D01*
X136124Y137672D01*
X135985Y137302D01*
X135846Y136955D01*
X135684Y136654D01*
X135522Y136353D01*
X135360Y136075D01*
X135175Y135844D01*
X135013Y135612D01*
X134851Y135427D01*
X134689Y135242D01*
X134550Y135104D01*
X134411Y134965D01*
X134296Y134872D01*
X134203Y134780D01*
X134134Y134733D01*
X134087Y134687D01*
X134064D01*
X133786Y134525D01*
X133509Y134363D01*
X132907Y134132D01*
X132282Y133947D01*
X131658Y133831D01*
X131380Y133785D01*
X131125Y133761D01*
X130894Y133738D01*
X130686D01*
X130524Y133715D01*
X130293D01*
X129737Y133738D01*
X129205Y133785D01*
X128719Y133877D01*
X128256Y133970D01*
X127840Y134108D01*
X127446Y134247D01*
X127076Y134409D01*
X126775Y134548D01*
X126475Y134710D01*
X126243Y134872D01*
X126035Y135011D01*
X125850Y135150D01*
X125734Y135242D01*
X125618Y135335D01*
X125572Y135381D01*
X125549Y135404D01*
X125248Y135728D01*
X124994Y136098D01*
X124785Y136469D01*
X124577Y136862D01*
X124415Y137279D01*
X124299Y137672D01*
X124184Y138065D01*
X124091Y138459D01*
X124022Y138829D01*
X123975Y139153D01*
X123929Y139454D01*
X123906Y139731D01*
Y139940D01*
X123883Y140102D01*
Y140194D01*
Y140240D01*
X123929Y141073D01*
X123975Y141467D01*
X124022Y141837D01*
X124114Y142184D01*
X124184Y142508D01*
X124276Y142809D01*
X124369Y143063D01*
X124438Y143318D01*
X124531Y143526D01*
X124623Y143711D01*
X124693Y143850D01*
X124739Y143966D01*
X124785Y144058D01*
X124832Y144105D01*
Y144128D01*
X125202Y144660D01*
X125572Y145100D01*
X125965Y145447D01*
X126313Y145748D01*
X126613Y145956D01*
X126868Y146118D01*
X126960Y146164D01*
X127030Y146210D01*
X127053Y146234D01*
X127076D01*
X127608Y146419D01*
X128164Y146558D01*
X128742Y146673D01*
X129274Y146743D01*
X129529Y146766D01*
X129760Y146789D01*
X129945D01*
X130131Y146812D01*
X130478D01*
X131079Y146789D01*
D02*
G37*
G36*
X197559Y133923D02*
X193856D01*
Y140958D01*
X189043Y133923D01*
X185411D01*
Y146604D01*
X189090D01*
Y139616D01*
X193856Y146604D01*
X197559D01*
Y133923D01*
D02*
G37*
G36*
X164099D02*
X160397D01*
Y140958D01*
X155584Y133923D01*
X151951D01*
Y146604D01*
X155630D01*
Y139616D01*
X160397Y146604D01*
X164099D01*
Y133923D01*
D02*
G37*
G36*
X241385Y143735D02*
X234628D01*
Y141235D01*
X240714D01*
Y138644D01*
X234628D01*
Y136631D01*
X241200D01*
Y133923D01*
X230694D01*
Y146604D01*
X241385D01*
Y143735D01*
D02*
G37*
G36*
X222827Y141420D02*
X227756D01*
Y138852D01*
X222827D01*
Y136654D01*
X228589D01*
Y133923D01*
X218893D01*
Y146604D01*
X222827D01*
Y141420D01*
D02*
G37*
G36*
X211003D02*
X215931D01*
Y138852D01*
X211003D01*
Y136654D01*
X216764D01*
Y133923D01*
X207069D01*
Y146604D01*
X211003D01*
Y141420D01*
D02*
G37*
G36*
X204246Y133923D02*
X200312D01*
Y146604D01*
X204246D01*
Y133923D01*
D02*
G37*
G36*
X178446Y146789D02*
X179024Y146743D01*
X179556Y146650D01*
X179996Y146558D01*
X180181Y146511D01*
X180343Y146465D01*
X180505Y146419D01*
X180621Y146372D01*
X180713Y146349D01*
X180783Y146326D01*
X180806Y146303D01*
X180829D01*
X181269Y146072D01*
X181639Y145840D01*
X181963Y145586D01*
X182241Y145331D01*
X182449Y145100D01*
X182611Y144915D01*
X182703Y144799D01*
X182726Y144753D01*
X182958Y144359D01*
X183120Y143966D01*
X183259Y143573D01*
X183328Y143225D01*
X183374Y142925D01*
X183421Y142693D01*
Y142601D01*
Y142531D01*
Y142508D01*
Y142485D01*
X183397Y142115D01*
X183351Y141744D01*
X183259Y141444D01*
X183166Y141166D01*
X183074Y140935D01*
X182981Y140750D01*
X182935Y140657D01*
X182911Y140611D01*
X182703Y140310D01*
X182449Y140032D01*
X182171Y139801D01*
X181917Y139593D01*
X181662Y139431D01*
X181477Y139315D01*
X181338Y139245D01*
X181315Y139222D01*
X181292D01*
X181060Y139107D01*
X180806Y139014D01*
X180250Y138806D01*
X179626Y138597D01*
X179024Y138435D01*
X178746Y138366D01*
X178469Y138297D01*
X178214Y138227D01*
X178006Y138181D01*
X177844Y138135D01*
X177705Y138112D01*
X177613Y138088D01*
X177589D01*
X177242Y138019D01*
X176965Y137927D01*
X176733Y137857D01*
X176571Y137788D01*
X176432Y137718D01*
X176363Y137672D01*
X176317Y137626D01*
X176294D01*
X176201Y137533D01*
X176132Y137441D01*
X176062Y137255D01*
X176016Y137117D01*
Y137093D01*
Y137070D01*
X176039Y136931D01*
X176062Y136793D01*
X176178Y136561D01*
X176294Y136422D01*
X176317Y136399D01*
X176340Y136376D01*
X176479Y136284D01*
X176641Y136191D01*
X176988Y136122D01*
X177150Y136098D01*
X177265Y136075D01*
X177381D01*
X177682Y136098D01*
X177936Y136145D01*
X178168Y136191D01*
X178353Y136260D01*
X178492Y136353D01*
X178584Y136399D01*
X178654Y136446D01*
X178677Y136469D01*
X178839Y136631D01*
X178978Y136839D01*
X179070Y137047D01*
X179163Y137232D01*
X179232Y137417D01*
X179279Y137579D01*
X179302Y137672D01*
Y137718D01*
X183004Y137510D01*
X182935Y137163D01*
X182865Y136816D01*
X182773Y136515D01*
X182657Y136237D01*
X182541Y135983D01*
X182402Y135728D01*
X182287Y135520D01*
X182148Y135335D01*
X181893Y135034D01*
X181685Y134803D01*
X181523Y134687D01*
X181500Y134641D01*
X181477D01*
X181222Y134479D01*
X180945Y134340D01*
X180366Y134108D01*
X179741Y133947D01*
X179140Y133831D01*
X178862Y133785D01*
X178608Y133761D01*
X178376Y133738D01*
X178168D01*
X178006Y133715D01*
X177775D01*
X177080Y133738D01*
X176456Y133785D01*
X175923Y133877D01*
X175669Y133923D01*
X175461Y133970D01*
X175275Y134016D01*
X175114Y134062D01*
X174975Y134108D01*
X174859Y134155D01*
X174766Y134178D01*
X174697Y134201D01*
X174674Y134224D01*
X174651D01*
X174257Y134432D01*
X173910Y134641D01*
X173610Y134872D01*
X173378Y135080D01*
X173193Y135289D01*
X173054Y135451D01*
X172962Y135543D01*
X172938Y135589D01*
X172753Y135913D01*
X172614Y136237D01*
X172522Y136561D01*
X172453Y136839D01*
X172406Y137070D01*
X172383Y137279D01*
Y137394D01*
Y137417D01*
Y137441D01*
X172406Y137718D01*
X172429Y137973D01*
X172545Y138435D01*
X172730Y138852D01*
X172938Y139199D01*
X173123Y139500D01*
X173309Y139708D01*
X173424Y139824D01*
X173471Y139847D01*
Y139870D01*
X173702Y140055D01*
X173957Y140217D01*
X174512Y140518D01*
X175114Y140773D01*
X175738Y141004D01*
X176016Y141097D01*
X176271Y141166D01*
X176525Y141235D01*
X176733Y141305D01*
X176895Y141328D01*
X177034Y141374D01*
X177127Y141397D01*
X177150D01*
X177428Y141467D01*
X177682Y141536D01*
X177913Y141582D01*
X178122Y141652D01*
X178469Y141791D01*
X178746Y141906D01*
X178932Y141999D01*
X179070Y142068D01*
X179140Y142115D01*
X179163Y142138D01*
X179302Y142277D01*
X179417Y142439D01*
X179487Y142577D01*
X179556Y142716D01*
X179579Y142832D01*
X179603Y142925D01*
Y142994D01*
Y143017D01*
X179579Y143202D01*
X179533Y143387D01*
X179464Y143549D01*
X179371Y143688D01*
X179279Y143781D01*
X179209Y143873D01*
X179163Y143920D01*
X179140Y143943D01*
X178955Y144058D01*
X178746Y144151D01*
X178538Y144220D01*
X178330Y144267D01*
X178122Y144290D01*
X177983Y144313D01*
X177844D01*
X177451Y144290D01*
X177104Y144197D01*
X176803Y144082D01*
X176548Y143920D01*
X176363Y143781D01*
X176224Y143665D01*
X176132Y143573D01*
X176108Y143549D01*
X175993Y143364D01*
X175877Y143133D01*
X175738Y142670D01*
X175669Y142485D01*
X175646Y142323D01*
X175623Y142207D01*
Y142161D01*
X171897Y142416D01*
X171943Y142763D01*
X172013Y143110D01*
X172175Y143711D01*
X172406Y144267D01*
X172661Y144729D01*
X172776Y144915D01*
X172892Y145100D01*
X173008Y145239D01*
X173100Y145354D01*
X173170Y145447D01*
X173239Y145516D01*
X173262Y145562D01*
X173286Y145586D01*
X173540Y145794D01*
X173841Y145979D01*
X174165Y146164D01*
X174512Y146303D01*
X175252Y146511D01*
X175993Y146650D01*
X176363Y146719D01*
X176687Y146743D01*
X176988Y146766D01*
X177242Y146789D01*
X177474Y146812D01*
X177775D01*
X178446Y146789D01*
D02*
G37*
G36*
X191443Y91505D02*
X187139D01*
X182395Y104186D01*
X186398D01*
X187023Y102103D01*
X191466D01*
X192090Y104186D01*
X196209D01*
X191443Y91505D01*
D02*
G37*
G36*
X126467D02*
X122163D01*
X117420Y104186D01*
X121423D01*
X122048Y102103D01*
X126490D01*
X127115Y104186D01*
X131234D01*
X126467Y91505D01*
D02*
G37*
G36*
X262226Y100530D02*
X262157Y100414D01*
X262087Y100298D01*
X261902Y100021D01*
X261810Y99928D01*
X261740Y99836D01*
X261694Y99766D01*
X261671Y99743D01*
X261532Y99558D01*
X261393Y99419D01*
X261300Y99303D01*
X261208Y99211D01*
X261138Y99141D01*
X261092Y99095D01*
X261046Y99072D01*
X260907Y98979D01*
X260745Y98910D01*
X260421Y98748D01*
X260259Y98702D01*
X260143Y98656D01*
X260051Y98609D01*
X260028D01*
X260329Y98517D01*
X260606Y98447D01*
X260838Y98355D01*
X261046Y98285D01*
X261185Y98216D01*
X261300Y98146D01*
X261370Y98123D01*
X261393Y98100D01*
X261671Y97915D01*
X261925Y97707D01*
X262133Y97499D01*
X262318Y97313D01*
X262457Y97128D01*
X262573Y96989D01*
X262619Y96897D01*
X262642Y96874D01*
X262805Y96573D01*
X262920Y96249D01*
X262990Y95948D01*
X263059Y95670D01*
X263082Y95416D01*
X263105Y95231D01*
Y95092D01*
Y95046D01*
X263082Y94606D01*
X263013Y94213D01*
X262920Y93866D01*
X262805Y93565D01*
X262689Y93310D01*
X262596Y93125D01*
X262527Y93033D01*
X262504Y92986D01*
X262272Y92685D01*
X262018Y92454D01*
X261763Y92246D01*
X261509Y92084D01*
X261300Y91968D01*
X261115Y91899D01*
X261000Y91853D01*
X260953Y91829D01*
X260560Y91714D01*
X260120Y91644D01*
X259657Y91575D01*
X259218Y91552D01*
X258801Y91529D01*
X258639Y91505D01*
X251651D01*
Y104186D01*
X255585D01*
Y99049D01*
X255909D01*
X256117Y99072D01*
X256302Y99095D01*
X256464Y99141D01*
X256603Y99188D01*
X256719Y99257D01*
X256811Y99303D01*
X256858Y99326D01*
X256881Y99350D01*
X256996Y99465D01*
X257135Y99604D01*
X257367Y99928D01*
X257459Y100067D01*
X257529Y100206D01*
X257575Y100298D01*
X257598Y100322D01*
X259704Y104186D01*
X264146D01*
X262226Y100530D01*
D02*
G37*
G36*
X154882Y96295D02*
X159533Y91505D01*
X154304D01*
X150208Y96318D01*
Y91505D01*
X146298D01*
Y104186D01*
X150208D01*
Y101108D01*
X152221Y99003D01*
X154905Y104186D01*
X159742D01*
X154882Y96295D01*
D02*
G37*
G36*
X225851Y104371D02*
X226406Y104325D01*
X226892Y104232D01*
X227285Y104139D01*
X227609Y104070D01*
X227864Y103977D01*
X227933Y103954D01*
X228003Y103931D01*
X228026Y103908D01*
X228049D01*
X228442Y103700D01*
X228813Y103468D01*
X229114Y103237D01*
X229391Y103006D01*
X229599Y102774D01*
X229761Y102612D01*
X229877Y102497D01*
X229900Y102450D01*
X230178Y102057D01*
X230386Y101664D01*
X230594Y101270D01*
X230733Y100877D01*
X230872Y100553D01*
X230942Y100275D01*
X230965Y100183D01*
X230988Y100113D01*
X231011Y100067D01*
Y100044D01*
X227586Y98979D01*
X227471Y99419D01*
X227332Y99789D01*
X227193Y100113D01*
X227054Y100368D01*
X226938Y100576D01*
X226823Y100715D01*
X226753Y100807D01*
X226730Y100830D01*
X226499Y101039D01*
X226221Y101201D01*
X225943Y101293D01*
X225666Y101386D01*
X225411Y101432D01*
X225203Y101455D01*
X225018D01*
X224601Y101432D01*
X224254Y101340D01*
X223930Y101224D01*
X223676Y101062D01*
X223491Y100923D01*
X223329Y100807D01*
X223236Y100715D01*
X223213Y100692D01*
X223097Y100530D01*
X223005Y100345D01*
X222843Y99905D01*
X222750Y99419D01*
X222658Y98956D01*
X222611Y98517D01*
Y98308D01*
X222588Y98146D01*
Y98007D01*
Y97892D01*
Y97822D01*
Y97799D01*
X222611Y97198D01*
X222681Y96689D01*
X222750Y96272D01*
X222866Y95925D01*
X222958Y95670D01*
X223028Y95462D01*
X223097Y95370D01*
X223120Y95323D01*
X223259Y95138D01*
X223398Y94953D01*
X223722Y94699D01*
X224069Y94490D01*
X224393Y94375D01*
X224694Y94282D01*
X224948Y94259D01*
X225018Y94236D01*
X225365D01*
X225573Y94282D01*
X225758Y94305D01*
X225920Y94352D01*
X226036Y94398D01*
X226152Y94444D01*
X226198Y94467D01*
X226221Y94490D01*
X226545Y94699D01*
X226800Y94930D01*
X226892Y95022D01*
X226985Y95115D01*
X227008Y95161D01*
X227031Y95184D01*
X227100Y95300D01*
X227170Y95416D01*
X227309Y95694D01*
X227355Y95809D01*
X227401Y95925D01*
X227424Y95994D01*
Y96018D01*
X230895Y95254D01*
X230756Y94884D01*
X230618Y94537D01*
X230456Y94236D01*
X230294Y93935D01*
X230132Y93657D01*
X229946Y93426D01*
X229785Y93195D01*
X229623Y93009D01*
X229461Y92824D01*
X229322Y92685D01*
X229183Y92547D01*
X229067Y92454D01*
X228975Y92361D01*
X228905Y92315D01*
X228859Y92269D01*
X228836D01*
X228558Y92107D01*
X228281Y91945D01*
X227679Y91714D01*
X227054Y91529D01*
X226429Y91413D01*
X226152Y91367D01*
X225897Y91343D01*
X225666Y91320D01*
X225457D01*
X225296Y91297D01*
X225064D01*
X224509Y91320D01*
X223976Y91367D01*
X223491Y91459D01*
X223028Y91552D01*
X222611Y91691D01*
X222218Y91829D01*
X221848Y91991D01*
X221547Y92130D01*
X221246Y92292D01*
X221015Y92454D01*
X220806Y92593D01*
X220621Y92732D01*
X220506Y92824D01*
X220390Y92917D01*
X220344Y92963D01*
X220320Y92986D01*
X220020Y93310D01*
X219765Y93680D01*
X219557Y94051D01*
X219349Y94444D01*
X219187Y94861D01*
X219071Y95254D01*
X218955Y95647D01*
X218863Y96041D01*
X218793Y96411D01*
X218747Y96735D01*
X218701Y97036D01*
X218678Y97313D01*
Y97522D01*
X218654Y97684D01*
Y97776D01*
Y97822D01*
X218701Y98655D01*
X218747Y99049D01*
X218793Y99419D01*
X218886Y99766D01*
X218955Y100090D01*
X219048Y100391D01*
X219140Y100645D01*
X219210Y100900D01*
X219302Y101108D01*
X219395Y101293D01*
X219464Y101432D01*
X219511Y101548D01*
X219557Y101640D01*
X219603Y101687D01*
Y101710D01*
X219973Y102242D01*
X220344Y102682D01*
X220737Y103029D01*
X221084Y103330D01*
X221385Y103538D01*
X221639Y103700D01*
X221732Y103746D01*
X221801Y103792D01*
X221825Y103815D01*
X221848D01*
X222380Y104001D01*
X222935Y104139D01*
X223514Y104255D01*
X224046Y104325D01*
X224300Y104348D01*
X224532Y104371D01*
X224717D01*
X224902Y104394D01*
X225249D01*
X225851Y104371D01*
D02*
G37*
G36*
X139217D02*
X139772Y104325D01*
X140258Y104232D01*
X140652Y104139D01*
X140976Y104070D01*
X141230Y103977D01*
X141299Y103954D01*
X141369Y103931D01*
X141392Y103908D01*
X141415D01*
X141809Y103700D01*
X142179Y103468D01*
X142480Y103237D01*
X142757Y103006D01*
X142965Y102774D01*
X143127Y102612D01*
X143243Y102497D01*
X143266Y102450D01*
X143544Y102057D01*
X143752Y101664D01*
X143961Y101270D01*
X144099Y100877D01*
X144238Y100553D01*
X144308Y100275D01*
X144331Y100183D01*
X144354Y100113D01*
X144377Y100067D01*
Y100044D01*
X140952Y98979D01*
X140837Y99419D01*
X140698Y99789D01*
X140559Y100113D01*
X140420Y100368D01*
X140304Y100576D01*
X140189Y100715D01*
X140119Y100807D01*
X140096Y100830D01*
X139865Y101039D01*
X139587Y101201D01*
X139310Y101293D01*
X139032Y101386D01*
X138777Y101432D01*
X138569Y101455D01*
X138384D01*
X137967Y101432D01*
X137620Y101340D01*
X137296Y101224D01*
X137042Y101062D01*
X136857Y100923D01*
X136695Y100807D01*
X136602Y100715D01*
X136579Y100692D01*
X136463Y100530D01*
X136371Y100345D01*
X136209Y99905D01*
X136116Y99419D01*
X136024Y98956D01*
X135977Y98517D01*
Y98308D01*
X135954Y98146D01*
Y98007D01*
Y97892D01*
Y97822D01*
Y97799D01*
X135977Y97198D01*
X136047Y96689D01*
X136116Y96272D01*
X136232Y95925D01*
X136325Y95670D01*
X136394Y95462D01*
X136463Y95370D01*
X136487Y95323D01*
X136625Y95138D01*
X136764Y94953D01*
X137088Y94699D01*
X137435Y94490D01*
X137759Y94375D01*
X138060Y94282D01*
X138315Y94259D01*
X138384Y94236D01*
X138731D01*
X138939Y94282D01*
X139124Y94305D01*
X139286Y94352D01*
X139402Y94398D01*
X139518Y94444D01*
X139564Y94467D01*
X139587Y94490D01*
X139911Y94699D01*
X140166Y94930D01*
X140258Y95022D01*
X140351Y95115D01*
X140374Y95161D01*
X140397Y95184D01*
X140466Y95300D01*
X140536Y95416D01*
X140675Y95694D01*
X140721Y95809D01*
X140767Y95925D01*
X140790Y95994D01*
Y96018D01*
X144261Y95254D01*
X144122Y94884D01*
X143984Y94537D01*
X143822Y94236D01*
X143660Y93935D01*
X143498Y93657D01*
X143313Y93426D01*
X143151Y93195D01*
X142989Y93009D01*
X142827Y92824D01*
X142688Y92685D01*
X142549Y92547D01*
X142433Y92454D01*
X142341Y92361D01*
X142271Y92315D01*
X142225Y92269D01*
X142202D01*
X141924Y92107D01*
X141647Y91945D01*
X141045Y91714D01*
X140420Y91529D01*
X139795Y91413D01*
X139518Y91367D01*
X139263Y91343D01*
X139032Y91320D01*
X138823D01*
X138662Y91297D01*
X138430D01*
X137875Y91320D01*
X137343Y91367D01*
X136857Y91459D01*
X136394Y91552D01*
X135977Y91691D01*
X135584Y91829D01*
X135214Y91991D01*
X134913Y92130D01*
X134612Y92292D01*
X134381Y92454D01*
X134172Y92593D01*
X133987Y92732D01*
X133872Y92824D01*
X133756Y92917D01*
X133710Y92963D01*
X133687Y92986D01*
X133386Y93310D01*
X133131Y93680D01*
X132923Y94051D01*
X132715Y94444D01*
X132553Y94861D01*
X132437Y95254D01*
X132321Y95647D01*
X132229Y96041D01*
X132159Y96411D01*
X132113Y96735D01*
X132067Y97036D01*
X132044Y97313D01*
Y97522D01*
X132021Y97684D01*
Y97776D01*
Y97822D01*
X132067Y98655D01*
X132113Y99049D01*
X132159Y99419D01*
X132252Y99766D01*
X132321Y100090D01*
X132414Y100391D01*
X132507Y100645D01*
X132576Y100900D01*
X132669Y101108D01*
X132761Y101293D01*
X132830Y101432D01*
X132877Y101548D01*
X132923Y101640D01*
X132969Y101687D01*
Y101710D01*
X133340Y102242D01*
X133710Y102682D01*
X134103Y103029D01*
X134450Y103330D01*
X134751Y103538D01*
X135006Y103700D01*
X135098Y103746D01*
X135168Y103792D01*
X135191Y103815D01*
X135214D01*
X135746Y104001D01*
X136301Y104139D01*
X136880Y104255D01*
X137412Y104325D01*
X137667Y104348D01*
X137898Y104371D01*
X138083D01*
X138268Y104394D01*
X138615D01*
X139217Y104371D01*
D02*
G37*
G36*
X287008Y104371D02*
X287610Y104325D01*
X288165Y104255D01*
X288628Y104186D01*
X288813Y104139D01*
X288998Y104116D01*
X289137Y104070D01*
X289276Y104047D01*
X289368Y104024D01*
X289438Y104001D01*
X289484Y103977D01*
X289507D01*
X290016Y103792D01*
X290549Y103538D01*
X291081Y103260D01*
X291567Y103006D01*
X291983Y102751D01*
X292168Y102635D01*
X292307Y102543D01*
X292446Y102473D01*
X292539Y102404D01*
X292585Y102381D01*
X292608Y102358D01*
Y96943D01*
X286546D01*
Y99581D01*
X289183D01*
Y100784D01*
X288906Y100946D01*
X288628Y101085D01*
X288397Y101201D01*
X288188Y101270D01*
X288026Y101340D01*
X287911Y101386D01*
X287818Y101432D01*
X287795D01*
X287355Y101548D01*
X287147Y101571D01*
X286939Y101594D01*
X286777Y101617D01*
X286546D01*
X286059Y101571D01*
X285620Y101479D01*
X285250Y101340D01*
X284949Y101178D01*
X284694Y101016D01*
X284509Y100877D01*
X284417Y100784D01*
X284370Y100738D01*
X284231Y100553D01*
X284116Y100368D01*
X283931Y99905D01*
X283792Y99419D01*
X283699Y98933D01*
X283653Y98493D01*
X283630Y98308D01*
Y98123D01*
X283607Y97984D01*
Y97892D01*
Y97822D01*
Y97799D01*
Y97452D01*
X283630Y97128D01*
X283676Y96827D01*
X283722Y96550D01*
X283792Y96295D01*
X283838Y96064D01*
X284000Y95670D01*
X284139Y95370D01*
X284255Y95138D01*
X284347Y95023D01*
X284370Y94976D01*
X284671Y94676D01*
X285018Y94444D01*
X285365Y94282D01*
X285689Y94190D01*
X285990Y94120D01*
X286222Y94097D01*
X286314Y94074D01*
X286430D01*
X286754Y94097D01*
X287031Y94143D01*
X287263Y94190D01*
X287471Y94259D01*
X287633Y94352D01*
X287772Y94398D01*
X287841Y94444D01*
X287864Y94467D01*
X288050Y94629D01*
X288235Y94791D01*
X288374Y94976D01*
X288489Y95138D01*
X288559Y95300D01*
X288628Y95439D01*
X288674Y95532D01*
Y95555D01*
X292446Y94884D01*
X292307Y94444D01*
X292145Y94051D01*
X291960Y93704D01*
X291798Y93426D01*
X291636Y93195D01*
X291520Y93009D01*
X291428Y92917D01*
X291405Y92871D01*
X291127Y92593D01*
X290849Y92338D01*
X290549Y92130D01*
X290271Y91968D01*
X290040Y91853D01*
X289854Y91760D01*
X289716Y91714D01*
X289692Y91691D01*
X289669D01*
X289461Y91621D01*
X289230Y91552D01*
X288744Y91459D01*
X288211Y91390D01*
X287702Y91343D01*
X287240Y91320D01*
X287055Y91297D01*
X286522D01*
X285736Y91320D01*
X285389Y91343D01*
X285041Y91390D01*
X284741Y91436D01*
X284463Y91505D01*
X284185Y91552D01*
X283954Y91598D01*
X283746Y91667D01*
X283561Y91714D01*
X283398Y91783D01*
X283260Y91829D01*
X283167Y91853D01*
X283098Y91899D01*
X283051Y91922D01*
X283028D01*
X282450Y92246D01*
X281941Y92616D01*
X281524Y93009D01*
X281154Y93380D01*
X280876Y93727D01*
X280691Y94004D01*
X280622Y94120D01*
X280576Y94190D01*
X280529Y94236D01*
Y94259D01*
X280252Y94861D01*
X280043Y95462D01*
X279881Y96064D01*
X279789Y96619D01*
X279743Y96874D01*
X279719Y97105D01*
X279696Y97313D01*
Y97499D01*
X279673Y97637D01*
Y97753D01*
Y97822D01*
Y97846D01*
X279696Y98563D01*
X279789Y99234D01*
X279904Y99836D01*
X279974Y100113D01*
X280066Y100345D01*
X280136Y100576D01*
X280205Y100784D01*
X280252Y100946D01*
X280321Y101085D01*
X280367Y101201D01*
X280413Y101293D01*
X280437Y101340D01*
Y101363D01*
X280761Y101895D01*
X281108Y102358D01*
X281478Y102751D01*
X281825Y103052D01*
X282149Y103307D01*
X282404Y103492D01*
X282496Y103538D01*
X282565Y103584D01*
X282612Y103630D01*
X282635D01*
X283213Y103885D01*
X283815Y104070D01*
X284440Y104209D01*
X285018Y104302D01*
X285296Y104325D01*
X285550Y104348D01*
X285759Y104371D01*
X285967D01*
X286129Y104394D01*
X286337D01*
X287008Y104371D01*
D02*
G37*
G36*
X204308Y104371D02*
X204910Y104325D01*
X205465Y104255D01*
X205928Y104186D01*
X206113Y104139D01*
X206298Y104116D01*
X206437Y104070D01*
X206576Y104047D01*
X206668Y104024D01*
X206738Y104001D01*
X206784Y103977D01*
X206807D01*
X207316Y103792D01*
X207848Y103538D01*
X208381Y103260D01*
X208867Y103006D01*
X209283Y102751D01*
X209468Y102635D01*
X209607Y102543D01*
X209746Y102473D01*
X209838Y102404D01*
X209885Y102381D01*
X209908Y102358D01*
Y96943D01*
X203845D01*
Y99581D01*
X206483D01*
Y100784D01*
X206206Y100946D01*
X205928Y101085D01*
X205696Y101201D01*
X205488Y101270D01*
X205326Y101340D01*
X205210Y101386D01*
X205118Y101432D01*
X205095D01*
X204655Y101548D01*
X204447Y101571D01*
X204239Y101594D01*
X204077Y101617D01*
X203845D01*
X203359Y101571D01*
X202920Y101478D01*
X202549Y101340D01*
X202249Y101178D01*
X201994Y101016D01*
X201809Y100877D01*
X201716Y100784D01*
X201670Y100738D01*
X201531Y100553D01*
X201416Y100368D01*
X201231Y99905D01*
X201092Y99419D01*
X200999Y98933D01*
X200953Y98493D01*
X200930Y98308D01*
Y98123D01*
X200907Y97984D01*
Y97892D01*
Y97822D01*
Y97799D01*
Y97452D01*
X200930Y97128D01*
X200976Y96827D01*
X201022Y96550D01*
X201092Y96295D01*
X201138Y96064D01*
X201300Y95670D01*
X201439Y95370D01*
X201555Y95138D01*
X201647Y95022D01*
X201670Y94976D01*
X201971Y94676D01*
X202318Y94444D01*
X202665Y94282D01*
X202989Y94190D01*
X203290Y94120D01*
X203521Y94097D01*
X203614Y94074D01*
X203730D01*
X204053Y94097D01*
X204331Y94143D01*
X204563Y94190D01*
X204771Y94259D01*
X204933Y94352D01*
X205072Y94398D01*
X205141Y94444D01*
X205164Y94467D01*
X205349Y94629D01*
X205534Y94791D01*
X205673Y94976D01*
X205789Y95138D01*
X205858Y95300D01*
X205928Y95439D01*
X205974Y95532D01*
Y95555D01*
X209746Y94884D01*
X209607Y94444D01*
X209445Y94051D01*
X209260Y93704D01*
X209098Y93426D01*
X208936Y93195D01*
X208820Y93009D01*
X208728Y92917D01*
X208704Y92871D01*
X208427Y92593D01*
X208149Y92338D01*
X207848Y92130D01*
X207571Y91968D01*
X207339Y91852D01*
X207154Y91760D01*
X207015Y91714D01*
X206992Y91691D01*
X206969D01*
X206761Y91621D01*
X206529Y91552D01*
X206043Y91459D01*
X205511Y91390D01*
X205002Y91343D01*
X204539Y91320D01*
X204354Y91297D01*
X203822D01*
X203035Y91320D01*
X202688Y91343D01*
X202341Y91390D01*
X202040Y91436D01*
X201763Y91505D01*
X201485Y91552D01*
X201254Y91598D01*
X201045Y91667D01*
X200860Y91714D01*
X200698Y91783D01*
X200560Y91829D01*
X200467Y91852D01*
X200397Y91899D01*
X200351Y91922D01*
X200328D01*
X199750Y92246D01*
X199240Y92616D01*
X198824Y93009D01*
X198454Y93380D01*
X198176Y93727D01*
X197991Y94004D01*
X197922Y94120D01*
X197875Y94190D01*
X197829Y94236D01*
Y94259D01*
X197551Y94861D01*
X197343Y95462D01*
X197181Y96064D01*
X197089Y96619D01*
X197042Y96874D01*
X197019Y97105D01*
X196996Y97313D01*
Y97499D01*
X196973Y97637D01*
Y97753D01*
Y97822D01*
Y97845D01*
X196996Y98563D01*
X197089Y99234D01*
X197204Y99836D01*
X197274Y100113D01*
X197366Y100345D01*
X197436Y100576D01*
X197505Y100784D01*
X197551Y100946D01*
X197621Y101085D01*
X197667Y101201D01*
X197713Y101293D01*
X197736Y101340D01*
Y101363D01*
X198060Y101895D01*
X198407Y102358D01*
X198778Y102751D01*
X199125Y103052D01*
X199449Y103306D01*
X199703Y103492D01*
X199796Y103538D01*
X199865Y103584D01*
X199912Y103630D01*
X199935D01*
X200513Y103885D01*
X201115Y104070D01*
X201740Y104209D01*
X202318Y104301D01*
X202596Y104325D01*
X202850Y104348D01*
X203058Y104371D01*
X203267D01*
X203429Y104394D01*
X203637D01*
X204308Y104371D01*
D02*
G37*
G36*
X181169Y91505D02*
X176009D01*
X174019Y99234D01*
X172052Y91505D01*
X166892D01*
Y104186D01*
X170108D01*
Y94514D01*
X172561Y104186D01*
X175476D01*
X177952Y94514D01*
Y104186D01*
X181169D01*
Y91505D01*
D02*
G37*
G36*
X242719Y99465D02*
X244848D01*
X245288Y99442D01*
X245681Y99419D01*
X246052Y99373D01*
X246399Y99303D01*
X246723Y99211D01*
X247023Y99118D01*
X247278Y99026D01*
X247509Y98933D01*
X247718Y98841D01*
X247903Y98748D01*
X248041Y98656D01*
X248180Y98563D01*
X248273Y98493D01*
X248342Y98447D01*
X248365Y98401D01*
X248389D01*
X248597Y98193D01*
X248782Y97961D01*
X248921Y97730D01*
X249060Y97475D01*
X249268Y96966D01*
X249407Y96480D01*
X249476Y96064D01*
X249522Y95879D01*
Y95717D01*
X249546Y95578D01*
Y95485D01*
Y95416D01*
Y95393D01*
Y95046D01*
X249499Y94745D01*
X249384Y94166D01*
X249198Y93680D01*
X249013Y93264D01*
X248828Y92940D01*
X248643Y92709D01*
X248574Y92639D01*
X248527Y92570D01*
X248504Y92523D01*
X248481D01*
X248273Y92338D01*
X248041Y92176D01*
X247532Y91945D01*
X247000Y91760D01*
X246491Y91621D01*
X246028Y91552D01*
X245820Y91529D01*
X245635D01*
X245496Y91505D01*
X238786D01*
Y104186D01*
X242719D01*
Y99465D01*
D02*
G37*
G36*
X216317Y91505D02*
X212384D01*
Y104186D01*
X216317D01*
Y91505D01*
D02*
G37*
G36*
X116910Y101062D02*
X110779D01*
Y91505D01*
X106868D01*
Y104186D01*
X116910D01*
Y101062D01*
D02*
G37*
G36*
X100296Y104163D02*
X100574Y104139D01*
X100875Y104093D01*
X101153Y104070D01*
X101384Y104047D01*
X101477D01*
X101546Y104024D01*
X101592D01*
X101939Y103954D01*
X102240Y103908D01*
X102495Y103839D01*
X102703Y103769D01*
X102865Y103700D01*
X102981Y103653D01*
X103050Y103607D01*
X103073D01*
X103351Y103422D01*
X103605Y103214D01*
X103837Y103006D01*
X104022Y102797D01*
X104161Y102635D01*
X104253Y102497D01*
X104323Y102381D01*
X104346Y102358D01*
X104508Y102057D01*
X104623Y101756D01*
X104693Y101455D01*
X104762Y101178D01*
X104785Y100946D01*
X104809Y100761D01*
Y100645D01*
Y100599D01*
X104785Y100160D01*
X104716Y99766D01*
X104600Y99419D01*
X104485Y99141D01*
X104369Y98910D01*
X104253Y98725D01*
X104184Y98632D01*
X104161Y98586D01*
X103883Y98308D01*
X103582Y98077D01*
X103235Y97869D01*
X102911Y97707D01*
X102610Y97591D01*
X102379Y97522D01*
X102286Y97475D01*
X102217D01*
X102171Y97452D01*
X102148D01*
X102472Y97313D01*
X102749Y97175D01*
X102981Y97036D01*
X103166Y96897D01*
X103328Y96781D01*
X103420Y96689D01*
X103490Y96619D01*
X103513Y96596D01*
X103744Y96272D01*
X103929Y95948D01*
X104045Y95624D01*
X104138Y95323D01*
X104184Y95069D01*
X104230Y94861D01*
Y94722D01*
Y94699D01*
Y94676D01*
Y94421D01*
X104184Y94190D01*
X104068Y93750D01*
X103906Y93380D01*
X103744Y93056D01*
X103559Y92778D01*
X103397Y92593D01*
X103281Y92477D01*
X103258Y92431D01*
X103235D01*
X102819Y92130D01*
X102379Y91899D01*
X101916Y91737D01*
X101453Y91621D01*
X101037Y91552D01*
X100875Y91529D01*
X100713D01*
X100597Y91505D01*
X93077D01*
Y104186D01*
X100042D01*
X100296Y104163D01*
D02*
G37*
G36*
X272361Y104371D02*
X273055Y104278D01*
X273657Y104139D01*
X273911Y104070D01*
X274166Y104001D01*
X274397Y103931D01*
X274582Y103862D01*
X274744Y103792D01*
X274883Y103723D01*
X274999Y103677D01*
X275068Y103630D01*
X275115Y103607D01*
X275138D01*
X275647Y103283D01*
X276063Y102936D01*
X276434Y102566D01*
X276734Y102219D01*
X276989Y101895D01*
X277151Y101640D01*
X277220Y101548D01*
X277267Y101479D01*
X277290Y101432D01*
Y101409D01*
X277544Y100831D01*
X277729Y100229D01*
X277868Y99627D01*
X277961Y99049D01*
X277984Y98771D01*
X278007Y98540D01*
X278030Y98308D01*
X278053Y98123D01*
Y97961D01*
Y97846D01*
Y97776D01*
Y97753D01*
X278030Y97198D01*
X277984Y96665D01*
X277891Y96180D01*
X277776Y95717D01*
X277660Y95300D01*
X277498Y94907D01*
X277359Y94560D01*
X277197Y94236D01*
X277035Y93958D01*
X276873Y93704D01*
X276711Y93495D01*
X276595Y93310D01*
X276480Y93195D01*
X276387Y93079D01*
X276341Y93033D01*
X276318Y93009D01*
X275971Y92709D01*
X275624Y92454D01*
X275230Y92223D01*
X274837Y92014D01*
X274444Y91853D01*
X274027Y91714D01*
X273634Y91598D01*
X273240Y91505D01*
X272893Y91436D01*
X272546Y91390D01*
X272245Y91343D01*
X271968Y91320D01*
X271759Y91297D01*
X271459D01*
X270903Y91320D01*
X270371Y91367D01*
X269862Y91459D01*
X269399Y91575D01*
X268960Y91691D01*
X268566Y91853D01*
X268196Y91991D01*
X267872Y92153D01*
X267594Y92315D01*
X267340Y92477D01*
X267132Y92639D01*
X266946Y92755D01*
X266808Y92871D01*
X266715Y92963D01*
X266646Y93009D01*
X266623Y93033D01*
X266322Y93380D01*
X266067Y93727D01*
X265836Y94120D01*
X265627Y94514D01*
X265466Y94930D01*
X265327Y95323D01*
X265211Y95717D01*
X265118Y96110D01*
X265049Y96457D01*
X265003Y96804D01*
X264956Y97105D01*
X264933Y97360D01*
Y97568D01*
X264910Y97730D01*
Y97822D01*
Y97869D01*
X264956Y98656D01*
X265049Y99373D01*
X265118Y99720D01*
X265188Y100021D01*
X265257Y100298D01*
X265350Y100553D01*
X265419Y100784D01*
X265489Y100992D01*
X265558Y101154D01*
X265627Y101293D01*
X265697Y101409D01*
X265720Y101502D01*
X265766Y101548D01*
Y101571D01*
X266113Y102080D01*
X266507Y102520D01*
X266877Y102913D01*
X267247Y103191D01*
X267571Y103422D01*
X267826Y103584D01*
X267918Y103654D01*
X267988Y103700D01*
X268034Y103723D01*
X268057D01*
X268612Y103954D01*
X269214Y104116D01*
X269793Y104232D01*
X270348Y104302D01*
X270626Y104348D01*
X270857D01*
X271065Y104371D01*
X271250Y104394D01*
X271597D01*
X272361Y104371D01*
D02*
G37*
%LPC*%
G36*
X77084Y56270D02*
X76623D01*
Y46347D01*
X76854D01*
Y46578D01*
X77315D01*
Y46808D01*
X77777D01*
Y47039D01*
X78008D01*
Y47270D01*
X78469D01*
Y47501D01*
X78931D01*
Y47732D01*
X79162D01*
Y47962D01*
X79623D01*
Y48193D01*
X80085D01*
Y48424D01*
X80315D01*
Y48655D01*
X80777D01*
Y48885D01*
X81238D01*
Y49116D01*
X81469D01*
Y49347D01*
X81931D01*
Y49578D01*
X82392D01*
Y49809D01*
X82854D01*
Y50039D01*
X83085D01*
Y50270D01*
X83546D01*
Y50501D01*
X84008D01*
Y50732D01*
X84239D01*
Y50963D01*
X84700D01*
Y51424D01*
X84239D01*
Y51655D01*
X84008D01*
Y51886D01*
X83546D01*
Y52116D01*
X83316D01*
Y52347D01*
X82854D01*
Y52578D01*
X82392D01*
Y52809D01*
X82162D01*
Y53040D01*
X81700D01*
Y53270D01*
X81469D01*
Y53501D01*
X81008D01*
Y53732D01*
X80777D01*
Y53963D01*
X80315D01*
Y54194D01*
X79854D01*
Y54424D01*
X79623D01*
Y54655D01*
X79162D01*
Y54886D01*
X78931D01*
Y55117D01*
X78469D01*
Y55347D01*
X78238D01*
Y55578D01*
X77777D01*
Y55809D01*
X77315D01*
Y56040D01*
X77084D01*
Y56270D01*
D02*
G37*
G36*
X76854Y44039D02*
X76623D01*
Y34115D01*
X77084D01*
Y34346D01*
X77546D01*
Y34577D01*
X77777D01*
Y34808D01*
X78238D01*
Y35038D01*
X78700D01*
Y35269D01*
X79162D01*
Y35500D01*
X79392D01*
Y35731D01*
X79854D01*
Y35962D01*
X80085D01*
Y36192D01*
X80546D01*
Y36423D01*
X81008D01*
Y36654D01*
X81469D01*
Y36885D01*
X81700D01*
Y37115D01*
X82162D01*
Y37346D01*
X82623D01*
Y37577D01*
X82854D01*
Y37808D01*
X83316D01*
Y38039D01*
X83777D01*
Y38270D01*
X84008D01*
Y38500D01*
X84469D01*
Y38731D01*
X84700D01*
Y38962D01*
X84469D01*
Y39193D01*
X84239D01*
Y39423D01*
X83777D01*
Y39654D01*
X83316D01*
Y39885D01*
X83085D01*
Y40116D01*
X82623D01*
Y40346D01*
X82392D01*
Y40577D01*
X81931D01*
Y40808D01*
X81700D01*
Y41039D01*
X81238D01*
Y41270D01*
X80777D01*
Y41500D01*
X80546D01*
Y41731D01*
X80085D01*
Y41962D01*
X79854D01*
Y42193D01*
X79392D01*
Y42424D01*
X79162D01*
Y42654D01*
X78700D01*
Y42885D01*
X78469D01*
Y43116D01*
X78008D01*
Y43347D01*
X77546D01*
Y43577D01*
X77315D01*
Y43808D01*
X76854D01*
Y44039D01*
D02*
G37*
G36*
X145102Y141768D02*
X142325D01*
X143713Y137232D01*
X145102Y141768D01*
D02*
G37*
G36*
X249252Y139060D02*
X247470D01*
Y136492D01*
X249183D01*
X249553Y136515D01*
X249877Y136538D01*
X250131Y136608D01*
X250340Y136654D01*
X250478Y136723D01*
X250594Y136793D01*
X250641Y136816D01*
X250664Y136839D01*
X250802Y136978D01*
X250895Y137117D01*
X250965Y137279D01*
X251011Y137417D01*
X251034Y137556D01*
X251057Y137672D01*
Y137741D01*
Y137765D01*
Y137927D01*
X251011Y138065D01*
X250941Y138297D01*
X250895Y138389D01*
X250849Y138435D01*
X250826Y138482D01*
X250802Y138505D01*
X250710Y138621D01*
X250594Y138713D01*
X250386Y138829D01*
X250293Y138852D01*
X250224Y138875D01*
X250178Y138898D01*
X250155D01*
X249900Y138945D01*
X249669Y138991D01*
X249484Y139014D01*
X249345Y139037D01*
X249252Y139060D01*
D02*
G37*
G36*
X190633Y99350D02*
X187856D01*
X189244Y94814D01*
X190633Y99350D01*
D02*
G37*
G36*
X125657D02*
X122880D01*
X124269Y94814D01*
X125657Y99350D01*
D02*
G37*
G36*
X257367Y96642D02*
X255585D01*
Y94074D01*
X257297D01*
X257668Y94097D01*
X257992Y94120D01*
X258246Y94190D01*
X258454Y94236D01*
X258593Y94305D01*
X258709Y94375D01*
X258755Y94398D01*
X258778Y94421D01*
X258917Y94560D01*
X259010Y94699D01*
X259079Y94861D01*
X259125Y94999D01*
X259148Y95138D01*
X259172Y95254D01*
Y95323D01*
Y95346D01*
Y95508D01*
X259125Y95647D01*
X259056Y95879D01*
X259010Y95971D01*
X258963Y96018D01*
X258940Y96064D01*
X258917Y96087D01*
X258825Y96203D01*
X258709Y96295D01*
X258500Y96411D01*
X258408Y96434D01*
X258339Y96457D01*
X258292Y96480D01*
X258269D01*
X258015Y96527D01*
X257783Y96573D01*
X257598Y96596D01*
X257459Y96619D01*
X257367Y96642D01*
D02*
G37*
G36*
X243853Y96897D02*
X242719D01*
Y94074D01*
X243830D01*
X244200Y94097D01*
X244524Y94143D01*
X244779Y94213D01*
X244987Y94282D01*
X245126Y94352D01*
X245242Y94421D01*
X245288Y94467D01*
X245311Y94490D01*
X245450Y94652D01*
X245543Y94814D01*
X245635Y94999D01*
X245681Y95161D01*
X245704Y95300D01*
X245728Y95416D01*
Y95485D01*
Y95508D01*
X245704Y95740D01*
X245658Y95925D01*
X245589Y96110D01*
X245496Y96249D01*
X245404Y96365D01*
X245334Y96457D01*
X245288Y96503D01*
X245265Y96527D01*
X245056Y96642D01*
X244825Y96735D01*
X244548Y96804D01*
X244293Y96851D01*
X244062Y96874D01*
X243853Y96897D01*
D02*
G37*
G36*
X99186Y101455D02*
X97034D01*
Y98887D01*
X99001D01*
X99371Y98910D01*
X99672Y98933D01*
X99926Y99003D01*
X100111Y99049D01*
X100273Y99118D01*
X100389Y99188D01*
X100435Y99211D01*
X100458Y99234D01*
X100597Y99373D01*
X100690Y99512D01*
X100782Y99674D01*
X100829Y99812D01*
X100852Y99951D01*
X100875Y100044D01*
Y100113D01*
Y100136D01*
X100852Y100345D01*
X100806Y100530D01*
X100736Y100715D01*
X100667Y100854D01*
X100597Y100969D01*
X100528Y101039D01*
X100482Y101085D01*
X100458Y101108D01*
X100273Y101224D01*
X100065Y101316D01*
X99834Y101363D01*
X99579Y101409D01*
X99371Y101432D01*
X99186Y101455D01*
D02*
G37*
G36*
X98885Y96480D02*
X97034D01*
Y94074D01*
X98769D01*
X99070Y94097D01*
X99348Y94120D01*
X99556Y94166D01*
X99718Y94236D01*
X99857Y94305D01*
X99949Y94352D01*
X99996Y94375D01*
X100019Y94398D01*
X100134Y94514D01*
X100227Y94652D01*
X100296Y94791D01*
X100343Y94930D01*
X100366Y95069D01*
X100389Y95161D01*
Y95231D01*
Y95254D01*
X100366Y95462D01*
X100343Y95647D01*
X100273Y95809D01*
X100204Y95948D01*
X100134Y96041D01*
X100088Y96110D01*
X100042Y96156D01*
X100019Y96180D01*
X99857Y96272D01*
X99672Y96341D01*
X99255Y96434D01*
X99047Y96457D01*
X98885Y96480D01*
D02*
G37*
G36*
X271597Y101455D02*
X271482D01*
X271042Y101409D01*
X270649Y101316D01*
X270302Y101201D01*
X270024Y101039D01*
X269816Y100877D01*
X269654Y100761D01*
X269538Y100669D01*
X269515Y100622D01*
X269399Y100460D01*
X269284Y100275D01*
X269121Y99836D01*
X268983Y99373D01*
X268913Y98933D01*
X268867Y98517D01*
X268844Y98331D01*
Y98169D01*
X268821Y98054D01*
Y97961D01*
Y97892D01*
Y97869D01*
Y97522D01*
X268844Y97198D01*
X268890Y96897D01*
X268936Y96619D01*
X268983Y96388D01*
X269052Y96156D01*
X269121Y95948D01*
X269191Y95763D01*
X269307Y95485D01*
X269422Y95277D01*
X269515Y95161D01*
X269538Y95115D01*
X269816Y94838D01*
X270140Y94629D01*
X270464Y94467D01*
X270764Y94375D01*
X271019Y94305D01*
X271250Y94282D01*
X271389Y94259D01*
X271435D01*
X271875Y94305D01*
X272269Y94398D01*
X272616Y94514D01*
X272893Y94676D01*
X273102Y94838D01*
X273263Y94953D01*
X273379Y95046D01*
X273402Y95092D01*
X273657Y95439D01*
X273842Y95856D01*
X273958Y96295D01*
X274050Y96712D01*
X274097Y97105D01*
X274120Y97267D01*
X274143Y97406D01*
Y97545D01*
Y97637D01*
Y97684D01*
Y97707D01*
Y98100D01*
X274120Y98447D01*
X274073Y98771D01*
X274027Y99072D01*
X273981Y99326D01*
X273911Y99581D01*
X273842Y99789D01*
X273796Y99974D01*
X273726Y100136D01*
X273657Y100275D01*
X273587Y100391D01*
X273541Y100484D01*
X273449Y100599D01*
X273425Y100645D01*
X273148Y100923D01*
X272824Y101108D01*
X272500Y101247D01*
X272199Y101363D01*
X271921Y101409D01*
X271690Y101432D01*
X271597Y101455D01*
D02*
G37*
%LPD*%
D10*
X173139Y223477D02*
Y230142D01*
X176471Y233474D01*
X179803Y230142D01*
Y223477D01*
X193132Y233474D02*
X196464D01*
X194798D01*
Y223477D01*
X193132Y225143D01*
X201463Y233474D02*
Y231808D01*
X203129D01*
Y233474D01*
X201463D01*
X214792D02*
Y223477D01*
X209793Y228476D01*
X216458D01*
X219790Y233474D02*
Y231808D01*
X221456D01*
Y233474D01*
X219790D01*
X228121Y225143D02*
X229787Y223477D01*
X233119D01*
X234785Y225143D01*
Y231808D01*
X233119Y233474D01*
X229787D01*
X228121Y231808D01*
Y225143D01*
D12*
X26500Y-15550D02*
Y-1250D01*
X42750D01*
X92750D02*
X109000D01*
Y-15550D02*
Y-1250D01*
X105000Y256500D02*
Y270800D01*
X88750Y256500D02*
X105000D01*
X22500D02*
X38750D01*
X22500D02*
Y270800D01*
D13*
X50000Y15250D02*
G03*
X50000Y15250I-1000J0D01*
G01*
X83500Y240000D02*
G03*
X83500Y240000I-1000J0D01*
G01*
X-18750Y116003D02*
Y122667D01*
X-17417Y124000D01*
X-14751D01*
X-13418Y122667D01*
Y116003D01*
X-5421Y117336D02*
X-6754Y116003D01*
X-9420D01*
X-10753Y117336D01*
Y118668D01*
X-9420Y120001D01*
X-6754D01*
X-5421Y121334D01*
Y122667D01*
X-6754Y124000D01*
X-9420D01*
X-10753Y122667D01*
X-2755Y116003D02*
Y124000D01*
X1244D01*
X2576Y122667D01*
Y121334D01*
X1244Y120001D01*
X-2755D01*
X1244D01*
X2576Y118668D01*
Y117336D01*
X1244Y116003D01*
X-2755D01*
D16*
X322000Y116000D02*
X384500D01*
X365250Y108750D02*
X377250D01*
X384500Y116000D01*
X288750Y115750D02*
X306500D01*
X-23250Y133500D02*
X8000D01*
X15750Y125750D01*
Y125250D02*
Y125750D01*
X-24250Y107500D02*
X9000D01*
X17500Y116000D01*
X18000D01*
X324000Y8250D02*
Y30250D01*
X316750Y1000D02*
X324000Y8250D01*
X316750Y1000D02*
Y87872D01*
X289372Y115250D02*
X316750Y87872D01*
X17000Y115250D02*
X289372Y115250D01*
X324500Y247500D02*
Y262750D01*
X316750Y270500D02*
X324500Y262750D01*
X316750Y179336D02*
Y270500D01*
X263414Y126000D02*
X316750Y179336D01*
X15750Y126000D02*
X263414Y126000D01*
D19*
X267088Y272553D02*
X265588Y271053D01*
X262589D01*
X261090Y272553D01*
Y278550D01*
X262589Y280050D01*
X265588D01*
X267088Y278550D01*
X270087Y280050D02*
Y274052D01*
X273086Y271053D01*
X276085Y274052D01*
Y280050D01*
Y275551D01*
X270087D01*
X279084Y280050D02*
Y271053D01*
X285082Y280050D01*
Y271053D01*
X366056Y272553D02*
X364556Y271053D01*
X361557D01*
X360058Y272553D01*
Y278550D01*
X361557Y280050D01*
X364556D01*
X366056Y278550D01*
X369055Y280050D02*
Y274052D01*
X372054Y271053D01*
X375053Y274052D01*
Y280050D01*
Y275551D01*
X369055D01*
X378052Y280050D02*
Y271053D01*
X384050Y280050D01*
Y271053D01*
X89463Y-31807D02*
X90630Y-30640D01*
Y-28308D01*
X89463Y-27142D01*
X88297D01*
X87131Y-28308D01*
Y-29474D01*
Y-28308D01*
X85964Y-27142D01*
X84798D01*
X83632Y-28308D01*
Y-30640D01*
X84798Y-31807D01*
X90630Y-24809D02*
X85964D01*
X83632Y-22476D01*
X85964Y-20144D01*
X90630D01*
X89463Y-17811D02*
X90630Y-16645D01*
Y-14312D01*
X89463Y-13146D01*
X88297D01*
X87131Y-14312D01*
Y-15479D01*
Y-14312D01*
X85964Y-13146D01*
X84798D01*
X83632Y-14312D01*
Y-16645D01*
X84798Y-17811D01*
X52031Y-27142D02*
X53198Y-28308D01*
Y-30640D01*
X52031Y-31807D01*
X47366D01*
X46200Y-30640D01*
Y-28308D01*
X47366Y-27142D01*
X49699D01*
Y-29474D01*
X46200Y-24809D02*
X53198D01*
X46200Y-20144D01*
X53198D01*
Y-17811D02*
X46200D01*
Y-14312D01*
X47366Y-13146D01*
X52031D01*
X53198Y-14312D01*
Y-17811D01*
X308078Y-25197D02*
X314076D01*
X311077D01*
Y-16200D01*
X317075D02*
Y-22198D01*
X320074Y-25197D01*
X323073Y-22198D01*
Y-16200D01*
Y-20698D01*
X317075D01*
X326072Y-16200D02*
Y-25197D01*
X330571D01*
X332070Y-23698D01*
Y-20698D01*
X330571Y-19199D01*
X326072D01*
X329071D02*
X332070Y-16200D01*
X341068Y-23698D02*
X339568Y-25197D01*
X336569D01*
X335069Y-23698D01*
Y-17700D01*
X336569Y-16200D01*
X339568D01*
X341068Y-17700D01*
Y-20698D01*
X338069D01*
X350065Y-25197D02*
X344067D01*
Y-16200D01*
X350065D01*
X344067Y-20698D02*
X347066D01*
X353064Y-25197D02*
X359062D01*
X356063D01*
Y-16200D01*
X377056Y-23698D02*
X375556Y-25197D01*
X372557D01*
X371058Y-23698D01*
Y-22198D01*
X372557Y-20698D01*
X375556D01*
X377056Y-19199D01*
Y-17700D01*
X375556Y-16200D01*
X372557D01*
X371058Y-17700D01*
X380055Y-25197D02*
Y-16200D01*
X383054Y-19199D01*
X386053Y-16200D01*
Y-25197D01*
X389052D02*
Y-16200D01*
X393550D01*
X395050Y-17700D01*
Y-23698D01*
X393550Y-25197D01*
X389052D01*
X42287Y235307D02*
X41121Y234140D01*
Y231808D01*
X42287Y230642D01*
X43453D01*
X44619Y231808D01*
Y232974D01*
Y231808D01*
X45786Y230642D01*
X46952D01*
X48118Y231808D01*
Y234140D01*
X46952Y235307D01*
X41121Y228309D02*
X45786D01*
X48118Y225976D01*
X45786Y223644D01*
X41121D01*
X42287Y221311D02*
X41121Y220145D01*
Y217812D01*
X42287Y216646D01*
X43453D01*
X44619Y217812D01*
Y218979D01*
Y217812D01*
X45786Y216646D01*
X46952D01*
X48118Y217812D01*
Y220145D01*
X46952Y221311D01*
X79719Y230642D02*
X78552Y231808D01*
Y234140D01*
X79719Y235307D01*
X84384D01*
X85550Y234140D01*
Y231808D01*
X84384Y230642D01*
X82051D01*
Y232974D01*
X85550Y228309D02*
X78552D01*
X85550Y223644D01*
X78552D01*
Y221311D02*
X85550D01*
Y217812D01*
X84384Y216646D01*
X79719D01*
X78552Y217812D01*
Y221311D01*
M02*
