G04*
G04 #@! TF.GenerationSoftware,Altium Limited,Altium Designer,21.6.1 (37)*
G04*
G04 Layer_Physical_Order=1*
G04 Layer_Color=255*
%FSLAX44Y44*%
%MOMM*%
G71*
G04*
G04 #@! TF.SameCoordinates,94B42DE2-6481-4BAD-BED8-F4CECB33EB55*
G04*
G04*
G04 #@! TF.FilePolarity,Positive*
G04*
G01*
G75*
%ADD11C,0.2000*%
%ADD14C,0.6000*%
%ADD15C,0.2500*%
%ADD17C,0.1700*%
%ADD19R,0.2600X0.9700*%
%ADD20R,0.6300X0.8500*%
%ADD21R,0.6000X0.5600*%
%ADD22R,0.8500X0.6300*%
%ADD23R,0.8500X0.5500*%
%ADD24R,0.6000X0.5400*%
%ADD25R,0.9700X0.2600*%
%ADD26R,1.0800X0.2600*%
%ADD27R,1.0100X0.2600*%
%ADD28R,0.2600X1.0800*%
%ADD29R,0.2600X1.0000*%
%ADD30R,0.9500X0.2600*%
%ADD31R,0.9800X0.2600*%
%ADD33R,0.2600X0.9500*%
%ADD34R,0.5600X0.6000*%
%ADD35R,1.5000X2.1200*%
%ADD36R,2.0000X0.4000*%
%ADD37R,1.2000X1.8000*%
%ADD38R,0.6000X1.5500*%
%ADD39R,0.5500X0.8500*%
%ADD40R,0.5400X0.6000*%
%ADD41R,1.0000X2.7000*%
%ADD42R,0.6000X1.7000*%
%ADD43R,3.8000X1.8000*%
%ADD44R,2.7000X1.0000*%
%ADD45R,1.5600X2.3300*%
%ADD46R,0.5588X1.3208*%
%ADD47R,0.5250X0.3000*%
%ADD48O,0.2845X1.8000*%
%ADD49O,1.8000X0.2845*%
%ADD50R,0.8000X0.8000*%
%ADD51R,1.0000X0.2845*%
%ADD52R,0.7000X0.3200*%
%ADD94R,3.5000X3.5000*%
%ADD95R,1.6500X2.4500*%
%ADD96C,0.7000*%
%ADD97C,0.3000*%
%ADD98C,0.5000*%
%ADD99C,0.4000*%
%ADD100C,1.0000*%
%ADD101C,0.9000*%
%ADD102C,3.0000*%
%ADD103O,1.8000X0.9000*%
%ADD104C,0.6000*%
%ADD105O,0.9000X1.5000*%
%ADD106C,0.8500*%
%ADD107C,0.7000*%
G36*
X482451Y258944D02*
Y-13944D01*
X463944Y-32451D01*
X-8944D01*
X-27451Y-13944D01*
Y263944D01*
X-8944Y282451D01*
X458944D01*
X482451Y258944D01*
D02*
G37*
%LPC*%
G36*
X207712Y272916D02*
X73316D01*
X72321Y272718D01*
X71477Y272154D01*
X59645Y260322D01*
X58733Y260700D01*
X56267D01*
X53988Y259756D01*
X52244Y258012D01*
X51937Y257272D01*
X50563D01*
X50256Y258012D01*
X48512Y259756D01*
X46233Y260700D01*
X43767D01*
X41488Y259756D01*
X39744Y258012D01*
X38800Y255733D01*
Y253267D01*
X39744Y250988D01*
X41488Y249244D01*
X42247Y248930D01*
Y232770D01*
X42457Y231716D01*
X43053Y230823D01*
X47550Y226327D01*
Y221420D01*
X50568D01*
X50685Y221342D01*
X52324Y221016D01*
X53963Y221342D01*
X54080Y221420D01*
X56950D01*
Y223868D01*
X58685Y225602D01*
X59858Y225117D01*
Y223217D01*
X59798Y223127D01*
X59472Y221488D01*
X59798Y219849D01*
X59858Y219759D01*
Y214130D01*
X68437D01*
X74012Y208554D01*
X75402Y207626D01*
X77040Y207300D01*
X78654D01*
Y199223D01*
X77855Y198424D01*
X76817Y196870D01*
X76452Y195036D01*
X76452Y195036D01*
Y192554D01*
X70994D01*
X69350Y194198D01*
Y198860D01*
X68985Y200693D01*
X68846Y200902D01*
Y207370D01*
X59858D01*
Y202722D01*
X52250D01*
X50416Y202357D01*
X50375Y202330D01*
X47550D01*
Y198726D01*
X47278Y197358D01*
Y185633D01*
X47278Y185633D01*
X47643Y183799D01*
X48682Y182245D01*
X61503Y169423D01*
X60935Y168195D01*
X58879Y167344D01*
X57206Y165670D01*
X56300Y163483D01*
Y161116D01*
X57206Y158929D01*
X58879Y157256D01*
X61066Y156350D01*
X63433D01*
X65620Y157256D01*
X67294Y158929D01*
X68145Y160985D01*
X69373Y161553D01*
X86878Y144048D01*
X86253Y142877D01*
X86033Y142921D01*
X74334D01*
X74050Y143154D01*
Y152100D01*
X63650D01*
Y141863D01*
X58834D01*
X58412Y142284D01*
X56685Y143000D01*
X54815D01*
X54624Y142921D01*
X53247Y143725D01*
X52735Y144962D01*
X52227Y145470D01*
X51428Y146300D01*
X52227Y147129D01*
X52735Y147638D01*
X53450Y149365D01*
Y151235D01*
X52735Y152962D01*
X51413Y154284D01*
X49685Y155000D01*
X47815D01*
X46088Y154284D01*
X44766Y152962D01*
X44050Y151235D01*
Y149365D01*
X44766Y147638D01*
X45274Y147129D01*
X46073Y146300D01*
X45274Y145470D01*
X44766Y144962D01*
X44050Y143235D01*
Y141365D01*
X44766Y139637D01*
X45274Y139129D01*
X46073Y138300D01*
X45274Y137470D01*
X44766Y136962D01*
X44050Y135235D01*
Y133365D01*
X44766Y131638D01*
X46088Y130315D01*
X47815Y129600D01*
X49685D01*
X49877Y129679D01*
X51253Y128875D01*
X51766Y127638D01*
X52274Y127130D01*
X53073Y126300D01*
X52274Y125470D01*
X51766Y124962D01*
X51253Y123725D01*
X49877Y122921D01*
X49685Y123000D01*
X47815D01*
X46088Y122284D01*
X44766Y120962D01*
X44050Y119235D01*
Y117365D01*
X44766Y115638D01*
X45274Y115130D01*
X46073Y114300D01*
X45274Y113470D01*
X44766Y112962D01*
X44050Y111235D01*
Y109365D01*
X44766Y107638D01*
X45274Y107130D01*
X46073Y106300D01*
X45274Y105470D01*
X44766Y104962D01*
X44050Y103235D01*
Y101365D01*
X44766Y99638D01*
X46088Y98315D01*
X47815Y97600D01*
X49685D01*
X51413Y98315D01*
X52735Y99638D01*
X53450Y101365D01*
Y103235D01*
X52735Y104962D01*
X52227Y105470D01*
X51428Y106300D01*
X52227Y107130D01*
X52735Y107638D01*
X53247Y108875D01*
X54624Y109679D01*
X54815Y109600D01*
X56685D01*
X58412Y110316D01*
X59134Y111037D01*
X62224D01*
X62302Y110985D01*
X63550Y110737D01*
X63650D01*
Y100500D01*
X74050D01*
Y110537D01*
X75499D01*
X76143Y109893D01*
Y106699D01*
X76392Y105450D01*
X77099Y104392D01*
X80573Y100918D01*
X80758Y99307D01*
X77730Y96278D01*
X75904Y95915D01*
X74349Y94876D01*
X69470Y89997D01*
X68200Y90523D01*
Y91483D01*
X67294Y93670D01*
X65620Y95344D01*
X63433Y96250D01*
X61066D01*
X58879Y95344D01*
X57206Y93670D01*
X56300Y91483D01*
Y89116D01*
X57206Y86930D01*
X58879Y85256D01*
X61066Y84350D01*
X62027D01*
X62553Y83080D01*
X45515Y66042D01*
X35100D01*
X34637Y65950D01*
X21900D01*
Y63753D01*
X15700D01*
Y66700D01*
X4300D01*
Y55300D01*
X15700D01*
Y58247D01*
X21900D01*
Y56550D01*
X34637D01*
X35100Y56458D01*
X47500D01*
X47500Y56458D01*
X49334Y56823D01*
X50664Y57711D01*
X57947Y50428D01*
Y41622D01*
X53705D01*
X53000Y41762D01*
X43116D01*
X38982Y45896D01*
Y47516D01*
X38190Y49428D01*
X36728Y50890D01*
X34816Y51682D01*
X32748D01*
X30836Y50890D01*
X29374Y49428D01*
X28582Y47516D01*
Y45448D01*
X29374Y43536D01*
X30836Y42074D01*
X32748Y41282D01*
X34368D01*
X39457Y36193D01*
X40516Y35485D01*
X41764Y35237D01*
X53000D01*
X53705Y35377D01*
X58242D01*
X58753Y34612D01*
X61390Y31976D01*
X61390Y31976D01*
X62283Y31379D01*
X62300Y31376D01*
Y30378D01*
X63138D01*
Y25353D01*
X76538D01*
Y25723D01*
X82150D01*
Y23550D01*
X94716D01*
X95202Y22377D01*
X88689Y15863D01*
X86361D01*
X86360Y15863D01*
X85307Y15654D01*
X84414Y15057D01*
X75992Y6636D01*
X75233Y6950D01*
X72767D01*
X70488Y6006D01*
X68744Y4262D01*
X68437Y3522D01*
X67063D01*
X66756Y4262D01*
X65012Y6006D01*
X62733Y6950D01*
X60267D01*
X57988Y6006D01*
X56244Y4262D01*
X55300Y1983D01*
Y-483D01*
X56244Y-2762D01*
X57988Y-4506D01*
X60267Y-5450D01*
X62733D01*
X65012Y-4506D01*
X66756Y-2762D01*
X67063Y-2022D01*
X68437D01*
X68744Y-2762D01*
X70488Y-4506D01*
X72767Y-5450D01*
X75233D01*
X77512Y-4506D01*
X79256Y-2762D01*
X79563Y-2022D01*
X80937D01*
X81244Y-2762D01*
X82988Y-4506D01*
X85267Y-5450D01*
X87733D01*
X89905Y-4550D01*
X90485Y-4938D01*
X91539Y-5148D01*
X91539Y-5148D01*
X177648D01*
X178702Y-4938D01*
X179595Y-4342D01*
X182542Y-1395D01*
X190548D01*
Y2453D01*
X191155Y2858D01*
X197272Y8975D01*
X197273Y8975D01*
X197869Y9869D01*
X198079Y10922D01*
Y22098D01*
X197869Y23152D01*
X197273Y24045D01*
X190459Y30858D01*
Y42702D01*
X190459Y42703D01*
X190249Y43756D01*
X189653Y44649D01*
X185460Y48842D01*
X185540Y49034D01*
Y51103D01*
X185129Y52096D01*
X184730Y54099D01*
X184123Y55008D01*
X187197Y58082D01*
X187197Y58082D01*
X187794Y58975D01*
X187891Y59466D01*
X188891Y60136D01*
X189273Y60183D01*
X190070Y60025D01*
X190296Y58868D01*
X190300Y58783D01*
Y49850D01*
X199700D01*
Y58803D01*
X199765Y59622D01*
X200250Y59989D01*
X201468Y60231D01*
X201789Y60446D01*
X202750Y60823D01*
X203711Y60446D01*
X204032Y60231D01*
X205250Y59989D01*
X206468Y60231D01*
X207501Y60921D01*
X208191Y61954D01*
X208434Y63172D01*
Y78327D01*
X208191Y79546D01*
X207501Y80579D01*
X206468Y81269D01*
X205250Y81511D01*
X204032Y81269D01*
X203711Y81054D01*
X202750Y80676D01*
X201789Y81054D01*
X201468Y81269D01*
X200250Y81511D01*
X199032Y81269D01*
X197999Y80579D01*
X197501D01*
X196469Y81269D01*
X195250Y81511D01*
X194032Y81269D01*
X192999Y80579D01*
X192501D01*
X191468Y81269D01*
X190250Y81511D01*
X189032Y81269D01*
X187999Y80579D01*
X187501D01*
X186469Y81269D01*
X185250Y81511D01*
X184032Y81269D01*
X183711Y81054D01*
X182750Y80676D01*
X181789Y81054D01*
X181468Y81269D01*
X180250Y81511D01*
X179032Y81269D01*
X177999Y80579D01*
X177501D01*
X176469Y81269D01*
X175250Y81511D01*
X174032Y81269D01*
X172999Y80579D01*
X172501D01*
X171468Y81269D01*
X170250Y81511D01*
X169032Y81269D01*
X167999Y80579D01*
X167501D01*
X166469Y81269D01*
X165250Y81511D01*
X164032Y81269D01*
X162999Y80579D01*
X162501D01*
X161468Y81269D01*
X160250Y81511D01*
X159032Y81269D01*
X157999Y80579D01*
X157309Y79546D01*
X157066Y78327D01*
Y68086D01*
X157013Y67818D01*
Y61681D01*
X147066D01*
X146012Y61471D01*
X145119Y60875D01*
X145119Y60875D01*
X106637Y22392D01*
X106444Y22472D01*
X104880D01*
X104338Y23726D01*
X132000Y51388D01*
X132597Y52281D01*
X132806Y53335D01*
X132801Y53361D01*
Y55165D01*
X135927Y58291D01*
X137519D01*
X139430Y59082D01*
X140893Y60545D01*
X141685Y62456D01*
Y64525D01*
X140893Y66436D01*
X139430Y67899D01*
X137519Y68691D01*
X135450D01*
X133539Y67899D01*
X132076Y66436D01*
X131285Y64525D01*
Y62456D01*
X131584Y61734D01*
X128101Y58252D01*
X127505Y57358D01*
X127295Y56305D01*
Y54470D01*
X101976Y29151D01*
X100598Y29569D01*
X100559Y29765D01*
X114101Y43308D01*
X114101Y43308D01*
X114698Y44201D01*
X114908Y45255D01*
Y85632D01*
X116178Y86472D01*
X117320Y85998D01*
X119389D01*
X121300Y86790D01*
X121999Y87489D01*
X122316D01*
X125420Y84385D01*
Y78300D01*
X134220D01*
Y80997D01*
X138173D01*
X138454Y80809D01*
X139673Y80567D01*
X154828D01*
X156046Y80809D01*
X157079Y81499D01*
X157769Y82532D01*
X158011Y83750D01*
X157769Y84968D01*
X157079Y86001D01*
X156046Y86691D01*
X154828Y86934D01*
X139673D01*
X138454Y86691D01*
X138173Y86503D01*
X135171D01*
X134302Y87429D01*
X134324Y87773D01*
X135204Y88391D01*
X136188D01*
X138099Y89182D01*
X139515Y90598D01*
X139673Y90567D01*
X154828D01*
X156046Y90809D01*
X157079Y91499D01*
X157769Y92532D01*
X158011Y93750D01*
X157769Y94968D01*
X157079Y96001D01*
Y96499D01*
X157769Y97532D01*
X158011Y98750D01*
X157769Y99968D01*
X157555Y100289D01*
X157177Y101250D01*
X157555Y102211D01*
X157769Y102532D01*
X158011Y103750D01*
X157895Y104334D01*
X158756Y105604D01*
X191516D01*
X192511Y105802D01*
X193354Y106366D01*
X202103Y115114D01*
X203272Y114487D01*
X203137Y113810D01*
Y106906D01*
X203347Y105852D01*
X203943Y104959D01*
X212497Y96405D01*
Y84328D01*
Y79828D01*
X212309Y79546D01*
X212067Y78327D01*
Y63172D01*
X212309Y61954D01*
X212497Y61672D01*
Y58720D01*
X210300D01*
Y49920D01*
X219247D01*
X219366Y49632D01*
X220828Y48170D01*
X222740Y47378D01*
X224808D01*
X226720Y48170D01*
X228182Y49632D01*
X228974Y51544D01*
Y53612D01*
X228624Y54458D01*
X229473Y55728D01*
X242780D01*
Y54800D01*
X243407D01*
Y26700D01*
X240800D01*
Y8561D01*
X240418Y7638D01*
Y5570D01*
X241210Y3658D01*
X242672Y2196D01*
X244584Y1404D01*
X246652D01*
X248564Y2196D01*
X250026Y3658D01*
X250818Y5570D01*
X250818Y7638D01*
X251991Y7800D01*
X259530D01*
X260200Y7800D01*
X261470Y7800D01*
X269530D01*
X270200Y7800D01*
X271470Y7800D01*
X280200D01*
X280200Y7800D01*
X280800D01*
Y7800D01*
X281470Y7800D01*
X285060D01*
X292117Y743D01*
X293176Y36D01*
X294424Y-213D01*
X366050D01*
X367299Y36D01*
X368357Y743D01*
X372164Y4550D01*
X376950D01*
Y24950D01*
X367550D01*
Y9164D01*
X365720Y7334D01*
X364450Y7861D01*
Y24950D01*
X359664D01*
X354108Y30507D01*
X353049Y31214D01*
X351800Y31463D01*
X289787D01*
X289261Y32733D01*
X289650Y33122D01*
X290442Y35034D01*
Y37102D01*
X289650Y39014D01*
X288188Y40476D01*
X287995Y40556D01*
Y70552D01*
X288563Y71120D01*
X289159Y72013D01*
X289369Y73067D01*
X289369Y73067D01*
Y107338D01*
X289369Y107338D01*
X289159Y108392D01*
X288563Y109285D01*
X288563Y109285D01*
X275884Y121963D01*
X275964Y122156D01*
Y124224D01*
X275172Y126136D01*
X273710Y127598D01*
X271798Y128390D01*
X269730D01*
X267818Y127598D01*
X266356Y126136D01*
X265564Y124224D01*
Y122156D01*
X266356Y120244D01*
X267818Y118782D01*
X269730Y117990D01*
X271798D01*
X271991Y118070D01*
X275091Y114970D01*
X274565Y113700D01*
X252550D01*
Y113263D01*
X243708D01*
X242459Y113014D01*
X241401Y112307D01*
X241339Y112245D01*
X240913Y112316D01*
X240476Y113675D01*
X242014Y115213D01*
X242014Y115213D01*
X242611Y116106D01*
X243736Y115678D01*
X243900Y115611D01*
Y115300D01*
X261600D01*
Y116324D01*
X262980Y117704D01*
X263772Y119616D01*
Y121684D01*
X262980Y123596D01*
X261518Y125058D01*
X259606Y125850D01*
X257538D01*
X255626Y125058D01*
X255268Y124700D01*
X251417D01*
Y128396D01*
X253064D01*
Y137796D01*
X249398D01*
X248912Y138969D01*
X252986Y143043D01*
X258570D01*
X259624Y143253D01*
X260517Y143849D01*
X269154Y152487D01*
X269155Y152487D01*
X269751Y153380D01*
X269961Y154434D01*
X269961Y154434D01*
Y155951D01*
X271231Y156336D01*
X271420Y156054D01*
X276488Y150985D01*
Y145262D01*
X294188D01*
Y146699D01*
X297236D01*
X298638Y145298D01*
Y142835D01*
X297368Y142065D01*
X296562Y142225D01*
X294188D01*
Y143662D01*
X285188D01*
Y134262D01*
X294188D01*
Y135103D01*
X295458Y135452D01*
X296705Y134205D01*
X297764Y133498D01*
X299012Y133249D01*
X308163D01*
X309412Y133498D01*
X310470Y134205D01*
X312345Y136079D01*
X313052Y137138D01*
X313226Y138012D01*
X316538D01*
Y149912D01*
X303252D01*
X301922Y151242D01*
X302448Y152512D01*
X316538D01*
Y164412D01*
X314841D01*
Y165432D01*
X314632Y166485D01*
X314035Y167378D01*
X300217Y181197D01*
X299470Y181695D01*
Y185950D01*
X297823D01*
Y189800D01*
X301450D01*
X301450Y196200D01*
X302496Y196742D01*
X310300D01*
Y195500D01*
X319700D01*
Y198651D01*
X320303Y198771D01*
X321279Y199423D01*
X323158Y201302D01*
X324630D01*
X326542Y202094D01*
X328004Y203556D01*
X328796Y205468D01*
Y207536D01*
X328004Y209448D01*
X326542Y210910D01*
X324630Y211702D01*
X324252D01*
X323726Y212972D01*
X326871Y216117D01*
X362375D01*
X363526Y216346D01*
X364502Y216998D01*
X372554Y225050D01*
X375491D01*
X375977Y223877D01*
X356022Y203922D01*
X354983Y202367D01*
X354618Y200533D01*
X354618Y200533D01*
Y154384D01*
X349910D01*
Y127684D01*
X368910D01*
Y135199D01*
X370180Y135324D01*
X370347Y134485D01*
X370999Y133509D01*
X382635Y121873D01*
X382635Y121873D01*
X383611Y121221D01*
X384762Y120992D01*
X384762Y120992D01*
X387800D01*
Y113550D01*
X418200D01*
Y126950D01*
X393688D01*
X393398Y127008D01*
X386008D01*
X376134Y136882D01*
Y147704D01*
X377307Y148190D01*
X387800Y137697D01*
Y128550D01*
X418200D01*
Y141950D01*
X392054D01*
X380706Y153298D01*
Y179804D01*
X381598Y180696D01*
X382390Y182608D01*
Y184676D01*
X381598Y186588D01*
X380136Y188050D01*
X378224Y188842D01*
X376156D01*
X374244Y188050D01*
X373504Y187310D01*
X372120Y187722D01*
X372030Y188146D01*
X372962Y189078D01*
X373754Y190990D01*
Y193058D01*
X372962Y194970D01*
X371500Y196432D01*
X369588Y197224D01*
X367520D01*
X365608Y196432D01*
X365376Y196200D01*
X364202Y196686D01*
Y198548D01*
X388960Y223306D01*
X388960Y223307D01*
X389999Y224861D01*
X390037Y225050D01*
X390200D01*
Y225871D01*
X390364Y226695D01*
Y234950D01*
X390250Y235525D01*
X390507Y235910D01*
X390872Y237744D01*
Y253238D01*
X390872Y253238D01*
X390507Y255072D01*
X389468Y256626D01*
X389468Y256627D01*
X382356Y263738D01*
X380802Y264777D01*
X378968Y265142D01*
X378968Y265142D01*
X347747D01*
X347747Y265142D01*
X345913Y264777D01*
X344358Y263738D01*
X320412Y239792D01*
X306550D01*
X305968Y240374D01*
X304056Y241166D01*
X301988D01*
X300076Y240374D01*
X299494Y239792D01*
X297450D01*
Y245200D01*
X288050D01*
Y237578D01*
X287916Y237254D01*
Y235186D01*
X288050Y234862D01*
Y230634D01*
X287438Y230022D01*
X287096Y229197D01*
X285778Y228892D01*
X284950Y229596D01*
Y245200D01*
X275550D01*
Y224800D01*
X280696D01*
X287268Y218228D01*
X288244Y217576D01*
X289395Y217347D01*
X296321D01*
X302291Y211378D01*
X302835Y210563D01*
X303217Y210181D01*
X302731Y209008D01*
X301450D01*
Y209200D01*
X292800D01*
Y202800D01*
X292800D01*
Y202700D01*
X292800D01*
X292800Y196300D01*
X292800Y195030D01*
Y193533D01*
X292527Y193123D01*
X292317Y192070D01*
Y185950D01*
X290670D01*
Y180443D01*
X289883Y179657D01*
X289287Y178764D01*
X289217Y178412D01*
X289108Y178303D01*
X275586D01*
X272492Y181397D01*
X271599Y181993D01*
X270545Y182203D01*
X269360D01*
Y182898D01*
X268568Y184810D01*
X267106Y186272D01*
X265194Y187064D01*
X263126D01*
X261214Y186272D01*
X259752Y184810D01*
X259276Y183660D01*
X259139D01*
X259139Y183660D01*
X258086Y183451D01*
X257193Y182854D01*
X257193Y182854D01*
X256542Y182203D01*
X233852D01*
X233421Y182117D01*
X232562Y182976D01*
X232330Y183072D01*
Y190950D01*
X223693D01*
X221750Y192893D01*
Y194247D01*
X228159D01*
X228166Y194248D01*
X228194Y194220D01*
X230106Y193428D01*
X232174D01*
X234086Y194220D01*
X235548Y195682D01*
X236340Y197594D01*
Y199662D01*
X236485Y199879D01*
X237350Y200337D01*
X238449Y199642D01*
Y195599D01*
X238698Y194350D01*
X239405Y193292D01*
X242630Y190067D01*
X243688Y189360D01*
X244937Y189111D01*
X247694D01*
X248567Y188938D01*
X259996D01*
X261245Y189186D01*
X262069Y189737D01*
X269875D01*
X270190Y189800D01*
X274200D01*
Y195030D01*
X274200Y196200D01*
X274200D01*
Y196300D01*
X274200D01*
Y202700D01*
X265550D01*
Y201753D01*
X260450D01*
Y202580D01*
X253583D01*
X252854Y203309D01*
X250943Y204100D01*
X248874D01*
X247379Y203482D01*
X246301Y204019D01*
X246110Y204226D01*
Y208518D01*
X245861Y209767D01*
X245154Y210825D01*
X243272Y212707D01*
X243758Y213880D01*
X254301D01*
X257988Y210193D01*
X259047Y209486D01*
X260295Y209237D01*
X269875D01*
X270190Y209300D01*
X274200D01*
Y215700D01*
X270190D01*
X269875Y215763D01*
X261647D01*
X257960Y219450D01*
X256901Y220157D01*
X255653Y220406D01*
X238755D01*
X238229Y221676D01*
X242659Y226105D01*
X243222Y226949D01*
X243420Y227944D01*
Y236056D01*
X243222Y237051D01*
X242658Y237895D01*
X242630Y237923D01*
Y237998D01*
X242432Y238993D01*
X241868Y239836D01*
X209550Y272154D01*
X208707Y272718D01*
X208542Y272751D01*
X207712Y272916D01*
D02*
G37*
G36*
X1645Y266700D02*
X-1645D01*
X-4871Y266058D01*
X-7910Y264799D01*
X-10646Y262972D01*
X-12972Y260646D01*
X-14799Y257910D01*
X-16058Y254871D01*
X-16700Y251645D01*
Y248355D01*
X-16058Y245129D01*
X-14799Y242090D01*
X-12972Y239354D01*
X-10646Y237028D01*
X-7910Y235201D01*
X-4871Y233942D01*
X-1645Y233300D01*
X1645D01*
X4871Y233942D01*
X7910Y235201D01*
X10646Y237028D01*
X12972Y239354D01*
X14799Y242090D01*
X16058Y245129D01*
X16700Y248355D01*
Y251645D01*
X16058Y254871D01*
X14799Y257910D01*
X12972Y260646D01*
X10646Y262972D01*
X7910Y264799D01*
X4871Y266058D01*
X1645Y266700D01*
D02*
G37*
G36*
X269004Y251834D02*
X266936D01*
X265024Y251042D01*
X263562Y249580D01*
X262770Y247668D01*
Y245600D01*
X263050Y244924D01*
Y224800D01*
X272450D01*
Y243861D01*
X273170Y245600D01*
Y247668D01*
X272378Y249580D01*
X270916Y251042D01*
X269004Y251834D01*
D02*
G37*
G36*
X403000Y112008D02*
X362577D01*
X360828Y111778D01*
X360359Y111584D01*
X349910D01*
Y84884D01*
X359532D01*
X360165Y84398D01*
X361795Y83723D01*
X363544Y83492D01*
X403000D01*
X403439Y83550D01*
X418200D01*
Y96950D01*
X403439D01*
X403000Y97008D01*
X368910D01*
Y98492D01*
X403000D01*
X403439Y98550D01*
X418200D01*
Y111950D01*
X403439D01*
X403000Y112008D01*
D02*
G37*
G36*
X39642Y33394D02*
X37574D01*
X35662Y32602D01*
X34200Y31140D01*
X33408Y29228D01*
Y27160D01*
X34200Y25248D01*
X35662Y23786D01*
X37574Y22994D01*
X39642D01*
X41554Y23786D01*
X42699Y24931D01*
X49022D01*
X50271Y25180D01*
X50531Y25353D01*
X59266D01*
Y31598D01*
X45866D01*
Y31457D01*
X42699D01*
X41554Y32602D01*
X39642Y33394D01*
D02*
G37*
G36*
X1645Y16700D02*
X-1645D01*
X-4871Y16058D01*
X-7910Y14799D01*
X-10646Y12972D01*
X-12972Y10646D01*
X-14799Y7910D01*
X-16058Y4871D01*
X-16700Y1645D01*
Y-1645D01*
X-16058Y-4871D01*
X-14799Y-7910D01*
X-12972Y-10646D01*
X-10646Y-12972D01*
X-7910Y-14799D01*
X-4871Y-16058D01*
X-1645Y-16700D01*
X1645D01*
X4871Y-16058D01*
X7910Y-14799D01*
X10646Y-12972D01*
X12972Y-10646D01*
X14799Y-7910D01*
X16058Y-4871D01*
X16700Y-1645D01*
Y1645D01*
X16058Y4871D01*
X14799Y7910D01*
X12972Y10646D01*
X10646Y12972D01*
X7910Y14799D01*
X4871Y16058D01*
X1645Y16700D01*
D02*
G37*
%LPD*%
G36*
X203900Y253941D02*
Y247250D01*
X174711D01*
Y256666D01*
X176236D01*
Y264316D01*
X193525D01*
X203900Y253941D01*
D02*
G37*
G36*
X381288Y251253D02*
Y245450D01*
X380800D01*
Y235051D01*
X380780Y234950D01*
Y228680D01*
X378874Y226774D01*
X377700Y227260D01*
Y245450D01*
X377700D01*
X377335Y246720D01*
X377818Y247886D01*
Y249954D01*
X377026Y251866D01*
X375564Y253328D01*
X373652Y254120D01*
X371584D01*
X369672Y253328D01*
X368210Y251866D01*
X367418Y249954D01*
Y247886D01*
X367935Y246638D01*
X368300Y245450D01*
X368300Y245450D01*
X368300Y245450D01*
Y229304D01*
X366374Y227377D01*
X365200Y227863D01*
Y244816D01*
X365342Y244958D01*
X366134Y246870D01*
Y248938D01*
X365342Y250850D01*
X363880Y252312D01*
X361968Y253104D01*
X359900D01*
X357988Y252312D01*
X356526Y250850D01*
X355734Y248938D01*
Y246870D01*
X356122Y245932D01*
X355800Y245450D01*
X355800D01*
Y225050D01*
X362387D01*
X362873Y223877D01*
X361129Y222133D01*
X325625D01*
X324474Y221904D01*
X323498Y221252D01*
X315446Y213200D01*
X310300D01*
Y213200D01*
X309030Y212876D01*
X307633Y214272D01*
X307089Y215087D01*
X299694Y222482D01*
X298718Y223134D01*
X298290Y223219D01*
X297425Y224431D01*
X297398Y224633D01*
X297450Y224800D01*
X297450D01*
Y230208D01*
X322397D01*
X322397Y230208D01*
X324231Y230573D01*
X325786Y231611D01*
X349732Y255558D01*
X376983D01*
X381288Y251253D01*
D02*
G37*
G36*
X228895Y245456D02*
X228176Y244379D01*
X227348Y244722D01*
X225280D01*
X223368Y243930D01*
X221906Y242468D01*
X221114Y240556D01*
Y238488D01*
X221906Y236576D01*
X222459Y236023D01*
X222445Y235844D01*
X221750Y235000D01*
X209500D01*
Y247250D01*
X209100D01*
Y255018D01*
X208902Y256013D01*
X208338Y256856D01*
X198652Y266543D01*
X199138Y267716D01*
X206635D01*
X228895Y245456D01*
D02*
G37*
G36*
X86548Y232008D02*
X86022Y230738D01*
X78654D01*
Y217684D01*
X77481Y217198D01*
X70162Y224516D01*
X68846Y225396D01*
Y230738D01*
X65479D01*
X64993Y231911D01*
X67306Y234224D01*
X84332D01*
X86548Y232008D01*
D02*
G37*
G36*
X90503Y200993D02*
X90503Y200993D01*
X110272Y181223D01*
Y152400D01*
Y136177D01*
X110598Y134538D01*
X111526Y133149D01*
X114180Y130495D01*
Y129776D01*
X114649Y128643D01*
X113804Y127373D01*
X108260D01*
Y133390D01*
X103852D01*
Y138684D01*
X103852Y138684D01*
X103487Y140518D01*
X102449Y142072D01*
X96369Y148152D01*
X96246Y148234D01*
X56862Y187618D01*
Y193138D01*
X58973D01*
X59766Y192213D01*
X59858Y191750D01*
Y190762D01*
X60054D01*
X60131Y190379D01*
X61169Y188824D01*
X65620Y184373D01*
X65621Y184373D01*
X67175Y183334D01*
X69009Y182969D01*
X69009Y182970D01*
X78491D01*
X78491Y182969D01*
X80324Y183334D01*
X81879Y184373D01*
X84632Y187126D01*
X84632Y187126D01*
X85671Y188681D01*
X86036Y190515D01*
Y190762D01*
X87642D01*
Y194872D01*
X88247Y195778D01*
X88612Y197612D01*
X88247Y199446D01*
X87642Y200352D01*
Y202194D01*
X88815Y202680D01*
X90503Y200993D01*
D02*
G37*
G36*
X167236Y256666D02*
X169205D01*
Y247250D01*
X168500D01*
Y233050D01*
X207550D01*
Y229000D01*
X221750D01*
X222530Y228053D01*
Y227300D01*
X231330D01*
Y236700D01*
X231330D01*
X230986Y237214D01*
X231514Y238488D01*
Y240556D01*
X231171Y241384D01*
X232248Y242103D01*
X237430Y236921D01*
Y236846D01*
X237628Y235851D01*
X238192Y235008D01*
X238220Y234979D01*
Y229021D01*
X234303Y225104D01*
X213614D01*
X213092Y225000D01*
X207550D01*
Y219000D01*
Y209000D01*
Y199000D01*
Y189000D01*
X217857D01*
X221605Y185251D01*
X222498Y184655D01*
X223530Y184450D01*
Y181550D01*
X223848D01*
X224697Y180280D01*
X224416Y179602D01*
Y177534D01*
X224596Y177100D01*
X223803Y175816D01*
X222978Y175743D01*
X221069Y177652D01*
X220226Y178216D01*
X219231Y178414D01*
X199500D01*
Y190950D01*
X165450D01*
Y199000D01*
Y210000D01*
X151250D01*
Y209753D01*
X149511D01*
X148985Y211023D01*
X151909Y213947D01*
X156248D01*
X156514Y214000D01*
X165450D01*
Y224000D01*
Y235000D01*
X151925D01*
X148470Y238455D01*
X148397Y238565D01*
X141015Y245947D01*
X140122Y246543D01*
X139470Y246673D01*
Y250700D01*
X135142D01*
X132195Y253647D01*
X131302Y254243D01*
X130248Y254453D01*
X99300D01*
X98246Y254243D01*
X97353Y253647D01*
X97353Y253647D01*
X86431Y242724D01*
X86106Y242788D01*
X65532D01*
X63893Y242462D01*
X62504Y241534D01*
X51317Y230347D01*
X47753Y233910D01*
Y248930D01*
X48512Y249244D01*
X50256Y250988D01*
X50563Y251728D01*
X51937D01*
X52244Y250988D01*
X53988Y249244D01*
X56267Y248300D01*
X58733D01*
X61012Y249244D01*
X62756Y250988D01*
X63063Y251728D01*
X64437D01*
X64744Y250988D01*
X66488Y249244D01*
X68766Y248300D01*
X71233D01*
X73512Y249244D01*
X75256Y250988D01*
X76200Y253267D01*
Y255733D01*
X75822Y256645D01*
X83493Y264316D01*
X167236D01*
Y256666D01*
D02*
G37*
G36*
X296770Y176497D02*
X296770Y176497D01*
X297130D01*
X308041Y165586D01*
X307555Y164412D01*
X298638D01*
Y161725D01*
X294247D01*
X294188Y161784D01*
Y164662D01*
X280165D01*
X279258Y165569D01*
Y167998D01*
X279060Y168993D01*
X278496Y169837D01*
X276709Y171624D01*
X277195Y172797D01*
X290248D01*
X291302Y173007D01*
X292195Y173603D01*
X293776Y175185D01*
X293777Y175185D01*
X294373Y176078D01*
X294443Y176430D01*
X294563Y176550D01*
X296504D01*
X296770Y176497D01*
D02*
G37*
G36*
X142781Y198930D02*
X143133Y197977D01*
X142745Y197395D01*
X142535Y196342D01*
Y192434D01*
X142745Y191380D01*
X143341Y190487D01*
X144513Y189315D01*
X144513Y189315D01*
X145406Y188719D01*
X146460Y188509D01*
X146460Y188509D01*
X149512D01*
X150566Y188719D01*
X150907Y188947D01*
X155378D01*
X155644Y189000D01*
X163500D01*
Y176750D01*
X169781D01*
X170112Y176255D01*
X177805Y168562D01*
X178649Y167998D01*
X179644Y167800D01*
X192769D01*
X193255Y166627D01*
X189439Y162811D01*
X189084Y162279D01*
X189032Y162269D01*
X187999Y161579D01*
X187501D01*
X186469Y162269D01*
X185250Y162511D01*
X184032Y162269D01*
X183711Y162054D01*
X182750Y161677D01*
X181789Y162054D01*
X181468Y162269D01*
X180250Y162511D01*
X179032Y162269D01*
X178711Y162055D01*
X177750Y161677D01*
X176789Y162055D01*
X176469Y162269D01*
X175250Y162511D01*
X174032Y162269D01*
X173711Y162054D01*
X172750Y161677D01*
X171789Y162054D01*
X171468Y162269D01*
X170250Y162511D01*
X169032Y162269D01*
X167999Y161579D01*
X167309Y160546D01*
X167066Y159328D01*
Y144172D01*
X167309Y142954D01*
X167497Y142672D01*
Y140483D01*
X167129Y139931D01*
X166919Y138878D01*
Y136568D01*
X166726Y136488D01*
X165264Y135026D01*
X164472Y133114D01*
Y131046D01*
X165264Y129134D01*
X166726Y127672D01*
X168638Y126880D01*
X169627D01*
X169880Y125610D01*
X169774Y125566D01*
X168312Y124104D01*
X167520Y122192D01*
Y120124D01*
X168312Y118212D01*
X168751Y117773D01*
X168225Y116503D01*
X158493D01*
X157817Y117773D01*
X158011Y118750D01*
X157769Y119968D01*
X157555Y120289D01*
X157177Y121250D01*
X157555Y122211D01*
X157769Y122532D01*
X158011Y123750D01*
X157769Y124968D01*
X157079Y126001D01*
Y126499D01*
X157769Y127531D01*
X158011Y128750D01*
X157769Y129968D01*
X157555Y130289D01*
X157177Y131250D01*
X157555Y132211D01*
X157769Y132532D01*
X158011Y133750D01*
X157769Y134968D01*
X157079Y136001D01*
Y136499D01*
X157769Y137531D01*
X158011Y138750D01*
X157769Y139968D01*
X157079Y141001D01*
X156046Y141691D01*
X154828Y141933D01*
X139696D01*
X138844Y142103D01*
X129700D01*
Y143850D01*
X120300D01*
Y139464D01*
X119030Y138785D01*
X118836Y138915D01*
Y146797D01*
X127248D01*
X128302Y147007D01*
X129195Y147603D01*
X130777Y149185D01*
X130777Y149185D01*
X131373Y150078D01*
X131443Y150430D01*
X131563Y150550D01*
X136470D01*
Y152497D01*
X157066D01*
Y144172D01*
X157309Y142954D01*
X157999Y141921D01*
X159032Y141231D01*
X160250Y140989D01*
X161468Y141231D01*
X162501Y141921D01*
X163191Y142954D01*
X163434Y144172D01*
Y159328D01*
X163191Y160546D01*
X162501Y161579D01*
X161468Y162269D01*
X160250Y162511D01*
X159032Y162269D01*
X157999Y161579D01*
X157309Y160546D01*
X157066Y159328D01*
Y158003D01*
X136470D01*
Y159950D01*
X135087D01*
Y170842D01*
X137767Y173521D01*
X137767Y173521D01*
X138363Y174415D01*
X138573Y175468D01*
Y185800D01*
X140220D01*
Y195200D01*
X138463D01*
Y197300D01*
X140100D01*
Y199247D01*
X142504D01*
X142781Y198930D01*
D02*
G37*
G36*
X254380Y161590D02*
X254128Y160424D01*
X245717D01*
X244728Y160424D01*
X244728Y160424D01*
X244476Y160354D01*
Y160354D01*
X235076D01*
Y158554D01*
X230551D01*
X223760Y165345D01*
X224246Y166518D01*
X234994D01*
X235989Y166716D01*
X236832Y167280D01*
X237087Y167534D01*
X254380D01*
Y161590D01*
D02*
G37*
G36*
X130670Y247385D02*
Y241300D01*
X130670D01*
X130260Y240200D01*
X119050D01*
Y232800D01*
X138557D01*
X146052Y225305D01*
X146164Y224701D01*
X146124Y223942D01*
X146016Y223659D01*
X138557Y216200D01*
X119050D01*
Y208800D01*
X126827D01*
X127466Y207665D01*
X126960Y206700D01*
X122400D01*
Y197300D01*
X132957D01*
Y195200D01*
X131420D01*
Y185800D01*
X133067D01*
Y176608D01*
X130387Y173929D01*
X129791Y173036D01*
X129581Y171982D01*
Y159950D01*
X127670D01*
Y154443D01*
X126883Y153657D01*
X126287Y152764D01*
X126217Y152411D01*
X126108Y152303D01*
X118836D01*
Y182997D01*
X118510Y184636D01*
X117582Y186025D01*
X97813Y205794D01*
Y231081D01*
X97487Y232720D01*
X96559Y234109D01*
X91081Y239587D01*
X100440Y248947D01*
X129108D01*
X130670Y247385D01*
D02*
G37*
G36*
X194032Y141231D02*
X195250Y140989D01*
X196469Y141231D01*
X197501Y141921D01*
X197999D01*
X199032Y141231D01*
X200250Y140989D01*
X201468Y141231D01*
X201789Y141446D01*
X201846Y141468D01*
X202380Y141142D01*
X202565Y139550D01*
X199335Y136320D01*
X197630Y137026D01*
X195562D01*
X193650Y136234D01*
X192188Y134772D01*
X191396Y132860D01*
Y130792D01*
X192188Y128880D01*
X193650Y127418D01*
X195562Y126626D01*
X195617D01*
X196103Y125453D01*
X187681Y117031D01*
X186954Y117131D01*
X186221Y118458D01*
X186584Y119336D01*
Y121405D01*
X185793Y123316D01*
X184330Y124779D01*
X183855Y124975D01*
Y132899D01*
X183855Y132899D01*
X183645Y133952D01*
X183049Y134845D01*
X183003Y134891D01*
Y140508D01*
X184273Y141183D01*
X185250Y140989D01*
X186469Y141231D01*
X187501Y141921D01*
X187999D01*
X189032Y141231D01*
X190250Y140989D01*
X191468Y141231D01*
X192501Y141921D01*
X192999D01*
X194032Y141231D01*
D02*
G37*
G36*
X245911Y124700D02*
X243900D01*
Y122753D01*
X242600D01*
X241546Y122543D01*
X240653Y121947D01*
X238121Y119414D01*
X237524Y118521D01*
X237521Y118506D01*
X235928Y116914D01*
X235828Y116934D01*
X220673D01*
X219454Y116691D01*
X218422Y116001D01*
X217732Y114968D01*
X217489Y113750D01*
X217732Y112532D01*
X217946Y112211D01*
X218324Y111250D01*
X217946Y110289D01*
X217732Y109968D01*
X217489Y108750D01*
X217732Y107531D01*
X218422Y106499D01*
Y106001D01*
X217732Y104968D01*
X217489Y103750D01*
X217732Y102532D01*
X217946Y102211D01*
X218191Y101587D01*
X217642Y100476D01*
X216394Y100295D01*
X208643Y108046D01*
Y112669D01*
X216971Y120997D01*
X219173D01*
X219454Y120809D01*
X220673Y120567D01*
X235828D01*
X237046Y120809D01*
X238079Y121499D01*
X238452Y122057D01*
X238589Y122084D01*
X239482Y122681D01*
X243137Y126336D01*
X243137Y126336D01*
X243734Y127229D01*
X243755Y127337D01*
X244264Y128396D01*
X245911D01*
Y124700D01*
D02*
G37*
G36*
X283863Y106198D02*
Y74207D01*
X283295Y73639D01*
X282699Y72746D01*
X282489Y71693D01*
Y40556D01*
X282296Y40476D01*
X280834Y39014D01*
X280042Y37102D01*
Y35034D01*
X280834Y33122D01*
X281223Y32733D01*
X281209Y32361D01*
X280777Y31384D01*
X279926Y31214D01*
X278867Y30507D01*
X277523Y29162D01*
X276253Y29688D01*
Y73573D01*
X277204Y74524D01*
X277996Y76436D01*
Y78504D01*
X277204Y80416D01*
X276402Y81217D01*
X275950Y82300D01*
X275950Y82300D01*
X275950D01*
X275950Y82300D01*
Y89700D01*
X257164D01*
X242831Y104033D01*
X243249Y105411D01*
X243415Y105444D01*
X244473Y106151D01*
X245059Y106737D01*
X252550D01*
Y106300D01*
X275950D01*
Y112315D01*
X277220Y112841D01*
X283863Y106198D01*
D02*
G37*
G36*
X136683Y114727D02*
X136489Y113750D01*
X136732Y112532D01*
X136946Y112211D01*
X137324Y111250D01*
X136946Y110289D01*
X136732Y109968D01*
X136489Y108750D01*
X136683Y107773D01*
X136008Y106503D01*
X125592D01*
X124538Y106293D01*
X123645Y105697D01*
X119507Y101559D01*
X118921Y101763D01*
X118334Y102182D01*
Y104037D01*
X117542Y105948D01*
X116080Y107411D01*
X114937Y107884D01*
X114632Y109376D01*
X121254Y115997D01*
X136008D01*
X136683Y114727D01*
D02*
G37*
G36*
X252550Y85086D02*
Y82300D01*
X268476D01*
X269002Y81030D01*
X268388Y80416D01*
X267596Y78504D01*
Y76436D01*
X268388Y74524D01*
X269850Y73062D01*
X270747Y72690D01*
Y27743D01*
X270200Y26700D01*
X269477Y26700D01*
X261470D01*
X260800Y26700D01*
X259530Y26700D01*
X250952D01*
Y54800D01*
X251580D01*
Y64200D01*
X242780D01*
Y63273D01*
X220480D01*
X220480Y63273D01*
X219679Y63113D01*
X218497Y63949D01*
X218434Y64062D01*
Y78327D01*
X218191Y79546D01*
X218513Y80488D01*
X219454Y80809D01*
X220673Y80567D01*
X235828D01*
X237046Y80809D01*
X238079Y81499D01*
X238769Y82532D01*
X239011Y83750D01*
X238769Y84968D01*
X238079Y86001D01*
Y86499D01*
X238769Y87532D01*
X239011Y88750D01*
X238769Y89968D01*
X238555Y90289D01*
X238177Y91250D01*
X238555Y92211D01*
X238769Y92532D01*
X239011Y93750D01*
X238769Y94968D01*
X238079Y96001D01*
Y96499D01*
X238585Y97255D01*
X239988Y97647D01*
X252550Y85086D01*
D02*
G37*
G36*
X105087Y107617D02*
X102769Y105298D01*
X102172Y104405D01*
X101962Y103352D01*
Y60898D01*
X95265Y54200D01*
X81650D01*
Y44800D01*
X82887D01*
Y43200D01*
X82150D01*
Y41763D01*
X71520D01*
X70813Y41622D01*
X63453D01*
Y51568D01*
X63243Y52621D01*
X62647Y53514D01*
X62647Y53514D01*
X54594Y61567D01*
X79724Y86697D01*
X79725Y86697D01*
X80906Y85637D01*
Y84413D01*
X81698Y82502D01*
X83160Y81039D01*
X84650Y80422D01*
Y77300D01*
X93650D01*
Y86700D01*
X91216D01*
X90514Y88393D01*
X89052Y89856D01*
X87359Y90557D01*
X86827Y91821D01*
X97694Y102689D01*
X97695Y102689D01*
X98733Y104244D01*
X99098Y106077D01*
Y107033D01*
X99352Y108310D01*
X100443Y108790D01*
X104601D01*
X105087Y107617D01*
D02*
G37*
G36*
X158600Y56163D02*
X159138Y54988D01*
Y54084D01*
X159218Y53891D01*
X153053Y47727D01*
X152457Y46834D01*
X152247Y45780D01*
Y18850D01*
X150300D01*
Y9850D01*
Y1150D01*
X149358Y358D01*
X92700D01*
Y1983D01*
X91756Y4262D01*
X90012Y6006D01*
X87733Y6950D01*
X85889D01*
X85363Y8220D01*
X87501Y10358D01*
X89829D01*
X90882Y10567D01*
X91776Y11164D01*
X98956Y18344D01*
X100210Y17802D01*
Y16238D01*
X101002Y14326D01*
X102464Y12864D01*
X104376Y12072D01*
X106444D01*
X108356Y12864D01*
X109818Y14326D01*
X110610Y16238D01*
Y18306D01*
X110530Y18499D01*
X148206Y56175D01*
X157965D01*
X158600Y56163D01*
D02*
G37*
G36*
X164022Y49724D02*
X164726Y48636D01*
Y46568D01*
X165518Y44657D01*
X166980Y43194D01*
X167173Y43114D01*
Y38850D01*
X165300D01*
Y29850D01*
Y21150D01*
X166786D01*
Y16505D01*
X164148D01*
Y9809D01*
X162878Y8838D01*
X162500Y8913D01*
X159700D01*
Y18850D01*
X157753D01*
Y44640D01*
X162936Y49823D01*
X164022Y49724D01*
D02*
G37*
G36*
X334672Y23764D02*
X334428Y23520D01*
X333636Y21608D01*
Y19540D01*
X334428Y17628D01*
X335890Y16166D01*
X337802Y15374D01*
X339870D01*
X341280Y15958D01*
X342463Y15321D01*
X342550Y15214D01*
Y6313D01*
X295776D01*
X290263Y11826D01*
Y13228D01*
X290200Y13543D01*
Y24937D01*
X334186D01*
X334672Y23764D01*
D02*
G37*
%LPC*%
G36*
X79990Y77629D02*
X77921D01*
X76010Y76837D01*
X74547Y75374D01*
X73755Y73463D01*
Y71394D01*
X74547Y69483D01*
X76010Y68020D01*
X77921Y67229D01*
X79990D01*
X81564Y67881D01*
X82237Y67747D01*
X82237Y67747D01*
X84900D01*
Y65800D01*
X93900D01*
Y75200D01*
X84900D01*
Y74984D01*
X83630Y74731D01*
X83364Y75374D01*
X81901Y76837D01*
X79990Y77629D01*
D02*
G37*
%LPD*%
D11*
X180340Y55118D02*
Y58262D01*
Y55118D02*
X185250Y60028D01*
X169926Y35306D02*
Y47602D01*
X179578Y41402D02*
X180000Y40980D01*
X179832Y55118D02*
X180250Y55536D01*
Y58262D02*
Y70750D01*
X180340Y50069D02*
X187706Y42703D01*
X179832Y50577D02*
X180340Y50069D01*
X175250Y56398D02*
Y70750D01*
Y56398D02*
X176530Y55118D01*
X179832D01*
X185250Y60028D02*
Y78327D01*
X180000Y34350D02*
Y40980D01*
X80308Y72429D02*
X82237Y70500D01*
X78955Y72429D02*
X80308D01*
X82237Y70500D02*
X89400D01*
X130048Y56305D02*
X136485Y62742D01*
Y63491D01*
X130048Y53340D02*
Y56305D01*
X205890Y113810D02*
X215830Y123750D01*
X205890Y106906D02*
Y113810D01*
X215250Y84328D02*
Y97546D01*
X205890Y106906D02*
X215250Y97546D01*
Y70750D02*
Y84328D01*
X270764Y123190D02*
X286616Y107338D01*
Y73067D02*
Y107338D01*
X285242Y71693D02*
X286616Y73067D01*
X241403Y135353D02*
Y138887D01*
Y134215D02*
Y135353D01*
X241191Y134003D02*
X241403Y134215D01*
X241191Y128282D02*
Y134003D01*
X244126Y138077D02*
X251846Y145796D01*
X241403Y138887D02*
X242359Y139844D01*
X232354Y148054D02*
X244125D01*
X244377Y148307D01*
X257100Y120000D02*
X257922D01*
X258572Y120650D01*
X267208Y154434D02*
Y163322D01*
X258570Y145796D02*
X267208Y154434D01*
X266954Y163576D02*
X267208Y163322D01*
X251846Y145796D02*
X258570D01*
X236057Y123750D02*
X236934Y124627D01*
X237535D01*
X228250Y123750D02*
X236057D01*
X237535Y124627D02*
X241191Y128282D01*
X228773Y179411D02*
X229616Y178568D01*
X228773Y179411D02*
Y185407D01*
X227930Y186250D02*
X228773Y185407D01*
X249908Y198901D02*
X250268Y198540D01*
X255390D02*
X255750Y198180D01*
X250268Y198540D02*
X255390D01*
X274445Y175550D02*
X290248D01*
X270545Y179450D02*
X274445Y175550D01*
X264160Y179450D02*
X270545D01*
X285242Y36068D02*
Y71693D01*
X99300Y251700D02*
X130248D01*
X86106Y238506D02*
X99300Y251700D01*
X45000Y232770D02*
X52324Y225446D01*
Y225298D02*
Y225446D01*
X52250Y225820D02*
X52550D01*
X108415Y98284D02*
X113134Y103002D01*
X275082Y21082D02*
X276352Y19812D01*
X285500Y17250D02*
Y20062D01*
X284734Y20828D02*
X285500Y20062D01*
X184658Y2794D02*
X186669Y4805D01*
X189209D02*
X195326Y10922D01*
X186669Y4805D02*
X189209D01*
X187706Y29718D02*
X195326Y22098D01*
Y10922D02*
Y22098D01*
X187706Y29718D02*
Y42703D01*
X169672Y138878D02*
X170250Y139456D01*
X170180Y145542D02*
X170250Y145472D01*
Y139456D02*
Y145472D01*
X169672Y132080D02*
Y138878D01*
X175250Y136958D02*
Y151750D01*
X175872Y125663D02*
Y136336D01*
X175250Y136958D02*
X175872Y136336D01*
X172720Y122511D02*
X175872Y125663D01*
X172720Y121158D02*
Y122511D01*
X181102Y120653D02*
Y132899D01*
Y120653D02*
X181384Y120370D01*
X180250Y146468D02*
X180594Y146812D01*
X180250Y133751D02*
Y146468D01*
Y133751D02*
X181102Y132899D01*
X155000Y45780D02*
X164338Y55118D01*
X155000Y14350D02*
Y45780D01*
X295786Y192786D02*
X297180D01*
X229616Y179324D02*
X233978D01*
X133720Y247650D02*
X135890D01*
X135710Y201242D02*
X136398Y201930D01*
X85598Y254D02*
X88890D01*
X128120Y84700D02*
Y85578D01*
X123456Y90242D02*
X128120Y85578D01*
Y84700D02*
X129820Y83000D01*
X119312Y90242D02*
X123456D01*
X118355Y91199D02*
X119312Y90242D01*
X119240Y97399D02*
X125592Y103750D01*
X128227Y96264D02*
X131753Y99790D01*
X126874Y96264D02*
X128227D01*
X131753Y99790D02*
X138403D01*
X115787Y97399D02*
X119240D01*
X125592Y103750D02*
X147250D01*
X112155Y93767D02*
X115787Y97399D01*
X120113Y118750D02*
X147250D01*
X112155Y45255D02*
Y93767D01*
X95758Y28858D02*
X112155Y45255D01*
X104715Y103352D02*
X120113Y118750D01*
X96650Y51692D02*
X104715Y59757D01*
X108415Y51765D02*
Y98284D01*
X95350Y38700D02*
X108415Y51765D01*
X104715Y59757D02*
Y103352D01*
X96650Y51500D02*
Y51692D01*
X95442Y50292D02*
X96650Y51500D01*
X127248Y149550D02*
X128830Y151132D01*
X117658Y149550D02*
X127248D01*
X132070Y154950D02*
Y155250D01*
X128830Y151710D02*
X132070Y154950D01*
X128830Y151132D02*
Y151710D01*
X114808Y152400D02*
X117658Y149550D01*
X155378Y191700D02*
X155702Y192024D01*
X149950Y191700D02*
X155378D01*
X146460Y191262D02*
X149512D01*
X145288Y192434D02*
X146460Y191262D01*
X145288Y192434D02*
Y196342D01*
X149512Y191262D02*
X149950Y191700D01*
X145288Y196342D02*
X150946Y202000D01*
X158350D01*
X131781Y207800D02*
X141869D01*
X150769Y216700D01*
X130100Y206118D02*
X131781Y207800D01*
X126900Y202200D02*
X130100Y205400D01*
Y206118D01*
X126900Y202000D02*
Y202200D01*
X148251Y222000D02*
X155952D01*
X130750Y212500D02*
X138750D01*
X150769Y216700D02*
X156248D01*
X156464Y216916D01*
X138750Y212500D02*
X148251Y222000D01*
X155952D02*
X155956Y221996D01*
X148325Y207000D02*
X157216D01*
X143325Y202000D02*
X148325Y207000D01*
X157216D02*
X157226Y207010D01*
X135600Y202000D02*
X143325D01*
X228159Y197000D02*
X230041Y198882D01*
X230886D01*
X214650Y197000D02*
X228159D01*
X233852Y179450D02*
X233978Y179324D01*
X235190Y206700D02*
X236147Y205743D01*
X233399Y206700D02*
X235190D01*
X214650Y207000D02*
X233099D01*
X233399Y206700D01*
X226314Y239522D02*
X226930Y238906D01*
Y232000D02*
Y238906D01*
X233852Y179450D02*
X258064D01*
X259139Y180907D02*
X263203D01*
X258064Y179832D02*
X259139Y180907D01*
X263203D02*
X264160Y181864D01*
X294894Y180774D02*
Y181102D01*
X259080Y164624D02*
X259350Y164354D01*
X291830Y177710D02*
X294894Y180774D01*
X291830Y177132D02*
Y177710D01*
X290248Y175550D02*
X291830Y177132D01*
X259350Y164354D02*
X266938D01*
X295070Y192070D02*
X295786Y192786D01*
X295070Y181250D02*
Y192070D01*
X312088Y158462D02*
Y165432D01*
X298270Y179250D02*
X312088Y165432D01*
X296770Y179250D02*
X298270D01*
X295910Y180110D02*
X296770Y179250D01*
X204470Y159378D02*
X208542Y163450D01*
X204470Y157988D02*
Y159378D01*
X208542Y163450D02*
X216958D01*
X232354Y148054D01*
X273500Y22664D02*
X275082Y21082D01*
X272796Y77470D02*
X273500Y76766D01*
Y22664D02*
Y76766D01*
X147250Y113750D02*
X188294D01*
X196596Y131826D02*
X198734D01*
X209373Y143066D02*
X210250Y143944D01*
X209373Y142465D02*
Y143066D01*
X198734Y131826D02*
X209373Y142465D01*
X188294Y113750D02*
X210696Y136152D01*
X210250Y143944D02*
Y151750D01*
X210696Y136152D02*
X211828D01*
X132080Y155250D02*
X159860D01*
X132334Y171982D02*
X135820Y175468D01*
X132334Y156972D02*
Y171982D01*
X132080Y156718D02*
X132334Y156972D01*
X135820Y175468D02*
Y190500D01*
X133370Y248000D02*
Y248578D01*
X130248Y251700D02*
X133370Y248578D01*
Y248000D02*
X133720Y247650D01*
X269375Y199000D02*
X269875Y199500D01*
X256658Y199000D02*
X269375D01*
X256032Y198374D02*
X256658Y199000D01*
X216056Y232000D02*
X226930D01*
X226930Y232000D01*
X215900Y232156D02*
X216056Y232000D01*
X215830Y123750D02*
X228250D01*
X215392Y84328D02*
X215970Y83750D01*
X228250D01*
X248664Y122000D02*
Y133096D01*
X248584Y121920D02*
X248664Y122000D01*
X248412Y121920D02*
X248584D01*
X240068Y117468D02*
X242600Y120000D01*
X229362Y113284D02*
X236192D01*
X242600Y120000D02*
X248400D01*
X240068Y117160D02*
Y117468D01*
X236192Y113284D02*
X240068Y117160D01*
X60700Y36559D02*
X63337Y33922D01*
X60700Y36559D02*
Y51568D01*
X49530Y62738D02*
X60700Y51568D01*
X68578Y33922D02*
X69000Y33500D01*
X63337Y33922D02*
X68578D01*
X138403Y99790D02*
X139282Y98912D01*
X140822D01*
X135153Y93591D02*
X135233Y93670D01*
X147170D01*
X147250Y93750D01*
X140822Y98912D02*
X140970Y99060D01*
X95350Y38500D02*
Y38700D01*
X130570Y83750D02*
X143580D01*
X89829Y13111D02*
X130053Y53335D01*
X105410Y17272D02*
X147066Y58928D01*
X138844Y139350D02*
X139282Y138911D01*
X125000Y139350D02*
X138844D01*
X142721Y138911D02*
X142748Y138938D01*
X159860Y155250D02*
X160274Y155664D01*
Y155702D01*
X139282Y138911D02*
X142721D01*
X26122Y61000D02*
X26162Y60960D01*
X10000Y61000D02*
X26122D01*
X71910Y28476D02*
X86424D01*
X71628Y28194D02*
X71910Y28476D01*
X86424D02*
X86650Y28250D01*
X159766Y60100D02*
Y67818D01*
X158594Y58928D02*
X159766Y60100D01*
X147066Y58928D02*
X158594D01*
X74000Y750D02*
X86360Y13111D01*
X89829D01*
X91539Y-2395D02*
X177648D01*
X183098Y3055D02*
X184598D01*
X177648Y-2395D02*
X183098Y3055D01*
X88890Y254D02*
X91539Y-2395D01*
X215250Y55372D02*
Y67168D01*
X218750Y192000D02*
X223552Y187198D01*
X225806D01*
X214650Y192000D02*
X218750D01*
X171736Y261366D02*
X171958Y261144D01*
Y241300D02*
Y261144D01*
X136398Y244372D02*
Y245872D01*
Y244372D02*
X136770Y244000D01*
X139068D01*
X146450Y236582D02*
Y236618D01*
X139068Y244000D02*
X146450Y236618D01*
Y236582D02*
X151032Y232000D01*
X158350D01*
X130750Y236500D02*
X138750D01*
X148428Y226822D01*
X153924D01*
X135710Y190610D02*
Y201242D01*
Y190610D02*
X135820Y190500D01*
X45000Y232770D02*
Y254500D01*
D14*
X79716Y91488D02*
X94306Y106077D01*
X47500Y61250D02*
X77738Y91488D01*
X94870Y113800D02*
X98044D01*
X77738Y91488D02*
X79716D01*
X94560Y113490D02*
X94870Y113800D01*
X94306Y108056D02*
X94560Y108310D01*
Y113490D01*
X94306Y106077D02*
Y108056D01*
X293116Y235000D02*
X322397D01*
X378968Y260350D02*
X386080Y253238D01*
Y237744D02*
Y253238D01*
X347747Y260350D02*
X378968D01*
X322397Y235000D02*
X347747Y260350D01*
X99060Y123444D02*
Y137414D01*
Y121090D02*
Y123444D01*
Y137414D02*
Y138684D01*
X81244Y195036D02*
X83820Y197612D01*
X81244Y190515D02*
Y195036D01*
X78491Y187762D02*
X81244Y190515D01*
X69009Y187762D02*
X78491D01*
X64558Y192213D02*
X69009Y187762D01*
X64558Y192213D02*
Y198860D01*
X64352Y199066D02*
X64558Y198860D01*
X52250Y197930D02*
X63436D01*
X63754Y197612D01*
X52070Y185633D02*
X92940Y144764D01*
X92980D01*
X52070Y185633D02*
Y197358D01*
X92980Y144764D02*
X99060Y138684D01*
X35100Y61250D02*
X47500D01*
X359410Y141034D02*
Y200533D01*
X385572Y226695D02*
Y234950D01*
X359410Y200533D02*
X385572Y226695D01*
D15*
X368554Y165507D02*
Y192024D01*
X267860Y246524D02*
X267970Y246634D01*
X267860Y238870D02*
X268224Y238506D01*
X267860Y238870D02*
Y246524D01*
X377190Y183642D02*
X377698Y183134D01*
Y152052D02*
Y183134D01*
Y152052D02*
X394500Y135250D01*
X403000D01*
X384762Y124000D02*
X393398D01*
X396748Y120650D01*
X373126Y135636D02*
X384762Y124000D01*
X368554Y165507D02*
X373126Y160935D01*
Y135636D02*
Y160935D01*
X372618Y248920D02*
X373000Y248538D01*
Y235250D02*
Y248538D01*
X360717Y237527D02*
Y247687D01*
X360934Y247904D01*
X359918Y236728D02*
X360717Y237527D01*
X323596Y205994D02*
Y206502D01*
X319152Y201550D02*
X323596Y205994D01*
X316550Y201550D02*
X319152D01*
X315000Y200000D02*
X316550Y201550D01*
X372872Y229622D02*
Y230886D01*
X362375Y219125D02*
X372872Y229622D01*
X325625Y219125D02*
X362375D01*
X315200Y208700D02*
X325625Y219125D01*
X315000Y208700D02*
X315200D01*
X279908Y228854D02*
X280896D01*
X312840Y208700D02*
X313182Y209042D01*
X310140Y206000D02*
X312840Y208700D01*
X315000D01*
X308952D02*
X312840D01*
X280896Y228854D02*
X289395Y220355D01*
X297567D01*
X304962Y212960D01*
Y212690D02*
Y212960D01*
Y212690D02*
X308952Y208700D01*
X297125Y199500D02*
X297375Y199750D01*
X314050D01*
X297125Y206000D02*
X310140D01*
D17*
X86106Y84582D02*
Y85448D01*
Y84582D02*
X88646Y82042D01*
X85598Y109982D02*
X86106Y109474D01*
X85598Y109982D02*
Y134366D01*
X76012Y135608D02*
X84356D01*
X85598Y134366D01*
X75353Y134950D02*
X76012Y135608D01*
X74534Y134550D02*
X74934Y134950D01*
X68850Y133800D02*
X69600Y134550D01*
X74534D01*
X74934Y134950D02*
X75353D01*
X221118Y169118D02*
X234994D01*
X219836Y170400D02*
X221118Y169118D01*
X222527Y172518D02*
X233585D01*
X234994Y169118D02*
X236010Y170134D01*
X233585Y172518D02*
X234601Y173534D01*
X219231Y175814D02*
X222527Y172518D01*
X227768Y202000D02*
X230886Y198882D01*
X271122Y173534D02*
X276658Y167998D01*
X234601Y173534D02*
X271122D01*
X236010Y170134D02*
X269714D01*
X179230Y175814D02*
X219231D01*
X179644Y170400D02*
X219836D01*
X269714Y170134D02*
X273258Y166590D01*
X176950Y178094D02*
X179230Y175814D01*
X273258Y157892D02*
Y166590D01*
X276658Y164492D02*
Y167998D01*
X273258Y157892D02*
X281686Y149464D01*
X276658Y164492D02*
X280368Y160782D01*
X239776Y155924D02*
X259080D01*
X197305Y167000D02*
X218428D01*
X229474Y155954D01*
X239776D01*
X190469Y159856D02*
X191278Y160665D01*
X171950Y178094D02*
X179644Y170400D01*
X191278Y160973D02*
X197305Y167000D01*
X191278Y160665D02*
Y160973D01*
X190469Y157195D02*
Y159856D01*
X214650Y202000D02*
X227768D01*
X240030Y236846D02*
Y237998D01*
X235380Y222504D02*
X240820Y227944D01*
X207712Y270316D02*
X240030Y237998D01*
X240820Y227944D02*
Y236056D01*
X240030Y236846D02*
X240820Y236056D01*
X73316Y270316D02*
X207712D01*
X213614Y222504D02*
X235380D01*
X194602Y266916D02*
X206500Y255018D01*
X70000Y254500D02*
X82416Y266916D01*
X57500Y254500D02*
X73316Y270316D01*
X82416Y266916D02*
X194602D01*
X206500Y243588D02*
Y255018D01*
X150622Y108204D02*
X191516D01*
X210566Y127254D01*
X171950Y178094D02*
Y183400D01*
X171500Y183850D02*
X171950Y183400D01*
X176950Y178094D02*
Y183400D01*
X176500Y183850D02*
X176950Y183400D01*
X280368Y160782D02*
X280670D01*
D19*
X166500Y240150D02*
D03*
X206500D02*
D03*
D20*
X303588Y158462D02*
D03*
Y143962D02*
D03*
D21*
X195000Y54350D02*
D03*
Y45650D02*
D03*
X180000Y34350D02*
D03*
Y25650D02*
D03*
X170000D02*
D03*
Y34350D02*
D03*
X155000Y14350D02*
D03*
Y5650D02*
D03*
X259080Y164624D02*
D03*
Y155924D02*
D03*
X249428Y164624D02*
D03*
Y155924D02*
D03*
X315000Y208700D02*
D03*
Y200000D02*
D03*
X125000Y130650D02*
D03*
Y139350D02*
D03*
D22*
X184598Y11555D02*
D03*
X170098D02*
D03*
D23*
X184598Y3055D02*
D03*
X170098D02*
D03*
D24*
X239776Y155954D02*
D03*
Y164594D02*
D03*
X215000Y54320D02*
D03*
Y45680D02*
D03*
X52250Y225820D02*
D03*
Y217180D02*
D03*
X52250Y197930D02*
D03*
Y206570D02*
D03*
X255750Y198180D02*
D03*
Y206820D02*
D03*
D25*
X158350Y232000D02*
D03*
D26*
Y227000D02*
D03*
Y222000D02*
D03*
Y217000D02*
D03*
Y212000D02*
D03*
Y207000D02*
D03*
Y202000D02*
D03*
Y197000D02*
D03*
X214650D02*
D03*
Y202000D02*
D03*
Y207000D02*
D03*
Y212000D02*
D03*
Y217000D02*
D03*
Y222000D02*
D03*
Y227000D02*
D03*
D27*
X158350Y192000D02*
D03*
D28*
X171500Y183850D02*
D03*
X176500D02*
D03*
X181500D02*
D03*
X186500D02*
D03*
X191500D02*
D03*
X196500D02*
D03*
X201500D02*
D03*
Y240150D02*
D03*
X196500D02*
D03*
X191500D02*
D03*
X186500D02*
D03*
X181500D02*
D03*
X176500D02*
D03*
X171500D02*
D03*
D29*
X206500Y183850D02*
D03*
D30*
X214650Y192000D02*
D03*
D31*
Y232000D02*
D03*
D33*
X166500Y183850D02*
D03*
D34*
X89400Y70500D02*
D03*
X98100D02*
D03*
X89150Y82000D02*
D03*
X97850D02*
D03*
X280988Y138962D02*
D03*
X289688D02*
D03*
X280988Y149962D02*
D03*
X289688D02*
D03*
X280988Y159962D02*
D03*
X289688D02*
D03*
X35100Y61250D02*
D03*
X26400D02*
D03*
X86150Y49500D02*
D03*
X94850D02*
D03*
X86650Y38500D02*
D03*
X95350D02*
D03*
X86650Y28250D02*
D03*
X95350D02*
D03*
X257100Y120000D02*
D03*
X248400D02*
D03*
X135600Y202000D02*
D03*
X126900D02*
D03*
X163036Y261366D02*
D03*
X171736D02*
D03*
D35*
X99060Y163390D02*
D03*
Y121090D02*
D03*
D36*
X130750Y212500D02*
D03*
Y224500D02*
D03*
Y236500D02*
D03*
X264250Y110000D02*
D03*
Y98000D02*
D03*
Y86000D02*
D03*
D37*
X308500Y-21500D02*
D03*
X232500D02*
D03*
D38*
X285500Y17250D02*
D03*
X275500D02*
D03*
X265500D02*
D03*
X255500D02*
D03*
X245500D02*
D03*
X295500D02*
D03*
D39*
X312088Y158462D02*
D03*
Y143962D02*
D03*
D40*
X132070Y155250D02*
D03*
X123430D02*
D03*
X295070Y181250D02*
D03*
X286430D02*
D03*
X129820Y83000D02*
D03*
X121180D02*
D03*
X247180Y59500D02*
D03*
X255820D02*
D03*
X248664Y133096D02*
D03*
X257304D02*
D03*
X226930Y232000D02*
D03*
X235570D02*
D03*
X135820Y190500D02*
D03*
X127180D02*
D03*
X135070Y246000D02*
D03*
X126430D02*
D03*
X227930Y186250D02*
D03*
X236570D02*
D03*
D41*
X236750Y267000D02*
D03*
X311250D02*
D03*
X403250Y-17250D02*
D03*
X328750D02*
D03*
X329500Y267250D02*
D03*
X404001D02*
D03*
D42*
X255250Y235000D02*
D03*
X267750D02*
D03*
X292750D02*
D03*
X280250D02*
D03*
X384750Y14750D02*
D03*
X372250D02*
D03*
X347250D02*
D03*
X359750D02*
D03*
X348000Y235250D02*
D03*
X360500D02*
D03*
X385500D02*
D03*
X373000D02*
D03*
D43*
X450000Y187750D02*
D03*
Y67750D02*
D03*
D44*
X403000Y165250D02*
D03*
Y150250D02*
D03*
Y135250D02*
D03*
Y120250D02*
D03*
Y105250D02*
D03*
Y90250D02*
D03*
D45*
X359410Y141034D02*
D03*
Y98234D02*
D03*
D46*
X64352Y222434D02*
D03*
X83148D02*
D03*
Y199066D02*
D03*
X73750D02*
D03*
X64352D02*
D03*
D47*
X297125Y206000D02*
D03*
Y199500D02*
D03*
Y212500D02*
D03*
Y193000D02*
D03*
X269875Y212500D02*
D03*
Y206000D02*
D03*
Y199500D02*
D03*
Y193000D02*
D03*
D48*
X215250Y70750D02*
D03*
X210250D02*
D03*
X205250D02*
D03*
X200250D02*
D03*
X195250D02*
D03*
X190250D02*
D03*
X185250D02*
D03*
X180250D02*
D03*
X175250D02*
D03*
X170250D02*
D03*
X165250D02*
D03*
X160250D02*
D03*
Y151750D02*
D03*
X165250D02*
D03*
X170250D02*
D03*
X175250D02*
D03*
X180250D02*
D03*
X185250D02*
D03*
X190250D02*
D03*
X195250D02*
D03*
X200250D02*
D03*
X205250D02*
D03*
X210250D02*
D03*
X215250D02*
D03*
D49*
X147250Y83750D02*
D03*
Y88750D02*
D03*
Y93750D02*
D03*
Y98750D02*
D03*
Y103750D02*
D03*
Y108750D02*
D03*
Y113750D02*
D03*
Y118750D02*
D03*
Y123750D02*
D03*
Y128750D02*
D03*
Y133750D02*
D03*
Y138750D02*
D03*
X228250D02*
D03*
Y133750D02*
D03*
Y128750D02*
D03*
Y123750D02*
D03*
Y118750D02*
D03*
Y113750D02*
D03*
Y108750D02*
D03*
Y103750D02*
D03*
Y98750D02*
D03*
Y93750D02*
D03*
Y88750D02*
D03*
Y83750D02*
D03*
D50*
X-5000Y61000D02*
D03*
X10000D02*
D03*
D51*
X69000Y38500D02*
D03*
Y33500D02*
D03*
X69838Y28476D02*
D03*
X52566D02*
D03*
X53000Y33500D02*
D03*
Y38500D02*
D03*
D52*
X68850Y98800D02*
D03*
Y103800D02*
D03*
Y108800D02*
D03*
Y113800D02*
D03*
Y118800D02*
D03*
Y123800D02*
D03*
Y128800D02*
D03*
Y133800D02*
D03*
Y138800D02*
D03*
Y143800D02*
D03*
Y148800D02*
D03*
Y153800D02*
D03*
D94*
X186500Y212000D02*
D03*
D95*
X283500Y202750D02*
D03*
D96*
X179832Y50577D02*
Y52070D01*
D97*
X51816Y205836D02*
X54850Y208870D01*
X51816Y205486D02*
Y205836D01*
X54850Y208870D02*
X68471D01*
X73750Y199066D02*
Y202876D01*
X70346Y206280D02*
Y206995D01*
Y206280D02*
X73750Y202876D01*
X68471Y208870D02*
X70346Y206995D01*
X95400Y66175D02*
Y67600D01*
X88153Y58928D02*
X95400Y66175D01*
X74930Y58928D02*
X88153D01*
X98100Y70300D02*
Y70500D01*
X95400Y67600D02*
X98100Y70300D01*
X126743Y73409D02*
X127508Y72644D01*
X121611Y73409D02*
X126743D01*
X121180Y73840D02*
Y83000D01*
Y73840D02*
X121611Y73409D01*
X212090Y109474D02*
Y111704D01*
X219058Y118672D02*
X228173D01*
X228250Y118750D01*
X212090Y111704D02*
X219058Y118672D01*
X83331Y102774D02*
X88881D01*
X68850Y113800D02*
X76850D01*
X79406Y111244D01*
X93060Y106953D02*
Y111990D01*
X94870Y113800D01*
X79406Y106699D02*
X83331Y102774D01*
X79406Y106699D02*
Y111244D01*
X92806Y106699D02*
X93060Y106953D01*
X86033Y139658D02*
X88278Y137414D01*
X68950Y138900D02*
X73156D01*
X88278Y137414D02*
X99060D01*
X73676Y139000D02*
X74334Y139658D01*
X77568Y129029D02*
X78098Y129558D01*
X73704Y129029D02*
X77568D01*
X74334Y139658D02*
X86033D01*
X73256Y139000D02*
X73676D01*
X73156Y138900D02*
X73256Y139000D01*
X68850Y138800D02*
X68950Y138900D01*
X41764Y38500D02*
X53000D01*
X33782Y46482D02*
X41764Y38500D01*
X38608Y28194D02*
X49022D01*
X280656Y138430D02*
X280988D01*
Y138962D01*
Y122364D02*
Y138430D01*
Y122364D02*
X303022Y100330D01*
X303784D01*
X279864Y98000D02*
X280162Y98298D01*
X264250Y98000D02*
X279864D01*
X280162Y98298D02*
X280416D01*
X249411Y164609D02*
X249936Y164084D01*
X231903Y163831D02*
X240285D01*
X241046Y164592D01*
X239776Y164594D02*
X239791Y164609D01*
X249411D01*
X231140Y163068D02*
X231903Y163831D01*
X245330Y185962D02*
X245618Y185674D01*
X236858Y185962D02*
X245330D01*
X236570Y186250D02*
X236858Y185962D01*
X259996Y192201D02*
X260795Y193000D01*
X248567Y192201D02*
X259996D01*
X248393Y192374D02*
X248567Y192201D01*
X241712Y195599D02*
X244937Y192374D01*
X248393D01*
X277622Y182626D02*
X278998Y181250D01*
X286430D01*
Y196424D01*
X285750Y197104D02*
X286430Y196424D01*
X287274Y213360D02*
X288134Y212500D01*
X297125D01*
X269875Y206000D02*
X279406D01*
X279654Y206248D01*
X215300Y45680D02*
X221356Y39624D01*
X214446Y45650D02*
X216662Y43434D01*
X195000Y45650D02*
X214446D01*
X221356Y39624D02*
X229616D01*
X215000Y45680D02*
X215300D01*
X257020Y56779D02*
Y59210D01*
Y56779D02*
X257556Y56243D01*
X256286Y59944D02*
X257020Y59210D01*
X257556Y48514D02*
Y56243D01*
X295500Y17250D02*
X304270D01*
X304546Y17526D01*
X385034Y30704D02*
X385318Y30988D01*
X384750Y14750D02*
X385034Y15034D01*
Y30704D01*
X275082Y21082D02*
Y21582D01*
X279300Y25800D02*
Y26326D01*
X275082Y21582D02*
X279300Y25800D01*
X275082Y19050D02*
Y21082D01*
X281175Y28200D02*
X351800D01*
X279300Y26326D02*
X281175Y28200D01*
X351800D02*
X359750Y20250D01*
X99060Y123444D02*
X99726Y124110D01*
X128785D01*
X133692Y129016D01*
X99060Y163390D02*
Y164846D01*
X126746Y189766D02*
Y190246D01*
X123430Y155250D02*
Y186450D01*
X126746Y189766D01*
X73676Y129000D02*
X73704Y129029D01*
X71882Y129000D02*
X73676D01*
X238922Y212443D02*
X242847Y208518D01*
X241712Y195599D02*
Y201491D01*
X242847Y202626D02*
Y208518D01*
X241712Y201491D02*
X242847Y202626D01*
X218550Y212000D02*
X232929D01*
X233372Y212443D01*
X238922D01*
X260795Y193000D02*
X269875D01*
X347980Y248666D02*
X348000Y248646D01*
Y235250D02*
Y248646D01*
X403118Y150368D02*
X403606D01*
X403000Y150250D02*
X403118Y150368D01*
X451910Y187750D02*
X452628Y188468D01*
X450000Y187750D02*
X451910D01*
X404001Y269380D02*
X404114Y269494D01*
X404001Y267250D02*
Y269380D01*
X328676Y268074D02*
X329500Y267250D01*
X328676Y268074D02*
Y268478D01*
X311250Y267000D02*
Y268578D01*
X311658Y268986D01*
X255653Y217143D02*
X260295Y212500D01*
X229781Y217143D02*
X255653D01*
X229638Y217000D02*
X229781Y217143D01*
X218550Y217000D02*
X229638D01*
X275322Y133096D02*
X280656Y138430D01*
X257304Y133096D02*
X275322D01*
X296562Y138962D02*
X299012Y136512D01*
X310038Y138386D02*
Y140412D01*
X311404Y141778D01*
Y143256D01*
X289688Y138962D02*
X296562D01*
X299012Y136512D02*
X308163D01*
X310038Y138386D01*
X298588Y149962D02*
X303530Y145020D01*
Y144018D02*
Y145020D01*
X289688Y149962D02*
X298588D01*
X291084Y160274D02*
X292896Y158462D01*
X303588D01*
X243708Y110000D02*
X264250D01*
X242166Y108458D02*
X243708Y110000D01*
X230124Y108458D02*
X242166D01*
X256250Y86000D02*
X264250D01*
X238878Y103372D02*
X256250Y86000D01*
X232664Y103372D02*
X238878D01*
X287000Y10475D02*
Y13228D01*
Y10475D02*
X294424Y3050D01*
X366050D01*
X372250Y9250D01*
Y14750D01*
X285496Y14732D02*
X287000Y13228D01*
X359750Y14750D02*
Y20250D01*
X180000Y17612D02*
X184150Y13462D01*
X180000Y17612D02*
Y25650D01*
X169672Y12446D02*
X170049Y12823D01*
X170000Y25650D02*
X170049Y25601D01*
Y12823D02*
Y25601D01*
X168415Y4305D02*
X168910Y3810D01*
X155000Y5650D02*
X162500D01*
X163845Y4305D01*
X168415D01*
X147173Y133672D02*
X147250Y133750D01*
X138058Y133672D02*
X147173D01*
X133692Y129306D02*
X138058Y133672D01*
X133692Y129016D02*
Y129306D01*
X55750Y114300D02*
X63250D01*
X55750Y114300D02*
X55750Y114300D01*
X63250D02*
X63550Y114000D01*
X66040D01*
X56050Y138600D02*
X65640D01*
X66040Y139000D01*
X55750Y138300D02*
X56050Y138600D01*
X55880Y130302D02*
X56516D01*
X62918Y123900D01*
X68750D01*
X68850Y123800D01*
X71520Y38500D02*
X86650D01*
X85344Y39116D02*
X86150Y39922D01*
Y49500D01*
X71374Y38354D02*
X71520Y38500D01*
X195000Y54350D02*
Y68762D01*
X195072Y68834D01*
X260295Y212500D02*
X269875D01*
D98*
X67134Y221488D02*
X77040Y211582D01*
X63754Y221488D02*
X67134D01*
X77040Y211582D02*
X85969D01*
X114554Y152400D02*
Y182997D01*
Y136177D02*
Y152400D01*
X65532Y238506D02*
X86106D01*
X52324Y225298D02*
X65532Y238506D01*
X86106D02*
X93531Y231081D01*
Y204021D02*
X114554Y182997D01*
X85969Y211582D02*
X93531Y204021D01*
Y231081D01*
X114554Y136177D02*
X119380Y131351D01*
Y130810D02*
Y131351D01*
D99*
X245559Y6663D02*
Y14029D01*
X245110Y14478D02*
X245559Y14029D01*
Y6663D02*
X245618Y6604D01*
X347250Y14750D02*
Y19574D01*
X346250Y20574D02*
X347250Y19574D01*
X338836Y20574D02*
X346250D01*
X215900Y54610D02*
X220389D01*
X216352Y55372D02*
X220480Y59500D01*
X247180D01*
Y18930D02*
Y59220D01*
X245500Y17250D02*
X247180Y18930D01*
D100*
X358648Y95146D02*
X363544Y90250D01*
X358648Y95146D02*
Y96774D01*
X363544Y90250D02*
X403000D01*
X359664Y102338D02*
X362577Y105250D01*
X359664Y99060D02*
Y102338D01*
X362577Y105250D02*
X403000D01*
D101*
X57500Y254500D02*
D03*
X86500Y750D02*
D03*
X74000D02*
D03*
X61500D02*
D03*
X49000D02*
D03*
X45000Y254500D02*
D03*
X70000D02*
D03*
X82500D02*
D03*
D102*
X0Y250000D02*
D03*
Y0D02*
D03*
D103*
X-9750Y83000D02*
D03*
Y169600D02*
D03*
X47250Y83000D02*
D03*
Y169600D02*
D03*
D104*
X48750Y102300D02*
D03*
Y110300D02*
D03*
Y118300D02*
D03*
Y150300D02*
D03*
Y142300D02*
D03*
Y134300D02*
D03*
X55750Y98300D02*
D03*
Y114300D02*
D03*
Y122300D02*
D03*
Y154300D02*
D03*
Y138300D02*
D03*
Y130300D02*
D03*
D105*
X52250Y166350D02*
D03*
Y86250D02*
D03*
D106*
X62250Y90300D02*
D03*
Y162300D02*
D03*
D107*
X180340Y50069D02*
D03*
X169926Y47602D02*
D03*
X179578Y41402D02*
D03*
X86106Y85448D02*
D03*
X78955Y72429D02*
D03*
X74930Y58928D02*
D03*
X138001Y23001D02*
D03*
X136485Y63491D02*
D03*
X127508Y72644D02*
D03*
X212090Y109474D02*
D03*
X458001Y263001D02*
D03*
X468001Y243001D02*
D03*
X458001Y223001D02*
D03*
X468001Y203001D02*
D03*
Y163001D02*
D03*
X458001Y143001D02*
D03*
X468001Y123001D02*
D03*
X458001Y103001D02*
D03*
X468001Y83001D02*
D03*
Y43001D02*
D03*
X458001Y23001D02*
D03*
X468001Y3001D02*
D03*
X458001Y-16999D02*
D03*
X438001Y263001D02*
D03*
X448001Y243001D02*
D03*
X438001Y223001D02*
D03*
X448001Y203001D02*
D03*
Y163001D02*
D03*
X438001Y143001D02*
D03*
X448001Y123001D02*
D03*
X438001Y103001D02*
D03*
X448001Y83001D02*
D03*
Y43001D02*
D03*
X438001Y23001D02*
D03*
X448001Y3001D02*
D03*
X438001Y-16999D02*
D03*
X418001Y263001D02*
D03*
X428001Y243001D02*
D03*
X418001Y223001D02*
D03*
X428001Y203001D02*
D03*
X418001Y183001D02*
D03*
X428001Y163001D02*
D03*
Y123001D02*
D03*
Y83001D02*
D03*
X418001Y63001D02*
D03*
X428001Y43001D02*
D03*
X418001Y23001D02*
D03*
X428001Y3001D02*
D03*
X418001Y-16999D02*
D03*
X408001Y243001D02*
D03*
X398001Y223001D02*
D03*
X408001Y203001D02*
D03*
X398001Y183001D02*
D03*
Y63001D02*
D03*
X408001Y43001D02*
D03*
X398001Y23001D02*
D03*
X408001Y3001D02*
D03*
X388001Y203001D02*
D03*
X378001Y63001D02*
D03*
X388001Y43001D02*
D03*
X378001Y-16999D02*
D03*
X358001Y63001D02*
D03*
X368001Y43001D02*
D03*
X358001Y-16999D02*
D03*
X338001Y183001D02*
D03*
X348001Y163001D02*
D03*
X338001Y143001D02*
D03*
Y103001D02*
D03*
Y63001D02*
D03*
X348001Y43001D02*
D03*
X318001Y183001D02*
D03*
X328001Y163001D02*
D03*
Y123001D02*
D03*
X318001Y103001D02*
D03*
X328001Y83001D02*
D03*
X318001Y63001D02*
D03*
X328001Y43001D02*
D03*
X298001Y263001D02*
D03*
X308001Y123001D02*
D03*
Y83001D02*
D03*
X298001Y63001D02*
D03*
X308001Y43001D02*
D03*
X278001Y263001D02*
D03*
X288001Y123001D02*
D03*
X278001Y-16999D02*
D03*
X258001Y263001D02*
D03*
Y-16999D02*
D03*
X218001Y23001D02*
D03*
X228001Y3001D02*
D03*
X218001Y-16999D02*
D03*
X198001Y103001D02*
D03*
X208001Y3001D02*
D03*
X198001Y-16999D02*
D03*
X178001D02*
D03*
X158001Y183001D02*
D03*
Y-16999D02*
D03*
X138001D02*
D03*
X118001D02*
D03*
X108001Y243001D02*
D03*
X98001Y183001D02*
D03*
Y-16999D02*
D03*
X78001D02*
D03*
X58001D02*
D03*
X38001Y223001D02*
D03*
Y183001D02*
D03*
Y143001D02*
D03*
Y-16999D02*
D03*
X18001Y263001D02*
D03*
X28001Y243001D02*
D03*
X18001Y223001D02*
D03*
X28001Y203001D02*
D03*
X18001Y183001D02*
D03*
X28001Y163001D02*
D03*
X18001Y143001D02*
D03*
Y23001D02*
D03*
X28001Y3001D02*
D03*
X18001Y-16999D02*
D03*
X-1999Y223001D02*
D03*
X8001Y203001D02*
D03*
X-1999Y183001D02*
D03*
X8001Y163001D02*
D03*
X-1999Y143001D02*
D03*
X8001Y123001D02*
D03*
X-1999Y103001D02*
D03*
X8001Y83001D02*
D03*
Y43001D02*
D03*
X-1999Y23001D02*
D03*
X86106Y109474D02*
D03*
X78098Y129558D02*
D03*
X33782Y46482D02*
D03*
X38608Y28194D02*
D03*
X303784Y100330D02*
D03*
X280416Y98298D02*
D03*
X242359Y139844D02*
D03*
X244377Y148307D02*
D03*
X258572Y120650D02*
D03*
X231140Y163068D02*
D03*
X229616Y178568D02*
D03*
X245618Y185674D02*
D03*
X249908Y198901D02*
D03*
X368554Y192024D02*
D03*
X277622Y182626D02*
D03*
X229616Y39624D02*
D03*
X257556Y48514D02*
D03*
X113134Y103002D02*
D03*
X245618Y6604D02*
D03*
X304546Y17526D02*
D03*
X285242Y36068D02*
D03*
X338836Y20574D02*
D03*
X385318Y30988D02*
D03*
X402336Y-22098D02*
D03*
X328676Y-21844D02*
D03*
X308610D02*
D03*
X284734Y20828D02*
D03*
X233172Y-21844D02*
D03*
X169672Y132080D02*
D03*
X172720Y121158D02*
D03*
X181384Y120370D02*
D03*
X164338Y55118D02*
D03*
X126874Y96264D02*
D03*
X118355Y91199D02*
D03*
X119380Y130810D02*
D03*
X236147Y205743D02*
D03*
X231140Y198628D02*
D03*
X226314Y239522D02*
D03*
X264160Y181864D02*
D03*
X267208Y164084D02*
D03*
X270764Y123190D02*
D03*
X272796Y77470D02*
D03*
X196596Y131826D02*
D03*
X211828Y136152D02*
D03*
X99060Y164846D02*
D03*
X303022Y235966D02*
D03*
X293116Y236220D02*
D03*
X267970Y246634D02*
D03*
X291846Y227076D02*
D03*
X347980Y248666D02*
D03*
X403606Y150368D02*
D03*
Y165100D02*
D03*
X452628Y66548D02*
D03*
Y188468D02*
D03*
X404114Y269494D02*
D03*
X328676Y268478D02*
D03*
X311658Y268986D02*
D03*
X236220Y268478D02*
D03*
X210566Y127254D02*
D03*
X135153Y93591D02*
D03*
X223774Y52578D02*
D03*
X105410Y17272D02*
D03*
X377190Y183642D02*
D03*
X372618Y248920D02*
D03*
X360934Y247904D02*
D03*
X323596Y206502D02*
D03*
M02*
