G04*
G04 #@! TF.GenerationSoftware,Altium Limited,Altium Designer,21.6.1 (37)*
G04*
G04 Layer_Color=8421504*
%FSLAX44Y44*%
%MOMM*%
G71*
G04*
G04 #@! TF.SameCoordinates,5B938996-D26D-4C00-AE6B-B45FE37C9B07*
G04*
G04*
G04 #@! TF.FilePolarity,Positive*
G04*
G01*
G75*
%ADD21R,1.5000X2.1200*%
%ADD22R,1.0000X2.7000*%
%ADD23R,0.6000X1.7000*%
%ADD24R,0.8000X1.0000*%
%ADD25R,3.8000X1.8000*%
%ADD26R,2.7000X1.0000*%
%ADD27R,0.7000X0.9000*%
%ADD28R,2.3300X1.5600*%
%ADD29R,0.8000X0.8000*%
%ADD30R,2.0000X0.4000*%
%ADD31R,0.5588X1.3208*%
%ADD32R,0.9000X0.7000*%
%ADD33R,1.0000X0.8000*%
%ADD34R,0.5250X0.3000*%
%ADD35O,0.2845X1.8000*%
%ADD36O,1.8000X0.2845*%
%ADD37R,1.0000X0.2845*%
%ADD38R,0.7000X0.3200*%
%ADD39R,1.0800X0.2600*%
%ADD40R,0.2600X1.0800*%
G36*
X183730Y214450D02*
X207700D01*
Y190480D01*
X183730D01*
Y214450D01*
D02*
G37*
G36*
X346250Y110500D02*
Y121500D01*
X352750D01*
Y110500D01*
X346250D01*
D02*
G37*
D21*
X102500Y117100D02*
D03*
Y159400D02*
D03*
D22*
X311250Y267000D02*
D03*
X236750D02*
D03*
X389000Y-15750D02*
D03*
X314500D02*
D03*
X329500Y267250D02*
D03*
X404001D02*
D03*
D23*
X280250Y235000D02*
D03*
X292750D02*
D03*
X267750D02*
D03*
X255250D02*
D03*
X370500Y16250D02*
D03*
X358000D02*
D03*
X333000D02*
D03*
X345500D02*
D03*
X348000Y235250D02*
D03*
X360500D02*
D03*
X385500D02*
D03*
X373000D02*
D03*
D24*
X104000Y180000D02*
D03*
X87000D02*
D03*
X266750Y187250D02*
D03*
X249750D02*
D03*
X273500Y73750D02*
D03*
X290500D02*
D03*
X273750Y57000D02*
D03*
X290750D02*
D03*
X136250Y161750D02*
D03*
X153250D02*
D03*
X127750Y251250D02*
D03*
X144750D02*
D03*
X104000Y251750D02*
D03*
X87000D02*
D03*
X263250Y217250D02*
D03*
X246250D02*
D03*
D25*
X450000Y187750D02*
D03*
Y67750D02*
D03*
D26*
X403000Y165250D02*
D03*
Y150250D02*
D03*
Y135250D02*
D03*
Y120250D02*
D03*
Y105250D02*
D03*
Y90250D02*
D03*
D27*
X132500Y189250D02*
D03*
X147500D02*
D03*
X265250Y158000D02*
D03*
X250250D02*
D03*
X265250Y174500D02*
D03*
X250250D02*
D03*
X273750Y112250D02*
D03*
X258750D02*
D03*
X273750Y93500D02*
D03*
X288750D02*
D03*
X274500Y41000D02*
D03*
X289500D02*
D03*
X30250Y196250D02*
D03*
X45250D02*
D03*
X199750Y256500D02*
D03*
X184750D02*
D03*
X250000Y142250D02*
D03*
X265000D02*
D03*
X87500Y64000D02*
D03*
X102500D02*
D03*
X48250Y60750D02*
D03*
X33250D02*
D03*
X87500Y39000D02*
D03*
X102500D02*
D03*
X87750Y14250D02*
D03*
X102750D02*
D03*
D28*
X374150Y198750D02*
D03*
X331350D02*
D03*
D29*
X281500Y157750D02*
D03*
X296500D02*
D03*
X281500Y174750D02*
D03*
X296500D02*
D03*
X12500Y196250D02*
D03*
X-2500D02*
D03*
X295250Y140750D02*
D03*
X280250D02*
D03*
X2250Y60750D02*
D03*
X17250D02*
D03*
D30*
X267500Y27000D02*
D03*
Y15000D02*
D03*
Y3000D02*
D03*
X139750Y233750D02*
D03*
Y221750D02*
D03*
Y209750D02*
D03*
D31*
X86101Y228684D02*
D03*
X104897D02*
D03*
Y205316D02*
D03*
X95499D02*
D03*
X86101D02*
D03*
D32*
X377000Y123250D02*
D03*
Y108250D02*
D03*
X377750Y47000D02*
D03*
Y62000D02*
D03*
X358000Y46500D02*
D03*
Y61500D02*
D03*
Y75000D02*
D03*
Y90000D02*
D03*
X377500Y90250D02*
D03*
Y75250D02*
D03*
X340500Y61500D02*
D03*
Y46500D02*
D03*
X228750Y12750D02*
D03*
Y-2250D02*
D03*
X205417Y12750D02*
D03*
Y-2250D02*
D03*
X158750Y12750D02*
D03*
Y-2250D02*
D03*
D33*
X340000Y74750D02*
D03*
Y91750D02*
D03*
X321750Y122500D02*
D03*
Y105500D02*
D03*
X182584Y13750D02*
D03*
Y-3250D02*
D03*
X127250Y39500D02*
D03*
Y22500D02*
D03*
X122750Y67500D02*
D03*
Y84500D02*
D03*
D34*
X363125Y119250D02*
D03*
Y112750D02*
D03*
Y125750D02*
D03*
Y106250D02*
D03*
X335875Y125750D02*
D03*
Y119250D02*
D03*
Y112750D02*
D03*
Y106250D02*
D03*
D35*
X217250Y53500D02*
D03*
X212250D02*
D03*
X207250D02*
D03*
X202250D02*
D03*
X197250D02*
D03*
X192250D02*
D03*
X187250D02*
D03*
X182250D02*
D03*
X177250D02*
D03*
X172250D02*
D03*
X167250D02*
D03*
X162250D02*
D03*
Y134500D02*
D03*
X167250D02*
D03*
X172250D02*
D03*
X177250D02*
D03*
X182250D02*
D03*
X187250D02*
D03*
X192250D02*
D03*
X197250D02*
D03*
X202250D02*
D03*
X207250D02*
D03*
X212250D02*
D03*
X217250D02*
D03*
D36*
X149250Y66500D02*
D03*
Y71500D02*
D03*
Y76500D02*
D03*
Y81500D02*
D03*
Y86500D02*
D03*
Y91500D02*
D03*
Y96500D02*
D03*
Y101500D02*
D03*
Y106500D02*
D03*
Y111500D02*
D03*
Y116500D02*
D03*
Y121500D02*
D03*
X230250D02*
D03*
Y116500D02*
D03*
Y111500D02*
D03*
Y106500D02*
D03*
Y101500D02*
D03*
Y96500D02*
D03*
Y91500D02*
D03*
Y86500D02*
D03*
Y81500D02*
D03*
Y76500D02*
D03*
Y71500D02*
D03*
Y66500D02*
D03*
D37*
X69000Y38500D02*
D03*
Y33500D02*
D03*
X69838Y28476D02*
D03*
X52566D02*
D03*
X53000Y33500D02*
D03*
Y38500D02*
D03*
D38*
X68850Y98800D02*
D03*
Y103800D02*
D03*
Y108800D02*
D03*
Y113800D02*
D03*
Y118800D02*
D03*
Y123800D02*
D03*
Y128800D02*
D03*
Y133800D02*
D03*
Y138800D02*
D03*
Y143800D02*
D03*
Y148800D02*
D03*
Y153800D02*
D03*
D39*
X167850Y222750D02*
D03*
Y217750D02*
D03*
Y212750D02*
D03*
Y207750D02*
D03*
Y202750D02*
D03*
Y197750D02*
D03*
Y192750D02*
D03*
Y187750D02*
D03*
Y182750D02*
D03*
X224150D02*
D03*
Y187750D02*
D03*
Y192750D02*
D03*
Y197750D02*
D03*
Y202750D02*
D03*
Y207750D02*
D03*
Y212750D02*
D03*
Y217750D02*
D03*
Y222750D02*
D03*
D40*
X181000Y174600D02*
D03*
X186000D02*
D03*
X191000D02*
D03*
X196000D02*
D03*
X201000D02*
D03*
X206000D02*
D03*
X211000D02*
D03*
X216000D02*
D03*
Y230900D02*
D03*
X211000D02*
D03*
X206000D02*
D03*
X201000D02*
D03*
X196000D02*
D03*
X191000D02*
D03*
X186000D02*
D03*
X181000D02*
D03*
X176000Y174600D02*
D03*
Y230900D02*
D03*
M02*
