G04*
G04 #@! TF.GenerationSoftware,Altium Limited,Altium Designer,21.6.1 (37)*
G04*
G04 Layer_Color=65535*
%FSLAX44Y44*%
%MOMM*%
G71*
G04*
G04 #@! TF.SameCoordinates,60F4C214-0011-4761-B7B6-9C9FFC6254FC*
G04*
G04*
G04 #@! TF.FilePolarity,Positive*
G04*
G01*
G75*
%ADD10C,0.3000*%
%ADD11C,0.2540*%
%ADD12C,0.1270*%
%ADD13C,0.2000*%
%ADD14C,0.0000*%
%ADD15C,0.1524*%
%ADD16C,0.6000*%
%ADD17C,0.2500*%
%ADD18C,0.1000*%
%ADD19C,0.1700*%
D10*
X269162Y45110D02*
G03*
X269162Y45110I-1000J0D01*
G01*
X139492Y51156D02*
G03*
X139492Y51156I-1000J0D01*
G01*
X198283Y271302D02*
X196617Y272968D01*
X193285D01*
X191619Y271302D01*
Y264638D01*
X193285Y262972D01*
X196617D01*
X198283Y264638D01*
X201616Y262972D02*
Y269636D01*
X204948Y272968D01*
X208280Y269636D01*
Y262972D01*
Y267970D01*
X201616D01*
X211612Y262972D02*
Y272968D01*
X218277Y262972D01*
Y272968D01*
X221609Y262972D02*
X224941D01*
X223275D01*
Y272968D01*
X221609Y271302D01*
X356870Y42492D02*
X364201D01*
X360536D01*
Y31496D01*
X367866D02*
Y38827D01*
X371532Y42492D01*
X375197Y38827D01*
Y31496D01*
Y36994D01*
X367866D01*
X378863Y31496D02*
Y42492D01*
X384361D01*
X386194Y40660D01*
Y36994D01*
X384361Y35161D01*
X378863D01*
X382528D02*
X386194Y31496D01*
X397190Y40660D02*
X395358Y42492D01*
X391692D01*
X389859Y40660D01*
Y33329D01*
X391692Y31496D01*
X395358D01*
X397190Y33329D01*
Y36994D01*
X393525D01*
X408187Y42492D02*
X400856D01*
Y31496D01*
X408187D01*
X400856Y36994D02*
X404521D01*
X411852Y42492D02*
X419183D01*
X415518D01*
Y31496D01*
X441176Y40660D02*
X439343Y42492D01*
X435678D01*
X433845Y40660D01*
Y38827D01*
X435678Y36994D01*
X439343D01*
X441176Y35161D01*
Y33329D01*
X439343Y31496D01*
X435678D01*
X433845Y33329D01*
X444842Y42492D02*
Y31496D01*
X448507Y35161D01*
X452173Y31496D01*
Y42492D01*
X455838D02*
Y31496D01*
X461336D01*
X463169Y33329D01*
Y40660D01*
X461336Y42492D01*
X455838D01*
X421193Y271983D02*
X419526Y273649D01*
X416194D01*
X414528Y271983D01*
Y265318D01*
X416194Y263652D01*
X419526D01*
X421193Y265318D01*
X424525Y263652D02*
Y270317D01*
X427857Y273649D01*
X431189Y270317D01*
Y263652D01*
Y268650D01*
X424525D01*
X434522Y263652D02*
Y273649D01*
X441186Y263652D01*
Y273649D01*
X451183Y263652D02*
X444518D01*
X451183Y270317D01*
Y271983D01*
X449517Y273649D01*
X446185D01*
X444518Y271983D01*
D11*
X104795Y26634D02*
G03*
X104795Y26634I-800J0D01*
G01*
X337430Y121778D02*
X339431D01*
X340432Y122779D01*
Y126781D01*
X339431Y127781D01*
X337430D01*
X336430Y126781D01*
Y122779D01*
X337430Y121778D01*
X334429Y127781D02*
Y121778D01*
X330427Y127781D01*
Y121778D01*
X334780Y165823D02*
X332778D01*
X333779D01*
Y159817D01*
X334780Y160818D01*
X318068Y165806D02*
X322069D01*
X318068Y161805D01*
Y160805D01*
X319068Y159805D01*
X321069D01*
X322069Y160805D01*
X326136Y55626D02*
X324970D01*
Y56792D01*
X326136D01*
Y55626D01*
X300668Y129148D02*
Y127982D01*
X299502D01*
Y129148D01*
X300668D01*
D12*
X149340Y232580D02*
G03*
X149340Y232580I-1270J0D01*
G01*
X86260Y120590D02*
Y163890D01*
X111860Y120590D02*
Y163890D01*
X109760D02*
X111860D01*
X86260D02*
X88360D01*
X109760Y120590D02*
X111860D01*
X86260D02*
X88360D01*
X242500Y-28500D02*
X298500D01*
X310500Y-8750D02*
Y14000D01*
X302500D02*
X310500D01*
X230500Y-8750D02*
Y14000D01*
X238500D01*
X243500Y278000D02*
X304400D01*
X232750Y237500D02*
X250400D01*
X232750D02*
Y251800D01*
X297600Y237500D02*
X315250D01*
Y251700D01*
X335600Y-28250D02*
X396500D01*
X389600Y12250D02*
X407250D01*
Y-2050D02*
Y12250D01*
X324750D02*
X342400D01*
X324750Y-1950D02*
Y12250D01*
X336250Y278250D02*
X397150D01*
X325500Y237750D02*
X343150D01*
X325500D02*
Y252050D01*
X390350Y237750D02*
X408000D01*
Y251950D01*
X395000Y196750D02*
X416000D01*
X395000Y174251D02*
Y196750D01*
X394500Y59250D02*
X415500D01*
X394500D02*
Y81750D01*
X474501Y58750D02*
X484000D01*
X483500Y197750D02*
X484000Y197250D01*
X474501Y197750D02*
X483500D01*
X484000Y58750D02*
Y197250D01*
X376760Y91634D02*
X380510D01*
Y147634D01*
X376760D02*
X380510D01*
X351010D02*
X354760D01*
X351010Y91634D02*
Y147634D01*
Y91634D02*
X354760D01*
X268500Y217750D02*
X298500D01*
X268500Y187750D02*
X298500D01*
X-33750Y77800D02*
X-21250D01*
X-33750D02*
Y174800D01*
X-21250D01*
X2250D02*
X34750D01*
X2250Y77800D02*
X34750D01*
X59750Y174800D02*
X79250D01*
X59750Y77800D02*
X79250D01*
Y174800D01*
D13*
X101060Y103240D02*
G03*
X101060Y103240I-1000J0D01*
G01*
X238500Y22250D02*
G03*
X238500Y22250I-1000J0D01*
G01*
X293000Y221000D02*
G03*
X293000Y221000I-1000J0D01*
G01*
X349000Y28750D02*
G03*
X349000Y28750I-1000J0D01*
G01*
X385750Y221250D02*
G03*
X385750Y221250I-1000J0D01*
G01*
X387000Y77750D02*
G03*
X387000Y77750I-1000J0D01*
G01*
X354510Y88384D02*
G03*
X354510Y88384I-1000J0D01*
G01*
X266720Y216720D02*
G03*
X266720Y216720I-1000J0D01*
G01*
X70350Y182500D02*
G03*
X70350Y182500I-1500J0D01*
G01*
X307822Y118796D02*
X349022D01*
X307822D02*
Y172796D01*
X349022D01*
Y118796D02*
Y172796D01*
X330972Y160096D02*
X338572D01*
X318272D02*
X325872D01*
X330972Y131496D02*
X338572D01*
X318272D02*
X325872D01*
X330972D02*
Y145796D01*
Y151796D01*
Y160096D01*
X338572Y131496D02*
Y145796D01*
Y151796D01*
Y160096D01*
X325872Y131496D02*
Y145796D01*
Y151796D01*
Y160096D01*
X318272Y131496D02*
Y145796D01*
Y151796D01*
Y160096D01*
X330972Y145796D02*
X338572D01*
X318272D02*
X325872D01*
X318272Y151796D02*
X325872D01*
X330972D02*
X338572D01*
X156500Y236000D02*
Y242000D01*
X162500D01*
X210500D02*
X216500D01*
Y236000D02*
Y242000D01*
X156500Y182000D02*
Y188000D01*
Y182000D02*
X162500D01*
X210500D02*
X216500D01*
Y188000D01*
X456750Y277250D02*
X475500Y258500D01*
Y-10250D02*
Y258500D01*
X460000Y-25750D02*
X475500Y-10250D01*
X-6750Y-25750D02*
X460000D01*
X-24000Y-8500D02*
X-6750Y-25750D01*
X-24000Y-8500D02*
Y262500D01*
X-9250Y277250D01*
X456750Y277250D01*
X356010Y123134D02*
X365760Y113384D01*
X375510Y123134D01*
X160250Y138750D02*
X215250D01*
X160250Y83750D02*
X215250D01*
X160250D02*
Y138750D01*
X215250Y83750D02*
Y138750D01*
X750Y61000D02*
X4125Y57625D01*
X750Y61000D02*
X4000Y64250D01*
X-12000Y57250D02*
Y65500D01*
X61000Y25000D02*
Y42000D01*
Y25000D02*
Y42000D01*
D14*
X122020Y241500D02*
G03*
X122020Y241500I-1270J0D01*
G01*
X275520Y81000D02*
G03*
X275520Y81000I-1270J0D01*
G01*
D15*
X61558Y208972D02*
G03*
X61558Y212528I-2276J1778D01*
G01*
Y208972D02*
G03*
X61558Y212528I-2276J1778D01*
G01*
D16*
X208250Y93750D02*
G03*
X208250Y93750I-3000J0D01*
G01*
D17*
X229500Y76750D02*
G03*
X229500Y76750I-1250J0D01*
G01*
X54250Y45500D02*
G03*
X54250Y45500I-1250J0D01*
G01*
X463489Y16752D02*
X464739Y18001D01*
Y20500D01*
X463489Y21750D01*
X458491D01*
X457241Y20500D01*
Y18001D01*
X458491Y16752D01*
X460990D01*
Y19251D01*
X457241Y14252D02*
X464739D01*
X457241Y9254D01*
X464739D01*
Y6755D02*
X457241D01*
Y3006D01*
X458491Y1756D01*
X463489D01*
X464739Y3006D01*
Y6755D01*
X448492Y16752D02*
X449742Y18001D01*
Y20500D01*
X448492Y21750D01*
X447243D01*
X445993Y20500D01*
Y18001D01*
X444743Y16752D01*
X443494D01*
X442244Y18001D01*
Y20500D01*
X443494Y21750D01*
X449742Y14252D02*
X442244D01*
X444743Y11753D01*
X442244Y9254D01*
X449742D01*
X448492Y1756D02*
X449742Y3006D01*
Y5505D01*
X448492Y6755D01*
X443494D01*
X442244Y5505D01*
Y3006D01*
X443494Y1756D01*
X449742Y-743D02*
X442244D01*
Y-5741D01*
X449742Y-8240D02*
X442244D01*
X444743D01*
X449742Y-13239D01*
X445993Y-9490D01*
X442244Y-13239D01*
X433495Y16752D02*
X434745Y18001D01*
Y20500D01*
X433495Y21750D01*
X432245D01*
X430996Y20500D01*
Y18001D01*
X429746Y16752D01*
X428497D01*
X427247Y18001D01*
Y20500D01*
X428497Y21750D01*
X434745Y14252D02*
X427247D01*
X429746Y11753D01*
X427247Y9254D01*
X434745D01*
Y6755D02*
X427247D01*
Y3006D01*
X428497Y1756D01*
X433495D01*
X434745Y3006D01*
Y6755D01*
Y-743D02*
Y-3242D01*
Y-1992D01*
X427247D01*
Y-743D01*
Y-3242D01*
X434745Y-10740D02*
Y-8240D01*
X433495Y-6991D01*
X428497D01*
X427247Y-8240D01*
Y-10740D01*
X428497Y-11989D01*
X433495D01*
X434745Y-10740D01*
X418498Y21750D02*
X419748Y20500D01*
Y18001D01*
X418498Y16752D01*
X417248D01*
X415999Y18001D01*
Y19251D01*
Y18001D01*
X414749Y16752D01*
X413500D01*
X412250Y18001D01*
Y20500D01*
X413500Y21750D01*
X419748Y14252D02*
X414749D01*
X412250Y11753D01*
X414749Y9254D01*
X419748D01*
X418498Y6755D02*
X419748Y5505D01*
Y3006D01*
X418498Y1756D01*
X417248D01*
X415999Y3006D01*
Y4256D01*
Y3006D01*
X414749Y1756D01*
X413500D01*
X412250Y3006D01*
Y5505D01*
X413500Y6755D01*
X414512Y228998D02*
X413262Y227749D01*
Y225250D01*
X414512Y224000D01*
X419510D01*
X420760Y225250D01*
Y227749D01*
X419510Y228998D01*
X417011D01*
Y226499D01*
X420760Y231498D02*
X413262D01*
X420760Y236496D01*
X413262D01*
Y238995D02*
X420760D01*
Y242744D01*
X419510Y243993D01*
X414512D01*
X413262Y242744D01*
Y238995D01*
X429509Y228998D02*
X428259Y227749D01*
Y225250D01*
X429509Y224000D01*
X434507D01*
X435757Y225250D01*
Y227749D01*
X434507Y228998D01*
X435757Y231498D02*
X430758D01*
X428259Y233997D01*
X430758Y236496D01*
X435757D01*
X432008D01*
Y231498D01*
X435757Y238995D02*
X428259D01*
X435757Y243993D01*
X428259D01*
X437006Y246493D02*
Y251491D01*
X428259Y253990D02*
X435757D01*
Y258989D01*
X445755Y228998D02*
X444506Y227749D01*
Y225250D01*
X445755Y224000D01*
X450754D01*
X452003Y225250D01*
Y227749D01*
X450754Y228998D01*
X452003Y231498D02*
X447005D01*
X444506Y233997D01*
X447005Y236496D01*
X452003D01*
X448255D01*
Y231498D01*
X452003Y238995D02*
X444506D01*
X452003Y243993D01*
X444506D01*
X453253Y246493D02*
Y251491D01*
X444506Y253990D02*
X452003D01*
X448255D01*
Y258989D01*
X444506D01*
X452003D01*
X460752Y224000D02*
X465751D01*
X468250Y226499D01*
X465751Y228998D01*
X460752D01*
X463252Y231498D02*
X467000D01*
X468250Y232747D01*
Y236496D01*
X463252D01*
X468250Y238995D02*
Y242744D01*
X467000Y243993D01*
X465751Y242744D01*
Y240245D01*
X464501Y238995D01*
X463252Y240245D01*
Y243993D01*
X460752Y246493D02*
X468250D01*
Y250242D01*
X467000Y251491D01*
X465751D01*
X464501D01*
X463252Y250242D01*
Y246493D01*
D18*
X337598Y68460D02*
X341598D01*
X337598Y53460D02*
X341598D01*
X287834Y140610D02*
Y144610D01*
X302834Y140610D02*
Y144610D01*
D19*
X296848Y159306D02*
X302180D01*
X299514Y161972D02*
Y156640D01*
X192061Y1847D02*
X197392D01*
X194726Y4512D02*
Y-819D01*
X357046Y57452D02*
X362378D01*
X359712Y60118D02*
Y54786D01*
X223155Y30537D02*
Y37535D01*
X226654D01*
X227820Y36369D01*
Y34036D01*
X226654Y32870D01*
X223155D01*
X225487D02*
X227820Y30537D01*
X230153D02*
X232485D01*
X231319D01*
Y37535D01*
X230153Y36369D01*
X235984Y31703D02*
X237150Y30537D01*
X239483D01*
X240649Y31703D01*
Y36369D01*
X239483Y37535D01*
X237150D01*
X235984Y36369D01*
Y35202D01*
X237150Y34036D01*
X240649D01*
X130245Y30115D02*
X123247D01*
Y33614D01*
X124413Y34780D01*
X126746D01*
X127912Y33614D01*
Y30115D01*
Y32447D02*
X130245Y34780D01*
Y37113D02*
Y39445D01*
Y38279D01*
X123247D01*
X124413Y37113D01*
Y42944D02*
X123247Y44110D01*
Y46443D01*
X124413Y47609D01*
X125580D01*
X126746Y46443D01*
X127912Y47609D01*
X129079D01*
X130245Y46443D01*
Y44110D01*
X129079Y42944D01*
X127912D01*
X126746Y44110D01*
X125580Y42944D01*
X124413D01*
X126746Y44110D02*
Y46443D01*
X146662Y59389D02*
Y64055D01*
X145495Y65221D01*
X143163D01*
X141996Y64055D01*
Y59389D01*
X143163Y58223D01*
X145495D01*
X144329Y60556D02*
X146662Y58223D01*
X145495D02*
X146662Y59389D01*
X153659Y58223D02*
X148994D01*
X153659Y62888D01*
Y64055D01*
X152493Y65221D01*
X150161D01*
X148994Y64055D01*
X271780Y56595D02*
Y61261D01*
X270614Y62427D01*
X268281D01*
X267115Y61261D01*
Y56595D01*
X268281Y55429D01*
X270614D01*
X269447Y57762D02*
X271780Y55429D01*
X270614D02*
X271780Y56595D01*
X274113Y55429D02*
X276445D01*
X275279D01*
Y62427D01*
X274113Y61261D01*
X28350Y-19501D02*
Y-12503D01*
X31849D01*
X33016Y-13669D01*
Y-16002D01*
X31849Y-17168D01*
X28350D01*
X35348Y-12503D02*
X40013Y-19501D01*
Y-12503D02*
X35348Y-19501D01*
X45845D02*
Y-12503D01*
X42346Y-16002D01*
X47011D01*
X49344D02*
X54009D01*
X56341Y-12503D02*
Y-19501D01*
X59840D01*
X61007Y-18335D01*
Y-13669D01*
X59840Y-12503D01*
X56341D01*
X68004D02*
X63339D01*
Y-19501D01*
X68004D01*
X63339Y-16002D02*
X65672D01*
X70337Y-12503D02*
Y-19501D01*
X73836D01*
X75002Y-18335D01*
Y-17168D01*
X73836Y-16002D01*
X70337D01*
X73836D01*
X75002Y-14836D01*
Y-13669D01*
X73836Y-12503D01*
X70337D01*
X77335D02*
Y-18335D01*
X78501Y-19501D01*
X80834D01*
X82000Y-18335D01*
Y-12503D01*
X88998Y-13669D02*
X87831Y-12503D01*
X85499D01*
X84332Y-13669D01*
Y-18335D01*
X85499Y-19501D01*
X87831D01*
X88998Y-18335D01*
Y-16002D01*
X86665D01*
X347783Y189023D02*
X346617Y190189D01*
X344284D01*
X343118Y189023D01*
Y187856D01*
X344284Y186690D01*
X346617D01*
X347783Y185524D01*
Y184357D01*
X346617Y183191D01*
X344284D01*
X343118Y184357D01*
X350116Y190189D02*
Y183191D01*
X352448Y185524D01*
X354781Y183191D01*
Y190189D01*
X357113Y183191D02*
X359446D01*
X358280D01*
Y190189D01*
X357113Y189023D01*
X132023Y92853D02*
X125025D01*
Y96352D01*
X126191Y97518D01*
X128524D01*
X129690Y96352D01*
Y92853D01*
Y95185D02*
X132023Y97518D01*
Y99851D02*
Y102183D01*
Y101017D01*
X125025D01*
X126191Y99851D01*
X125025Y105682D02*
Y110347D01*
X126191D01*
X130857Y105682D01*
X132023D01*
X120339Y93615D02*
X113341D01*
Y97114D01*
X114507Y98280D01*
X116840D01*
X118006Y97114D01*
Y93615D01*
Y95947D02*
X120339Y98280D01*
Y100612D02*
Y102945D01*
Y101779D01*
X113341D01*
X114507Y100612D01*
X113341Y111109D02*
X114507Y108777D01*
X116840Y106444D01*
X119173D01*
X120339Y107610D01*
Y109943D01*
X119173Y111109D01*
X118006D01*
X116840Y109943D01*
Y106444D01*
X248863Y172101D02*
X241865D01*
Y175600D01*
X243031Y176766D01*
X245364D01*
X246530Y175600D01*
Y172101D01*
Y174433D02*
X248863Y176766D01*
Y179099D02*
Y181431D01*
Y180265D01*
X241865D01*
X243031Y179099D01*
X241865Y189595D02*
Y184930D01*
X245364D01*
X244198Y187263D01*
Y188429D01*
X245364Y189595D01*
X247697D01*
X248863Y188429D01*
Y186096D01*
X247697Y184930D01*
X260039Y171593D02*
X253041D01*
Y175092D01*
X254207Y176258D01*
X256540D01*
X257706Y175092D01*
Y171593D01*
Y173925D02*
X260039Y176258D01*
Y178591D02*
Y180923D01*
Y179757D01*
X253041D01*
X254207Y178591D01*
X260039Y187921D02*
X253041D01*
X256540Y184422D01*
Y189087D01*
X115713Y144329D02*
Y151327D01*
X119212D01*
X120378Y150161D01*
Y147828D01*
X119212Y146662D01*
X115713D01*
X118045D02*
X120378Y144329D01*
X122711D02*
X125043D01*
X123877D01*
Y151327D01*
X122711Y150161D01*
X128542D02*
X129708Y151327D01*
X132041D01*
X133207Y150161D01*
Y148994D01*
X132041Y147828D01*
X130875D01*
X132041D01*
X133207Y146662D01*
Y145495D01*
X132041Y144329D01*
X129708D01*
X128542Y145495D01*
X285385Y70923D02*
Y77921D01*
X288884D01*
X290050Y76755D01*
Y74422D01*
X288884Y73256D01*
X285385D01*
X287717D02*
X290050Y70923D01*
X292383D02*
X294715D01*
X293549D01*
Y77921D01*
X292383Y76755D01*
X302879Y70923D02*
X298214D01*
X302879Y75588D01*
Y76755D01*
X301713Y77921D01*
X299380D01*
X298214Y76755D01*
X285131Y47555D02*
Y54553D01*
X288630D01*
X289796Y53387D01*
Y51054D01*
X288630Y49888D01*
X285131D01*
X287463D02*
X289796Y47555D01*
X292129D02*
X294461D01*
X293295D01*
Y54553D01*
X292129Y53387D01*
X297960D02*
X299126Y54553D01*
X301459D01*
X302625Y53387D01*
Y48721D01*
X301459Y47555D01*
X299126D01*
X297960Y48721D01*
Y53387D01*
X328801Y78937D02*
Y71939D01*
X333466D01*
X340464Y78937D02*
X335798D01*
Y71939D01*
X340464D01*
X335798Y75438D02*
X338131D01*
X342796Y78937D02*
Y71939D01*
X346295D01*
X347462Y73105D01*
Y77771D01*
X346295Y78937D01*
X342796D01*
X354459Y71939D02*
X349794D01*
X354459Y76604D01*
Y77771D01*
X353293Y78937D01*
X350960D01*
X349794Y77771D01*
X222457Y162156D02*
X221291Y160989D01*
Y158657D01*
X222457Y157491D01*
X227122D01*
X228289Y158657D01*
Y160989D01*
X227122Y162156D01*
X221291Y164488D02*
Y169153D01*
X222457D01*
X227122Y164488D01*
X228289D01*
X198317Y28712D02*
X191319D01*
Y32211D01*
X192485Y33378D01*
X194818D01*
X195984Y32211D01*
Y28712D01*
Y31045D02*
X198317Y33378D01*
X197150Y35710D02*
X198317Y36877D01*
Y39209D01*
X197150Y40375D01*
X192485D01*
X191319Y39209D01*
Y36877D01*
X192485Y35710D01*
X193652D01*
X194818Y36877D01*
Y40375D01*
X102419Y67751D02*
Y74749D01*
X105917D01*
X107084Y73583D01*
Y71250D01*
X105917Y70084D01*
X102419D01*
X104751D02*
X107084Y67751D01*
X109416Y73583D02*
X110583Y74749D01*
X112915D01*
X114081Y73583D01*
Y72416D01*
X112915Y71250D01*
X114081Y70084D01*
Y68917D01*
X112915Y67751D01*
X110583D01*
X109416Y68917D01*
Y70084D01*
X110583Y71250D01*
X109416Y72416D01*
Y73583D01*
X110583Y71250D02*
X112915D01*
X102669Y78001D02*
Y84999D01*
X106167D01*
X107334Y83833D01*
Y81500D01*
X106167Y80334D01*
X102669D01*
X105001D02*
X107334Y78001D01*
X113165D02*
Y84999D01*
X109666Y81500D01*
X114331D01*
X275772Y37535D02*
Y30537D01*
X279271D01*
X280437Y31703D01*
Y36369D01*
X279271Y37535D01*
X275772D01*
X287435D02*
X282770D01*
Y30537D01*
X287435D01*
X282770Y34036D02*
X285102D01*
X289767Y37535D02*
Y30537D01*
X293266D01*
X294433Y31703D01*
Y32870D01*
X293266Y34036D01*
X289767D01*
X293266D01*
X294433Y35202D01*
Y36369D01*
X293266Y37535D01*
X289767D01*
X296765D02*
Y31703D01*
X297931Y30537D01*
X300264D01*
X301430Y31703D01*
Y37535D01*
X308428Y36369D02*
X307262Y37535D01*
X304929D01*
X303763Y36369D01*
Y31703D01*
X304929Y30537D01*
X307262D01*
X308428Y31703D01*
Y34036D01*
X306096D01*
X272703Y127311D02*
Y134309D01*
X276202D01*
X277368Y133143D01*
Y130810D01*
X276202Y129644D01*
X272703D01*
X275035D02*
X277368Y127311D01*
X279701D02*
X282033D01*
X280867D01*
Y134309D01*
X279701Y133143D01*
X255280Y145599D02*
Y152597D01*
X258779D01*
X259946Y151431D01*
Y149098D01*
X258779Y147932D01*
X255280D01*
X257613D02*
X259946Y145599D01*
X266943D02*
X262278D01*
X266943Y150264D01*
Y151431D01*
X265777Y152597D01*
X263445D01*
X262278Y151431D01*
X266964Y166935D02*
Y173933D01*
X270463D01*
X271630Y172767D01*
Y170434D01*
X270463Y169268D01*
X266964D01*
X269297D02*
X271630Y166935D01*
X273962Y172767D02*
X275129Y173933D01*
X277461D01*
X278627Y172767D01*
Y171600D01*
X277461Y170434D01*
X276295D01*
X277461D01*
X278627Y169268D01*
Y168101D01*
X277461Y166935D01*
X275129D01*
X273962Y168101D01*
X291141Y101367D02*
X298139D01*
Y106032D01*
X291141Y113030D02*
Y108365D01*
X298139D01*
Y113030D01*
X294640Y108365D02*
Y110697D01*
X291141Y115363D02*
X298139D01*
Y118861D01*
X296973Y120028D01*
X292307D01*
X291141Y118861D01*
Y115363D01*
X298139Y122360D02*
Y124693D01*
Y123527D01*
X291141D01*
X292307Y122360D01*
X80895Y117989D02*
Y110991D01*
X84394D01*
X85560Y112157D01*
Y116823D01*
X84394Y117989D01*
X80895D01*
X87893Y110991D02*
X90225D01*
X89059D01*
Y117989D01*
X87893Y116823D01*
X362318Y157480D02*
X369316D01*
Y160979D01*
X368150Y162145D01*
X363484D01*
X362318Y160979D01*
Y157480D01*
X363484Y164478D02*
X362318Y165644D01*
Y167977D01*
X363484Y169143D01*
X364651D01*
X365817Y167977D01*
Y166810D01*
Y167977D01*
X366983Y169143D01*
X368150D01*
X369316Y167977D01*
Y165644D01*
X368150Y164478D01*
X100838Y45974D02*
Y52972D01*
X104337D01*
X105503Y51806D01*
Y49473D01*
X104337Y48307D01*
X100838D01*
X103171D02*
X105503Y45974D01*
X112501D02*
X107836D01*
X112501Y50639D01*
Y51806D01*
X111335Y52972D01*
X109002D01*
X107836Y51806D01*
X114833Y47140D02*
X116000Y45974D01*
X118332D01*
X119499Y47140D01*
Y51806D01*
X118332Y52972D01*
X116000D01*
X114833Y51806D01*
Y50639D01*
X116000Y49473D01*
X119499D01*
X241502Y92250D02*
X242669D01*
X245001Y94583D01*
X242669Y96915D01*
X241502D01*
X245001Y94583D02*
X248500D01*
Y103913D02*
Y99248D01*
X243835Y103913D01*
X242669D01*
X241502Y102747D01*
Y100414D01*
X242669Y99248D01*
X156972Y170320D02*
Y164488D01*
X158138Y163322D01*
X160471D01*
X161637Y164488D01*
Y170320D01*
X167469Y163322D02*
Y170320D01*
X163970Y166821D01*
X168635D01*
X36830Y20460D02*
X41495D01*
X39163D01*
Y13462D01*
X43828Y20460D02*
Y15795D01*
X46160Y13462D01*
X48493Y15795D01*
Y20460D01*
X55491Y19294D02*
X54324Y20460D01*
X51992D01*
X50826Y19294D01*
Y18127D01*
X51992Y16961D01*
X54324D01*
X55491Y15795D01*
Y14628D01*
X54324Y13462D01*
X51992D01*
X50826Y14628D01*
X57823Y13462D02*
X60156D01*
X58990D01*
Y20460D01*
X57823Y19294D01*
X101092Y33782D02*
Y40780D01*
X104591D01*
X105757Y39613D01*
Y37281D01*
X104591Y36115D01*
X101092D01*
X103425D02*
X105757Y33782D01*
X112755D02*
X108090D01*
X112755Y38447D01*
Y39613D01*
X111589Y40780D01*
X109256D01*
X108090Y39613D01*
X115087D02*
X116254Y40780D01*
X118586D01*
X119753Y39613D01*
Y38447D01*
X118586Y37281D01*
X119753Y36115D01*
Y34948D01*
X118586Y33782D01*
X116254D01*
X115087Y34948D01*
Y36115D01*
X116254Y37281D01*
X115087Y38447D01*
Y39613D01*
X116254Y37281D02*
X118586D01*
X81788Y13970D02*
Y20968D01*
X85287D01*
X86453Y19801D01*
Y17469D01*
X85287Y16303D01*
X81788D01*
X84121D02*
X86453Y13970D01*
X93451D02*
X88786D01*
X93451Y18635D01*
Y19801D01*
X92285Y20968D01*
X89952D01*
X88786Y19801D01*
X95784Y20968D02*
X100449D01*
Y19801D01*
X95784Y15136D01*
Y13970D01*
X22000Y44500D02*
Y51498D01*
X25499D01*
X26665Y50332D01*
Y47999D01*
X25499Y46833D01*
X22000D01*
X24333D02*
X26665Y44500D01*
X28998Y50332D02*
X30164Y51498D01*
X32497D01*
X33663Y50332D01*
Y49165D01*
X32497Y47999D01*
X31330D01*
X32497D01*
X33663Y46833D01*
Y45666D01*
X32497Y44500D01*
X30164D01*
X28998Y45666D01*
X35996Y50332D02*
X37162Y51498D01*
X39494D01*
X40661Y50332D01*
Y45666D01*
X39494Y44500D01*
X37162D01*
X35996Y45666D01*
Y50332D01*
X261874Y114808D02*
Y121806D01*
X265373D01*
X266539Y120639D01*
Y118307D01*
X265373Y117141D01*
X261874D01*
X264207D02*
X266539Y114808D01*
X273537D02*
X268872D01*
X273537Y119473D01*
Y120639D01*
X272371Y121806D01*
X270038D01*
X268872Y120639D01*
X279368Y114808D02*
Y121806D01*
X275870Y118307D01*
X280535D01*
X-16000Y51498D02*
Y46833D01*
X-13667Y44500D01*
X-11335Y46833D01*
Y51498D01*
X-9002D02*
Y45666D01*
X-7836Y44500D01*
X-5503D01*
X-4337Y45666D01*
Y51498D01*
X2661Y50332D02*
X1494Y51498D01*
X-838D01*
X-2005Y50332D01*
Y49165D01*
X-838Y47999D01*
X1494D01*
X2661Y46833D01*
Y45666D01*
X1494Y44500D01*
X-838D01*
X-2005Y45666D01*
X4993Y51498D02*
Y44500D01*
X8492D01*
X9658Y45666D01*
Y46833D01*
X8492Y47999D01*
X4993D01*
X8492D01*
X9658Y49165D01*
Y50332D01*
X8492Y51498D01*
X4993D01*
X245965Y142992D02*
X244799Y144158D01*
X242466D01*
X241300Y142992D01*
Y138326D01*
X242466Y137160D01*
X244799D01*
X245965Y138326D01*
X248298Y137160D02*
X250630D01*
X249464D01*
Y144158D01*
X248298Y142992D01*
X254129Y137160D02*
X256462D01*
X255296D01*
Y144158D01*
X254129Y142992D01*
X122521Y76444D02*
X121355Y77610D01*
X119022D01*
X117856Y76444D01*
Y71778D01*
X119022Y70612D01*
X121355D01*
X122521Y71778D01*
X124854Y70612D02*
X127186D01*
X126020D01*
Y77610D01*
X124854Y76444D01*
X135350Y77610D02*
X130685D01*
Y74111D01*
X133018Y75277D01*
X134184D01*
X135350Y74111D01*
Y71778D01*
X134184Y70612D01*
X131852D01*
X130685Y71778D01*
X124807Y167883D02*
X123641Y169050D01*
X121308D01*
X120142Y167883D01*
Y163218D01*
X121308Y162052D01*
X123641D01*
X124807Y163218D01*
X127140Y162052D02*
X129472D01*
X128306D01*
Y169050D01*
X127140Y167883D01*
X136470Y162052D02*
Y169050D01*
X132971Y165551D01*
X137636D01*
X212101Y26763D02*
X210934Y25597D01*
Y23264D01*
X212101Y22098D01*
X216766D01*
X217932Y23264D01*
Y25597D01*
X216766Y26763D01*
X217932Y29096D02*
Y31428D01*
Y30262D01*
X210934D01*
X212101Y29096D01*
Y34927D02*
X210934Y36093D01*
Y38426D01*
X212101Y39592D01*
X213267D01*
X214433Y38426D01*
Y37260D01*
Y38426D01*
X215599Y39592D01*
X216766D01*
X217932Y38426D01*
Y36093D01*
X216766Y34927D01*
X267809Y78730D02*
X266643Y79896D01*
X264310D01*
X263144Y78730D01*
Y74064D01*
X264310Y72898D01*
X266643D01*
X267809Y74064D01*
X270142Y72898D02*
X272474D01*
X271308D01*
Y79896D01*
X270142Y78730D01*
X280638Y72898D02*
X275973D01*
X280638Y77563D01*
Y78730D01*
X279472Y79896D01*
X277139D01*
X275973Y78730D01*
X286512Y59690D02*
Y66688D01*
X290011D01*
X291177Y65521D01*
Y63189D01*
X290011Y62023D01*
X286512D01*
X288845D02*
X291177Y59690D01*
X293510D02*
X295842D01*
X294676D01*
Y66688D01*
X293510Y65521D01*
X299341Y59690D02*
X301674D01*
X300508D01*
Y66688D01*
X299341Y65521D01*
X108752Y221500D02*
X109918D01*
X112251Y223833D01*
X109918Y226165D01*
X108752D01*
X112251Y223833D02*
X115750D01*
Y228498D02*
Y230830D01*
Y229664D01*
X108752D01*
X109918Y228498D01*
X68000Y239248D02*
Y233416D01*
X69166Y232250D01*
X71499D01*
X72665Y233416D01*
Y239248D01*
X74998Y238081D02*
X76164Y239248D01*
X78497D01*
X79663Y238081D01*
Y236915D01*
X78497Y235749D01*
X77330D01*
X78497D01*
X79663Y234583D01*
Y233416D01*
X78497Y232250D01*
X76164D01*
X74998Y233416D01*
X299720Y226962D02*
Y221130D01*
X300886Y219964D01*
X303219D01*
X304385Y221130D01*
Y226962D01*
X306718Y219964D02*
X309050D01*
X307884D01*
Y226962D01*
X306718Y225795D01*
X105750Y198000D02*
Y204998D01*
X109249D01*
X110415Y203832D01*
Y201499D01*
X109249Y200333D01*
X105750D01*
X108083D02*
X110415Y198000D01*
X112748Y204998D02*
X117413D01*
Y203832D01*
X112748Y199166D01*
Y198000D01*
X142636Y258116D02*
Y265114D01*
X146135D01*
X147301Y263948D01*
Y261615D01*
X146135Y260449D01*
X142636D01*
X144969D02*
X147301Y258116D01*
X154299Y265114D02*
X151966Y263948D01*
X149634Y261615D01*
Y259282D01*
X150800Y258116D01*
X153133D01*
X154299Y259282D01*
Y260449D01*
X153133Y261615D01*
X149634D01*
X328422Y200914D02*
X321424D01*
Y204413D01*
X322590Y205579D01*
X324923D01*
X326089Y204413D01*
Y200914D01*
Y203247D02*
X328422Y205579D01*
X321424Y212577D02*
Y207912D01*
X324923D01*
X323757Y210244D01*
Y211411D01*
X324923Y212577D01*
X327256D01*
X328422Y211411D01*
Y209078D01*
X327256Y207912D01*
X15415Y186248D02*
X13083D01*
X14249D01*
Y180416D01*
X13083Y179250D01*
X11916D01*
X10750Y180416D01*
X17748Y179250D02*
X20080D01*
X18914D01*
Y186248D01*
X17748Y185082D01*
X181610Y258458D02*
Y251460D01*
X185109D01*
X186275Y252626D01*
Y257292D01*
X185109Y258458D01*
X181610D01*
X188608D02*
Y251460D01*
X192107D01*
X193273Y252626D01*
Y257292D01*
X192107Y258458D01*
X188608D01*
X195606Y251460D02*
X197938D01*
X196772D01*
Y258458D01*
X195606Y257292D01*
X435165Y207581D02*
X433999Y208748D01*
X431666D01*
X430500Y207581D01*
Y202916D01*
X431666Y201750D01*
X433999D01*
X435165Y202916D01*
X437498Y201750D02*
Y206415D01*
X439830Y208748D01*
X442163Y206415D01*
Y201750D01*
Y205249D01*
X437498D01*
X444496Y201750D02*
Y208748D01*
X449161Y201750D01*
Y208748D01*
X451493Y207581D02*
X452659Y208748D01*
X454992D01*
X456158Y207581D01*
Y206415D01*
X454992Y205249D01*
X453826D01*
X454992D01*
X456158Y204083D01*
Y202916D01*
X454992Y201750D01*
X452659D01*
X451493Y202916D01*
X36586Y221581D02*
X35420Y220415D01*
Y218082D01*
X36586Y216916D01*
X41252D01*
X42418Y218082D01*
Y220415D01*
X41252Y221581D01*
X42418Y223914D02*
Y226246D01*
Y225080D01*
X35420D01*
X36586Y223914D01*
Y229745D02*
X35420Y230912D01*
Y233244D01*
X36586Y234410D01*
X41252D01*
X42418Y233244D01*
Y230912D01*
X41252Y229745D01*
X36586D01*
X37603Y200245D02*
X36436Y199079D01*
Y196746D01*
X37603Y195580D01*
X42268D01*
X43434Y196746D01*
Y199079D01*
X42268Y200245D01*
Y202578D02*
X43434Y203744D01*
Y206077D01*
X42268Y207243D01*
X37603D01*
X36436Y206077D01*
Y203744D01*
X37603Y202578D01*
X38769D01*
X39935Y203744D01*
Y207243D01*
X229665Y224081D02*
X228499Y225248D01*
X226166D01*
X225000Y224081D01*
Y219416D01*
X226166Y218250D01*
X228499D01*
X229665Y219416D01*
X236663Y225248D02*
X234330Y224081D01*
X231998Y221749D01*
Y219416D01*
X233164Y218250D01*
X235497D01*
X236663Y219416D01*
Y220583D01*
X235497Y221749D01*
X231998D01*
X109665Y192332D02*
X108499Y193498D01*
X106166D01*
X105000Y192332D01*
Y187666D01*
X106166Y186500D01*
X108499D01*
X109665Y187666D01*
X116663Y193498D02*
X111998D01*
Y189999D01*
X114330Y191165D01*
X115497D01*
X116663Y189999D01*
Y187666D01*
X115497Y186500D01*
X113164D01*
X111998Y187666D01*
X109665Y247831D02*
X108499Y248998D01*
X106166D01*
X105000Y247831D01*
Y243166D01*
X106166Y242000D01*
X108499D01*
X109665Y243166D01*
X115497Y242000D02*
Y248998D01*
X111998Y245499D01*
X116663D01*
X229665Y199331D02*
X228499Y200498D01*
X226166D01*
X225000Y199331D01*
Y194666D01*
X226166Y193500D01*
X228499D01*
X229665Y194666D01*
X231998Y199331D02*
X233164Y200498D01*
X235497D01*
X236663Y199331D01*
Y198165D01*
X235497Y196999D01*
X234330D01*
X235497D01*
X236663Y195833D01*
Y194666D01*
X235497Y193500D01*
X233164D01*
X231998Y194666D01*
X288891Y173979D02*
X287725Y175146D01*
X285392D01*
X284226Y173979D01*
Y169314D01*
X285392Y168148D01*
X287725D01*
X288891Y169314D01*
X295889Y168148D02*
X291224D01*
X295889Y172813D01*
Y173979D01*
X294723Y175146D01*
X292390D01*
X291224Y173979D01*
X244104Y203547D02*
X242938Y202381D01*
Y200048D01*
X244104Y198882D01*
X248770D01*
X249936Y200048D01*
Y202381D01*
X248770Y203547D01*
X249936Y205880D02*
Y208212D01*
Y207046D01*
X242938D01*
X244104Y205880D01*
M02*
