G04*
G04 #@! TF.GenerationSoftware,Altium Limited,Altium Designer,21.6.1 (37)*
G04*
G04 Layer_Color=8421504*
%FSLAX44Y44*%
%MOMM*%
G71*
G04*
G04 #@! TF.SameCoordinates,60F4C214-0011-4761-B7B6-9C9FFC6254FC*
G04*
G04*
G04 #@! TF.FilePolarity,Positive*
G04*
G01*
G75*
%ADD20R,0.9000X0.6000*%
G04:AMPARAMS|DCode=21|XSize=0.6mm|YSize=0.9mm|CornerRadius=0.15mm|HoleSize=0mm|Usage=FLASHONLY|Rotation=90.000|XOffset=0mm|YOffset=0mm|HoleType=Round|Shape=RoundedRectangle|*
%AMROUNDEDRECTD21*
21,1,0.6000,0.6000,0,0,90.0*
21,1,0.3000,0.9000,0,0,90.0*
1,1,0.3000,0.3000,0.1500*
1,1,0.3000,0.3000,-0.1500*
1,1,0.3000,-0.3000,-0.1500*
1,1,0.3000,-0.3000,0.1500*
%
%ADD21ROUNDEDRECTD21*%
%ADD22R,0.5600X0.6000*%
%ADD23R,0.6000X0.5600*%
%ADD24R,0.7600X1.2700*%
%ADD25R,1.1999X1.8001*%
%ADD26R,0.6000X1.5499*%
%ADD27R,0.6000X0.5400*%
%ADD28R,0.2600X0.9700*%
%ADD29R,0.6300X0.8500*%
%ADD30R,0.8500X0.6300*%
%ADD31R,0.8500X0.5500*%
%ADD32R,0.9700X0.2600*%
%ADD33R,1.0800X0.2600*%
%ADD34R,1.0100X0.2600*%
%ADD35R,0.2600X1.0800*%
%ADD36R,0.2600X1.0000*%
%ADD37R,0.9500X0.2600*%
%ADD38R,0.9800X0.2600*%
%ADD39R,2.1000X2.1000*%
%ADD40R,0.2600X0.9500*%
%ADD41R,1.5000X2.1200*%
%ADD42R,2.0000X0.4000*%
%ADD43R,1.2000X1.8000*%
%ADD44R,0.6000X1.5500*%
%ADD45R,0.5500X0.8500*%
%ADD46R,0.5400X0.6000*%
%ADD47R,1.0000X2.7000*%
%ADD48R,0.6000X1.7000*%
%ADD49R,3.8000X1.8000*%
%ADD50R,2.7000X1.0000*%
%ADD51R,1.5600X2.3300*%
%ADD52R,0.5588X1.3208*%
%ADD53R,0.5250X0.3000*%
%ADD54O,0.2845X1.8000*%
%ADD55O,1.8000X0.2845*%
%ADD56R,0.8000X0.8000*%
%ADD57R,1.0000X0.2845*%
%ADD58R,0.7000X0.3200*%
G36*
X280250Y197250D02*
Y208250D01*
X286750D01*
Y197250D01*
X280250D01*
D02*
G37*
D20*
X236912Y45110D02*
D03*
Y54610D02*
D03*
Y64110D02*
D03*
X259912D02*
D03*
Y54610D02*
D03*
X169742Y51156D02*
D03*
Y41656D02*
D03*
Y32156D02*
D03*
X146742D02*
D03*
Y41656D02*
D03*
D21*
X259912Y45110D02*
D03*
X146742Y51156D02*
D03*
D22*
X255302Y33528D02*
D03*
X246602D02*
D03*
X123984Y139446D02*
D03*
X115284D02*
D03*
X309118Y74422D02*
D03*
X317818D02*
D03*
X317532Y63500D02*
D03*
X308832D02*
D03*
X309340Y51816D02*
D03*
X318040D02*
D03*
X89400Y70500D02*
D03*
X98100D02*
D03*
X89150Y82000D02*
D03*
X97850D02*
D03*
X271494Y139446D02*
D03*
X280194D02*
D03*
X271494Y149860D02*
D03*
X280194D02*
D03*
X275558Y159766D02*
D03*
X284258D02*
D03*
X35100Y61250D02*
D03*
X26400D02*
D03*
X86150Y49500D02*
D03*
X94850D02*
D03*
X86650Y38500D02*
D03*
X95350D02*
D03*
X86650Y28250D02*
D03*
X95350D02*
D03*
X257100Y120000D02*
D03*
X248400D02*
D03*
X135600Y202000D02*
D03*
X126900D02*
D03*
X163036Y261366D02*
D03*
X171736D02*
D03*
D23*
X134874Y31972D02*
D03*
Y40672D02*
D03*
X128270Y116046D02*
D03*
Y124746D02*
D03*
X117856D02*
D03*
Y116046D02*
D03*
X195000Y54350D02*
D03*
Y45650D02*
D03*
X255270Y164370D02*
D03*
Y155670D02*
D03*
X245618Y164624D02*
D03*
Y155924D02*
D03*
X315000Y208700D02*
D03*
Y200000D02*
D03*
D24*
X334772Y183896D02*
D03*
X322072D02*
D03*
X334772Y107696D02*
D03*
X322072D02*
D03*
D25*
X217846Y-21984D02*
D03*
X101844D02*
D03*
D26*
X204846Y16764D02*
D03*
X194846D02*
D03*
X184846D02*
D03*
X174846D02*
D03*
X164846D02*
D03*
X154846D02*
D03*
X144846D02*
D03*
X134846D02*
D03*
X124846D02*
D03*
X114846D02*
D03*
D27*
X236728Y164594D02*
D03*
Y155954D02*
D03*
X215000Y54320D02*
D03*
Y45680D02*
D03*
X52250Y225820D02*
D03*
Y217180D02*
D03*
X52250Y197930D02*
D03*
Y206570D02*
D03*
X255750Y198180D02*
D03*
Y206820D02*
D03*
D28*
X166500Y240150D02*
D03*
X206500D02*
D03*
D29*
X291084Y149860D02*
D03*
Y135360D02*
D03*
D30*
X346848Y65210D02*
D03*
X332348D02*
D03*
D31*
X346848Y56710D02*
D03*
X332348D02*
D03*
D32*
X158350Y232000D02*
D03*
D33*
Y227000D02*
D03*
Y222000D02*
D03*
Y217000D02*
D03*
Y212000D02*
D03*
Y207000D02*
D03*
Y202000D02*
D03*
Y197000D02*
D03*
X214650D02*
D03*
Y202000D02*
D03*
Y207000D02*
D03*
Y212000D02*
D03*
Y217000D02*
D03*
Y222000D02*
D03*
Y227000D02*
D03*
D34*
X158350Y192000D02*
D03*
D35*
X171500Y183850D02*
D03*
X176500D02*
D03*
X181500D02*
D03*
X186500D02*
D03*
X191500D02*
D03*
X196500D02*
D03*
X201500D02*
D03*
Y240150D02*
D03*
X196500D02*
D03*
X191500D02*
D03*
X186500D02*
D03*
X181500D02*
D03*
X176500D02*
D03*
X171500D02*
D03*
D36*
X206500Y183850D02*
D03*
D37*
X214650Y192000D02*
D03*
D38*
Y232000D02*
D03*
D39*
X186500Y212000D02*
D03*
D40*
X166500Y183850D02*
D03*
D41*
X99060Y163390D02*
D03*
Y121090D02*
D03*
D42*
X130750Y212500D02*
D03*
Y224500D02*
D03*
Y236500D02*
D03*
X264250Y110000D02*
D03*
Y98000D02*
D03*
Y86000D02*
D03*
D43*
X308500Y-21500D02*
D03*
X232500D02*
D03*
D44*
X285500Y17250D02*
D03*
X275500D02*
D03*
X265500D02*
D03*
X255500D02*
D03*
X245500D02*
D03*
X295500D02*
D03*
D45*
X299584Y149860D02*
D03*
Y135360D02*
D03*
D46*
X132070Y155250D02*
D03*
X123430D02*
D03*
X295070Y181250D02*
D03*
X286430D02*
D03*
X129820Y83000D02*
D03*
X121180D02*
D03*
X248156Y76200D02*
D03*
X256796D02*
D03*
X248664Y133096D02*
D03*
X257304D02*
D03*
X226930Y232000D02*
D03*
X235570D02*
D03*
X135820Y190500D02*
D03*
X127180D02*
D03*
X135070Y246000D02*
D03*
X126430D02*
D03*
X227930Y186250D02*
D03*
X236570D02*
D03*
D47*
X236750Y267000D02*
D03*
X311250D02*
D03*
X403250Y-17250D02*
D03*
X328750D02*
D03*
X329500Y267250D02*
D03*
X404001D02*
D03*
D48*
X255250Y235000D02*
D03*
X267750D02*
D03*
X292750D02*
D03*
X280250D02*
D03*
X384750Y14750D02*
D03*
X372250D02*
D03*
X347250D02*
D03*
X359750D02*
D03*
X348000Y235250D02*
D03*
X360500D02*
D03*
X385500D02*
D03*
X373000D02*
D03*
D49*
X450000Y187750D02*
D03*
Y67750D02*
D03*
D50*
X403000Y165250D02*
D03*
Y150250D02*
D03*
Y135250D02*
D03*
Y120250D02*
D03*
Y105250D02*
D03*
Y90250D02*
D03*
D51*
X365760Y141034D02*
D03*
Y98234D02*
D03*
D52*
X64352Y222434D02*
D03*
X83148D02*
D03*
Y199066D02*
D03*
X73750D02*
D03*
X64352D02*
D03*
D53*
X297125Y206000D02*
D03*
Y199500D02*
D03*
Y212500D02*
D03*
Y193000D02*
D03*
X269875Y212500D02*
D03*
Y206000D02*
D03*
Y199500D02*
D03*
Y193000D02*
D03*
D54*
X215250Y70750D02*
D03*
X210250D02*
D03*
X205250D02*
D03*
X200250D02*
D03*
X195250D02*
D03*
X190250D02*
D03*
X185250D02*
D03*
X180250D02*
D03*
X175250D02*
D03*
X170250D02*
D03*
X165250D02*
D03*
X160250D02*
D03*
Y151750D02*
D03*
X165250D02*
D03*
X170250D02*
D03*
X175250D02*
D03*
X180250D02*
D03*
X185250D02*
D03*
X190250D02*
D03*
X195250D02*
D03*
X200250D02*
D03*
X205250D02*
D03*
X210250D02*
D03*
X215250D02*
D03*
D55*
X147250Y83750D02*
D03*
Y88750D02*
D03*
Y93750D02*
D03*
Y98750D02*
D03*
Y103750D02*
D03*
Y108750D02*
D03*
Y113750D02*
D03*
Y118750D02*
D03*
Y123750D02*
D03*
Y128750D02*
D03*
Y133750D02*
D03*
Y138750D02*
D03*
X228250D02*
D03*
Y133750D02*
D03*
Y128750D02*
D03*
Y123750D02*
D03*
Y118750D02*
D03*
Y113750D02*
D03*
Y108750D02*
D03*
Y103750D02*
D03*
Y98750D02*
D03*
Y93750D02*
D03*
Y88750D02*
D03*
Y83750D02*
D03*
D56*
X-5000Y61000D02*
D03*
X10000D02*
D03*
D57*
X69000Y38500D02*
D03*
Y33500D02*
D03*
X69838Y28476D02*
D03*
X52566D02*
D03*
X53000Y33500D02*
D03*
Y38500D02*
D03*
D58*
X68850Y98800D02*
D03*
Y103800D02*
D03*
Y108800D02*
D03*
Y113800D02*
D03*
Y118800D02*
D03*
Y123800D02*
D03*
Y128800D02*
D03*
Y133800D02*
D03*
Y138800D02*
D03*
Y143800D02*
D03*
Y148800D02*
D03*
Y153800D02*
D03*
M02*
