G04*
G04 #@! TF.GenerationSoftware,Altium Limited,Altium Designer,21.6.1 (37)*
G04*
G04 Layer_Color=8388736*
%FSLAX44Y44*%
%MOMM*%
G71*
G04*
G04 #@! TF.SameCoordinates,8F6F6E54-FA08-45A3-ABEE-39426D4CC58C*
G04*
G04*
G04 #@! TF.FilePolarity,Negative*
G04*
G01*
G75*
%ADD56R,2.8500X2.7750*%
%ADD57R,0.8000X1.3100*%
%ADD58R,0.6000X0.6400*%
%ADD59R,0.6400X0.6000*%
%ADD60R,1.2399X1.8401*%
%ADD61R,0.6400X1.5899*%
%ADD62R,0.6400X0.5800*%
%ADD63R,0.3000X1.0100*%
%ADD64R,0.6700X0.8900*%
%ADD65R,0.8900X0.6700*%
%ADD66R,0.8900X0.5900*%
%ADD67R,1.0100X0.3000*%
%ADD68R,1.1200X0.3000*%
%ADD69R,1.0500X0.3000*%
%ADD70R,0.3000X1.1200*%
%ADD71R,0.3000X1.0400*%
%ADD72R,0.9900X0.3000*%
%ADD73R,1.0200X0.3000*%
%ADD74R,3.5400X3.5400*%
%ADD75R,0.3000X0.9900*%
%ADD76R,1.5400X2.1600*%
%ADD77R,2.0400X0.4400*%
%ADD78R,1.2400X1.8400*%
%ADD79R,0.6400X1.5900*%
%ADD80R,0.5900X0.8900*%
%ADD81R,0.5800X0.6400*%
%ADD82R,1.0400X2.7400*%
%ADD83R,0.6400X1.7400*%
%ADD84R,3.8400X1.8400*%
%ADD85R,2.7400X1.0400*%
%ADD86R,1.6000X2.3700*%
%ADD87R,0.5988X1.3608*%
%ADD88R,0.5650X0.3400*%
%ADD89R,1.6900X2.4900*%
%ADD90O,0.3245X1.8400*%
%ADD91O,1.8400X0.3245*%
%ADD92R,0.8400X0.8400*%
%ADD93R,1.0400X0.3245*%
%ADD94R,0.7400X0.3600*%
%ADD95C,3.0400*%
%ADD96O,1.8400X0.9400*%
%ADD97C,0.6400*%
%ADD98O,0.9400X1.5400*%
%ADD99C,0.8900*%
G36*
X206248Y245618D02*
Y234696D01*
X166370D01*
Y245872D01*
X206248Y245618D01*
D02*
G37*
G36*
X220218Y192278D02*
X209042Y192024D01*
Y232410D01*
X220218D01*
Y192278D01*
D02*
G37*
G36*
X163830Y191770D02*
X152908D01*
Y232156D01*
X163830D01*
Y191770D01*
D02*
G37*
G36*
X207010Y178308D02*
X166878D01*
Y189484D01*
X207010D01*
Y178308D01*
D02*
G37*
G36*
X215138Y142748D02*
X160274D01*
Y161036D01*
X215392D01*
X215138Y142748D01*
D02*
G37*
G36*
X237490Y84074D02*
X219202D01*
Y139192D01*
X237490D01*
Y84074D01*
D02*
G37*
G36*
X156464Y83566D02*
X138176D01*
Y138684D01*
X156464D01*
Y83566D01*
D02*
G37*
G36*
X64820Y166182D02*
X66106Y164896D01*
X66802Y163215D01*
Y162306D01*
Y160020D01*
X66890Y159128D01*
X67572Y157480D01*
X68834Y156219D01*
X70482Y155536D01*
X71374Y155448D01*
X70730Y155385D01*
X69539Y154892D01*
X68629Y153981D01*
X68500Y153670D01*
X72390D01*
X72644Y98552D01*
X67139D01*
X67056Y97282D01*
X67310D01*
Y93173D01*
X67386Y92892D01*
X67471Y92349D01*
X67500Y91800D01*
Y88800D01*
X67471Y88251D01*
X67386Y87709D01*
X67243Y87178D01*
X67046Y86665D01*
X66935Y86446D01*
X66890Y86222D01*
X66067Y84235D01*
X64872Y82446D01*
X63350Y80924D01*
X61561Y79729D01*
X59574Y78906D01*
X57464Y78486D01*
X48768D01*
Y98298D01*
X48744Y98546D01*
X48554Y99004D01*
X48204Y99354D01*
X47746Y99544D01*
X47498Y99568D01*
X47144D01*
X46491Y99839D01*
X45991Y100339D01*
X45720Y100992D01*
Y101346D01*
Y150368D01*
Y151126D01*
X46300Y152526D01*
X47372Y153598D01*
X48772Y154178D01*
X50800D01*
X51246Y154222D01*
X52070Y154563D01*
X52701Y155194D01*
X53042Y156018D01*
X53086Y156464D01*
Y163068D01*
Y163826D01*
X53666Y165226D01*
X54738Y166298D01*
X56138Y166878D01*
X63139D01*
X64820Y166182D01*
D02*
G37*
G36*
X215392Y61722D02*
X160274D01*
Y80010D01*
X215392D01*
Y61722D01*
D02*
G37*
G36*
X74930Y26924D02*
X63754D01*
Y40132D01*
X74930D01*
Y26924D01*
D02*
G37*
G36*
X58166D02*
X47498Y26924D01*
Y39878D01*
X58166D01*
Y26924D01*
D02*
G37*
D56*
X186500Y212375D02*
D03*
D57*
X334772Y183896D02*
D03*
X322072D02*
D03*
X334772Y107696D02*
D03*
X322072D02*
D03*
D58*
X123984Y139446D02*
D03*
X115284D02*
D03*
X309118Y74422D02*
D03*
X317818D02*
D03*
X317532Y63500D02*
D03*
X308832D02*
D03*
X309340Y51816D02*
D03*
X318040D02*
D03*
X89400Y70500D02*
D03*
X98100D02*
D03*
X89150Y82000D02*
D03*
X97850D02*
D03*
X271494Y139446D02*
D03*
X280194D02*
D03*
X271494Y149860D02*
D03*
X280194D02*
D03*
X275558Y159766D02*
D03*
X284258D02*
D03*
X35100Y61250D02*
D03*
X26400D02*
D03*
X86150Y49500D02*
D03*
X94850D02*
D03*
X86650Y38500D02*
D03*
X95350D02*
D03*
X86650Y28250D02*
D03*
X95350D02*
D03*
X257100Y120000D02*
D03*
X248400D02*
D03*
X135600Y202000D02*
D03*
X126900D02*
D03*
X163036Y261366D02*
D03*
X171736D02*
D03*
D59*
X128270Y116046D02*
D03*
Y124746D02*
D03*
X117856D02*
D03*
Y116046D02*
D03*
X195000Y54350D02*
D03*
Y45650D02*
D03*
X255270Y164370D02*
D03*
Y155670D02*
D03*
X245618Y164624D02*
D03*
Y155924D02*
D03*
X315000Y208700D02*
D03*
Y200000D02*
D03*
D60*
X217846Y-21984D02*
D03*
X101844D02*
D03*
D61*
X204846Y16764D02*
D03*
X194846D02*
D03*
X184846D02*
D03*
X174846D02*
D03*
X164846D02*
D03*
X154846D02*
D03*
X144846D02*
D03*
X134846D02*
D03*
X124846D02*
D03*
X114846D02*
D03*
D62*
X236728Y164594D02*
D03*
Y155954D02*
D03*
X215000Y54320D02*
D03*
Y45680D02*
D03*
X52250Y225820D02*
D03*
Y217180D02*
D03*
X52250Y197930D02*
D03*
Y206570D02*
D03*
X255750Y198180D02*
D03*
Y206820D02*
D03*
D63*
X166500Y240150D02*
D03*
X206500D02*
D03*
D64*
X291084Y149860D02*
D03*
Y135360D02*
D03*
D65*
X346848Y65210D02*
D03*
X332348D02*
D03*
D66*
X346848Y56710D02*
D03*
X332348D02*
D03*
D67*
X158350Y232000D02*
D03*
D68*
Y227000D02*
D03*
Y222000D02*
D03*
Y217000D02*
D03*
Y212000D02*
D03*
Y207000D02*
D03*
Y202000D02*
D03*
Y197000D02*
D03*
X214650D02*
D03*
Y202000D02*
D03*
Y207000D02*
D03*
Y212000D02*
D03*
Y217000D02*
D03*
Y222000D02*
D03*
Y227000D02*
D03*
D69*
X158350Y192000D02*
D03*
D70*
X171500Y183850D02*
D03*
X176500D02*
D03*
X181500D02*
D03*
X186500D02*
D03*
X191500D02*
D03*
X196500D02*
D03*
X201500D02*
D03*
Y240150D02*
D03*
X196500D02*
D03*
X191500D02*
D03*
X186500D02*
D03*
X181500D02*
D03*
X176500D02*
D03*
X171500D02*
D03*
D71*
X206500Y183850D02*
D03*
D72*
X214650Y192000D02*
D03*
D73*
Y232000D02*
D03*
D74*
X186500Y212000D02*
D03*
D75*
X166500Y183850D02*
D03*
D76*
X99060Y163390D02*
D03*
Y121090D02*
D03*
D77*
X130750Y212500D02*
D03*
Y224500D02*
D03*
Y236500D02*
D03*
X264250Y110000D02*
D03*
Y98000D02*
D03*
Y86000D02*
D03*
D78*
X308500Y-21500D02*
D03*
X232500D02*
D03*
D79*
X285500Y17250D02*
D03*
X275500D02*
D03*
X265500D02*
D03*
X255500D02*
D03*
X245500D02*
D03*
X295500D02*
D03*
D80*
X299584Y149860D02*
D03*
Y135360D02*
D03*
D81*
X132070Y155250D02*
D03*
X123430D02*
D03*
X295070Y181250D02*
D03*
X286430D02*
D03*
X129820Y83000D02*
D03*
X121180D02*
D03*
X247180Y59500D02*
D03*
X255820D02*
D03*
X248664Y133096D02*
D03*
X257304D02*
D03*
X226930Y232000D02*
D03*
X235570D02*
D03*
X135820Y190500D02*
D03*
X127180D02*
D03*
X135070Y246000D02*
D03*
X126430D02*
D03*
X227930Y186250D02*
D03*
X236570D02*
D03*
D82*
X236750Y267000D02*
D03*
X311250D02*
D03*
X403250Y-17250D02*
D03*
X328750D02*
D03*
X329500Y267250D02*
D03*
X404001D02*
D03*
D83*
X255250Y235000D02*
D03*
X267750D02*
D03*
X292750D02*
D03*
X280250D02*
D03*
X384750Y14750D02*
D03*
X372250D02*
D03*
X347250D02*
D03*
X359750D02*
D03*
X348000Y235250D02*
D03*
X360500D02*
D03*
X385500D02*
D03*
X373000D02*
D03*
D84*
X450000Y187750D02*
D03*
Y67750D02*
D03*
D85*
X403000Y165250D02*
D03*
Y150250D02*
D03*
Y135250D02*
D03*
Y120250D02*
D03*
Y105250D02*
D03*
Y90250D02*
D03*
D86*
X365760Y141034D02*
D03*
Y98234D02*
D03*
D87*
X64352Y222434D02*
D03*
X83148D02*
D03*
Y199066D02*
D03*
X73750D02*
D03*
X64352D02*
D03*
D88*
X297125Y206000D02*
D03*
Y199500D02*
D03*
Y212500D02*
D03*
Y193000D02*
D03*
X269875Y212500D02*
D03*
Y206000D02*
D03*
Y199500D02*
D03*
Y193000D02*
D03*
D89*
X283500Y202750D02*
D03*
D90*
X215250Y70750D02*
D03*
X210250D02*
D03*
X205250D02*
D03*
X200250D02*
D03*
X195250D02*
D03*
X190250D02*
D03*
X185250D02*
D03*
X180250D02*
D03*
X175250D02*
D03*
X170250D02*
D03*
X165250D02*
D03*
X160250D02*
D03*
Y151750D02*
D03*
X165250D02*
D03*
X170250D02*
D03*
X175250D02*
D03*
X180250D02*
D03*
X185250D02*
D03*
X190250D02*
D03*
X195250D02*
D03*
X200250D02*
D03*
X205250D02*
D03*
X210250D02*
D03*
X215250D02*
D03*
D91*
X147250Y83750D02*
D03*
Y88750D02*
D03*
Y93750D02*
D03*
Y98750D02*
D03*
Y103750D02*
D03*
Y108750D02*
D03*
Y113750D02*
D03*
Y118750D02*
D03*
Y123750D02*
D03*
Y128750D02*
D03*
Y133750D02*
D03*
Y138750D02*
D03*
X228250D02*
D03*
Y133750D02*
D03*
Y128750D02*
D03*
Y123750D02*
D03*
Y118750D02*
D03*
Y113750D02*
D03*
Y108750D02*
D03*
Y103750D02*
D03*
Y98750D02*
D03*
Y93750D02*
D03*
Y88750D02*
D03*
Y83750D02*
D03*
D92*
X-5000Y61000D02*
D03*
X10000D02*
D03*
D93*
X69000Y38500D02*
D03*
Y33500D02*
D03*
X69838Y28476D02*
D03*
X52566D02*
D03*
X53000Y33500D02*
D03*
Y38500D02*
D03*
D94*
X68850Y98800D02*
D03*
Y103800D02*
D03*
Y108800D02*
D03*
Y113800D02*
D03*
Y118800D02*
D03*
Y123800D02*
D03*
Y128800D02*
D03*
Y133800D02*
D03*
Y138800D02*
D03*
Y143800D02*
D03*
Y148800D02*
D03*
Y153800D02*
D03*
D95*
X0Y250000D02*
D03*
Y0D02*
D03*
D96*
X-9750Y83000D02*
D03*
Y169600D02*
D03*
X47250Y83000D02*
D03*
Y169600D02*
D03*
D97*
X48750Y102300D02*
D03*
Y110300D02*
D03*
Y118300D02*
D03*
Y150300D02*
D03*
Y142300D02*
D03*
Y134300D02*
D03*
X55750Y98300D02*
D03*
Y114300D02*
D03*
Y122300D02*
D03*
Y154300D02*
D03*
Y138300D02*
D03*
Y130300D02*
D03*
D98*
X52250Y166350D02*
D03*
Y86250D02*
D03*
D99*
X62250Y90300D02*
D03*
Y162300D02*
D03*
M02*
