G04*
G04 #@! TF.GenerationSoftware,Altium Limited,Altium Designer,21.6.1 (37)*
G04*
G04 Layer_Physical_Order=1*
G04 Layer_Color=255*
%FSLAX44Y44*%
%MOMM*%
G71*
G04*
G04 #@! TF.SameCoordinates,1157272D-073F-4DBA-9ECF-90C8E706E346*
G04*
G04*
G04 #@! TF.FilePolarity,Positive*
G04*
G01*
G75*
%ADD12C,0.2000*%
%ADD14C,0.6000*%
%ADD15C,0.2500*%
%ADD18C,0.1700*%
%ADD19R,2.0000X0.4000*%
%ADD20R,0.2600X1.0800*%
%ADD21R,1.0800X0.2600*%
%ADD22R,1.2000X1.8000*%
%ADD23R,0.6000X1.5500*%
%ADD24R,0.5600X0.6000*%
%ADD25R,0.6500X0.8500*%
%ADD26R,0.5500X0.8500*%
%ADD27R,0.5400X0.6000*%
%ADD28R,1.0000X2.7000*%
%ADD29R,0.6000X1.7000*%
%ADD30R,0.6000X0.5600*%
%ADD31R,0.6000X0.5400*%
%ADD32R,1.5000X2.1200*%
%ADD33R,3.8000X1.8000*%
%ADD34R,2.7000X1.0000*%
%ADD35R,2.3300X1.5600*%
%ADD36R,0.5588X1.3208*%
%ADD37R,0.8000X0.8000*%
%ADD38R,0.9000X0.7000*%
%ADD39R,0.5250X0.3000*%
%ADD40O,0.2845X1.8000*%
%ADD41O,1.8000X0.2845*%
%ADD42R,1.0000X0.2845*%
%ADD43R,0.7000X0.3200*%
%ADD76R,1.6500X2.4500*%
%ADD77C,0.3000*%
%ADD78C,0.5000*%
%ADD79C,1.0000*%
%ADD80C,0.9000*%
%ADD81C,3.0000*%
%ADD82O,1.8000X0.9000*%
%ADD83C,0.6000*%
%ADD84O,0.9000X1.5000*%
%ADD85C,0.8500*%
%ADD86C,0.7000*%
G36*
X482201Y262444D02*
Y-13194D01*
X463444Y-31951D01*
X-12944D01*
X-31451Y-13444D01*
X-31451Y263694D01*
X-13444Y281701D01*
X462944D01*
X482201Y262444D01*
D02*
G37*
%LPC*%
G36*
X208050Y273800D02*
X74200D01*
X73205Y273602D01*
X72361Y273038D01*
X59645Y260322D01*
X58733Y260700D01*
X56267D01*
X53988Y259756D01*
X52244Y258012D01*
X51937Y257272D01*
X50563D01*
X50256Y258012D01*
X48512Y259756D01*
X46233Y260700D01*
X43767D01*
X41488Y259756D01*
X39744Y258012D01*
X38800Y255733D01*
Y253267D01*
X39744Y250988D01*
X40208Y250524D01*
Y232250D01*
X40208Y232250D01*
X40573Y230416D01*
X41611Y228862D01*
X43210Y227263D01*
X33212Y217265D01*
X32173Y215711D01*
X31808Y213877D01*
X31808Y213877D01*
Y200450D01*
X23400D01*
Y199263D01*
X18200D01*
Y201950D01*
X6800D01*
Y190550D01*
X18200D01*
Y192737D01*
X23400D01*
Y191050D01*
X36137D01*
X36600Y190958D01*
X37063Y191050D01*
X41100D01*
Y194282D01*
X41392Y195750D01*
Y211892D01*
X50814Y221314D01*
X52250Y221028D01*
X54084Y221393D01*
X54125Y221420D01*
X56950D01*
Y221958D01*
X59858D01*
Y214130D01*
X68846D01*
Y230738D01*
X66492D01*
X66041Y231038D01*
X65623Y232416D01*
X73715Y240508D01*
X92411D01*
Y200297D01*
X92411Y200297D01*
X92776Y198463D01*
X93815Y196908D01*
X112787Y177936D01*
X112842Y177804D01*
X114304Y176342D01*
X116216Y175550D01*
X118284D01*
X118666Y175708D01*
X129317D01*
Y159950D01*
X127670D01*
Y150550D01*
X136470D01*
Y152497D01*
X157066D01*
Y144172D01*
X157309Y142954D01*
X157999Y141921D01*
X159032Y141231D01*
X160250Y140989D01*
X161468Y141231D01*
X162501Y141921D01*
X163191Y142954D01*
X163434Y144172D01*
Y159328D01*
X163191Y160546D01*
X162501Y161579D01*
X161468Y162269D01*
X160250Y162511D01*
X159032Y162269D01*
X157999Y161579D01*
X157309Y160546D01*
X157066Y159328D01*
Y158003D01*
X136470D01*
Y159950D01*
X134823D01*
Y176576D01*
X135624Y177111D01*
X139138Y180626D01*
X139138Y180626D01*
X140177Y182181D01*
X140542Y184015D01*
X140542Y184015D01*
Y185808D01*
X141812Y186334D01*
X142554Y185592D01*
X144466Y184800D01*
X146534D01*
X148446Y185592D01*
X149908Y187054D01*
X150347Y188114D01*
X151250Y189000D01*
X163500D01*
Y176750D01*
X169256D01*
X169257Y176745D01*
X169854Y175852D01*
X183100Y162605D01*
X182999Y161579D01*
X182309Y160546D01*
X182067Y159328D01*
Y144172D01*
X182309Y142954D01*
X182999Y141921D01*
X184032Y141231D01*
X185250Y140989D01*
X186227Y141183D01*
X187497Y140507D01*
Y125075D01*
X186227Y124823D01*
X185658Y126196D01*
X184196Y127658D01*
X182284Y128450D01*
X180414D01*
X172807Y136057D01*
X171749Y136764D01*
X170500Y137013D01*
X158834D01*
X157919Y138283D01*
X158011Y138750D01*
X157769Y139968D01*
X157079Y141001D01*
X156046Y141691D01*
X154828Y141933D01*
X139673D01*
X138454Y141691D01*
X138173Y141503D01*
X127982D01*
X127981Y141503D01*
X126928Y141293D01*
X126035Y140696D01*
X126035Y140696D01*
X122403Y137065D01*
X121807Y136172D01*
X121713Y135700D01*
X116650D01*
Y126300D01*
X119748D01*
X120514Y125030D01*
X120351Y124720D01*
X120314Y124700D01*
X116400D01*
Y115300D01*
X126628D01*
X128160Y114665D01*
X130228D01*
X131760Y115300D01*
X134100D01*
Y118122D01*
X134394Y118831D01*
Y120900D01*
X134100Y121609D01*
Y124700D01*
X131797D01*
X131012Y125918D01*
X131218Y126300D01*
X134350D01*
Y126611D01*
X135620Y127137D01*
X135792Y126965D01*
X136685Y126368D01*
X136788Y125053D01*
X136732Y124968D01*
X136489Y123750D01*
X136732Y122532D01*
X136946Y122211D01*
X137324Y121250D01*
X136946Y120289D01*
X136732Y119968D01*
X136489Y118750D01*
X136732Y117531D01*
X137422Y116499D01*
Y116001D01*
X136732Y114968D01*
X136489Y113750D01*
X136732Y112532D01*
X136904Y112273D01*
X136226Y111003D01*
X134350D01*
Y112950D01*
X122388D01*
X121784Y113200D01*
X119716D01*
X119112Y112950D01*
X116650D01*
Y111254D01*
X116342Y110946D01*
X115550Y109034D01*
Y106966D01*
X116342Y105055D01*
X116650Y104746D01*
Y103550D01*
X117905D01*
X119176Y103024D01*
X119284Y102534D01*
X119209Y101635D01*
X118553Y101197D01*
X118553Y101196D01*
X104300Y86943D01*
X103703Y86050D01*
X103494Y84997D01*
Y50737D01*
X100523Y47766D01*
X99350Y48253D01*
Y54200D01*
X99350Y54200D01*
X99350D01*
X99710Y55356D01*
X99908Y55554D01*
X100700Y57466D01*
Y59534D01*
X99908Y61446D01*
X98446Y62908D01*
X96534Y63700D01*
X94466D01*
X92555Y62908D01*
X91092Y61446D01*
X90300Y59534D01*
Y57466D01*
X91092Y55554D01*
X91176Y55470D01*
X90650Y54200D01*
X81650D01*
Y44800D01*
X83137D01*
Y43505D01*
X74165D01*
X73840Y43440D01*
X73215Y44611D01*
X73408Y44804D01*
X74200Y46716D01*
Y48784D01*
X73408Y50696D01*
X71946Y52158D01*
X70034Y52950D01*
X67966D01*
X67773Y52870D01*
X56947Y63697D01*
X56593Y63933D01*
X56304Y65440D01*
X95164Y104300D01*
X108950D01*
Y128900D01*
X95164D01*
X84282Y139782D01*
Y156500D01*
X83956Y158139D01*
X83028Y159528D01*
X56532Y186024D01*
Y193530D01*
X56950D01*
Y193648D01*
X59083D01*
X59294Y192589D01*
X59858Y191745D01*
Y190762D01*
X60660D01*
X66188Y185234D01*
X67578Y184305D01*
X69216Y183979D01*
X78284D01*
X79922Y184305D01*
X81312Y185234D01*
X83772Y187694D01*
X84700Y189083D01*
X85026Y190722D01*
Y190762D01*
X87642D01*
Y207370D01*
X78654D01*
Y196818D01*
X77716Y195880D01*
X76788Y194490D01*
X76462Y192852D01*
Y192544D01*
X70990D01*
X68846Y194688D01*
Y207370D01*
X59858D01*
Y202212D01*
X56950D01*
Y202330D01*
X47550D01*
Y193530D01*
X47968D01*
Y184250D01*
X48294Y182611D01*
X49222Y181222D01*
X61021Y169423D01*
X60594Y168054D01*
X58879Y167344D01*
X57206Y165670D01*
X56300Y163483D01*
Y161116D01*
X57206Y158929D01*
X58879Y157256D01*
X61066Y156350D01*
X63433D01*
X65620Y157256D01*
X67294Y158929D01*
X68004Y160644D01*
X69373Y161071D01*
X75718Y154726D01*
Y142062D01*
X74050D01*
Y152100D01*
X63650D01*
Y141962D01*
X58734D01*
X58412Y142284D01*
X56685Y143000D01*
X54815D01*
X54624Y142921D01*
X53247Y143725D01*
X52735Y144962D01*
X52227Y145470D01*
X51428Y146300D01*
X52227Y147129D01*
X52735Y147638D01*
X53450Y149365D01*
Y151235D01*
X52735Y152962D01*
X51413Y154284D01*
X49685Y155000D01*
X47815D01*
X46088Y154284D01*
X44766Y152962D01*
X44050Y151235D01*
Y149365D01*
X44766Y147638D01*
X45274Y147129D01*
X46073Y146300D01*
X45274Y145470D01*
X44766Y144962D01*
X44050Y143235D01*
Y141365D01*
X44766Y139637D01*
X45274Y139129D01*
X46073Y138300D01*
X45274Y137470D01*
X44766Y136962D01*
X44050Y135235D01*
Y133365D01*
X44766Y131638D01*
X46088Y130315D01*
X47815Y129600D01*
X49685D01*
X49877Y129679D01*
X51253Y128875D01*
X51766Y127638D01*
X52274Y127130D01*
X53073Y126300D01*
X52274Y125470D01*
X51766Y124962D01*
X51253Y123725D01*
X49877Y122921D01*
X49685Y123000D01*
X47815D01*
X46088Y122284D01*
X44766Y120962D01*
X44050Y119235D01*
Y117365D01*
X44766Y115638D01*
X45274Y115130D01*
X46073Y114300D01*
X45274Y113470D01*
X44766Y112962D01*
X44050Y111235D01*
Y109365D01*
X44766Y107638D01*
X45274Y107130D01*
X46073Y106300D01*
X45274Y105470D01*
X44766Y104962D01*
X44050Y103235D01*
Y101365D01*
X44766Y99638D01*
X46088Y98315D01*
X47815Y97600D01*
X49685D01*
X51413Y98315D01*
X52735Y99638D01*
X53450Y101365D01*
Y103235D01*
X52735Y104962D01*
X52227Y105470D01*
X51428Y106300D01*
X52227Y107130D01*
X52735Y107638D01*
X53247Y108875D01*
X54624Y109679D01*
X54815Y109600D01*
X56685D01*
X58412Y110316D01*
X59134Y111037D01*
X62224D01*
X62302Y110985D01*
X63550Y110737D01*
X63650D01*
Y100500D01*
X74050D01*
Y110537D01*
X90550D01*
Y108914D01*
X68742Y87106D01*
X67665Y87825D01*
X68200Y89116D01*
Y91483D01*
X67294Y93670D01*
X65620Y95344D01*
X63433Y96250D01*
X61066D01*
X58879Y95344D01*
X57206Y93670D01*
X56300Y91483D01*
Y89116D01*
X57206Y86930D01*
X58879Y85256D01*
X61066Y84350D01*
X63433D01*
X64725Y84885D01*
X65444Y83808D01*
X46139Y64503D01*
X45299D01*
X45250Y64513D01*
X39600D01*
Y65950D01*
X21900D01*
Y64388D01*
X15700D01*
Y66700D01*
X4300D01*
Y55300D01*
X15700D01*
Y57862D01*
X21900D01*
Y56550D01*
X39600D01*
Y57987D01*
X45250D01*
X46499Y58236D01*
X47133Y58660D01*
X48000Y58487D01*
X49249Y58736D01*
X49640Y58997D01*
X53860D01*
X63880Y48977D01*
X63800Y48784D01*
Y46716D01*
X64592Y44804D01*
X66054Y43342D01*
X67140Y42892D01*
X66887Y41622D01*
X62300D01*
Y30378D01*
X63138D01*
Y25353D01*
X69995D01*
X70261Y25301D01*
X74176D01*
X74926Y24799D01*
X75980Y24590D01*
X82150D01*
Y23550D01*
X94716D01*
X95202Y22377D01*
X88689Y15863D01*
X86361D01*
X86360Y15863D01*
X85307Y15654D01*
X84414Y15057D01*
X75992Y6636D01*
X75233Y6950D01*
X72767D01*
X70488Y6006D01*
X68744Y4262D01*
X68437Y3522D01*
X67063D01*
X66756Y4262D01*
X65012Y6006D01*
X62733Y6950D01*
X60267D01*
X57988Y6006D01*
X56244Y4262D01*
X55300Y1983D01*
Y-483D01*
X56244Y-2762D01*
X57988Y-4506D01*
X60267Y-5450D01*
X62733D01*
X65012Y-4506D01*
X66756Y-2762D01*
X67063Y-2022D01*
X68437D01*
X68744Y-2762D01*
X70488Y-4506D01*
X72767Y-5450D01*
X75233D01*
X77512Y-4506D01*
X79256Y-2762D01*
X79563Y-2022D01*
X80937D01*
X81244Y-2762D01*
X82988Y-4506D01*
X85267Y-5450D01*
X87733D01*
X90012Y-4506D01*
X91756Y-2762D01*
X92700Y-483D01*
Y1983D01*
X91756Y4262D01*
X90012Y6006D01*
X87733Y6950D01*
X85889D01*
X85363Y8220D01*
X87501Y10358D01*
X89829D01*
X90882Y10567D01*
X91776Y11164D01*
X98030Y17419D01*
X99300Y16892D01*
Y16216D01*
X100092Y14304D01*
X101554Y12842D01*
X103466Y12050D01*
X105534D01*
X107446Y12842D01*
X108908Y14304D01*
X109700Y16216D01*
Y18284D01*
X109620Y18477D01*
X152563Y61419D01*
X157666D01*
X157999Y60921D01*
X159032Y60231D01*
X160250Y59989D01*
X161468Y60231D01*
X161789Y60446D01*
X162750Y60823D01*
X163711Y60446D01*
X164032Y60231D01*
X165250Y59989D01*
X166469Y60231D01*
X167501Y60921D01*
X167999D01*
X169032Y60231D01*
X170250Y59989D01*
X171468Y60231D01*
X172501Y60921D01*
X172999D01*
X174032Y60231D01*
X175250Y59989D01*
X176469Y60231D01*
X177501Y60921D01*
X177999D01*
X179032Y60231D01*
X180250Y59989D01*
X181468Y60231D01*
X181789Y60446D01*
X182750Y60823D01*
X183711Y60446D01*
X184032Y60231D01*
X185250Y59989D01*
X186469Y60231D01*
X187501Y60921D01*
X187999D01*
X189032Y60231D01*
X190250Y59989D01*
X190640Y60066D01*
X191910Y59115D01*
Y57600D01*
X190300D01*
Y48600D01*
X199700D01*
Y57600D01*
X198435D01*
Y59218D01*
X199705Y60097D01*
X200250Y59989D01*
X201468Y60231D01*
X201789Y60446D01*
X202750Y60823D01*
X203711Y60446D01*
X204032Y60231D01*
X205250Y59989D01*
X206468Y60231D01*
X207501Y60921D01*
X208191Y61954D01*
X208434Y63172D01*
Y78327D01*
X208191Y79546D01*
X207501Y80579D01*
X206468Y81269D01*
X205250Y81511D01*
X204032Y81269D01*
X202999Y80579D01*
X202501D01*
X201468Y81269D01*
X200250Y81511D01*
X199032Y81269D01*
X197999Y80579D01*
X197501D01*
X196469Y81269D01*
X195250Y81511D01*
X194032Y81269D01*
X192999Y80579D01*
X192501D01*
X191468Y81269D01*
X190250Y81511D01*
X189032Y81269D01*
X187999Y80579D01*
X187501D01*
X186469Y81269D01*
X185250Y81511D01*
X184032Y81269D01*
X183711Y81054D01*
X182750Y80676D01*
X181789Y81054D01*
X181468Y81269D01*
X180250Y81511D01*
X179032Y81269D01*
X177999Y80579D01*
X177501D01*
X176469Y81269D01*
X175250Y81511D01*
X174032Y81269D01*
X172999Y80579D01*
X172501D01*
X171468Y81269D01*
X170250Y81511D01*
X169032Y81269D01*
X167999Y80579D01*
X167501D01*
X166469Y81269D01*
X165250Y81511D01*
X164032Y81269D01*
X163711Y81054D01*
X162750Y80676D01*
X161789Y81054D01*
X161468Y81269D01*
X160250Y81511D01*
X159032Y81269D01*
X157999Y80579D01*
X157309Y79546D01*
X157066Y78327D01*
Y66925D01*
X151422D01*
X151422Y66925D01*
X150369Y66716D01*
X149476Y66119D01*
X106031Y22674D01*
X105198Y22809D01*
X104722Y24111D01*
X120593Y39982D01*
X120593Y39982D01*
X121190Y40875D01*
X121400Y41928D01*
Y76015D01*
X121190Y77068D01*
X120593Y77962D01*
X120593Y77962D01*
X117753Y80802D01*
Y85198D01*
X123552Y90997D01*
X138173D01*
X138454Y90809D01*
X139673Y90567D01*
X154828D01*
X156046Y90809D01*
X157079Y91499D01*
X157769Y92532D01*
X158011Y93750D01*
X157769Y94968D01*
X157079Y96001D01*
Y96499D01*
X157654Y97360D01*
X158378Y97448D01*
X159030Y97358D01*
X159342Y96604D01*
X160804Y95142D01*
X162716Y94350D01*
X164784D01*
X166696Y95142D01*
X168158Y96604D01*
X168950Y98516D01*
Y100584D01*
X168158Y102496D01*
X166696Y103958D01*
X164784Y104750D01*
X162716D01*
X161734Y104344D01*
X160543Y105535D01*
X159650Y106132D01*
X158596Y106341D01*
X158501D01*
X157786Y107504D01*
X157785Y107611D01*
X158011Y108750D01*
X158007Y108773D01*
X158966Y110032D01*
X159578Y110068D01*
X160554Y109092D01*
X162466Y108300D01*
X164534D01*
X166446Y109092D01*
X167908Y110554D01*
X168700Y112466D01*
Y114534D01*
X167908Y116446D01*
X166446Y117908D01*
X164534Y118700D01*
X162466D01*
X160554Y117908D01*
X159609Y116963D01*
X158781Y117016D01*
X157909Y118237D01*
X158011Y118750D01*
X157769Y119968D01*
X157555Y120289D01*
X157177Y121250D01*
X157555Y122211D01*
X157769Y122532D01*
X158011Y123750D01*
X157769Y124968D01*
X157079Y126001D01*
Y126499D01*
X157769Y127531D01*
X158011Y128750D01*
X157918Y129217D01*
X158833Y130487D01*
X169149D01*
X176050Y123586D01*
Y122216D01*
X176842Y120304D01*
X178304Y118842D01*
X180216Y118050D01*
X182284D01*
X184196Y118842D01*
X185658Y120304D01*
X186227Y121677D01*
X187497Y121425D01*
Y106085D01*
X187707Y105032D01*
X188303Y104139D01*
X201932Y90510D01*
X202825Y89913D01*
X203878Y89704D01*
X203878Y89704D01*
X204487D01*
X204818Y88904D01*
X206280Y87442D01*
X208192Y86650D01*
X210260D01*
X212172Y87442D01*
X213634Y88904D01*
X214426Y90816D01*
Y92884D01*
X213634Y94796D01*
X212172Y96258D01*
X210260Y97050D01*
X208192D01*
X206280Y96258D01*
X205232Y95210D01*
X205019D01*
X193003Y107226D01*
Y140508D01*
X194273Y141183D01*
X195250Y140989D01*
X196469Y141231D01*
X197501Y141921D01*
X197999D01*
X199032Y141231D01*
X200250Y140989D01*
X201227Y141183D01*
X202497Y140508D01*
Y126377D01*
X202707Y125323D01*
X203304Y124430D01*
X203747Y123987D01*
Y109738D01*
X203554Y109658D01*
X202092Y108196D01*
X201300Y106284D01*
Y104216D01*
X202092Y102304D01*
X203554Y100842D01*
X205466Y100050D01*
X207534D01*
X209446Y100842D01*
X210908Y102304D01*
X211700Y104216D01*
Y106284D01*
X210908Y108196D01*
X209446Y109658D01*
X209253Y109738D01*
Y118984D01*
X210426Y119470D01*
X210554Y119342D01*
X212466Y118550D01*
X214534D01*
X216446Y119342D01*
X217908Y120804D01*
X217988Y120997D01*
X219173D01*
X219454Y120809D01*
X220673Y120567D01*
X235828D01*
X237046Y120809D01*
X238079Y121499D01*
X238769Y122532D01*
X239011Y123750D01*
X238785Y124888D01*
X238786Y125005D01*
X239075Y125626D01*
X239480Y126190D01*
X240376Y126368D01*
X241270Y126965D01*
X242857Y128552D01*
X244030Y128066D01*
Y124700D01*
X243900D01*
Y123897D01*
X243500Y122753D01*
X242446Y122543D01*
X241553Y121947D01*
X241553Y121946D01*
X236422Y116815D01*
X235828Y116934D01*
X220673D01*
X219454Y116691D01*
X218422Y116001D01*
X217732Y114968D01*
X217489Y113750D01*
X217732Y112532D01*
X217946Y112211D01*
X218324Y111250D01*
X217946Y110289D01*
X217732Y109968D01*
X217489Y108750D01*
X217732Y107531D01*
X218422Y106499D01*
Y106001D01*
X217732Y104968D01*
X217489Y103750D01*
X217732Y102532D01*
X217946Y102211D01*
X218324Y101250D01*
X217946Y100289D01*
X217732Y99968D01*
X217489Y98750D01*
X217732Y97532D01*
X218422Y96499D01*
Y96001D01*
X217732Y94968D01*
X217489Y93750D01*
X217732Y92532D01*
X217946Y92211D01*
X218324Y91250D01*
X217946Y90289D01*
X217732Y89968D01*
X217489Y88750D01*
X217732Y87532D01*
X218422Y86499D01*
Y86001D01*
X217732Y84968D01*
X217489Y83750D01*
X217732Y82532D01*
X218422Y81499D01*
X219454Y80809D01*
X220673Y80567D01*
X226997D01*
Y74500D01*
X227207Y73446D01*
X227803Y72553D01*
X230181Y70176D01*
X229694Y69003D01*
X228730D01*
X228730Y69003D01*
X227677Y68793D01*
X226783Y68197D01*
X219900Y61314D01*
X218369Y61579D01*
X218191Y61954D01*
X218434Y63172D01*
Y78327D01*
X218191Y79546D01*
X217501Y80579D01*
X216468Y81269D01*
X215250Y81511D01*
X214032Y81269D01*
X212999Y80579D01*
X212309Y79546D01*
X212067Y78327D01*
Y63172D01*
X212309Y61954D01*
X212497Y61672D01*
Y57720D01*
X210800D01*
Y48920D01*
X220200D01*
Y53827D01*
X221127Y54753D01*
X222300Y54268D01*
Y48600D01*
X231700D01*
Y48600D01*
X232970Y49023D01*
X234716Y48300D01*
X236784D01*
X238696Y49092D01*
X240158Y50554D01*
X240950Y52466D01*
Y54534D01*
X240158Y56446D01*
X238696Y57908D01*
X236784Y58700D01*
X234716D01*
X232900Y57948D01*
X231700Y57600D01*
X231700Y57600D01*
X231700Y57600D01*
X225632D01*
X225147Y58773D01*
X229870Y63497D01*
X238000D01*
X238000Y63497D01*
X238000Y63497D01*
X242497D01*
Y44665D01*
X242335Y43852D01*
Y38716D01*
X242497Y37903D01*
Y26700D01*
X240800D01*
Y24095D01*
X240050Y22284D01*
Y20216D01*
X240800Y18405D01*
Y7800D01*
X249530D01*
X250200Y7800D01*
X251470Y7800D01*
X259530D01*
X260200Y7800D01*
X261470Y7800D01*
X269530D01*
X270200Y7800D01*
X271470Y7800D01*
X272954D01*
X273193Y7443D01*
X279893Y743D01*
X280951Y36D01*
X282200Y-213D01*
X353550D01*
X354799Y36D01*
X355857Y743D01*
X359664Y4550D01*
X364450D01*
Y22497D01*
X365624Y22984D01*
X367550Y21057D01*
Y4550D01*
X376950D01*
Y24950D01*
X375003D01*
Y27360D01*
X416523Y68880D01*
X416716Y68800D01*
X418784D01*
X420696Y69592D01*
X422158Y71054D01*
X422950Y72966D01*
Y75034D01*
X422158Y76946D01*
X420696Y78408D01*
X418784Y79200D01*
X416716D01*
X414804Y78408D01*
X413342Y76946D01*
X412550Y75034D01*
Y72966D01*
X412630Y72773D01*
X370307Y30450D01*
X370292Y30450D01*
X369037Y30837D01*
Y33234D01*
X369037Y33234D01*
X368827Y34288D01*
X368231Y35181D01*
X341215Y62197D01*
X340322Y62793D01*
X339268Y63003D01*
X285843D01*
X285447Y63597D01*
X282850Y66193D01*
Y71700D01*
X282600D01*
Y75836D01*
X289251Y82487D01*
X364159D01*
X365304Y81342D01*
X367216Y80550D01*
X369284D01*
X371195Y81342D01*
X372658Y82804D01*
X373450Y84716D01*
Y86784D01*
X372658Y88696D01*
X371195Y90158D01*
X369284Y90950D01*
X367216D01*
X365304Y90158D01*
X364159Y89013D01*
X287900D01*
X286651Y88764D01*
X285593Y88057D01*
X277986Y80450D01*
X272345D01*
X270945Y81030D01*
X271197Y82300D01*
X275950D01*
Y89700D01*
X256443D01*
X240947Y105197D01*
X240527Y105477D01*
X240912Y106747D01*
X252550D01*
Y106300D01*
X275950D01*
Y113700D01*
X277201Y113747D01*
X277447D01*
X278302Y112892D01*
X280214Y112100D01*
X282282D01*
X284194Y112892D01*
X285049Y113747D01*
X303319D01*
X304372Y113957D01*
X305265Y114553D01*
X313897Y123185D01*
X313897Y123185D01*
X314494Y124078D01*
X314703Y125132D01*
X314703Y125132D01*
Y135868D01*
X314703Y135868D01*
X314494Y136922D01*
X313897Y137815D01*
X313897Y137815D01*
X311253Y140459D01*
Y144500D01*
X311043Y145554D01*
X310950Y145693D01*
Y150950D01*
X309253D01*
Y157160D01*
X309044Y158214D01*
X308447Y159107D01*
X297823Y169730D01*
Y176550D01*
X299470D01*
Y185950D01*
X298851D01*
Y189800D01*
X301450D01*
X301450Y196200D01*
X302599Y196492D01*
X305005D01*
X305300Y196196D01*
Y190050D01*
X317700D01*
Y192242D01*
X319404D01*
X320804Y190842D01*
X322716Y190050D01*
X324784D01*
X326696Y190842D01*
X328158Y192304D01*
X328950Y194216D01*
Y196284D01*
X328619Y197083D01*
X330230Y198694D01*
X330416Y198685D01*
X331500Y198287D01*
Y186000D01*
X338092D01*
Y131400D01*
X338322Y129651D01*
X338997Y128021D01*
X340071Y126622D01*
X372971Y93722D01*
X374371Y92648D01*
X376001Y91973D01*
X377750Y91742D01*
X387800D01*
Y83550D01*
X418200D01*
Y96950D01*
X417788D01*
X416969Y98220D01*
X417118Y98550D01*
X418200D01*
Y111950D01*
X387800D01*
Y105258D01*
X380549D01*
X351608Y134199D01*
Y186000D01*
X358200D01*
Y205000D01*
X332424D01*
X331500Y205000D01*
X331154Y206127D01*
Y206673D01*
X331974Y207493D01*
X362254D01*
X362742Y207004D01*
Y164000D01*
X362971Y162849D01*
X363623Y161873D01*
X387800Y137697D01*
Y128550D01*
X412747D01*
X413407Y127280D01*
X413175Y126950D01*
X387800D01*
Y113550D01*
X418200D01*
Y122696D01*
X421577Y126073D01*
X422229Y127049D01*
X422458Y128200D01*
Y171472D01*
X422229Y172623D01*
X421577Y173599D01*
X413299Y181877D01*
X412323Y182529D01*
X411172Y182758D01*
X380523D01*
X378455Y184826D01*
X378941Y186000D01*
X401000D01*
Y205000D01*
X389782D01*
Y225050D01*
X390200D01*
Y237405D01*
X390950Y239216D01*
Y241284D01*
X390200Y243095D01*
Y245450D01*
X380800D01*
Y241888D01*
X380550Y241284D01*
Y239216D01*
X380800Y238612D01*
Y225050D01*
X381218D01*
Y205000D01*
X376008D01*
Y225050D01*
X377700D01*
Y245450D01*
X368300D01*
Y229304D01*
X366374Y227377D01*
X365200Y227863D01*
Y228406D01*
X365950Y230216D01*
Y232284D01*
X365200Y234094D01*
Y245450D01*
X355800D01*
Y232889D01*
X355550Y232284D01*
Y230216D01*
X355800Y229611D01*
Y225050D01*
X362387D01*
X362873Y223877D01*
X361129Y222133D01*
X333413D01*
X333413Y222133D01*
X332262Y221904D01*
X331286Y221252D01*
X323292Y213258D01*
X317700D01*
Y215450D01*
X317519D01*
Y224483D01*
X317519Y224483D01*
X317290Y225634D01*
X316638Y226610D01*
X316638Y226610D01*
X312860Y230388D01*
X311884Y231040D01*
X310733Y231269D01*
X305390D01*
X305389Y231269D01*
X304238Y231040D01*
X303263Y230388D01*
X303263Y230388D01*
X299484Y226610D01*
X298918Y225762D01*
X298832Y225634D01*
X298720Y225555D01*
X297868Y225861D01*
X297450Y226214D01*
Y235655D01*
X298200Y237466D01*
Y239534D01*
X297450Y241345D01*
Y245200D01*
X288050D01*
Y240138D01*
X287800Y239534D01*
Y237466D01*
X288050Y236862D01*
Y227613D01*
X286877Y227127D01*
X284950Y229054D01*
Y245200D01*
X275550D01*
Y224800D01*
X280696D01*
X287498Y217998D01*
X288474Y217346D01*
X289625Y217117D01*
X300147D01*
X301298Y217346D01*
X302274Y217998D01*
X303738Y219463D01*
X304390Y220439D01*
X304619Y221590D01*
Y223237D01*
X306635Y225253D01*
X309487D01*
X311503Y223237D01*
Y215450D01*
X305300D01*
Y209304D01*
X305005Y209008D01*
X301450D01*
Y209200D01*
X292800D01*
Y202800D01*
X292800D01*
Y202700D01*
X292800D01*
X292800Y196300D01*
X292800Y195030D01*
Y189800D01*
X293345D01*
Y185950D01*
X290670D01*
Y179865D01*
X289108Y178303D01*
X279291D01*
X278537Y178453D01*
X268115D01*
X265172Y181396D01*
X264279Y181993D01*
X263225Y182203D01*
X232330D01*
Y190319D01*
X234196Y191092D01*
X235658Y192554D01*
X236450Y194466D01*
Y196534D01*
X235658Y198446D01*
X234196Y199908D01*
X234085Y199954D01*
X233856Y201107D01*
X234325Y202240D01*
X235821Y202540D01*
X236722Y201639D01*
Y201290D01*
X236971Y200041D01*
X237678Y198983D01*
X246688Y189973D01*
X247746Y189266D01*
X248995Y189017D01*
X260075D01*
X261324Y189266D01*
X262030Y189737D01*
X269875D01*
X270190Y189800D01*
X274200D01*
Y196200D01*
X274200D01*
Y196300D01*
X274200D01*
Y202700D01*
X270190D01*
X269875Y202763D01*
X257370D01*
X256452Y202580D01*
X256328D01*
X256139Y202706D01*
X254500Y203032D01*
X253954D01*
X251949Y205038D01*
X251158Y206946D01*
X249696Y208408D01*
X247784Y209200D01*
X245716D01*
X243804Y208408D01*
X242342Y206946D01*
X242282Y206801D01*
X241036Y206553D01*
X234741Y212848D01*
X235017Y214368D01*
X235503Y214693D01*
X239051Y218241D01*
X249940D01*
X257988Y210193D01*
X259047Y209486D01*
X260295Y209237D01*
X269875D01*
X270190Y209300D01*
X274200D01*
Y215700D01*
X270190D01*
X269875Y215763D01*
X261647D01*
X253599Y223811D01*
X252540Y224518D01*
X251292Y224766D01*
X242979D01*
X242493Y225940D01*
X244588Y228035D01*
X245152Y228879D01*
X245350Y229874D01*
Y236500D01*
X245152Y237495D01*
X244588Y238339D01*
X209888Y273038D01*
X209045Y273602D01*
X208880Y273635D01*
X208050Y273800D01*
D02*
G37*
G36*
X1645Y266700D02*
X-1645D01*
X-4871Y266058D01*
X-7910Y264799D01*
X-10646Y262972D01*
X-12972Y260646D01*
X-14799Y257910D01*
X-16058Y254871D01*
X-16700Y251645D01*
Y248355D01*
X-16058Y245129D01*
X-14799Y242090D01*
X-12972Y239354D01*
X-10646Y237028D01*
X-7910Y235201D01*
X-4871Y233942D01*
X-1645Y233300D01*
X1645D01*
X4871Y233942D01*
X7910Y235201D01*
X10646Y237028D01*
X12972Y239354D01*
X14799Y242090D01*
X16058Y245129D01*
X16700Y248355D01*
Y251645D01*
X16058Y254871D01*
X14799Y257910D01*
X12972Y260646D01*
X10646Y262972D01*
X7910Y264799D01*
X4871Y266058D01*
X1645Y266700D01*
D02*
G37*
G36*
X272450Y245200D02*
X263050D01*
Y233845D01*
X262300Y232034D01*
Y229966D01*
X263050Y228155D01*
Y224800D01*
X272450D01*
Y229362D01*
X272700Y229966D01*
Y232034D01*
X272450Y232638D01*
Y245200D01*
D02*
G37*
G36*
X87642Y230738D02*
X78654D01*
Y214130D01*
X87642D01*
Y230738D01*
D02*
G37*
G36*
X175250Y162511D02*
X174032Y162269D01*
X173711Y162054D01*
X172750Y161677D01*
X171789Y162054D01*
X171468Y162269D01*
X170250Y162511D01*
X169032Y162269D01*
X167999Y161579D01*
X167309Y160546D01*
X167066Y159328D01*
Y144172D01*
X167309Y142954D01*
X167999Y141921D01*
X169032Y141231D01*
X170250Y140989D01*
X171468Y141231D01*
X171789Y141446D01*
X172750Y141823D01*
X173711Y141446D01*
X174032Y141231D01*
X175250Y140989D01*
X176469Y141231D01*
X177501Y141921D01*
X178191Y142954D01*
X178434Y144172D01*
Y159328D01*
X178191Y160546D01*
X177501Y161579D01*
X176469Y162269D01*
X175250Y162511D01*
D02*
G37*
G36*
X134220Y87700D02*
X125420D01*
Y78300D01*
X127747D01*
Y76842D01*
X127304Y76658D01*
X125842Y75196D01*
X125050Y73284D01*
Y71216D01*
X125842Y69304D01*
X127304Y67842D01*
X129216Y67050D01*
X131284D01*
X133196Y67842D01*
X134658Y69304D01*
X135450Y71216D01*
Y73284D01*
X134658Y75196D01*
X133253Y76601D01*
Y78300D01*
X134220D01*
Y80247D01*
X142500D01*
X143553Y80457D01*
X143718Y80567D01*
X154828D01*
X156046Y80809D01*
X157079Y81499D01*
X157769Y82532D01*
X158011Y83750D01*
X157769Y84968D01*
X157079Y86001D01*
X156046Y86691D01*
X154828Y86934D01*
X145218D01*
X145054Y87043D01*
X144000Y87253D01*
X142947Y87043D01*
X142782Y86934D01*
X139673D01*
X138454Y86691D01*
X137422Y86001D01*
X137256Y85753D01*
X134220D01*
Y87700D01*
D02*
G37*
G36*
X43284Y45400D02*
X41216D01*
X39304Y44608D01*
X37842Y43145D01*
X37050Y41234D01*
Y39166D01*
X37842Y37254D01*
X39304Y35792D01*
X41216Y35000D01*
X43284D01*
X44340Y35437D01*
X44955Y35315D01*
X49500D01*
X49815Y35377D01*
X59700D01*
Y41622D01*
X50595D01*
X49500Y41840D01*
X47199D01*
X46658Y43145D01*
X45196Y44608D01*
X43284Y45400D01*
D02*
G37*
G36*
X33784Y33950D02*
X31716D01*
X29804Y33158D01*
X28342Y31696D01*
X27550Y29784D01*
Y27716D01*
X28342Y25804D01*
X29804Y24342D01*
X31716Y23550D01*
X33784D01*
X35696Y24342D01*
X36841Y25487D01*
X45866D01*
Y25353D01*
X51325D01*
X51501Y25236D01*
X52750Y24987D01*
X53999Y25236D01*
X54175Y25353D01*
X59266D01*
Y31598D01*
X53747D01*
X53499Y31764D01*
X52250Y32013D01*
X36841D01*
X35696Y33158D01*
X33784Y33950D01*
D02*
G37*
G36*
X1645Y16700D02*
X-1645D01*
X-4871Y16058D01*
X-7910Y14799D01*
X-10646Y12972D01*
X-12972Y10646D01*
X-14799Y7910D01*
X-16058Y4871D01*
X-16700Y1645D01*
Y-1645D01*
X-16058Y-4871D01*
X-14799Y-7910D01*
X-12972Y-10646D01*
X-10646Y-12972D01*
X-7910Y-14799D01*
X-4871Y-16058D01*
X-1645Y-16700D01*
X1645D01*
X4871Y-16058D01*
X7910Y-14799D01*
X10646Y-12972D01*
X12972Y-10646D01*
X14799Y-7910D01*
X16058Y-4871D01*
X16700Y-1645D01*
Y1645D01*
X16058Y4871D01*
X14799Y7910D01*
X12972Y10646D01*
X10646Y12972D01*
X7910Y14799D01*
X4871Y16058D01*
X1645Y16700D01*
D02*
G37*
%LPD*%
G36*
X64744Y250988D02*
X66488Y249244D01*
X67135Y248976D01*
X67383Y247730D01*
X51840Y232187D01*
X49792Y234235D01*
Y250524D01*
X50256Y250988D01*
X50563Y251728D01*
X51937D01*
X52244Y250988D01*
X53988Y249244D01*
X56267Y248300D01*
X58733D01*
X61012Y249244D01*
X62756Y250988D01*
X63063Y251728D01*
X64437D01*
X64744Y250988D01*
D02*
G37*
G36*
X203900Y253673D02*
Y247250D01*
X174553D01*
Y257300D01*
X177350D01*
Y265200D01*
X192373D01*
X203900Y253673D01*
D02*
G37*
G36*
X240150Y235423D02*
Y230951D01*
X237736Y228537D01*
X236406D01*
X235411Y228339D01*
X234567Y227775D01*
X231392Y224600D01*
X221750D01*
Y225000D01*
X207550D01*
Y219000D01*
Y209000D01*
Y199000D01*
Y189000D01*
X220850D01*
X221173Y188540D01*
X221502Y187730D01*
X220800Y186034D01*
Y183966D01*
X221592Y182054D01*
X223054Y180592D01*
X224966Y179800D01*
X225340D01*
X225387Y179568D01*
X225983Y178675D01*
X227155Y177503D01*
X227155Y177503D01*
X228048Y176906D01*
X229102Y176697D01*
X229102Y176697D01*
X262085D01*
X265028Y173754D01*
X265028Y173753D01*
X265921Y173157D01*
X266975Y172947D01*
X277933D01*
X278687Y172797D01*
X278687Y172797D01*
X290248D01*
X291047Y172956D01*
X291929Y172483D01*
X292317Y172158D01*
Y168590D01*
X292527Y167537D01*
X293123Y166644D01*
X303747Y156020D01*
Y150950D01*
X293050D01*
Y147753D01*
X288600D01*
Y151200D01*
X275503D01*
Y163000D01*
X275293Y164053D01*
X274697Y164947D01*
X270397Y169247D01*
X269503Y169843D01*
X268450Y170053D01*
X188672D01*
X183148Y175576D01*
X183634Y176750D01*
X199500D01*
Y190950D01*
X165450D01*
Y199000D01*
Y210000D01*
X156516D01*
X156500Y210003D01*
X156484Y210000D01*
X151250D01*
X151209Y210038D01*
X151168Y211793D01*
X153323Y213947D01*
X155450D01*
X155716Y214000D01*
X165450D01*
Y224000D01*
Y235000D01*
X155143D01*
X146003Y244140D01*
Y244828D01*
X146003Y244828D01*
X145793Y245882D01*
X145197Y246775D01*
X145197Y246775D01*
X144442Y247530D01*
X144642Y248274D01*
X144908Y248851D01*
X146696Y249592D01*
X148158Y251054D01*
X148950Y252966D01*
Y255034D01*
X148158Y256946D01*
X146696Y258408D01*
X144784Y259200D01*
X142716D01*
X141006Y258492D01*
X131077D01*
X131077Y258492D01*
X131077Y258492D01*
X105604D01*
X105603Y258492D01*
X103770Y258127D01*
X102215Y257089D01*
X102215Y257088D01*
X95218Y250092D01*
X76019D01*
X75411Y251362D01*
X76200Y253267D01*
Y255733D01*
X75822Y256645D01*
X84377Y265200D01*
X168350D01*
Y257300D01*
X169047D01*
Y247250D01*
X168500D01*
Y233050D01*
X207550D01*
Y229000D01*
X214632D01*
X214697Y228957D01*
X215750Y228747D01*
X216803Y228957D01*
X216868Y229000D01*
X221750D01*
X222530Y228053D01*
Y227300D01*
X231330D01*
Y236700D01*
X230950D01*
X230927Y236813D01*
X229888Y238368D01*
X229888Y238368D01*
X224008Y244249D01*
X223408Y245696D01*
X221946Y247158D01*
X220034Y247950D01*
X217966D01*
X216054Y247158D01*
X214592Y245696D01*
X213800Y243784D01*
Y241716D01*
X214592Y239804D01*
X216054Y238342D01*
X216577Y238125D01*
X218529Y236173D01*
X218043Y235000D01*
X209500D01*
Y247250D01*
X209100D01*
Y254750D01*
X208902Y255745D01*
X208339Y256588D01*
X197500Y267427D01*
X197986Y268600D01*
X206973D01*
X240150Y235423D01*
D02*
G37*
G36*
X130670Y247330D02*
Y241300D01*
X130670D01*
X130260Y240200D01*
X119050D01*
Y232800D01*
X142450D01*
X142450Y232800D01*
Y232800D01*
X143629Y232477D01*
X145380Y230726D01*
X145719Y230219D01*
X150529Y225409D01*
X150575Y225263D01*
X150428Y223931D01*
X150003Y223647D01*
X150003Y223647D01*
X143338Y216981D01*
X142450Y216200D01*
Y216200D01*
X142450Y216200D01*
X119050D01*
Y208800D01*
X126827D01*
X127466Y207665D01*
X126960Y206700D01*
X122400D01*
Y197300D01*
X132957D01*
Y195200D01*
X131420D01*
Y191980D01*
X131323Y191834D01*
X130958Y190000D01*
Y186000D01*
X130250Y185292D01*
X119873D01*
X118357Y185920D01*
X101995Y202282D01*
Y243315D01*
X107588Y248908D01*
X129092D01*
X130670Y247330D01*
D02*
G37*
G36*
X266247Y158610D02*
Y143911D01*
X264977Y143384D01*
X262965Y145397D01*
X262072Y145993D01*
X261732Y146061D01*
X261600Y146193D01*
Y151700D01*
X244100D01*
X243343Y152739D01*
X243658Y153054D01*
X244450Y154966D01*
Y157034D01*
X243658Y158946D01*
X243027Y159577D01*
X243553Y160847D01*
X264010D01*
X266247Y158610D01*
D02*
G37*
G36*
X370221Y184876D02*
X370873Y183901D01*
X377151Y177623D01*
X377151Y177623D01*
X378127Y176971D01*
X379278Y176742D01*
X379278Y176742D01*
X409926D01*
X416442Y170226D01*
Y141950D01*
X392054D01*
X368758Y165246D01*
Y185725D01*
X370028Y185850D01*
X370221Y184876D01*
D02*
G37*
G36*
X224342Y154054D02*
X225805Y152592D01*
X227716Y151800D01*
X229784D01*
X230993Y152301D01*
X232106Y151387D01*
X232075Y151230D01*
Y141933D01*
X220673D01*
X219454Y141691D01*
X218422Y141001D01*
X217732Y139968D01*
X217489Y138750D01*
X217732Y137531D01*
X218422Y136499D01*
Y136001D01*
X217732Y134968D01*
X217489Y133750D01*
X217732Y132532D01*
X217946Y132211D01*
X218324Y131250D01*
X217946Y130289D01*
X217732Y129968D01*
X217516Y128884D01*
X216987Y128526D01*
X216300Y128219D01*
X214534Y128950D01*
X212466D01*
X210554Y128158D01*
X209772Y127376D01*
X209156Y127235D01*
X208003Y128153D01*
Y140507D01*
X209273Y141183D01*
X210250Y140989D01*
X211468Y141231D01*
X211789Y141446D01*
X212750Y141823D01*
X213711Y141446D01*
X214032Y141231D01*
X215250Y140989D01*
X216468Y141231D01*
X217501Y141921D01*
X218191Y142954D01*
X218434Y144172D01*
Y154400D01*
X224198D01*
X224342Y154054D01*
D02*
G37*
G36*
X280790Y60467D02*
X280747Y60250D01*
Y35532D01*
X279477Y35280D01*
X279408Y35446D01*
X277946Y36908D01*
X276034Y37700D01*
X273966D01*
X272054Y36908D01*
X270592Y35446D01*
X269800Y33534D01*
Y31466D01*
X270592Y29554D01*
X271547Y28599D01*
X271603Y27080D01*
X271542Y26944D01*
X271298Y26700D01*
X270800D01*
X269530Y26700D01*
X261470D01*
X260800Y26700D01*
X259530Y26700D01*
X251470D01*
X250800Y26700D01*
X249530Y26700D01*
X248003D01*
Y35642D01*
X249273Y36490D01*
X250254Y36084D01*
X252323D01*
X254234Y36875D01*
X255697Y38338D01*
X256219Y39600D01*
X259006D01*
X260001Y39798D01*
X260844Y40362D01*
X264388Y43906D01*
X264952Y44749D01*
X265150Y45744D01*
Y61030D01*
X265150Y62300D01*
X266758D01*
X267966Y61800D01*
X270034D01*
X271241Y62300D01*
X278957D01*
X280790Y60467D01*
D02*
G37*
G36*
X251355Y79612D02*
X252199Y79048D01*
X253194Y78850D01*
X257473D01*
X259950Y76373D01*
Y46821D01*
X257929Y44800D01*
X255126D01*
X254234Y45692D01*
X252323Y46484D01*
X250254D01*
X249273Y46077D01*
X248003Y46926D01*
Y54800D01*
X251580D01*
Y64200D01*
X248827D01*
X248003Y65079D01*
X247793Y66132D01*
X247360Y66780D01*
X247648Y67662D01*
X247923Y68050D01*
X251650D01*
Y77450D01*
X246120D01*
X242703Y80866D01*
Y85457D01*
X242703Y85458D01*
X242494Y86511D01*
X242160Y87011D01*
X243146Y87821D01*
X251355Y79612D01*
D02*
G37*
G36*
X358252Y37373D02*
X357947Y35882D01*
X356804Y35408D01*
X355342Y33946D01*
X354550Y32034D01*
Y29966D01*
X355342Y28054D01*
X356487Y26909D01*
Y24950D01*
X355050D01*
Y9164D01*
X353220Y7334D01*
X351950Y7860D01*
Y18258D01*
X352450Y19466D01*
Y21534D01*
X351950Y22742D01*
Y24950D01*
X350095D01*
X348284Y25700D01*
X346216D01*
X344405Y24950D01*
X342550D01*
Y22741D01*
X342050Y21534D01*
Y19466D01*
X342550Y18259D01*
Y6313D01*
X284482D01*
X284337Y6530D01*
X285016Y7800D01*
X290200D01*
Y26700D01*
X286253D01*
Y57497D01*
X338128D01*
X358252Y37373D01*
D02*
G37*
D12*
X152532Y201700D02*
X154450D01*
X150250Y194581D02*
Y199418D01*
X152532Y201700D01*
X150250Y194581D02*
X152531Y192300D01*
X154450Y201700D02*
X155000Y202250D01*
X152531Y192300D02*
X158050D01*
X158350Y192000D01*
X203878Y92457D02*
X208619D01*
X209226Y91850D01*
X190250Y106085D02*
X203878Y92457D01*
X245250Y21250D02*
Y38554D01*
X244078Y66250D02*
X245250Y65078D01*
X238000Y66250D02*
X244078D01*
X245088Y43852D02*
X245250Y44014D01*
X245088Y38716D02*
X245250Y38554D01*
X245088Y38716D02*
Y43852D01*
X245250Y44014D02*
Y65078D01*
X255250Y85750D02*
Y87000D01*
X239000Y103250D02*
X255250Y87000D01*
X229500Y103250D02*
X239000D01*
X255250Y85750D02*
X255500Y85500D01*
X280448Y116500D02*
X281248Y117300D01*
X281250Y117500D02*
X282250Y116500D01*
X272897D02*
X280448D01*
X282250D02*
X303319D01*
X271397Y118000D02*
X272897Y116500D01*
X266000Y118000D02*
X271397D01*
X237535Y87872D02*
X239950Y85458D01*
X231088Y88588D02*
X236218D01*
X236934Y87872D02*
X237535D01*
X239950Y79726D02*
X244926Y74750D01*
X245350D02*
X245824Y74276D01*
X236218Y88588D02*
X236934Y87872D01*
X239950Y79726D02*
Y85458D01*
X244926Y74750D02*
X245350D01*
X245824Y73852D02*
Y74276D01*
X269000Y67000D02*
X269650D01*
X190250Y106085D02*
Y151750D01*
X206500Y105250D02*
Y125127D01*
X205250Y150500D02*
X205250Y150500D01*
Y126377D02*
X206500Y125127D01*
X213500Y123750D02*
X228250D01*
X228250Y123750D01*
X274893Y124993D02*
X275400Y125500D01*
X263585Y120415D02*
Y126067D01*
X261018Y143450D02*
X263700Y140768D01*
X263585Y120415D02*
X266000Y118000D01*
X269785Y124993D02*
X274893D01*
X263700Y126182D02*
Y140768D01*
X263585Y126067D02*
X263700Y126182D01*
X228448Y204052D02*
X229448D01*
X225500Y207000D02*
X228448Y204052D01*
X214650Y192000D02*
X225250D01*
X226422Y190828D01*
Y185422D02*
Y190828D01*
X226000Y185000D02*
X226422Y185422D01*
X296098Y182402D02*
X296250Y182250D01*
X293370Y179250D02*
X295070D01*
X227930Y186250D02*
Y186500D01*
Y180621D02*
Y186250D01*
X215740Y53260D02*
X228730Y66250D01*
X215590Y53410D02*
X215740Y53260D01*
X215250Y53750D02*
X215590Y53410D01*
X135750Y190000D02*
X145500D01*
X135710Y201710D02*
X136000Y202000D01*
X229102Y179450D02*
X263225D01*
X227930Y180621D02*
X229102Y179450D01*
X234828Y139140D02*
X235468Y138500D01*
X234828Y139140D02*
Y151230D01*
X239250Y155652D02*
Y156000D01*
X235468Y138500D02*
X235500D01*
X234828Y151230D02*
X239250Y155652D01*
X214650Y207000D02*
X225500D01*
X171800Y177799D02*
X185999Y163600D01*
X290248Y175550D02*
X293370Y178672D01*
X185999Y163600D02*
X265150D01*
X278687Y175550D02*
X290248D01*
X278537Y175700D02*
X278687Y175550D01*
X268450Y167300D02*
X272750Y163000D01*
X176800Y178031D02*
X187532Y167300D01*
X266975Y175700D02*
X278537D01*
X263225Y179450D02*
X266975Y175700D01*
X265150Y163600D02*
X269000Y159750D01*
X187532Y167300D02*
X268450D01*
X293370Y178672D02*
Y179250D01*
X272750Y149750D02*
X273600Y148900D01*
Y148500D02*
Y148900D01*
X272750Y149750D02*
Y163000D01*
X273600Y148500D02*
X275350Y146750D01*
X226000Y185000D02*
X227250Y186250D01*
X158596Y103588D02*
X162635Y99550D01*
X163750D01*
X151250Y103750D02*
X151412Y103588D01*
X158596D01*
X366284Y26216D02*
X372250Y20250D01*
X283500Y60250D02*
X339268D01*
X372250Y20250D02*
Y20250D01*
X366284Y26216D02*
Y33234D01*
X339268Y60250D02*
X366284Y33234D01*
X372250Y28500D02*
X417750Y74000D01*
X372250Y20250D02*
Y28500D01*
Y14750D02*
Y20250D01*
X48000Y61750D02*
X55000D01*
X45250D02*
X48000D01*
X55000D02*
X69000Y47750D01*
X78542Y33542D02*
X78548D01*
X69000Y33500D02*
X78500D01*
X75980Y27342D02*
X85842D01*
X75269Y28053D02*
X75980Y27342D01*
X85842D02*
X86250Y27750D01*
X78500Y33500D02*
X78542Y33542D01*
X70261Y28053D02*
X75269D01*
X69838Y28476D02*
X70261Y28053D01*
X228730Y66250D02*
X238000D01*
X229750Y74500D02*
Y83000D01*
Y74500D02*
X238000Y66250D01*
X283500Y24000D02*
Y60250D01*
Y24000D02*
X286000Y21500D01*
X278350Y66800D02*
Y67000D01*
Y66800D02*
X283500Y61650D01*
X135500Y190000D02*
X135750D01*
X308500Y139319D02*
X311950Y135868D01*
X308500Y139319D02*
Y144500D01*
X311950Y125132D02*
Y135868D01*
X303319Y116500D02*
X311950Y125132D01*
X257750Y118000D02*
X266000D01*
X260450Y143450D02*
X261018D01*
X257100Y146800D02*
X260450Y143450D01*
X257100Y146800D02*
Y147000D01*
X256500Y119250D02*
X257750Y118000D01*
X295070Y179250D02*
Y181250D01*
Y168590D02*
Y179250D01*
X306000Y147000D02*
X306500Y147500D01*
X295070Y168590D02*
X306500Y157160D01*
Y147500D02*
Y157160D01*
X94850Y57850D02*
X95500Y58500D01*
X94850Y49500D02*
Y57850D01*
X130250Y72250D02*
X130500Y72500D01*
Y82320D01*
X129820Y83000D02*
X130500Y82320D01*
X132070Y155250D02*
Y179680D01*
X131750Y180000D02*
X132070Y179680D01*
X216250Y232000D02*
X226930D01*
X135070Y246000D02*
X142078D01*
X205250Y126377D02*
Y150500D01*
X160000Y64313D02*
Y72500D01*
X159860Y64172D02*
X160000Y64313D01*
X151422Y64172D02*
X159860D01*
X104500Y17250D02*
X151422Y64172D01*
X89829Y13111D02*
X118647Y41928D01*
X144500Y93750D02*
X144750Y93500D01*
X118647Y41928D02*
Y76015D01*
X115000Y86338D02*
X122412Y93750D01*
X144500D01*
X115000Y79662D02*
X118647Y76015D01*
X86360Y13111D02*
X89829D01*
X106247Y84997D02*
X120500Y99250D01*
X74000Y750D02*
X86360Y13111D01*
X114000Y47100D02*
Y58820D01*
X115000Y79662D02*
Y86338D01*
X95350Y38700D02*
X106247Y49597D01*
Y84997D01*
X112447Y60374D02*
Y73447D01*
Y60374D02*
X114000Y58820D01*
X129820Y83000D02*
X142500D01*
X144000Y84500D01*
X95350Y28250D02*
Y28450D01*
X114000Y47100D01*
X120500Y99250D02*
X146500D01*
X95350Y38500D02*
Y38700D01*
X139444Y108750D02*
X141750D01*
X129850Y108250D02*
X138944D01*
X139444Y108750D01*
X129850Y131000D02*
X135650D01*
X129550Y130500D02*
X130250D01*
X124100Y123400D02*
Y124118D01*
X128050Y128068D01*
Y129000D01*
X120900Y120000D02*
Y120200D01*
X124100Y123400D01*
X128050Y129000D02*
X129550Y130500D01*
X121150Y131200D02*
X124350Y134400D01*
Y135118D01*
X127981Y138750D01*
X141000D01*
X141250Y139000D01*
X121150Y131000D02*
Y131200D01*
X141911Y128911D02*
X142000Y129000D01*
X137739Y128911D02*
X141911D01*
X135650Y131000D02*
X137739Y128911D01*
X158750Y155250D02*
X159750Y156250D01*
X132070Y155250D02*
X158750D01*
X163375Y113625D02*
X163500Y113500D01*
X152750Y114000D02*
X153125Y113625D01*
X163375D01*
X269000Y143100D02*
X275500Y136600D01*
X269000Y143100D02*
Y159750D01*
X171800Y177799D02*
Y183550D01*
X171500Y183850D02*
X171800Y183550D01*
X176800Y178031D02*
Y183550D01*
X176500Y183850D02*
X176800Y183550D01*
X304750Y127250D02*
X307500Y130000D01*
X302368Y123550D02*
X304750Y125932D01*
Y127250D01*
X284100Y125500D02*
X291681D01*
X293631Y123550D01*
X302368D01*
X307500Y130000D02*
X307750D01*
X284500Y135900D02*
Y137000D01*
X285900Y134500D02*
X294000D01*
X298000Y130500D02*
Y131500D01*
X295750Y133750D02*
X298000Y131500D01*
X294750Y133750D02*
X295750D01*
X294000Y134500D02*
X294750Y133750D01*
X284500Y135900D02*
X285900Y134500D01*
X284250Y146650D02*
X285900Y145000D01*
X298000D01*
X284250Y146650D02*
Y146750D01*
X245050Y134200D02*
X248400Y137550D01*
Y137750D02*
Y147000D01*
Y137550D02*
Y137750D01*
Y137400D02*
Y137550D01*
X248250Y137250D02*
X248400Y137400D01*
X230500Y128500D02*
X230911Y128911D01*
X239323D01*
X244612Y134200D01*
X245050D01*
X243500Y120000D02*
X248400D01*
X248415Y121165D02*
Y128485D01*
X248000Y120750D02*
X248415Y121165D01*
Y128485D02*
X248430Y128500D01*
X237412Y113912D02*
X243500Y120000D01*
X232588Y113912D02*
X237412D01*
X232500Y114000D02*
X232588Y113912D01*
X230000Y108250D02*
X231250Y109500D01*
X255500D01*
X215250Y53750D02*
Y70750D01*
X296598Y193000D02*
X297125D01*
X296098Y192500D02*
X296598Y193000D01*
X296098Y182402D02*
Y192500D01*
X171800Y261300D02*
X172000Y261500D01*
X171500Y240150D02*
X171800Y240450D01*
Y261300D01*
X136000Y202000D02*
X143325D01*
X136000D02*
X136750Y202750D01*
X135710Y190610D02*
Y201710D01*
Y190610D02*
X135820Y190500D01*
X155450Y216700D02*
X156000Y217250D01*
X152182Y216700D02*
X155450D01*
X131781Y207800D02*
X143282D01*
X130100Y206118D02*
X131781Y207800D01*
X130100Y205400D02*
Y206118D01*
X126900Y202200D02*
X130100Y205400D01*
X126900Y202000D02*
Y202200D01*
X143282Y207800D02*
X152182Y216700D01*
X143325Y202000D02*
X148325Y207000D01*
X156250D01*
X156500Y207250D01*
X142750Y212500D02*
X151950Y221700D01*
X155700D01*
X130750Y212500D02*
X142750D01*
X155700Y221700D02*
X156250Y222250D01*
X152532Y227300D02*
X156450D01*
X130750Y236500D02*
X143500D01*
X147666Y232334D01*
Y232166D02*
Y232334D01*
Y232166D02*
X152532Y227300D01*
X156450D02*
X156500Y227250D01*
X134750Y246000D02*
X135070D01*
X142078D02*
X143250Y244828D01*
Y243000D02*
Y244828D01*
X154250Y232000D02*
X158350D01*
X143250Y243000D02*
X154250Y232000D01*
X215750Y231500D02*
X216250Y232000D01*
D14*
X131077Y253700D02*
X137000Y247777D01*
X49473Y226750D02*
X53180D01*
X117250Y180500D02*
X132235D01*
X97203Y200297D02*
X117000Y180500D01*
X135750Y184015D02*
Y190000D01*
X132235Y180500D02*
X135750Y184015D01*
X97203Y200297D02*
Y245300D01*
X219000Y242479D02*
X226500Y234979D01*
X219000Y242479D02*
Y242750D01*
X226500Y232750D02*
Y234979D01*
X143450Y253700D02*
X143750Y254000D01*
X131077Y253700D02*
X143450D01*
X53180Y226750D02*
X64000D01*
X53180D02*
X71730Y245300D01*
X52250Y225820D02*
X53180Y226750D01*
X71730Y245300D02*
X97203D01*
X105603Y253700D01*
X131077D01*
X137000Y247000D02*
Y247777D01*
X45000Y232250D02*
X50250Y227000D01*
X45000Y232250D02*
Y254500D01*
X36600Y195750D02*
Y213877D01*
X49473Y226750D01*
D15*
X300147Y220125D02*
X301611Y221590D01*
Y224483D01*
X314511Y212500D02*
Y224483D01*
X312261Y210250D02*
X314511Y212500D01*
X289625Y220125D02*
X300147D01*
X301611Y224483D02*
X305389Y228261D01*
X310733D02*
X314511Y224483D01*
X310500Y210250D02*
X312261D01*
X305389Y228261D02*
X310733D01*
X280250Y229500D02*
X289625Y220125D01*
X412500Y121250D02*
X419450Y128200D01*
Y171472D01*
X411172Y179750D02*
X419450Y171472D01*
X379278Y179750D02*
X411172D01*
X373000Y186027D02*
X379278Y179750D01*
X373000Y186027D02*
Y229750D01*
Y235250D01*
X408250Y121250D02*
X412500D01*
X397375Y138125D02*
X401500Y134000D01*
X365750Y164000D02*
X392750Y137000D01*
X311250Y195250D02*
X323750D01*
X392750Y137000D02*
X396250D01*
X365750Y164000D02*
Y208250D01*
X328147Y207919D02*
X330728Y210500D01*
X328147Y200864D02*
Y207919D01*
X323750Y196468D02*
X328147Y200864D01*
X323750Y195250D02*
Y196468D01*
X330728Y210500D02*
X363500D01*
X365750Y208250D01*
X333413Y219125D02*
X362375D01*
X324538Y210250D02*
X333413Y219125D01*
X310501Y210250D02*
X324538D01*
X362375Y219125D02*
X373000Y229750D01*
X360500Y231500D02*
X360750Y231250D01*
X360500Y231500D02*
Y235250D01*
X267750Y231250D02*
Y235000D01*
X267500Y231000D02*
X267750Y231250D01*
X306250Y206000D02*
X310500Y210250D01*
X310501Y210250D01*
X280250Y229500D02*
Y235000D01*
X297125Y199500D02*
X306250D01*
X310250Y195500D01*
X310750D01*
X297125Y206000D02*
X306250D01*
D18*
X227944Y197000D02*
X228316D01*
X214650D02*
X227944D01*
X222944Y202000D02*
X227944Y197000D01*
X228316D02*
X229566Y195750D01*
X230500D01*
X232469Y222000D02*
X236406Y225937D01*
X238813D01*
X242750Y229874D01*
X251288Y41284D02*
X252204Y42200D01*
X259006D01*
X226750Y53500D02*
X235750D01*
X259006Y42200D02*
X262550Y45744D01*
Y77450D01*
X258550Y81450D02*
X262550Y77450D01*
X253194Y81450D02*
X258550D01*
X228250Y93750D02*
X240894D01*
X253194Y81450D01*
X215779Y157000D02*
X228750D01*
X215750Y155500D02*
Y156971D01*
X215779Y157000D01*
X214650Y202000D02*
X222944D01*
X242750Y229874D02*
Y236500D01*
X215250Y222000D02*
X232469D01*
X83300Y267800D02*
X193450D01*
X74200Y271200D02*
X208050D01*
X242750Y236500D01*
X57500Y254500D02*
X74200Y271200D01*
X193450Y267800D02*
X206500Y254750D01*
X70000Y254500D02*
X83300Y267800D01*
X206500Y242750D02*
Y254750D01*
D19*
X130750Y212500D02*
D03*
Y224500D02*
D03*
Y236500D02*
D03*
X264250Y110000D02*
D03*
Y98000D02*
D03*
Y86000D02*
D03*
D20*
X166500Y240150D02*
D03*
Y183850D02*
D03*
X171500Y240150D02*
D03*
X176500D02*
D03*
X181500D02*
D03*
X186500D02*
D03*
X191500D02*
D03*
X196500D02*
D03*
X201500D02*
D03*
X206500D02*
D03*
Y183850D02*
D03*
X201500D02*
D03*
X196500D02*
D03*
X191500D02*
D03*
X186500D02*
D03*
X181500D02*
D03*
X176500D02*
D03*
X171500D02*
D03*
D21*
X214650Y232000D02*
D03*
Y227000D02*
D03*
Y222000D02*
D03*
Y217000D02*
D03*
Y212000D02*
D03*
Y207000D02*
D03*
Y202000D02*
D03*
Y197000D02*
D03*
Y192000D02*
D03*
X158350D02*
D03*
Y197000D02*
D03*
Y202000D02*
D03*
Y207000D02*
D03*
Y212000D02*
D03*
Y217000D02*
D03*
Y222000D02*
D03*
Y227000D02*
D03*
Y232000D02*
D03*
D22*
X308500Y-21500D02*
D03*
X232500D02*
D03*
D23*
X285500Y17250D02*
D03*
X275500D02*
D03*
X265500D02*
D03*
X255500D02*
D03*
X245500D02*
D03*
X295500D02*
D03*
D24*
X275400Y125500D02*
D03*
X284100D02*
D03*
X275400Y136500D02*
D03*
X284100D02*
D03*
X275400Y146500D02*
D03*
X284100D02*
D03*
X36600Y195750D02*
D03*
X27900D02*
D03*
X35100Y61250D02*
D03*
X26400D02*
D03*
X86150Y49500D02*
D03*
X94850D02*
D03*
X86650Y38500D02*
D03*
X95350D02*
D03*
X86650Y28250D02*
D03*
X95350D02*
D03*
X129850Y108250D02*
D03*
X121150D02*
D03*
X269400Y75750D02*
D03*
X278100D02*
D03*
X121150Y131000D02*
D03*
X129850D02*
D03*
X120900Y120000D02*
D03*
X129600D02*
D03*
X269650Y67000D02*
D03*
X278350D02*
D03*
X257100Y137750D02*
D03*
X248400D02*
D03*
X257100Y147000D02*
D03*
X248400D02*
D03*
X257100Y120000D02*
D03*
X248400D02*
D03*
X247150Y72750D02*
D03*
X255850D02*
D03*
X135600Y202000D02*
D03*
X126900D02*
D03*
X164150Y262000D02*
D03*
X172850D02*
D03*
D25*
X298000Y145000D02*
D03*
Y130500D02*
D03*
D26*
X306500Y145000D02*
D03*
Y130500D02*
D03*
D27*
X132070Y155250D02*
D03*
X123430D02*
D03*
X295070Y181250D02*
D03*
X286430D02*
D03*
X129820Y83000D02*
D03*
X121180D02*
D03*
X247180Y59500D02*
D03*
X255820D02*
D03*
X248430Y128500D02*
D03*
X257070D02*
D03*
X226930Y232000D02*
D03*
X235570D02*
D03*
X135820Y190500D02*
D03*
X127180D02*
D03*
X135070Y246000D02*
D03*
X126430D02*
D03*
X227930Y186250D02*
D03*
X236570D02*
D03*
D28*
X236750Y267000D02*
D03*
X311250D02*
D03*
X403250Y-17250D02*
D03*
X328750D02*
D03*
X329500Y267250D02*
D03*
X404001D02*
D03*
D29*
X255250Y235000D02*
D03*
X267750D02*
D03*
X292750D02*
D03*
X280250D02*
D03*
X384750Y14750D02*
D03*
X372250D02*
D03*
X347250D02*
D03*
X359750D02*
D03*
X348000Y235250D02*
D03*
X360500D02*
D03*
X385500D02*
D03*
X373000D02*
D03*
D30*
X195000Y53100D02*
D03*
Y44400D02*
D03*
X227000D02*
D03*
Y53100D02*
D03*
D31*
X215500Y53320D02*
D03*
Y44680D02*
D03*
X52250Y225820D02*
D03*
Y217180D02*
D03*
X52250Y197930D02*
D03*
Y206570D02*
D03*
X255750Y198180D02*
D03*
Y206820D02*
D03*
D32*
X99750Y116600D02*
D03*
Y158900D02*
D03*
D33*
X450000Y187750D02*
D03*
Y67750D02*
D03*
D34*
X403000Y165250D02*
D03*
Y150250D02*
D03*
Y135250D02*
D03*
Y120250D02*
D03*
Y105250D02*
D03*
Y90250D02*
D03*
D35*
X387650Y195500D02*
D03*
X344850D02*
D03*
D36*
X64352Y222434D02*
D03*
X83148D02*
D03*
Y199066D02*
D03*
X73750D02*
D03*
X64352D02*
D03*
D37*
X12500Y196250D02*
D03*
X-2500D02*
D03*
X-5000Y61000D02*
D03*
X10000D02*
D03*
D38*
X311500Y210250D02*
D03*
Y195250D02*
D03*
D39*
X297125Y206000D02*
D03*
Y199500D02*
D03*
Y212500D02*
D03*
Y193000D02*
D03*
X269875Y212500D02*
D03*
Y206000D02*
D03*
Y199500D02*
D03*
Y193000D02*
D03*
D40*
X215250Y70750D02*
D03*
X210250D02*
D03*
X205250D02*
D03*
X200250D02*
D03*
X195250D02*
D03*
X190250D02*
D03*
X185250D02*
D03*
X180250D02*
D03*
X175250D02*
D03*
X170250D02*
D03*
X165250D02*
D03*
X160250D02*
D03*
Y151750D02*
D03*
X165250D02*
D03*
X170250D02*
D03*
X175250D02*
D03*
X180250D02*
D03*
X185250D02*
D03*
X190250D02*
D03*
X195250D02*
D03*
X200250D02*
D03*
X205250D02*
D03*
X210250D02*
D03*
X215250D02*
D03*
D41*
X147250Y83750D02*
D03*
Y88750D02*
D03*
Y93750D02*
D03*
Y98750D02*
D03*
Y103750D02*
D03*
Y108750D02*
D03*
Y113750D02*
D03*
Y118750D02*
D03*
Y123750D02*
D03*
Y128750D02*
D03*
Y133750D02*
D03*
Y138750D02*
D03*
X228250D02*
D03*
Y133750D02*
D03*
Y128750D02*
D03*
Y123750D02*
D03*
Y118750D02*
D03*
Y113750D02*
D03*
Y108750D02*
D03*
Y103750D02*
D03*
Y98750D02*
D03*
Y93750D02*
D03*
Y88750D02*
D03*
Y83750D02*
D03*
D42*
X69000Y38500D02*
D03*
Y33500D02*
D03*
X69838Y28476D02*
D03*
X52566D02*
D03*
X53000Y33500D02*
D03*
Y38500D02*
D03*
D43*
X68850Y98800D02*
D03*
Y103800D02*
D03*
Y108800D02*
D03*
Y113800D02*
D03*
Y118800D02*
D03*
Y123800D02*
D03*
Y128800D02*
D03*
Y133800D02*
D03*
Y138800D02*
D03*
Y143800D02*
D03*
Y148800D02*
D03*
Y153800D02*
D03*
D76*
X283500Y202750D02*
D03*
D77*
X52898Y85102D02*
Y94398D01*
X57300Y98800D02*
X68850D01*
X52898Y94398D02*
X57300Y98800D01*
X69400Y128900D02*
X76650D01*
X76750Y129000D01*
X69250Y128750D02*
X69400Y128900D01*
X62818Y124000D02*
X66000D01*
X55750Y130300D02*
X56518D01*
X62818Y124000D01*
X111000Y203500D02*
X114480D01*
X127180Y190500D02*
Y190800D01*
X114480Y203500D02*
X127180Y190800D01*
X295500Y17250D02*
X295750Y17000D01*
Y15050D02*
Y17000D01*
X401500Y165250D02*
X403000D01*
X401250Y165500D02*
X401500Y165250D01*
X235570Y232000D02*
X235750Y232180D01*
Y232250D01*
X180750Y123500D02*
X181000D01*
X181250Y123250D01*
X147250Y133750D02*
X170500D01*
X180750Y123500D01*
X209750Y85150D02*
X212001D01*
X159965D02*
X209750D01*
X210250Y84650D01*
Y70750D02*
Y84650D01*
X212988Y102262D02*
X215812Y105086D01*
X209275Y98550D02*
X212988Y102262D01*
X156742Y88372D02*
X159965Y85150D01*
X154377Y88372D02*
X156742D01*
X153750Y89000D02*
X154377Y88372D01*
X212001Y85150D02*
X215926Y89075D01*
Y99324D01*
X212988Y102262D02*
X215926Y99324D01*
X256175Y48575D02*
X256500Y48250D01*
X255750Y73500D02*
X256175Y73075D01*
Y48575D02*
Y69825D01*
X257425Y66250D02*
Y76575D01*
X275750Y97500D02*
X276250Y97000D01*
X255500Y97500D02*
X275750D01*
X257085Y129165D02*
X257500Y128750D01*
X215812Y115426D02*
X219386Y119000D01*
X220250D01*
X215812Y105086D02*
Y115426D01*
X203725Y98550D02*
X209275D01*
X197275Y105000D02*
X203725Y98550D01*
X197275Y105000D02*
Y112725D01*
X197000Y113000D02*
X197275Y112725D01*
X257250Y128500D02*
X257500Y128750D01*
X257070Y128500D02*
X257250D01*
X257085Y129165D02*
Y137735D01*
X257100Y137750D01*
X235850Y187580D02*
X271266D01*
X221575Y179950D02*
X230025Y171500D01*
X201700Y179950D02*
X221575D01*
X251292Y221504D02*
X260295Y212500D01*
X218550Y217000D02*
X233196D01*
X237700Y221504D01*
X241241Y214038D02*
X248232D01*
X237700Y221504D02*
X251292D01*
X240475Y214804D02*
X241241Y214038D01*
X248232D02*
X255450Y206820D01*
X239985Y201290D02*
Y202990D01*
X230975Y212000D02*
X239985Y202990D01*
X248995Y192280D02*
X260075D01*
X239985Y201290D02*
X248995Y192280D01*
X218550Y212000D02*
X230975D01*
X141250Y165750D02*
X160365D01*
X175365D01*
X180172Y151828D02*
X180250Y151750D01*
X180172Y151828D02*
Y160942D01*
X175365Y165750D02*
X180172Y160942D01*
X111145Y158900D02*
X113795Y156250D01*
X99750Y158900D02*
X111145D01*
X113795Y156250D02*
X114000D01*
X114750Y155750D02*
X115000Y155500D01*
X122250D02*
X122500Y155750D01*
X115000Y155500D02*
X122250D01*
X165173Y151828D02*
Y160942D01*
Y151828D02*
X165250Y151750D01*
X160365Y165750D02*
X165173Y160942D01*
X193000Y226500D02*
X214250D01*
X178500Y212000D02*
X193000Y226500D01*
X158350Y212000D02*
X178500D01*
X166500Y240150D02*
Y259450D01*
X164950Y261000D02*
X166500Y259450D01*
X164250Y261000D02*
X164950D01*
X271266Y187580D02*
X276846Y182000D01*
X277000D01*
X285625Y181625D02*
X286500Y180750D01*
X277000Y182000D02*
X277375Y181625D01*
X285625D01*
X285500Y164250D02*
X285750D01*
X285250Y164000D02*
X285500Y164250D01*
X280250Y164000D02*
X285250D01*
X272750Y171500D02*
X280250Y164000D01*
X230025Y171500D02*
X272750D01*
X201500Y180150D02*
X201700Y179950D01*
X201500Y180150D02*
Y183850D01*
X300750Y212500D02*
X303053Y214803D01*
X308061Y220729D02*
Y221811D01*
X303053Y214803D02*
Y215721D01*
X308061Y220729D01*
X297125Y212500D02*
X300750D01*
X255750Y206000D02*
X269875D01*
X254750Y207000D02*
X255750Y206000D01*
X255450Y206820D02*
X255750D01*
X329750Y258500D02*
X333000Y255250D01*
X348000Y235250D02*
Y240750D01*
X333500Y255250D02*
X348000Y240750D01*
X333000Y255250D02*
X333500D01*
X329750Y258500D02*
Y264000D01*
X55750Y154300D02*
X69800D01*
X70000Y154500D01*
X51500Y162476D02*
X55176Y158800D01*
X51500Y162476D02*
Y165500D01*
X55176Y154874D02*
X55750Y154300D01*
X55176Y154874D02*
Y158800D01*
X52898Y85102D02*
X53000Y85000D01*
X277500Y16000D02*
Y22459D01*
X275459Y24500D02*
Y32041D01*
X275000Y32500D02*
X275459Y32041D01*
Y24500D02*
X277500Y22459D01*
X129194Y119866D02*
X129328Y120000D01*
X129600D01*
X278500Y77000D02*
X279150D01*
X287900Y85750D01*
X368250D01*
X359750Y31000D02*
X359750Y31000D01*
Y19250D02*
X360750Y18250D01*
X359750Y19250D02*
Y31000D01*
X48000Y750D02*
X48250D01*
X25000Y23750D02*
X48000Y750D01*
X25000Y23750D02*
Y30475D01*
X29975Y35450D01*
X37525D01*
X39475Y33500D02*
X53000D01*
X37525Y35450D02*
X39475Y33500D01*
X44955Y38577D02*
X49500D01*
X35100Y61250D02*
X45250D01*
X48000Y61750D02*
X95750Y109500D01*
X86650Y38500D02*
Y38700D01*
X74165Y40242D02*
X85108D01*
X86400Y38850D02*
X86700Y38550D01*
X85108Y40242D02*
X86650Y38700D01*
X72500Y38577D02*
X74165Y40242D01*
X86400Y38850D02*
Y49250D01*
X86150Y49500D02*
X86400Y49250D01*
X275500Y9750D02*
X282200Y3050D01*
X353550D01*
X359750Y9250D01*
Y14750D01*
X97000Y118000D02*
Y121250D01*
X260075Y192280D02*
X260795Y193000D01*
X68850Y138800D02*
X80650D01*
X121180Y83300D02*
X123920Y86040D01*
X136047Y89200D02*
X136247Y89000D01*
X125794Y89200D02*
X136047D01*
X136247Y89000D02*
X146500D01*
X123920Y87325D02*
X125794Y89200D01*
X123920Y86040D02*
Y87325D01*
X121180Y83000D02*
Y83300D01*
X52250Y28750D02*
X52750Y28250D01*
X32750Y28750D02*
X52250D01*
X195000Y44400D02*
X225500D01*
X225750Y43500D02*
Y44150D01*
X225500Y44400D02*
X225750Y44150D01*
X209300Y57345D02*
X210250Y58295D01*
X209300Y49295D02*
Y57345D01*
X210250Y58295D02*
Y70750D01*
X209300Y49295D02*
X212715Y45880D01*
X195173Y52923D02*
Y70672D01*
X194750Y52500D02*
X195173Y52923D01*
Y70672D02*
X195250Y70750D01*
X93750Y113800D02*
X97000Y117050D01*
X95750Y109500D02*
Y113750D01*
X25875Y61125D02*
X26000Y61250D01*
X10000Y61000D02*
X10125Y61125D01*
X25875D01*
X68850Y113800D02*
X93750D01*
X80650Y138800D02*
X97250Y122200D01*
X63250Y114300D02*
X63550Y114000D01*
X55750Y114300D02*
X63250D01*
X63550Y114000D02*
X65750D01*
X55750Y138300D02*
X56150Y138700D01*
X68200D01*
X260295Y212500D02*
X269875D01*
X257370Y199500D02*
X269875D01*
X260795Y193000D02*
X269875D01*
X12500Y196250D02*
X12750Y196000D01*
X27250D01*
X27500Y195750D01*
D78*
X252180Y198750D02*
X254500D01*
X246930Y204000D02*
X252180Y198750D01*
X246750Y204000D02*
X246930D01*
X52250Y184250D02*
X80000Y156500D01*
X52250Y184250D02*
Y197930D01*
X80000Y139000D02*
Y156500D01*
X61820Y197930D02*
X62750Y197000D01*
X63250Y194228D02*
X69216Y188262D01*
X63250Y194228D02*
Y196000D01*
X69216Y188262D02*
X78284D01*
X80744Y190722D01*
Y192852D01*
X83148Y195256D01*
Y199066D01*
X52250Y197930D02*
X61820D01*
X384500Y196500D02*
X385500Y197500D01*
Y235250D01*
D79*
X377750Y98500D02*
X408750D01*
X409250Y98000D01*
X344850Y131400D02*
X377750Y98500D01*
X344850Y131400D02*
Y195500D01*
D80*
X57500Y254500D02*
D03*
X86500Y750D02*
D03*
X74000D02*
D03*
X61500D02*
D03*
X49000D02*
D03*
X45000Y254500D02*
D03*
X70000D02*
D03*
X82500D02*
D03*
D81*
X0Y250000D02*
D03*
Y0D02*
D03*
D82*
X-9750Y83000D02*
D03*
Y169600D02*
D03*
X47250Y83000D02*
D03*
Y169600D02*
D03*
D83*
X48750Y102300D02*
D03*
Y110300D02*
D03*
Y118300D02*
D03*
Y150300D02*
D03*
Y142300D02*
D03*
Y134300D02*
D03*
X55750Y98300D02*
D03*
Y114300D02*
D03*
Y122300D02*
D03*
Y154300D02*
D03*
Y138300D02*
D03*
Y130300D02*
D03*
D84*
X52250Y166350D02*
D03*
Y86250D02*
D03*
D85*
X62250Y90300D02*
D03*
Y162300D02*
D03*
D86*
X76750Y129000D02*
D03*
X475500Y263000D02*
D03*
X463000Y238000D02*
D03*
X475500Y213000D02*
D03*
Y113000D02*
D03*
X463000Y38000D02*
D03*
X475500Y13000D02*
D03*
X463000Y-12000D02*
D03*
X450500Y263000D02*
D03*
X438000Y238000D02*
D03*
X450500Y213000D02*
D03*
Y113000D02*
D03*
X438000Y38000D02*
D03*
X450500Y13000D02*
D03*
X438000Y-12000D02*
D03*
X425500Y263000D02*
D03*
X413000Y238000D02*
D03*
X425500Y213000D02*
D03*
X413000Y188000D02*
D03*
Y38000D02*
D03*
X425500Y13000D02*
D03*
X413000Y-12000D02*
D03*
X400500Y213000D02*
D03*
Y13000D02*
D03*
X388000Y-12000D02*
D03*
X375500Y263000D02*
D03*
Y63000D02*
D03*
X363000Y-12000D02*
D03*
X350500Y263000D02*
D03*
Y63000D02*
D03*
X338000Y38000D02*
D03*
Y-12000D02*
D03*
X325500Y263000D02*
D03*
Y163000D02*
D03*
Y113000D02*
D03*
X313000Y38000D02*
D03*
X325500Y13000D02*
D03*
X313000Y-12000D02*
D03*
X300500Y263000D02*
D03*
Y213000D02*
D03*
X288000Y-12000D02*
D03*
X275500Y263000D02*
D03*
X263000Y-12000D02*
D03*
X250500Y263000D02*
D03*
X238000Y-12000D02*
D03*
X225500Y263000D02*
D03*
X213000Y38000D02*
D03*
X225500Y13000D02*
D03*
X213000Y-12000D02*
D03*
X188000Y38000D02*
D03*
X200500Y13000D02*
D03*
X188000Y-12000D02*
D03*
X175500Y213000D02*
D03*
Y113000D02*
D03*
X163000Y88000D02*
D03*
X175500Y13000D02*
D03*
X163000Y-12000D02*
D03*
X150500Y163000D02*
D03*
X138000Y38000D02*
D03*
X150500Y13000D02*
D03*
X138000Y-12000D02*
D03*
X113000Y238000D02*
D03*
X125500Y163000D02*
D03*
X113000Y138000D02*
D03*
X125500Y63000D02*
D03*
Y13000D02*
D03*
X113000Y-12000D02*
D03*
X88000Y88000D02*
D03*
X75500Y63000D02*
D03*
X50500Y213000D02*
D03*
X38000Y138000D02*
D03*
X50500Y13000D02*
D03*
X38000Y-12000D02*
D03*
X25500Y263000D02*
D03*
Y213000D02*
D03*
Y163000D02*
D03*
X13000Y138000D02*
D03*
X25500Y113000D02*
D03*
X13000Y88000D02*
D03*
Y38000D02*
D03*
X25500Y13000D02*
D03*
X500Y213000D02*
D03*
X-12000Y188000D02*
D03*
X500Y163000D02*
D03*
X-12000Y138000D02*
D03*
X500Y113000D02*
D03*
Y63000D02*
D03*
X-12000Y38000D02*
D03*
X111000Y203500D02*
D03*
X307750Y-21750D02*
D03*
X295750Y15050D02*
D03*
X401250Y165500D02*
D03*
X235750Y232250D02*
D03*
X181250Y123250D02*
D03*
X209226Y91850D02*
D03*
X251288Y41284D02*
D03*
X235750Y53500D02*
D03*
X256500Y48250D02*
D03*
X281248Y117300D02*
D03*
X269000Y67000D02*
D03*
X269500Y76000D02*
D03*
X276250Y97000D02*
D03*
X206500Y105250D02*
D03*
X197000Y113000D02*
D03*
X213500Y123750D02*
D03*
X257500Y128750D02*
D03*
X269785Y124993D02*
D03*
X228750Y157000D02*
D03*
X231250Y195500D02*
D03*
X229448Y204052D02*
D03*
X239250Y156000D02*
D03*
X240475Y214804D02*
D03*
X114750Y155750D02*
D03*
X141250Y165750D02*
D03*
X277000Y182000D02*
D03*
X285750Y164250D02*
D03*
X226000Y185000D02*
D03*
X405250Y262250D02*
D03*
X308061Y221811D02*
D03*
X237250Y262250D02*
D03*
X275000Y32500D02*
D03*
X163750Y99550D02*
D03*
X129194Y119866D02*
D03*
X120750Y108000D02*
D03*
X368250Y85750D02*
D03*
X359750Y31000D02*
D03*
X417750Y74000D02*
D03*
X42250Y40200D02*
D03*
X69000Y47750D02*
D03*
X78548Y33542D02*
D03*
X347250Y20500D02*
D03*
X245250Y21250D02*
D03*
X145500Y190000D02*
D03*
X385750Y240250D02*
D03*
X293000Y238500D02*
D03*
X246750Y204000D02*
D03*
X100000Y118000D02*
D03*
X95500Y58500D02*
D03*
X117250Y180750D02*
D03*
X130250Y72250D02*
D03*
X219000Y242750D02*
D03*
X143750Y254000D02*
D03*
X360750Y231250D02*
D03*
X323750Y195250D02*
D03*
X267500Y231000D02*
D03*
X104500Y17250D02*
D03*
X112447Y73447D02*
D03*
X32750Y28750D02*
D03*
X163500Y113500D02*
D03*
M02*
