G04*
G04 #@! TF.GenerationSoftware,Altium Limited,Altium Designer,21.6.1 (37)*
G04*
G04 Layer_Color=16711935*
%FSLAX44Y44*%
%MOMM*%
G71*
G04*
G04 #@! TF.SameCoordinates,E55892BA-FD2B-41B2-92EE-91F1455EE258*
G04*
G04*
G04 #@! TF.FilePolarity,Negative*
G04*
G01*
G75*
%ADD72C,3.0400*%
%ADD73O,1.8400X0.9400*%
%ADD74C,0.6400*%
%ADD75O,0.9400X1.5400*%
%ADD76C,0.8900*%
%ADD92R,4.0400X1.5640*%
G04:AMPARAMS|DCode=93|XSize=1.564mm|YSize=4.04mm|CornerRadius=0.401mm|HoleSize=0mm|Usage=FLASHONLY|Rotation=90.000|XOffset=0mm|YOffset=0mm|HoleType=Round|Shape=RoundedRectangle|*
%AMROUNDEDRECTD93*
21,1,1.5640,3.2380,0,0,90.0*
21,1,0.7620,4.0400,0,0,90.0*
1,1,0.8020,1.6190,0.3810*
1,1,0.8020,1.6190,-0.3810*
1,1,0.8020,-1.6190,-0.3810*
1,1,0.8020,-1.6190,0.3810*
%
%ADD93ROUNDEDRECTD93*%
%ADD94R,4.0400X1.5640*%
%ADD95R,0.9000X1.9000*%
G36*
X67471Y88251D02*
X67386Y87709D01*
X67243Y87178D01*
X67046Y86665D01*
X66797Y86175D01*
X66498Y85714D01*
X66152Y85287D01*
X65763Y84899D01*
X65336Y84553D01*
X64875Y84253D01*
X64386Y84004D01*
X63872Y83807D01*
X63342Y83665D01*
X62799Y83579D01*
X62250Y83550D01*
X61701Y83579D01*
X61159Y83665D01*
X60628Y83807D01*
X60115Y84004D01*
X59625Y84253D01*
X59164Y84553D01*
X58737Y84899D01*
X58349Y85287D01*
X58003Y85714D01*
X57704Y86175D01*
X57454Y86665D01*
X57257Y87178D01*
X57115Y87709D01*
X57029Y88251D01*
X57000Y88800D01*
Y91800D01*
X57029Y92349D01*
X57115Y92892D01*
X57257Y93422D01*
X57454Y93935D01*
X57704Y94425D01*
X58003Y94886D01*
X58349Y95313D01*
X58737Y95702D01*
X59164Y96047D01*
X59625Y96347D01*
X60115Y96596D01*
X60628Y96793D01*
X61159Y96935D01*
X61701Y97021D01*
X62250Y97050D01*
X62799Y97021D01*
X63342Y96935D01*
X63872Y96793D01*
X64386Y96596D01*
X64875Y96347D01*
X65336Y96047D01*
X65763Y95702D01*
X66152Y95313D01*
X66498Y94886D01*
X66797Y94425D01*
X67046Y93935D01*
X67243Y93422D01*
X67386Y92892D01*
X67471Y92349D01*
X67500Y91800D01*
Y88800D01*
X67471Y88251D01*
D02*
G37*
D72*
X0Y250000D02*
D03*
Y0D02*
D03*
D73*
X-9750Y83000D02*
D03*
Y169600D02*
D03*
X47250Y83000D02*
D03*
Y169600D02*
D03*
D74*
X48750Y102300D02*
D03*
Y110300D02*
D03*
Y118300D02*
D03*
Y150300D02*
D03*
Y142300D02*
D03*
Y134300D02*
D03*
X55750Y98300D02*
D03*
Y114300D02*
D03*
Y122300D02*
D03*
Y154300D02*
D03*
Y138300D02*
D03*
Y130300D02*
D03*
D75*
X52250Y166350D02*
D03*
Y86250D02*
D03*
D76*
X62250Y90300D02*
D03*
Y162300D02*
D03*
D92*
X454000Y187450D02*
D03*
Y162050D02*
D03*
Y136650D02*
D03*
D93*
Y60450D02*
D03*
D94*
Y111250D02*
D03*
Y85850D02*
D03*
D95*
X57500Y254500D02*
D03*
X86500Y750D02*
D03*
X74000D02*
D03*
X61500D02*
D03*
X49000D02*
D03*
X45000Y254500D02*
D03*
X70000D02*
D03*
X82500D02*
D03*
M02*
