G04*
G04 #@! TF.GenerationSoftware,Altium Limited,Altium Designer,21.6.1 (37)*
G04*
G04 Layer_Color=8388736*
%FSLAX44Y44*%
%MOMM*%
G71*
G04*
G04 #@! TF.SameCoordinates,E55892BA-FD2B-41B2-92EE-91F1455EE258*
G04*
G04*
G04 #@! TF.FilePolarity,Negative*
G04*
G01*
G75*
%ADD45R,2.8500X2.7750*%
%ADD46R,0.6000X0.6400*%
%ADD47R,1.5400X2.1600*%
%ADD48R,2.0400X0.4400*%
%ADD49R,0.3000X1.1200*%
%ADD50R,1.1200X0.3000*%
%ADD51R,1.2400X1.8400*%
%ADD52R,0.6400X1.5900*%
%ADD53R,0.7500X0.9500*%
%ADD54R,0.6500X0.9500*%
%ADD55R,0.5800X0.6400*%
%ADD56R,1.0400X2.7400*%
%ADD57R,0.6400X1.7400*%
%ADD58R,0.6400X0.6000*%
%ADD59R,0.6400X0.5800*%
%ADD60R,3.8400X1.8400*%
%ADD61R,2.7400X1.0400*%
%ADD62R,2.3700X1.6000*%
%ADD63R,0.5988X1.3608*%
%ADD64R,0.8400X0.8400*%
%ADD65R,0.9400X0.7400*%
%ADD66R,0.5650X0.3400*%
%ADD67R,1.6900X2.4900*%
%ADD68O,0.3245X1.8400*%
%ADD69O,1.8400X0.3245*%
%ADD70R,1.0400X0.3245*%
%ADD71R,0.7400X0.3600*%
%ADD72C,3.0400*%
%ADD73O,1.8400X0.9400*%
%ADD74C,0.6400*%
%ADD75O,0.9400X1.5400*%
%ADD76C,0.8900*%
G36*
X67471Y88251D02*
X67386Y87709D01*
X67243Y87178D01*
X67046Y86665D01*
X66797Y86175D01*
X66498Y85714D01*
X66152Y85287D01*
X65763Y84899D01*
X65336Y84553D01*
X64875Y84253D01*
X64386Y84004D01*
X63872Y83807D01*
X63342Y83665D01*
X62799Y83579D01*
X62250Y83550D01*
X61701Y83579D01*
X61159Y83665D01*
X60628Y83807D01*
X60115Y84004D01*
X59625Y84253D01*
X59164Y84553D01*
X58737Y84899D01*
X58349Y85287D01*
X58003Y85714D01*
X57704Y86175D01*
X57454Y86665D01*
X57257Y87178D01*
X57115Y87709D01*
X57029Y88251D01*
X57000Y88800D01*
Y91800D01*
X57029Y92349D01*
X57115Y92892D01*
X57257Y93422D01*
X57454Y93935D01*
X57704Y94425D01*
X58003Y94886D01*
X58349Y95313D01*
X58737Y95702D01*
X59164Y96047D01*
X59625Y96347D01*
X60115Y96596D01*
X60628Y96793D01*
X61159Y96935D01*
X61701Y97021D01*
X62250Y97050D01*
X62799Y97021D01*
X63342Y96935D01*
X63872Y96793D01*
X64386Y96596D01*
X64875Y96347D01*
X65336Y96047D01*
X65763Y95702D01*
X66152Y95313D01*
X66498Y94886D01*
X66797Y94425D01*
X67046Y93935D01*
X67243Y93422D01*
X67386Y92892D01*
X67471Y92349D01*
X67500Y91800D01*
Y88800D01*
X67471Y88251D01*
D02*
G37*
D45*
X186500Y212375D02*
D03*
D46*
X89400Y70500D02*
D03*
X98100D02*
D03*
X89150Y82000D02*
D03*
X97850D02*
D03*
X275400Y125500D02*
D03*
X284100D02*
D03*
X275400Y136500D02*
D03*
X284100D02*
D03*
X275400Y146500D02*
D03*
X284100D02*
D03*
X36600Y195750D02*
D03*
X27900D02*
D03*
X35100Y61250D02*
D03*
X26400D02*
D03*
X86150Y49500D02*
D03*
X94850D02*
D03*
X86650Y38500D02*
D03*
X95350D02*
D03*
X86650Y28250D02*
D03*
X95350D02*
D03*
X129850Y108250D02*
D03*
X121150D02*
D03*
X269400Y75750D02*
D03*
X278100D02*
D03*
X121150Y131000D02*
D03*
X129850D02*
D03*
X120900Y120000D02*
D03*
X129600D02*
D03*
X269650Y67000D02*
D03*
X278350D02*
D03*
X257100Y137750D02*
D03*
X248400D02*
D03*
X257100Y147000D02*
D03*
X248400D02*
D03*
X257100Y120000D02*
D03*
X248400D02*
D03*
X247150Y72750D02*
D03*
X255850D02*
D03*
X135600Y202000D02*
D03*
X126900D02*
D03*
X164150Y262000D02*
D03*
X172850D02*
D03*
D47*
X99750Y158900D02*
D03*
Y116600D02*
D03*
D48*
X130750Y212500D02*
D03*
Y224500D02*
D03*
Y236500D02*
D03*
X264250Y110000D02*
D03*
Y98000D02*
D03*
Y86000D02*
D03*
D49*
X166500Y240150D02*
D03*
Y183850D02*
D03*
X171500Y240150D02*
D03*
X176500D02*
D03*
X181500D02*
D03*
X186500D02*
D03*
X191500D02*
D03*
X196500D02*
D03*
X201500D02*
D03*
X206500D02*
D03*
Y183850D02*
D03*
X201500D02*
D03*
X196500D02*
D03*
X191500D02*
D03*
X186500D02*
D03*
X181500D02*
D03*
X176500D02*
D03*
X171500D02*
D03*
D50*
X214650Y232000D02*
D03*
Y227000D02*
D03*
Y222000D02*
D03*
Y217000D02*
D03*
Y212000D02*
D03*
Y207000D02*
D03*
Y202000D02*
D03*
Y197000D02*
D03*
Y192000D02*
D03*
X158350D02*
D03*
Y197000D02*
D03*
Y202000D02*
D03*
Y207000D02*
D03*
Y212000D02*
D03*
Y217000D02*
D03*
Y222000D02*
D03*
Y227000D02*
D03*
Y232000D02*
D03*
D51*
X308500Y-21500D02*
D03*
X232500D02*
D03*
D52*
X285500Y17250D02*
D03*
X275500D02*
D03*
X265500D02*
D03*
X255500D02*
D03*
X245500D02*
D03*
X295500D02*
D03*
D53*
X298000Y145000D02*
D03*
Y130500D02*
D03*
D54*
X306500Y145000D02*
D03*
Y130500D02*
D03*
D55*
X132070Y155250D02*
D03*
X123430D02*
D03*
X295070Y181250D02*
D03*
X286430D02*
D03*
X129820Y83000D02*
D03*
X121180D02*
D03*
X247180Y59500D02*
D03*
X255820D02*
D03*
X248430Y128500D02*
D03*
X257070D02*
D03*
X226930Y232000D02*
D03*
X235570D02*
D03*
X135820Y190500D02*
D03*
X127180D02*
D03*
X135070Y246000D02*
D03*
X126430D02*
D03*
X227930Y186250D02*
D03*
X236570D02*
D03*
D56*
X236750Y267000D02*
D03*
X311250D02*
D03*
X403250Y-17250D02*
D03*
X328750D02*
D03*
X329500Y267250D02*
D03*
X404001D02*
D03*
D57*
X255250Y235000D02*
D03*
X267750D02*
D03*
X292750D02*
D03*
X280250D02*
D03*
X384750Y14750D02*
D03*
X372250D02*
D03*
X347250D02*
D03*
X359750D02*
D03*
X348000Y235250D02*
D03*
X360500D02*
D03*
X385500D02*
D03*
X373000D02*
D03*
D58*
X195000Y53100D02*
D03*
Y44400D02*
D03*
X227000D02*
D03*
Y53100D02*
D03*
D59*
X215500Y53320D02*
D03*
Y44680D02*
D03*
X52250Y225820D02*
D03*
Y217180D02*
D03*
X52250Y197930D02*
D03*
Y206570D02*
D03*
X255750Y198180D02*
D03*
Y206820D02*
D03*
D60*
X450000Y187750D02*
D03*
Y67750D02*
D03*
D61*
X403000Y165250D02*
D03*
Y150250D02*
D03*
Y135250D02*
D03*
Y120250D02*
D03*
Y105250D02*
D03*
Y90250D02*
D03*
D62*
X387650Y195500D02*
D03*
X344850D02*
D03*
D63*
X64352Y222434D02*
D03*
X83148D02*
D03*
Y199066D02*
D03*
X73750D02*
D03*
X64352D02*
D03*
D64*
X12500Y196250D02*
D03*
X-2500D02*
D03*
X-5000Y61000D02*
D03*
X10000D02*
D03*
D65*
X311500Y210250D02*
D03*
Y195250D02*
D03*
D66*
X297125Y206000D02*
D03*
Y199500D02*
D03*
Y212500D02*
D03*
Y193000D02*
D03*
X269875Y212500D02*
D03*
Y206000D02*
D03*
Y199500D02*
D03*
Y193000D02*
D03*
D67*
X283500Y202750D02*
D03*
D68*
X215250Y70750D02*
D03*
X210250D02*
D03*
X205250D02*
D03*
X200250D02*
D03*
X195250D02*
D03*
X190250D02*
D03*
X185250D02*
D03*
X180250D02*
D03*
X175250D02*
D03*
X170250D02*
D03*
X165250D02*
D03*
X160250D02*
D03*
Y151750D02*
D03*
X165250D02*
D03*
X170250D02*
D03*
X175250D02*
D03*
X180250D02*
D03*
X185250D02*
D03*
X190250D02*
D03*
X195250D02*
D03*
X200250D02*
D03*
X205250D02*
D03*
X210250D02*
D03*
X215250D02*
D03*
D69*
X147250Y83750D02*
D03*
Y88750D02*
D03*
Y93750D02*
D03*
Y98750D02*
D03*
Y103750D02*
D03*
Y108750D02*
D03*
Y113750D02*
D03*
Y118750D02*
D03*
Y123750D02*
D03*
Y128750D02*
D03*
Y133750D02*
D03*
Y138750D02*
D03*
X228250D02*
D03*
Y133750D02*
D03*
Y128750D02*
D03*
Y123750D02*
D03*
Y118750D02*
D03*
Y113750D02*
D03*
Y108750D02*
D03*
Y103750D02*
D03*
Y98750D02*
D03*
Y93750D02*
D03*
Y88750D02*
D03*
Y83750D02*
D03*
D70*
X69000Y38500D02*
D03*
Y33500D02*
D03*
X69838Y28476D02*
D03*
X52566D02*
D03*
X53000Y33500D02*
D03*
Y38500D02*
D03*
D71*
X68850Y98800D02*
D03*
Y103800D02*
D03*
Y108800D02*
D03*
Y113800D02*
D03*
Y118800D02*
D03*
Y123800D02*
D03*
Y128800D02*
D03*
Y133800D02*
D03*
Y138800D02*
D03*
Y143800D02*
D03*
Y148800D02*
D03*
Y153800D02*
D03*
D72*
X0Y250000D02*
D03*
Y0D02*
D03*
D73*
X-9750Y83000D02*
D03*
Y169600D02*
D03*
X47250Y83000D02*
D03*
Y169600D02*
D03*
D74*
X48750Y102300D02*
D03*
Y110300D02*
D03*
Y118300D02*
D03*
Y150300D02*
D03*
Y142300D02*
D03*
Y134300D02*
D03*
X55750Y98300D02*
D03*
Y114300D02*
D03*
Y122300D02*
D03*
Y154300D02*
D03*
Y138300D02*
D03*
Y130300D02*
D03*
D75*
X52250Y166350D02*
D03*
Y86250D02*
D03*
D76*
X62250Y90300D02*
D03*
Y162300D02*
D03*
M02*
