G04*
G04 #@! TF.GenerationSoftware,Altium Limited,Altium Designer,21.6.1 (37)*
G04*
G04 Layer_Physical_Order=2*
G04 Layer_Color=16711680*
%FSLAX44Y44*%
%MOMM*%
G71*
G04*
G04 #@! TF.SameCoordinates,94B42DE2-6481-4BAD-BED8-F4CECB33EB55*
G04*
G04*
G04 #@! TF.FilePolarity,Positive*
G04*
G01*
G75*
%ADD11C,0.2000*%
%ADD14C,0.6000*%
%ADD15C,0.2500*%
%ADD17C,0.1700*%
%ADD96C,0.7000*%
%ADD97C,0.3000*%
%ADD98C,0.5000*%
%ADD99C,0.4000*%
%ADD102C,3.0000*%
%ADD103O,1.8000X0.9000*%
%ADD104C,0.6000*%
%ADD105O,0.9000X1.5000*%
%ADD106C,0.8500*%
%ADD107C,0.7000*%
%ADD108R,0.7000X1.7000*%
G36*
X482451Y258944D02*
Y-13944D01*
X463944Y-32451D01*
X-8944D01*
X-27451Y-13944D01*
Y263944D01*
X-8944Y282451D01*
X458944D01*
X482451Y258944D01*
D02*
G37*
%LPC*%
G36*
X75200Y264700D02*
X64800D01*
Y244300D01*
X75200D01*
Y264700D01*
D02*
G37*
G36*
X62700D02*
X52300D01*
Y244300D01*
X62700D01*
Y264700D01*
D02*
G37*
G36*
X50200D02*
X39800D01*
Y244300D01*
X50200D01*
Y264700D01*
D02*
G37*
G36*
X1645Y266700D02*
X-1645D01*
X-4871Y266058D01*
X-7910Y264799D01*
X-10646Y262972D01*
X-12972Y260646D01*
X-14799Y257910D01*
X-16058Y254871D01*
X-16700Y251645D01*
Y248355D01*
X-16058Y245129D01*
X-14799Y242090D01*
X-12972Y239354D01*
X-10646Y237028D01*
X-7910Y235201D01*
X-4871Y233942D01*
X-1645Y233300D01*
X1645D01*
X4871Y233942D01*
X7910Y235201D01*
X10646Y237028D01*
X12972Y239354D01*
X14799Y242090D01*
X16058Y245129D01*
X16700Y248355D01*
Y251645D01*
X16058Y254871D01*
X14799Y257910D01*
X12972Y260646D01*
X10646Y262972D01*
X7910Y264799D01*
X4871Y266058D01*
X1645Y266700D01*
D02*
G37*
G36*
X373652Y254120D02*
X371584D01*
X369672Y253328D01*
X368210Y251866D01*
X367418Y249954D01*
Y247886D01*
X368210Y245974D01*
X369610Y244574D01*
Y197334D01*
X369500Y197224D01*
X367520D01*
X365608Y196432D01*
X364146Y194970D01*
X363445Y193277D01*
X362181Y192745D01*
X346297Y208629D01*
X345321Y209281D01*
X344170Y209510D01*
X332517D01*
X332031Y210683D01*
X363061Y241713D01*
X363713Y242689D01*
X363873Y243493D01*
X363880Y243496D01*
X365342Y244958D01*
X366134Y246870D01*
Y248938D01*
X365342Y250850D01*
X363880Y252312D01*
X361968Y253104D01*
X359900D01*
X357988Y252312D01*
X356526Y250850D01*
X355734Y248938D01*
Y246870D01*
X356526Y244958D01*
X357162Y244322D01*
X326936Y214095D01*
X325762Y214582D01*
Y230457D01*
X325534Y231608D01*
X324882Y232584D01*
X308705Y248761D01*
X307729Y249413D01*
X306578Y249642D01*
X272316D01*
X270916Y251042D01*
X269004Y251834D01*
X266936D01*
X265024Y251042D01*
X263562Y249580D01*
X262770Y247668D01*
Y245600D01*
X263562Y243688D01*
X264458Y242792D01*
X263932Y241522D01*
X245655D01*
X235206Y251971D01*
X233486Y253120D01*
X231457Y253524D01*
X205804D01*
X203775Y253120D01*
X202055Y251971D01*
X96918Y146834D01*
X95905Y146157D01*
X92330Y142582D01*
X57693D01*
X56685Y143000D01*
X54815D01*
X54624Y142921D01*
X53247Y143725D01*
X52735Y144962D01*
X52227Y145470D01*
X51428Y146300D01*
X52227Y147129D01*
X52735Y147638D01*
X53450Y149365D01*
Y151235D01*
X52735Y152962D01*
X51413Y154284D01*
X49685Y155000D01*
X47815D01*
X46088Y154284D01*
X44766Y152962D01*
X44050Y151235D01*
Y149365D01*
X44766Y147638D01*
X45274Y147129D01*
X46073Y146300D01*
X45274Y145470D01*
X44766Y144962D01*
X44050Y143235D01*
Y141365D01*
X44766Y139637D01*
X45274Y139129D01*
X46073Y138300D01*
X45274Y137470D01*
X44766Y136962D01*
X44050Y135235D01*
Y133365D01*
X44389Y132547D01*
X43541Y131277D01*
X24731D01*
X24300Y131363D01*
X23052Y131114D01*
X21993Y130407D01*
X19029Y127443D01*
X18322Y126384D01*
X18073Y125136D01*
Y49276D01*
X18322Y48027D01*
X19029Y46969D01*
X34529Y31469D01*
X34200Y31140D01*
X33408Y29228D01*
Y27160D01*
X34200Y25248D01*
X35662Y23786D01*
X37574Y22994D01*
X39642D01*
X41554Y23786D01*
X43016Y25248D01*
X43808Y27160D01*
Y29228D01*
X43016Y31140D01*
X42463Y31693D01*
X42285Y32590D01*
X41577Y33649D01*
X35117Y40109D01*
X35470Y41553D01*
X36728Y42074D01*
X38190Y43536D01*
X38982Y45448D01*
Y47516D01*
X38190Y49428D01*
X36728Y50890D01*
X34816Y51682D01*
X33196D01*
X30949Y53929D01*
Y75833D01*
X32219Y76218D01*
X32343Y76031D01*
X39455Y68919D01*
X40349Y68323D01*
X41402Y68113D01*
X41402Y68113D01*
X58721D01*
X59774Y68323D01*
X60668Y68919D01*
X61424Y69676D01*
X74467D01*
X74547Y69483D01*
X76010Y68020D01*
X77921Y67229D01*
X79990D01*
X81901Y68020D01*
X83364Y69483D01*
X84155Y71394D01*
Y73463D01*
X83364Y75374D01*
X81901Y76837D01*
X79990Y77629D01*
X77921D01*
X76010Y76837D01*
X74547Y75374D01*
X74467Y75181D01*
X60283D01*
X59230Y74972D01*
X58337Y74375D01*
X58337Y74375D01*
X57581Y73619D01*
X42542D01*
X37043Y79118D01*
Y102760D01*
X42960Y108678D01*
X44458Y108380D01*
X44766Y107638D01*
X45274Y107130D01*
X46073Y106300D01*
X45274Y105470D01*
X44766Y104962D01*
X44050Y103235D01*
Y101365D01*
X44766Y99638D01*
X46088Y98315D01*
X47815Y97600D01*
X49685D01*
X51413Y98315D01*
X52735Y99638D01*
X53450Y101365D01*
Y103235D01*
X52735Y104962D01*
X52227Y105470D01*
X51428Y106300D01*
X52227Y107130D01*
X52735Y107638D01*
X53247Y108875D01*
X54624Y109679D01*
X54815Y109600D01*
X56685D01*
X57693Y110018D01*
X72968D01*
X74607Y110344D01*
X75996Y111272D01*
X77616Y112892D01*
X80519D01*
X81367Y111622D01*
X80906Y110508D01*
Y108440D01*
X81698Y106528D01*
X83160Y105066D01*
X83506Y104923D01*
Y89999D01*
X83160Y89856D01*
X81698Y88393D01*
X80906Y86482D01*
Y84413D01*
X81698Y82502D01*
X83160Y81039D01*
X85072Y80248D01*
X87140D01*
X89052Y81039D01*
X90514Y82502D01*
X91306Y84413D01*
Y86482D01*
X90514Y88393D01*
X89052Y89856D01*
X88706Y89999D01*
Y104923D01*
X89052Y105066D01*
X90514Y106528D01*
X91306Y108440D01*
Y110508D01*
X90845Y111622D01*
X91693Y112892D01*
X92790D01*
X94429Y113218D01*
X95818Y114146D01*
X102850Y121178D01*
X103778Y122567D01*
X104104Y124206D01*
Y139024D01*
X208000Y242920D01*
X220718D01*
X221567Y241650D01*
X221114Y240556D01*
Y238488D01*
X221906Y236576D01*
X223368Y235114D01*
X223561Y235034D01*
Y228854D01*
X223771Y227801D01*
X224367Y226907D01*
X240027Y211248D01*
X239988Y211050D01*
X239816Y210877D01*
X238558Y210373D01*
X237181Y210943D01*
X235112D01*
X233201Y210151D01*
X231738Y208689D01*
X231659Y208496D01*
X229487D01*
X228433Y208286D01*
X227540Y207689D01*
X208619Y188769D01*
X208023Y187876D01*
X207813Y186822D01*
Y143652D01*
X208023Y142599D01*
X208619Y141706D01*
X208637Y141688D01*
Y140315D01*
X207420Y139098D01*
X206628Y137186D01*
Y135118D01*
X207420Y133207D01*
X207843Y132783D01*
X207620Y131662D01*
X206158Y130200D01*
X205500Y128611D01*
X204193Y128123D01*
X201716Y130599D01*
X201796Y130792D01*
Y132860D01*
X201004Y134772D01*
X199542Y136234D01*
X197630Y137026D01*
X195562D01*
X193650Y136234D01*
X192188Y134772D01*
X191396Y132860D01*
Y130792D01*
X192188Y128880D01*
X193650Y127418D01*
X195562Y126626D01*
X197630D01*
X197823Y126706D01*
X210801Y113728D01*
X210801Y113727D01*
X211695Y113131D01*
X212748Y112921D01*
X213518D01*
X250408Y76031D01*
X250408Y76031D01*
X251301Y75435D01*
X252354Y75225D01*
X268097D01*
X268388Y74524D01*
X269850Y73062D01*
X271762Y72270D01*
X273830D01*
X275742Y73062D01*
X277204Y74524D01*
X277996Y76436D01*
Y78504D01*
X277204Y80416D01*
X275742Y81878D01*
X273830Y82670D01*
X271762D01*
X269850Y81878D01*
X268703Y80731D01*
X253494D01*
X216605Y117621D01*
X215712Y118217D01*
X214658Y118427D01*
X213888D01*
X211434Y120881D01*
X211923Y122188D01*
X213512Y122846D01*
X214974Y124308D01*
X215766Y126220D01*
Y127857D01*
X219771Y131862D01*
X220334Y132705D01*
X220532Y133700D01*
Y184343D01*
X229760Y193571D01*
X230106Y193428D01*
X232174D01*
X234086Y194220D01*
X235548Y195682D01*
X236340Y197594D01*
Y199662D01*
X236547Y199972D01*
X237325Y200603D01*
X239092Y201335D01*
X239563Y201805D01*
X240833Y201279D01*
Y196212D01*
X231706Y187085D01*
X231109Y186192D01*
X230899Y185138D01*
Y184864D01*
X229803Y183768D01*
X228582D01*
X226670Y182976D01*
X225208Y181514D01*
X224416Y179602D01*
Y177534D01*
X225208Y175622D01*
X226670Y174160D01*
X228582Y173368D01*
X230650D01*
X232562Y174160D01*
X234024Y175622D01*
X234816Y177534D01*
Y179602D01*
X234408Y180587D01*
X235599Y181777D01*
X235599Y181777D01*
X236196Y182671D01*
X236405Y183724D01*
X236405Y183724D01*
Y183998D01*
X245532Y193125D01*
X245533Y193125D01*
X245933Y193725D01*
X246396Y194070D01*
X247476Y194279D01*
X248874Y193701D01*
X250943D01*
X252854Y194492D01*
X254317Y195955D01*
X255108Y197866D01*
Y199935D01*
X254744Y200813D01*
X278254Y224323D01*
X287358D01*
X287438Y224130D01*
X288900Y222668D01*
X290812Y221876D01*
X292880D01*
X294792Y222668D01*
X296254Y224130D01*
X297046Y226042D01*
Y228110D01*
X296409Y229648D01*
X297017Y230918D01*
X301620D01*
X301988Y230766D01*
X304056D01*
X305968Y231558D01*
X306591Y232181D01*
X307025Y232471D01*
X307315Y232905D01*
X307430Y233020D01*
X307493Y233171D01*
X308174Y234191D01*
X308578Y236220D01*
X308174Y238249D01*
X307025Y239969D01*
X305305Y241118D01*
X303276Y241522D01*
X272008D01*
X271482Y242792D01*
X272316Y243626D01*
X305332D01*
X319747Y229211D01*
Y210007D01*
X319188Y209448D01*
X318396Y207536D01*
Y205468D01*
X319188Y203556D01*
X320650Y202094D01*
X322562Y201302D01*
X324630D01*
X326542Y202094D01*
X327942Y203494D01*
X342924D01*
X364903Y181515D01*
X365879Y180863D01*
X367030Y180634D01*
X372844D01*
X374244Y179234D01*
X376156Y178442D01*
X378224D01*
X380136Y179234D01*
X381598Y180696D01*
X382390Y182608D01*
Y184676D01*
X381598Y186588D01*
X380136Y188050D01*
X378224Y188842D01*
X376156D01*
X374244Y188050D01*
X373390Y187196D01*
X372971Y187291D01*
X372569Y188685D01*
X372962Y189078D01*
X373754Y190990D01*
Y192970D01*
X374745Y193961D01*
X375397Y194937D01*
X375626Y196088D01*
Y244574D01*
X377026Y245974D01*
X377818Y247886D01*
Y249954D01*
X377026Y251866D01*
X375564Y253328D01*
X373652Y254120D01*
D02*
G37*
G36*
X265194Y187064D02*
X263126D01*
X261214Y186272D01*
X259752Y184810D01*
X258960Y182898D01*
Y180830D01*
X259752Y178918D01*
X261214Y177456D01*
X263126Y176664D01*
X264455D01*
Y168572D01*
X264262Y168492D01*
X262800Y167030D01*
X262008Y165118D01*
Y163050D01*
X262800Y161138D01*
X264262Y159676D01*
X266174Y158884D01*
X268242D01*
X270154Y159676D01*
X271616Y161138D01*
X272408Y163050D01*
Y165118D01*
X271616Y167030D01*
X270154Y168492D01*
X269961Y168572D01*
Y178308D01*
X269961Y178308D01*
X269751Y179361D01*
X269155Y180255D01*
X269154Y180255D01*
X269131Y180278D01*
X269360Y180830D01*
Y182898D01*
X268568Y184810D01*
X267106Y186272D01*
X265194Y187064D01*
D02*
G37*
G36*
X63433Y168250D02*
X61066D01*
X58879Y167344D01*
X57206Y165670D01*
X56300Y163483D01*
Y161116D01*
X57206Y158929D01*
X58879Y157256D01*
X61066Y156350D01*
X63433D01*
X65620Y157256D01*
X67294Y158929D01*
X68200Y161116D01*
Y163483D01*
X67294Y165670D01*
X65620Y167344D01*
X63433Y168250D01*
D02*
G37*
G36*
X245411Y153507D02*
X243343D01*
X241432Y152715D01*
X239969Y151252D01*
X239177Y149341D01*
Y147272D01*
X239794Y145784D01*
X239417Y144254D01*
X239414Y144252D01*
X237951Y142789D01*
X237159Y140878D01*
Y138810D01*
X237951Y136898D01*
X239414Y135435D01*
X240232Y135097D01*
X253452Y121877D01*
X253372Y121684D01*
Y119616D01*
X254164Y117704D01*
X255626Y116242D01*
X257538Y115450D01*
X259606D01*
X261518Y116242D01*
X262980Y117704D01*
X263772Y119616D01*
Y121684D01*
X262980Y123596D01*
X261518Y125058D01*
X259606Y125850D01*
X257538D01*
X257345Y125770D01*
X246492Y136623D01*
X246768Y136898D01*
X247559Y138810D01*
Y140705D01*
X248018Y141054D01*
X248733Y141328D01*
X265644Y124417D01*
X265564Y124224D01*
Y122156D01*
X266356Y120244D01*
X267818Y118782D01*
X269730Y117990D01*
X271798D01*
X273710Y118782D01*
X275172Y120244D01*
X275964Y122156D01*
Y124224D01*
X275172Y126136D01*
X273710Y127598D01*
X271798Y128390D01*
X269730D01*
X269537Y128310D01*
X249577Y148270D01*
Y149341D01*
X248786Y151252D01*
X247323Y152715D01*
X245411Y153507D01*
D02*
G37*
G36*
X63433Y96250D02*
X61066D01*
X58879Y95344D01*
X57206Y93670D01*
X56300Y91483D01*
Y89116D01*
X57206Y86930D01*
X58879Y85256D01*
X61066Y84350D01*
X63433D01*
X65620Y85256D01*
X67294Y86930D01*
X68200Y89116D01*
Y91483D01*
X67294Y93670D01*
X65620Y95344D01*
X63433Y96250D01*
D02*
G37*
G36*
X170706Y137280D02*
X168638D01*
X166726Y136488D01*
X165264Y135026D01*
X164472Y133114D01*
Y131046D01*
X164477Y131033D01*
X156295Y122851D01*
X155699Y121958D01*
X155489Y120904D01*
Y90548D01*
X152231Y87291D01*
X151635Y86397D01*
X151425Y85344D01*
Y42574D01*
X151635Y41520D01*
X152231Y40627D01*
X153403Y39455D01*
X153403Y39455D01*
X154296Y38859D01*
X155350Y38649D01*
X155350Y38649D01*
X175090D01*
X175170Y38456D01*
X176632Y36994D01*
X178544Y36202D01*
X178336Y35018D01*
X149173D01*
X123147Y61044D01*
Y89179D01*
X123555Y90164D01*
Y90636D01*
X124825Y91485D01*
X125840Y91065D01*
X127909D01*
X129820Y91856D01*
X130281Y91764D01*
X130745Y90645D01*
X132208Y89182D01*
X133066Y88827D01*
Y67426D01*
X132076Y66436D01*
X131285Y64525D01*
Y62456D01*
X132076Y60545D01*
X133539Y59082D01*
X135450Y58291D01*
X137519D01*
X139430Y59082D01*
X140893Y60545D01*
X141685Y62456D01*
Y64525D01*
X140893Y66436D01*
X139430Y67899D01*
X138572Y68254D01*
Y89655D01*
X139562Y90645D01*
X140353Y92556D01*
Y94625D01*
X139562Y96536D01*
X138099Y97999D01*
X136188Y98791D01*
X134119D01*
X132208Y97999D01*
X131746Y98091D01*
X131283Y99210D01*
X129820Y100673D01*
X127909Y101465D01*
X125840D01*
X123929Y100673D01*
X123124Y99868D01*
X121515D01*
X118334Y103049D01*
Y104037D01*
X117542Y105948D01*
X116080Y107411D01*
X114168Y108202D01*
X112100D01*
X110189Y107411D01*
X108726Y105948D01*
X108678Y105833D01*
X107408Y106086D01*
Y108505D01*
X122514Y123611D01*
X123553Y125166D01*
X123918Y127000D01*
X123753Y127829D01*
X123788Y127864D01*
X124580Y129776D01*
Y131844D01*
X123788Y133756D01*
X122326Y135218D01*
X120414Y136010D01*
X118346D01*
X116434Y135218D01*
X114972Y133756D01*
X114180Y131844D01*
Y129776D01*
X114457Y129108D01*
X99228Y113878D01*
X98189Y112324D01*
X97824Y110490D01*
X97824Y110490D01*
Y97282D01*
X97824Y97282D01*
X98189Y95448D01*
X99228Y93893D01*
X105120Y88001D01*
X105120Y88001D01*
X106674Y86962D01*
X108508Y86598D01*
X113563D01*
Y59059D01*
X113563Y59059D01*
X113928Y57225D01*
X114966Y55670D01*
X143799Y26838D01*
X143799Y26837D01*
X145354Y25799D01*
X147188Y25434D01*
X194564D01*
X194564Y25434D01*
X196398Y25799D01*
X197952Y26837D01*
X204810Y33695D01*
X204811Y33695D01*
X205849Y35250D01*
X206214Y37084D01*
X206214Y37084D01*
Y45552D01*
X207097Y46142D01*
X208995Y48040D01*
X221142D01*
X222740Y47378D01*
X224808D01*
X226720Y48170D01*
X228182Y49632D01*
X228974Y51544D01*
Y53612D01*
X228182Y55524D01*
X226720Y56986D01*
X224808Y57778D01*
X222740D01*
X222368Y57624D01*
X207010D01*
X207010Y57624D01*
X205176Y57259D01*
X203622Y56220D01*
X203621Y56220D01*
X201723Y54322D01*
X183440D01*
X183286Y54477D01*
X181374Y55269D01*
X179306D01*
X177394Y54477D01*
X175932Y53014D01*
X175257Y51386D01*
X174320Y51044D01*
X173870Y51012D01*
X172872Y52010D01*
X170960Y52802D01*
X170150D01*
X169445Y53858D01*
X169538Y54084D01*
Y56152D01*
X168746Y58064D01*
X167284Y59526D01*
X167091Y59606D01*
Y74298D01*
X181271Y88477D01*
X181867Y89370D01*
X182077Y90424D01*
Y111730D01*
X182374Y112027D01*
X182374Y112027D01*
X182971Y112920D01*
X183181Y113974D01*
X183181Y113974D01*
Y115486D01*
X184330Y115962D01*
X185793Y117425D01*
X186584Y119336D01*
Y121405D01*
X185793Y123316D01*
X184330Y124779D01*
X182419Y125570D01*
X180350D01*
X178439Y124779D01*
X177658Y123998D01*
X177128Y124104D01*
X175666Y125566D01*
X173754Y126358D01*
X172765D01*
X172512Y127628D01*
X172618Y127672D01*
X174080Y129134D01*
X174872Y131046D01*
Y133114D01*
X174080Y135026D01*
X172618Y136488D01*
X170706Y137280D01*
D02*
G37*
G36*
X106444Y22472D02*
X104376D01*
X102464Y21680D01*
X101063Y20279D01*
X73276D01*
X73276Y20279D01*
X72222Y20069D01*
X71329Y19473D01*
X71329Y19473D01*
X62807Y10950D01*
X56300D01*
Y-9450D01*
X66700D01*
Y7057D01*
X67627Y7983D01*
X68800Y7497D01*
Y-9450D01*
X79200D01*
Y10950D01*
X72252D01*
X71767Y12123D01*
X74416Y14773D01*
X100817D01*
X101002Y14326D01*
X102464Y12864D01*
X104376Y12072D01*
X106444D01*
X108356Y12864D01*
X109818Y14326D01*
X110610Y16238D01*
Y18306D01*
X109818Y20218D01*
X108356Y21680D01*
X106444Y22472D01*
D02*
G37*
G36*
X286276Y41268D02*
X284208D01*
X282296Y40476D01*
X280834Y39014D01*
X280042Y37102D01*
Y35034D01*
X280834Y33122D01*
X281981Y31975D01*
Y25316D01*
X281788Y25236D01*
X280326Y23774D01*
X279534Y21862D01*
Y19794D01*
X280326Y17882D01*
X281788Y16420D01*
X283700Y15628D01*
X285768D01*
X287680Y16420D01*
X288328Y17068D01*
X289597Y16542D01*
Y14263D01*
X285711Y10376D01*
X249199D01*
X248564Y11012D01*
X246652Y11804D01*
X244584D01*
X242672Y11012D01*
X241210Y9550D01*
X240418Y7638D01*
Y5570D01*
X241210Y3658D01*
X242672Y2196D01*
X244584Y1404D01*
X246652D01*
X248564Y2196D01*
X249199Y2831D01*
X287274D01*
X287274Y2831D01*
X288718Y3119D01*
X289942Y3936D01*
X296038Y10032D01*
X296038Y10032D01*
X296855Y11256D01*
X297143Y12700D01*
Y15963D01*
X302299Y21119D01*
X315658D01*
X318871Y17907D01*
X318871Y17906D01*
X320095Y17089D01*
X321539Y16802D01*
X335255D01*
X335890Y16166D01*
X337802Y15374D01*
X339870D01*
X341782Y16166D01*
X343244Y17628D01*
X344036Y19540D01*
Y21608D01*
X343244Y23520D01*
X341782Y24982D01*
X339870Y25774D01*
X337802D01*
X335890Y24982D01*
X335255Y24346D01*
X323102D01*
X319889Y27560D01*
X318665Y28377D01*
X317221Y28665D01*
X317221Y28665D01*
X300736D01*
X300736Y28665D01*
X299292Y28377D01*
X298068Y27560D01*
X291204Y20695D01*
X289934Y21221D01*
Y21862D01*
X289142Y23774D01*
X287680Y25236D01*
X287487Y25316D01*
Y31369D01*
X288188Y31660D01*
X289650Y33122D01*
X290442Y35034D01*
Y37102D01*
X289650Y39014D01*
X288188Y40476D01*
X286276Y41268D01*
D02*
G37*
G36*
X91700Y10950D02*
X81300D01*
Y-9450D01*
X91700D01*
Y10950D01*
D02*
G37*
G36*
X1645Y16700D02*
X-1645D01*
X-4871Y16058D01*
X-7910Y14799D01*
X-10646Y12972D01*
X-12972Y10646D01*
X-14799Y7910D01*
X-16058Y4871D01*
X-16700Y1645D01*
Y-1645D01*
X-16058Y-4871D01*
X-14799Y-7910D01*
X-12972Y-10646D01*
X-10646Y-12972D01*
X-7910Y-14799D01*
X-4871Y-16058D01*
X-1645Y-16700D01*
X1645D01*
X4871Y-16058D01*
X7910Y-14799D01*
X10646Y-12972D01*
X12972Y-10646D01*
X14799Y-7910D01*
X16058Y-4871D01*
X16700Y-1645D01*
Y1645D01*
X16058Y4871D01*
X14799Y7910D01*
X12972Y10646D01*
X10646Y12972D01*
X7910Y14799D01*
X4871Y16058D01*
X1645Y16700D01*
D02*
G37*
%LPD*%
G36*
X239710Y232471D02*
X241430Y231322D01*
X243459Y230918D01*
X276080D01*
X276205Y229648D01*
X276061Y229619D01*
X275167Y229023D01*
X275167Y229023D01*
X250245Y204100D01*
X248874D01*
X247609Y203577D01*
X246339Y204344D01*
Y211582D01*
X246129Y212635D01*
X245533Y213529D01*
X245532Y213529D01*
X229067Y229994D01*
Y235034D01*
X229260Y235114D01*
X230722Y236576D01*
X231514Y238488D01*
Y238871D01*
X232784Y239397D01*
X239710Y232471D01*
D02*
G37*
G36*
X95540Y133302D02*
Y125980D01*
X91016Y121456D01*
X75842D01*
X74204Y121130D01*
X72814Y120202D01*
X71195Y118582D01*
X60338D01*
X59823Y119852D01*
X60450Y121365D01*
Y121618D01*
X65364Y126531D01*
X73771D01*
X75152Y125150D01*
X77064Y124358D01*
X79132D01*
X81044Y125150D01*
X82506Y126613D01*
X83298Y128524D01*
Y130593D01*
X82506Y132504D01*
X82263Y132748D01*
X82789Y134018D01*
X94104D01*
X94558Y134108D01*
X95540Y133302D01*
D02*
G37*
G36*
X168638Y126880D02*
X169627D01*
X169880Y125610D01*
X169774Y125566D01*
X168312Y124104D01*
X167520Y122192D01*
Y120124D01*
X168312Y118212D01*
X169774Y116750D01*
X169967Y116670D01*
Y93342D01*
X158104Y81479D01*
X156931Y81966D01*
Y84204D01*
X160189Y87461D01*
X160785Y88355D01*
X160995Y89408D01*
Y119764D01*
X168265Y127034D01*
X168638Y126880D01*
D02*
G37*
D11*
X155350Y41402D02*
X179578D01*
X154178Y42574D02*
X155350Y41402D01*
X157878Y48370D02*
X161146Y45102D01*
X164689Y46645D02*
X168969D01*
X161146Y45102D02*
X163146D01*
X168969Y46645D02*
X169926Y47602D01*
X163146Y45102D02*
X164689Y46645D01*
X60283Y72429D02*
X78955D01*
X58721Y70866D02*
X60283Y72429D01*
X41402Y70866D02*
X58721D01*
X154178Y42574D02*
Y85344D01*
X158242Y89408D01*
X135153Y93591D02*
X135819Y92925D01*
Y64156D02*
X136485Y63491D01*
X135819Y64156D02*
Y92925D01*
X252354Y77978D02*
X272288D01*
X212748Y115674D02*
X214658D01*
X252354Y77978D01*
X196596Y131826D02*
X212748Y115674D01*
X34290Y103901D02*
X48768Y118379D01*
X34290Y77978D02*
Y103901D01*
Y77978D02*
X41402Y70866D01*
X27686Y118110D02*
X33576Y124000D01*
X51818D01*
X52753Y123065D02*
X54985D01*
X51818Y124000D02*
X52753Y123065D01*
X54985D02*
X55750Y122300D01*
X24130Y128524D02*
X51035D01*
X52046Y129535D01*
X54985D01*
X55750Y130300D01*
X244377Y148307D02*
X245647D01*
X242062Y137160D02*
Y139546D01*
X242359Y139844D01*
X245647Y148307D02*
X270764Y123190D01*
X242062Y137160D02*
X258572Y120650D01*
X229616Y178568D02*
Y179688D01*
X233652Y185138D02*
X243586Y195072D01*
X233652Y183724D02*
Y185138D01*
X229616Y179688D02*
X233652Y183724D01*
X249908Y199870D02*
X277114Y227076D01*
X249908Y198901D02*
Y199870D01*
X277114Y227076D02*
X291846D01*
X113134Y103002D02*
X114487D01*
X120374Y97115D01*
X284734Y35560D02*
X285242Y36068D01*
X284734Y20828D02*
Y35560D01*
X169418Y132080D02*
X169672D01*
X158242Y120904D02*
X169418Y132080D01*
X158242Y89408D02*
Y120904D01*
X157878Y77360D02*
X172720Y92202D01*
X157878Y48370D02*
Y77360D01*
X172720Y92202D02*
Y121158D01*
X179324Y90424D02*
Y112870D01*
X180428Y113974D02*
Y119414D01*
X179324Y112870D02*
X180428Y113974D01*
Y119414D02*
X181384Y120370D01*
X164338Y75438D02*
X179324Y90424D01*
X164338Y55118D02*
Y75438D01*
X120374Y97115D02*
X126024D01*
X126874Y96264D01*
X243586Y195072D02*
Y211582D01*
X229487Y205743D02*
X236147D01*
X210566Y186822D02*
X229487Y205743D01*
X226314Y228854D02*
X243586Y211582D01*
X226314Y228854D02*
Y239522D01*
X264160Y181356D02*
Y181864D01*
Y181356D02*
X267208Y178308D01*
Y164084D02*
Y178308D01*
X272288Y77978D02*
X272796Y77470D01*
X210566Y143652D02*
X211566Y142652D01*
Y136414D02*
X211828Y136152D01*
X211566Y136414D02*
Y142652D01*
X210566Y143652D02*
Y186822D01*
X73276Y17526D02*
X105156D01*
X105410Y17272D01*
X61500Y5750D02*
X73276Y17526D01*
X61500Y750D02*
Y5750D01*
D14*
X180340Y50069D02*
X180879Y49530D01*
X203708D01*
X118355Y59059D02*
X147188Y30226D01*
X118355Y59059D02*
Y91199D01*
X147188Y30226D02*
X194564D01*
X201422Y37084D01*
X102616Y97282D02*
X108508Y91390D01*
X102616Y110490D02*
X119126Y127000D01*
X102616Y97282D02*
Y110490D01*
X118163Y91390D02*
X118355Y91199D01*
X108508Y91390D02*
X118163D01*
X201422Y37084D02*
Y49022D01*
X223520Y52832D02*
X223774Y52578D01*
X207010Y52832D02*
X223520D01*
X203708Y49530D02*
X207010Y52832D01*
D15*
X344170Y206502D02*
X367030Y183642D01*
X368554Y192024D02*
X372618Y196088D01*
Y248920D01*
X367030Y183642D02*
X377190D01*
X322755Y207343D02*
Y230457D01*
X267970Y246634D02*
X306578D01*
X322755Y230457D01*
Y207343D02*
X323596Y206502D01*
Y206502D02*
X360934Y243840D01*
Y247904D01*
X323596Y206502D02*
X344170D01*
D17*
X86106Y85448D02*
Y109474D01*
X217932Y185420D02*
X231140Y198628D01*
X210566Y127254D02*
X211486D01*
X217932Y133700D01*
Y185420D01*
D96*
X99822Y142240D02*
X205804Y248222D01*
X231457D01*
X243459Y236220D02*
X293116D01*
X231457Y248222D02*
X243459Y236220D01*
X293116D02*
X303276D01*
D97*
X52786Y82850D02*
X69804D01*
X73406Y79248D01*
X51816Y83820D02*
X52786Y82850D01*
X87472Y69342D02*
X88977Y70847D01*
Y72975D01*
X82704Y79248D02*
X88977Y72975D01*
X85344Y69342D02*
X87472D01*
X73406Y79248D02*
X82704D01*
X74930Y58928D02*
X85344Y69342D01*
X157880Y182880D02*
X158496D01*
X147320Y172320D02*
X157880Y182880D01*
X147320Y59690D02*
Y172320D01*
X140716Y53086D02*
X147320Y59690D01*
X136123Y53086D02*
X140716D01*
X127508Y61701D02*
Y72644D01*
Y61701D02*
X136123Y53086D01*
X197612Y102870D02*
X199214D01*
X201908Y100176D01*
X202792D01*
X212090Y109474D01*
X77862Y129794D02*
X78098Y129558D01*
X64012Y129794D02*
X77862D01*
X27686Y52578D02*
Y118110D01*
Y52578D02*
X33782Y46482D01*
X38608Y28194D02*
X39270Y28856D01*
Y31342D01*
X21336Y49276D02*
X39270Y31342D01*
X21336Y125136D02*
X24300Y128100D01*
X21336Y49276D02*
Y125136D01*
X280416Y62484D02*
Y98298D01*
X281244Y98044D02*
X283530Y100330D01*
X280924Y98044D02*
X281244D01*
X283530Y100330D02*
X303784D01*
X257810Y48768D02*
Y49276D01*
X257556Y48514D02*
X257810Y48768D01*
X231140Y163068D02*
X231394D01*
X245618Y177292D01*
Y185674D01*
X402844Y150368D02*
X403352Y149860D01*
X319786Y150368D02*
X402844D01*
X287528Y182626D02*
X319786Y150368D01*
X277622Y182626D02*
X287528D01*
X248666Y39624D02*
X257556Y48514D01*
X229616Y39624D02*
X248666D01*
X257556Y48514D02*
X258064Y48006D01*
X265938D01*
X280416Y62484D01*
X304546Y-16256D02*
Y17526D01*
Y-16256D02*
X307594Y-19304D01*
X233172Y-21844D02*
X308610D01*
X452628Y36068D02*
Y66548D01*
Y11176D02*
Y36068D01*
X452882Y36322D01*
X447548Y30988D02*
X452628Y36068D01*
X385318Y30988D02*
X447548D01*
X328676Y-21844D02*
X419608D01*
X308610D02*
X328676D01*
X452628Y66548D02*
Y89417D01*
X419608Y-21844D02*
X452628Y11176D01*
X99060Y164846D02*
Y232940D01*
X83820Y248180D02*
Y252984D01*
Y248180D02*
X99060Y232940D01*
X56518Y122300D02*
X64012Y129794D01*
X329184Y267716D02*
X347980Y248920D01*
X235204Y267716D02*
X235966Y268478D01*
X347980Y248666D02*
Y248920D01*
X402590Y164338D02*
X403606Y163322D01*
Y150368D02*
Y163322D01*
X452087Y187927D02*
X457200Y182813D01*
X429260Y165100D02*
X452628Y188468D01*
X403606Y165100D02*
X429260D01*
X404114Y236982D02*
X452628Y188468D01*
Y89417D02*
X457200Y93989D01*
Y182813D01*
X404114Y268478D02*
X404622Y268986D01*
X403606D02*
X404114Y269494D01*
Y236982D02*
Y268478D01*
X330454Y268986D02*
X403606D01*
X236220Y268732D02*
X311404D01*
X312166Y269494D02*
X312928Y268732D01*
X328422D01*
X93726Y268478D02*
X235966D01*
X236220Y268732D01*
X311404D02*
X311658Y268986D01*
X86748Y261500D02*
X93726Y268478D01*
X81534Y256286D02*
Y258534D01*
X84500Y261500D01*
X86748D01*
X55750Y122300D02*
X56518D01*
D98*
X75842Y117174D02*
X92790D01*
X72968Y114300D02*
X75842Y117174D01*
X92790D02*
X99822Y124206D01*
X55750Y114300D02*
X72968D01*
X99822Y124206D02*
Y142240D01*
X94104Y138300D02*
X98933Y143129D01*
X99822Y142240D01*
X55750Y138300D02*
X94104D01*
D99*
X245618Y6604D02*
X287274D01*
X293370Y12700D01*
Y17526D01*
X300736Y24892D01*
X317221D01*
X321539Y20574D01*
X338836D01*
D102*
X0Y250000D02*
D03*
Y0D02*
D03*
D103*
X-9750Y83000D02*
D03*
Y169600D02*
D03*
X47250Y83000D02*
D03*
Y169600D02*
D03*
D104*
X48750Y102300D02*
D03*
Y110300D02*
D03*
Y118300D02*
D03*
Y150300D02*
D03*
Y142300D02*
D03*
Y134300D02*
D03*
X55750Y98300D02*
D03*
Y114300D02*
D03*
Y122300D02*
D03*
Y154300D02*
D03*
Y138300D02*
D03*
Y130300D02*
D03*
D105*
X52250Y166350D02*
D03*
Y86250D02*
D03*
D106*
X62250Y90300D02*
D03*
Y162300D02*
D03*
D107*
X180340Y50069D02*
D03*
X169926Y47602D02*
D03*
X179578Y41402D02*
D03*
X86106Y85448D02*
D03*
X78955Y72429D02*
D03*
X74930Y58928D02*
D03*
X138001Y23001D02*
D03*
X136485Y63491D02*
D03*
X127508Y72644D02*
D03*
X212090Y109474D02*
D03*
X458001Y263001D02*
D03*
X468001Y243001D02*
D03*
X458001Y223001D02*
D03*
X468001Y203001D02*
D03*
Y163001D02*
D03*
X458001Y143001D02*
D03*
X468001Y123001D02*
D03*
X458001Y103001D02*
D03*
X468001Y83001D02*
D03*
Y43001D02*
D03*
X458001Y23001D02*
D03*
X468001Y3001D02*
D03*
X458001Y-16999D02*
D03*
X438001Y263001D02*
D03*
X448001Y243001D02*
D03*
X438001Y223001D02*
D03*
X448001Y203001D02*
D03*
Y163001D02*
D03*
X438001Y143001D02*
D03*
X448001Y123001D02*
D03*
X438001Y103001D02*
D03*
X448001Y83001D02*
D03*
Y43001D02*
D03*
X438001Y23001D02*
D03*
X448001Y3001D02*
D03*
X438001Y-16999D02*
D03*
X418001Y263001D02*
D03*
X428001Y243001D02*
D03*
X418001Y223001D02*
D03*
X428001Y203001D02*
D03*
X418001Y183001D02*
D03*
X428001Y163001D02*
D03*
Y123001D02*
D03*
Y83001D02*
D03*
X418001Y63001D02*
D03*
X428001Y43001D02*
D03*
X418001Y23001D02*
D03*
X428001Y3001D02*
D03*
X418001Y-16999D02*
D03*
X408001Y243001D02*
D03*
X398001Y223001D02*
D03*
X408001Y203001D02*
D03*
X398001Y183001D02*
D03*
Y63001D02*
D03*
X408001Y43001D02*
D03*
X398001Y23001D02*
D03*
X408001Y3001D02*
D03*
X388001Y203001D02*
D03*
X378001Y63001D02*
D03*
X388001Y43001D02*
D03*
X378001Y-16999D02*
D03*
X358001Y63001D02*
D03*
X368001Y43001D02*
D03*
X358001Y-16999D02*
D03*
X338001Y183001D02*
D03*
X348001Y163001D02*
D03*
X338001Y143001D02*
D03*
Y103001D02*
D03*
Y63001D02*
D03*
X348001Y43001D02*
D03*
X318001Y183001D02*
D03*
X328001Y163001D02*
D03*
Y123001D02*
D03*
X318001Y103001D02*
D03*
X328001Y83001D02*
D03*
X318001Y63001D02*
D03*
X328001Y43001D02*
D03*
X298001Y263001D02*
D03*
X308001Y123001D02*
D03*
Y83001D02*
D03*
X298001Y63001D02*
D03*
X308001Y43001D02*
D03*
X278001Y263001D02*
D03*
X288001Y123001D02*
D03*
X278001Y-16999D02*
D03*
X258001Y263001D02*
D03*
Y-16999D02*
D03*
X218001Y23001D02*
D03*
X228001Y3001D02*
D03*
X218001Y-16999D02*
D03*
X198001Y103001D02*
D03*
X208001Y3001D02*
D03*
X198001Y-16999D02*
D03*
X178001D02*
D03*
X158001Y183001D02*
D03*
Y-16999D02*
D03*
X138001D02*
D03*
X118001D02*
D03*
X108001Y243001D02*
D03*
X98001Y183001D02*
D03*
Y-16999D02*
D03*
X78001D02*
D03*
X58001D02*
D03*
X38001Y223001D02*
D03*
Y183001D02*
D03*
Y143001D02*
D03*
Y-16999D02*
D03*
X18001Y263001D02*
D03*
X28001Y243001D02*
D03*
X18001Y223001D02*
D03*
X28001Y203001D02*
D03*
X18001Y183001D02*
D03*
X28001Y163001D02*
D03*
X18001Y143001D02*
D03*
Y23001D02*
D03*
X28001Y3001D02*
D03*
X18001Y-16999D02*
D03*
X-1999Y223001D02*
D03*
X8001Y203001D02*
D03*
X-1999Y183001D02*
D03*
X8001Y163001D02*
D03*
X-1999Y143001D02*
D03*
X8001Y123001D02*
D03*
X-1999Y103001D02*
D03*
X8001Y83001D02*
D03*
Y43001D02*
D03*
X-1999Y23001D02*
D03*
X86106Y109474D02*
D03*
X78098Y129558D02*
D03*
X33782Y46482D02*
D03*
X38608Y28194D02*
D03*
X303784Y100330D02*
D03*
X280416Y98298D02*
D03*
X242359Y139844D02*
D03*
X244377Y148307D02*
D03*
X258572Y120650D02*
D03*
X231140Y163068D02*
D03*
X229616Y178568D02*
D03*
X245618Y185674D02*
D03*
X249908Y198901D02*
D03*
X368554Y192024D02*
D03*
X277622Y182626D02*
D03*
X229616Y39624D02*
D03*
X257556Y48514D02*
D03*
X113134Y103002D02*
D03*
X245618Y6604D02*
D03*
X304546Y17526D02*
D03*
X285242Y36068D02*
D03*
X338836Y20574D02*
D03*
X385318Y30988D02*
D03*
X402336Y-22098D02*
D03*
X328676Y-21844D02*
D03*
X308610D02*
D03*
X284734Y20828D02*
D03*
X233172Y-21844D02*
D03*
X169672Y132080D02*
D03*
X172720Y121158D02*
D03*
X181384Y120370D02*
D03*
X164338Y55118D02*
D03*
X126874Y96264D02*
D03*
X118355Y91199D02*
D03*
X119380Y130810D02*
D03*
X236147Y205743D02*
D03*
X231140Y198628D02*
D03*
X226314Y239522D02*
D03*
X264160Y181864D02*
D03*
X267208Y164084D02*
D03*
X270764Y123190D02*
D03*
X272796Y77470D02*
D03*
X196596Y131826D02*
D03*
X211828Y136152D02*
D03*
X99060Y164846D02*
D03*
X303022Y235966D02*
D03*
X293116Y236220D02*
D03*
X267970Y246634D02*
D03*
X291846Y227076D02*
D03*
X347980Y248666D02*
D03*
X403606Y150368D02*
D03*
Y165100D02*
D03*
X452628Y66548D02*
D03*
Y188468D02*
D03*
X404114Y269494D02*
D03*
X328676Y268478D02*
D03*
X311658Y268986D02*
D03*
X236220Y268478D02*
D03*
X210566Y127254D02*
D03*
X135153Y93591D02*
D03*
X223774Y52578D02*
D03*
X105410Y17272D02*
D03*
X377190Y183642D02*
D03*
X372618Y248920D02*
D03*
X360934Y247904D02*
D03*
X323596Y206502D02*
D03*
D108*
X57500Y254500D02*
D03*
X86500Y750D02*
D03*
X74000D02*
D03*
X61500D02*
D03*
X49000D02*
D03*
X45000Y254500D02*
D03*
X70000D02*
D03*
X82500D02*
D03*
M02*
