G04*
G04 #@! TF.GenerationSoftware,Altium Limited,Altium Designer,21.6.1 (37)*
G04*
G04 Layer_Color=32896*
%FSLAX44Y44*%
%MOMM*%
G71*
G04*
G04 #@! TF.SameCoordinates,80CD90C7-EF89-49D6-8F08-8DFBB554F116*
G04*
G04*
G04 #@! TF.FilePolarity,Positive*
G04*
G01*
G75*
%ADD10C,0.2000*%
%ADD13C,0.6000*%
%ADD14C,0.2500*%
%ADD15C,0.1270*%
%ADD66C,1.0000*%
%ADD67C,0.1700*%
%ADD83C,0.7000*%
%ADD84C,0.0100*%
%ADD85C,0.5000*%
%ADD86R,1.0000X3.7500*%
%ADD87R,1.0000X3.8250*%
G36*
X148296Y72515D02*
X150054Y69806D01*
X151471Y66903D01*
X152525Y63850D01*
X153202Y60691D01*
X153490Y57473D01*
X153385Y54245D01*
X152890Y51053D01*
X152451Y49499D01*
Y49499D01*
X151674Y49479D01*
X150121Y49388D01*
X148574Y49231D01*
X147035Y49008D01*
X146269Y48871D01*
X146603Y50396D01*
X147011Y53488D01*
X147072Y56607D01*
X146783Y59713D01*
X146149Y62767D01*
X145177Y65731D01*
X143881Y68568D01*
X142275Y71242D01*
X141362Y72507D01*
Y72507D01*
X142087Y72714D01*
X143551Y73078D01*
X145026Y73390D01*
X146512Y73650D01*
X147259Y73753D01*
X148296Y72515D01*
D02*
G37*
G36*
X154109Y74160D02*
X155683Y74098D01*
X157253Y73977D01*
X158818Y73799D01*
X159597Y73682D01*
X160609Y72281D01*
X162328Y69282D01*
X163723Y66119D01*
X164781Y62828D01*
X165487Y59444D01*
X165836Y56005D01*
X165823Y52548D01*
X165448Y49112D01*
X165082Y47423D01*
X165082Y47423D01*
X165082Y47423D01*
X164342Y47676D01*
X162846Y48135D01*
X161331Y48529D01*
X159801Y48857D01*
X159031Y48995D01*
Y48995D01*
X159316Y50633D01*
X159625Y53940D01*
X159585Y57262D01*
X159195Y60561D01*
X158460Y63801D01*
X157388Y66945D01*
X155991Y69959D01*
X154285Y72809D01*
X153321Y74163D01*
X154109Y74160D01*
D02*
G37*
G36*
X170130Y70698D02*
X172201Y69745D01*
X174218Y68683D01*
X176177Y67515D01*
X177124Y66880D01*
X177755Y63780D01*
X178118Y57463D01*
X177574Y51158D01*
X176135Y44996D01*
X174983Y42050D01*
X174396Y42490D01*
X173197Y43333D01*
X171964Y44128D01*
X170701Y44871D01*
X170058Y45224D01*
X170058D01*
X170562Y46803D01*
X171348Y50021D01*
X171833Y53299D01*
X172013Y56607D01*
X171887Y59918D01*
X171455Y63203D01*
X170722Y66434D01*
X169693Y69584D01*
X169070Y71120D01*
X170130Y70698D01*
D02*
G37*
G36*
X185552Y55805D02*
X187516Y53393D01*
X189779Y51259D01*
X192303Y49440D01*
X195043Y47967D01*
X197952Y46866D01*
X200980Y46155D01*
X204076Y45847D01*
X205632Y45846D01*
X204396Y44547D01*
X201554Y42360D01*
X198410Y40637D01*
X195037Y39418D01*
X191517Y38732D01*
X187934Y38597D01*
X184372Y39014D01*
X180917Y39975D01*
X179284Y40715D01*
X180482Y42547D01*
X182453Y46452D01*
X183824Y50606D01*
X184565Y54917D01*
X184692Y57102D01*
X184693D01*
X185552Y55805D01*
D02*
G37*
G36*
X173911Y28626D02*
X172873Y28304D01*
X170855Y27504D01*
X168927Y26505D01*
X167111Y25315D01*
X166250Y24653D01*
Y24653D01*
X166250D01*
Y34214D01*
X173911Y28626D01*
D02*
G37*
G36*
X135439Y47709D02*
X135563Y45947D01*
X136160Y42468D01*
X137212Y39097D01*
X138701Y35896D01*
X140599Y32920D01*
X142874Y30220D01*
X145486Y27845D01*
X148390Y25836D01*
X151533Y24229D01*
X154861Y23051D01*
X158316Y22324D01*
X161836Y22060D01*
X163602Y22103D01*
X163602Y22103D01*
X162803Y21133D01*
X161383Y19063D01*
X160215Y16841D01*
X159314Y14497D01*
X158968Y13290D01*
X158968D01*
X157076Y13660D01*
X153418Y14884D01*
X149950Y16571D01*
X146729Y18691D01*
X143809Y21210D01*
X141239Y24086D01*
X139063Y27270D01*
X137316Y30708D01*
X136029Y34344D01*
X135222Y38115D01*
X134910Y41959D01*
X135097Y45811D01*
X135439Y47709D01*
Y47709D01*
X135439D01*
X135439Y47709D01*
D02*
G37*
G36*
X134218Y69043D02*
X129972Y64987D01*
X126382Y60341D01*
X123529Y55208D01*
X121477Y49706D01*
X120274Y43959D01*
X119945Y38096D01*
X120500Y32250D01*
X121925Y26553D01*
X124187Y21135D01*
X127236Y16116D01*
X131004Y11612D01*
X133130Y9585D01*
X133130Y9585D01*
X130710Y10947D01*
X126370Y14411D01*
X122641Y18527D01*
X119620Y23188D01*
X117386Y28272D01*
X115996Y33649D01*
X115486Y39180D01*
X115870Y44721D01*
X117137Y50128D01*
X119255Y55262D01*
X122169Y59990D01*
X125803Y64190D01*
X127934Y65971D01*
X128937Y66699D01*
X131025Y68037D01*
X133187Y69252D01*
X135414Y70341D01*
X136558Y70820D01*
X134218Y69043D01*
D02*
G37*
G36*
X136146Y8472D02*
X144979Y5509D01*
X144978Y5509D01*
X144986Y5506D01*
X145000Y5496D01*
X145010Y5482D01*
X145015Y5466D01*
X145015Y5458D01*
X145015Y5458D01*
X145015Y5458D01*
Y5458D01*
Y5458D01*
Y5458D01*
Y5458D01*
Y5458D01*
X145054Y1627D01*
X145054Y1614D01*
X145054Y1588D01*
X145055Y1563D01*
X145055Y1537D01*
Y1526D01*
X145055Y1524D01*
D01*
Y1524D01*
Y1524D01*
Y1524D01*
Y1524D01*
Y476D01*
X144233Y-1451D01*
X142721Y-2902D01*
X140761Y-3644D01*
X138668Y-3558D01*
X136776Y-2657D01*
X135388Y-1087D01*
X134727Y901D01*
X134814Y1945D01*
X134815Y1957D01*
X134827Y1979D01*
X134847Y1992D01*
X134871Y1996D01*
X134882Y1993D01*
X136076Y8431D01*
Y8431D01*
X136078Y8442D01*
X136091Y8461D01*
X136111Y8473D01*
X136135Y8476D01*
X136146Y8472D01*
D02*
G37*
G36*
X145015Y5458D02*
Y5458D01*
Y5458D01*
Y5458D01*
D02*
G37*
G36*
X188633Y34431D02*
X188690Y29511D01*
X187898Y24655D01*
X186280Y20008D01*
X183886Y15709D01*
X180786Y11888D01*
X177074Y8657D01*
X172861Y6115D01*
X168273Y4338D01*
X163447Y3377D01*
X158528Y3264D01*
X153663Y3999D01*
X151330Y4781D01*
X151330D01*
X153514Y4961D01*
X157836Y5680D01*
X162053Y6871D01*
X166113Y8518D01*
X169967Y10602D01*
X173569Y13097D01*
X176874Y15973D01*
X179842Y19195D01*
X182439Y22725D01*
X184631Y26518D01*
X186392Y30530D01*
X187701Y34711D01*
X188181Y36850D01*
X188633Y34431D01*
D02*
G37*
%LPC*%
G36*
X145054Y1627D02*
X145055Y1524D01*
Y1526D01*
X145054Y1627D01*
D02*
G37*
G36*
X145055Y1524D02*
Y1524D01*
Y1524D01*
Y1524D01*
X145055Y1524D01*
X145055Y1524D01*
D02*
G37*
%LPD*%
D10*
X38500Y13000D02*
G03*
X38500Y13000I-1000J0D01*
G01*
X281750Y230000D02*
G03*
X281750Y230000I-1000J0D01*
G01*
X-18750Y116003D02*
Y122667D01*
X-17417Y124000D01*
X-14751D01*
X-13418Y122667D01*
Y116003D01*
X-5421Y117336D02*
X-6754Y116003D01*
X-9420D01*
X-10753Y117336D01*
Y118668D01*
X-9420Y120001D01*
X-6754D01*
X-5421Y121334D01*
Y122667D01*
X-6754Y124000D01*
X-9420D01*
X-10753Y122667D01*
X-2755Y116003D02*
Y124000D01*
X1244D01*
X2576Y122667D01*
Y121334D01*
X1244Y120001D01*
X-2755D01*
X1244D01*
X2576Y118668D01*
Y117336D01*
X1244Y116003D01*
X-2755D01*
X312750Y-14497D02*
X318082D01*
X315416D01*
Y-6500D01*
X320747D02*
Y-11832D01*
X323413Y-14497D01*
X326079Y-11832D01*
Y-6500D01*
Y-10499D01*
X320747D01*
X328745Y-6500D02*
Y-14497D01*
X332744D01*
X334076Y-13164D01*
Y-10499D01*
X332744Y-9166D01*
X328745D01*
X331411D02*
X334076Y-6500D01*
X342074Y-13164D02*
X340741Y-14497D01*
X338075D01*
X336742Y-13164D01*
Y-7833D01*
X338075Y-6500D01*
X340741D01*
X342074Y-7833D01*
Y-10499D01*
X339408D01*
X350071Y-14497D02*
X344740D01*
Y-6500D01*
X350071D01*
X344740Y-10499D02*
X347406D01*
X352737Y-14497D02*
X358069D01*
X355403D01*
Y-6500D01*
X374063Y-13164D02*
X372731Y-14497D01*
X370065D01*
X368732Y-13164D01*
Y-11832D01*
X370065Y-10499D01*
X372731D01*
X374063Y-9166D01*
Y-7833D01*
X372731Y-6500D01*
X370065D01*
X368732Y-7833D01*
X376729Y-14497D02*
Y-6500D01*
X379395Y-9166D01*
X382061Y-6500D01*
Y-14497D01*
X384727D02*
Y-6500D01*
X388726D01*
X390058Y-7833D01*
Y-13164D01*
X388726Y-14497D01*
X384727D01*
X297750Y123753D02*
X303082D01*
X300416D01*
Y131750D01*
X305747D02*
Y126418D01*
X308413Y123753D01*
X311079Y126418D01*
Y131750D01*
Y127751D01*
X305747D01*
X313745Y131750D02*
Y123753D01*
X317744D01*
X319076Y125085D01*
Y127751D01*
X317744Y129084D01*
X313745D01*
X316411D02*
X319076Y131750D01*
X327074Y125085D02*
X325741Y123753D01*
X323075D01*
X321742Y125085D01*
Y130417D01*
X323075Y131750D01*
X325741D01*
X327074Y130417D01*
Y127751D01*
X324408D01*
X335071Y123753D02*
X329740D01*
Y131750D01*
X335071D01*
X329740Y127751D02*
X332406D01*
X337737Y123753D02*
X343069D01*
X340403D01*
Y131750D01*
X359063Y125085D02*
X357731Y123753D01*
X355065D01*
X353732Y125085D01*
Y126418D01*
X355065Y127751D01*
X357731D01*
X359063Y129084D01*
Y130417D01*
X357731Y131750D01*
X355065D01*
X353732Y130417D01*
X361729Y123753D02*
Y131750D01*
X364395Y129084D01*
X367061Y131750D01*
Y123753D01*
X369727D02*
Y131750D01*
X373726D01*
X375058Y130417D01*
Y125085D01*
X373726Y123753D01*
X369727D01*
X377724Y131750D02*
X380390D01*
X379057D01*
Y123753D01*
X377724Y125085D01*
X342582Y262586D02*
X341249Y261253D01*
X338583D01*
X337250Y262586D01*
Y267917D01*
X338583Y269250D01*
X341249D01*
X342582Y267917D01*
X345247Y269250D02*
Y263918D01*
X347913Y261253D01*
X350579Y263918D01*
Y269250D01*
Y265251D01*
X345247D01*
X353245Y269250D02*
Y261253D01*
X358576Y269250D01*
Y261253D01*
X366574Y269250D02*
X361242D01*
X366574Y263918D01*
Y262586D01*
X365241Y261253D01*
X362575D01*
X361242Y262586D01*
D13*
X-23250Y133500D02*
X8000D01*
X15750Y125750D01*
Y125250D02*
Y125750D01*
X-24250Y107500D02*
X9000D01*
X17500Y116000D01*
X18000D01*
X365250Y108750D02*
X377250D01*
X384500Y116000D01*
X322000D02*
X384500D01*
X288750Y115750D02*
X306500D01*
X324000Y8250D02*
Y30250D01*
X316750Y1000D02*
X324000Y8250D01*
X316750Y1000D02*
Y68250D01*
X269750Y115250D02*
X316750Y68250D01*
X17000Y115250D02*
X269750Y115250D01*
X324500Y247500D02*
Y262750D01*
X316750Y270500D02*
X324500Y262750D01*
X316750Y173250D02*
Y270500D01*
X269500Y126000D02*
X316750Y173250D01*
X15750Y126000D02*
X269500Y126000D01*
D14*
X68415Y100177D02*
X66748Y98511D01*
X63416D01*
X61750Y100177D01*
Y101843D01*
X63416Y103510D01*
X66748D01*
X68415Y105176D01*
Y106842D01*
X66748Y108508D01*
X63416D01*
X61750Y106842D01*
X71747Y98511D02*
X78411D01*
X75079D01*
Y108508D01*
X81743Y103510D02*
X88408D01*
X91740Y98511D02*
Y108508D01*
X98405D01*
X101737Y98511D02*
X105069D01*
X103403D01*
Y108508D01*
X101737D01*
X105069D01*
X110068D02*
Y98511D01*
X116732Y108508D01*
Y98511D01*
X120064D02*
Y108508D01*
Y105176D01*
X126729Y98511D01*
X121731Y103510D01*
X126729Y108508D01*
X140058D02*
Y98511D01*
X145056D01*
X146723Y100177D01*
Y103510D01*
X145056Y105176D01*
X140058D01*
X150055Y108508D02*
Y98511D01*
X155053D01*
X156719Y100177D01*
Y103510D01*
X155053Y105176D01*
X150055D01*
X153387D02*
X156719Y108508D01*
X165050Y98511D02*
X161718D01*
X160052Y100177D01*
Y106842D01*
X161718Y108508D01*
X165050D01*
X166716Y106842D01*
Y100177D01*
X165050Y98511D01*
X176713Y100177D02*
X175047Y98511D01*
X171714D01*
X170048Y100177D01*
Y106842D01*
X171714Y108508D01*
X175047D01*
X176713Y106842D01*
Y103510D01*
X173381D01*
X180045Y108508D02*
Y98511D01*
X185044D01*
X186710Y100177D01*
Y103510D01*
X185044Y105176D01*
X180045D01*
X183377D02*
X186710Y108508D01*
X190042D02*
Y101843D01*
X193374Y98511D01*
X196707Y101843D01*
Y108508D01*
Y103510D01*
X190042D01*
X200039Y108508D02*
Y98511D01*
X203371Y101843D01*
X206703Y98511D01*
Y108508D01*
X210035D02*
Y98511D01*
X213368Y101843D01*
X216700Y98511D01*
Y108508D01*
X226697Y98511D02*
X220032D01*
Y108508D01*
X226697D01*
X220032Y103510D02*
X223365D01*
X230029Y108508D02*
Y98511D01*
X235028D01*
X236694Y100177D01*
Y103510D01*
X235028Y105176D01*
X230029D01*
X233361D02*
X236694Y108508D01*
X68415Y136169D02*
X66748Y134503D01*
X63416D01*
X61750Y136169D01*
Y142834D01*
X63416Y144500D01*
X66748D01*
X68415Y142834D01*
X71747Y144500D02*
Y137836D01*
X75079Y134503D01*
X78411Y137836D01*
Y144500D01*
Y139502D01*
X71747D01*
X81743Y144500D02*
Y134503D01*
X88408Y144500D01*
Y134503D01*
X108402Y136169D02*
X106735Y134503D01*
X103403D01*
X101737Y136169D01*
Y137836D01*
X103403Y139502D01*
X106735D01*
X108402Y141168D01*
Y142834D01*
X106735Y144500D01*
X103403D01*
X101737Y142834D01*
X111734Y144500D02*
Y134503D01*
X118398Y144500D01*
Y134503D01*
X121731D02*
X125063D01*
X123397D01*
Y144500D01*
X121731D01*
X125063D01*
X136726Y134503D02*
X130061D01*
Y139502D01*
X133393D01*
X130061D01*
Y144500D01*
X146723Y134503D02*
X140058D01*
Y139502D01*
X143390D01*
X140058D01*
Y144500D01*
X156719Y134503D02*
X150055D01*
Y144500D01*
X156719D01*
X150055Y139502D02*
X153387D01*
X160052Y144500D02*
Y134503D01*
X165050D01*
X166716Y136169D01*
Y139502D01*
X165050Y141168D01*
X160052D01*
X163384D02*
X166716Y144500D01*
X180045Y134503D02*
Y141168D01*
X183377Y144500D01*
X186710Y141168D01*
Y134503D01*
X196707Y144500D02*
X190042D01*
X196707Y137836D01*
Y136169D01*
X195040Y134503D01*
X191708D01*
X190042Y136169D01*
D15*
X159597Y73682D02*
G03*
X153321Y74163I-6416J-42518D01*
G01*
X165082Y47423D02*
G03*
X159031Y48995I-12086J-34077D01*
G01*
X163602Y22103D02*
G03*
X158968Y13290I16152J-14118D01*
G01*
X147259Y73753D02*
G03*
X141362Y72507I5922J-42590D01*
G01*
X179284Y40715D02*
G03*
X184692Y57102I-24027J17015D01*
G01*
X174983Y42050D02*
G03*
X177124Y66880I-41018J16045D01*
G01*
X165082Y47423D02*
G03*
X159597Y73682I-32193J6978D01*
G01*
X159031Y48995D02*
G03*
X153321Y74163I-30896J6222D01*
G01*
X146269Y48871D02*
G03*
X141362Y72507I-27036J6714D01*
G01*
X184693Y57102D02*
G03*
X205632Y45846I20175J12426D01*
G01*
X136558Y70820D02*
G03*
X127934Y65971I16623J-39656D01*
G01*
X177124Y66880D02*
G03*
X169070Y71120I-23943J-35717D01*
G01*
X152451Y49499D02*
G03*
X146269Y48871I545J-36153D01*
G01*
X174983Y42050D02*
G03*
X170058Y45224I-21987J-28704D01*
G01*
X170058D02*
G03*
X169070Y71120I-33861J11675D01*
G01*
X152451Y49499D02*
G03*
X147259Y73753I-25535J7217D01*
G01*
X173911Y28626D02*
G03*
X166250Y24653I5843J-20641D01*
G01*
X135439Y47709D02*
G03*
X163602Y22103I26628J996D01*
G01*
X135439Y47709D02*
G03*
X158968Y13290I29236J-5266D01*
G01*
X136558Y70820D02*
G03*
X133130Y9585I22438J-31970D01*
G01*
X127934Y65971D02*
G03*
X133130Y9585I22073J-26398D01*
G01*
X179284Y40715D02*
G03*
X205632Y45846I9565J21095D01*
G01*
X151330Y4781D02*
G03*
X188181Y36850I9002J26864D01*
G01*
X151330Y4781D02*
G03*
X188181Y36850I-2173J39705D01*
G01*
X166250Y24653D02*
Y34214D01*
X173911Y28626D01*
X15000Y-17800D02*
Y-3500D01*
X31250D01*
X81250D02*
X97500D01*
Y-17800D02*
Y-3500D01*
X303250Y246500D02*
Y260800D01*
X287000Y246500D02*
X303250D01*
X220750D02*
X237000D01*
X220750D02*
Y260800D01*
D66*
X237723Y51749D02*
G03*
X231574Y45567I12J-6162D01*
G01*
X267750Y45750D02*
G03*
X262036Y51814I-6000J71D01*
G01*
X237723Y51749D02*
X261250Y51750D01*
D67*
X402193Y60696D02*
X403359Y59530D01*
X405692D01*
X406858Y60696D01*
Y61862D01*
X405692Y63029D01*
X404526D01*
X405692D01*
X406858Y64195D01*
Y65361D01*
X405692Y66528D01*
X403359D01*
X402193Y65361D01*
X409191Y59530D02*
Y64195D01*
X411524Y66528D01*
X413856Y64195D01*
Y59530D01*
X416189Y60696D02*
X417355Y59530D01*
X419688D01*
X420854Y60696D01*
Y61862D01*
X419688Y63029D01*
X418521D01*
X419688D01*
X420854Y64195D01*
Y65361D01*
X419688Y66528D01*
X417355D01*
X416189Y65361D01*
X392863Y85651D02*
X391697Y84484D01*
X389364D01*
X388198Y85651D01*
Y86817D01*
X389364Y87983D01*
X391697D01*
X392863Y89150D01*
Y90316D01*
X391697Y91482D01*
X389364D01*
X388198Y90316D01*
X395196Y84484D02*
Y91482D01*
X397528Y89150D01*
X399861Y91482D01*
Y84484D01*
X406858Y85651D02*
X405692Y84484D01*
X403359D01*
X402193Y85651D01*
Y90316D01*
X403359Y91482D01*
X405692D01*
X406858Y90316D01*
X409191Y84484D02*
Y91482D01*
X413856D01*
X416189Y84484D02*
Y91482D01*
Y89150D01*
X420854Y84484D01*
X417355Y87983D01*
X420854Y91482D01*
X406858Y110605D02*
X405692Y109439D01*
X403359D01*
X402193Y110605D01*
Y115270D01*
X403359Y116437D01*
X405692D01*
X406858Y115270D01*
Y112938D01*
X404526D01*
X409191Y116437D02*
Y109439D01*
X413856Y116437D01*
Y109439D01*
X416189D02*
Y116437D01*
X419688D01*
X420854Y115270D01*
Y110605D01*
X419688Y109439D01*
X416189D01*
X394029Y135560D02*
X392863Y134393D01*
X390530D01*
X389364Y135560D01*
Y136726D01*
X390530Y137892D01*
X392863D01*
X394029Y139059D01*
Y140225D01*
X392863Y141391D01*
X390530D01*
X389364Y140225D01*
X396362Y134393D02*
Y141391D01*
X398694Y139059D01*
X401027Y141391D01*
Y134393D01*
X403359D02*
Y141391D01*
X406858D01*
X408025Y140225D01*
Y135560D01*
X406858Y134393D01*
X403359D01*
X410357D02*
X412690D01*
X411524D01*
Y141391D01*
X410357D01*
X412690D01*
X419688Y134393D02*
X417355D01*
X416189Y135560D01*
Y140225D01*
X417355Y141391D01*
X419688D01*
X420854Y140225D01*
Y135560D01*
X419688Y134393D01*
X395196Y166346D02*
Y159348D01*
X399861Y166346D01*
Y159348D01*
X402193Y166346D02*
Y159348D01*
X405692D01*
X406858Y160514D01*
Y162847D01*
X405692Y164013D01*
X402193D01*
X404526D02*
X406858Y166346D01*
X413856Y160514D02*
X412690Y159348D01*
X410357D01*
X409191Y160514D01*
Y161680D01*
X410357Y162847D01*
X412690D01*
X413856Y164013D01*
Y165179D01*
X412690Y166346D01*
X410357D01*
X409191Y165179D01*
X416189Y159348D02*
X420854D01*
X418521D01*
Y166346D01*
X406858Y185469D02*
X405692Y184302D01*
X403359D01*
X402193Y185469D01*
Y186635D01*
X403359Y187801D01*
X405692D01*
X406858Y188967D01*
Y190134D01*
X405692Y191300D01*
X403359D01*
X402193Y190134D01*
X409191Y184302D02*
Y191300D01*
X411524Y188967D01*
X413856Y191300D01*
Y184302D01*
X419688D02*
X417355D01*
X416189Y185469D01*
Y190134D01*
X417355Y191300D01*
X419688D01*
X420854Y190134D01*
Y185469D01*
X419688Y184302D01*
X241287Y279807D02*
X240121Y278640D01*
Y276308D01*
X241287Y275142D01*
X242453D01*
X243619Y276308D01*
Y277474D01*
Y276308D01*
X244786Y275142D01*
X245952D01*
X247118Y276308D01*
Y278640D01*
X245952Y279807D01*
X240121Y272809D02*
X244786D01*
X247118Y270476D01*
X244786Y268144D01*
X240121D01*
X241287Y265811D02*
X240121Y264645D01*
Y262312D01*
X241287Y261146D01*
X242453D01*
X243619Y262312D01*
Y263479D01*
Y262312D01*
X244786Y261146D01*
X245952D01*
X247118Y262312D01*
Y264645D01*
X245952Y265811D01*
X278719Y275142D02*
X277552Y276308D01*
Y278640D01*
X278719Y279807D01*
X283384D01*
X284550Y278640D01*
Y276308D01*
X283384Y275142D01*
X281051D01*
Y277474D01*
X284550Y272809D02*
X277552D01*
X284550Y268144D01*
X277552D01*
Y265811D02*
X284550D01*
Y262312D01*
X283384Y261146D01*
X278719D01*
X277552Y262312D01*
Y265811D01*
X71200Y153492D02*
Y158158D01*
Y155825D01*
X72366Y154659D01*
X73533Y153492D01*
X74699D01*
X79364D02*
X81697D01*
X82863Y154659D01*
Y158158D01*
X79364D01*
X78198Y156991D01*
X79364Y155825D01*
X82863D01*
X89861Y153492D02*
X86362D01*
X85196Y154659D01*
Y156991D01*
X86362Y158158D01*
X89861D01*
X96858Y153492D02*
X93359D01*
X92193Y154659D01*
Y156991D01*
X93359Y158158D01*
X96858D01*
X100357D02*
X102690D01*
X103856Y156991D01*
Y154659D01*
X102690Y153492D01*
X100357D01*
X99191Y154659D01*
Y156991D01*
X100357Y158158D01*
X107355D02*
X109688D01*
X110854Y156991D01*
Y154659D01*
X109688Y153492D01*
X107355D01*
X106189Y154659D01*
Y156991D01*
X107355Y158158D01*
X113187D02*
Y153492D01*
X116685D01*
X117852Y154659D01*
Y158158D01*
X120184D02*
X122517D01*
X121350D01*
Y151160D01*
X120184D01*
X127182Y153492D02*
X129515D01*
X130681Y154659D01*
Y158158D01*
X127182D01*
X126016Y156991D01*
X127182Y155825D01*
X130681D01*
X133013Y151160D02*
Y158158D01*
X136512D01*
X137679Y156991D01*
Y155825D01*
Y154659D01*
X136512Y153492D01*
X133013D01*
X140011Y158158D02*
Y156991D01*
X141178D01*
Y158158D01*
X140011D01*
X147009D02*
X149341D01*
X150508Y156991D01*
Y154659D01*
X149341Y153492D01*
X147009D01*
X145843Y154659D01*
Y156991D01*
X147009Y158158D01*
X152840Y153492D02*
Y158158D01*
Y155825D01*
X154007Y154659D01*
X155173Y153492D01*
X156339D01*
X162171Y160490D02*
X163337D01*
X164503Y159324D01*
Y153492D01*
X161004D01*
X159838Y154659D01*
Y156991D01*
X161004Y158158D01*
X164503D01*
X166836D02*
X171501Y153492D01*
X173834D02*
Y156991D01*
X175000Y158158D01*
X178499D01*
Y153492D01*
X181998D02*
X184330D01*
X185497Y154659D01*
Y158158D01*
X181998D01*
X180831Y156991D01*
X181998Y155825D01*
X185497D01*
X187829Y153492D02*
X190162Y158158D01*
X192494Y153492D01*
X199492D02*
X195993D01*
X194827Y154659D01*
Y156991D01*
X195993Y158158D01*
X199492D01*
X202991Y153492D02*
X205324D01*
X206490Y154659D01*
Y158158D01*
X202991D01*
X201825Y156991D01*
X202991Y155825D01*
X206490D01*
X208822Y158158D02*
Y153492D01*
X212321D01*
X213488Y154659D01*
Y158158D01*
X74699Y170635D02*
Y169469D01*
X73533D01*
Y170635D01*
X74699D01*
X75865Y169469D01*
Y167136D01*
X74699Y165970D01*
X72366D01*
X71200Y167136D01*
Y171801D01*
X72366Y172967D01*
X75865D01*
X78198D02*
X81697D01*
X82863Y171801D01*
X81697Y170635D01*
X79364D01*
X78198Y169469D01*
X79364Y168302D01*
X82863D01*
X86362D02*
X88694D01*
X89861Y169469D01*
Y172967D01*
X86362D01*
X85196Y171801D01*
X86362Y170635D01*
X89861D01*
X92193Y172967D02*
X94526D01*
X93359D01*
Y168302D01*
X92193D01*
X98025Y172967D02*
Y168302D01*
X101524D01*
X102690Y169469D01*
Y172967D01*
X109688Y175300D02*
Y168302D01*
X106189D01*
X105022Y169469D01*
Y171801D01*
X106189Y172967D01*
X109688D01*
X112020Y168302D02*
Y171801D01*
X113187Y172967D01*
X116685D01*
Y168302D01*
X120184D02*
X122517D01*
X123683Y169469D01*
Y172967D01*
X120184D01*
X119018Y171801D01*
X120184Y170635D01*
X123683D01*
X126016Y172967D02*
Y165970D01*
Y170635D02*
X129515Y168302D01*
X126016Y170635D02*
X129515Y172967D01*
X136512D02*
X134180D01*
X133013Y171801D01*
Y169469D01*
X134180Y168302D01*
X136512D01*
X137679Y169469D01*
Y170635D01*
X133013D01*
X372963Y13115D02*
X374129Y11949D01*
Y9616D01*
X372963Y8450D01*
X368298D01*
X367132Y9616D01*
Y11949D01*
X368298Y13115D01*
X370631D01*
Y10783D01*
X367132Y15448D02*
X374129D01*
X367132Y20113D01*
X374129D01*
Y22445D02*
X367132D01*
Y25944D01*
X368298Y27111D01*
X372963D01*
X374129Y25944D01*
Y22445D01*
X360486Y13115D02*
X361652Y11949D01*
Y9616D01*
X360486Y8450D01*
X359320D01*
X358153Y9616D01*
Y11949D01*
X356987Y13115D01*
X355821D01*
X354655Y11949D01*
Y9616D01*
X355821Y8450D01*
X361652Y15448D02*
X354655D01*
X356987Y17780D01*
X354655Y20113D01*
X361652D01*
X360486Y27111D02*
X361652Y25944D01*
Y23612D01*
X360486Y22445D01*
X355821D01*
X354655Y23612D01*
Y25944D01*
X355821Y27111D01*
X361652Y29443D02*
X354655D01*
Y34108D01*
X361652Y36441D02*
X354655D01*
X356987D01*
X361652Y41106D01*
X358153Y37607D01*
X354655Y41106D01*
X348009Y13115D02*
X349175Y11949D01*
Y9616D01*
X348009Y8450D01*
X346842D01*
X345676Y9616D01*
Y11949D01*
X344510Y13115D01*
X343344D01*
X342177Y11949D01*
Y9616D01*
X343344Y8450D01*
X349175Y15448D02*
X342177D01*
X344510Y17780D01*
X342177Y20113D01*
X349175D01*
Y22445D02*
X342177D01*
Y25944D01*
X343344Y27111D01*
X348009D01*
X349175Y25944D01*
Y22445D01*
Y29443D02*
Y31776D01*
Y30610D01*
X342177D01*
Y29443D01*
Y31776D01*
X349175Y38774D02*
Y36441D01*
X348009Y35275D01*
X343344D01*
X342177Y36441D01*
Y38774D01*
X343344Y39940D01*
X348009D01*
X349175Y38774D01*
X335531Y8450D02*
X336698Y9616D01*
Y11949D01*
X335531Y13115D01*
X334365D01*
X333199Y11949D01*
Y10783D01*
Y11949D01*
X332033Y13115D01*
X330866D01*
X329700Y11949D01*
Y9616D01*
X330866Y8450D01*
X336698Y15448D02*
X332033D01*
X329700Y17780D01*
X332033Y20113D01*
X336698D01*
X335531Y22445D02*
X336698Y23612D01*
Y25944D01*
X335531Y27111D01*
X334365D01*
X333199Y25944D01*
Y24778D01*
Y25944D01*
X332033Y27111D01*
X330866D01*
X329700Y25944D01*
Y23612D01*
X330866Y22445D01*
X77213Y-32057D02*
X78379Y-30891D01*
Y-28558D01*
X77213Y-27392D01*
X76047D01*
X74880Y-28558D01*
Y-29724D01*
Y-28558D01*
X73714Y-27392D01*
X72548D01*
X71382Y-28558D01*
Y-30891D01*
X72548Y-32057D01*
X78379Y-25059D02*
X73714D01*
X71382Y-22726D01*
X73714Y-20394D01*
X78379D01*
X77213Y-18061D02*
X78379Y-16895D01*
Y-14562D01*
X77213Y-13396D01*
X76047D01*
X74880Y-14562D01*
Y-15729D01*
Y-14562D01*
X73714Y-13396D01*
X72548D01*
X71382Y-14562D01*
Y-16895D01*
X72548Y-18061D01*
X39781Y-27392D02*
X40948Y-28558D01*
Y-30891D01*
X39781Y-32057D01*
X35116D01*
X33950Y-30891D01*
Y-28558D01*
X35116Y-27392D01*
X37449D01*
Y-29724D01*
X33950Y-25059D02*
X40948D01*
X33950Y-20394D01*
X40948D01*
Y-18061D02*
X33950D01*
Y-14562D01*
X35116Y-13396D01*
X39781D01*
X40948Y-14562D01*
Y-18061D01*
X329454Y238135D02*
X328288Y239301D01*
Y241634D01*
X329454Y242800D01*
X334119D01*
X335286Y241634D01*
Y239301D01*
X334119Y238135D01*
X331787D01*
Y240467D01*
X335286Y235802D02*
X328288D01*
X335286Y231137D01*
X328288D01*
Y228804D02*
X335286D01*
Y225306D01*
X334119Y224139D01*
X329454D01*
X328288Y225306D01*
Y228804D01*
X341931Y238135D02*
X340765Y239301D01*
Y241634D01*
X341931Y242800D01*
X346597D01*
X347763Y241634D01*
Y239301D01*
X346597Y238135D01*
X347763Y235802D02*
X343098D01*
X340765Y233470D01*
X343098Y231137D01*
X347763D01*
X344264D01*
Y235802D01*
X347763Y228804D02*
X340765D01*
X347763Y224139D01*
X340765D01*
X348929Y221807D02*
Y217142D01*
X340765Y214809D02*
X347763D01*
X344264D01*
Y210144D01*
X340765D01*
X347763D01*
X355575Y238135D02*
X354409Y239301D01*
Y241634D01*
X355575Y242800D01*
X360240D01*
X361407Y241634D01*
Y239301D01*
X360240Y238135D01*
X361407Y235802D02*
X356741D01*
X354409Y233470D01*
X356741Y231137D01*
X361407D01*
X357908D01*
Y235802D01*
X361407Y228804D02*
X354409D01*
X361407Y224139D01*
X354409D01*
X362573Y221807D02*
Y217142D01*
X354409Y214809D02*
X361407D01*
Y210144D01*
X368052Y242800D02*
X372717D01*
X375050Y240467D01*
X372717Y238135D01*
X368052D01*
X370385Y235802D02*
X373884D01*
X375050Y234636D01*
Y231137D01*
X370385D01*
X375050Y228804D02*
Y225306D01*
X373884Y224139D01*
X372717Y225306D01*
Y227638D01*
X371551Y228804D01*
X370385Y227638D01*
Y224139D01*
X368052Y221807D02*
X375050D01*
Y218308D01*
X373884Y217142D01*
X372717D01*
X371551D01*
X370385Y218308D01*
Y221807D01*
D83*
X252538Y71000D02*
G03*
X252538Y71000I-3288J0D01*
G01*
D84*
X134867Y1941D02*
G03*
X144976Y2026I5058J-417D01*
G01*
X136129Y8421D02*
X144961Y5458D01*
X145001Y1524D01*
X134850D02*
X136129Y8421D01*
D85*
X249250Y55500D02*
Y69750D01*
D86*
X231500Y26500D02*
D03*
D87*
X267750Y26625D02*
D03*
M02*
