G04*
G04 #@! TF.GenerationSoftware,Altium Limited,Altium Designer,21.6.1 (37)*
G04*
G04 Layer_Physical_Order=1*
G04 Layer_Color=255*
%FSLAX44Y44*%
%MOMM*%
G71*
G04*
G04 #@! TF.SameCoordinates,23785FB4-EFBD-4269-80FE-5E41C332AB00*
G04*
G04*
G04 #@! TF.FilePolarity,Positive*
G04*
G01*
G75*
%ADD10C,0.2000*%
%ADD13C,0.6000*%
%ADD14C,0.2500*%
%ADD16C,0.1700*%
%ADD20R,1.0000X2.7000*%
%ADD21R,0.6000X1.7000*%
%ADD22R,0.8000X1.0000*%
%ADD23R,3.8000X1.8000*%
%ADD24R,2.7000X1.0000*%
%ADD25R,0.7000X0.9000*%
%ADD26R,2.3300X1.5600*%
%ADD27R,0.8000X0.8000*%
%ADD28R,2.0000X0.4000*%
%ADD29R,0.5588X1.3208*%
%ADD30R,0.9000X0.7000*%
%ADD31R,1.0000X0.8000*%
%ADD32R,0.5250X0.3000*%
%ADD33O,0.2845X1.8000*%
%ADD34O,1.8000X0.2845*%
%ADD35R,1.0000X0.2845*%
%ADD36R,0.7000X0.3200*%
%ADD37R,1.0800X0.2600*%
%ADD38R,0.2600X1.0800*%
%ADD65R,1.6500X2.4500*%
%ADD66C,0.3000*%
%ADD67C,0.8000*%
%ADD68C,1.0000*%
%ADD69C,0.9000*%
%ADD70C,3.0000*%
%ADD71O,1.8000X0.9000*%
%ADD72C,0.6000*%
%ADD73O,0.9000X1.5000*%
%ADD74C,0.8500*%
%ADD75C,0.7000*%
G36*
X482201Y262444D02*
Y-13194D01*
X463444Y-31951D01*
X396008D01*
X395600Y-30850D01*
X395600Y-30681D01*
Y-17250D01*
X389000D01*
X382400D01*
Y-30681D01*
X382400Y-30850D01*
X381992Y-31951D01*
X321508D01*
X321100Y-30850D01*
X321100Y-30681D01*
Y-17250D01*
X314500D01*
X307900D01*
Y-30681D01*
X307900Y-30850D01*
X307492Y-31951D01*
X-12944D01*
X-31451Y-13444D01*
X-31451Y263694D01*
X-13444Y281701D01*
X230150D01*
Y268500D01*
X236750D01*
X243350D01*
Y281701D01*
X304650D01*
Y268500D01*
X311250D01*
X317850D01*
Y281701D01*
X322900D01*
Y268750D01*
X329500D01*
X336100D01*
Y281701D01*
X397401D01*
Y268750D01*
X404001D01*
Y267250D01*
D01*
Y268750D01*
X410600D01*
Y281701D01*
X462944D01*
X482201Y262444D01*
D02*
G37*
%LPC*%
G36*
X185000Y271649D02*
Y268250D01*
X188399D01*
X187824Y269639D01*
X186389Y271073D01*
X185000Y271649D01*
D02*
G37*
G36*
X182000D02*
X180611Y271073D01*
X179176Y269639D01*
X178601Y268250D01*
X182000D01*
Y271649D01*
D02*
G37*
G36*
X128000Y270399D02*
Y267000D01*
X131399D01*
X130824Y268389D01*
X129389Y269823D01*
X128000Y270399D01*
D02*
G37*
G36*
X125000D02*
X123611Y269823D01*
X122176Y268389D01*
X121601Y267000D01*
X125000D01*
Y270399D01*
D02*
G37*
G36*
X105250Y270149D02*
Y266750D01*
X108649D01*
X108074Y268139D01*
X106639Y269574D01*
X105250Y270149D01*
D02*
G37*
G36*
X102250D02*
X100861Y269574D01*
X99426Y268139D01*
X98851Y266750D01*
X102250D01*
Y270149D01*
D02*
G37*
G36*
X266750Y274350D02*
X255500D01*
X254505Y274152D01*
X253662Y273589D01*
X244523Y264450D01*
X243350Y264936D01*
Y265500D01*
X238250D01*
Y251900D01*
X238420D01*
X238906Y250727D01*
X226229Y238050D01*
X216450D01*
X216199Y238000D01*
X187802D01*
X187316Y239173D01*
X198443Y250300D01*
X204950D01*
Y262700D01*
X194550D01*
Y254193D01*
X191120Y250764D01*
X189850Y251290D01*
Y255000D01*
X186250D01*
Y250400D01*
X188960D01*
X189486Y249130D01*
X179354Y238997D01*
X178757Y238104D01*
X178736Y238000D01*
X178000D01*
Y237900D01*
X177500D01*
Y230900D01*
X176000D01*
Y229400D01*
X173100D01*
Y225750D01*
X169120D01*
X169099Y225764D01*
X167850Y226013D01*
X167213D01*
Y232800D01*
X166964Y234049D01*
X166257Y235107D01*
X150905Y250459D01*
X151062Y251250D01*
X150619Y253474D01*
X150450Y253727D01*
Y257950D01*
X139050D01*
Y251811D01*
X138939Y251250D01*
X139050Y250688D01*
Y244550D01*
X147586D01*
X160687Y231448D01*
Y224947D01*
X159514Y224461D01*
X157794Y226181D01*
Y226459D01*
X157584Y227513D01*
X156987Y228406D01*
X156987Y228406D01*
X151450Y233943D01*
Y237450D01*
X128050D01*
Y230050D01*
X147557D01*
X150987Y226620D01*
X150461Y225350D01*
X141250D01*
Y223250D01*
X151350D01*
Y223593D01*
X151856Y223767D01*
X152620Y223804D01*
X153094Y223094D01*
X160085Y216103D01*
X160085Y216103D01*
X160580Y215773D01*
X160549Y214503D01*
X149750D01*
X148696Y214293D01*
X147803Y213696D01*
X147557Y213450D01*
X128050D01*
Y206050D01*
X146929D01*
X147415Y204877D01*
X138041Y195503D01*
X135000D01*
X134734Y195450D01*
X127300D01*
Y183050D01*
X137700D01*
Y189997D01*
X139182D01*
X140235Y190207D01*
X140877Y190636D01*
X141203Y190538D01*
X141693Y190268D01*
X142050Y189929D01*
Y188216D01*
X142300Y187612D01*
Y183050D01*
X145923D01*
X148458Y180515D01*
Y168450D01*
X147550D01*
Y161827D01*
X143023Y157300D01*
X141850Y157786D01*
Y160250D01*
X137750D01*
Y155150D01*
X139214D01*
X139700Y153977D01*
X133315Y147592D01*
X125800D01*
X125800Y147592D01*
X123966Y147227D01*
X122412Y146189D01*
X105462Y129239D01*
X104423Y127684D01*
X104058Y125850D01*
X104058Y125850D01*
Y73335D01*
X100923Y70200D01*
X97300D01*
Y66741D01*
X96800Y65534D01*
Y63466D01*
X97300Y62259D01*
Y57800D01*
X107700D01*
Y63423D01*
X110614Y66337D01*
X111788Y65851D01*
Y28902D01*
X103336Y20450D01*
X97550D01*
Y8050D01*
X107950D01*
Y15836D01*
X117357Y25243D01*
X118065Y26302D01*
X118313Y27550D01*
Y48422D01*
X119583Y48808D01*
X119873Y48373D01*
X121873Y46373D01*
X121387Y45200D01*
X120550D01*
Y33800D01*
X132187D01*
Y28100D01*
X128750D01*
Y22500D01*
Y16900D01*
X128902D01*
X129388Y15726D01*
X120911Y7250D01*
X120487D01*
X119239Y7002D01*
X118180Y6294D01*
X105948Y-5937D01*
X80990D01*
X80399Y-4667D01*
X81200Y-2733D01*
Y-267D01*
X80256Y2012D01*
X78512Y3756D01*
X76233Y4700D01*
X73766D01*
X71488Y3756D01*
X69744Y2012D01*
X69437Y1272D01*
X68063D01*
X67756Y2012D01*
X66012Y3756D01*
X63733Y4700D01*
X61267D01*
X58988Y3756D01*
X57244Y2012D01*
X56937Y1272D01*
X55563D01*
X55256Y2012D01*
X53512Y3756D01*
X51233Y4700D01*
X48767D01*
X46488Y3756D01*
X44744Y2012D01*
X44383Y1141D01*
X43008D01*
X42671Y1955D01*
X40955Y3671D01*
X39000Y4481D01*
Y-1500D01*
Y-7481D01*
X40955Y-6671D01*
X42671Y-4955D01*
X43008Y-4141D01*
X44383D01*
X44744Y-5012D01*
X46488Y-6756D01*
X48767Y-7700D01*
X51233D01*
X51483Y-7597D01*
X60093Y-16207D01*
X61151Y-16914D01*
X62400Y-17163D01*
X111022D01*
X112271Y-16914D01*
X113329Y-16207D01*
X164307Y34771D01*
X165014Y35829D01*
X165263Y37078D01*
Y42084D01*
X166533Y42881D01*
X167250Y42739D01*
X168469Y42981D01*
X169501Y43671D01*
X169999D01*
X171032Y42981D01*
X172250Y42739D01*
X173468Y42981D01*
X174501Y43671D01*
X174999D01*
X176032Y42981D01*
X177250Y42739D01*
X178469Y42981D01*
X178789Y43195D01*
X179750Y43573D01*
X180711Y43195D01*
X181032Y42981D01*
X182250Y42739D01*
X183468Y42981D01*
X183790Y43196D01*
X184750Y43573D01*
X185711Y43196D01*
X186032Y42981D01*
X187250Y42739D01*
X188469Y42981D01*
X188789Y43195D01*
X188839Y43215D01*
X189363Y42894D01*
X189549Y41298D01*
X183763Y35513D01*
X179250D01*
X178001Y35264D01*
X176943Y34557D01*
X160336Y17950D01*
X152550D01*
Y7550D01*
X164950D01*
Y13336D01*
X180602Y28987D01*
X185115D01*
X186363Y29236D01*
X187422Y29943D01*
X199935Y42456D01*
X200516Y43326D01*
X201032Y42981D01*
X202250Y42739D01*
X203468Y42981D01*
X203789Y43196D01*
X204750Y43573D01*
X205711Y43196D01*
X206032Y42981D01*
X207250Y42739D01*
X208468Y42981D01*
X209501Y43671D01*
X210767Y43279D01*
X211071Y43075D01*
X211165Y43057D01*
X211583Y41679D01*
X203218Y33313D01*
X200139D01*
X198988Y33084D01*
X198012Y32432D01*
X198012Y32432D01*
X185030Y19450D01*
X175884D01*
Y8050D01*
X189284D01*
Y15196D01*
X201385Y27298D01*
X204464D01*
X204928Y27390D01*
X205692Y26247D01*
X205402Y25814D01*
X205154Y24565D01*
Y17950D01*
X199217D01*
Y7550D01*
X211616D01*
Y14435D01*
X211679Y14750D01*
Y23214D01*
X242714Y54249D01*
X243888Y53763D01*
Y51607D01*
X229443Y37163D01*
X228736Y36104D01*
X228487Y34856D01*
Y17950D01*
X222550D01*
Y7550D01*
X234950D01*
Y14435D01*
X235013Y14750D01*
Y33504D01*
X248217Y46709D01*
X249487Y46183D01*
Y9750D01*
X249736Y8501D01*
X250443Y7443D01*
X255800Y2086D01*
Y-700D01*
X279200D01*
Y6700D01*
X260414D01*
X256984Y10130D01*
X257510Y11400D01*
X266000D01*
Y15000D01*
Y18600D01*
X256013D01*
Y23300D01*
X279200D01*
Y30700D01*
X262263D01*
Y63162D01*
X263062Y63544D01*
X263533Y63603D01*
X268050Y59086D01*
Y50300D01*
X270863D01*
Y47200D01*
X269300D01*
Y34800D01*
X279700D01*
Y45526D01*
X280874Y46012D01*
X284300Y42586D01*
Y34800D01*
X287242D01*
Y34550D01*
X287472Y32801D01*
X288148Y31171D01*
X289221Y29771D01*
X290621Y28698D01*
X292251Y28022D01*
X294000Y27792D01*
X295749Y28022D01*
X297379Y28698D01*
X298778Y29771D01*
X298989Y30046D01*
X300257Y30129D01*
X309443Y20943D01*
X310501Y20236D01*
X311750Y19987D01*
X328300D01*
Y6050D01*
X337700D01*
Y26450D01*
X331815D01*
X331500Y26513D01*
X313101D01*
X300704Y38910D01*
X300527Y40249D01*
X299852Y41879D01*
X298778Y43278D01*
X297379Y44352D01*
X295749Y45027D01*
X294700Y45166D01*
Y47200D01*
X288914D01*
X286888Y49227D01*
X287374Y50400D01*
X289250D01*
Y57000D01*
Y63600D01*
X285150D01*
X285013Y64500D01*
X284764Y65748D01*
X284591Y66008D01*
X285355Y67150D01*
X289000D01*
Y73750D01*
Y80350D01*
X285510D01*
X284984Y81620D01*
X286760Y83395D01*
X286980Y83304D01*
X289048D01*
X290960Y84096D01*
X292422Y85559D01*
X293144Y87300D01*
X293950D01*
Y99700D01*
X283550D01*
Y93065D01*
X283487Y92750D01*
Y91164D01*
X282814Y89539D01*
Y88678D01*
X274586Y80450D01*
X272414D01*
X269935Y82929D01*
Y87300D01*
X278950D01*
Y99700D01*
X274598D01*
X274190Y100970D01*
X275337Y102116D01*
X276113Y103991D01*
Y106019D01*
X276200Y106150D01*
X278850D01*
Y110750D01*
X273750D01*
Y113750D01*
X278850D01*
Y113797D01*
X280050Y113966D01*
X280842Y112054D01*
X282304Y110592D01*
X284216Y109800D01*
X286284D01*
X288196Y110592D01*
X289658Y112054D01*
X289900Y112639D01*
X291221Y112509D01*
X291231Y112463D01*
X291938Y111404D01*
X297202Y106140D01*
Y99286D01*
X297450Y98037D01*
X298157Y96979D01*
X319300Y75836D01*
Y74216D01*
X320092Y72304D01*
X321554Y70842D01*
X323466Y70050D01*
X325534D01*
X327446Y70842D01*
X328908Y72304D01*
X329700Y74216D01*
Y76284D01*
X328982Y78017D01*
X329476Y79287D01*
X333400D01*
Y76250D01*
X340000D01*
Y74750D01*
X341500D01*
Y69150D01*
X346600D01*
Y71157D01*
X347870Y71868D01*
X349233Y71304D01*
X351301D01*
X351800Y70971D01*
Y69800D01*
X352688D01*
Y66700D01*
X351800D01*
Y56300D01*
X364200D01*
Y59524D01*
X364869Y60526D01*
X365312Y62750D01*
X364869Y64974D01*
X364312Y65808D01*
Y74500D01*
X364312Y74500D01*
X364200Y75061D01*
Y79941D01*
X371195D01*
X371300Y79836D01*
Y70050D01*
X383700D01*
Y78776D01*
X384874Y79262D01*
X386050Y78086D01*
Y77216D01*
X386842Y75304D01*
X388304Y73842D01*
X390216Y73050D01*
X392284D01*
X394196Y73842D01*
X395658Y75304D01*
X396450Y77216D01*
Y79284D01*
X395658Y81196D01*
X394574Y82280D01*
X395100Y83550D01*
X401311D01*
X401750Y83492D01*
X403000D01*
X403439Y83550D01*
X418200D01*
Y96950D01*
X408508D01*
Y98550D01*
X418200D01*
Y111950D01*
X387800D01*
Y98550D01*
X394992D01*
Y96950D01*
X387800D01*
Y87223D01*
X386627Y86737D01*
X383700Y89664D01*
Y95449D01*
X371300D01*
Y86466D01*
X364200D01*
Y88905D01*
X364264Y89001D01*
X364363Y89496D01*
X365676Y90809D01*
X366468Y92720D01*
Y94789D01*
X365676Y96700D01*
X364213Y98163D01*
X363425Y98489D01*
X363127Y99987D01*
X365557Y102417D01*
X365980Y103050D01*
X367450D01*
Y109450D01*
X368599Y109742D01*
X370504D01*
X370800Y109446D01*
Y103050D01*
X375862D01*
X376466Y102800D01*
X378534D01*
X379138Y103050D01*
X383200D01*
Y113450D01*
X375304D01*
X373877Y114877D01*
X373365Y115219D01*
X373289Y115666D01*
X373386Y116629D01*
X374127Y117123D01*
X375054Y118050D01*
X383200D01*
Y120243D01*
X387800D01*
Y113550D01*
X418200D01*
Y126950D01*
X387800D01*
Y126258D01*
X383200D01*
Y128450D01*
X375455D01*
X375153Y128877D01*
X375195Y129034D01*
X375879Y130050D01*
X377534D01*
X379446Y130842D01*
X380846Y132242D01*
X387800D01*
Y128550D01*
X418200D01*
Y141950D01*
X387800D01*
Y138258D01*
X380846D01*
X379446Y139658D01*
X377534Y140450D01*
X375466D01*
X373554Y139658D01*
X372092Y138196D01*
X371300Y136284D01*
Y134216D01*
X371452Y133848D01*
X370376Y133129D01*
X368725Y134779D01*
Y136178D01*
X368725Y136178D01*
X368496Y137329D01*
X367844Y138305D01*
X367844Y138305D01*
X360258Y145891D01*
Y148342D01*
X361528Y148868D01*
X362304Y148092D01*
X364216Y147300D01*
X366284D01*
X368196Y148092D01*
X369658Y149554D01*
X370066Y150539D01*
X377538Y158011D01*
X378577Y159566D01*
X378942Y161400D01*
Y189250D01*
X387500D01*
Y201473D01*
X388889Y202861D01*
X389927Y204416D01*
X390292Y206250D01*
X390292Y206250D01*
Y235250D01*
X390200Y235713D01*
Y245450D01*
X380800D01*
Y235713D01*
X380708Y235250D01*
Y208250D01*
X360800D01*
X360258Y209295D01*
Y212254D01*
X373054Y225050D01*
X377700D01*
Y245450D01*
X372554D01*
X369177Y248827D01*
X368201Y249479D01*
X367050Y249708D01*
X286450D01*
X285299Y249479D01*
X284323Y248827D01*
X280696Y245200D01*
X275550D01*
Y227613D01*
X274377Y227127D01*
X272450Y229054D01*
Y245200D01*
X263050D01*
Y224800D01*
X262277Y223850D01*
X260382D01*
X259850Y224900D01*
X259850Y225120D01*
Y233500D01*
X255250D01*
X250650D01*
Y226000D01*
X250332Y225719D01*
X249380Y225289D01*
X247784Y225950D01*
X245815D01*
X245500Y226013D01*
X224150D01*
X222902Y225764D01*
X222880Y225750D01*
X219000D01*
Y232850D01*
X227306D01*
X228301Y233048D01*
X229144Y233611D01*
X246138Y250605D01*
X246702Y251449D01*
X246900Y252444D01*
Y258636D01*
X247280Y258892D01*
X248550Y258216D01*
Y257517D01*
X249494Y255238D01*
X251238Y253494D01*
X253517Y252550D01*
X255983D01*
X258262Y253494D01*
X260006Y255238D01*
X260313Y255978D01*
X261687D01*
X261994Y255238D01*
X263738Y253494D01*
X266017Y252550D01*
X268483D01*
X270762Y253494D01*
X272506Y255238D01*
X272813Y255978D01*
X274187D01*
X274494Y255238D01*
X276238Y253494D01*
X278517Y252550D01*
X280983D01*
X283262Y253494D01*
X285006Y255238D01*
X285367Y256109D01*
X286741Y256109D01*
X287078Y255295D01*
X288794Y253579D01*
X290750Y252769D01*
Y258750D01*
Y264731D01*
X288794Y263921D01*
X287078Y262205D01*
X286741Y261391D01*
X285367Y261391D01*
X285006Y262262D01*
X283262Y264006D01*
X280983Y264950D01*
X278517D01*
X277605Y264572D01*
X268588Y273588D01*
X267745Y274152D01*
X266750Y274350D01*
D02*
G37*
G36*
X131399Y264000D02*
X128000D01*
Y260601D01*
X129389Y261176D01*
X130824Y262611D01*
X131399Y264000D01*
D02*
G37*
G36*
X125000D02*
X121601D01*
X122176Y262611D01*
X123611Y261176D01*
X125000Y260601D01*
Y264000D01*
D02*
G37*
G36*
X108649Y263750D02*
X105250D01*
Y260351D01*
X106639Y260926D01*
X108074Y262361D01*
X108649Y263750D01*
D02*
G37*
G36*
X102250D02*
X98851D01*
X99426Y262361D01*
X100861Y260926D01*
X102250Y260351D01*
Y263750D01*
D02*
G37*
G36*
X293750Y264731D02*
Y260250D01*
X298231D01*
X297421Y262205D01*
X295705Y263921D01*
X293750Y264731D01*
D02*
G37*
G36*
X188399Y265250D02*
X178601D01*
X179176Y263861D01*
X179273Y263764D01*
X179650Y262600D01*
X179650D01*
X179650Y262600D01*
Y258000D01*
X184750D01*
X189850D01*
Y262600D01*
X188222D01*
X187736Y263774D01*
X187824Y263861D01*
X188399Y265250D01*
D02*
G37*
G36*
X109600Y258350D02*
X105500D01*
Y253250D01*
X109600D01*
Y258350D01*
D02*
G37*
G36*
X102500D02*
X98400D01*
Y253250D01*
X102500D01*
Y258350D01*
D02*
G37*
G36*
X298231Y257250D02*
X293750D01*
Y252769D01*
X295705Y253579D01*
X297421Y255295D01*
X298231Y257250D01*
D02*
G37*
G36*
X133350Y257850D02*
X129250D01*
Y252750D01*
X133350D01*
Y257850D01*
D02*
G37*
G36*
X126250D02*
X122150D01*
Y252750D01*
X126250D01*
Y257850D01*
D02*
G37*
G36*
X410600Y265750D02*
X405500D01*
Y252150D01*
X410600D01*
Y265750D01*
D02*
G37*
G36*
X402500D02*
X397401D01*
Y252150D01*
X402500D01*
Y265750D01*
D02*
G37*
G36*
X336100D02*
X331000D01*
Y252150D01*
X336100D01*
Y265750D01*
D02*
G37*
G36*
X328000D02*
X322900D01*
Y252150D01*
X328000D01*
Y265750D01*
D02*
G37*
G36*
X317850Y265500D02*
X312750D01*
Y251900D01*
X317850D01*
Y265500D01*
D02*
G37*
G36*
X309750D02*
X304650D01*
Y251900D01*
X309750D01*
Y265500D01*
D02*
G37*
G36*
X235250Y265500D02*
X230150D01*
Y251900D01*
X235250D01*
Y265500D01*
D02*
G37*
G36*
X183250Y255000D02*
X179650D01*
Y250400D01*
X183250D01*
Y255000D01*
D02*
G37*
G36*
X109600Y250250D02*
X105500D01*
Y245150D01*
X109600D01*
Y250250D01*
D02*
G37*
G36*
X102500D02*
X98400D01*
Y245150D01*
X102500D01*
Y250250D01*
D02*
G37*
G36*
X133350Y249750D02*
X129250D01*
Y244650D01*
X133350D01*
Y249750D01*
D02*
G37*
G36*
X126250D02*
X122150D01*
Y244650D01*
X126250D01*
Y249750D01*
D02*
G37*
G36*
X259850Y245100D02*
X256750D01*
Y236500D01*
X259850D01*
Y245100D01*
D02*
G37*
G36*
X253750D02*
X250650D01*
Y236500D01*
X253750D01*
Y245100D01*
D02*
G37*
G36*
X1645Y266700D02*
X-1645D01*
X-4871Y266058D01*
X-7910Y264799D01*
X-10646Y262972D01*
X-12972Y260646D01*
X-14799Y257910D01*
X-16058Y254871D01*
X-16700Y251645D01*
Y248355D01*
X-16058Y245129D01*
X-14799Y242090D01*
X-12972Y239354D01*
X-10646Y237028D01*
X-7910Y235201D01*
X-4871Y233942D01*
X-1645Y233300D01*
X1645D01*
X4871Y233942D01*
X7910Y235201D01*
X10646Y237028D01*
X12972Y239354D01*
X14799Y242090D01*
X16058Y245129D01*
X16700Y248355D01*
Y251645D01*
X16058Y254871D01*
X14799Y257910D01*
X12972Y260646D01*
X10646Y262972D01*
X7910Y264799D01*
X4871Y266058D01*
X1645Y266700D01*
D02*
G37*
G36*
X174500Y237900D02*
X173100D01*
Y232400D01*
X174500D01*
Y237900D01*
D02*
G37*
G36*
X121250Y226649D02*
X119861Y226074D01*
X118426Y224639D01*
X117851Y223250D01*
X121250D01*
Y226649D01*
D02*
G37*
G36*
X109391Y236988D02*
X100403D01*
Y220380D01*
X109391D01*
Y236988D01*
D02*
G37*
G36*
X151350Y220250D02*
X141250D01*
Y218150D01*
X151350D01*
Y220250D01*
D02*
G37*
G36*
X124250Y226649D02*
Y221750D01*
Y216851D01*
X125639Y217426D01*
X126880Y218668D01*
X127795Y218470D01*
X128150Y218278D01*
Y218150D01*
X138250D01*
Y221750D01*
Y225350D01*
X128150D01*
Y225222D01*
X127795Y225030D01*
X126880Y224832D01*
X125639Y226074D01*
X124250Y226649D01*
D02*
G37*
G36*
X121250Y220250D02*
X117851D01*
X118426Y218861D01*
X119861Y217426D01*
X121250Y216851D01*
Y220250D01*
D02*
G37*
G36*
X3100Y201850D02*
X-1000D01*
Y197750D01*
X3100D01*
Y201850D01*
D02*
G37*
G36*
X-4000D02*
X-8100D01*
Y197750D01*
X-4000D01*
Y201850D01*
D02*
G37*
G36*
X3100Y194750D02*
X-1000D01*
Y190650D01*
X3100D01*
Y194750D01*
D02*
G37*
G36*
X-4000D02*
X-8100D01*
Y190650D01*
X-4000D01*
Y194750D01*
D02*
G37*
G36*
X92700Y258450D02*
X81300D01*
Y252311D01*
X81188Y251750D01*
Y231891D01*
X75080D01*
X72856Y231449D01*
X70971Y230189D01*
X70970Y230189D01*
X43231Y202450D01*
X40050D01*
Y198727D01*
X39881Y198474D01*
X39438Y196250D01*
X39881Y194026D01*
X40050Y193772D01*
Y190050D01*
X50450D01*
Y193231D01*
X77487Y220268D01*
X84895D01*
X85456Y220380D01*
X90595D01*
Y222879D01*
X92109Y223891D01*
X93369Y225776D01*
X93812Y228000D01*
X93369Y230224D01*
X92811Y231059D01*
Y251750D01*
X92700Y252311D01*
Y253034D01*
X92700Y253035D01*
Y258450D01*
D02*
G37*
G36*
X29750Y202562D02*
X13001D01*
X10777Y202119D01*
X10523Y201950D01*
X6800D01*
Y196811D01*
X6689Y196250D01*
X6800Y195688D01*
Y190550D01*
X11939D01*
X12500Y190438D01*
X13062Y190550D01*
X18200D01*
Y190938D01*
X25050D01*
Y190050D01*
X35450D01*
Y196188D01*
X35562Y196750D01*
X35450Y197312D01*
Y202450D01*
X30313D01*
X29750Y202562D01*
D02*
G37*
G36*
X470600Y198350D02*
X451500D01*
Y189250D01*
X470600D01*
Y198350D01*
D02*
G37*
G36*
X419750Y192649D02*
Y189250D01*
X423149D01*
X422574Y190639D01*
X421139Y192074D01*
X419750Y192649D01*
D02*
G37*
G36*
X416750D02*
X415361Y192074D01*
X413926Y190639D01*
X413351Y189250D01*
X416750D01*
Y192649D01*
D02*
G37*
G36*
X448500Y198350D02*
X429400D01*
Y189250D01*
X448500D01*
Y198350D01*
D02*
G37*
G36*
X423149Y186250D02*
X419750D01*
Y182851D01*
X421139Y183426D01*
X422574Y184861D01*
X423149Y186250D01*
D02*
G37*
G36*
X416750D02*
X413351D01*
X413926Y184861D01*
X415361Y183426D01*
X416750Y182851D01*
Y186250D01*
D02*
G37*
G36*
X109600Y186600D02*
X105500D01*
Y181500D01*
X109600D01*
Y186600D01*
D02*
G37*
G36*
X90595Y213620D02*
Y213620D01*
X89877Y213620D01*
X81607D01*
Y206814D01*
X81309Y205316D01*
X81515Y204280D01*
Y186700D01*
X81300D01*
Y173300D01*
X82208D01*
Y152188D01*
X75179Y145159D01*
X74050Y145826D01*
Y152100D01*
X73950D01*
Y152300D01*
X68850D01*
Y153800D01*
X67350D01*
Y157000D01*
X67161D01*
X66635Y158270D01*
X67294Y158929D01*
X68200Y161116D01*
Y163483D01*
X67294Y165670D01*
X65620Y167344D01*
X63433Y168250D01*
X61066D01*
X59739Y167700D01*
X58469Y168549D01*
Y169350D01*
X57996Y171730D01*
X56648Y173748D01*
X54630Y175096D01*
X54450Y175132D01*
X54130Y175346D01*
X51750Y175819D01*
X48750D01*
Y169600D01*
X47250D01*
Y168100D01*
X36829D01*
X37004Y167220D01*
X38352Y165202D01*
X40370Y163854D01*
X42750Y163380D01*
X46030D01*
Y163350D01*
X46504Y160970D01*
X47852Y158952D01*
X49870Y157604D01*
X50720Y157435D01*
X51471Y155991D01*
X51346Y155687D01*
X49977Y154879D01*
X49685Y155000D01*
X47815D01*
X46088Y154284D01*
X44766Y152962D01*
X44050Y151235D01*
Y149365D01*
X44766Y147638D01*
X45274Y147129D01*
X46073Y146300D01*
X45274Y145470D01*
X44766Y144962D01*
X44050Y143235D01*
Y141365D01*
X44766Y139637D01*
X45274Y139129D01*
X46073Y138300D01*
X45274Y137470D01*
X44766Y136962D01*
X44050Y135235D01*
Y133365D01*
X44766Y131638D01*
X46088Y130315D01*
X47815Y129600D01*
X49685D01*
X49877Y129679D01*
X51253Y128875D01*
X51766Y127638D01*
X52274Y127130D01*
X53073Y126300D01*
X52274Y125470D01*
X51766Y124962D01*
X51253Y123725D01*
X49877Y122921D01*
X49685Y123000D01*
X47815D01*
X46088Y122284D01*
X44766Y120962D01*
X44050Y119235D01*
Y117365D01*
X44766Y115638D01*
X45274Y115130D01*
X46073Y114300D01*
X45274Y113470D01*
X44766Y112962D01*
X44050Y111235D01*
Y109365D01*
X44766Y107638D01*
X45274Y107130D01*
X46073Y106300D01*
X45274Y105470D01*
X44766Y104962D01*
X44050Y103235D01*
Y101365D01*
X44766Y99638D01*
X46088Y98315D01*
X47815Y97600D01*
X49685D01*
X49977Y97721D01*
X51346Y96913D01*
X51471Y96610D01*
X50720Y95165D01*
X49870Y94996D01*
X47852Y93648D01*
X46504Y91630D01*
X46030Y89250D01*
Y89220D01*
X42750D01*
X40370Y88746D01*
X38352Y87398D01*
X37004Y85380D01*
X36829Y84500D01*
X47250D01*
Y83000D01*
X48750D01*
Y76781D01*
X51750D01*
X53773Y77183D01*
X54427Y76041D01*
X47943Y69557D01*
X47236Y68499D01*
X46987Y67250D01*
Y66950D01*
X43050D01*
Y63904D01*
X42842Y63696D01*
X42050Y61784D01*
Y59716D01*
X42842Y57804D01*
X43050Y57596D01*
Y54550D01*
X48302D01*
X48788Y53377D01*
X47037Y51625D01*
X44262D01*
X43014Y51377D01*
X41955Y50669D01*
X33793Y42507D01*
X33086Y41449D01*
X32837Y40200D01*
Y34650D01*
X33086Y33401D01*
X33793Y32343D01*
X39890Y26246D01*
X40948Y25539D01*
X42197Y25291D01*
X52176D01*
X52566Y25213D01*
X53271Y25353D01*
X58376D01*
Y21706D01*
X57054Y21158D01*
X55592Y19696D01*
X54800Y17784D01*
Y15716D01*
X55592Y13804D01*
X57054Y12342D01*
X58966Y11550D01*
X61034D01*
X62946Y12342D01*
X64408Y13804D01*
X65200Y15716D01*
Y17784D01*
X64771Y18819D01*
X64901Y19471D01*
Y25353D01*
X69133D01*
X69838Y25213D01*
X71909D01*
X82180Y14943D01*
X82550Y14695D01*
Y8050D01*
X92950D01*
Y20450D01*
X86065D01*
X85860Y20491D01*
X76538Y29812D01*
Y31598D01*
X75700D01*
Y35237D01*
X82300D01*
Y32801D01*
X92700D01*
Y45201D01*
X90763D01*
Y57800D01*
X92700D01*
Y70200D01*
X82300D01*
Y57800D01*
X84237D01*
Y45201D01*
X82300D01*
Y41762D01*
X69000D01*
X68295Y41622D01*
X62300D01*
Y36244D01*
X61530Y35729D01*
X60823Y35023D01*
X59700Y35696D01*
Y41622D01*
X56263D01*
Y44976D01*
X64792Y53505D01*
X65499Y54564D01*
X65747Y55812D01*
Y57906D01*
X66196Y58092D01*
X67658Y59554D01*
X68450Y61466D01*
Y63534D01*
X67658Y65446D01*
X66196Y66908D01*
X65063Y67378D01*
X64762Y68873D01*
X71103Y75214D01*
X75349D01*
X76597Y75462D01*
X77656Y76170D01*
X78280Y76794D01*
X79550Y76268D01*
Y75966D01*
X80342Y74054D01*
X81804Y72592D01*
X83716Y71800D01*
X85784D01*
X87696Y72592D01*
X89158Y74054D01*
X89566Y75039D01*
X99738Y85211D01*
X99739Y85211D01*
X100777Y86766D01*
X101142Y88600D01*
Y107000D01*
Y132251D01*
X101142Y132251D01*
X100777Y134085D01*
X99739Y135640D01*
X99738Y135640D01*
X91792Y143586D01*
Y150203D01*
Y173300D01*
X92700D01*
Y185708D01*
X96728D01*
X96728Y185708D01*
X97130Y185788D01*
X98400Y184746D01*
Y181500D01*
X102500D01*
Y186600D01*
X101401D01*
X100875Y187870D01*
X108080Y195074D01*
X109119Y196629D01*
X109195Y197012D01*
X109391D01*
Y198000D01*
X109483Y198463D01*
Y204280D01*
X109689Y205316D01*
X109391Y206814D01*
Y213620D01*
X101673D01*
X100403Y213620D01*
X100403Y213620D01*
X99175Y213520D01*
X96999D01*
Y205316D01*
X93999D01*
Y213520D01*
X91105D01*
Y213520D01*
X91098Y213521D01*
X90595Y213620D01*
D02*
G37*
G36*
X470600Y186250D02*
X451500D01*
Y177150D01*
X470600D01*
Y186250D01*
D02*
G37*
G36*
X448500D02*
X429400D01*
Y177150D01*
X448500D01*
Y186250D01*
D02*
G37*
G36*
X109600Y178500D02*
X105500D01*
Y173400D01*
X109600D01*
Y178500D01*
D02*
G37*
G36*
X102500D02*
X98400D01*
Y173400D01*
X102500D01*
Y178500D01*
D02*
G37*
G36*
X45750Y175819D02*
X42750D01*
X40370Y175346D01*
X38352Y173998D01*
X37004Y171980D01*
X36829Y171100D01*
X45750D01*
Y175819D01*
D02*
G37*
G36*
X-5250D02*
X-8250D01*
Y171100D01*
X671D01*
X496Y171980D01*
X-852Y173998D01*
X-2870Y175346D01*
X-5250Y175819D01*
D02*
G37*
G36*
X-11250D02*
X-14250D01*
X-16630Y175346D01*
X-18648Y173998D01*
X-19996Y171980D01*
X-20171Y171100D01*
X-11250D01*
Y175819D01*
D02*
G37*
G36*
X418100Y171850D02*
X404500D01*
Y166750D01*
X418100D01*
Y171850D01*
D02*
G37*
G36*
X401500D02*
X387900D01*
Y166750D01*
X401500D01*
Y171850D01*
D02*
G37*
G36*
X671Y168100D02*
X-8250D01*
Y163380D01*
X-5250D01*
X-2870Y163854D01*
X-852Y165202D01*
X496Y167220D01*
X671Y168100D01*
D02*
G37*
G36*
X-11250D02*
X-20171D01*
X-19996Y167220D01*
X-18648Y165202D01*
X-16630Y163854D01*
X-14250Y163380D01*
X-11250D01*
Y168100D01*
D02*
G37*
G36*
X141850Y168350D02*
X137750D01*
Y163250D01*
X141850D01*
Y168350D01*
D02*
G37*
G36*
X134750D02*
X130650D01*
Y163250D01*
X134750D01*
Y168350D01*
D02*
G37*
G36*
X418100Y163750D02*
X404500D01*
Y158650D01*
X418100D01*
Y163750D01*
D02*
G37*
G36*
X401500D02*
X387900D01*
Y158650D01*
X401500D01*
Y163750D01*
D02*
G37*
G36*
X73950Y157000D02*
X70350D01*
Y155300D01*
X73950D01*
Y157000D01*
D02*
G37*
G36*
X134750Y160250D02*
X130650D01*
Y155150D01*
X134750D01*
Y160250D01*
D02*
G37*
G36*
X418100Y156850D02*
X404500D01*
Y151750D01*
X418100D01*
Y156850D01*
D02*
G37*
G36*
X401500D02*
X387900D01*
Y151750D01*
X401500D01*
Y156850D01*
D02*
G37*
G36*
X418100Y148750D02*
X404500D01*
Y143650D01*
X418100D01*
Y148750D01*
D02*
G37*
G36*
X401500D02*
X387900D01*
Y143650D01*
X401500D01*
Y148750D01*
D02*
G37*
G36*
X454250Y116149D02*
Y112750D01*
X457649D01*
X457074Y114139D01*
X455639Y115574D01*
X454250Y116149D01*
D02*
G37*
G36*
X451250D02*
X449861Y115574D01*
X448426Y114139D01*
X447851Y112750D01*
X451250D01*
Y116149D01*
D02*
G37*
G36*
X457649Y109750D02*
X454250D01*
Y106351D01*
X455639Y106926D01*
X457074Y108361D01*
X457649Y109750D01*
D02*
G37*
G36*
X451250D02*
X447851D01*
X448426Y108361D01*
X449861Y106926D01*
X451250Y106351D01*
Y109750D01*
D02*
G37*
G36*
X-5250Y89220D02*
X-8250D01*
Y84500D01*
X671D01*
X496Y85380D01*
X-852Y87398D01*
X-2870Y88746D01*
X-5250Y89220D01*
D02*
G37*
G36*
X-11250D02*
X-14250D01*
X-16630Y88746D01*
X-18648Y87398D01*
X-19996Y85380D01*
X-20171Y84500D01*
X-11250D01*
Y89220D01*
D02*
G37*
G36*
X45750Y81500D02*
X36829D01*
X37004Y80620D01*
X38352Y78602D01*
X40370Y77254D01*
X42750Y76781D01*
X45750D01*
Y81500D01*
D02*
G37*
G36*
X671D02*
X-8250D01*
Y76781D01*
X-5250D01*
X-2870Y77254D01*
X-852Y78602D01*
X496Y80620D01*
X671Y81500D01*
D02*
G37*
G36*
X-11250D02*
X-20171D01*
X-19996Y80620D01*
X-18648Y78602D01*
X-16630Y77254D01*
X-14250Y76781D01*
X-11250D01*
Y81500D01*
D02*
G37*
G36*
X296100Y80350D02*
X292000D01*
Y75250D01*
X296100D01*
Y80350D01*
D02*
G37*
G36*
X470600Y78350D02*
X451500D01*
Y69250D01*
X470600D01*
Y78350D01*
D02*
G37*
G36*
X448500D02*
X429400D01*
Y69250D01*
X448500D01*
Y78350D01*
D02*
G37*
G36*
X338500Y73250D02*
X333400D01*
Y69150D01*
X338500D01*
Y73250D01*
D02*
G37*
G36*
X296100Y72250D02*
X292000D01*
Y67150D01*
X296100D01*
Y72250D01*
D02*
G37*
G36*
X448500Y66250D02*
X429400D01*
Y65194D01*
X428130Y64345D01*
X428000Y64399D01*
Y59500D01*
Y54601D01*
X429389Y55176D01*
X430824Y56611D01*
X431047Y57150D01*
X448500D01*
Y66250D01*
D02*
G37*
G36*
X7850Y66350D02*
X3750D01*
Y62250D01*
X7850D01*
Y66350D01*
D02*
G37*
G36*
X750D02*
X-3350D01*
Y62250D01*
X750D01*
Y66350D01*
D02*
G37*
G36*
X425000Y64399D02*
X423611Y63824D01*
X422176Y62389D01*
X421601Y61000D01*
X425000D01*
Y64399D01*
D02*
G37*
G36*
X292250Y63600D02*
Y58500D01*
X296350D01*
Y63600D01*
X292250D01*
D02*
G37*
G36*
X470600Y66250D02*
X451500D01*
Y57150D01*
X470600D01*
Y66250D01*
D02*
G37*
G36*
X383950Y67200D02*
X371550D01*
Y63035D01*
X371550Y63035D01*
Y60966D01*
X371550Y60965D01*
Y56800D01*
X383950D01*
Y67200D01*
D02*
G37*
G36*
X341801Y67453D02*
X339732D01*
X337914Y66700D01*
X334300D01*
Y56300D01*
X346700D01*
Y66700D01*
X343619D01*
X341801Y67453D01*
D02*
G37*
G36*
X7850Y59250D02*
X3750D01*
Y55150D01*
X7850D01*
Y59250D01*
D02*
G37*
G36*
X750D02*
X-3350D01*
Y55150D01*
X750D01*
Y59250D01*
D02*
G37*
G36*
X425000Y58000D02*
X421601D01*
X422176Y56611D01*
X423611Y55176D01*
X425000Y54601D01*
Y58000D01*
D02*
G37*
G36*
X38450Y66950D02*
X28050D01*
Y66562D01*
X17250D01*
X16689Y66450D01*
X11550D01*
Y61311D01*
X11438Y60750D01*
X11550Y60189D01*
Y55050D01*
X16689D01*
X17250Y54938D01*
X28050D01*
Y54550D01*
X38450D01*
Y66950D01*
D02*
G37*
G36*
X334300Y51700D02*
X333030Y50934D01*
X331784Y51450D01*
X329716D01*
X327804Y50658D01*
X326342Y49196D01*
X325550Y47284D01*
Y45216D01*
X326342Y43304D01*
X327804Y41842D01*
X329716Y41050D01*
X331784D01*
X333030Y41566D01*
X334300Y41300D01*
Y41300D01*
X334300Y41300D01*
X346700D01*
Y51700D01*
X334300D01*
Y51700D01*
D02*
G37*
G36*
X296350Y55500D02*
X292250D01*
Y50400D01*
X296350D01*
Y55500D01*
D02*
G37*
G36*
X383950Y52200D02*
X371550D01*
Y46414D01*
X359436Y34300D01*
X358263Y34786D01*
Y40300D01*
X359534D01*
X361446Y41092D01*
X361654Y41300D01*
X364200D01*
Y51700D01*
X351800D01*
Y44815D01*
X351737Y44500D01*
Y32602D01*
X345586Y26450D01*
X340800D01*
Y6050D01*
X350200D01*
Y21836D01*
X352127Y23763D01*
X353300Y23277D01*
Y6050D01*
X362700D01*
Y17435D01*
X362763Y17750D01*
Y28398D01*
X373548Y39183D01*
X374624Y38464D01*
X374550Y38284D01*
Y36216D01*
X375342Y34304D01*
X376804Y32842D01*
X378716Y32050D01*
X380784D01*
X382696Y32842D01*
X384158Y34304D01*
X384950Y36216D01*
Y38284D01*
X384351Y39731D01*
Y44941D01*
X384351Y44941D01*
X383986Y46775D01*
X383950Y46829D01*
Y52200D01*
D02*
G37*
G36*
X107700Y45201D02*
X97300D01*
Y32801D01*
X107700D01*
Y45201D01*
D02*
G37*
G36*
X125750Y28100D02*
X120650D01*
Y24000D01*
X125750D01*
Y28100D01*
D02*
G37*
G36*
X375100Y26350D02*
X372000D01*
Y17750D01*
X375100D01*
Y26350D01*
D02*
G37*
G36*
X369000D02*
X365900D01*
Y17750D01*
X369000D01*
Y26350D01*
D02*
G37*
G36*
X125750Y21000D02*
X120650D01*
Y16900D01*
X125750D01*
Y21000D01*
D02*
G37*
G36*
X279100Y18600D02*
X269000D01*
Y16500D01*
X279100D01*
Y18600D01*
D02*
G37*
G36*
Y13500D02*
X269000D01*
Y11400D01*
X279100D01*
Y13500D01*
D02*
G37*
G36*
X375100Y14750D02*
X372000D01*
Y6150D01*
X375100D01*
Y14750D01*
D02*
G37*
G36*
X369000D02*
X365900D01*
Y6150D01*
X369000D01*
Y14750D01*
D02*
G37*
G36*
X36000Y4481D02*
X34044Y3671D01*
X32328Y1955D01*
X31518Y-0D01*
X36000D01*
Y4481D01*
D02*
G37*
G36*
X164850Y2850D02*
X160250D01*
Y-750D01*
X164850D01*
Y2850D01*
D02*
G37*
G36*
X156500D02*
X152650D01*
Y-750D01*
X156500D01*
Y2850D01*
D02*
G37*
G36*
X234850Y2850D02*
X230250D01*
Y-750D01*
X234850D01*
Y2850D01*
D02*
G37*
G36*
X227250D02*
X222650D01*
Y-750D01*
X227250D01*
Y2850D01*
D02*
G37*
G36*
X211516D02*
X206917D01*
Y-750D01*
X211516D01*
Y2850D01*
D02*
G37*
G36*
X203917D02*
X199317D01*
Y-750D01*
X203917D01*
Y2850D01*
D02*
G37*
G36*
X189184Y2350D02*
X184083D01*
Y-1750D01*
X189184D01*
Y2350D01*
D02*
G37*
G36*
X181083D02*
X175984D01*
Y-1750D01*
X181083D01*
Y2350D01*
D02*
G37*
G36*
X164850Y-3750D02*
X160250D01*
Y-7350D01*
X164850D01*
Y-3750D01*
D02*
G37*
G36*
X156500D02*
X152650D01*
Y-7350D01*
X156500D01*
Y-3750D01*
D02*
G37*
G36*
X234850Y-3750D02*
X230250D01*
Y-7350D01*
X234850D01*
Y-3750D01*
D02*
G37*
G36*
X227250D02*
X222650D01*
Y-7350D01*
X227250D01*
Y-3750D01*
D02*
G37*
G36*
X211516D02*
X206917D01*
Y-7350D01*
X211516D01*
Y-3750D01*
D02*
G37*
G36*
X203917D02*
X199317D01*
Y-7350D01*
X203917D01*
Y-3750D01*
D02*
G37*
G36*
X36000Y-3000D02*
X31518D01*
X32328Y-4955D01*
X34044Y-6671D01*
X36000Y-7481D01*
Y-3000D01*
D02*
G37*
G36*
X189184Y-4750D02*
X184083D01*
Y-8850D01*
X189184D01*
Y-4750D01*
D02*
G37*
G36*
X181083D02*
X175984D01*
Y-8850D01*
X181083D01*
Y-4750D01*
D02*
G37*
G36*
X395600Y-650D02*
X390500D01*
Y-14250D01*
X395600D01*
Y-650D01*
D02*
G37*
G36*
X321100D02*
X316000D01*
Y-14250D01*
X321100D01*
Y-650D01*
D02*
G37*
G36*
X387500D02*
X382400D01*
Y-14250D01*
X387500D01*
Y-650D01*
D02*
G37*
G36*
X313000D02*
X307900D01*
Y-14250D01*
X313000D01*
Y-650D01*
D02*
G37*
G36*
X1645Y16700D02*
X-1645D01*
X-4871Y16058D01*
X-7910Y14799D01*
X-10646Y12972D01*
X-12972Y10646D01*
X-14799Y7910D01*
X-16058Y4871D01*
X-16700Y1645D01*
Y-1645D01*
X-16058Y-4871D01*
X-14799Y-7910D01*
X-12972Y-10646D01*
X-10646Y-12972D01*
X-7910Y-14799D01*
X-4871Y-16058D01*
X-1645Y-16700D01*
X1645D01*
X4871Y-16058D01*
X7910Y-14799D01*
X10646Y-12972D01*
X12972Y-10646D01*
X14799Y-7910D01*
X16058Y-4871D01*
X16700Y-1645D01*
Y1645D01*
X16058Y4871D01*
X14799Y7910D01*
X12972Y10646D01*
X10646Y12972D01*
X7910Y14799D01*
X4871Y16058D01*
X1645Y16700D01*
D02*
G37*
%LPD*%
G36*
X343400Y236750D02*
X348000D01*
Y235250D01*
X349500D01*
Y225150D01*
X350850D01*
X351376Y223880D01*
X345004Y217508D01*
X283996D01*
X277877Y223627D01*
X278363Y224800D01*
X284950D01*
Y240946D01*
X286780Y242776D01*
X288050Y242250D01*
Y238404D01*
X287592Y237946D01*
X286800Y236034D01*
Y233966D01*
X287592Y232055D01*
X288050Y231596D01*
Y224800D01*
X297450D01*
Y234537D01*
X297542Y235000D01*
X297450Y235463D01*
Y243692D01*
X343400D01*
Y236750D01*
D02*
G37*
G36*
X280623Y212373D02*
X281599Y211721D01*
X282750Y211492D01*
X342942D01*
Y208250D01*
X318000D01*
Y193274D01*
X316827Y192787D01*
X307057Y202557D01*
X305999Y203264D01*
X304750Y203513D01*
X258011D01*
X257485Y204783D01*
X258197Y205494D01*
X258988Y207405D01*
Y209474D01*
X258938Y209594D01*
X259644Y210650D01*
X261750D01*
Y217250D01*
X263250D01*
Y218750D01*
X268850D01*
Y222350D01*
X270120Y222876D01*
X280623Y212373D01*
D02*
G37*
G36*
X303597Y189338D02*
Y118545D01*
X302327Y117867D01*
X302088Y118028D01*
X301959Y118676D01*
X301252Y119734D01*
X287344Y133642D01*
X286683Y134084D01*
X285950Y135050D01*
Y146450D01*
X279720D01*
X279310Y146860D01*
X277425Y148120D01*
X275200Y148562D01*
X275200Y148562D01*
X265500D01*
X265500Y148562D01*
X264939Y148450D01*
X259800D01*
Y144728D01*
X259631Y144474D01*
X259188Y142250D01*
X259631Y140026D01*
X259800Y139773D01*
Y136051D01*
X270200D01*
Y136939D01*
X272793D01*
X273864Y135868D01*
X273338Y134598D01*
X247201D01*
X246639Y135868D01*
X246805Y136051D01*
X255200D01*
Y148450D01*
X244800D01*
Y145959D01*
X244796Y145957D01*
X242728D01*
X240816Y145165D01*
X239354Y143702D01*
X238998Y142844D01*
X237728Y143097D01*
Y145674D01*
X237480Y146923D01*
X236772Y147982D01*
X227890Y156864D01*
X228376Y158037D01*
X245050D01*
Y151800D01*
X255450D01*
Y164200D01*
X249369D01*
X249199Y164314D01*
X247950Y164562D01*
X247585D01*
X247099Y165736D01*
X249664Y168300D01*
X255450D01*
Y180550D01*
X255450D01*
Y192197D01*
X261150D01*
Y188750D01*
X272350D01*
Y192197D01*
X300738D01*
X303597Y189338D01*
D02*
G37*
G36*
X178000Y223800D02*
X217050D01*
Y219750D01*
X217150D01*
Y219250D01*
X224150D01*
Y216250D01*
X217150D01*
Y215750D01*
X217050D01*
Y209750D01*
Y204750D01*
Y199750D01*
Y194750D01*
Y189750D01*
Y184750D01*
Y181600D01*
X212500D01*
Y174600D01*
X209500D01*
Y181600D01*
X209000D01*
Y181700D01*
X174950D01*
Y184750D01*
Y189750D01*
Y194750D01*
Y200750D01*
X174850D01*
Y201250D01*
X167850D01*
Y204250D01*
X174850D01*
Y204750D01*
X174950D01*
Y209750D01*
Y214750D01*
Y219750D01*
Y223900D01*
X178000D01*
Y223800D01*
D02*
G37*
G36*
X222902Y179736D02*
X224150Y179487D01*
X226499D01*
X228734Y177252D01*
X229793Y176545D01*
X231041Y176296D01*
X242783D01*
X243780Y176495D01*
X245050Y175814D01*
Y172915D01*
X241398Y169262D01*
X218900D01*
Y173100D01*
X216000D01*
Y176100D01*
X218900D01*
Y179750D01*
X222880D01*
X222902Y179736D01*
D02*
G37*
G36*
X369358Y163385D02*
X363289Y157316D01*
X362304Y156908D01*
X361528Y156132D01*
X360258Y156658D01*
Y188204D01*
X360800Y189250D01*
X369358D01*
Y163385D01*
D02*
G37*
G36*
X160750Y189750D02*
Y179750D01*
X173000D01*
Y167500D01*
X177938D01*
Y166527D01*
X178186Y165279D01*
X178893Y164220D01*
X184121Y158993D01*
X185179Y158285D01*
X186428Y158037D01*
X200399D01*
X200885Y156864D01*
X190021Y145999D01*
X189313Y144941D01*
X188050Y145102D01*
X187250Y145261D01*
X186032Y145019D01*
X184999Y144329D01*
X183750Y144716D01*
Y134500D01*
X180750D01*
Y144716D01*
X179501Y144329D01*
X178469Y145019D01*
X177250Y145261D01*
X176032Y145019D01*
X174999Y144329D01*
X174501D01*
X173468Y145019D01*
X172250Y145261D01*
X171032Y145019D01*
X169999Y144329D01*
X168750Y144716D01*
Y134500D01*
X165750D01*
Y145491D01*
X165258Y145792D01*
Y151500D01*
X165029Y152651D01*
X164377Y153627D01*
X158950Y159054D01*
Y168450D01*
X158042D01*
Y182500D01*
X158042Y182500D01*
X157677Y184334D01*
X156639Y185889D01*
X156639Y185889D01*
X152700Y189827D01*
Y190836D01*
X156351Y194487D01*
X160750D01*
Y189750D01*
D02*
G37*
G36*
X159242Y150254D02*
Y142961D01*
X159066Y142078D01*
Y126922D01*
X159244Y126032D01*
X158527Y124762D01*
X149250D01*
X148853Y124683D01*
X141673D01*
X140455Y124441D01*
X139422Y123751D01*
X138732Y122718D01*
X138489Y121500D01*
X138732Y120281D01*
X139422Y119249D01*
Y118751D01*
X138732Y117718D01*
X138489Y116500D01*
X138732Y115282D01*
X138946Y114961D01*
X139324Y114000D01*
X138946Y113039D01*
X138732Y112718D01*
X138489Y111500D01*
X138732Y110281D01*
X139422Y109249D01*
Y108751D01*
X138732Y107718D01*
X138489Y106500D01*
X138732Y105282D01*
X138946Y104961D01*
X139324Y104000D01*
X138946Y103039D01*
X138732Y102718D01*
X138489Y101500D01*
X138732Y100281D01*
X139422Y99249D01*
Y98751D01*
X138732Y97718D01*
X138489Y96500D01*
X138732Y95282D01*
X138376Y94829D01*
X138325Y94810D01*
X137481Y94813D01*
X137288Y95102D01*
X131883Y100507D01*
X130824Y101214D01*
X129576Y101463D01*
X116925D01*
X115676Y101214D01*
X114912Y100704D01*
X113642Y101159D01*
Y123865D01*
X127785Y138008D01*
X135300D01*
X135300Y138008D01*
X137134Y138373D01*
X138689Y139412D01*
X153514Y154236D01*
X155260D01*
X159242Y150254D01*
D02*
G37*
G36*
X363373Y223877D02*
X355123Y215627D01*
X354472Y214651D01*
X354243Y213500D01*
Y144646D01*
X354472Y143494D01*
X355123Y142519D01*
X357862Y139780D01*
X357536Y138310D01*
X356379Y137830D01*
X354944Y136395D01*
X354369Y135007D01*
X359268D01*
Y132007D01*
X354369D01*
X354694Y131220D01*
X353952Y129950D01*
X339550D01*
X339138Y131049D01*
Y169125D01*
X338890Y170373D01*
X338182Y171432D01*
X321538Y188076D01*
X322024Y189250D01*
X342942D01*
Y140546D01*
X342342Y139946D01*
X341550Y138034D01*
Y135966D01*
X342342Y134054D01*
X343804Y132592D01*
X345716Y131800D01*
X347784D01*
X349696Y132592D01*
X351158Y134054D01*
X351950Y135966D01*
Y138034D01*
X351158Y139946D01*
X349696Y141408D01*
X348958Y141714D01*
Y212868D01*
X349130Y213127D01*
X361054Y225050D01*
X362887D01*
X363373Y223877D01*
D02*
G37*
G36*
X222092Y129054D02*
X223554Y127592D01*
X225466Y126800D01*
X227498D01*
Y124683D01*
X222673D01*
X221455Y124441D01*
X220422Y123751D01*
X219732Y122718D01*
X219489Y121500D01*
X219732Y120281D01*
X220422Y119249D01*
Y118751D01*
X219732Y117718D01*
X219489Y116500D01*
X219732Y115282D01*
X219946Y114961D01*
X220324Y114000D01*
X219946Y113039D01*
X219732Y112718D01*
X219489Y111500D01*
X219732Y110281D01*
X220422Y109249D01*
Y108751D01*
X219732Y107718D01*
X219489Y106500D01*
X219732Y105282D01*
X220422Y104249D01*
X220034Y103000D01*
X230250D01*
Y100000D01*
X220034D01*
X220422Y98751D01*
X219732Y97718D01*
X219489Y96500D01*
X219732Y95282D01*
X219946Y94961D01*
X220324Y94000D01*
X219946Y93039D01*
X219732Y92718D01*
X219660Y92357D01*
X218260Y91666D01*
X217085Y92153D01*
X216547D01*
X215387Y93313D01*
X215057Y93807D01*
X213999Y94514D01*
X212750Y94762D01*
X207412D01*
X206886Y96032D01*
X207408Y96554D01*
X208200Y98466D01*
Y100534D01*
X207408Y102446D01*
X205946Y103908D01*
X204034Y104700D01*
X201966D01*
X200054Y103908D01*
X198592Y102446D01*
X197800Y100534D01*
Y99763D01*
X160834D01*
X159919Y101033D01*
X160012Y101500D01*
X159769Y102718D01*
X159555Y103039D01*
X159177Y104000D01*
X159555Y104961D01*
X159769Y105282D01*
X160012Y106500D01*
X159934Y106889D01*
X160886Y108160D01*
X175206D01*
X175350Y107810D01*
X176813Y106347D01*
X178724Y105555D01*
X180793D01*
X182704Y106347D01*
X184167Y107810D01*
X184959Y109721D01*
Y111790D01*
X184790Y112196D01*
X185587Y113485D01*
X186405Y113556D01*
X190968Y108993D01*
X192026Y108286D01*
X193275Y108037D01*
X205543D01*
X206791Y108286D01*
X207850Y108993D01*
X211757Y112900D01*
X212464Y113959D01*
X212713Y115207D01*
Y120775D01*
X212464Y122024D01*
X212133Y122519D01*
X212148Y122672D01*
X212740Y123836D01*
X213468Y123981D01*
X213789Y124196D01*
X214750Y124573D01*
X215711Y124196D01*
X216032Y123981D01*
X217250Y123739D01*
X218468Y123981D01*
X219501Y124671D01*
X220191Y125704D01*
X220434Y126922D01*
Y129738D01*
X221704Y129991D01*
X222092Y129054D01*
D02*
G37*
G36*
X332612Y167773D02*
Y128950D01*
X331550D01*
Y122550D01*
X331550D01*
X331650Y122350D01*
Y120750D01*
X335875D01*
Y117750D01*
X331650D01*
Y117542D01*
X330000D01*
X330000Y117542D01*
X329620Y117466D01*
X328350Y118509D01*
Y121000D01*
X321750D01*
Y122500D01*
X320250D01*
Y128100D01*
X316842D01*
Y130545D01*
X321423Y135125D01*
X321946Y135342D01*
X323408Y136805D01*
X324200Y138716D01*
Y140784D01*
X323408Y142696D01*
X321946Y144158D01*
X320034Y144950D01*
X317966D01*
X316054Y144158D01*
X314592Y142696D01*
X313992Y141249D01*
X310277Y137533D01*
X309103Y138019D01*
Y189487D01*
X310373Y190013D01*
X332612Y167773D01*
D02*
G37*
G36*
X210851Y87988D02*
Y86441D01*
X211050Y85436D01*
X211442Y84490D01*
X212011Y83638D01*
X212736Y82914D01*
X213587Y82345D01*
X214534Y81953D01*
X215538Y81753D01*
X216563D01*
X216980Y81836D01*
X217081Y81753D01*
X217085D01*
X218349Y82277D01*
X219420Y81547D01*
X219509Y81399D01*
X219732Y80282D01*
X220422Y79249D01*
Y78751D01*
X219732Y77718D01*
X219489Y76500D01*
X219732Y75282D01*
X219946Y74961D01*
X220324Y74000D01*
X219946Y73039D01*
X219732Y72718D01*
X219489Y71500D01*
X219732Y70282D01*
X220422Y69249D01*
Y68751D01*
X219732Y67718D01*
X219489Y66500D01*
X219732Y65282D01*
X220422Y64249D01*
X221455Y63559D01*
X222673Y63317D01*
X226988D01*
Y58352D01*
X221704Y53068D01*
X220434Y53500D01*
Y61077D01*
X220191Y62296D01*
X219501Y63329D01*
X218468Y64019D01*
X217268Y64257D01*
X217250Y64261D01*
X216032Y64019D01*
X214999Y63329D01*
X213750Y63716D01*
Y53500D01*
X210750D01*
Y63716D01*
X209501Y63329D01*
X208468Y64019D01*
X207250Y64261D01*
X206032Y64019D01*
X205711Y63804D01*
X204750Y63426D01*
X203789Y63804D01*
X203468Y64019D01*
X202250Y64261D01*
X201032Y64019D01*
X200711Y63804D01*
D01*
X199999Y63329D01*
X199501D01*
X198469Y64019D01*
X197250Y64261D01*
X196032Y64019D01*
X194999Y63329D01*
X194501D01*
X193789Y63804D01*
X193468Y64019D01*
X192250Y64261D01*
X191032Y64019D01*
X190711Y63804D01*
D01*
X189999Y63329D01*
X189501D01*
X188469Y64019D01*
X187250Y64261D01*
X186032Y64019D01*
X185711Y63804D01*
X184750Y63426D01*
X183790Y63804D01*
X183468Y64019D01*
X182250Y64261D01*
X181032Y64019D01*
X179999Y63329D01*
X179501D01*
X178469Y64019D01*
X177250Y64261D01*
X176032Y64019D01*
X174999Y63329D01*
X174501D01*
X173468Y64019D01*
X172250Y64261D01*
X171032Y64019D01*
X169999Y63329D01*
X169501D01*
X168469Y64019D01*
X167250Y64261D01*
X166032Y64019D01*
X165711Y63804D01*
X164999Y63329D01*
X164501D01*
X163789Y63804D01*
X163468Y64019D01*
X162250Y64261D01*
X161520Y64116D01*
X161032Y64019D01*
X159999Y63329D01*
X159309Y62296D01*
X159066Y61077D01*
Y54870D01*
X158986Y54749D01*
X158737Y53500D01*
Y38429D01*
X139886Y19578D01*
X138712Y20064D01*
Y41925D01*
X139982Y42674D01*
X140757Y42353D01*
Y47252D01*
X142257D01*
Y48752D01*
X147156D01*
X146627Y50030D01*
X146826Y50588D01*
X147218Y51300D01*
X147784D01*
X149696Y52092D01*
X151158Y53554D01*
X151950Y55466D01*
Y57534D01*
X151158Y59446D01*
X149696Y60908D01*
X149508Y60986D01*
Y63317D01*
X156828D01*
X158046Y63559D01*
X159079Y64249D01*
X159769Y65282D01*
X160012Y66500D01*
X159769Y67718D01*
X159079Y68751D01*
X159467Y70000D01*
X149250D01*
Y73000D01*
X159466D01*
X159079Y74249D01*
X159769Y75282D01*
X160012Y76500D01*
X159769Y77718D01*
X159079Y78751D01*
Y79249D01*
X159769Y80282D01*
X160012Y81500D01*
X159769Y82718D01*
X159555Y83039D01*
X159177Y84000D01*
X159555Y84961D01*
X159769Y85282D01*
X160012Y86500D01*
X159919Y86967D01*
X160250Y87427D01*
Y88237D01*
X210684D01*
X210851Y87988D01*
D02*
G37*
%LPC*%
G36*
X346500Y233750D02*
X343400D01*
Y225150D01*
X346500D01*
Y233750D01*
D02*
G37*
G36*
X268850Y215750D02*
X264750D01*
Y210650D01*
X268850D01*
Y215750D01*
D02*
G37*
G36*
X302100Y180350D02*
X298000D01*
Y176250D01*
X302100D01*
Y180350D01*
D02*
G37*
G36*
X295000D02*
X290900D01*
Y176250D01*
X295000D01*
Y180350D01*
D02*
G37*
G36*
X302100Y173250D02*
X298000D01*
Y169150D01*
X302100D01*
Y173250D01*
D02*
G37*
G36*
X295000D02*
X290900D01*
Y169150D01*
X295000D01*
Y173250D01*
D02*
G37*
G36*
X267250Y185750D02*
X261150D01*
Y180700D01*
X260050D01*
Y176978D01*
X259881Y176724D01*
X259438Y174500D01*
X259881Y172276D01*
X260050Y172023D01*
Y168300D01*
X270450D01*
Y169189D01*
X275800D01*
Y169050D01*
X287200D01*
Y180450D01*
X283069D01*
X281250Y180812D01*
X272350D01*
Y185250D01*
X267250D01*
Y185750D01*
D02*
G37*
G36*
X302100Y163350D02*
X298000D01*
Y159250D01*
X302100D01*
Y163350D01*
D02*
G37*
G36*
X295000D02*
X290900D01*
Y159250D01*
X295000D01*
Y163350D01*
D02*
G37*
G36*
X302100Y156250D02*
X298000D01*
Y152150D01*
X302100D01*
Y156250D01*
D02*
G37*
G36*
X295000D02*
X290900D01*
Y152150D01*
X295000D01*
Y156250D01*
D02*
G37*
G36*
X270450Y164200D02*
X260050D01*
Y160477D01*
X259881Y160224D01*
X259438Y158000D01*
X259881Y155776D01*
X260050Y155523D01*
Y151800D01*
X270450D01*
Y152438D01*
X275800D01*
Y152050D01*
X287200D01*
Y163450D01*
X282977D01*
X282724Y163619D01*
X280500Y164062D01*
X270450D01*
Y164200D01*
D02*
G37*
G36*
X300850Y146350D02*
X296750D01*
Y142250D01*
X300850D01*
Y146350D01*
D02*
G37*
G36*
X293750D02*
X289650D01*
Y142250D01*
X293750D01*
Y146350D01*
D02*
G37*
G36*
X300850Y139250D02*
X296750D01*
Y135150D01*
X300850D01*
Y139250D01*
D02*
G37*
G36*
X293750D02*
X289650D01*
Y135150D01*
X293750D01*
Y139250D01*
D02*
G37*
G36*
X174743Y156906D02*
Y153507D01*
X178141D01*
X177566Y154896D01*
X176131Y156331D01*
X174743Y156906D01*
D02*
G37*
G36*
X171743D02*
X170354Y156331D01*
X168919Y154896D01*
X168344Y153507D01*
X171743D01*
Y156906D01*
D02*
G37*
G36*
X178141Y150507D02*
X174743D01*
Y147108D01*
X176131Y147684D01*
X177566Y149118D01*
X178141Y150507D01*
D02*
G37*
G36*
X171743D02*
X168344D01*
X168919Y149118D01*
X170354Y147684D01*
X171743Y147108D01*
Y150507D01*
D02*
G37*
G36*
X328350Y128100D02*
X323250D01*
Y124000D01*
X328350D01*
Y128100D01*
D02*
G37*
G36*
X147156Y45752D02*
X143757D01*
Y42353D01*
X145146Y42929D01*
X146580Y44363D01*
X147156Y45752D01*
D02*
G37*
%LPD*%
D10*
X236018Y202750D02*
X241202Y197566D01*
X226750Y202750D02*
X236018D01*
X230397Y198250D02*
X233405Y195242D01*
X234758D01*
X241202Y196086D02*
Y197566D01*
X242656Y194632D02*
X244313D01*
X244632Y194950D02*
X301878D01*
X241202Y196086D02*
X242656Y194632D01*
X306350Y114192D02*
Y190478D01*
X244313Y194632D02*
X244632Y194950D01*
X301878D02*
X306350Y190478D01*
X223000Y198250D02*
X230397D01*
X306350Y114192D02*
X311000Y109542D01*
Y103432D02*
Y109542D01*
Y103432D02*
X316354Y98078D01*
X327147D01*
X330284Y101216D01*
X226500Y132000D02*
X230250Y128250D01*
Y121500D02*
Y128250D01*
X330284Y101784D02*
X334750Y106250D01*
X330284Y101216D02*
Y101784D01*
X334750Y106250D02*
X335875D01*
X167850Y207750D02*
X168000D01*
X154181D02*
X167850D01*
X168000D02*
X168000Y207750D01*
X139182Y192750D02*
X154181Y207750D01*
X135000Y192750D02*
X139182D01*
X132500Y190250D02*
X135000Y192750D01*
X132500Y189250D02*
Y190250D01*
X163500Y211750D02*
X165500Y213750D01*
X149750Y211750D02*
X163500D01*
X147750Y209750D02*
X149750Y211750D01*
X139750Y209750D02*
X147750D01*
X165950Y218050D02*
X166000Y218000D01*
X162032Y218050D02*
X165950D01*
X155041Y225041D02*
X162032Y218050D01*
X155041Y225041D02*
Y226459D01*
X147750Y233750D02*
X155041Y226459D01*
X139750Y233750D02*
X147750D01*
X181250Y233000D02*
X181300Y233050D01*
Y237051D01*
X199750Y255500D01*
Y256500D01*
D13*
X374150Y161400D02*
Y198500D01*
X374500D02*
X377750D01*
X385500Y206250D01*
Y235250D01*
X292000Y235000D02*
X292750D01*
X321016Y107505D02*
X321495D01*
X321500Y107500D01*
X379559Y37441D02*
X379750Y37250D01*
X312050Y116553D02*
Y132530D01*
X96350Y107000D02*
Y132251D01*
Y88600D02*
Y107000D01*
X312050Y116553D02*
X319853Y108750D01*
X323000Y105750D02*
X330000Y112750D01*
X319853Y108750D02*
X320000D01*
X312050Y132530D02*
X319000Y139479D01*
Y139750D01*
X365250Y152500D02*
X374150Y161400D01*
X95750Y107000D02*
X96350D01*
X84750Y77000D02*
X96350Y88600D01*
X87000Y141601D02*
X96350Y132251D01*
X87000Y141601D02*
Y150203D01*
X102000Y64500D02*
X108850Y71350D01*
X147250Y189250D02*
X147500D01*
Y188250D02*
X153250Y182500D01*
X147250Y188500D02*
X147500Y188250D01*
X153250Y162750D02*
Y182500D01*
X147250Y188500D02*
Y188750D01*
X153250Y161750D02*
Y162750D01*
X108850Y125850D02*
X125800Y142800D01*
X135300D01*
X152500Y160000D01*
X153000D01*
X108850Y71350D02*
Y125850D01*
X76750Y139953D02*
X87000Y150203D01*
Y180000D01*
X330000Y112750D02*
X335875D01*
X379559Y37441D02*
Y44941D01*
X378500Y46000D02*
X379559Y44941D01*
X86307Y181443D02*
Y205110D01*
X86500Y190500D02*
X96728D01*
X104691Y198463D01*
Y205110D01*
X104897Y205316D01*
X86307Y181443D02*
X86500Y181250D01*
X86101Y205316D02*
X86307Y205110D01*
D14*
X346250Y214500D02*
X361750Y230000D01*
X345950Y214200D02*
X346250Y214500D01*
X346500D01*
X282750D02*
X346250D01*
X267750Y229500D02*
Y235000D01*
Y229500D02*
X282750Y214500D01*
X372500Y241250D02*
X373500D01*
X367050Y246700D02*
X372500Y241250D01*
X286450Y246700D02*
X367050D01*
X280250Y240500D02*
X286450Y246700D01*
X280250Y235000D02*
Y240500D01*
X371750Y112750D02*
X376750Y107750D01*
X377250Y122250D02*
X378250Y123250D01*
X357250Y213500D02*
X374000Y230250D01*
X182584Y13750D02*
X183584D01*
X153000Y160750D02*
Y162250D01*
X122000Y50500D02*
X130250Y42250D01*
X122500Y71250D02*
X127000D01*
X121750Y54000D02*
Y70500D01*
X122500Y71250D01*
X122000Y50500D02*
Y54750D01*
X153000Y160750D02*
X162250Y151500D01*
X121750Y74000D02*
X123250D01*
X182584Y13750D02*
Y14167D01*
X217000Y49622D02*
Y52750D01*
Y42842D02*
Y49622D01*
X200139Y30306D02*
X204464D01*
X217000Y42842D01*
X357250Y144646D02*
X365718Y136178D01*
Y133533D02*
Y136178D01*
Y133533D02*
X375501Y123750D01*
X357250Y144646D02*
Y213500D01*
X124250Y74000D02*
X127000Y71250D01*
X123250Y74000D02*
X124250D01*
X146500Y56750D02*
X146750Y56500D01*
X345950Y137800D02*
Y214200D01*
Y137800D02*
X346750Y137000D01*
X363125Y112750D02*
X371750D01*
X374750Y122000D02*
Y122000D01*
X372000Y119250D02*
X374750Y122000D01*
X363125Y119250D02*
X372000D01*
X376500Y135250D02*
X376500Y135250D01*
X403000D01*
X375501Y123750D02*
X375750D01*
X378250Y123250D02*
X400000D01*
X403000Y120250D01*
X162250Y134500D02*
Y151500D01*
X146500Y56750D02*
Y65750D01*
X183584Y13750D02*
X200139Y30306D01*
D16*
X224150Y212750D02*
X238144D01*
X241194Y209700D02*
X242394Y208500D01*
X238144Y212750D02*
X241194Y209700D01*
X242394Y208500D02*
X253728D01*
X253788Y208440D01*
X279750Y258750D02*
X280000Y258500D01*
X266750Y271750D02*
X279750Y258750D01*
X255500Y271750D02*
X266750D01*
X280000Y258250D02*
Y258500D01*
X244300Y252444D02*
Y260550D01*
X227306Y235450D02*
X244300Y252444D01*
Y260550D02*
X255500Y271750D01*
X216450Y235450D02*
X227306D01*
X216000Y235000D02*
X216450Y235450D01*
X216000Y230900D02*
Y235000D01*
D20*
X311250Y267000D02*
D03*
X236750D02*
D03*
X389000Y-15750D02*
D03*
X314500D02*
D03*
X329500Y267250D02*
D03*
X404001D02*
D03*
D21*
X280250Y235000D02*
D03*
X292750D02*
D03*
X267750D02*
D03*
X255250D02*
D03*
X370500Y16250D02*
D03*
X358000D02*
D03*
X333000D02*
D03*
X345500D02*
D03*
X348000Y235250D02*
D03*
X360500D02*
D03*
X385500D02*
D03*
X373000D02*
D03*
D22*
X104000Y180000D02*
D03*
X87000D02*
D03*
X266750Y187250D02*
D03*
X249750D02*
D03*
X273500Y73750D02*
D03*
X290500D02*
D03*
X273750Y57000D02*
D03*
X290750D02*
D03*
X136250Y161750D02*
D03*
X153250D02*
D03*
X127750Y251250D02*
D03*
X144750D02*
D03*
X104000Y251750D02*
D03*
X87000D02*
D03*
X263250Y217250D02*
D03*
X246250D02*
D03*
D23*
X450000Y187750D02*
D03*
Y67750D02*
D03*
D24*
X403000Y165250D02*
D03*
Y150250D02*
D03*
Y135250D02*
D03*
Y120250D02*
D03*
Y105250D02*
D03*
Y90250D02*
D03*
D25*
X132500Y189250D02*
D03*
X147500D02*
D03*
X265250Y158000D02*
D03*
X250250D02*
D03*
X265250Y174500D02*
D03*
X250250D02*
D03*
X273750Y112250D02*
D03*
X258750D02*
D03*
X273750Y93500D02*
D03*
X288750D02*
D03*
X274500Y41000D02*
D03*
X289500D02*
D03*
X30250Y196250D02*
D03*
X45250D02*
D03*
X199750Y256500D02*
D03*
X184750D02*
D03*
X250000Y142250D02*
D03*
X265000D02*
D03*
X87500Y64000D02*
D03*
X102500D02*
D03*
X48250Y60750D02*
D03*
X33250D02*
D03*
X87500Y39000D02*
D03*
X102500D02*
D03*
X87750Y14250D02*
D03*
X102750D02*
D03*
D26*
X374150Y198750D02*
D03*
X331350D02*
D03*
D27*
X281500Y157750D02*
D03*
X296500D02*
D03*
X281500Y174750D02*
D03*
X296500D02*
D03*
X12500Y196250D02*
D03*
X-2500D02*
D03*
X295250Y140750D02*
D03*
X280250D02*
D03*
X2250Y60750D02*
D03*
X17250D02*
D03*
D28*
X267500Y27000D02*
D03*
Y15000D02*
D03*
Y3000D02*
D03*
X139750Y233750D02*
D03*
Y221750D02*
D03*
Y209750D02*
D03*
D29*
X86101Y228684D02*
D03*
X104897D02*
D03*
Y205316D02*
D03*
X95499D02*
D03*
X86101D02*
D03*
D30*
X377000Y123250D02*
D03*
Y108250D02*
D03*
X377750Y47000D02*
D03*
Y62000D02*
D03*
X358000Y46500D02*
D03*
Y61500D02*
D03*
Y75000D02*
D03*
Y90000D02*
D03*
X377500Y90250D02*
D03*
Y75250D02*
D03*
X340500Y61500D02*
D03*
Y46500D02*
D03*
X228750Y12750D02*
D03*
Y-2250D02*
D03*
X205417Y12750D02*
D03*
Y-2250D02*
D03*
X158750Y12750D02*
D03*
Y-2250D02*
D03*
D31*
X340000Y74750D02*
D03*
Y91750D02*
D03*
X321750Y122500D02*
D03*
Y105500D02*
D03*
X182584Y13750D02*
D03*
Y-3250D02*
D03*
X127250Y39500D02*
D03*
Y22500D02*
D03*
X123250Y74000D02*
D03*
Y91000D02*
D03*
D32*
X363125Y119250D02*
D03*
Y112750D02*
D03*
Y125750D02*
D03*
Y106250D02*
D03*
X335875Y125750D02*
D03*
Y119250D02*
D03*
Y112750D02*
D03*
Y106250D02*
D03*
D33*
X217250Y53500D02*
D03*
X212250D02*
D03*
X207250D02*
D03*
X202250D02*
D03*
X197250D02*
D03*
X192250D02*
D03*
X187250D02*
D03*
X182250D02*
D03*
X177250D02*
D03*
X172250D02*
D03*
X167250D02*
D03*
X162250D02*
D03*
Y134500D02*
D03*
X167250D02*
D03*
X172250D02*
D03*
X177250D02*
D03*
X182250D02*
D03*
X187250D02*
D03*
X192250D02*
D03*
X197250D02*
D03*
X202250D02*
D03*
X207250D02*
D03*
X212250D02*
D03*
X217250D02*
D03*
D34*
X149250Y66500D02*
D03*
Y71500D02*
D03*
Y76500D02*
D03*
Y81500D02*
D03*
Y86500D02*
D03*
Y91500D02*
D03*
Y96500D02*
D03*
Y101500D02*
D03*
Y106500D02*
D03*
Y111500D02*
D03*
Y116500D02*
D03*
Y121500D02*
D03*
X230250D02*
D03*
Y116500D02*
D03*
Y111500D02*
D03*
Y106500D02*
D03*
Y101500D02*
D03*
Y96500D02*
D03*
Y91500D02*
D03*
Y86500D02*
D03*
Y81500D02*
D03*
Y76500D02*
D03*
Y71500D02*
D03*
Y66500D02*
D03*
D35*
X69000Y38500D02*
D03*
Y33500D02*
D03*
X69838Y28476D02*
D03*
X52566D02*
D03*
X53000Y33500D02*
D03*
Y38500D02*
D03*
D36*
X68850Y98800D02*
D03*
Y103800D02*
D03*
Y108800D02*
D03*
Y113800D02*
D03*
Y118800D02*
D03*
Y123800D02*
D03*
Y128800D02*
D03*
Y133800D02*
D03*
Y138800D02*
D03*
Y143800D02*
D03*
Y148800D02*
D03*
Y153800D02*
D03*
D37*
X167850Y222750D02*
D03*
Y217750D02*
D03*
Y212750D02*
D03*
Y207750D02*
D03*
Y202750D02*
D03*
Y197750D02*
D03*
Y192750D02*
D03*
Y187750D02*
D03*
Y182750D02*
D03*
X224150D02*
D03*
Y187750D02*
D03*
Y192750D02*
D03*
Y197750D02*
D03*
Y202750D02*
D03*
Y207750D02*
D03*
Y212750D02*
D03*
Y217750D02*
D03*
Y222750D02*
D03*
D38*
X181000Y174600D02*
D03*
X186000D02*
D03*
X191000D02*
D03*
X196000D02*
D03*
X201000D02*
D03*
X206000D02*
D03*
X211000D02*
D03*
X216000D02*
D03*
Y230900D02*
D03*
X211000D02*
D03*
X206000D02*
D03*
X201000D02*
D03*
X196000D02*
D03*
X191000D02*
D03*
X186000D02*
D03*
X181000D02*
D03*
X176000Y174600D02*
D03*
Y230900D02*
D03*
D65*
X349500Y116000D02*
D03*
D66*
X247000Y183776D02*
Y189500D01*
X224350Y187550D02*
X232388D01*
X234762Y187012D02*
X235750Y188000D01*
X231041Y179559D02*
X242783D01*
X224150Y187750D02*
X224350Y187550D01*
X232388D02*
X232914Y187024D01*
X227850Y182750D02*
X231041Y179559D01*
X234762Y186259D02*
Y187012D01*
X232914Y187024D02*
X234275D01*
X235000Y187750D01*
X224150Y182750D02*
X227850D01*
X237166Y208000D02*
X244916Y200250D01*
X304750D02*
X335875Y169125D01*
X244916Y200250D02*
X304750D01*
X223750Y208000D02*
X237166D01*
X242783Y179559D02*
X247000Y183776D01*
X224150Y222750D02*
X245500D01*
X228300Y192225D02*
X232525Y188000D01*
X228300Y192225D02*
Y192300D01*
X227850Y192750D02*
X228300Y192300D01*
X224150Y192750D02*
X227850D01*
X327250Y89250D02*
X337500D01*
X324475Y82550D02*
X346838D01*
X305164Y101860D02*
X324475Y82550D01*
X298750Y65750D02*
X330000D01*
X337500Y89250D02*
X340000Y91750D01*
X305164Y101860D02*
Y109438D01*
X346838Y82550D02*
X347492Y83204D01*
X372546D01*
X300464Y99286D02*
X324500Y75250D01*
X300464Y99286D02*
Y107492D01*
X370500Y10750D02*
X389000Y-7750D01*
Y-14500D02*
Y-7750D01*
X370500Y10750D02*
Y16250D01*
X383000D01*
X423625Y56875D01*
X426500Y59500D02*
X452750Y85750D01*
X290750Y57000D02*
Y73750D01*
Y57000D02*
X290750D01*
X418750Y187750D02*
Y188500D01*
Y187168D02*
Y187750D01*
X401500Y151250D02*
X403000Y152750D01*
X452750Y111250D02*
Y189250D01*
X362000Y125750D02*
Y129691D01*
X290750Y73750D02*
X291000Y74000D01*
X181500Y-2250D02*
X182750Y-3500D01*
X168000Y202250D02*
X169000Y203250D01*
X122250Y221750D02*
X122500Y221500D01*
X123000Y161000D02*
X137500D01*
X56050Y154000D02*
X69750D01*
X-9750Y169750D02*
X-7246D01*
X158000Y-2250D02*
X181500D01*
X50262Y85772D02*
Y92000D01*
X-11522Y84000D02*
X-9750Y85772D01*
X294000Y41000D02*
X311750Y23250D01*
X282000Y15000D02*
X300750Y-3750D01*
X267500Y15000D02*
X282000D01*
X316750Y-13000D02*
Y-9500D01*
X311000Y-3750D02*
X316750Y-9500D01*
X300750Y-3750D02*
X311000D01*
X111022Y-13900D02*
X162000Y37078D01*
X122263Y3987D02*
X135450Y17174D01*
X120487Y3987D02*
X122263D01*
X107300Y-9200D02*
X120487Y3987D01*
X70200Y-9200D02*
X107300D01*
X2250Y60750D02*
X37500Y25500D01*
Y-1500D02*
Y25500D01*
X48388Y48362D02*
X56550Y56524D01*
X44262Y48362D02*
X48388D01*
X36100Y40200D02*
X44262Y48362D01*
X36100Y34650D02*
Y40200D01*
Y34650D02*
X42197Y28553D01*
X52489D01*
X52566Y28476D01*
X271013Y105005D02*
X289770D01*
X258750Y111250D02*
X264313Y105687D01*
Y102230D02*
Y105687D01*
Y102230D02*
X270043Y96500D01*
X271750D01*
X273500Y94750D01*
Y93500D02*
Y94750D01*
X266672Y81578D02*
Y90303D01*
X250475Y106500D02*
X266672Y90303D01*
X258278Y87528D02*
X259972D01*
X253272Y84752D02*
X265727Y72298D01*
X253272Y84752D02*
Y85886D01*
X243036Y96122D02*
X253272Y85886D01*
X241262Y91250D02*
X248572Y83939D01*
Y82806D02*
Y83939D01*
Y82806D02*
X259000Y72378D01*
X252750Y9750D02*
Y71981D01*
X243872Y80859D02*
X252750Y71981D01*
X243872Y80859D02*
Y81993D01*
X239743Y86122D02*
X243872Y81993D01*
X247150Y50256D02*
Y70362D01*
X241089Y76423D02*
X247150Y70362D01*
X237750Y76423D02*
X241089D01*
X242451Y58599D02*
Y68415D01*
X239443Y71422D02*
X242451Y68415D01*
X237750Y71422D02*
X239443D01*
X288025Y121700D02*
X294245Y115480D01*
X246697Y121700D02*
X288025D01*
X285037Y131335D02*
X298945Y117427D01*
X289770Y105005D02*
X295450Y99325D01*
X294245Y113711D02*
Y115480D01*
Y113711D02*
X300464Y107492D01*
X243708Y131335D02*
X285037D01*
X298945Y115658D02*
Y117427D01*
Y115658D02*
X305164Y109438D01*
X295450Y78950D02*
Y99325D01*
X418750Y187750D02*
X450000D01*
X415000Y183418D02*
X418750Y187168D01*
X415000Y168750D02*
Y183418D01*
X411500Y165250D02*
X415000Y168750D01*
X403000Y165250D02*
X411500D01*
X291250Y74750D02*
X295450Y78950D01*
X67400Y138900D02*
X75697D01*
X56150Y138700D02*
X69950D01*
X56050Y114000D02*
X73276D01*
X230250Y111500D02*
X258000D01*
X258750Y112250D01*
X207628Y143992D02*
X215342Y151707D01*
X234465Y140578D02*
Y145674D01*
X223733Y156407D02*
X234465Y145674D01*
X205043Y156407D02*
X223733D01*
X242749Y166000D02*
X250250Y173500D01*
X188375Y166000D02*
X242749D01*
X229765Y138631D02*
Y143728D01*
X221786Y151707D02*
X229765Y143728D01*
X215342Y151707D02*
X221786D01*
X192328Y143692D02*
X205043Y156407D01*
X247950Y161300D02*
X250250Y159000D01*
X186428Y161300D02*
X247950D01*
X181200Y166527D02*
X186428Y161300D01*
X229765Y138631D02*
X246697Y121700D01*
X234465Y140578D02*
X243708Y131335D01*
X243762Y140757D02*
X248000D01*
X249250Y142007D01*
Y143000D01*
X230750Y-4250D02*
X302000D01*
X228750Y-2250D02*
X230750Y-4250D01*
X452750Y85750D02*
Y111250D01*
X211000Y174600D02*
Y213750D01*
X211250Y192750D02*
X215550Y188450D01*
Y178750D02*
Y188450D01*
Y178750D02*
X216000Y178300D01*
Y174600D02*
Y178300D01*
X178750Y217750D02*
X224150D01*
X207250Y217500D02*
X211000Y213750D01*
X176450Y205124D02*
Y225375D01*
X176750Y215750D02*
X178750Y217750D01*
X169000Y203250D02*
X174576D01*
X176450Y205124D01*
X176200Y225626D02*
X176450Y225375D01*
X176200Y225626D02*
Y230700D01*
X176000Y230900D02*
X176200Y230700D01*
X311750Y23250D02*
X331500D01*
X333000Y21750D01*
Y17500D02*
Y21750D01*
X289500Y41000D02*
X294000D01*
X326000Y119250D02*
X335875D01*
X323000Y122250D02*
X326000Y119250D01*
X200000Y96500D02*
X203000Y99500D01*
X179092Y111422D02*
X179759Y110755D01*
X193275Y111300D02*
X205543D01*
X187120Y117455D02*
X193275Y111300D01*
X173094Y117455D02*
X187120D01*
X172139Y116500D02*
X173094Y117455D01*
X149250Y116500D02*
X172139D01*
X171147Y122155D02*
X197512D01*
X170492Y121500D02*
X171147Y122155D01*
X149250Y121500D02*
X170492D01*
X75349Y78477D02*
X90150Y93278D01*
X79363Y107265D02*
X85450Y101178D01*
X79363Y107265D02*
Y107913D01*
X73276Y114000D02*
X79363Y107913D01*
X85450Y95225D02*
Y101178D01*
X90150Y93278D02*
Y103125D01*
X89050Y104225D02*
X90150Y103125D01*
X89050Y104225D02*
Y106998D01*
X86250Y109798D02*
X89050Y106998D01*
X68200Y123700D02*
X86050D01*
X86250Y123500D01*
X-11750Y84000D02*
X-11522D01*
X-9750Y85772D02*
Y169600D01*
X60000Y16750D02*
Y17832D01*
X61638Y19471D01*
Y31224D01*
X63837Y33422D01*
X65500D01*
X47250Y60750D02*
X48250D01*
X69751Y78477D02*
X75349D01*
X56550Y65275D02*
X69751Y78477D01*
X56550Y56524D02*
Y65275D01*
X77668Y98000D02*
X78750D01*
X73402Y83177D02*
X85450Y95225D01*
X66177Y83177D02*
X73402D01*
X50250Y67250D02*
X66177Y83177D01*
X86250Y109798D02*
Y122250D01*
X50250Y62750D02*
Y67250D01*
X48250Y60750D02*
X50250Y62750D01*
X140058Y71422D02*
X149173D01*
X141498Y47252D02*
X142257D01*
X137050Y51700D02*
X141498Y47252D01*
X132350Y47925D02*
X135450Y44826D01*
Y17174D02*
Y44826D01*
X138866Y76877D02*
X143250D01*
X136250Y81750D02*
X143500D01*
X137050Y51700D02*
Y68415D01*
X140058Y71422D01*
X149173D02*
X149250Y71500D01*
X132350Y70362D02*
X138866Y76877D01*
X132350Y47925D02*
Y70362D01*
X136020Y81519D02*
X136250Y81750D01*
X134022Y81519D02*
X136020D01*
X133257Y80754D02*
X134022Y81519D01*
X115050Y27550D02*
Y96326D01*
X286750Y87999D02*
Y92750D01*
X272250Y76000D02*
X273750D01*
X217122Y49500D02*
X222750D01*
X144750Y252000D02*
X163950Y232800D01*
X147500Y189250D02*
Y190250D01*
Y188250D02*
Y189250D01*
X76868Y98800D02*
X77668Y98000D01*
X68850Y98800D02*
X76868D01*
X50750Y163226D02*
Y165250D01*
Y163226D02*
X55176Y158800D01*
Y154874D02*
Y158800D01*
Y154874D02*
X55750Y154300D01*
X50533Y85500D02*
X52000D01*
X50262Y85772D02*
X50533Y85500D01*
X50262Y92000D02*
X55750Y97488D01*
Y98300D01*
X67050D02*
X67750Y99000D01*
X55750Y98300D02*
X67050D01*
X171258Y152007D02*
X173243D01*
X173858D01*
X182000Y143865D01*
Y141750D02*
Y143865D01*
X167250Y148000D02*
X171258Y152007D01*
X167250Y134500D02*
Y148000D01*
X281750Y49750D02*
X289500Y42000D01*
X281750Y49750D02*
Y64500D01*
X273500Y72750D02*
X281750Y64500D01*
X273500Y72750D02*
Y73750D01*
X372546Y83204D02*
X377750Y78000D01*
X153250Y162750D02*
X153750Y162250D01*
X217000Y49622D02*
X217122Y49500D01*
X216872Y49750D02*
X217000Y49622D01*
X222750Y49500D02*
X230250Y57000D01*
Y66500D01*
X286750Y92750D02*
X287750Y93750D01*
X273500Y74750D02*
X286750Y87999D01*
X273500Y73750D02*
Y74750D01*
X153750Y162000D02*
Y162250D01*
X163950Y222950D02*
Y232800D01*
Y222950D02*
X164150Y222750D01*
X167850D01*
X452750Y189250D02*
X453250Y189750D01*
X184726Y24226D02*
X195256Y34755D01*
X179534Y24226D02*
X184726D01*
X169004Y13696D02*
X179534Y24226D01*
X169004Y7004D02*
Y13696D01*
X161000Y-1000D02*
X169004Y7004D01*
X160500Y-1000D02*
X161000D01*
X195256Y34755D02*
X202621D01*
X212172Y44307D01*
Y53422D01*
X212250Y53500D01*
X226750Y-2250D02*
X227500Y-3000D01*
X205417Y-2250D02*
X226750D01*
X203750Y-2750D02*
X204750Y-1750D01*
X183083Y-2750D02*
X203750D01*
X182584Y-3250D02*
X183083Y-2750D01*
X127250Y22500D02*
X127250Y22500D01*
X44557Y33577D02*
X52923D01*
X44557D02*
Y34585D01*
X42800Y36343D02*
X44557Y34585D01*
X42800Y36343D02*
Y37425D01*
X52923Y33577D02*
X53000Y33500D01*
X85500Y123000D02*
X86250Y122250D01*
X359268Y132424D02*
Y133506D01*
Y132424D02*
X362000Y129691D01*
Y125750D02*
X363125D01*
X291250Y73250D02*
X298750Y65750D01*
X330000D02*
X339000Y74750D01*
X340000D01*
X237500Y96122D02*
X243036D01*
X234791Y86122D02*
X239743D01*
X230250Y106500D02*
X250475D01*
X266672Y81578D02*
X272250Y76000D01*
X265727Y66023D02*
Y72298D01*
X259000Y27500D02*
Y72378D01*
X244305Y101500D02*
X258278Y87528D01*
X231500Y91250D02*
X241262D01*
X230250Y101500D02*
X244305D01*
X233750Y86122D02*
X234791D01*
X205543Y111300D02*
X209450Y115207D01*
Y120775D01*
X207328Y122897D02*
X209450Y120775D01*
X207328Y122897D02*
Y127000D01*
X201668Y118000D02*
X202750D01*
X197512Y122155D02*
X201668Y118000D01*
X149328Y111422D02*
X179092D01*
X361250Y90250D02*
Y93737D01*
X361268Y93755D01*
X349500Y94026D02*
X355929Y100455D01*
X358980D01*
X363250Y104724D01*
X212750Y91336D02*
Y91500D01*
Y91336D02*
X216050Y88036D01*
Y86953D02*
Y88036D01*
X95499Y217500D02*
Y241499D01*
Y205316D02*
Y217500D01*
X107637D01*
X111887Y221750D01*
X122250D01*
X350267Y76504D02*
Y77117D01*
X342276Y94026D02*
X349500D01*
X149250Y111500D02*
X149328Y111422D01*
X186200Y170700D02*
X186500Y170400D01*
Y167874D02*
Y170400D01*
Y167874D02*
X188375Y166000D01*
X250250Y173500D02*
Y174500D01*
X181200Y166527D02*
Y170700D01*
X250250Y158000D02*
Y159000D01*
X149250Y96500D02*
X200000D01*
X330750Y46250D02*
X330875Y46375D01*
X338875D01*
X339250Y46750D01*
X149250Y91500D02*
X212750D01*
X207628Y142000D02*
Y143992D01*
X376750Y62000D02*
X377750D01*
X192328Y134578D02*
Y143692D01*
X192250Y134500D02*
X192328Y134578D01*
X75697Y138900D02*
X76750Y139953D01*
X67250Y138750D02*
X67400Y138900D01*
X104000Y179000D02*
X106500Y176500D01*
X55750Y154300D02*
X56050Y154000D01*
X107500Y176500D02*
X123000Y161000D01*
X106500Y176500D02*
X107500D01*
X104000Y179000D02*
Y180000D01*
X95499Y241499D02*
X101500Y247500D01*
Y248250D01*
X102750Y249500D01*
X103500D01*
X44900Y169600D02*
X45750Y168750D01*
X-9750Y169600D02*
X44900D01*
X45750Y83000D02*
X46500Y83750D01*
X-9750Y83000D02*
X45750D01*
X-4750Y82500D02*
X2250Y75500D01*
Y60750D02*
Y75500D01*
X-7246Y169750D02*
X-4625Y172371D01*
Y194125D01*
X-2500Y196250D01*
X122750Y221750D02*
X139750D01*
X183500Y257750D02*
Y266750D01*
Y257750D02*
X184750Y256500D01*
X126500Y265500D02*
X127125Y264875D01*
Y252125D02*
Y264875D01*
Y252125D02*
X127250Y252000D01*
X103750Y265250D02*
X104000Y265000D01*
Y251750D02*
Y265000D01*
X134981Y91655D02*
X140058Y86578D01*
X141750D01*
X102750Y15250D02*
X115050Y27550D01*
X134981Y91655D02*
Y92795D01*
X129576Y98200D02*
X134981Y92795D01*
X115050Y96326D02*
X116925Y98200D01*
X129576D01*
X102500Y39000D02*
Y39000D01*
X102750Y14250D02*
Y15250D01*
X87500Y13750D02*
Y15500D01*
X85750Y17250D02*
X87500Y15500D01*
X84487Y17250D02*
X85750D01*
X73261Y28476D02*
X84487Y17250D01*
X69838Y28476D02*
X73261D01*
X87500Y41000D02*
X88500Y40000D01*
X85750Y38750D02*
Y38750D01*
X85500Y38500D02*
X85750Y38750D01*
X69000Y38500D02*
X85500D01*
X274125Y41375D02*
Y57625D01*
X208417Y24565D02*
X242451Y58599D01*
X231750Y34856D02*
X247150Y50256D01*
X265727Y66023D02*
X273750Y58000D01*
Y57000D02*
Y58000D01*
X274125Y41375D02*
X274500Y41000D01*
X335875Y125750D02*
Y169125D01*
X375500Y45750D02*
X378000D01*
X357000Y46500D02*
X358000D01*
X358000Y46000D02*
X358500Y45500D01*
X377250Y90500D02*
X378250D01*
X390500Y78250D02*
X391250D01*
X378250Y90500D02*
X390500Y78250D01*
X340000Y91750D02*
X342276Y94026D01*
X403000Y152750D02*
Y165250D01*
X53000Y46328D02*
X62485Y55812D01*
Y61735D01*
X63250Y62500D01*
X53000Y41175D02*
Y46328D01*
Y38500D02*
Y41175D01*
X56518Y122300D02*
X62818Y128600D01*
X155000Y197750D02*
X163950D01*
X147500Y190250D02*
X155000Y197750D01*
X175750Y232750D02*
Y239625D01*
X183625Y247500D01*
Y255375D01*
X184750Y256500D01*
X363250Y104724D02*
Y106000D01*
X359500Y29750D02*
X375500Y45750D01*
X359500Y17750D02*
Y29750D01*
X358000Y16250D02*
X359500Y17750D01*
X355000Y44500D02*
X357000Y46500D01*
X355000Y31250D02*
Y44500D01*
X345500Y21750D02*
X355000Y31250D01*
X345500Y16250D02*
Y21750D01*
X252750Y9750D02*
X259500Y3000D01*
X267500D01*
X259000Y27500D02*
X259500Y27000D01*
X267500D01*
X62818Y128600D02*
X68000D01*
X55750Y122300D02*
X56518D01*
X55750Y114300D02*
X56050Y114000D01*
X69950Y138700D02*
X70000Y138750D01*
X55750Y138300D02*
X56150Y138700D01*
X62400Y-13900D02*
X111022D01*
X162000Y37078D02*
Y53500D01*
X62500Y-1500D02*
X70200Y-9200D01*
X50000Y-1500D02*
X62400Y-13900D01*
X231750Y14750D02*
Y34856D01*
X229750Y12750D02*
X231750Y14750D01*
X228750Y12750D02*
X229750D01*
X208417Y14750D02*
Y24565D01*
X206417Y12750D02*
X208417Y14750D01*
X205417Y12750D02*
X206417D01*
X179250Y32250D02*
X185115D01*
X197628Y44763D01*
Y52750D01*
X159750Y12750D02*
X179250Y32250D01*
X158750Y12750D02*
X159750D01*
X87500Y41000D02*
Y64000D01*
D67*
X266750Y186250D02*
Y187250D01*
X285061D01*
X296500Y175811D01*
Y174750D02*
Y175811D01*
X297000Y170750D02*
Y174750D01*
X296500Y140250D02*
Y157750D01*
Y158750D02*
Y170750D01*
X263250Y217750D02*
Y218750D01*
X296500Y157750D02*
Y158250D01*
X296500Y158750D02*
X296500Y158750D01*
X358500Y63750D02*
Y74500D01*
Y63750D02*
X359500Y62750D01*
X358000Y75000D02*
X358500Y74500D01*
X144750Y251250D02*
X145250D01*
X87000Y229000D02*
X88000Y228000D01*
X87000Y229000D02*
Y251750D01*
X75080Y226080D02*
X84895D01*
X45250Y196250D02*
X75080Y226080D01*
X45250Y196250D02*
Y196250D01*
X30500Y60750D02*
X30750Y61000D01*
X17250Y60750D02*
X30500D01*
X275200Y142751D02*
X278701Y139250D01*
X279250D01*
X265500Y142751D02*
X275200D01*
X265000Y142250D02*
X265500Y142751D01*
X265500Y158250D02*
X280500D01*
X265250Y158000D02*
X265500Y158250D01*
X265750Y175000D02*
X281250D01*
X265250Y174500D02*
X265750Y175000D01*
X13001Y196750D02*
X29750D01*
X12500Y196250D02*
X13001Y196750D01*
D68*
X294000Y34550D02*
Y38500D01*
X401750Y90250D02*
Y102250D01*
X331350Y198100D02*
Y198750D01*
X401750Y90250D02*
X403000D01*
D69*
X267250Y258750D02*
D03*
X75000Y-1500D02*
D03*
X62500D02*
D03*
X50000D02*
D03*
X37500D02*
D03*
X254750Y258750D02*
D03*
X279750D02*
D03*
X292250D02*
D03*
D70*
X0Y250000D02*
D03*
Y0D02*
D03*
D71*
X-9750Y83000D02*
D03*
Y169600D02*
D03*
X47250Y83000D02*
D03*
Y169600D02*
D03*
D72*
X48750Y102300D02*
D03*
Y110300D02*
D03*
Y118300D02*
D03*
Y150300D02*
D03*
Y142300D02*
D03*
Y134300D02*
D03*
X55750Y98300D02*
D03*
Y114300D02*
D03*
Y122300D02*
D03*
Y154300D02*
D03*
Y138300D02*
D03*
Y130300D02*
D03*
D73*
X52250Y166350D02*
D03*
Y86250D02*
D03*
D74*
X62250Y90300D02*
D03*
Y162300D02*
D03*
D75*
X459999Y222999D02*
D03*
X468499Y205999D02*
D03*
Y35999D02*
D03*
X442999Y222999D02*
D03*
X451499Y205999D02*
D03*
Y35999D02*
D03*
X425999Y256999D02*
D03*
Y222999D02*
D03*
X434499Y205999D02*
D03*
X425999Y18999D02*
D03*
Y-15001D02*
D03*
X417499Y239999D02*
D03*
X408999Y222999D02*
D03*
X417499Y205999D02*
D03*
Y1999D02*
D03*
X408999Y-15001D02*
D03*
X400499Y239999D02*
D03*
Y205999D02*
D03*
Y1999D02*
D03*
X374999Y256999D02*
D03*
Y-15001D02*
D03*
X357999Y256999D02*
D03*
Y-15001D02*
D03*
X340999D02*
D03*
X323999Y222999D02*
D03*
X306999D02*
D03*
X315499Y171999D02*
D03*
Y35999D02*
D03*
X298499Y1999D02*
D03*
X289999Y-15001D02*
D03*
X272999D02*
D03*
X255999D02*
D03*
X238999D02*
D03*
X221999D02*
D03*
X204999Y188999D02*
D03*
X213499Y69999D02*
D03*
X204999Y-15001D02*
D03*
X196499Y205999D02*
D03*
X187999Y188999D02*
D03*
X196499Y69999D02*
D03*
X187999Y-15001D02*
D03*
X179499Y69999D02*
D03*
X170999Y-15001D02*
D03*
X153999D02*
D03*
X145499Y137999D02*
D03*
Y1999D02*
D03*
X136999Y-15001D02*
D03*
X119999Y188999D02*
D03*
Y154999D02*
D03*
Y120999D02*
D03*
X102999Y154999D02*
D03*
X94499Y1999D02*
D03*
X68999Y256999D02*
D03*
Y188999D02*
D03*
X51999Y256999D02*
D03*
X60499Y239999D02*
D03*
X51999Y222999D02*
D03*
X34999Y256999D02*
D03*
X43499Y239999D02*
D03*
X34999Y222999D02*
D03*
Y154999D02*
D03*
Y120999D02*
D03*
Y18999D02*
D03*
X26499Y239999D02*
D03*
X17999Y222999D02*
D03*
X26499Y171999D02*
D03*
X17999Y154999D02*
D03*
X26499Y137999D02*
D03*
X17999Y120999D02*
D03*
X26499Y103999D02*
D03*
X17999Y86999D02*
D03*
X26499Y35999D02*
D03*
X17999Y18999D02*
D03*
X26499Y1999D02*
D03*
X17999Y-15001D02*
D03*
X999Y222999D02*
D03*
X9499Y171999D02*
D03*
X999Y154999D02*
D03*
X9499Y137999D02*
D03*
X999Y120999D02*
D03*
X9499Y103999D02*
D03*
Y35999D02*
D03*
X-16001Y222999D02*
D03*
Y188999D02*
D03*
Y154999D02*
D03*
X-7501Y137999D02*
D03*
X-16001Y120999D02*
D03*
X-7501Y103999D02*
D03*
Y69999D02*
D03*
X-16001Y52999D02*
D03*
X-7501Y35999D02*
D03*
X-16001Y18999D02*
D03*
X234758Y195242D02*
D03*
X267250Y186750D02*
D03*
X234762Y186259D02*
D03*
X253788Y208440D02*
D03*
X246750Y220750D02*
D03*
X375250Y199250D02*
D03*
X292000Y235000D02*
D03*
X404000Y269000D02*
D03*
X328250Y267500D02*
D03*
X327250Y89250D02*
D03*
X321016Y107505D02*
D03*
X314500Y-15750D02*
D03*
X389500Y-16250D02*
D03*
X379750Y37250D02*
D03*
X340767Y62253D02*
D03*
X290750Y57000D02*
D03*
X271013Y105005D02*
D03*
X259972Y87528D02*
D03*
X285250Y115000D02*
D03*
X288014Y88504D02*
D03*
X321500Y122250D02*
D03*
X219011Y145007D02*
D03*
X243762Y140757D02*
D03*
X426500Y59500D02*
D03*
X319000Y139750D02*
D03*
X365250Y152500D02*
D03*
X263250Y217750D02*
D03*
X203000Y99500D02*
D03*
X179759Y110755D02*
D03*
X95750Y107000D02*
D03*
X84750Y77000D02*
D03*
X60000Y16750D02*
D03*
X47250Y60750D02*
D03*
X78750Y98000D02*
D03*
X142257Y47252D02*
D03*
X133257Y80754D02*
D03*
X122000Y54750D02*
D03*
X122750Y91500D02*
D03*
X173243Y152007D02*
D03*
X294000Y34550D02*
D03*
X147250Y189250D02*
D03*
X121750Y74000D02*
D03*
X102000Y64500D02*
D03*
X128250Y39750D02*
D03*
X182584Y14167D02*
D03*
X249250Y187250D02*
D03*
X452750Y111250D02*
D03*
X418250Y187750D02*
D03*
X158000Y-2250D02*
D03*
X127250Y22500D02*
D03*
X42800Y37425D02*
D03*
X296500Y158250D02*
D03*
X359268Y133506D02*
D03*
X290500Y74000D02*
D03*
X226500Y132000D02*
D03*
X361268Y93755D02*
D03*
X216050Y86953D02*
D03*
X202750Y118000D02*
D03*
X350267Y76504D02*
D03*
X330750Y46250D02*
D03*
X324500Y75250D02*
D03*
X376750Y62000D02*
D03*
X136500Y162000D02*
D03*
X122750Y221750D02*
D03*
X183500Y266750D02*
D03*
X126500Y265500D02*
D03*
X103750Y265250D02*
D03*
X146750Y56500D02*
D03*
X102500Y39000D02*
D03*
X358500Y45500D02*
D03*
X391250Y78250D02*
D03*
X376500Y135250D02*
D03*
X402000Y102250D02*
D03*
X331350Y198100D02*
D03*
X63250Y62500D02*
D03*
X346750Y137000D02*
D03*
X377500Y108000D02*
D03*
X86250Y123500D02*
D03*
X87500Y252000D02*
D03*
X145250Y251250D02*
D03*
M02*
