M48
;Layer_Color=9474304
;FILE_FORMAT=4:4
METRIC,LZ
;TYPE=PLATED
T1F00S00C0.3000
T2F00S00C0.4000
T3F00S00C0.6000
T5F00S00C1.3000
;TYPE=NON_PLATED
T6F00S00C0.8500
%
T01
X-00011999Y-00016999
Y00023001
X00008001
X00018001Y00043001
X-00001999
X00028001Y00023001
X000428Y00037425
X0006Y0001675
X00048001Y-00016999
X00028001
X00098001Y00003001
X00138001
X00158Y-0000225
X00148001Y-00016999
X00168001
X00188001
X00208001
X00228001
X00248001
X00268001
X00288001
X003145Y-0001575
X00328001Y-00016999
X00348001
X00368001
X003895Y-0001625
X00408001Y-00016999
X00398001Y00003001
X00378001
X0037975Y0003725
X003585Y000455
X0033075Y0004625
X00294Y0003455
X00298001Y00003001
X00318001
X00218001
X00182584Y00014167
X0012725Y000225
X0012825Y0003975
X00142257Y00047252
X001025Y00039
X00128001Y-00016999
X00428001
X00418001Y00003001
X00428001Y00023001
X00448001
X00468001
X00478001Y00043001
X00458001
X00478001Y00003001
X00468001Y-00016999
X004265Y000595
X0045275Y0011125
X00458001Y00203001
X00478001
X00468001Y00223001
X00448001
X00428001
X00438001Y00203001
X00418001
X0041825Y0018775
X00418001Y00243001
X00428001Y00263001
X00468001
X00478001Y00243001
X00398001
X00408001Y00263001
X00389Y002685
X00368001Y00263001
X00348001
X00328001
X003135Y0026775
X00318001Y00243001
X00298001
X00308001Y00223001
X00288001
X0026325Y0021775
X0024675Y0022075
X00249Y00193
X00235Y00195
X00234762Y00186259
X00267Y001925
X002965Y0015825
X00318001Y00163001
X00319Y0013975
X003215Y0012225
X00321016Y00107505
X0032725Y0008925
X003245Y0007525
X00350267Y00076504
X00340767Y00062253
X00308001Y00063001
X0029075Y00057
X002905Y00074
X00288014Y00088504
X00259972Y00087528
X00271013Y00105005
X0028525Y00115
X00243762Y00140757
X002265Y00132
X00219011Y00145007
X0020275Y00118
X00203Y000995
X0021605Y00086953
X00178001Y00083001
X00179759Y00110755
X00173243Y00152007
X00148001Y00143001
X001365Y00162
X00118001Y00163001
X00098001
X00078001
X00068001Y00183001
X00048001
X00028001
Y00223001
X00048001
X00058001Y00243001
X00038001
X00048001Y00263001
X00068001
X00088001
X000875Y00252
X0010375Y0026525
X001265Y002655
X00148001Y00263001
X0014525Y0025125
X00168001Y00263001
X001835Y0026675
X00228001Y00263001
X00268001
X00288001
X0033135Y001981
X00398001Y00203001
X00408001Y00223001
X00388001
Y00183001
X00408001
X0036525Y001525
X00359268Y00133506
X0034675Y00137
X003765Y0013525
X003775Y00108
X00402Y0010225
X0039125Y0007825
X00388001Y00063001
X0037675Y00062
X00361268Y00093755
X0012275Y000915
X0012175Y00074
X00133257Y00080754
X00122Y0005475
X0014675Y000565
X00102Y000645
X0008475Y00077
X0007875Y00098
X0009575Y00107
X0008625Y001235
X00118001Y00123001
X00108001Y00143001
X00118001Y00203001
X0012275Y0022175
X0014725Y0018925
X00198001Y00203001
X00028001Y00263001
Y00143001
X00038001Y00123001
X00028001Y00103001
X0004725Y0006075
X0006325Y000625
X00018001Y00083001
X00008001Y00103001
X-00011999
X-00001999Y00123001
X00018001
X00008001Y00143001
X-00011999
Y00183001
X00008001
X00018001Y00163001
X00008001Y00223001
X-00011999
Y00063001
T02
X0004875Y001023
Y001103
Y001183
X0005575Y001143
Y001223
Y001303
Y001383
X0004875Y001423
Y001503
X0005575Y001543
X0004875Y001343
X0005575Y000983
T03
X000375Y-000015
X0005
X000625
X00075
X0024325Y002445
X0025575
X0026825
X0028075
T05
X0Y0
X0045
Y0025
X0
T06
X0006225Y000903
Y001623
M30
